%TF.GenerationSoftware,KiCad,Pcbnew,7.0.9*%
%TF.CreationDate,2024-02-04T10:52:35+00:00*%
%TF.ProjectId,QuadMod Components,51756164-4d6f-4642-9043-6f6d706f6e65,rev?*%
%TF.SameCoordinates,Original*%
%TF.FileFunction,Soldermask,Top*%
%TF.FilePolarity,Negative*%
%FSLAX46Y46*%
G04 Gerber Fmt 4.6, Leading zero omitted, Abs format (unit mm)*
G04 Created by KiCad (PCBNEW 7.0.9) date 2024-02-04 10:52:35*
%MOMM*%
%LPD*%
G01*
G04 APERTURE LIST*
G04 Aperture macros list*
%AMRoundRect*
0 Rectangle with rounded corners*
0 $1 Rounding radius*
0 $2 $3 $4 $5 $6 $7 $8 $9 X,Y pos of 4 corners*
0 Add a 4 corners polygon primitive as box body*
4,1,4,$2,$3,$4,$5,$6,$7,$8,$9,$2,$3,0*
0 Add four circle primitives for the rounded corners*
1,1,$1+$1,$2,$3*
1,1,$1+$1,$4,$5*
1,1,$1+$1,$6,$7*
1,1,$1+$1,$8,$9*
0 Add four rect primitives between the rounded corners*
20,1,$1+$1,$2,$3,$4,$5,0*
20,1,$1+$1,$4,$5,$6,$7,0*
20,1,$1+$1,$6,$7,$8,$9,0*
20,1,$1+$1,$8,$9,$2,$3,0*%
%AMFreePoly0*
4,1,19,0.500000,-0.750000,0.000000,-0.750000,0.000000,-0.744911,-0.071157,-0.744911,-0.207708,-0.704816,-0.327430,-0.627875,-0.420627,-0.520320,-0.479746,-0.390866,-0.500000,-0.250000,-0.500000,0.250000,-0.479746,0.390866,-0.420627,0.520320,-0.327430,0.627875,-0.207708,0.704816,-0.071157,0.744911,0.000000,0.744911,0.000000,0.750000,0.500000,0.750000,0.500000,-0.750000,0.500000,-0.750000,
$1*%
%AMFreePoly1*
4,1,19,0.000000,0.744911,0.071157,0.744911,0.207708,0.704816,0.327430,0.627875,0.420627,0.520320,0.479746,0.390866,0.500000,0.250000,0.500000,-0.250000,0.479746,-0.390866,0.420627,-0.520320,0.327430,-0.627875,0.207708,-0.704816,0.071157,-0.744911,0.000000,-0.744911,0.000000,-0.750000,-0.500000,-0.750000,-0.500000,0.750000,0.000000,0.750000,0.000000,0.744911,0.000000,0.744911,
$1*%
G04 Aperture macros list end*
%ADD10C,0.150000*%
%ADD11RoundRect,0.237500X0.237500X-0.250000X0.237500X0.250000X-0.237500X0.250000X-0.237500X-0.250000X0*%
%ADD12RoundRect,0.225000X-0.250000X0.225000X-0.250000X-0.225000X0.250000X-0.225000X0.250000X0.225000X0*%
%ADD13RoundRect,0.237500X0.300000X0.237500X-0.300000X0.237500X-0.300000X-0.237500X0.300000X-0.237500X0*%
%ADD14RoundRect,0.237500X-0.237500X0.250000X-0.237500X-0.250000X0.237500X-0.250000X0.237500X0.250000X0*%
%ADD15RoundRect,0.237500X-0.237500X0.300000X-0.237500X-0.300000X0.237500X-0.300000X0.237500X0.300000X0*%
%ADD16C,1.700000*%
%ADD17RoundRect,0.200000X-0.200000X-0.275000X0.200000X-0.275000X0.200000X0.275000X-0.200000X0.275000X0*%
%ADD18RoundRect,0.237500X-0.300000X-0.237500X0.300000X-0.237500X0.300000X0.237500X-0.300000X0.237500X0*%
%ADD19RoundRect,0.150000X0.150000X-0.825000X0.150000X0.825000X-0.150000X0.825000X-0.150000X-0.825000X0*%
%ADD20RoundRect,0.237500X-0.250000X-0.237500X0.250000X-0.237500X0.250000X0.237500X-0.250000X0.237500X0*%
%ADD21RoundRect,0.237500X0.250000X0.237500X-0.250000X0.237500X-0.250000X-0.237500X0.250000X-0.237500X0*%
%ADD22R,0.800000X1.600000*%
%ADD23RoundRect,0.075000X0.075000X-0.725000X0.075000X0.725000X-0.075000X0.725000X-0.075000X-0.725000X0*%
%ADD24RoundRect,0.075000X0.725000X-0.075000X0.725000X0.075000X-0.725000X0.075000X-0.725000X-0.075000X0*%
%ADD25RoundRect,0.237500X0.237500X-0.300000X0.237500X0.300000X-0.237500X0.300000X-0.237500X-0.300000X0*%
%ADD26R,1.500000X2.000000*%
%ADD27R,3.800000X2.000000*%
%ADD28O,0.950000X1.250000*%
%ADD29O,1.550000X1.000000*%
%ADD30R,1.350000X0.400000*%
%ADD31RoundRect,0.250000X-0.550000X1.050000X-0.550000X-1.050000X0.550000X-1.050000X0.550000X1.050000X0*%
%ADD32R,1.700000X1.700000*%
%ADD33RoundRect,0.225000X0.225000X0.375000X-0.225000X0.375000X-0.225000X-0.375000X0.225000X-0.375000X0*%
%ADD34RoundRect,0.150000X-0.825000X-0.150000X0.825000X-0.150000X0.825000X0.150000X-0.825000X0.150000X0*%
%ADD35O,1.700000X1.700000*%
%ADD36R,0.650000X1.560000*%
%ADD37RoundRect,0.100000X-0.712500X-0.100000X0.712500X-0.100000X0.712500X0.100000X-0.712500X0.100000X0*%
%ADD38RoundRect,0.250000X0.625000X-0.312500X0.625000X0.312500X-0.625000X0.312500X-0.625000X-0.312500X0*%
%ADD39FreePoly0,180.000000*%
%ADD40FreePoly1,180.000000*%
%ADD41R,2.000000X2.400000*%
%ADD42R,0.950000X0.600000*%
%ADD43RoundRect,0.150000X-0.150000X0.587500X-0.150000X-0.587500X0.150000X-0.587500X0.150000X0.587500X0*%
%ADD44RoundRect,0.250000X0.250000X0.475000X-0.250000X0.475000X-0.250000X-0.475000X0.250000X-0.475000X0*%
%ADD45RoundRect,0.250000X0.475000X-0.250000X0.475000X0.250000X-0.475000X0.250000X-0.475000X-0.250000X0*%
%ADD46RoundRect,0.250000X0.550000X-1.050000X0.550000X1.050000X-0.550000X1.050000X-0.550000X-1.050000X0*%
%ADD47RoundRect,0.062500X-0.062500X0.375000X-0.062500X-0.375000X0.062500X-0.375000X0.062500X0.375000X0*%
%ADD48RoundRect,0.062500X-0.375000X0.062500X-0.375000X-0.062500X0.375000X-0.062500X0.375000X0.062500X0*%
%ADD49RoundRect,0.100000X-1.450000X1.450000X-1.450000X-1.450000X1.450000X-1.450000X1.450000X1.450000X0*%
%ADD50RoundRect,0.150000X-0.150000X0.825000X-0.150000X-0.825000X0.150000X-0.825000X0.150000X0.825000X0*%
G04 APERTURE END LIST*
D10*
X100100000Y-50000000D02*
X110100000Y-50000000D01*
X110100000Y-56400000D01*
X100100000Y-56400000D01*
X100100000Y-50000000D01*
G36*
X100100000Y-50000000D02*
G01*
X110100000Y-50000000D01*
X110100000Y-56400000D01*
X100100000Y-56400000D01*
X100100000Y-50000000D01*
G37*
D11*
%TO.C,R12*%
X115400000Y-128312500D03*
X115400000Y-126487500D03*
%TD*%
%TO.C,R17*%
X112200000Y-128312500D03*
X112200000Y-126487500D03*
%TD*%
D12*
%TO.C,C40*%
X112600000Y-52725000D03*
X112600000Y-54275000D03*
%TD*%
D13*
%TO.C,C31*%
X130062500Y-139700000D03*
X128337500Y-139700000D03*
%TD*%
D14*
%TO.C,R39*%
X152800000Y-139287500D03*
X152800000Y-141112500D03*
%TD*%
D15*
%TO.C,C19*%
X151300000Y-126437500D03*
X151300000Y-128162500D03*
%TD*%
D16*
%TO.C,TP3*%
X127600000Y-67000000D03*
%TD*%
D14*
%TO.C,R14*%
X120200000Y-139687500D03*
X120200000Y-141512500D03*
%TD*%
D17*
%TO.C,R1*%
X122775000Y-102800000D03*
X124425000Y-102800000D03*
%TD*%
D18*
%TO.C,C6*%
X145837500Y-95400000D03*
X147562500Y-95400000D03*
%TD*%
D11*
%TO.C,R38*%
X154500000Y-128212500D03*
X154500000Y-126387500D03*
%TD*%
D19*
%TO.C,U4*%
X112390000Y-136575000D03*
X113660000Y-136575000D03*
X114930000Y-136575000D03*
X116200000Y-136575000D03*
X117470000Y-136575000D03*
X118740000Y-136575000D03*
X120010000Y-136575000D03*
X120010000Y-131625000D03*
X118740000Y-131625000D03*
X117470000Y-131625000D03*
X116200000Y-131625000D03*
X114930000Y-131625000D03*
X113660000Y-131625000D03*
X112390000Y-131625000D03*
%TD*%
D13*
%TO.C,C8*%
X147462500Y-105000000D03*
X145737500Y-105000000D03*
%TD*%
D20*
%TO.C,R3*%
X157487500Y-55020000D03*
X159312500Y-55020000D03*
%TD*%
D21*
%TO.C,R27*%
X112012500Y-99100000D03*
X110187500Y-99100000D03*
%TD*%
D20*
%TO.C,R35*%
X141087500Y-72100000D03*
X142912500Y-72100000D03*
%TD*%
D18*
%TO.C,C14*%
X122737500Y-106000000D03*
X124462500Y-106000000D03*
%TD*%
D13*
%TO.C,C10*%
X147562500Y-93800000D03*
X145837500Y-93800000D03*
%TD*%
%TO.C,C34*%
X130062500Y-130100000D03*
X128337500Y-130100000D03*
%TD*%
D20*
%TO.C,R30*%
X141087500Y-78900000D03*
X142912500Y-78900000D03*
%TD*%
D15*
%TO.C,C37*%
X138300000Y-127437500D03*
X138300000Y-129162500D03*
%TD*%
D22*
%TO.C,L2*%
X156700000Y-69950000D03*
X154900000Y-69950000D03*
%TD*%
D21*
%TO.C,R33*%
X129612500Y-72100000D03*
X127787500Y-72100000D03*
%TD*%
D13*
%TO.C,C30*%
X130062500Y-128500000D03*
X128337500Y-128500000D03*
%TD*%
D23*
%TO.C,U2*%
X129300000Y-107675000D03*
X129800000Y-107675000D03*
X130300000Y-107675000D03*
X130800000Y-107675000D03*
X131300000Y-107675000D03*
X131800000Y-107675000D03*
X132300000Y-107675000D03*
X132800000Y-107675000D03*
X133300000Y-107675000D03*
X133800000Y-107675000D03*
X134300000Y-107675000D03*
X134800000Y-107675000D03*
X135300000Y-107675000D03*
X135800000Y-107675000D03*
X136300000Y-107675000D03*
X136800000Y-107675000D03*
X137300000Y-107675000D03*
X137800000Y-107675000D03*
X138300000Y-107675000D03*
X138800000Y-107675000D03*
X139300000Y-107675000D03*
X139800000Y-107675000D03*
X140300000Y-107675000D03*
X140800000Y-107675000D03*
X141300000Y-107675000D03*
D24*
X142975000Y-106000000D03*
X142975000Y-105500000D03*
X142975000Y-105000000D03*
X142975000Y-104500000D03*
X142975000Y-104000000D03*
X142975000Y-103500000D03*
X142975000Y-103000000D03*
X142975000Y-102500000D03*
X142975000Y-102000000D03*
X142975000Y-101500000D03*
X142975000Y-101000000D03*
X142975000Y-100500000D03*
X142975000Y-100000000D03*
X142975000Y-99500000D03*
X142975000Y-99000000D03*
X142975000Y-98500000D03*
X142975000Y-98000000D03*
X142975000Y-97500000D03*
X142975000Y-97000000D03*
X142975000Y-96500000D03*
X142975000Y-96000000D03*
X142975000Y-95500000D03*
X142975000Y-95000000D03*
X142975000Y-94500000D03*
X142975000Y-94000000D03*
D23*
X141300000Y-92325000D03*
X140800000Y-92325000D03*
X140300000Y-92325000D03*
X139800000Y-92325000D03*
X139300000Y-92325000D03*
X138800000Y-92325000D03*
X138300000Y-92325000D03*
X137800000Y-92325000D03*
X137300000Y-92325000D03*
X136800000Y-92325000D03*
X136300000Y-92325000D03*
X135800000Y-92325000D03*
X135300000Y-92325000D03*
X134800000Y-92325000D03*
X134300000Y-92325000D03*
X133800000Y-92325000D03*
X133300000Y-92325000D03*
X132800000Y-92325000D03*
X132300000Y-92325000D03*
X131800000Y-92325000D03*
X131300000Y-92325000D03*
X130800000Y-92325000D03*
X130300000Y-92325000D03*
X129800000Y-92325000D03*
X129300000Y-92325000D03*
D24*
X127625000Y-94000000D03*
X127625000Y-94500000D03*
X127625000Y-95000000D03*
X127625000Y-95500000D03*
X127625000Y-96000000D03*
X127625000Y-96500000D03*
X127625000Y-97000000D03*
X127625000Y-97500000D03*
X127625000Y-98000000D03*
X127625000Y-98500000D03*
X127625000Y-99000000D03*
X127625000Y-99500000D03*
X127625000Y-100000000D03*
X127625000Y-100500000D03*
X127625000Y-101000000D03*
X127625000Y-101500000D03*
X127625000Y-102000000D03*
X127625000Y-102500000D03*
X127625000Y-103000000D03*
X127625000Y-103500000D03*
X127625000Y-104000000D03*
X127625000Y-104500000D03*
X127625000Y-105000000D03*
X127625000Y-105500000D03*
X127625000Y-106000000D03*
%TD*%
D25*
%TO.C,C21*%
X140900000Y-112162500D03*
X140900000Y-110437500D03*
%TD*%
D20*
%TO.C,R25*%
X141087500Y-73700000D03*
X142912500Y-73700000D03*
%TD*%
%TO.C,R37*%
X141087500Y-83700000D03*
X142912500Y-83700000D03*
%TD*%
D26*
%TO.C,U1*%
X102700000Y-59550000D03*
X105000000Y-59550000D03*
D27*
X105000000Y-53250000D03*
D26*
X107300000Y-59550000D03*
%TD*%
D13*
%TO.C,C4*%
X137562500Y-119300000D03*
X135837500Y-119300000D03*
%TD*%
D28*
%TO.C,J6*%
X105585000Y-106900000D03*
X105585000Y-111900000D03*
D29*
X102885000Y-112900000D03*
D30*
X105585000Y-108100000D03*
X105585000Y-108750000D03*
X105585000Y-109400000D03*
X105585000Y-110050000D03*
X105585000Y-110700000D03*
D29*
X102885000Y-105900000D03*
%TD*%
D31*
%TO.C,C15*%
X109800000Y-64600000D03*
X109800000Y-68200000D03*
%TD*%
D11*
%TO.C,R2*%
X135800000Y-89112500D03*
X135800000Y-87287500D03*
%TD*%
D14*
%TO.C,R10*%
X115400000Y-139687500D03*
X115400000Y-141512500D03*
%TD*%
D21*
%TO.C,R19*%
X129612500Y-73700000D03*
X127787500Y-73700000D03*
%TD*%
%TO.C,R4*%
X159312500Y-56620000D03*
X157487500Y-56620000D03*
%TD*%
%TO.C,R34*%
X129612500Y-83700000D03*
X127787500Y-83700000D03*
%TD*%
D16*
%TO.C,TP1*%
X133400000Y-67000000D03*
%TD*%
D11*
%TO.C,R15*%
X120200000Y-128312500D03*
X120200000Y-126487500D03*
%TD*%
D14*
%TO.C,R41*%
X154400000Y-139287500D03*
X154400000Y-141112500D03*
%TD*%
D32*
%TO.C,J5*%
X130300000Y-58275000D03*
D16*
X130300000Y-55735000D03*
X132840000Y-58275000D03*
X132840000Y-55735000D03*
X135380000Y-58275000D03*
X135380000Y-55735000D03*
X137920000Y-58275000D03*
X137920000Y-55735000D03*
X140460000Y-58275000D03*
X140460000Y-55735000D03*
%TD*%
D13*
%TO.C,C27*%
X130062500Y-138100000D03*
X128337500Y-138100000D03*
%TD*%
D33*
%TO.C,D1*%
X166850000Y-53200000D03*
X163550000Y-53200000D03*
%TD*%
D25*
%TO.C,C5*%
X133700000Y-112162500D03*
X133700000Y-110437500D03*
%TD*%
D34*
%TO.C,U6*%
X132825000Y-74190000D03*
X132825000Y-75460000D03*
X132825000Y-76730000D03*
X132825000Y-78000000D03*
X132825000Y-79270000D03*
X132825000Y-80540000D03*
X132825000Y-81810000D03*
X137775000Y-81810000D03*
X137775000Y-80540000D03*
X137775000Y-79270000D03*
X137775000Y-78000000D03*
X137775000Y-76730000D03*
X137775000Y-75460000D03*
X137775000Y-74190000D03*
%TD*%
D32*
%TO.C,J7*%
X108700000Y-92200000D03*
D35*
X111240000Y-92200000D03*
X113780000Y-92200000D03*
X116320000Y-92200000D03*
%TD*%
D36*
%TO.C,U5*%
X156850000Y-61950000D03*
X157800000Y-61950000D03*
X158750000Y-61950000D03*
X158750000Y-59250000D03*
X157800000Y-59250000D03*
X156850000Y-59250000D03*
%TD*%
D37*
%TO.C,U7*%
X114787500Y-99025000D03*
X114787500Y-99675000D03*
X114787500Y-100325000D03*
X114787500Y-100975000D03*
X119012500Y-100975000D03*
X119012500Y-100325000D03*
X119012500Y-99675000D03*
X119012500Y-99025000D03*
%TD*%
D14*
%TO.C,R6*%
X117000000Y-139687500D03*
X117000000Y-141512500D03*
%TD*%
D33*
%TO.C,D2*%
X120550000Y-52600000D03*
X117250000Y-52600000D03*
%TD*%
D38*
%TO.C,C35*%
X154200000Y-67812500D03*
X154200000Y-64887500D03*
%TD*%
D14*
%TO.C,R7*%
X118600000Y-139687500D03*
X118600000Y-141512500D03*
%TD*%
D21*
%TO.C,R22*%
X129612500Y-80500000D03*
X127787500Y-80500000D03*
%TD*%
D39*
%TO.C,JP2*%
X150750000Y-67900000D03*
D40*
X149450000Y-67900000D03*
%TD*%
D15*
%TO.C,C11*%
X129300000Y-87337500D03*
X129300000Y-89062500D03*
%TD*%
D13*
%TO.C,C33*%
X130062500Y-133300000D03*
X128337500Y-133300000D03*
%TD*%
D16*
%TO.C,TP7*%
X167000000Y-97200000D03*
%TD*%
D20*
%TO.C,R29*%
X154987500Y-83000000D03*
X156812500Y-83000000D03*
%TD*%
D25*
%TO.C,C39*%
X134500000Y-140762500D03*
X134500000Y-139037500D03*
%TD*%
D41*
%TO.C,Y1*%
X136850000Y-116200000D03*
X133150000Y-116200000D03*
%TD*%
D11*
%TO.C,R8*%
X117000000Y-128312500D03*
X117000000Y-126487500D03*
%TD*%
D42*
%TO.C,U8*%
X111625000Y-110350000D03*
X111625000Y-109400000D03*
X111625000Y-108450000D03*
X109375000Y-108450000D03*
X109375000Y-109400000D03*
X109375000Y-110350000D03*
%TD*%
D15*
%TO.C,C42*%
X132900000Y-139037500D03*
X132900000Y-140762500D03*
%TD*%
D13*
%TO.C,C32*%
X130062500Y-136500000D03*
X128337500Y-136500000D03*
%TD*%
D20*
%TO.C,R44*%
X154987500Y-84600000D03*
X156812500Y-84600000D03*
%TD*%
D25*
%TO.C,C16*%
X131500000Y-112162500D03*
X131500000Y-110437500D03*
%TD*%
D13*
%TO.C,C28*%
X130062500Y-134900000D03*
X128337500Y-134900000D03*
%TD*%
D20*
%TO.C,R31*%
X141087500Y-82100000D03*
X142912500Y-82100000D03*
%TD*%
D43*
%TO.C,D3*%
X114450000Y-56962500D03*
X112550000Y-56962500D03*
X113500000Y-58837500D03*
%TD*%
D11*
%TO.C,R40*%
X156100000Y-128212500D03*
X156100000Y-126387500D03*
%TD*%
D25*
%TO.C,C9*%
X139300000Y-112162500D03*
X139300000Y-110437500D03*
%TD*%
D32*
%TO.C,J8*%
X167900000Y-118600000D03*
D35*
X167900000Y-116060000D03*
%TD*%
D20*
%TO.C,R24*%
X141087500Y-76800000D03*
X142912500Y-76800000D03*
%TD*%
D15*
%TO.C,C36*%
X136700000Y-127437500D03*
X136700000Y-129162500D03*
%TD*%
D25*
%TO.C,C43*%
X152900000Y-128162500D03*
X152900000Y-126437500D03*
%TD*%
D21*
%TO.C,R18*%
X129612500Y-76900000D03*
X127787500Y-76900000D03*
%TD*%
D16*
%TO.C,TP9*%
X102700000Y-147100000D03*
%TD*%
D11*
%TO.C,R9*%
X118600000Y-128312500D03*
X118600000Y-126487500D03*
%TD*%
D14*
%TO.C,R16*%
X112200000Y-139687500D03*
X112200000Y-141512500D03*
%TD*%
D16*
%TO.C,TP8*%
X140600000Y-118000000D03*
%TD*%
D21*
%TO.C,R21*%
X129612500Y-78900000D03*
X127787500Y-78900000D03*
%TD*%
D14*
%TO.C,R5*%
X114200000Y-52587500D03*
X114200000Y-54412500D03*
%TD*%
D44*
%TO.C,C22*%
X158750000Y-67400000D03*
X156850000Y-67400000D03*
%TD*%
D20*
%TO.C,R32*%
X141087500Y-80500000D03*
X142912500Y-80500000D03*
%TD*%
D21*
%TO.C,R36*%
X112012500Y-97500000D03*
X110187500Y-97500000D03*
%TD*%
D25*
%TO.C,C24*%
X137700000Y-140762500D03*
X137700000Y-139037500D03*
%TD*%
D45*
%TO.C,C25*%
X154400000Y-59750000D03*
X154400000Y-57850000D03*
%TD*%
D15*
%TO.C,C44*%
X151200000Y-139337500D03*
X151200000Y-141062500D03*
%TD*%
D13*
%TO.C,C29*%
X130062500Y-131700000D03*
X128337500Y-131700000D03*
%TD*%
D25*
%TO.C,C38*%
X136100000Y-140762500D03*
X136100000Y-139037500D03*
%TD*%
D14*
%TO.C,R43*%
X156000000Y-139287500D03*
X156000000Y-141112500D03*
%TD*%
D16*
%TO.C,TP5*%
X145000000Y-67000000D03*
%TD*%
D13*
%TO.C,C2*%
X124462500Y-104400000D03*
X122737500Y-104400000D03*
%TD*%
D25*
%TO.C,C18*%
X157600000Y-141062500D03*
X157600000Y-139337500D03*
%TD*%
D14*
%TO.C,R11*%
X113800000Y-139687500D03*
X113800000Y-141512500D03*
%TD*%
D18*
%TO.C,C1*%
X122737500Y-107600000D03*
X124462500Y-107600000D03*
%TD*%
D31*
%TO.C,C12*%
X165200000Y-57300000D03*
X165200000Y-60900000D03*
%TD*%
D46*
%TO.C,C13*%
X118900000Y-59800000D03*
X118900000Y-56200000D03*
%TD*%
D25*
%TO.C,C41*%
X135100000Y-129162500D03*
X135100000Y-127437500D03*
%TD*%
D44*
%TO.C,C20*%
X158750000Y-65000000D03*
X156850000Y-65000000D03*
%TD*%
D47*
%TO.C,U9*%
X137050000Y-131562500D03*
X136550000Y-131562500D03*
X136050000Y-131562500D03*
X135550000Y-131562500D03*
X135050000Y-131562500D03*
X134550000Y-131562500D03*
X134050000Y-131562500D03*
X133550000Y-131562500D03*
D48*
X132862500Y-132250000D03*
X132862500Y-132750000D03*
X132862500Y-133250000D03*
X132862500Y-133750000D03*
X132862500Y-134250000D03*
X132862500Y-134750000D03*
X132862500Y-135250000D03*
X132862500Y-135750000D03*
D47*
X133550000Y-136437500D03*
X134050000Y-136437500D03*
X134550000Y-136437500D03*
X135050000Y-136437500D03*
X135550000Y-136437500D03*
X136050000Y-136437500D03*
X136550000Y-136437500D03*
X137050000Y-136437500D03*
D48*
X137737500Y-135750000D03*
X137737500Y-135250000D03*
X137737500Y-134750000D03*
X137737500Y-134250000D03*
X137737500Y-133750000D03*
X137737500Y-133250000D03*
X137737500Y-132750000D03*
X137737500Y-132250000D03*
D49*
X135300000Y-134000000D03*
%TD*%
D21*
%TO.C,R20*%
X129612500Y-75300000D03*
X127787500Y-75300000D03*
%TD*%
D32*
%TO.C,J9*%
X104100000Y-94800000D03*
D35*
X104100000Y-97340000D03*
%TD*%
D25*
%TO.C,C26*%
X139400000Y-140762500D03*
X139400000Y-139037500D03*
%TD*%
D11*
%TO.C,R13*%
X113800000Y-128312500D03*
X113800000Y-126487500D03*
%TD*%
D50*
%TO.C,U3*%
X156405000Y-131225000D03*
X155135000Y-131225000D03*
X153865000Y-131225000D03*
X152595000Y-131225000D03*
X152595000Y-136175000D03*
X153865000Y-136175000D03*
X155135000Y-136175000D03*
X156405000Y-136175000D03*
%TD*%
D20*
%TO.C,R26*%
X141087500Y-75300000D03*
X142912500Y-75300000D03*
%TD*%
%TO.C,R45*%
X154987500Y-86200000D03*
X156812500Y-86200000D03*
%TD*%
D16*
%TO.C,TP4*%
X116000000Y-67000000D03*
%TD*%
D11*
%TO.C,R42*%
X157700000Y-128212500D03*
X157700000Y-126387500D03*
%TD*%
D16*
%TO.C,TP2*%
X121800000Y-67000000D03*
%TD*%
D25*
%TO.C,C23*%
X142500000Y-112162500D03*
X142500000Y-110437500D03*
%TD*%
D21*
%TO.C,R28*%
X112012500Y-100700000D03*
X110187500Y-100700000D03*
%TD*%
D16*
%TO.C,TP6*%
X139200000Y-67000000D03*
%TD*%
D18*
%TO.C,C3*%
X132437500Y-119300000D03*
X134162500Y-119300000D03*
%TD*%
D25*
%TO.C,C7*%
X137700000Y-112162500D03*
X137700000Y-110437500D03*
%TD*%
D21*
%TO.C,R23*%
X129612500Y-82100000D03*
X127787500Y-82100000D03*
%TD*%
D32*
%TO.C,J2*%
X167900000Y-69000000D03*
D35*
X167900000Y-71540000D03*
X167900000Y-74080000D03*
X167900000Y-76620000D03*
X167900000Y-79160000D03*
X167900000Y-81700000D03*
X167900000Y-84240000D03*
X167900000Y-86780000D03*
%TD*%
D32*
%TO.C,J1*%
X102700000Y-69000000D03*
D35*
X102700000Y-71540000D03*
X102700000Y-74080000D03*
X102700000Y-76620000D03*
X102700000Y-79160000D03*
X102700000Y-81700000D03*
X102700000Y-84240000D03*
X102700000Y-86780000D03*
%TD*%
D32*
%TO.C,J3*%
X102700000Y-123600000D03*
D35*
X102700000Y-126140000D03*
X102700000Y-128680000D03*
X102700000Y-131220000D03*
X102700000Y-133760000D03*
X102700000Y-136300000D03*
X102700000Y-138840000D03*
X102700000Y-141380000D03*
%TD*%
D32*
%TO.C,J4*%
X167900000Y-123600000D03*
D35*
X167900000Y-126140000D03*
X167900000Y-128680000D03*
X167900000Y-131220000D03*
X167900000Y-133760000D03*
X167900000Y-136300000D03*
X167900000Y-138840000D03*
X167900000Y-141380000D03*
%TD*%
M02*
