M48
; DRILL file {KiCad 7.0.9} date Sun Feb  4 10:52:33 2024
; FORMAT={-:-/ absolute / inch / decimal}
; #@! TF.CreationDate,2024-02-04T10:52:33+00:00
; #@! TF.GenerationSoftware,Kicad,Pcbnew,7.0.9
; #@! TF.FileFunction,Plated,1,4,PTH
FMAT,2
INCH
; #@! TA.AperFunction,Plated,PTH,ComponentDrill
T1C0.0118
; #@! TA.AperFunction,Plated,PTH,ViaDrill
T2C0.0157
; #@! TA.AperFunction,Plated,PTH,ComponentDrill
T3C0.0197
; #@! TA.AperFunction,Plated,PTH,ComponentDrill
T4C0.0217
; #@! TA.AperFunction,Plated,PTH,ViaDrill
T5C0.0236
; #@! TA.AperFunction,Plated,PTH,ComponentDrill
T6C0.0394
%
G90
G05
T1
X5.2874Y-5.2362
X5.2874Y-5.2756
X5.2874Y-5.315
X5.3268Y-5.2362
X5.3268Y-5.2756
X5.3268Y-5.315
X5.3661Y-5.2362
X5.3661Y-5.2756
X5.3661Y-5.315
T2
X3.9724Y-3.2717
X3.9921Y-2.3465
X4.0039Y-3.9921
X4.0394Y-3.6181
X4.0433Y-2.4134
X4.1063Y-4.3583
X4.1299Y-5.3228
X4.1339Y-3.0236
X4.1378Y-4.5787
X4.1535Y-3.2717
X4.1614Y-4.748
X4.2559Y-4.8543
X4.2598Y-2.6772
X4.2677Y-4.2126
X4.2677Y-4.6535
X4.2795Y-4.0512
X4.2913Y-3.2874
X4.2913Y-4.4409
X4.3031Y-3.0787
X4.315Y-5.7126
X4.3228Y-2.7717
X4.3425Y-5.374
X4.3504Y-4.748
X4.3543Y-5.5591
X4.3583Y-5.0354
X4.3661Y-5.1929
X4.3898Y-2.6772
X4.4291Y-2.8701
X4.4331Y-2.0433
X4.4409Y-4.1732
X4.4606Y-3.9646
X4.4685Y-2.2441
X4.5157Y-5.437
X4.5197Y-5.1142
X4.5354Y-3.5079
X4.5748Y-3.9646
X4.5748Y-5.1142
X4.5787Y-4.0669
X4.5866Y-4.3583
X4.5906Y-3.2874
X4.5906Y-3.9194
X4.5984Y-2.7795
X4.6063Y-5.8543
X4.622Y-2.3425
X4.622Y-3.0748
X4.6299Y-5.1142
X4.6299Y-5.437
X4.6811Y-2.4331
X4.685Y-4.8386
X4.6969Y-4.4528
X4.7402Y-2.3465
X4.748Y-3.3425
X4.752Y-2.7756
X4.7739Y-3.7904
X4.7795Y-4.1102
X4.7795Y-4.1732
X4.7795Y-4.2362
X4.7874Y-2.8701
X4.7953Y-3.2913
X4.7953Y-4.3465
X4.815Y-3.0079
X4.815Y-3.126
X4.8189Y-3.4803
X4.8189Y-3.626
X4.8189Y-4.4567
X4.8268Y-5.5866
X4.8465Y-4.9961
X4.8622Y-4.7795
X4.8622Y-3.8543
X4.8976Y-3.8189
X4.9213Y-2.5787
X4.9291Y-3.8848
X4.9449Y-4.3701
X4.9454Y-3.8169
X4.9488Y-4.6654
X4.9764Y-3.0276
X4.9764Y-4.2441
X5.0039Y-2.7677
X5.0039Y-5.0591
X5.0039Y-5.185
X5.0039Y-5.311
X5.0039Y-5.437
X5.0118Y-4.9921
X5.0197Y-3.622
X5.0236Y-3.437
X5.0906Y-3.7165
X5.0945Y-3.3819
X5.0984Y-3.5669
X5.0984Y-4.3307
X5.1024Y-4.0551
X5.1024Y-4.1575
X5.1102Y-4.374
X5.1299Y-3.7283
X5.1417Y-4.1732
X5.1575Y-3.0709
X5.1575Y-4.7992
X5.1614Y-3.0197
X5.1614Y-3.122
X5.1614Y-4.0551
X5.1654Y-3.8543
X5.1772Y-4.4646
X5.1772Y-5.5394
X5.1811Y-2.8031
X5.1811Y-4.937
X5.189Y-3.7283
X5.1969Y-3.7717
X5.2087Y-4.1063
X5.2165Y-3.4173
X5.2598Y-3.5276
X5.2638Y-4.4646
X5.2677Y-4.1772
X5.2913Y-3.9252
X5.2992Y-3.7323
X5.3031Y-3.437
X5.315Y-4.7402
X5.315Y-5.8661
X5.3189Y-4.9685
X5.3268Y-5.5906
X5.3345Y-4.0473
X5.3819Y-4.9685
X5.3937Y-3.4173
X5.3937Y-4.0669
X5.3952Y-5.1339
X5.4016Y-3.4724
X5.4016Y-3.7362
X5.4094Y-4.1654
X5.4318Y-3.5079
X5.4449Y-3.5551
X5.4449Y-4.9685
X5.4528Y-3.4685
X5.4565Y-4.1784
X5.4567Y-5.5906
X5.4843Y-3.0709
X5.4921Y-3.5709
X5.4961Y-5.752
X5.5157Y-4.4724
X5.5276Y-4.7598
X5.5551Y-3.9134
X5.563Y-4.0
X5.563Y-4.1142
X5.5669Y-3.7205
X5.5787Y-4.4724
X5.5906Y-4.8622
X5.5945Y-5.5433
X5.5972Y-5.0697
X5.5984Y-5.0236
X5.5984Y-5.752
X5.626Y-3.374
X5.6265Y-3.063
X5.6378Y-3.4528
X5.6378Y-4.4724
X5.6693Y-4.2165
X5.6732Y-4.9921
X5.6732Y-5.0394
X5.689Y-3.374
X5.689Y-3.4961
X5.689Y-3.6614
X5.689Y-5.4646
X5.6945Y-5.2308
X5.7008Y-3.2835
X5.7244Y-4.2283
X5.752Y-3.437
X5.7559Y-5.6142
X5.7795Y-3.3858
X5.7795Y-4.7362
X5.781Y-4.7889
X5.7992Y-3.4843
X5.8071Y-4.689
X5.815Y-2.8268
X5.8268Y-3.3307
X5.8346Y-3.2047
X5.8386Y-3.7244
X5.8425Y-4.1339
X5.8465Y-4.6457
X5.8504Y-4.2756
X5.8583Y-3.9528
X5.8976Y-3.3346
X5.9173Y-2.5669
X5.9291Y-3.1929
X5.9291Y-5.4016
X5.9331Y-2.1732
X5.9409Y-3.4921
X5.9409Y-4.126
X5.9567Y-4.9331
X5.9606Y-4.0827
X5.9823Y-4.8642
X6.0Y-4.2402
X6.0118Y-2.5512
X6.0157Y-5.6142
X6.063Y-4.0945
X6.0709Y-3.9764
X6.0748Y-3.4843
X6.0787Y-2.3957
X6.0787Y-5.6142
X6.0827Y-5.252
X6.0906Y-3.185
X6.1024Y-5.8583
X6.1142Y-4.937
X6.1299Y-2.5551
X6.1299Y-2.626
X6.1457Y-2.3937
X6.1457Y-2.437
X6.1535Y-2.2283
X6.2047Y-2.7343
X6.2047Y-2.7717
X6.2047Y-5.6142
X6.2126Y-2.4862
X6.2244Y-4.4764
X6.248Y-5.1063
X6.2559Y-5.2402
X6.2598Y-5.3307
X6.2638Y-5.5551
X6.2717Y-3.4567
X6.2756Y-3.1811
X6.2795Y-2.752
X6.2874Y-4.8622
X6.378Y-5.3307
X6.3898Y-2.7559
X6.4016Y-4.9606
X6.4055Y-3.185
X6.4094Y-3.4528
X6.4134Y-4.1299
X6.4173Y-3.9843
X6.4173Y-5.2362
X6.4449Y-2.3307
X6.4449Y-2.4409
X6.4685Y-4.4803
X6.5236Y-3.185
X6.5315Y-3.4488
X6.563Y-2.3307
X6.563Y-2.4409
X6.6457Y-2.0433
X6.6732Y-4.1417
X6.6811Y-3.2717
X6.685Y-5.1181
X6.689Y-3.3701
T5
X3.9803Y-2.0079
X3.9803Y-2.185
X4.0197Y-2.063
X4.0197Y-2.1339
X4.0591Y-2.0079
X4.0591Y-2.185
X4.1378Y-2.0079
X4.2165Y-2.0079
X4.2165Y-2.185
X4.2559Y-2.063
X4.2559Y-2.1339
X4.2953Y-2.0079
X4.2953Y-2.185
X4.374Y-2.8346
X4.5512Y-3.4173
X4.5728Y-4.9469
X4.5748Y-5.4488
X4.5748Y-5.6102
X4.685Y-3.8425
X4.8661Y-4.2913
X5.1417Y-3.5079
X5.2205Y-4.378
X5.3268Y-5.4488
X5.4528Y-4.3071
X5.5039Y-5.0591
X5.5472Y-5.5
X5.5472Y-5.7992
X5.7874Y-4.1929
X5.8839Y-2.75
X6.0039Y-5.248
X6.2598Y-5.4843
X6.3346Y-2.5591
T6
X4.0433Y-2.7165
X4.0433Y-2.8165
X4.0433Y-2.9165
X4.0433Y-3.0165
X4.0433Y-3.1165
X4.0433Y-3.2165
X4.0433Y-3.3165
X4.0433Y-3.4165
X4.0433Y-4.8661
X4.0433Y-4.9661
X4.0433Y-5.0661
X4.0433Y-5.1661
X4.0433Y-5.2661
X4.0433Y-5.3661
X4.0433Y-5.4661
X4.0433Y-5.5661
X4.0433Y-5.7913
X4.0984Y-3.7323
X4.0984Y-3.8323
X4.2795Y-3.6299
X4.3795Y-3.6299
X4.4795Y-3.6299
X4.5669Y-2.6378
X4.5795Y-3.6299
X4.7953Y-2.6378
X5.0236Y-2.6378
X5.1299Y-2.1943
X5.1299Y-2.2943
X5.2299Y-2.1943
X5.2299Y-2.2943
X5.252Y-2.6378
X5.3299Y-2.1943
X5.3299Y-2.2943
X5.4299Y-2.1943
X5.4299Y-2.2943
X5.4803Y-2.6378
X5.5299Y-2.1943
X5.5299Y-2.2943
X5.5354Y-4.6457
X5.7087Y-2.6378
X6.5748Y-3.8268
X6.6102Y-2.7165
X6.6102Y-2.8165
X6.6102Y-2.9165
X6.6102Y-3.0165
X6.6102Y-3.1165
X6.6102Y-3.2165
X6.6102Y-3.3165
X6.6102Y-3.4165
X6.6102Y-4.5693
X6.6102Y-4.6693
X6.6102Y-4.8661
X6.6102Y-4.9661
X6.6102Y-5.0661
X6.6102Y-5.1661
X6.6102Y-5.2661
X6.6102Y-5.3661
X6.6102Y-5.4661
X6.6102Y-5.5661
T3
G00X4.0378Y-4.1693
M15
G01X4.0634Y-4.1693
M16
G05
G00X4.0378Y-4.4449
M15
G01X4.0634Y-4.4449
M16
G05
T4
G00X4.1569Y-4.2028
M15
G01X4.1569Y-4.2146
M16
G05
G00X4.1569Y-4.3996
M15
G01X4.1569Y-4.4114
M16
G05
T0
M30
