%TF.GenerationSoftware,KiCad,Pcbnew,7.0.9*%
%TF.CreationDate,2024-02-02T11:01:58+00:00*%
%TF.ProjectId,QuadMod Components,51756164-4d6f-4642-9043-6f6d706f6e65,rev?*%
%TF.SameCoordinates,Original*%
%TF.FileFunction,Copper,L2,Inr*%
%TF.FilePolarity,Positive*%
%FSLAX46Y46*%
G04 Gerber Fmt 4.6, Leading zero omitted, Abs format (unit mm)*
G04 Created by KiCad (PCBNEW 7.0.9) date 2024-02-02 11:01:58*
%MOMM*%
%LPD*%
G01*
G04 APERTURE LIST*
%TA.AperFunction,ComponentPad*%
%ADD10C,1.700000*%
%TD*%
%TA.AperFunction,ComponentPad*%
%ADD11O,0.950000X1.250000*%
%TD*%
%TA.AperFunction,ComponentPad*%
%ADD12O,1.550000X1.000000*%
%TD*%
%TA.AperFunction,ComponentPad*%
%ADD13R,1.700000X1.700000*%
%TD*%
%TA.AperFunction,ComponentPad*%
%ADD14O,1.700000X1.700000*%
%TD*%
%TA.AperFunction,ComponentPad*%
%ADD15C,0.500000*%
%TD*%
%TA.AperFunction,ViaPad*%
%ADD16C,0.800000*%
%TD*%
%TA.AperFunction,ViaPad*%
%ADD17C,1.000000*%
%TD*%
G04 APERTURE END LIST*
D10*
%TO.N,-12V*%
%TO.C,TP3*%
X127600000Y-67000000D03*
%TD*%
D11*
%TO.N,*%
%TO.C,J6*%
X105585000Y-106900000D03*
X105585000Y-111900000D03*
D12*
X102885000Y-112900000D03*
%TO.N,unconnected-(J6-Shield-Pad6)*%
X102885000Y-105900000D03*
%TD*%
D10*
%TO.N,/-5V_REF*%
%TO.C,TP1*%
X133400000Y-67000000D03*
%TD*%
D13*
%TO.N,/-12V_IN*%
%TO.C,J5*%
X130300000Y-58275000D03*
D10*
X130300000Y-55735000D03*
%TO.N,GND*%
X132840000Y-58275000D03*
X132840000Y-55735000D03*
X135380000Y-58275000D03*
X135380000Y-55735000D03*
X137920000Y-58275000D03*
X137920000Y-55735000D03*
%TO.N,/+12V_IN*%
X140460000Y-58275000D03*
X140460000Y-55735000D03*
%TD*%
D13*
%TO.N,+3.3V*%
%TO.C,J7*%
X108700000Y-92200000D03*
D14*
%TO.N,GND*%
X111240000Y-92200000D03*
%TO.N,/SWIO*%
X113780000Y-92200000D03*
%TO.N,/SWCLK*%
X116320000Y-92200000D03*
%TD*%
D10*
%TO.N,GND*%
%TO.C,TP7*%
X167000000Y-97200000D03*
%TD*%
D13*
%TO.N,/Audio_Out3*%
%TO.C,J8*%
X167900000Y-118600000D03*
D14*
%TO.N,/Audio_Out4*%
X167900000Y-116060000D03*
%TD*%
D10*
%TO.N,GND*%
%TO.C,TP9*%
X102700000Y-147100000D03*
%TD*%
%TO.N,Net-(U2-NRST)*%
%TO.C,TP8*%
X140600000Y-118000000D03*
%TD*%
%TO.N,+3.3V*%
%TO.C,TP5*%
X145000000Y-67000000D03*
%TD*%
D15*
%TO.N,GND*%
%TO.C,U9*%
X136300000Y-133000000D03*
X135300000Y-133000000D03*
X134300000Y-133000000D03*
X136300000Y-134000000D03*
X135300000Y-134000000D03*
X134300000Y-134000000D03*
X136300000Y-135000000D03*
X135300000Y-135000000D03*
X134300000Y-135000000D03*
%TD*%
D13*
%TO.N,/Test_Out1*%
%TO.C,J9*%
X104100000Y-94800000D03*
D14*
%TO.N,/Test_Out2*%
X104100000Y-97340000D03*
%TD*%
D10*
%TO.N,+3.3VA*%
%TO.C,TP4*%
X116000000Y-67000000D03*
%TD*%
%TO.N,+12V*%
%TO.C,TP2*%
X121800000Y-67000000D03*
%TD*%
%TO.N,GND*%
%TO.C,TP6*%
X139200000Y-67000000D03*
%TD*%
D13*
%TO.N,GND*%
%TO.C,J2*%
X167900000Y-69000000D03*
D14*
%TO.N,/FX_FEEDBACK_CV*%
X167900000Y-71540000D03*
%TO.N,/FX_FEEDBACK_POT*%
X167900000Y-74080000D03*
%TO.N,/LFO_SPEED_POT*%
X167900000Y-76620000D03*
%TO.N,/LFO_SPEED_CV*%
X167900000Y-79160000D03*
%TO.N,/CLOCKED_LED*%
X167900000Y-81700000D03*
%TO.N,/DELAY_LED*%
X167900000Y-84240000D03*
%TO.N,/FX_LED*%
X167900000Y-86780000D03*
%TD*%
D13*
%TO.N,GND*%
%TO.C,J1*%
X102700000Y-69000000D03*
D14*
%TO.N,/LFO_BASEFREQ_CV*%
X102700000Y-71540000D03*
%TO.N,/LFO_BASEFREQ_POT*%
X102700000Y-74080000D03*
%TO.N,/DLY_FILTER_CV*%
X102700000Y-76620000D03*
%TO.N,/DLY_FILTER_POT*%
X102700000Y-79160000D03*
%TO.N,/DLY_TIME_POT*%
X102700000Y-81700000D03*
%TO.N,/DLY_TIME_CV*%
X102700000Y-84240000D03*
%TO.N,GND*%
X102700000Y-86780000D03*
%TD*%
D13*
%TO.N,/FX_TYPE*%
%TO.C,J3*%
X102700000Y-123600000D03*
D14*
%TO.N,/DLY_FEEDBACK*%
X102700000Y-126140000D03*
%TO.N,GND*%
X102700000Y-128680000D03*
%TO.N,/IN4*%
X102700000Y-131220000D03*
%TO.N,/IN3*%
X102700000Y-133760000D03*
%TO.N,/IN2*%
X102700000Y-136300000D03*
%TO.N,/IN1*%
X102700000Y-138840000D03*
%TO.N,+3.3VA*%
X102700000Y-141380000D03*
%TD*%
D13*
%TO.N,GND*%
%TO.C,J4*%
X167900000Y-123600000D03*
D14*
%TO.N,/LFO_RANGE*%
X167900000Y-126140000D03*
%TO.N,/DLY_MIX*%
X167900000Y-128680000D03*
%TO.N,+3.3VA*%
X167900000Y-131220000D03*
%TO.N,/FX_MIX*%
X167900000Y-133760000D03*
%TO.N,/OUT_AMP2*%
X167900000Y-136300000D03*
%TO.N,/OUT_AMP1*%
X167900000Y-138840000D03*
%TO.N,GND*%
X167900000Y-141380000D03*
%TD*%
D16*
%TO.N,GND*%
X117000000Y-148700000D03*
X135000000Y-149000000D03*
X155000000Y-148800000D03*
X146200000Y-142600000D03*
X144500000Y-138800000D03*
X125700000Y-118500000D03*
X125600000Y-111000000D03*
X122400000Y-113200000D03*
X102600000Y-91900000D03*
X169500000Y-105200000D03*
X169800000Y-130000000D03*
X100900000Y-83100000D03*
X121600000Y-72900000D03*
X112500000Y-72900000D03*
X127100000Y-70300000D03*
X131600000Y-71200000D03*
X116800000Y-70600000D03*
X120700000Y-70500000D03*
X125000000Y-65500000D03*
X168800000Y-51900000D03*
X150300000Y-65200000D03*
X150700000Y-55200000D03*
X162300000Y-70000000D03*
X159500000Y-69900000D03*
X147700000Y-71800000D03*
X143200000Y-87700000D03*
X146100000Y-87300000D03*
X137000000Y-86800000D03*
X139500000Y-90700000D03*
X138500000Y-88100000D03*
X169900000Y-85600000D03*
X169700000Y-83100000D03*
X165900000Y-87600000D03*
X165700000Y-80900000D03*
X162700000Y-80900000D03*
X154300000Y-88500000D03*
X150900000Y-88700000D03*
X159400000Y-80800000D03*
X154700000Y-80900000D03*
X150600000Y-81100000D03*
X148200000Y-81400000D03*
X144800000Y-83400000D03*
X148000000Y-84600000D03*
X142900000Y-85700000D03*
X144500000Y-88800000D03*
X147300000Y-88500000D03*
X105000000Y-76800000D03*
X109300000Y-78200000D03*
X117400000Y-78100000D03*
X122300000Y-76400000D03*
X122300000Y-79400000D03*
X109000000Y-83500000D03*
X105500000Y-83100000D03*
X116600000Y-83500000D03*
X121800000Y-83600000D03*
X127600000Y-87300000D03*
X129400000Y-85900000D03*
X132500000Y-86800000D03*
X133600000Y-89600000D03*
X105100000Y-116300000D03*
X108400000Y-107000000D03*
X112800000Y-106000000D03*
X109000000Y-112800000D03*
X101700000Y-101400000D03*
X108700000Y-102900000D03*
X116300000Y-103300000D03*
X115200000Y-89100000D03*
X122400000Y-92100000D03*
X122400000Y-88400000D03*
X127500000Y-92000000D03*
X137200000Y-94900000D03*
X134600000Y-94800000D03*
X134400000Y-99700000D03*
X131200000Y-97900000D03*
X131100000Y-103000000D03*
X141100000Y-99400000D03*
X159300000Y-87800000D03*
X162800000Y-87700000D03*
X163000000Y-101200000D03*
X154200000Y-101000000D03*
X154000000Y-104000000D03*
X162900000Y-104900000D03*
X158100000Y-113700000D03*
X164300000Y-113800000D03*
X159700000Y-123500000D03*
X162600000Y-126000000D03*
X150600000Y-137200000D03*
X154500000Y-133400000D03*
X158700000Y-129700000D03*
X163000000Y-133000000D03*
X158900000Y-133100000D03*
X159000000Y-135400000D03*
X162000000Y-135400000D03*
X109600000Y-145100000D03*
X122600000Y-141900000D03*
X110900000Y-131900000D03*
X110300000Y-136500000D03*
X110600000Y-141200000D03*
X104900000Y-135200000D03*
X110700000Y-127900000D03*
X108100000Y-123300000D03*
X105700000Y-120600000D03*
X108400000Y-118200000D03*
X116500000Y-110700000D03*
X121800000Y-110400000D03*
X119300000Y-113100000D03*
X110500000Y-120600000D03*
X123500000Y-121400000D03*
X123100000Y-126900000D03*
X119000000Y-122900000D03*
X131600000Y-125400000D03*
X131000000Y-121900000D03*
X140400000Y-120900000D03*
X142000000Y-123500000D03*
X142100000Y-140800000D03*
X139600000Y-146100000D03*
X142200000Y-146100000D03*
X146800000Y-120300000D03*
X148500000Y-118000000D03*
X148600000Y-108600000D03*
X152400000Y-107700000D03*
X148800000Y-100400000D03*
X125200000Y-98675000D03*
X117600000Y-138100000D03*
X101400000Y-59600000D03*
X145400000Y-107400000D03*
X138600000Y-142000000D03*
X163700000Y-62000000D03*
X148300000Y-94600000D03*
X135100000Y-126200000D03*
X131500000Y-140700000D03*
X108200000Y-68000000D03*
X135300000Y-142000000D03*
X154400000Y-142600000D03*
X129500000Y-90600000D03*
X109800000Y-70400000D03*
X140100000Y-113600000D03*
X138300000Y-126200000D03*
X132000000Y-95800000D03*
X143200000Y-113600000D03*
X133800000Y-106100000D03*
X129500000Y-110000000D03*
X166700000Y-59200000D03*
X127100000Y-131700000D03*
X129600000Y-105600000D03*
X151400000Y-103700000D03*
X131100000Y-79300000D03*
X151300000Y-125299982D03*
X152700000Y-64800000D03*
X141300000Y-104500000D03*
X166700000Y-62000000D03*
X155300000Y-125400000D03*
X159100000Y-141100000D03*
X156100000Y-60800000D03*
X138596120Y-106132040D03*
X148400000Y-105000000D03*
X142200000Y-127600000D03*
X117600000Y-129900000D03*
X112600000Y-51900000D03*
X156100000Y-61900000D03*
X121400000Y-107600000D03*
X131100000Y-76700000D03*
X127100000Y-128500000D03*
X156300000Y-56600000D03*
X127100000Y-138100000D03*
X114800000Y-129900000D03*
X133700000Y-113400000D03*
X157600000Y-142600000D03*
X116200000Y-100700000D03*
X155700000Y-64900000D03*
X135000000Y-120400000D03*
X127100000Y-134900000D03*
X104300000Y-110700000D03*
X121400000Y-106000000D03*
X124400000Y-97000000D03*
X134700000Y-87300000D03*
X139300000Y-78000000D03*
X102700000Y-61300000D03*
X144100000Y-128000000D03*
X155700000Y-66700000D03*
X120400000Y-59600000D03*
X114700000Y-138100000D03*
X141700000Y-113600000D03*
X135497212Y-102801195D03*
X141400000Y-94500000D03*
X111500000Y-68000000D03*
X116200000Y-129900000D03*
X131500000Y-113400000D03*
X163700000Y-59200000D03*
X121400000Y-104400000D03*
X152800000Y-142600000D03*
X118900000Y-61800000D03*
X129300000Y-94400000D03*
X117400000Y-59500000D03*
X113300000Y-100700000D03*
X136700000Y-126200000D03*
D17*
%TO.N,+3.3V*%
X123600000Y-109000000D03*
D16*
X144500000Y-93000000D03*
D17*
X130600000Y-89100000D03*
X139800000Y-128500000D03*
X149450000Y-69850000D03*
X115600000Y-86800000D03*
D16*
X147000000Y-106500000D03*
D17*
X132600000Y-111200000D03*
%TO.N,+3.3VA*%
X105100000Y-51000000D03*
X107100000Y-55500000D03*
X103100000Y-51000000D03*
X103100000Y-55500000D03*
X109100000Y-51000000D03*
X102100000Y-54200000D03*
D16*
X131000000Y-78000000D03*
D17*
X109100000Y-55500000D03*
X140900000Y-147300000D03*
X101100000Y-51000000D03*
X140900000Y-139700000D03*
X116200000Y-138400000D03*
X101100000Y-55500000D03*
X102100000Y-52400000D03*
X138500000Y-109400000D03*
X135300000Y-138400000D03*
X107100000Y-51000000D03*
X108100000Y-54200000D03*
X108100000Y-52400000D03*
X119000000Y-97599996D03*
%TO.N,+12V*%
X159000000Y-139300000D03*
X160900000Y-65000000D03*
%TO.N,-12V*%
X116148750Y-125651250D03*
X116200000Y-142500000D03*
X152500000Y-133300000D03*
X111100000Y-72000000D03*
D16*
%TO.N,/VSW*%
X157600000Y-70400000D03*
X157800000Y-63150000D03*
X157600000Y-69450000D03*
X154400000Y-60850000D03*
%TO.N,/-5V_REF*%
X121257497Y-96275000D03*
X113500000Y-57000000D03*
X142912500Y-77800000D03*
X126400000Y-76900000D03*
%TO.N,/DLY_TIME_POT*%
X120600000Y-84900000D03*
X137400000Y-105800000D03*
%TO.N,/DLY_FEEDBACK*%
X126400000Y-107800000D03*
X132300000Y-104300000D03*
%TO.N,/FX_MIX*%
X147500000Y-119100000D03*
X151950000Y-123550000D03*
%TO.N,/PDN*%
X150900000Y-104800000D03*
X141300000Y-101600002D03*
%TO.N,/Delay_Led_Out*%
X138300000Y-90300000D03*
X149800000Y-84700000D03*
%TO.N,/FX_Led_Out*%
X137968726Y-89100495D03*
X146800000Y-85999998D03*
%TO.N,/SAI1_SD_B*%
X127300000Y-126800000D03*
X137038864Y-130400000D03*
%TO.N,/SAI1_FS_A*%
X129800000Y-111100000D03*
X130600000Y-106000000D03*
%TO.N,/Delay_Time*%
X129600000Y-103000000D03*
X116600000Y-99553810D03*
%TO.N,/SAI2_SD_B*%
X142169432Y-128769432D03*
X144100000Y-126800000D03*
%TO.N,/USB_DM*%
X123500004Y-97900000D03*
X131800000Y-94700000D03*
%TO.N,/USB_DP*%
X130300000Y-94700000D03*
X125611969Y-96950000D03*
%TO.N,/SPI1_NSS*%
X146837500Y-121637500D03*
X144641475Y-132862509D03*
%TO.N,/SPI1_MOSI*%
X137000000Y-103300000D03*
X144000001Y-107099999D03*
%TO.N,/Clocked_Led_Out*%
X137200000Y-88200000D03*
X144500000Y-85700000D03*
%TD*%
%TA.AperFunction,Conductor*%
%TO.N,+3.3VA*%
G36*
X110043039Y-50020185D02*
G01*
X110088794Y-50072989D01*
X110100000Y-50124500D01*
X110100000Y-56276000D01*
X110080315Y-56343039D01*
X110027511Y-56388794D01*
X109976000Y-56400000D01*
X100224000Y-56400000D01*
X100156961Y-56380315D01*
X100111206Y-56327511D01*
X100100000Y-56276000D01*
X100100000Y-50124500D01*
X100119685Y-50057461D01*
X100172489Y-50011706D01*
X100224000Y-50000500D01*
X109976000Y-50000500D01*
X110043039Y-50020185D01*
G37*
%TD.AperFunction*%
%TD*%
%TA.AperFunction,Conductor*%
%TO.N,GND*%
G36*
X132380507Y-55944844D02*
G01*
X132458239Y-56065798D01*
X132566900Y-56159952D01*
X132697685Y-56219680D01*
X132707466Y-56221086D01*
X132078625Y-56849925D01*
X132155031Y-56903425D01*
X132198655Y-56958002D01*
X132205848Y-57027501D01*
X132174326Y-57089855D01*
X132155029Y-57106576D01*
X132078625Y-57160072D01*
X132707466Y-57788913D01*
X132697685Y-57790320D01*
X132566900Y-57850048D01*
X132458239Y-57944202D01*
X132380507Y-58065156D01*
X132356923Y-58145476D01*
X131686818Y-57475371D01*
X131653333Y-57414048D01*
X131650499Y-57387690D01*
X131650499Y-57377129D01*
X131650498Y-57377123D01*
X131650497Y-57377116D01*
X131644091Y-57317517D01*
X131593796Y-57182669D01*
X131593795Y-57182668D01*
X131593793Y-57182664D01*
X131507547Y-57067455D01*
X131507544Y-57067452D01*
X131392335Y-56981206D01*
X131392328Y-56981202D01*
X131260917Y-56932189D01*
X131204983Y-56890318D01*
X131180566Y-56824853D01*
X131195418Y-56756580D01*
X131216563Y-56728332D01*
X131338495Y-56606401D01*
X131468732Y-56420403D01*
X131523307Y-56376780D01*
X131592805Y-56369586D01*
X131655160Y-56401109D01*
X131671880Y-56420405D01*
X131725073Y-56496373D01*
X132356923Y-55864523D01*
X132380507Y-55944844D01*
G37*
%TD.AperFunction*%
%TA.AperFunction,Conductor*%
G36*
X137460507Y-55944844D02*
G01*
X137538239Y-56065798D01*
X137646900Y-56159952D01*
X137777685Y-56219680D01*
X137787466Y-56221086D01*
X137158625Y-56849925D01*
X137235031Y-56903425D01*
X137278655Y-56958002D01*
X137285848Y-57027501D01*
X137254326Y-57089855D01*
X137235029Y-57106576D01*
X137158625Y-57160072D01*
X137787466Y-57788913D01*
X137777685Y-57790320D01*
X137646900Y-57850048D01*
X137538239Y-57944202D01*
X137460507Y-58065156D01*
X137436923Y-58145476D01*
X136805072Y-57513625D01*
X136805072Y-57513626D01*
X136751574Y-57590030D01*
X136696998Y-57633655D01*
X136627499Y-57640849D01*
X136565144Y-57609326D01*
X136548424Y-57590030D01*
X136494925Y-57513626D01*
X136494925Y-57513625D01*
X135863076Y-58145475D01*
X135839493Y-58065156D01*
X135761761Y-57944202D01*
X135653100Y-57850048D01*
X135522315Y-57790320D01*
X135512533Y-57788913D01*
X136141373Y-57160073D01*
X136064969Y-57106576D01*
X136021344Y-57051999D01*
X136014150Y-56982501D01*
X136045672Y-56920146D01*
X136064968Y-56903425D01*
X136141373Y-56849925D01*
X135512533Y-56221086D01*
X135522315Y-56219680D01*
X135653100Y-56159952D01*
X135761761Y-56065798D01*
X135839493Y-55944844D01*
X135863076Y-55864524D01*
X136494925Y-56496373D01*
X136548425Y-56419968D01*
X136603002Y-56376344D01*
X136672501Y-56369151D01*
X136734855Y-56400673D01*
X136751576Y-56419969D01*
X136805073Y-56496372D01*
X137436922Y-55864523D01*
X137460507Y-55944844D01*
G37*
%TD.AperFunction*%
%TA.AperFunction,Conductor*%
G36*
X134920507Y-55944844D02*
G01*
X134998239Y-56065798D01*
X135106900Y-56159952D01*
X135237685Y-56219680D01*
X135247466Y-56221086D01*
X134618625Y-56849925D01*
X134695031Y-56903425D01*
X134738655Y-56958002D01*
X134745848Y-57027501D01*
X134714326Y-57089855D01*
X134695029Y-57106576D01*
X134618625Y-57160072D01*
X135247466Y-57788913D01*
X135237685Y-57790320D01*
X135106900Y-57850048D01*
X134998239Y-57944202D01*
X134920507Y-58065156D01*
X134896923Y-58145475D01*
X134265073Y-57513625D01*
X134265072Y-57513626D01*
X134211574Y-57590030D01*
X134156998Y-57633655D01*
X134087499Y-57640849D01*
X134025144Y-57609326D01*
X134008424Y-57590030D01*
X133954925Y-57513626D01*
X133954925Y-57513625D01*
X133323076Y-58145475D01*
X133299493Y-58065156D01*
X133221761Y-57944202D01*
X133113100Y-57850048D01*
X132982315Y-57790320D01*
X132972533Y-57788913D01*
X133601373Y-57160073D01*
X133524969Y-57106576D01*
X133481344Y-57051999D01*
X133474150Y-56982501D01*
X133505672Y-56920146D01*
X133524968Y-56903425D01*
X133601373Y-56849925D01*
X132972533Y-56221086D01*
X132982315Y-56219680D01*
X133113100Y-56159952D01*
X133221761Y-56065798D01*
X133299493Y-55944844D01*
X133323076Y-55864524D01*
X133954925Y-56496373D01*
X134008425Y-56419968D01*
X134063002Y-56376344D01*
X134132501Y-56369151D01*
X134194855Y-56400673D01*
X134211576Y-56419969D01*
X134265073Y-56496372D01*
X134896922Y-55864523D01*
X134920507Y-55944844D01*
G37*
%TD.AperFunction*%
%TA.AperFunction,Conductor*%
G36*
X139034925Y-56496373D02*
G01*
X139088119Y-56420405D01*
X139142696Y-56376781D01*
X139212195Y-56369588D01*
X139274549Y-56401110D01*
X139291269Y-56420405D01*
X139304180Y-56438844D01*
X139421505Y-56606401D01*
X139421506Y-56606402D01*
X139588597Y-56773493D01*
X139588603Y-56773498D01*
X139774158Y-56903425D01*
X139817783Y-56958002D01*
X139824977Y-57027500D01*
X139793454Y-57089855D01*
X139774158Y-57106575D01*
X139588597Y-57236505D01*
X139421505Y-57403597D01*
X139291269Y-57589595D01*
X139236692Y-57633220D01*
X139167194Y-57640414D01*
X139104839Y-57608891D01*
X139088119Y-57589595D01*
X139034925Y-57513626D01*
X139034925Y-57513625D01*
X138403076Y-58145475D01*
X138379493Y-58065156D01*
X138301761Y-57944202D01*
X138193100Y-57850048D01*
X138062315Y-57790320D01*
X138052533Y-57788913D01*
X138681373Y-57160073D01*
X138604969Y-57106576D01*
X138561344Y-57051999D01*
X138554150Y-56982501D01*
X138585672Y-56920146D01*
X138604968Y-56903425D01*
X138681373Y-56849925D01*
X138052533Y-56221086D01*
X138062315Y-56219680D01*
X138193100Y-56159952D01*
X138301761Y-56065798D01*
X138379493Y-55944844D01*
X138403076Y-55864524D01*
X139034925Y-56496373D01*
G37*
%TD.AperFunction*%
%TA.AperFunction,Conductor*%
G36*
X170542539Y-50020185D02*
G01*
X170588294Y-50072989D01*
X170599500Y-50124500D01*
X170599500Y-149875500D01*
X170579815Y-149942539D01*
X170527011Y-149988294D01*
X170475500Y-149999500D01*
X100124500Y-149999500D01*
X100057461Y-149979815D01*
X100011706Y-149927011D01*
X100000500Y-149875500D01*
X100000500Y-147100001D01*
X101344843Y-147100001D01*
X101365430Y-147335315D01*
X101365432Y-147335326D01*
X101426566Y-147563483D01*
X101426570Y-147563492D01*
X101526400Y-147777579D01*
X101526402Y-147777583D01*
X101585072Y-147861373D01*
X101585073Y-147861373D01*
X102216923Y-147229523D01*
X102240507Y-147309844D01*
X102318239Y-147430798D01*
X102426900Y-147524952D01*
X102557685Y-147584680D01*
X102567466Y-147586086D01*
X101938625Y-148214925D01*
X102022421Y-148273599D01*
X102236507Y-148373429D01*
X102236516Y-148373433D01*
X102464673Y-148434567D01*
X102464684Y-148434569D01*
X102699998Y-148455157D01*
X102700002Y-148455157D01*
X102935315Y-148434569D01*
X102935326Y-148434567D01*
X103163483Y-148373433D01*
X103163492Y-148373429D01*
X103377578Y-148273600D01*
X103377582Y-148273598D01*
X103461373Y-148214926D01*
X103461373Y-148214925D01*
X102832533Y-147586086D01*
X102842315Y-147584680D01*
X102973100Y-147524952D01*
X103081761Y-147430798D01*
X103159493Y-147309844D01*
X103183076Y-147229524D01*
X103814925Y-147861373D01*
X103814926Y-147861373D01*
X103873598Y-147777582D01*
X103873600Y-147777578D01*
X103973429Y-147563492D01*
X103973433Y-147563483D01*
X104034567Y-147335326D01*
X104034569Y-147335315D01*
X104037659Y-147300000D01*
X139894659Y-147300000D01*
X139913975Y-147496129D01*
X139971188Y-147684733D01*
X140064086Y-147858532D01*
X140064090Y-147858539D01*
X140189116Y-148010883D01*
X140341460Y-148135909D01*
X140341467Y-148135913D01*
X140515266Y-148228811D01*
X140515269Y-148228811D01*
X140515273Y-148228814D01*
X140703868Y-148286024D01*
X140900000Y-148305341D01*
X141096132Y-148286024D01*
X141284727Y-148228814D01*
X141310712Y-148214925D01*
X141458532Y-148135913D01*
X141458538Y-148135910D01*
X141610883Y-148010883D01*
X141735910Y-147858538D01*
X141828814Y-147684727D01*
X141886024Y-147496132D01*
X141905341Y-147300000D01*
X141886024Y-147103868D01*
X141828814Y-146915273D01*
X141828811Y-146915269D01*
X141828811Y-146915266D01*
X141735913Y-146741467D01*
X141735909Y-146741460D01*
X141610883Y-146589116D01*
X141458539Y-146464090D01*
X141458532Y-146464086D01*
X141284733Y-146371188D01*
X141284727Y-146371186D01*
X141096132Y-146313976D01*
X141096129Y-146313975D01*
X140900000Y-146294659D01*
X140703870Y-146313975D01*
X140515266Y-146371188D01*
X140341467Y-146464086D01*
X140341460Y-146464090D01*
X140189116Y-146589116D01*
X140064090Y-146741460D01*
X140064086Y-146741467D01*
X139971188Y-146915266D01*
X139913975Y-147103870D01*
X139894659Y-147300000D01*
X104037659Y-147300000D01*
X104055157Y-147100001D01*
X104055157Y-147099998D01*
X104034569Y-146864684D01*
X104034567Y-146864673D01*
X103973433Y-146636516D01*
X103973429Y-146636507D01*
X103873600Y-146422423D01*
X103873599Y-146422421D01*
X103814925Y-146338626D01*
X103814925Y-146338625D01*
X103183076Y-146970475D01*
X103159493Y-146890156D01*
X103081761Y-146769202D01*
X102973100Y-146675048D01*
X102842315Y-146615320D01*
X102832533Y-146613913D01*
X103461373Y-145985073D01*
X103461373Y-145985072D01*
X103377583Y-145926402D01*
X103377579Y-145926400D01*
X103163492Y-145826570D01*
X103163483Y-145826566D01*
X102935326Y-145765432D01*
X102935315Y-145765430D01*
X102700002Y-145744843D01*
X102699998Y-145744843D01*
X102464684Y-145765430D01*
X102464673Y-145765432D01*
X102236516Y-145826566D01*
X102236507Y-145826570D01*
X102022419Y-145926401D01*
X101938625Y-145985072D01*
X102567466Y-146613913D01*
X102557685Y-146615320D01*
X102426900Y-146675048D01*
X102318239Y-146769202D01*
X102240507Y-146890156D01*
X102216923Y-146970476D01*
X101585072Y-146338625D01*
X101526401Y-146422419D01*
X101426570Y-146636507D01*
X101426566Y-146636516D01*
X101365432Y-146864673D01*
X101365430Y-146864684D01*
X101344843Y-147099998D01*
X101344843Y-147100001D01*
X100000500Y-147100001D01*
X100000500Y-141380000D01*
X101344341Y-141380000D01*
X101364936Y-141615403D01*
X101364938Y-141615413D01*
X101426094Y-141843655D01*
X101426096Y-141843659D01*
X101426097Y-141843663D01*
X101471701Y-141941460D01*
X101525965Y-142057830D01*
X101525967Y-142057834D01*
X101566182Y-142115266D01*
X101661505Y-142251401D01*
X101828599Y-142418495D01*
X101925384Y-142486265D01*
X102022165Y-142554032D01*
X102022167Y-142554033D01*
X102022170Y-142554035D01*
X102236337Y-142653903D01*
X102464592Y-142715063D01*
X102652918Y-142731539D01*
X102699999Y-142735659D01*
X102700000Y-142735659D01*
X102700001Y-142735659D01*
X102739234Y-142732226D01*
X102935408Y-142715063D01*
X103163663Y-142653903D01*
X103377830Y-142554035D01*
X103455000Y-142500000D01*
X115194659Y-142500000D01*
X115213975Y-142696129D01*
X115271188Y-142884733D01*
X115364086Y-143058532D01*
X115364090Y-143058539D01*
X115489116Y-143210883D01*
X115641460Y-143335909D01*
X115641467Y-143335913D01*
X115815266Y-143428811D01*
X115815269Y-143428811D01*
X115815273Y-143428814D01*
X116003868Y-143486024D01*
X116200000Y-143505341D01*
X116396132Y-143486024D01*
X116584727Y-143428814D01*
X116758538Y-143335910D01*
X116910883Y-143210883D01*
X117035910Y-143058538D01*
X117128814Y-142884727D01*
X117186024Y-142696132D01*
X117205341Y-142500000D01*
X117186024Y-142303868D01*
X117128814Y-142115273D01*
X117128811Y-142115269D01*
X117128811Y-142115266D01*
X117035913Y-141941467D01*
X117035909Y-141941460D01*
X116910883Y-141789116D01*
X116758539Y-141664090D01*
X116758532Y-141664086D01*
X116584733Y-141571188D01*
X116584727Y-141571186D01*
X116396132Y-141513976D01*
X116396129Y-141513975D01*
X116200000Y-141494659D01*
X116003870Y-141513975D01*
X115815266Y-141571188D01*
X115641467Y-141664086D01*
X115641460Y-141664090D01*
X115489116Y-141789116D01*
X115364090Y-141941460D01*
X115364086Y-141941467D01*
X115271188Y-142115266D01*
X115213975Y-142303870D01*
X115194659Y-142500000D01*
X103455000Y-142500000D01*
X103571401Y-142418495D01*
X103738495Y-142251401D01*
X103874035Y-142057830D01*
X103973903Y-141843663D01*
X104035063Y-141615408D01*
X104055659Y-141380000D01*
X104035063Y-141144592D01*
X103973903Y-140916337D01*
X103874035Y-140702171D01*
X103757621Y-140535913D01*
X103738494Y-140508597D01*
X103571402Y-140341506D01*
X103571396Y-140341501D01*
X103385842Y-140211575D01*
X103342217Y-140156998D01*
X103335023Y-140087500D01*
X103366546Y-140025145D01*
X103385842Y-140008425D01*
X103408026Y-139992891D01*
X103571401Y-139878495D01*
X103738495Y-139711401D01*
X103746478Y-139700000D01*
X139894659Y-139700000D01*
X139913975Y-139896129D01*
X139971188Y-140084733D01*
X140064086Y-140258532D01*
X140064090Y-140258539D01*
X140189116Y-140410883D01*
X140341460Y-140535909D01*
X140341467Y-140535913D01*
X140515266Y-140628811D01*
X140515269Y-140628811D01*
X140515273Y-140628814D01*
X140703868Y-140686024D01*
X140900000Y-140705341D01*
X141096132Y-140686024D01*
X141284727Y-140628814D01*
X141458538Y-140535910D01*
X141610883Y-140410883D01*
X141735910Y-140258538D01*
X141790184Y-140156998D01*
X141828811Y-140084733D01*
X141828811Y-140084732D01*
X141828814Y-140084727D01*
X141886024Y-139896132D01*
X141905341Y-139700000D01*
X141886024Y-139503868D01*
X141828814Y-139315273D01*
X141828811Y-139315269D01*
X141828811Y-139315266D01*
X141820651Y-139300000D01*
X157994659Y-139300000D01*
X158013975Y-139496129D01*
X158071188Y-139684733D01*
X158164086Y-139858532D01*
X158164090Y-139858539D01*
X158289116Y-140010883D01*
X158441460Y-140135909D01*
X158441467Y-140135913D01*
X158615266Y-140228811D01*
X158615269Y-140228811D01*
X158615273Y-140228814D01*
X158803868Y-140286024D01*
X159000000Y-140305341D01*
X159196132Y-140286024D01*
X159384727Y-140228814D01*
X159416409Y-140211880D01*
X159558532Y-140135913D01*
X159558538Y-140135910D01*
X159710883Y-140010883D01*
X159835910Y-139858538D01*
X159914556Y-139711402D01*
X159928811Y-139684733D01*
X159928811Y-139684732D01*
X159928814Y-139684727D01*
X159986024Y-139496132D01*
X160005341Y-139300000D01*
X159986024Y-139103868D01*
X159928814Y-138915273D01*
X159928811Y-138915269D01*
X159928811Y-138915266D01*
X159888580Y-138840000D01*
X166544341Y-138840000D01*
X166564936Y-139075403D01*
X166564938Y-139075413D01*
X166626094Y-139303655D01*
X166626096Y-139303659D01*
X166626097Y-139303663D01*
X166715846Y-139496129D01*
X166725965Y-139517830D01*
X166725967Y-139517834D01*
X166861501Y-139711395D01*
X166861506Y-139711402D01*
X167028597Y-139878493D01*
X167028603Y-139878498D01*
X167214594Y-140008730D01*
X167258219Y-140063307D01*
X167265413Y-140132805D01*
X167233890Y-140195160D01*
X167214595Y-140211880D01*
X167028922Y-140341890D01*
X167028920Y-140341891D01*
X166861891Y-140508920D01*
X166861886Y-140508926D01*
X166726400Y-140702420D01*
X166726399Y-140702422D01*
X166626570Y-140916507D01*
X166626567Y-140916513D01*
X166569364Y-141129999D01*
X166569364Y-141130000D01*
X167466314Y-141130000D01*
X167440507Y-141170156D01*
X167400000Y-141308111D01*
X167400000Y-141451889D01*
X167440507Y-141589844D01*
X167466314Y-141630000D01*
X166569364Y-141630000D01*
X166626567Y-141843486D01*
X166626570Y-141843492D01*
X166726399Y-142057578D01*
X166861894Y-142251082D01*
X167028917Y-142418105D01*
X167222421Y-142553600D01*
X167436507Y-142653429D01*
X167436516Y-142653433D01*
X167650000Y-142710634D01*
X167650000Y-141815501D01*
X167757685Y-141864680D01*
X167864237Y-141880000D01*
X167935763Y-141880000D01*
X168042315Y-141864680D01*
X168150000Y-141815501D01*
X168150000Y-142710633D01*
X168363483Y-142653433D01*
X168363492Y-142653429D01*
X168577578Y-142553600D01*
X168771082Y-142418105D01*
X168938105Y-142251082D01*
X169073600Y-142057578D01*
X169173429Y-141843492D01*
X169173432Y-141843486D01*
X169230636Y-141630000D01*
X168333686Y-141630000D01*
X168359493Y-141589844D01*
X168400000Y-141451889D01*
X168400000Y-141308111D01*
X168359493Y-141170156D01*
X168333686Y-141130000D01*
X169230636Y-141130000D01*
X169230635Y-141129999D01*
X169173432Y-140916513D01*
X169173429Y-140916507D01*
X169073600Y-140702422D01*
X169073599Y-140702420D01*
X168938113Y-140508926D01*
X168938108Y-140508920D01*
X168771078Y-140341890D01*
X168585405Y-140211879D01*
X168541780Y-140157302D01*
X168534588Y-140087804D01*
X168566110Y-140025449D01*
X168585406Y-140008730D01*
X168585842Y-140008425D01*
X168771401Y-139878495D01*
X168938495Y-139711401D01*
X169074035Y-139517830D01*
X169173903Y-139303663D01*
X169235063Y-139075408D01*
X169255659Y-138840000D01*
X169235063Y-138604592D01*
X169173903Y-138376337D01*
X169074035Y-138162171D01*
X168971177Y-138015273D01*
X168938494Y-137968597D01*
X168771402Y-137801506D01*
X168771396Y-137801501D01*
X168585842Y-137671575D01*
X168542217Y-137616998D01*
X168535023Y-137547500D01*
X168566546Y-137485145D01*
X168585842Y-137468425D01*
X168663604Y-137413975D01*
X168771401Y-137338495D01*
X168938495Y-137171401D01*
X169074035Y-136977830D01*
X169173903Y-136763663D01*
X169235063Y-136535408D01*
X169255659Y-136300000D01*
X169235063Y-136064592D01*
X169173903Y-135836337D01*
X169074035Y-135622171D01*
X168938495Y-135428599D01*
X168938494Y-135428597D01*
X168771402Y-135261506D01*
X168771396Y-135261501D01*
X168585842Y-135131575D01*
X168542217Y-135076998D01*
X168535023Y-135007500D01*
X168566546Y-134945145D01*
X168585842Y-134928425D01*
X168723468Y-134832058D01*
X168771401Y-134798495D01*
X168938495Y-134631401D01*
X169074035Y-134437830D01*
X169173903Y-134223663D01*
X169235063Y-133995408D01*
X169255659Y-133760000D01*
X169235063Y-133524592D01*
X169182042Y-133326713D01*
X169173905Y-133296344D01*
X169173904Y-133296343D01*
X169173903Y-133296337D01*
X169074035Y-133082171D01*
X169052047Y-133050768D01*
X168938494Y-132888597D01*
X168771402Y-132721506D01*
X168771396Y-132721501D01*
X168585842Y-132591575D01*
X168542217Y-132536998D01*
X168535023Y-132467500D01*
X168566546Y-132405145D01*
X168585842Y-132388425D01*
X168668863Y-132330293D01*
X168771401Y-132258495D01*
X168938495Y-132091401D01*
X169074035Y-131897830D01*
X169173903Y-131683663D01*
X169235063Y-131455408D01*
X169255659Y-131220000D01*
X169235063Y-130984592D01*
X169173903Y-130756337D01*
X169074035Y-130542171D01*
X168974487Y-130400000D01*
X168938494Y-130348597D01*
X168771402Y-130181506D01*
X168771396Y-130181501D01*
X168585842Y-130051575D01*
X168542217Y-129996998D01*
X168535023Y-129927500D01*
X168566546Y-129865145D01*
X168585842Y-129848425D01*
X168608026Y-129832891D01*
X168771401Y-129718495D01*
X168938495Y-129551401D01*
X169074035Y-129357830D01*
X169173903Y-129143663D01*
X169235063Y-128915408D01*
X169255659Y-128680000D01*
X169235063Y-128444592D01*
X169179498Y-128237217D01*
X169173905Y-128216344D01*
X169173904Y-128216343D01*
X169173903Y-128216337D01*
X169074035Y-128002171D01*
X169031527Y-127941462D01*
X168938494Y-127808597D01*
X168771402Y-127641506D01*
X168771396Y-127641501D01*
X168585842Y-127511575D01*
X168542217Y-127456998D01*
X168535023Y-127387500D01*
X168566546Y-127325145D01*
X168585842Y-127308425D01*
X168608026Y-127292891D01*
X168771401Y-127178495D01*
X168938495Y-127011401D01*
X169074035Y-126817830D01*
X169173903Y-126603663D01*
X169235063Y-126375408D01*
X169255659Y-126140000D01*
X169235063Y-125904592D01*
X169173903Y-125676337D01*
X169074035Y-125462171D01*
X169069096Y-125455118D01*
X168938496Y-125268600D01*
X168936412Y-125266516D01*
X168816179Y-125146283D01*
X168782696Y-125084963D01*
X168787680Y-125015271D01*
X168829551Y-124959337D01*
X168860529Y-124942422D01*
X168992086Y-124893354D01*
X168992093Y-124893350D01*
X169107187Y-124807190D01*
X169107190Y-124807187D01*
X169193350Y-124692093D01*
X169193354Y-124692086D01*
X169243596Y-124557379D01*
X169243598Y-124557372D01*
X169249999Y-124497844D01*
X169250000Y-124497827D01*
X169250000Y-123850000D01*
X168333686Y-123850000D01*
X168359493Y-123809844D01*
X168400000Y-123671889D01*
X168400000Y-123528111D01*
X168359493Y-123390156D01*
X168333686Y-123350000D01*
X169250000Y-123350000D01*
X169250000Y-122702172D01*
X169249999Y-122702155D01*
X169243598Y-122642627D01*
X169243596Y-122642620D01*
X169193354Y-122507913D01*
X169193350Y-122507906D01*
X169107190Y-122392812D01*
X169107187Y-122392809D01*
X168992093Y-122306649D01*
X168992086Y-122306645D01*
X168857379Y-122256403D01*
X168857372Y-122256401D01*
X168797844Y-122250000D01*
X168150000Y-122250000D01*
X168150000Y-123164498D01*
X168042315Y-123115320D01*
X167935763Y-123100000D01*
X167864237Y-123100000D01*
X167757685Y-123115320D01*
X167650000Y-123164498D01*
X167650000Y-122250000D01*
X167002155Y-122250000D01*
X166942627Y-122256401D01*
X166942620Y-122256403D01*
X166807913Y-122306645D01*
X166807906Y-122306649D01*
X166692812Y-122392809D01*
X166692809Y-122392812D01*
X166606649Y-122507906D01*
X166606645Y-122507913D01*
X166556403Y-122642620D01*
X166556401Y-122642627D01*
X166550000Y-122702155D01*
X166550000Y-123350000D01*
X167466314Y-123350000D01*
X167440507Y-123390156D01*
X167400000Y-123528111D01*
X167400000Y-123671889D01*
X167440507Y-123809844D01*
X167466314Y-123850000D01*
X166550000Y-123850000D01*
X166550000Y-124497844D01*
X166556401Y-124557372D01*
X166556403Y-124557379D01*
X166606645Y-124692086D01*
X166606649Y-124692093D01*
X166692809Y-124807187D01*
X166692812Y-124807190D01*
X166807906Y-124893350D01*
X166807913Y-124893354D01*
X166939470Y-124942421D01*
X166995403Y-124984292D01*
X167019821Y-125049756D01*
X167004970Y-125118029D01*
X166983819Y-125146284D01*
X166861503Y-125268600D01*
X166725965Y-125462169D01*
X166725964Y-125462171D01*
X166626098Y-125676335D01*
X166626094Y-125676344D01*
X166564938Y-125904586D01*
X166564936Y-125904596D01*
X166544341Y-126139999D01*
X166544341Y-126140000D01*
X166564936Y-126375403D01*
X166564938Y-126375413D01*
X166626094Y-126603655D01*
X166626096Y-126603659D01*
X166626097Y-126603663D01*
X166650778Y-126656591D01*
X166725965Y-126817830D01*
X166725967Y-126817834D01*
X166861501Y-127011395D01*
X166861506Y-127011402D01*
X167028597Y-127178493D01*
X167028603Y-127178498D01*
X167214158Y-127308425D01*
X167257783Y-127363002D01*
X167264977Y-127432500D01*
X167233454Y-127494855D01*
X167214158Y-127511575D01*
X167028597Y-127641505D01*
X166861505Y-127808597D01*
X166725965Y-128002169D01*
X166725964Y-128002171D01*
X166626098Y-128216335D01*
X166626094Y-128216344D01*
X166564938Y-128444586D01*
X166564936Y-128444596D01*
X166544341Y-128679999D01*
X166544341Y-128680000D01*
X166564936Y-128915403D01*
X166564938Y-128915413D01*
X166626094Y-129143655D01*
X166626096Y-129143659D01*
X166626097Y-129143663D01*
X166699766Y-129301646D01*
X166725965Y-129357830D01*
X166725967Y-129357834D01*
X166861501Y-129551395D01*
X166861506Y-129551402D01*
X167028597Y-129718493D01*
X167028603Y-129718498D01*
X167214158Y-129848425D01*
X167257783Y-129903002D01*
X167264977Y-129972500D01*
X167233454Y-130034855D01*
X167214158Y-130051575D01*
X167028597Y-130181505D01*
X166861505Y-130348597D01*
X166725965Y-130542169D01*
X166725964Y-130542171D01*
X166626098Y-130756335D01*
X166626094Y-130756344D01*
X166564938Y-130984586D01*
X166564936Y-130984596D01*
X166544341Y-131219999D01*
X166544341Y-131220000D01*
X166564936Y-131455403D01*
X166564938Y-131455413D01*
X166626094Y-131683655D01*
X166626096Y-131683659D01*
X166626097Y-131683663D01*
X166725965Y-131897830D01*
X166725967Y-131897834D01*
X166834281Y-132052521D01*
X166852371Y-132078357D01*
X166861501Y-132091395D01*
X166861506Y-132091402D01*
X167028597Y-132258493D01*
X167028603Y-132258498D01*
X167214158Y-132388425D01*
X167257783Y-132443002D01*
X167264977Y-132512500D01*
X167233454Y-132574855D01*
X167214158Y-132591575D01*
X167028597Y-132721505D01*
X166861505Y-132888597D01*
X166725965Y-133082169D01*
X166725964Y-133082171D01*
X166626098Y-133296335D01*
X166626094Y-133296344D01*
X166564938Y-133524586D01*
X166564936Y-133524596D01*
X166544341Y-133759999D01*
X166544341Y-133760000D01*
X166564936Y-133995403D01*
X166564938Y-133995413D01*
X166626094Y-134223655D01*
X166626096Y-134223659D01*
X166626097Y-134223663D01*
X166674150Y-134326713D01*
X166725965Y-134437830D01*
X166725967Y-134437834D01*
X166861501Y-134631395D01*
X166861506Y-134631402D01*
X167028597Y-134798493D01*
X167028603Y-134798498D01*
X167214158Y-134928425D01*
X167257783Y-134983002D01*
X167264977Y-135052500D01*
X167233454Y-135114855D01*
X167214158Y-135131575D01*
X167028597Y-135261505D01*
X166861505Y-135428597D01*
X166725965Y-135622169D01*
X166725964Y-135622171D01*
X166626098Y-135836335D01*
X166626094Y-135836344D01*
X166564938Y-136064586D01*
X166564936Y-136064596D01*
X166544341Y-136299999D01*
X166544341Y-136300000D01*
X166564936Y-136535403D01*
X166564938Y-136535413D01*
X166626094Y-136763655D01*
X166626096Y-136763659D01*
X166626097Y-136763663D01*
X166725965Y-136977830D01*
X166725967Y-136977834D01*
X166861501Y-137171395D01*
X166861506Y-137171402D01*
X167028597Y-137338493D01*
X167028603Y-137338498D01*
X167214158Y-137468425D01*
X167257783Y-137523002D01*
X167264977Y-137592500D01*
X167233454Y-137654855D01*
X167214158Y-137671575D01*
X167028597Y-137801505D01*
X166861505Y-137968597D01*
X166725965Y-138162169D01*
X166725964Y-138162171D01*
X166626098Y-138376335D01*
X166626094Y-138376344D01*
X166564938Y-138604586D01*
X166564936Y-138604596D01*
X166544341Y-138839999D01*
X166544341Y-138840000D01*
X159888580Y-138840000D01*
X159835913Y-138741467D01*
X159835909Y-138741460D01*
X159710883Y-138589116D01*
X159558539Y-138464090D01*
X159558532Y-138464086D01*
X159384733Y-138371188D01*
X159384727Y-138371186D01*
X159196132Y-138313976D01*
X159196129Y-138313975D01*
X159000000Y-138294659D01*
X158803870Y-138313975D01*
X158615266Y-138371188D01*
X158441467Y-138464086D01*
X158441460Y-138464090D01*
X158289116Y-138589116D01*
X158164090Y-138741460D01*
X158164086Y-138741467D01*
X158071188Y-138915266D01*
X158013975Y-139103870D01*
X157994659Y-139300000D01*
X141820651Y-139300000D01*
X141735913Y-139141467D01*
X141735909Y-139141460D01*
X141610883Y-138989116D01*
X141458539Y-138864090D01*
X141458532Y-138864086D01*
X141284733Y-138771188D01*
X141284727Y-138771186D01*
X141096132Y-138713976D01*
X141096129Y-138713975D01*
X140900000Y-138694659D01*
X140703870Y-138713975D01*
X140515266Y-138771188D01*
X140341467Y-138864086D01*
X140341460Y-138864090D01*
X140189116Y-138989116D01*
X140064090Y-139141460D01*
X140064086Y-139141467D01*
X139971188Y-139315266D01*
X139913975Y-139503870D01*
X139894659Y-139700000D01*
X103746478Y-139700000D01*
X103874035Y-139517830D01*
X103973903Y-139303663D01*
X104035063Y-139075408D01*
X104055659Y-138840000D01*
X104035063Y-138604592D01*
X103980243Y-138400000D01*
X115194659Y-138400000D01*
X115213975Y-138596129D01*
X115233046Y-138658997D01*
X115267078Y-138771186D01*
X115271188Y-138784733D01*
X115364086Y-138958532D01*
X115364090Y-138958539D01*
X115489116Y-139110883D01*
X115641460Y-139235909D01*
X115641467Y-139235913D01*
X115815266Y-139328811D01*
X115815269Y-139328811D01*
X115815273Y-139328814D01*
X116003868Y-139386024D01*
X116200000Y-139405341D01*
X116396132Y-139386024D01*
X116584727Y-139328814D01*
X116610061Y-139315273D01*
X116758532Y-139235913D01*
X116758538Y-139235910D01*
X116910883Y-139110883D01*
X117035910Y-138958538D01*
X117099270Y-138840000D01*
X117128811Y-138784733D01*
X117128811Y-138784732D01*
X117128814Y-138784727D01*
X117186024Y-138596132D01*
X117205341Y-138400000D01*
X134294659Y-138400000D01*
X134313975Y-138596129D01*
X134333046Y-138658997D01*
X134367078Y-138771186D01*
X134371188Y-138784733D01*
X134464086Y-138958532D01*
X134464090Y-138958539D01*
X134589116Y-139110883D01*
X134741460Y-139235909D01*
X134741467Y-139235913D01*
X134915266Y-139328811D01*
X134915269Y-139328811D01*
X134915273Y-139328814D01*
X135103868Y-139386024D01*
X135300000Y-139405341D01*
X135496132Y-139386024D01*
X135684727Y-139328814D01*
X135710061Y-139315273D01*
X135858532Y-139235913D01*
X135858538Y-139235910D01*
X136010883Y-139110883D01*
X136135910Y-138958538D01*
X136199270Y-138840000D01*
X136228811Y-138784733D01*
X136228811Y-138784732D01*
X136228814Y-138784727D01*
X136286024Y-138596132D01*
X136305341Y-138400000D01*
X136286024Y-138203868D01*
X136228814Y-138015273D01*
X136228811Y-138015269D01*
X136228811Y-138015266D01*
X136135913Y-137841467D01*
X136135909Y-137841460D01*
X136010883Y-137689116D01*
X135858539Y-137564090D01*
X135858532Y-137564086D01*
X135684733Y-137471188D01*
X135684727Y-137471186D01*
X135496132Y-137413976D01*
X135496129Y-137413975D01*
X135300000Y-137394659D01*
X135103870Y-137413975D01*
X134915266Y-137471188D01*
X134741467Y-137564086D01*
X134741460Y-137564090D01*
X134589116Y-137689116D01*
X134464090Y-137841460D01*
X134464086Y-137841467D01*
X134371188Y-138015266D01*
X134313975Y-138203870D01*
X134294659Y-138400000D01*
X117205341Y-138400000D01*
X117186024Y-138203868D01*
X117128814Y-138015273D01*
X117128811Y-138015269D01*
X117128811Y-138015266D01*
X117035913Y-137841467D01*
X117035909Y-137841460D01*
X116910883Y-137689116D01*
X116758539Y-137564090D01*
X116758532Y-137564086D01*
X116584733Y-137471188D01*
X116584727Y-137471186D01*
X116396132Y-137413976D01*
X116396129Y-137413975D01*
X116200000Y-137394659D01*
X116003870Y-137413975D01*
X115815266Y-137471188D01*
X115641467Y-137564086D01*
X115641460Y-137564090D01*
X115489116Y-137689116D01*
X115364090Y-137841460D01*
X115364086Y-137841467D01*
X115271188Y-138015266D01*
X115213975Y-138203870D01*
X115194659Y-138400000D01*
X103980243Y-138400000D01*
X103973903Y-138376337D01*
X103874035Y-138162171D01*
X103771177Y-138015273D01*
X103738494Y-137968597D01*
X103571402Y-137801506D01*
X103571396Y-137801501D01*
X103385842Y-137671575D01*
X103342217Y-137616998D01*
X103335023Y-137547500D01*
X103366546Y-137485145D01*
X103385842Y-137468425D01*
X103463604Y-137413975D01*
X103571401Y-137338495D01*
X103738495Y-137171401D01*
X103874035Y-136977830D01*
X103973903Y-136763663D01*
X104035063Y-136535408D01*
X104055659Y-136300000D01*
X104035063Y-136064592D01*
X103973903Y-135836337D01*
X103901125Y-135680266D01*
X133973285Y-135680266D01*
X134132056Y-135735824D01*
X134299996Y-135754746D01*
X134300004Y-135754746D01*
X134467943Y-135735824D01*
X134626713Y-135680267D01*
X134626714Y-135680266D01*
X134973285Y-135680266D01*
X135132056Y-135735824D01*
X135299996Y-135754746D01*
X135300004Y-135754746D01*
X135467943Y-135735824D01*
X135626713Y-135680267D01*
X135626714Y-135680266D01*
X135973285Y-135680266D01*
X136132056Y-135735824D01*
X136299996Y-135754746D01*
X136300004Y-135754746D01*
X136467943Y-135735824D01*
X136626713Y-135680267D01*
X136626714Y-135680266D01*
X136300001Y-135353553D01*
X136300000Y-135353553D01*
X135973285Y-135680266D01*
X135626714Y-135680266D01*
X135300001Y-135353553D01*
X135300000Y-135353553D01*
X134973285Y-135680266D01*
X134626714Y-135680266D01*
X134300001Y-135353553D01*
X134300000Y-135353553D01*
X133973285Y-135680266D01*
X103901125Y-135680266D01*
X103874035Y-135622171D01*
X103738495Y-135428599D01*
X103738494Y-135428597D01*
X103571402Y-135261506D01*
X103571396Y-135261501D01*
X103385842Y-135131575D01*
X103342217Y-135076998D01*
X103335023Y-135007500D01*
X103338813Y-135000003D01*
X133545254Y-135000003D01*
X133564175Y-135167938D01*
X133564176Y-135167943D01*
X133619732Y-135326714D01*
X133946447Y-135000000D01*
X134144709Y-135000000D01*
X134165514Y-135077645D01*
X134222355Y-135134486D01*
X134280254Y-135150000D01*
X134319746Y-135150000D01*
X134377645Y-135134486D01*
X134434486Y-135077646D01*
X134455291Y-135000000D01*
X134653553Y-135000000D01*
X134800000Y-135146447D01*
X134946447Y-135000000D01*
X135144709Y-135000000D01*
X135165514Y-135077645D01*
X135222355Y-135134486D01*
X135280254Y-135150000D01*
X135319746Y-135150000D01*
X135377645Y-135134486D01*
X135434486Y-135077646D01*
X135455291Y-135000000D01*
X135653553Y-135000000D01*
X135800000Y-135146447D01*
X135946447Y-135000000D01*
X136144709Y-135000000D01*
X136165514Y-135077645D01*
X136222355Y-135134486D01*
X136280254Y-135150000D01*
X136319746Y-135150000D01*
X136377645Y-135134486D01*
X136434486Y-135077646D01*
X136455291Y-135000001D01*
X136653553Y-135000001D01*
X136980266Y-135326714D01*
X136980267Y-135326713D01*
X137035824Y-135167943D01*
X137054746Y-135000003D01*
X137054746Y-134999996D01*
X137035824Y-134832056D01*
X136980266Y-134673285D01*
X136653553Y-134999999D01*
X136653553Y-135000001D01*
X136455291Y-135000001D01*
X136455291Y-135000000D01*
X136434486Y-134922355D01*
X136377645Y-134865514D01*
X136319746Y-134850000D01*
X136280254Y-134850000D01*
X136222355Y-134865514D01*
X136165514Y-134922354D01*
X136144709Y-135000000D01*
X135946447Y-135000000D01*
X135800000Y-134853553D01*
X135653553Y-135000000D01*
X135455291Y-135000000D01*
X135434486Y-134922355D01*
X135377645Y-134865514D01*
X135319746Y-134850000D01*
X135280254Y-134850000D01*
X135222355Y-134865514D01*
X135165514Y-134922354D01*
X135144709Y-135000000D01*
X134946447Y-135000000D01*
X134800000Y-134853553D01*
X134653553Y-135000000D01*
X134455291Y-135000000D01*
X134434486Y-134922355D01*
X134377645Y-134865514D01*
X134319746Y-134850000D01*
X134280254Y-134850000D01*
X134222355Y-134865514D01*
X134165514Y-134922354D01*
X134144709Y-135000000D01*
X133946447Y-135000000D01*
X133619732Y-134673285D01*
X133564176Y-134832053D01*
X133564175Y-134832058D01*
X133545254Y-134999996D01*
X133545254Y-135000003D01*
X103338813Y-135000003D01*
X103366546Y-134945145D01*
X103385842Y-134928425D01*
X103523468Y-134832058D01*
X103571401Y-134798495D01*
X103738495Y-134631401D01*
X103830503Y-134500000D01*
X134153553Y-134500000D01*
X134300000Y-134646447D01*
X134446447Y-134500000D01*
X135153553Y-134500000D01*
X135300000Y-134646447D01*
X135446447Y-134500000D01*
X136153553Y-134500000D01*
X136300000Y-134646447D01*
X136446447Y-134500000D01*
X136300000Y-134353553D01*
X136153553Y-134500000D01*
X135446447Y-134500000D01*
X135300000Y-134353553D01*
X135153553Y-134500000D01*
X134446447Y-134500000D01*
X134300000Y-134353553D01*
X134153553Y-134500000D01*
X103830503Y-134500000D01*
X103874035Y-134437830D01*
X103973903Y-134223663D01*
X104033832Y-134000003D01*
X133545254Y-134000003D01*
X133564175Y-134167938D01*
X133564176Y-134167943D01*
X133619732Y-134326714D01*
X133946447Y-134000000D01*
X134144709Y-134000000D01*
X134165514Y-134077645D01*
X134222355Y-134134486D01*
X134280254Y-134150000D01*
X134319746Y-134150000D01*
X134377645Y-134134486D01*
X134434486Y-134077646D01*
X134455291Y-134000000D01*
X134653553Y-134000000D01*
X134800000Y-134146447D01*
X134946447Y-134000000D01*
X135144709Y-134000000D01*
X135165514Y-134077645D01*
X135222355Y-134134486D01*
X135280254Y-134150000D01*
X135319746Y-134150000D01*
X135377645Y-134134486D01*
X135434486Y-134077646D01*
X135455291Y-134000000D01*
X135653553Y-134000000D01*
X135800000Y-134146447D01*
X135946447Y-134000000D01*
X136144709Y-134000000D01*
X136165514Y-134077645D01*
X136222355Y-134134486D01*
X136280254Y-134150000D01*
X136319746Y-134150000D01*
X136377645Y-134134486D01*
X136434486Y-134077646D01*
X136455291Y-134000001D01*
X136653553Y-134000001D01*
X136980266Y-134326714D01*
X136980267Y-134326713D01*
X137035824Y-134167943D01*
X137054746Y-134000003D01*
X137054746Y-133999996D01*
X137035824Y-133832056D01*
X136980266Y-133673285D01*
X136653553Y-133999999D01*
X136653553Y-134000001D01*
X136455291Y-134000001D01*
X136455291Y-134000000D01*
X136434486Y-133922355D01*
X136377645Y-133865514D01*
X136319746Y-133850000D01*
X136280254Y-133850000D01*
X136222355Y-133865514D01*
X136165514Y-133922354D01*
X136144709Y-134000000D01*
X135946447Y-134000000D01*
X135800000Y-133853553D01*
X135653553Y-134000000D01*
X135455291Y-134000000D01*
X135434486Y-133922355D01*
X135377645Y-133865514D01*
X135319746Y-133850000D01*
X135280254Y-133850000D01*
X135222355Y-133865514D01*
X135165514Y-133922354D01*
X135144709Y-134000000D01*
X134946447Y-134000000D01*
X134800000Y-133853553D01*
X134653553Y-134000000D01*
X134455291Y-134000000D01*
X134434486Y-133922355D01*
X134377645Y-133865514D01*
X134319746Y-133850000D01*
X134280254Y-133850000D01*
X134222355Y-133865514D01*
X134165514Y-133922354D01*
X134144709Y-134000000D01*
X133946447Y-134000000D01*
X133619732Y-133673285D01*
X133564176Y-133832053D01*
X133564175Y-133832058D01*
X133545254Y-133999996D01*
X133545254Y-134000003D01*
X104033832Y-134000003D01*
X104035063Y-133995408D01*
X104055659Y-133760000D01*
X104035063Y-133524592D01*
X104028474Y-133500000D01*
X134153553Y-133500000D01*
X134300000Y-133646447D01*
X134446447Y-133500000D01*
X135153553Y-133500000D01*
X135300000Y-133646447D01*
X135446447Y-133500000D01*
X136153553Y-133500000D01*
X136300000Y-133646447D01*
X136446447Y-133500000D01*
X136300000Y-133353553D01*
X136153553Y-133500000D01*
X135446447Y-133500000D01*
X135300000Y-133353553D01*
X135153553Y-133500000D01*
X134446447Y-133500000D01*
X134300000Y-133353553D01*
X134153553Y-133500000D01*
X104028474Y-133500000D01*
X103982042Y-133326713D01*
X103973905Y-133296344D01*
X103973904Y-133296343D01*
X103973903Y-133296337D01*
X103874035Y-133082171D01*
X103852047Y-133050768D01*
X103816501Y-133000003D01*
X133545254Y-133000003D01*
X133564175Y-133167938D01*
X133564176Y-133167943D01*
X133619732Y-133326714D01*
X133946447Y-133000000D01*
X134144709Y-133000000D01*
X134165514Y-133077645D01*
X134222355Y-133134486D01*
X134280254Y-133150000D01*
X134319746Y-133150000D01*
X134377645Y-133134486D01*
X134434486Y-133077646D01*
X134455291Y-133000000D01*
X134653553Y-133000000D01*
X134800000Y-133146447D01*
X134946447Y-133000000D01*
X135144709Y-133000000D01*
X135165514Y-133077645D01*
X135222355Y-133134486D01*
X135280254Y-133150000D01*
X135319746Y-133150000D01*
X135377645Y-133134486D01*
X135434486Y-133077646D01*
X135455291Y-133000000D01*
X135653553Y-133000000D01*
X135800000Y-133146447D01*
X135946447Y-133000000D01*
X136144709Y-133000000D01*
X136165514Y-133077645D01*
X136222355Y-133134486D01*
X136280254Y-133150000D01*
X136319746Y-133150000D01*
X136377645Y-133134486D01*
X136434486Y-133077646D01*
X136455291Y-133000001D01*
X136653553Y-133000001D01*
X136980266Y-133326714D01*
X136980267Y-133326713D01*
X137035824Y-133167943D01*
X137054746Y-133000003D01*
X137054746Y-132999996D01*
X137039255Y-132862509D01*
X143736015Y-132862509D01*
X143755801Y-133050765D01*
X143755802Y-133050768D01*
X143814293Y-133230786D01*
X143814296Y-133230793D01*
X143908942Y-133394725D01*
X144025870Y-133524586D01*
X144035604Y-133535397D01*
X144188740Y-133646657D01*
X144188745Y-133646660D01*
X144361667Y-133723651D01*
X144361672Y-133723653D01*
X144546829Y-133763009D01*
X144546830Y-133763009D01*
X144736119Y-133763009D01*
X144736121Y-133763009D01*
X144921278Y-133723653D01*
X145094205Y-133646660D01*
X145247346Y-133535397D01*
X145374008Y-133394725D01*
X145428697Y-133300000D01*
X151494659Y-133300000D01*
X151513975Y-133496129D01*
X151525887Y-133535397D01*
X151559638Y-133646660D01*
X151571188Y-133684733D01*
X151664086Y-133858532D01*
X151664090Y-133858539D01*
X151789116Y-134010883D01*
X151941460Y-134135909D01*
X151941467Y-134135913D01*
X152115266Y-134228811D01*
X152115269Y-134228811D01*
X152115273Y-134228814D01*
X152303868Y-134286024D01*
X152500000Y-134305341D01*
X152696132Y-134286024D01*
X152884727Y-134228814D01*
X153058538Y-134135910D01*
X153210883Y-134010883D01*
X153335910Y-133858538D01*
X153428814Y-133684727D01*
X153486024Y-133496132D01*
X153505341Y-133300000D01*
X153486024Y-133103868D01*
X153428814Y-132915273D01*
X153428811Y-132915269D01*
X153428811Y-132915266D01*
X153335913Y-132741467D01*
X153335909Y-132741460D01*
X153210883Y-132589116D01*
X153058539Y-132464090D01*
X153058532Y-132464086D01*
X152884733Y-132371188D01*
X152884727Y-132371186D01*
X152696132Y-132313976D01*
X152696129Y-132313975D01*
X152500000Y-132294659D01*
X152303870Y-132313975D01*
X152115266Y-132371188D01*
X151941467Y-132464086D01*
X151941460Y-132464090D01*
X151789116Y-132589116D01*
X151664090Y-132741460D01*
X151664086Y-132741467D01*
X151571188Y-132915266D01*
X151513975Y-133103870D01*
X151494659Y-133300000D01*
X145428697Y-133300000D01*
X145468654Y-133230793D01*
X145527149Y-133050765D01*
X145546935Y-132862509D01*
X145527149Y-132674253D01*
X145468654Y-132494225D01*
X145374008Y-132330293D01*
X145247346Y-132189621D01*
X145247345Y-132189620D01*
X145094209Y-132078360D01*
X145094204Y-132078357D01*
X144921282Y-132001366D01*
X144921277Y-132001364D01*
X144775476Y-131970374D01*
X144736121Y-131962009D01*
X144546829Y-131962009D01*
X144514372Y-131968907D01*
X144361672Y-132001364D01*
X144361667Y-132001366D01*
X144188745Y-132078357D01*
X144188740Y-132078360D01*
X144035604Y-132189620D01*
X143908941Y-132330294D01*
X143814296Y-132494224D01*
X143814293Y-132494231D01*
X143755802Y-132674249D01*
X143755801Y-132674253D01*
X143736015Y-132862509D01*
X137039255Y-132862509D01*
X137035824Y-132832056D01*
X136980266Y-132673285D01*
X136653553Y-132999999D01*
X136653553Y-133000001D01*
X136455291Y-133000001D01*
X136455291Y-133000000D01*
X136434486Y-132922355D01*
X136377645Y-132865514D01*
X136319746Y-132850000D01*
X136280254Y-132850000D01*
X136222355Y-132865514D01*
X136165514Y-132922354D01*
X136144709Y-133000000D01*
X135946447Y-133000000D01*
X135800000Y-132853553D01*
X135653553Y-133000000D01*
X135455291Y-133000000D01*
X135434486Y-132922355D01*
X135377645Y-132865514D01*
X135319746Y-132850000D01*
X135280254Y-132850000D01*
X135222355Y-132865514D01*
X135165514Y-132922354D01*
X135144709Y-133000000D01*
X134946447Y-133000000D01*
X134800000Y-132853553D01*
X134653553Y-133000000D01*
X134455291Y-133000000D01*
X134434486Y-132922355D01*
X134377645Y-132865514D01*
X134319746Y-132850000D01*
X134280254Y-132850000D01*
X134222355Y-132865514D01*
X134165514Y-132922354D01*
X134144709Y-133000000D01*
X133946447Y-133000000D01*
X133619732Y-132673285D01*
X133564176Y-132832053D01*
X133564175Y-132832058D01*
X133545254Y-132999996D01*
X133545254Y-133000003D01*
X103816501Y-133000003D01*
X103738494Y-132888597D01*
X103571402Y-132721506D01*
X103571396Y-132721501D01*
X103385842Y-132591575D01*
X103342217Y-132536998D01*
X103335023Y-132467500D01*
X103366546Y-132405145D01*
X103385842Y-132388425D01*
X103468863Y-132330293D01*
X103483946Y-132319732D01*
X133973285Y-132319732D01*
X134300000Y-132646447D01*
X134300001Y-132646447D01*
X134626714Y-132319732D01*
X134973285Y-132319732D01*
X135300000Y-132646447D01*
X135300001Y-132646447D01*
X135626714Y-132319732D01*
X135973285Y-132319732D01*
X136300000Y-132646447D01*
X136300001Y-132646447D01*
X136626714Y-132319732D01*
X136467943Y-132264176D01*
X136467938Y-132264175D01*
X136300004Y-132245254D01*
X136299996Y-132245254D01*
X136132058Y-132264175D01*
X136132053Y-132264176D01*
X135973285Y-132319732D01*
X135626714Y-132319732D01*
X135467943Y-132264176D01*
X135467938Y-132264175D01*
X135300004Y-132245254D01*
X135299996Y-132245254D01*
X135132058Y-132264175D01*
X135132053Y-132264176D01*
X134973285Y-132319732D01*
X134626714Y-132319732D01*
X134467943Y-132264176D01*
X134467938Y-132264175D01*
X134300004Y-132245254D01*
X134299996Y-132245254D01*
X134132058Y-132264175D01*
X134132053Y-132264176D01*
X133973285Y-132319732D01*
X103483946Y-132319732D01*
X103571401Y-132258495D01*
X103738495Y-132091401D01*
X103874035Y-131897830D01*
X103973903Y-131683663D01*
X104035063Y-131455408D01*
X104055659Y-131220000D01*
X104035063Y-130984592D01*
X103973903Y-130756337D01*
X103874035Y-130542171D01*
X103774487Y-130400000D01*
X136133404Y-130400000D01*
X136153190Y-130588256D01*
X136153191Y-130588259D01*
X136211682Y-130768277D01*
X136211685Y-130768284D01*
X136306331Y-130932216D01*
X136432993Y-131072888D01*
X136586129Y-131184148D01*
X136586134Y-131184151D01*
X136759056Y-131261142D01*
X136759061Y-131261144D01*
X136944218Y-131300500D01*
X136944219Y-131300500D01*
X137133508Y-131300500D01*
X137133510Y-131300500D01*
X137318667Y-131261144D01*
X137491594Y-131184151D01*
X137644735Y-131072888D01*
X137771397Y-130932216D01*
X137866043Y-130768284D01*
X137924538Y-130588256D01*
X137944324Y-130400000D01*
X137924538Y-130211744D01*
X137866043Y-130031716D01*
X137771397Y-129867784D01*
X137644735Y-129727112D01*
X137632338Y-129718105D01*
X137491598Y-129615851D01*
X137491593Y-129615848D01*
X137318671Y-129538857D01*
X137318666Y-129538855D01*
X137160985Y-129505340D01*
X137133510Y-129499500D01*
X136944218Y-129499500D01*
X136916743Y-129505340D01*
X136759061Y-129538855D01*
X136759056Y-129538857D01*
X136586134Y-129615848D01*
X136586129Y-129615851D01*
X136432993Y-129727111D01*
X136306330Y-129867785D01*
X136211685Y-130031715D01*
X136211682Y-130031722D01*
X136163015Y-130181505D01*
X136153190Y-130211744D01*
X136133404Y-130400000D01*
X103774487Y-130400000D01*
X103738494Y-130348597D01*
X103571402Y-130181506D01*
X103571401Y-130181505D01*
X103385405Y-130051269D01*
X103341781Y-129996692D01*
X103334588Y-129927193D01*
X103366110Y-129864839D01*
X103385405Y-129848119D01*
X103571082Y-129718105D01*
X103738105Y-129551082D01*
X103873600Y-129357578D01*
X103973429Y-129143492D01*
X103973432Y-129143486D01*
X104030636Y-128930000D01*
X103133686Y-128930000D01*
X103159493Y-128889844D01*
X103200000Y-128751889D01*
X103200000Y-128608111D01*
X103168256Y-128500000D01*
X138794659Y-128500000D01*
X138813975Y-128696129D01*
X138871188Y-128884733D01*
X138964086Y-129058532D01*
X138964090Y-129058539D01*
X139089116Y-129210883D01*
X139241460Y-129335909D01*
X139241467Y-129335913D01*
X139415266Y-129428811D01*
X139415269Y-129428811D01*
X139415273Y-129428814D01*
X139603868Y-129486024D01*
X139800000Y-129505341D01*
X139996132Y-129486024D01*
X140184727Y-129428814D01*
X140358538Y-129335910D01*
X140510883Y-129210883D01*
X140635910Y-129058538D01*
X140689814Y-128957691D01*
X140728811Y-128884733D01*
X140728811Y-128884732D01*
X140728814Y-128884727D01*
X140763789Y-128769432D01*
X141263972Y-128769432D01*
X141283758Y-128957688D01*
X141283759Y-128957691D01*
X141342250Y-129137709D01*
X141342253Y-129137716D01*
X141436899Y-129301648D01*
X141551397Y-129428811D01*
X141563561Y-129442320D01*
X141716697Y-129553580D01*
X141716702Y-129553583D01*
X141889624Y-129630574D01*
X141889629Y-129630576D01*
X142074786Y-129669932D01*
X142074787Y-129669932D01*
X142264076Y-129669932D01*
X142264078Y-129669932D01*
X142449235Y-129630576D01*
X142622162Y-129553583D01*
X142775303Y-129442320D01*
X142901965Y-129301648D01*
X142996611Y-129137716D01*
X143055106Y-128957688D01*
X143074892Y-128769432D01*
X143055106Y-128581176D01*
X142996611Y-128401148D01*
X142901965Y-128237216D01*
X142775303Y-128096544D01*
X142775302Y-128096543D01*
X142622166Y-127985283D01*
X142622161Y-127985280D01*
X142449239Y-127908289D01*
X142449234Y-127908287D01*
X142303433Y-127877297D01*
X142264078Y-127868932D01*
X142074786Y-127868932D01*
X142042329Y-127875830D01*
X141889629Y-127908287D01*
X141889624Y-127908289D01*
X141716702Y-127985280D01*
X141716697Y-127985283D01*
X141563561Y-128096543D01*
X141436898Y-128237217D01*
X141342253Y-128401147D01*
X141342250Y-128401154D01*
X141283759Y-128581172D01*
X141283758Y-128581176D01*
X141263972Y-128769432D01*
X140763789Y-128769432D01*
X140786024Y-128696132D01*
X140805341Y-128500000D01*
X140786024Y-128303868D01*
X140728814Y-128115273D01*
X140728811Y-128115269D01*
X140728811Y-128115266D01*
X140635913Y-127941467D01*
X140635909Y-127941460D01*
X140510883Y-127789116D01*
X140358539Y-127664090D01*
X140358532Y-127664086D01*
X140184733Y-127571188D01*
X140184727Y-127571186D01*
X139996132Y-127513976D01*
X139996129Y-127513975D01*
X139800000Y-127494659D01*
X139603870Y-127513975D01*
X139415266Y-127571188D01*
X139241467Y-127664086D01*
X139241460Y-127664090D01*
X139089116Y-127789116D01*
X138964090Y-127941460D01*
X138964086Y-127941467D01*
X138871188Y-128115266D01*
X138813975Y-128303870D01*
X138794659Y-128500000D01*
X103168256Y-128500000D01*
X103159493Y-128470156D01*
X103133686Y-128430000D01*
X104030636Y-128430000D01*
X104030635Y-128429999D01*
X103973432Y-128216513D01*
X103973429Y-128216507D01*
X103873600Y-128002422D01*
X103873599Y-128002420D01*
X103738113Y-127808926D01*
X103738108Y-127808920D01*
X103571078Y-127641890D01*
X103385405Y-127511879D01*
X103341780Y-127457302D01*
X103334588Y-127387804D01*
X103366110Y-127325449D01*
X103385406Y-127308730D01*
X103385842Y-127308425D01*
X103571401Y-127178495D01*
X103738495Y-127011401D01*
X103874035Y-126817830D01*
X103882349Y-126800000D01*
X126394540Y-126800000D01*
X126414326Y-126988256D01*
X126414327Y-126988259D01*
X126472818Y-127168277D01*
X126472821Y-127168284D01*
X126567467Y-127332216D01*
X126658038Y-127432805D01*
X126694129Y-127472888D01*
X126847265Y-127584148D01*
X126847270Y-127584151D01*
X127020192Y-127661142D01*
X127020197Y-127661144D01*
X127205354Y-127700500D01*
X127205355Y-127700500D01*
X127394644Y-127700500D01*
X127394646Y-127700500D01*
X127579803Y-127661144D01*
X127752730Y-127584151D01*
X127905871Y-127472888D01*
X128032533Y-127332216D01*
X128127179Y-127168284D01*
X128185674Y-126988256D01*
X128205460Y-126800000D01*
X143194540Y-126800000D01*
X143214326Y-126988256D01*
X143214327Y-126988259D01*
X143272818Y-127168277D01*
X143272821Y-127168284D01*
X143367467Y-127332216D01*
X143458038Y-127432805D01*
X143494129Y-127472888D01*
X143647265Y-127584148D01*
X143647270Y-127584151D01*
X143820192Y-127661142D01*
X143820197Y-127661144D01*
X144005354Y-127700500D01*
X144005355Y-127700500D01*
X144194644Y-127700500D01*
X144194646Y-127700500D01*
X144379803Y-127661144D01*
X144552730Y-127584151D01*
X144705871Y-127472888D01*
X144832533Y-127332216D01*
X144927179Y-127168284D01*
X144985674Y-126988256D01*
X145005460Y-126800000D01*
X144985674Y-126611744D01*
X144927179Y-126431716D01*
X144832533Y-126267784D01*
X144705871Y-126127112D01*
X144705870Y-126127111D01*
X144552734Y-126015851D01*
X144552729Y-126015848D01*
X144379807Y-125938857D01*
X144379802Y-125938855D01*
X144218574Y-125904586D01*
X144194646Y-125899500D01*
X144005354Y-125899500D01*
X143981426Y-125904586D01*
X143820197Y-125938855D01*
X143820192Y-125938857D01*
X143647270Y-126015848D01*
X143647265Y-126015851D01*
X143494129Y-126127111D01*
X143367466Y-126267785D01*
X143272821Y-126431715D01*
X143272818Y-126431722D01*
X143216951Y-126603664D01*
X143214326Y-126611744D01*
X143194540Y-126800000D01*
X128205460Y-126800000D01*
X128185674Y-126611744D01*
X128127179Y-126431716D01*
X128032533Y-126267784D01*
X127905871Y-126127112D01*
X127905870Y-126127111D01*
X127752734Y-126015851D01*
X127752729Y-126015848D01*
X127579807Y-125938857D01*
X127579802Y-125938855D01*
X127418574Y-125904586D01*
X127394646Y-125899500D01*
X127205354Y-125899500D01*
X127181426Y-125904586D01*
X127020197Y-125938855D01*
X127020192Y-125938857D01*
X126847270Y-126015848D01*
X126847265Y-126015851D01*
X126694129Y-126127111D01*
X126567466Y-126267785D01*
X126472821Y-126431715D01*
X126472818Y-126431722D01*
X126416951Y-126603664D01*
X126414326Y-126611744D01*
X126394540Y-126800000D01*
X103882349Y-126800000D01*
X103973903Y-126603663D01*
X104035063Y-126375408D01*
X104055659Y-126140000D01*
X104035063Y-125904592D01*
X103973903Y-125676337D01*
X103962205Y-125651250D01*
X115143409Y-125651250D01*
X115162725Y-125847379D01*
X115162726Y-125847382D01*
X115190474Y-125938856D01*
X115219938Y-126035983D01*
X115312836Y-126209782D01*
X115312840Y-126209789D01*
X115437866Y-126362133D01*
X115590210Y-126487159D01*
X115590217Y-126487163D01*
X115764016Y-126580061D01*
X115764019Y-126580061D01*
X115764023Y-126580064D01*
X115952618Y-126637274D01*
X116148750Y-126656591D01*
X116344882Y-126637274D01*
X116533477Y-126580064D01*
X116707288Y-126487160D01*
X116859633Y-126362133D01*
X116984660Y-126209788D01*
X117077564Y-126035977D01*
X117134774Y-125847382D01*
X117154091Y-125651250D01*
X117134774Y-125455118D01*
X117077564Y-125266523D01*
X117077561Y-125266519D01*
X117077561Y-125266516D01*
X116984663Y-125092717D01*
X116984659Y-125092710D01*
X116859633Y-124940366D01*
X116707289Y-124815340D01*
X116707282Y-124815336D01*
X116533483Y-124722438D01*
X116533477Y-124722436D01*
X116344882Y-124665226D01*
X116344879Y-124665225D01*
X116148750Y-124645909D01*
X115952620Y-124665225D01*
X115764016Y-124722438D01*
X115590217Y-124815336D01*
X115590210Y-124815340D01*
X115437866Y-124940366D01*
X115312840Y-125092710D01*
X115312836Y-125092717D01*
X115219938Y-125266516D01*
X115162725Y-125455120D01*
X115143409Y-125651250D01*
X103962205Y-125651250D01*
X103874035Y-125462171D01*
X103869096Y-125455118D01*
X103738496Y-125268600D01*
X103736412Y-125266516D01*
X103616567Y-125146671D01*
X103583084Y-125085351D01*
X103588068Y-125015659D01*
X103629939Y-124959725D01*
X103660915Y-124942810D01*
X103792331Y-124893796D01*
X103907546Y-124807546D01*
X103993796Y-124692331D01*
X104044091Y-124557483D01*
X104050500Y-124497873D01*
X104050499Y-123550000D01*
X151044540Y-123550000D01*
X151064326Y-123738256D01*
X151064327Y-123738259D01*
X151122818Y-123918277D01*
X151122821Y-123918284D01*
X151217467Y-124082216D01*
X151344129Y-124222888D01*
X151497265Y-124334148D01*
X151497270Y-124334151D01*
X151670192Y-124411142D01*
X151670197Y-124411144D01*
X151855354Y-124450500D01*
X151855355Y-124450500D01*
X152044644Y-124450500D01*
X152044646Y-124450500D01*
X152229803Y-124411144D01*
X152402730Y-124334151D01*
X152555871Y-124222888D01*
X152682533Y-124082216D01*
X152777179Y-123918284D01*
X152835674Y-123738256D01*
X152855460Y-123550000D01*
X152835674Y-123361744D01*
X152777179Y-123181716D01*
X152682533Y-123017784D01*
X152555871Y-122877112D01*
X152555870Y-122877111D01*
X152402734Y-122765851D01*
X152402729Y-122765848D01*
X152229807Y-122688857D01*
X152229802Y-122688855D01*
X152084001Y-122657865D01*
X152044646Y-122649500D01*
X151855354Y-122649500D01*
X151822897Y-122656398D01*
X151670197Y-122688855D01*
X151670192Y-122688857D01*
X151497270Y-122765848D01*
X151497265Y-122765851D01*
X151344129Y-122877111D01*
X151217466Y-123017785D01*
X151122821Y-123181715D01*
X151122818Y-123181722D01*
X151068142Y-123350000D01*
X151064326Y-123361744D01*
X151044540Y-123550000D01*
X104050499Y-123550000D01*
X104050499Y-122702128D01*
X104044091Y-122642517D01*
X103993884Y-122507906D01*
X103993797Y-122507671D01*
X103993793Y-122507664D01*
X103907547Y-122392455D01*
X103907544Y-122392452D01*
X103792335Y-122306206D01*
X103792328Y-122306202D01*
X103657482Y-122255908D01*
X103657483Y-122255908D01*
X103597883Y-122249501D01*
X103597881Y-122249500D01*
X103597873Y-122249500D01*
X103597864Y-122249500D01*
X101802129Y-122249500D01*
X101802123Y-122249501D01*
X101742516Y-122255908D01*
X101607671Y-122306202D01*
X101607664Y-122306206D01*
X101492455Y-122392452D01*
X101492452Y-122392455D01*
X101406206Y-122507664D01*
X101406202Y-122507671D01*
X101355908Y-122642517D01*
X101349501Y-122702116D01*
X101349501Y-122702123D01*
X101349500Y-122702135D01*
X101349500Y-124497870D01*
X101349501Y-124497876D01*
X101355908Y-124557483D01*
X101406202Y-124692328D01*
X101406206Y-124692335D01*
X101492452Y-124807544D01*
X101492455Y-124807547D01*
X101607664Y-124893793D01*
X101607671Y-124893797D01*
X101739081Y-124942810D01*
X101795015Y-124984681D01*
X101819432Y-125050145D01*
X101804580Y-125118418D01*
X101783430Y-125146673D01*
X101661503Y-125268600D01*
X101525965Y-125462169D01*
X101525964Y-125462171D01*
X101426098Y-125676335D01*
X101426094Y-125676344D01*
X101364938Y-125904586D01*
X101364936Y-125904596D01*
X101344341Y-126139999D01*
X101344341Y-126140000D01*
X101364936Y-126375403D01*
X101364938Y-126375413D01*
X101426094Y-126603655D01*
X101426096Y-126603659D01*
X101426097Y-126603663D01*
X101450778Y-126656591D01*
X101525965Y-126817830D01*
X101525967Y-126817834D01*
X101661501Y-127011395D01*
X101661506Y-127011402D01*
X101828597Y-127178493D01*
X101828603Y-127178498D01*
X102014594Y-127308730D01*
X102058219Y-127363307D01*
X102065413Y-127432805D01*
X102033890Y-127495160D01*
X102014595Y-127511880D01*
X101828922Y-127641890D01*
X101828920Y-127641891D01*
X101661891Y-127808920D01*
X101661886Y-127808926D01*
X101526400Y-128002420D01*
X101526399Y-128002422D01*
X101426570Y-128216507D01*
X101426567Y-128216513D01*
X101369364Y-128429999D01*
X101369364Y-128430000D01*
X102266314Y-128430000D01*
X102240507Y-128470156D01*
X102200000Y-128608111D01*
X102200000Y-128751889D01*
X102240507Y-128889844D01*
X102266314Y-128930000D01*
X101369364Y-128930000D01*
X101426567Y-129143486D01*
X101426570Y-129143492D01*
X101526399Y-129357578D01*
X101661894Y-129551082D01*
X101828917Y-129718105D01*
X102014595Y-129848119D01*
X102058219Y-129902696D01*
X102065412Y-129972195D01*
X102033890Y-130034549D01*
X102014595Y-130051269D01*
X101828594Y-130181508D01*
X101661505Y-130348597D01*
X101525965Y-130542169D01*
X101525964Y-130542171D01*
X101426098Y-130756335D01*
X101426094Y-130756344D01*
X101364938Y-130984586D01*
X101364936Y-130984596D01*
X101344341Y-131219999D01*
X101344341Y-131220000D01*
X101364936Y-131455403D01*
X101364938Y-131455413D01*
X101426094Y-131683655D01*
X101426096Y-131683659D01*
X101426097Y-131683663D01*
X101525965Y-131897830D01*
X101525967Y-131897834D01*
X101634281Y-132052521D01*
X101652371Y-132078357D01*
X101661501Y-132091395D01*
X101661506Y-132091402D01*
X101828597Y-132258493D01*
X101828603Y-132258498D01*
X102014158Y-132388425D01*
X102057783Y-132443002D01*
X102064977Y-132512500D01*
X102033454Y-132574855D01*
X102014158Y-132591575D01*
X101828597Y-132721505D01*
X101661505Y-132888597D01*
X101525965Y-133082169D01*
X101525964Y-133082171D01*
X101426098Y-133296335D01*
X101426094Y-133296344D01*
X101364938Y-133524586D01*
X101364936Y-133524596D01*
X101344341Y-133759999D01*
X101344341Y-133760000D01*
X101364936Y-133995403D01*
X101364938Y-133995413D01*
X101426094Y-134223655D01*
X101426096Y-134223659D01*
X101426097Y-134223663D01*
X101474150Y-134326713D01*
X101525965Y-134437830D01*
X101525967Y-134437834D01*
X101661501Y-134631395D01*
X101661506Y-134631402D01*
X101828597Y-134798493D01*
X101828603Y-134798498D01*
X102014158Y-134928425D01*
X102057783Y-134983002D01*
X102064977Y-135052500D01*
X102033454Y-135114855D01*
X102014158Y-135131575D01*
X101828597Y-135261505D01*
X101661505Y-135428597D01*
X101525965Y-135622169D01*
X101525964Y-135622171D01*
X101426098Y-135836335D01*
X101426094Y-135836344D01*
X101364938Y-136064586D01*
X101364936Y-136064596D01*
X101344341Y-136299999D01*
X101344341Y-136300000D01*
X101364936Y-136535403D01*
X101364938Y-136535413D01*
X101426094Y-136763655D01*
X101426096Y-136763659D01*
X101426097Y-136763663D01*
X101525965Y-136977830D01*
X101525967Y-136977834D01*
X101661501Y-137171395D01*
X101661506Y-137171402D01*
X101828597Y-137338493D01*
X101828603Y-137338498D01*
X102014158Y-137468425D01*
X102057783Y-137523002D01*
X102064977Y-137592500D01*
X102033454Y-137654855D01*
X102014158Y-137671575D01*
X101828597Y-137801505D01*
X101661505Y-137968597D01*
X101525965Y-138162169D01*
X101525964Y-138162171D01*
X101426098Y-138376335D01*
X101426094Y-138376344D01*
X101364938Y-138604586D01*
X101364936Y-138604596D01*
X101344341Y-138839999D01*
X101344341Y-138840000D01*
X101364936Y-139075403D01*
X101364938Y-139075413D01*
X101426094Y-139303655D01*
X101426096Y-139303659D01*
X101426097Y-139303663D01*
X101515846Y-139496129D01*
X101525965Y-139517830D01*
X101525967Y-139517834D01*
X101661501Y-139711395D01*
X101661506Y-139711402D01*
X101828597Y-139878493D01*
X101828603Y-139878498D01*
X102014158Y-140008425D01*
X102057783Y-140063002D01*
X102064977Y-140132500D01*
X102033454Y-140194855D01*
X102014158Y-140211575D01*
X101828597Y-140341505D01*
X101661505Y-140508597D01*
X101525965Y-140702169D01*
X101525964Y-140702171D01*
X101426098Y-140916335D01*
X101426094Y-140916344D01*
X101364938Y-141144586D01*
X101364936Y-141144596D01*
X101344341Y-141379999D01*
X101344341Y-141380000D01*
X100000500Y-141380000D01*
X100000500Y-121637500D01*
X145932040Y-121637500D01*
X145951826Y-121825756D01*
X145951827Y-121825759D01*
X146010318Y-122005777D01*
X146010321Y-122005784D01*
X146104967Y-122169716D01*
X146228259Y-122306645D01*
X146231629Y-122310388D01*
X146384765Y-122421648D01*
X146384770Y-122421651D01*
X146557692Y-122498642D01*
X146557697Y-122498644D01*
X146742854Y-122538000D01*
X146742855Y-122538000D01*
X146932144Y-122538000D01*
X146932146Y-122538000D01*
X147117303Y-122498644D01*
X147290230Y-122421651D01*
X147443371Y-122310388D01*
X147570033Y-122169716D01*
X147664679Y-122005784D01*
X147723174Y-121825756D01*
X147742960Y-121637500D01*
X147723174Y-121449244D01*
X147664679Y-121269216D01*
X147570033Y-121105284D01*
X147443371Y-120964612D01*
X147443370Y-120964611D01*
X147290234Y-120853351D01*
X147290229Y-120853348D01*
X147117307Y-120776357D01*
X147117302Y-120776355D01*
X146971501Y-120745365D01*
X146932146Y-120737000D01*
X146742854Y-120737000D01*
X146710397Y-120743898D01*
X146557697Y-120776355D01*
X146557692Y-120776357D01*
X146384770Y-120853348D01*
X146384765Y-120853351D01*
X146231629Y-120964611D01*
X146104966Y-121105285D01*
X146010321Y-121269215D01*
X146010318Y-121269222D01*
X145951827Y-121449240D01*
X145951826Y-121449244D01*
X145932040Y-121637500D01*
X100000500Y-121637500D01*
X100000500Y-118000000D01*
X139244341Y-118000000D01*
X139264936Y-118235403D01*
X139264938Y-118235413D01*
X139326094Y-118463655D01*
X139326096Y-118463659D01*
X139326097Y-118463663D01*
X139374650Y-118567784D01*
X139425965Y-118677830D01*
X139425967Y-118677834D01*
X139534281Y-118832521D01*
X139561505Y-118871401D01*
X139728599Y-119038495D01*
X139816437Y-119100000D01*
X139922165Y-119174032D01*
X139922167Y-119174033D01*
X139922170Y-119174035D01*
X140136337Y-119273903D01*
X140364592Y-119335063D01*
X140552918Y-119351539D01*
X140599999Y-119355659D01*
X140600000Y-119355659D01*
X140600001Y-119355659D01*
X140639234Y-119352226D01*
X140835408Y-119335063D01*
X141063663Y-119273903D01*
X141277830Y-119174035D01*
X141383563Y-119100000D01*
X146594540Y-119100000D01*
X146614326Y-119288256D01*
X146614327Y-119288259D01*
X146672818Y-119468277D01*
X146672821Y-119468284D01*
X146767467Y-119632216D01*
X146821595Y-119692331D01*
X146894129Y-119772888D01*
X147047265Y-119884148D01*
X147047270Y-119884151D01*
X147220192Y-119961142D01*
X147220197Y-119961144D01*
X147405354Y-120000500D01*
X147405355Y-120000500D01*
X147594644Y-120000500D01*
X147594646Y-120000500D01*
X147779803Y-119961144D01*
X147952730Y-119884151D01*
X148105871Y-119772888D01*
X148232533Y-119632216D01*
X148327179Y-119468284D01*
X148385674Y-119288256D01*
X148405460Y-119100000D01*
X148385674Y-118911744D01*
X148327179Y-118731716D01*
X148232533Y-118567784D01*
X148105871Y-118427112D01*
X148105870Y-118427111D01*
X147952734Y-118315851D01*
X147952729Y-118315848D01*
X147779807Y-118238857D01*
X147779802Y-118238855D01*
X147634001Y-118207865D01*
X147594646Y-118199500D01*
X147405354Y-118199500D01*
X147372897Y-118206398D01*
X147220197Y-118238855D01*
X147220192Y-118238857D01*
X147047270Y-118315848D01*
X147047265Y-118315851D01*
X146894129Y-118427111D01*
X146767466Y-118567785D01*
X146672821Y-118731715D01*
X146672818Y-118731722D01*
X146627436Y-118871395D01*
X146614326Y-118911744D01*
X146594540Y-119100000D01*
X141383563Y-119100000D01*
X141471401Y-119038495D01*
X141638495Y-118871401D01*
X141774035Y-118677830D01*
X141873903Y-118463663D01*
X141935063Y-118235408D01*
X141955659Y-118000000D01*
X141935063Y-117764592D01*
X141873903Y-117536337D01*
X141774035Y-117322171D01*
X141762857Y-117306206D01*
X141638494Y-117128597D01*
X141471402Y-116961506D01*
X141471395Y-116961501D01*
X141277834Y-116825967D01*
X141277830Y-116825965D01*
X141277828Y-116825964D01*
X141063663Y-116726097D01*
X141063659Y-116726096D01*
X141063655Y-116726094D01*
X140835413Y-116664938D01*
X140835403Y-116664936D01*
X140600001Y-116644341D01*
X140599999Y-116644341D01*
X140364596Y-116664936D01*
X140364586Y-116664938D01*
X140136344Y-116726094D01*
X140136335Y-116726098D01*
X139922171Y-116825964D01*
X139922169Y-116825965D01*
X139728597Y-116961505D01*
X139561505Y-117128597D01*
X139425965Y-117322169D01*
X139425964Y-117322171D01*
X139326098Y-117536335D01*
X139326094Y-117536344D01*
X139264938Y-117764586D01*
X139264936Y-117764596D01*
X139244341Y-117999999D01*
X139244341Y-118000000D01*
X100000500Y-118000000D01*
X100000500Y-116060000D01*
X166544341Y-116060000D01*
X166564936Y-116295403D01*
X166564938Y-116295413D01*
X166626094Y-116523655D01*
X166626096Y-116523659D01*
X166626097Y-116523663D01*
X166691975Y-116664938D01*
X166725965Y-116737830D01*
X166725967Y-116737834D01*
X166787677Y-116825964D01*
X166861501Y-116931396D01*
X166861506Y-116931402D01*
X166983430Y-117053326D01*
X167016915Y-117114649D01*
X167011931Y-117184341D01*
X166970059Y-117240274D01*
X166939083Y-117257189D01*
X166807669Y-117306203D01*
X166807664Y-117306206D01*
X166692455Y-117392452D01*
X166692452Y-117392455D01*
X166606206Y-117507664D01*
X166606202Y-117507671D01*
X166555908Y-117642517D01*
X166549501Y-117702116D01*
X166549501Y-117702123D01*
X166549500Y-117702135D01*
X166549500Y-119497870D01*
X166549501Y-119497876D01*
X166555908Y-119557483D01*
X166606202Y-119692328D01*
X166606206Y-119692335D01*
X166692452Y-119807544D01*
X166692455Y-119807547D01*
X166807664Y-119893793D01*
X166807671Y-119893797D01*
X166942517Y-119944091D01*
X166942516Y-119944091D01*
X166949444Y-119944835D01*
X167002127Y-119950500D01*
X168797872Y-119950499D01*
X168857483Y-119944091D01*
X168992331Y-119893796D01*
X169107546Y-119807546D01*
X169193796Y-119692331D01*
X169244091Y-119557483D01*
X169250500Y-119497873D01*
X169250499Y-117702128D01*
X169244091Y-117642517D01*
X169204488Y-117536337D01*
X169193797Y-117507671D01*
X169193793Y-117507664D01*
X169107547Y-117392455D01*
X169107544Y-117392452D01*
X168992335Y-117306206D01*
X168992328Y-117306202D01*
X168860917Y-117257189D01*
X168804983Y-117215318D01*
X168780566Y-117149853D01*
X168795418Y-117081580D01*
X168816563Y-117053332D01*
X168938495Y-116931401D01*
X169074035Y-116737830D01*
X169173903Y-116523663D01*
X169235063Y-116295408D01*
X169255659Y-116060000D01*
X169235063Y-115824592D01*
X169173903Y-115596337D01*
X169074035Y-115382171D01*
X168938495Y-115188599D01*
X168938494Y-115188597D01*
X168771402Y-115021506D01*
X168771395Y-115021501D01*
X168577834Y-114885967D01*
X168577830Y-114885965D01*
X168577828Y-114885964D01*
X168363663Y-114786097D01*
X168363659Y-114786096D01*
X168363655Y-114786094D01*
X168135413Y-114724938D01*
X168135403Y-114724936D01*
X167900001Y-114704341D01*
X167899999Y-114704341D01*
X167664596Y-114724936D01*
X167664586Y-114724938D01*
X167436344Y-114786094D01*
X167436335Y-114786098D01*
X167222171Y-114885964D01*
X167222169Y-114885965D01*
X167028597Y-115021505D01*
X166861505Y-115188597D01*
X166725965Y-115382169D01*
X166725964Y-115382171D01*
X166626098Y-115596335D01*
X166626094Y-115596344D01*
X166564938Y-115824586D01*
X166564936Y-115824596D01*
X166544341Y-116059999D01*
X166544341Y-116060000D01*
X100000500Y-116060000D01*
X100000500Y-112950936D01*
X101605631Y-112950936D01*
X101636442Y-113152063D01*
X101636445Y-113152075D01*
X101707111Y-113342881D01*
X101707115Y-113342888D01*
X101814745Y-113515567D01*
X101814747Y-113515569D01*
X101814748Y-113515571D01*
X101954941Y-113663053D01*
X102083344Y-113752424D01*
X102121949Y-113779294D01*
X102121950Y-113779294D01*
X102121951Y-113779295D01*
X102308942Y-113859540D01*
X102508259Y-113900500D01*
X103210743Y-113900500D01*
X103362439Y-113885074D01*
X103556579Y-113824162D01*
X103556580Y-113824161D01*
X103556588Y-113824159D01*
X103734502Y-113725409D01*
X103888895Y-113592866D01*
X104013448Y-113431958D01*
X104103060Y-113249271D01*
X104154063Y-113052285D01*
X104164369Y-112849064D01*
X104133556Y-112647929D01*
X104062886Y-112457113D01*
X103955252Y-112284429D01*
X103880072Y-112205340D01*
X103815061Y-112136949D01*
X103815060Y-112136948D01*
X103815059Y-112136947D01*
X103761220Y-112099474D01*
X104609500Y-112099474D01*
X104624540Y-112247380D01*
X104683930Y-112436670D01*
X104683933Y-112436678D01*
X104747237Y-112550728D01*
X104780217Y-112610147D01*
X104780217Y-112610148D01*
X104909445Y-112760680D01*
X104909446Y-112760682D01*
X105066331Y-112882120D01*
X105066334Y-112882122D01*
X105244456Y-112969495D01*
X105244460Y-112969496D01*
X105244458Y-112969496D01*
X105436511Y-113019222D01*
X105436514Y-113019222D01*
X105436520Y-113019224D01*
X105634663Y-113029272D01*
X105830773Y-112999230D01*
X106016820Y-112930325D01*
X106185189Y-112825380D01*
X106328986Y-112688691D01*
X106442324Y-112525854D01*
X106520563Y-112343535D01*
X106560500Y-112149199D01*
X106560500Y-111700527D01*
X106545459Y-111552621D01*
X106545459Y-111552619D01*
X106486069Y-111363329D01*
X106486067Y-111363322D01*
X106389784Y-111189854D01*
X106389782Y-111189851D01*
X106312647Y-111100000D01*
X128894540Y-111100000D01*
X128914326Y-111288256D01*
X128914327Y-111288259D01*
X128972818Y-111468277D01*
X128972821Y-111468284D01*
X129067467Y-111632216D01*
X129128973Y-111700525D01*
X129194129Y-111772888D01*
X129347265Y-111884148D01*
X129347270Y-111884151D01*
X129520192Y-111961142D01*
X129520197Y-111961144D01*
X129705354Y-112000500D01*
X129705355Y-112000500D01*
X129894644Y-112000500D01*
X129894646Y-112000500D01*
X130079803Y-111961144D01*
X130252730Y-111884151D01*
X130405871Y-111772888D01*
X130532533Y-111632216D01*
X130627179Y-111468284D01*
X130685674Y-111288256D01*
X130694950Y-111200000D01*
X131594659Y-111200000D01*
X131613975Y-111396129D01*
X131671188Y-111584733D01*
X131764086Y-111758532D01*
X131764090Y-111758539D01*
X131889116Y-111910883D01*
X132041460Y-112035909D01*
X132041467Y-112035913D01*
X132215266Y-112128811D01*
X132215269Y-112128811D01*
X132215273Y-112128814D01*
X132403868Y-112186024D01*
X132600000Y-112205341D01*
X132796132Y-112186024D01*
X132984727Y-112128814D01*
X133158538Y-112035910D01*
X133310883Y-111910883D01*
X133435910Y-111758538D01*
X133528814Y-111584727D01*
X133586024Y-111396132D01*
X133605341Y-111200000D01*
X133586024Y-111003868D01*
X133528814Y-110815273D01*
X133528811Y-110815269D01*
X133528811Y-110815266D01*
X133435913Y-110641467D01*
X133435909Y-110641460D01*
X133310883Y-110489116D01*
X133158539Y-110364090D01*
X133158532Y-110364086D01*
X132984733Y-110271188D01*
X132984727Y-110271186D01*
X132796132Y-110213976D01*
X132796129Y-110213975D01*
X132600000Y-110194659D01*
X132403870Y-110213975D01*
X132215266Y-110271188D01*
X132041467Y-110364086D01*
X132041460Y-110364090D01*
X131889116Y-110489116D01*
X131764090Y-110641460D01*
X131764086Y-110641467D01*
X131671188Y-110815266D01*
X131613975Y-111003870D01*
X131594659Y-111200000D01*
X130694950Y-111200000D01*
X130705460Y-111100000D01*
X130685674Y-110911744D01*
X130627179Y-110731716D01*
X130532533Y-110567784D01*
X130405871Y-110427112D01*
X130375906Y-110405341D01*
X130252734Y-110315851D01*
X130252729Y-110315848D01*
X130079807Y-110238857D01*
X130079802Y-110238855D01*
X129934001Y-110207865D01*
X129894646Y-110199500D01*
X129705354Y-110199500D01*
X129672897Y-110206398D01*
X129520197Y-110238855D01*
X129520192Y-110238857D01*
X129347270Y-110315848D01*
X129347265Y-110315851D01*
X129194129Y-110427111D01*
X129067466Y-110567785D01*
X128972821Y-110731715D01*
X128972818Y-110731722D01*
X128927995Y-110869675D01*
X128914326Y-110911744D01*
X128894540Y-111100000D01*
X106312647Y-111100000D01*
X106260554Y-111039319D01*
X106260553Y-111039317D01*
X106103668Y-110917879D01*
X106103664Y-110917877D01*
X106091153Y-110911740D01*
X105925544Y-110830505D01*
X105925542Y-110830504D01*
X105925539Y-110830503D01*
X105925541Y-110830503D01*
X105733488Y-110780777D01*
X105733482Y-110780776D01*
X105535337Y-110770728D01*
X105535332Y-110770728D01*
X105339235Y-110800768D01*
X105339222Y-110800771D01*
X105153184Y-110869673D01*
X105153175Y-110869677D01*
X104984815Y-110974616D01*
X104984808Y-110974621D01*
X104841016Y-111111306D01*
X104841015Y-111111307D01*
X104727675Y-111274146D01*
X104649437Y-111456464D01*
X104609500Y-111650800D01*
X104609500Y-112099474D01*
X103761220Y-112099474D01*
X103716587Y-112068409D01*
X103648050Y-112020705D01*
X103461056Y-111940459D01*
X103261741Y-111899500D01*
X102559258Y-111899500D01*
X102559257Y-111899500D01*
X102407560Y-111914925D01*
X102213420Y-111975837D01*
X102213405Y-111975844D01*
X102035500Y-112074589D01*
X102035495Y-112074592D01*
X101881106Y-112207132D01*
X101881104Y-112207134D01*
X101756554Y-112368037D01*
X101756553Y-112368040D01*
X101666940Y-112550728D01*
X101615937Y-112747714D01*
X101605631Y-112950936D01*
X100000500Y-112950936D01*
X100000500Y-109000000D01*
X122594659Y-109000000D01*
X122613975Y-109196129D01*
X122671188Y-109384733D01*
X122764086Y-109558532D01*
X122764090Y-109558539D01*
X122889116Y-109710883D01*
X123041460Y-109835909D01*
X123041467Y-109835913D01*
X123215266Y-109928811D01*
X123215269Y-109928811D01*
X123215273Y-109928814D01*
X123403868Y-109986024D01*
X123600000Y-110005341D01*
X123796132Y-109986024D01*
X123984727Y-109928814D01*
X124158538Y-109835910D01*
X124310883Y-109710883D01*
X124435910Y-109558538D01*
X124482362Y-109471632D01*
X124520651Y-109400000D01*
X137494659Y-109400000D01*
X137513975Y-109596129D01*
X137571188Y-109784733D01*
X137664086Y-109958532D01*
X137664090Y-109958539D01*
X137789116Y-110110883D01*
X137941460Y-110235909D01*
X137941467Y-110235913D01*
X138115266Y-110328811D01*
X138115269Y-110328811D01*
X138115273Y-110328814D01*
X138303868Y-110386024D01*
X138500000Y-110405341D01*
X138696132Y-110386024D01*
X138884727Y-110328814D01*
X139058538Y-110235910D01*
X139210883Y-110110883D01*
X139335910Y-109958538D01*
X139382362Y-109871632D01*
X139428811Y-109784733D01*
X139428811Y-109784732D01*
X139428814Y-109784727D01*
X139486024Y-109596132D01*
X139505341Y-109400000D01*
X139486024Y-109203868D01*
X139428814Y-109015273D01*
X139428811Y-109015269D01*
X139428811Y-109015266D01*
X139335913Y-108841467D01*
X139335909Y-108841460D01*
X139210883Y-108689116D01*
X139058539Y-108564090D01*
X139058532Y-108564086D01*
X138884733Y-108471188D01*
X138884727Y-108471186D01*
X138696132Y-108413976D01*
X138696129Y-108413975D01*
X138500000Y-108394659D01*
X138303870Y-108413975D01*
X138115266Y-108471188D01*
X137941467Y-108564086D01*
X137941460Y-108564090D01*
X137789116Y-108689116D01*
X137664090Y-108841460D01*
X137664086Y-108841467D01*
X137571188Y-109015266D01*
X137513975Y-109203870D01*
X137494659Y-109400000D01*
X124520651Y-109400000D01*
X124528811Y-109384733D01*
X124528811Y-109384732D01*
X124528814Y-109384727D01*
X124586024Y-109196132D01*
X124605341Y-109000000D01*
X124586024Y-108803868D01*
X124528814Y-108615273D01*
X124528811Y-108615269D01*
X124528811Y-108615266D01*
X124435913Y-108441467D01*
X124435909Y-108441460D01*
X124310883Y-108289116D01*
X124158539Y-108164090D01*
X124158532Y-108164086D01*
X123984733Y-108071188D01*
X123984727Y-108071186D01*
X123796132Y-108013976D01*
X123796129Y-108013975D01*
X123600000Y-107994659D01*
X123403870Y-108013975D01*
X123215266Y-108071188D01*
X123041467Y-108164086D01*
X123041460Y-108164090D01*
X122889116Y-108289116D01*
X122764090Y-108441460D01*
X122764086Y-108441467D01*
X122671188Y-108615266D01*
X122613975Y-108803870D01*
X122594659Y-109000000D01*
X100000500Y-109000000D01*
X100000500Y-107099474D01*
X104609500Y-107099474D01*
X104624540Y-107247380D01*
X104682376Y-107431716D01*
X104683933Y-107436678D01*
X104733430Y-107525853D01*
X104780217Y-107610147D01*
X104780217Y-107610148D01*
X104909445Y-107760680D01*
X104909446Y-107760682D01*
X105066331Y-107882120D01*
X105066334Y-107882122D01*
X105244456Y-107969495D01*
X105244460Y-107969496D01*
X105244458Y-107969496D01*
X105436511Y-108019222D01*
X105436514Y-108019222D01*
X105436520Y-108019224D01*
X105634663Y-108029272D01*
X105830773Y-107999230D01*
X106016820Y-107930325D01*
X106185189Y-107825380D01*
X106211889Y-107800000D01*
X125494540Y-107800000D01*
X125514326Y-107988256D01*
X125514327Y-107988259D01*
X125572818Y-108168277D01*
X125572821Y-108168284D01*
X125667467Y-108332216D01*
X125792597Y-108471186D01*
X125794129Y-108472888D01*
X125947265Y-108584148D01*
X125947270Y-108584151D01*
X126120192Y-108661142D01*
X126120197Y-108661144D01*
X126305354Y-108700500D01*
X126305355Y-108700500D01*
X126494644Y-108700500D01*
X126494646Y-108700500D01*
X126679803Y-108661144D01*
X126852730Y-108584151D01*
X127005871Y-108472888D01*
X127132533Y-108332216D01*
X127227179Y-108168284D01*
X127285674Y-107988256D01*
X127305460Y-107800000D01*
X127285674Y-107611744D01*
X127227179Y-107431716D01*
X127132533Y-107267784D01*
X127005871Y-107127112D01*
X127005870Y-107127111D01*
X126968554Y-107099999D01*
X143094541Y-107099999D01*
X143114327Y-107288255D01*
X143114328Y-107288258D01*
X143172819Y-107468276D01*
X143172822Y-107468283D01*
X143267468Y-107632215D01*
X143383139Y-107760680D01*
X143394130Y-107772887D01*
X143547266Y-107884147D01*
X143547271Y-107884150D01*
X143720193Y-107961141D01*
X143720198Y-107961143D01*
X143905355Y-108000499D01*
X143905356Y-108000499D01*
X144094645Y-108000499D01*
X144094647Y-108000499D01*
X144279804Y-107961143D01*
X144452731Y-107884150D01*
X144605872Y-107772887D01*
X144732534Y-107632215D01*
X144827180Y-107468283D01*
X144885675Y-107288255D01*
X144905461Y-107099999D01*
X144885675Y-106911743D01*
X144827180Y-106731715D01*
X144732534Y-106567783D01*
X144671502Y-106500000D01*
X146094540Y-106500000D01*
X146114326Y-106688256D01*
X146114327Y-106688259D01*
X146172818Y-106868277D01*
X146172821Y-106868284D01*
X146267467Y-107032216D01*
X146352911Y-107127111D01*
X146394129Y-107172888D01*
X146547265Y-107284148D01*
X146547270Y-107284151D01*
X146720192Y-107361142D01*
X146720197Y-107361144D01*
X146905354Y-107400500D01*
X146905355Y-107400500D01*
X147094644Y-107400500D01*
X147094646Y-107400500D01*
X147279803Y-107361144D01*
X147452730Y-107284151D01*
X147605871Y-107172888D01*
X147732533Y-107032216D01*
X147827179Y-106868284D01*
X147885674Y-106688256D01*
X147905460Y-106500000D01*
X147885674Y-106311744D01*
X147827179Y-106131716D01*
X147732533Y-105967784D01*
X147605871Y-105827112D01*
X147584719Y-105811744D01*
X147452734Y-105715851D01*
X147452729Y-105715848D01*
X147279807Y-105638857D01*
X147279802Y-105638855D01*
X147134001Y-105607865D01*
X147094646Y-105599500D01*
X146905354Y-105599500D01*
X146872897Y-105606398D01*
X146720197Y-105638855D01*
X146720192Y-105638857D01*
X146547270Y-105715848D01*
X146547265Y-105715851D01*
X146394129Y-105827111D01*
X146267466Y-105967785D01*
X146172821Y-106131715D01*
X146172818Y-106131722D01*
X146126542Y-106274146D01*
X146114326Y-106311744D01*
X146094540Y-106500000D01*
X144671502Y-106500000D01*
X144605872Y-106427111D01*
X144605871Y-106427110D01*
X144452735Y-106315850D01*
X144452730Y-106315847D01*
X144279808Y-106238856D01*
X144279803Y-106238854D01*
X144134002Y-106207864D01*
X144094647Y-106199499D01*
X143905355Y-106199499D01*
X143872898Y-106206397D01*
X143720198Y-106238854D01*
X143720193Y-106238856D01*
X143547271Y-106315847D01*
X143547266Y-106315850D01*
X143394130Y-106427110D01*
X143267467Y-106567784D01*
X143172822Y-106731714D01*
X143172819Y-106731721D01*
X143122992Y-106885074D01*
X143114327Y-106911743D01*
X143094541Y-107099999D01*
X126968554Y-107099999D01*
X126852734Y-107015851D01*
X126852729Y-107015848D01*
X126679807Y-106938857D01*
X126679802Y-106938855D01*
X126534001Y-106907865D01*
X126494646Y-106899500D01*
X126305354Y-106899500D01*
X126272897Y-106906398D01*
X126120197Y-106938855D01*
X126120192Y-106938857D01*
X125947270Y-107015848D01*
X125947265Y-107015851D01*
X125794129Y-107127111D01*
X125667466Y-107267785D01*
X125572821Y-107431715D01*
X125572818Y-107431722D01*
X125514327Y-107611740D01*
X125514326Y-107611744D01*
X125494540Y-107800000D01*
X106211889Y-107800000D01*
X106328986Y-107688691D01*
X106442324Y-107525854D01*
X106520563Y-107343535D01*
X106560500Y-107149199D01*
X106560500Y-106700527D01*
X106559253Y-106688259D01*
X106545459Y-106552619D01*
X106487624Y-106368284D01*
X106486067Y-106363322D01*
X106389784Y-106189854D01*
X106389782Y-106189851D01*
X106260554Y-106039319D01*
X106260553Y-106039317D01*
X106209760Y-106000000D01*
X129694540Y-106000000D01*
X129714326Y-106188256D01*
X129714327Y-106188259D01*
X129772818Y-106368277D01*
X129772821Y-106368284D01*
X129867467Y-106532216D01*
X129885840Y-106552621D01*
X129994129Y-106672888D01*
X130147265Y-106784148D01*
X130147270Y-106784151D01*
X130320192Y-106861142D01*
X130320197Y-106861144D01*
X130505354Y-106900500D01*
X130505355Y-106900500D01*
X130694644Y-106900500D01*
X130694646Y-106900500D01*
X130879803Y-106861144D01*
X131052730Y-106784151D01*
X131205871Y-106672888D01*
X131332533Y-106532216D01*
X131427179Y-106368284D01*
X131485674Y-106188256D01*
X131505460Y-106000000D01*
X131485674Y-105811744D01*
X131481858Y-105800000D01*
X136494540Y-105800000D01*
X136514326Y-105988256D01*
X136514327Y-105988259D01*
X136572818Y-106168277D01*
X136572821Y-106168284D01*
X136667467Y-106332216D01*
X136757276Y-106431959D01*
X136794129Y-106472888D01*
X136947265Y-106584148D01*
X136947270Y-106584151D01*
X137120192Y-106661142D01*
X137120197Y-106661144D01*
X137305354Y-106700500D01*
X137305355Y-106700500D01*
X137494644Y-106700500D01*
X137494646Y-106700500D01*
X137679803Y-106661144D01*
X137852730Y-106584151D01*
X138005871Y-106472888D01*
X138132533Y-106332216D01*
X138227179Y-106168284D01*
X138285674Y-105988256D01*
X138305460Y-105800000D01*
X138285674Y-105611744D01*
X138227179Y-105431716D01*
X138132533Y-105267784D01*
X138005871Y-105127112D01*
X138005870Y-105127111D01*
X137852734Y-105015851D01*
X137852729Y-105015848D01*
X137679807Y-104938857D01*
X137679802Y-104938855D01*
X137534001Y-104907865D01*
X137494646Y-104899500D01*
X137305354Y-104899500D01*
X137272897Y-104906398D01*
X137120197Y-104938855D01*
X137120192Y-104938857D01*
X136947270Y-105015848D01*
X136947265Y-105015851D01*
X136794129Y-105127111D01*
X136667466Y-105267785D01*
X136572821Y-105431715D01*
X136572818Y-105431722D01*
X136518304Y-105599500D01*
X136514326Y-105611744D01*
X136494540Y-105800000D01*
X131481858Y-105800000D01*
X131427179Y-105631716D01*
X131332533Y-105467784D01*
X131205871Y-105327112D01*
X131147123Y-105284429D01*
X131052734Y-105215851D01*
X131052729Y-105215848D01*
X130879807Y-105138857D01*
X130879802Y-105138855D01*
X130734001Y-105107865D01*
X130694646Y-105099500D01*
X130505354Y-105099500D01*
X130472897Y-105106398D01*
X130320197Y-105138855D01*
X130320192Y-105138857D01*
X130147270Y-105215848D01*
X130147265Y-105215851D01*
X129994129Y-105327111D01*
X129867466Y-105467785D01*
X129772821Y-105631715D01*
X129772818Y-105631722D01*
X129717891Y-105800771D01*
X129714326Y-105811744D01*
X129694540Y-106000000D01*
X106209760Y-106000000D01*
X106103668Y-105917879D01*
X106103664Y-105917877D01*
X106096504Y-105914365D01*
X105925544Y-105830505D01*
X105925542Y-105830504D01*
X105925539Y-105830503D01*
X105925541Y-105830503D01*
X105733488Y-105780777D01*
X105733482Y-105780776D01*
X105535337Y-105770728D01*
X105535332Y-105770728D01*
X105339235Y-105800768D01*
X105339222Y-105800771D01*
X105153184Y-105869673D01*
X105153175Y-105869677D01*
X104984815Y-105974616D01*
X104984808Y-105974621D01*
X104841016Y-106111306D01*
X104841015Y-106111307D01*
X104727675Y-106274146D01*
X104649437Y-106456464D01*
X104609500Y-106650800D01*
X104609500Y-107099474D01*
X100000500Y-107099474D01*
X100000500Y-105950936D01*
X101605631Y-105950936D01*
X101636442Y-106152063D01*
X101636445Y-106152075D01*
X101707111Y-106342881D01*
X101707115Y-106342888D01*
X101814745Y-106515567D01*
X101814749Y-106515572D01*
X101943294Y-106650801D01*
X101954941Y-106663053D01*
X102083344Y-106752424D01*
X102121949Y-106779294D01*
X102121950Y-106779294D01*
X102121951Y-106779295D01*
X102308942Y-106859540D01*
X102508259Y-106900500D01*
X103210743Y-106900500D01*
X103362439Y-106885074D01*
X103556579Y-106824162D01*
X103556580Y-106824161D01*
X103556588Y-106824159D01*
X103734502Y-106725409D01*
X103888895Y-106592866D01*
X104013448Y-106431958D01*
X104103060Y-106249271D01*
X104154063Y-106052285D01*
X104164369Y-105849064D01*
X104133556Y-105647929D01*
X104097557Y-105550728D01*
X104062888Y-105457118D01*
X104062887Y-105457117D01*
X104062886Y-105457113D01*
X103955252Y-105284429D01*
X103815059Y-105136947D01*
X103716587Y-105068409D01*
X103648050Y-105020705D01*
X103461056Y-104940459D01*
X103261741Y-104899500D01*
X102559258Y-104899500D01*
X102559257Y-104899500D01*
X102407560Y-104914925D01*
X102213420Y-104975837D01*
X102213405Y-104975844D01*
X102035500Y-105074589D01*
X102035495Y-105074592D01*
X101881106Y-105207132D01*
X101881104Y-105207134D01*
X101756554Y-105368037D01*
X101756553Y-105368040D01*
X101666940Y-105550728D01*
X101615937Y-105747714D01*
X101605631Y-105950936D01*
X100000500Y-105950936D01*
X100000500Y-104300000D01*
X131394540Y-104300000D01*
X131414326Y-104488256D01*
X131414327Y-104488259D01*
X131472818Y-104668277D01*
X131472821Y-104668284D01*
X131567467Y-104832216D01*
X131663487Y-104938857D01*
X131694129Y-104972888D01*
X131847265Y-105084148D01*
X131847270Y-105084151D01*
X132020192Y-105161142D01*
X132020197Y-105161144D01*
X132205354Y-105200500D01*
X132205355Y-105200500D01*
X132394644Y-105200500D01*
X132394646Y-105200500D01*
X132579803Y-105161144D01*
X132752730Y-105084151D01*
X132905871Y-104972888D01*
X133032533Y-104832216D01*
X133051133Y-104800000D01*
X149994540Y-104800000D01*
X150014326Y-104988256D01*
X150014327Y-104988259D01*
X150072818Y-105168277D01*
X150072821Y-105168284D01*
X150167467Y-105332216D01*
X150257063Y-105431722D01*
X150294129Y-105472888D01*
X150447265Y-105584148D01*
X150447270Y-105584151D01*
X150620192Y-105661142D01*
X150620197Y-105661144D01*
X150805354Y-105700500D01*
X150805355Y-105700500D01*
X150994644Y-105700500D01*
X150994646Y-105700500D01*
X151179803Y-105661144D01*
X151352730Y-105584151D01*
X151505871Y-105472888D01*
X151632533Y-105332216D01*
X151727179Y-105168284D01*
X151785674Y-104988256D01*
X151805460Y-104800000D01*
X151785674Y-104611744D01*
X151727179Y-104431716D01*
X151632533Y-104267784D01*
X151505871Y-104127112D01*
X151484719Y-104111744D01*
X151352734Y-104015851D01*
X151352729Y-104015848D01*
X151179807Y-103938857D01*
X151179802Y-103938855D01*
X151034001Y-103907865D01*
X150994646Y-103899500D01*
X150805354Y-103899500D01*
X150772897Y-103906398D01*
X150620197Y-103938855D01*
X150620192Y-103938857D01*
X150447270Y-104015848D01*
X150447265Y-104015851D01*
X150294129Y-104127111D01*
X150167466Y-104267785D01*
X150072821Y-104431715D01*
X150072818Y-104431722D01*
X150014327Y-104611740D01*
X150014326Y-104611744D01*
X149994540Y-104800000D01*
X133051133Y-104800000D01*
X133127179Y-104668284D01*
X133185674Y-104488256D01*
X133205460Y-104300000D01*
X133185674Y-104111744D01*
X133127179Y-103931716D01*
X133032533Y-103767784D01*
X132905871Y-103627112D01*
X132905870Y-103627111D01*
X132752734Y-103515851D01*
X132752729Y-103515848D01*
X132579807Y-103438857D01*
X132579802Y-103438855D01*
X132434001Y-103407865D01*
X132394646Y-103399500D01*
X132205354Y-103399500D01*
X132172897Y-103406398D01*
X132020197Y-103438855D01*
X132020192Y-103438857D01*
X131847270Y-103515848D01*
X131847265Y-103515851D01*
X131694129Y-103627111D01*
X131567466Y-103767785D01*
X131472821Y-103931715D01*
X131472818Y-103931722D01*
X131414327Y-104111740D01*
X131414326Y-104111744D01*
X131394540Y-104300000D01*
X100000500Y-104300000D01*
X100000500Y-103000000D01*
X128694540Y-103000000D01*
X128714326Y-103188256D01*
X128714327Y-103188259D01*
X128772818Y-103368277D01*
X128772821Y-103368284D01*
X128867467Y-103532216D01*
X128952911Y-103627111D01*
X128994129Y-103672888D01*
X129147265Y-103784148D01*
X129147270Y-103784151D01*
X129320192Y-103861142D01*
X129320197Y-103861144D01*
X129505354Y-103900500D01*
X129505355Y-103900500D01*
X129694644Y-103900500D01*
X129694646Y-103900500D01*
X129879803Y-103861144D01*
X130052730Y-103784151D01*
X130205871Y-103672888D01*
X130332533Y-103532216D01*
X130427179Y-103368284D01*
X130449366Y-103300000D01*
X136094540Y-103300000D01*
X136114326Y-103488256D01*
X136114327Y-103488259D01*
X136172818Y-103668277D01*
X136172821Y-103668284D01*
X136267467Y-103832216D01*
X136363487Y-103938857D01*
X136394129Y-103972888D01*
X136547265Y-104084148D01*
X136547270Y-104084151D01*
X136720192Y-104161142D01*
X136720197Y-104161144D01*
X136905354Y-104200500D01*
X136905355Y-104200500D01*
X137094644Y-104200500D01*
X137094646Y-104200500D01*
X137279803Y-104161144D01*
X137452730Y-104084151D01*
X137605871Y-103972888D01*
X137732533Y-103832216D01*
X137827179Y-103668284D01*
X137885674Y-103488256D01*
X137905460Y-103300000D01*
X137885674Y-103111744D01*
X137827179Y-102931716D01*
X137732533Y-102767784D01*
X137605871Y-102627112D01*
X137605870Y-102627111D01*
X137452734Y-102515851D01*
X137452729Y-102515848D01*
X137279807Y-102438857D01*
X137279802Y-102438855D01*
X137134001Y-102407865D01*
X137094646Y-102399500D01*
X136905354Y-102399500D01*
X136872897Y-102406398D01*
X136720197Y-102438855D01*
X136720192Y-102438857D01*
X136547270Y-102515848D01*
X136547265Y-102515851D01*
X136394129Y-102627111D01*
X136267466Y-102767785D01*
X136172821Y-102931715D01*
X136172818Y-102931722D01*
X136114327Y-103111740D01*
X136114326Y-103111744D01*
X136094540Y-103300000D01*
X130449366Y-103300000D01*
X130485674Y-103188256D01*
X130505460Y-103000000D01*
X130485674Y-102811744D01*
X130427179Y-102631716D01*
X130332533Y-102467784D01*
X130205871Y-102327112D01*
X130131241Y-102272890D01*
X130052734Y-102215851D01*
X130052729Y-102215848D01*
X129879807Y-102138857D01*
X129879802Y-102138855D01*
X129734001Y-102107865D01*
X129694646Y-102099500D01*
X129505354Y-102099500D01*
X129472897Y-102106398D01*
X129320197Y-102138855D01*
X129320192Y-102138857D01*
X129147270Y-102215848D01*
X129147265Y-102215851D01*
X128994129Y-102327111D01*
X128867466Y-102467785D01*
X128772821Y-102631715D01*
X128772818Y-102631722D01*
X128728609Y-102767785D01*
X128714326Y-102811744D01*
X128694540Y-103000000D01*
X100000500Y-103000000D01*
X100000500Y-101600002D01*
X140394540Y-101600002D01*
X140414326Y-101788258D01*
X140414327Y-101788261D01*
X140472818Y-101968279D01*
X140472821Y-101968286D01*
X140567467Y-102132218D01*
X140642768Y-102215848D01*
X140694129Y-102272890D01*
X140847265Y-102384150D01*
X140847270Y-102384153D01*
X141020192Y-102461144D01*
X141020197Y-102461146D01*
X141205354Y-102500502D01*
X141205355Y-102500502D01*
X141394644Y-102500502D01*
X141394646Y-102500502D01*
X141579803Y-102461146D01*
X141752730Y-102384153D01*
X141905871Y-102272890D01*
X142032533Y-102132218D01*
X142127179Y-101968286D01*
X142185674Y-101788258D01*
X142205460Y-101600002D01*
X142185674Y-101411746D01*
X142127179Y-101231718D01*
X142032533Y-101067786D01*
X141905871Y-100927114D01*
X141905870Y-100927113D01*
X141752734Y-100815853D01*
X141752729Y-100815850D01*
X141579807Y-100738859D01*
X141579802Y-100738857D01*
X141434001Y-100707867D01*
X141394646Y-100699502D01*
X141205354Y-100699502D01*
X141172897Y-100706400D01*
X141020197Y-100738857D01*
X141020192Y-100738859D01*
X140847270Y-100815850D01*
X140847265Y-100815853D01*
X140694129Y-100927113D01*
X140567466Y-101067787D01*
X140472821Y-101231717D01*
X140472818Y-101231724D01*
X140414327Y-101411742D01*
X140414326Y-101411746D01*
X140394540Y-101600002D01*
X100000500Y-101600002D01*
X100000500Y-99553810D01*
X115694540Y-99553810D01*
X115714326Y-99742066D01*
X115714327Y-99742069D01*
X115772818Y-99922087D01*
X115772821Y-99922094D01*
X115867467Y-100086026D01*
X115994129Y-100226698D01*
X116147265Y-100337958D01*
X116147270Y-100337961D01*
X116320192Y-100414952D01*
X116320197Y-100414954D01*
X116505354Y-100454310D01*
X116505355Y-100454310D01*
X116694644Y-100454310D01*
X116694646Y-100454310D01*
X116879803Y-100414954D01*
X117052730Y-100337961D01*
X117205871Y-100226698D01*
X117332533Y-100086026D01*
X117427179Y-99922094D01*
X117485674Y-99742066D01*
X117505460Y-99553810D01*
X117485674Y-99365554D01*
X117427179Y-99185526D01*
X117332533Y-99021594D01*
X117205871Y-98880922D01*
X117205870Y-98880921D01*
X117052734Y-98769661D01*
X117052729Y-98769658D01*
X116879807Y-98692667D01*
X116879802Y-98692665D01*
X116734001Y-98661675D01*
X116694646Y-98653310D01*
X116505354Y-98653310D01*
X116472897Y-98660208D01*
X116320197Y-98692665D01*
X116320192Y-98692667D01*
X116147270Y-98769658D01*
X116147265Y-98769661D01*
X115994129Y-98880921D01*
X115867466Y-99021595D01*
X115772821Y-99185525D01*
X115772818Y-99185532D01*
X115714327Y-99365550D01*
X115714326Y-99365554D01*
X115694540Y-99553810D01*
X100000500Y-99553810D01*
X100000500Y-97340000D01*
X102744341Y-97340000D01*
X102764936Y-97575403D01*
X102764938Y-97575413D01*
X102826094Y-97803655D01*
X102826096Y-97803659D01*
X102826097Y-97803663D01*
X102860565Y-97877579D01*
X102925965Y-98017830D01*
X102925967Y-98017834D01*
X102975280Y-98088259D01*
X103061505Y-98211401D01*
X103228599Y-98378495D01*
X103310589Y-98435905D01*
X103422165Y-98514032D01*
X103422167Y-98514033D01*
X103422170Y-98514035D01*
X103636337Y-98613903D01*
X103864592Y-98675063D01*
X104052918Y-98691539D01*
X104099999Y-98695659D01*
X104100000Y-98695659D01*
X104100001Y-98695659D01*
X104139234Y-98692226D01*
X104335408Y-98675063D01*
X104563663Y-98613903D01*
X104777830Y-98514035D01*
X104971401Y-98378495D01*
X105138495Y-98211401D01*
X105274035Y-98017830D01*
X105373903Y-97803663D01*
X105428475Y-97599996D01*
X117994659Y-97599996D01*
X118013975Y-97796125D01*
X118071188Y-97984729D01*
X118164086Y-98158528D01*
X118164090Y-98158535D01*
X118289116Y-98310879D01*
X118441460Y-98435905D01*
X118441467Y-98435909D01*
X118615266Y-98528807D01*
X118615269Y-98528807D01*
X118615273Y-98528810D01*
X118803868Y-98586020D01*
X119000000Y-98605337D01*
X119196132Y-98586020D01*
X119384727Y-98528810D01*
X119558538Y-98435906D01*
X119710883Y-98310879D01*
X119835910Y-98158534D01*
X119928814Y-97984723D01*
X119954515Y-97900000D01*
X122594544Y-97900000D01*
X122614330Y-98088256D01*
X122614331Y-98088259D01*
X122672822Y-98268277D01*
X122672825Y-98268284D01*
X122767471Y-98432216D01*
X122878168Y-98555157D01*
X122894133Y-98572888D01*
X123047269Y-98684148D01*
X123047274Y-98684151D01*
X123220196Y-98761142D01*
X123220201Y-98761144D01*
X123405358Y-98800500D01*
X123405359Y-98800500D01*
X123594648Y-98800500D01*
X123594650Y-98800500D01*
X123779807Y-98761144D01*
X123952734Y-98684151D01*
X124105875Y-98572888D01*
X124232537Y-98432216D01*
X124327183Y-98268284D01*
X124385678Y-98088256D01*
X124405464Y-97900000D01*
X124385678Y-97711744D01*
X124327183Y-97531716D01*
X124232537Y-97367784D01*
X124105875Y-97227112D01*
X124105874Y-97227111D01*
X123952738Y-97115851D01*
X123952733Y-97115848D01*
X123779811Y-97038857D01*
X123779806Y-97038855D01*
X123634005Y-97007865D01*
X123594650Y-96999500D01*
X123405358Y-96999500D01*
X123372901Y-97006398D01*
X123220201Y-97038855D01*
X123220196Y-97038857D01*
X123047274Y-97115848D01*
X123047269Y-97115851D01*
X122894133Y-97227111D01*
X122767470Y-97367785D01*
X122672825Y-97531715D01*
X122672822Y-97531722D01*
X122618146Y-97700000D01*
X122614330Y-97711744D01*
X122594544Y-97900000D01*
X119954515Y-97900000D01*
X119986024Y-97796128D01*
X120005341Y-97599996D01*
X119986024Y-97403864D01*
X119928814Y-97215269D01*
X119928811Y-97215265D01*
X119928811Y-97215262D01*
X119835913Y-97041463D01*
X119835909Y-97041456D01*
X119710883Y-96889112D01*
X119558539Y-96764086D01*
X119558532Y-96764082D01*
X119384733Y-96671184D01*
X119384727Y-96671182D01*
X119196132Y-96613972D01*
X119196129Y-96613971D01*
X119000000Y-96594655D01*
X118803870Y-96613971D01*
X118615266Y-96671184D01*
X118441467Y-96764082D01*
X118441460Y-96764086D01*
X118289116Y-96889112D01*
X118164090Y-97041456D01*
X118164086Y-97041463D01*
X118071188Y-97215262D01*
X118013975Y-97403866D01*
X117994659Y-97599996D01*
X105428475Y-97599996D01*
X105435063Y-97575408D01*
X105455659Y-97340000D01*
X105435063Y-97104592D01*
X105373903Y-96876337D01*
X105274035Y-96662171D01*
X105260810Y-96643284D01*
X105138496Y-96468600D01*
X105087680Y-96417784D01*
X105016567Y-96346671D01*
X104983084Y-96285351D01*
X104983824Y-96275000D01*
X120352037Y-96275000D01*
X120371823Y-96463256D01*
X120371824Y-96463259D01*
X120430315Y-96643277D01*
X120430318Y-96643284D01*
X120524964Y-96807216D01*
X120598704Y-96889112D01*
X120651626Y-96947888D01*
X120804762Y-97059148D01*
X120804767Y-97059151D01*
X120977689Y-97136142D01*
X120977694Y-97136144D01*
X121162851Y-97175500D01*
X121162852Y-97175500D01*
X121352141Y-97175500D01*
X121352143Y-97175500D01*
X121537300Y-97136144D01*
X121710227Y-97059151D01*
X121860461Y-96950000D01*
X124706509Y-96950000D01*
X124726295Y-97138256D01*
X124726296Y-97138259D01*
X124784787Y-97318277D01*
X124784790Y-97318284D01*
X124879436Y-97482216D01*
X124963342Y-97575403D01*
X125006098Y-97622888D01*
X125159234Y-97734148D01*
X125159239Y-97734151D01*
X125332161Y-97811142D01*
X125332166Y-97811144D01*
X125517323Y-97850500D01*
X125517324Y-97850500D01*
X125706613Y-97850500D01*
X125706615Y-97850500D01*
X125891772Y-97811144D01*
X126064699Y-97734151D01*
X126217840Y-97622888D01*
X126344502Y-97482216D01*
X126439148Y-97318284D01*
X126477581Y-97200001D01*
X165644843Y-97200001D01*
X165665430Y-97435315D01*
X165665432Y-97435326D01*
X165726566Y-97663483D01*
X165726570Y-97663492D01*
X165826400Y-97877579D01*
X165826402Y-97877583D01*
X165885072Y-97961373D01*
X165885073Y-97961373D01*
X166516923Y-97329523D01*
X166540507Y-97409844D01*
X166618239Y-97530798D01*
X166726900Y-97624952D01*
X166857685Y-97684680D01*
X166867466Y-97686086D01*
X166238625Y-98314925D01*
X166322421Y-98373599D01*
X166536507Y-98473429D01*
X166536516Y-98473433D01*
X166764673Y-98534567D01*
X166764684Y-98534569D01*
X166999998Y-98555157D01*
X167000002Y-98555157D01*
X167235315Y-98534569D01*
X167235326Y-98534567D01*
X167463483Y-98473433D01*
X167463492Y-98473429D01*
X167677578Y-98373600D01*
X167677582Y-98373598D01*
X167761373Y-98314926D01*
X167761373Y-98314925D01*
X167132533Y-97686086D01*
X167142315Y-97684680D01*
X167273100Y-97624952D01*
X167381761Y-97530798D01*
X167459493Y-97409844D01*
X167483076Y-97329524D01*
X168114925Y-97961373D01*
X168114926Y-97961373D01*
X168173598Y-97877582D01*
X168173600Y-97877578D01*
X168273429Y-97663492D01*
X168273433Y-97663483D01*
X168334567Y-97435326D01*
X168334569Y-97435315D01*
X168355157Y-97200001D01*
X168355157Y-97199998D01*
X168334569Y-96964684D01*
X168334567Y-96964673D01*
X168273433Y-96736516D01*
X168273429Y-96736507D01*
X168173600Y-96522423D01*
X168173599Y-96522421D01*
X168114925Y-96438626D01*
X168114925Y-96438625D01*
X167483076Y-97070475D01*
X167459493Y-96990156D01*
X167381761Y-96869202D01*
X167273100Y-96775048D01*
X167142315Y-96715320D01*
X167132533Y-96713913D01*
X167761373Y-96085073D01*
X167761373Y-96085072D01*
X167677583Y-96026402D01*
X167677579Y-96026400D01*
X167463492Y-95926570D01*
X167463483Y-95926566D01*
X167235326Y-95865432D01*
X167235315Y-95865430D01*
X167000002Y-95844843D01*
X166999998Y-95844843D01*
X166764684Y-95865430D01*
X166764673Y-95865432D01*
X166536516Y-95926566D01*
X166536507Y-95926570D01*
X166322419Y-96026401D01*
X166238625Y-96085072D01*
X166867466Y-96713913D01*
X166857685Y-96715320D01*
X166726900Y-96775048D01*
X166618239Y-96869202D01*
X166540507Y-96990156D01*
X166516923Y-97070475D01*
X165885073Y-96438625D01*
X165885072Y-96438625D01*
X165826401Y-96522419D01*
X165726570Y-96736507D01*
X165726566Y-96736516D01*
X165665432Y-96964673D01*
X165665430Y-96964684D01*
X165644843Y-97199998D01*
X165644843Y-97200001D01*
X126477581Y-97200001D01*
X126497643Y-97138256D01*
X126517429Y-96950000D01*
X126497643Y-96761744D01*
X126439148Y-96581716D01*
X126344502Y-96417784D01*
X126217840Y-96277112D01*
X126214933Y-96275000D01*
X126064703Y-96165851D01*
X126064698Y-96165848D01*
X125891776Y-96088857D01*
X125891771Y-96088855D01*
X125745970Y-96057865D01*
X125706615Y-96049500D01*
X125517323Y-96049500D01*
X125484866Y-96056398D01*
X125332166Y-96088855D01*
X125332161Y-96088857D01*
X125159239Y-96165848D01*
X125159234Y-96165851D01*
X125006098Y-96277111D01*
X124879435Y-96417785D01*
X124784790Y-96581715D01*
X124784787Y-96581722D01*
X124741379Y-96715320D01*
X124726295Y-96761744D01*
X124706509Y-96950000D01*
X121860461Y-96950000D01*
X121863368Y-96947888D01*
X121990030Y-96807216D01*
X122084676Y-96643284D01*
X122143171Y-96463256D01*
X122162957Y-96275000D01*
X122143171Y-96086744D01*
X122084676Y-95906716D01*
X121990030Y-95742784D01*
X121863368Y-95602112D01*
X121863367Y-95602111D01*
X121710231Y-95490851D01*
X121710226Y-95490848D01*
X121537304Y-95413857D01*
X121537299Y-95413855D01*
X121391498Y-95382865D01*
X121352143Y-95374500D01*
X121162851Y-95374500D01*
X121130394Y-95381398D01*
X120977694Y-95413855D01*
X120977689Y-95413857D01*
X120804767Y-95490848D01*
X120804762Y-95490851D01*
X120651626Y-95602111D01*
X120524963Y-95742785D01*
X120430318Y-95906715D01*
X120430315Y-95906722D01*
X120391429Y-96026402D01*
X120371823Y-96086744D01*
X120352037Y-96275000D01*
X104983824Y-96275000D01*
X104988068Y-96215659D01*
X105029939Y-96159725D01*
X105060915Y-96142810D01*
X105192331Y-96093796D01*
X105307546Y-96007546D01*
X105393796Y-95892331D01*
X105444091Y-95757483D01*
X105450500Y-95697873D01*
X105450499Y-94700000D01*
X129394540Y-94700000D01*
X129414326Y-94888256D01*
X129414327Y-94888259D01*
X129472818Y-95068277D01*
X129472821Y-95068284D01*
X129567467Y-95232216D01*
X129694129Y-95372888D01*
X129847265Y-95484148D01*
X129847270Y-95484151D01*
X130020192Y-95561142D01*
X130020197Y-95561144D01*
X130205354Y-95600500D01*
X130205355Y-95600500D01*
X130394644Y-95600500D01*
X130394646Y-95600500D01*
X130579803Y-95561144D01*
X130752730Y-95484151D01*
X130905871Y-95372888D01*
X130957851Y-95315158D01*
X131017336Y-95278510D01*
X131087193Y-95279840D01*
X131142148Y-95315158D01*
X131194129Y-95372888D01*
X131347265Y-95484148D01*
X131347270Y-95484151D01*
X131520192Y-95561142D01*
X131520197Y-95561144D01*
X131705354Y-95600500D01*
X131705355Y-95600500D01*
X131894644Y-95600500D01*
X131894646Y-95600500D01*
X132079803Y-95561144D01*
X132252730Y-95484151D01*
X132405871Y-95372888D01*
X132532533Y-95232216D01*
X132627179Y-95068284D01*
X132685674Y-94888256D01*
X132705460Y-94700000D01*
X132685674Y-94511744D01*
X132627179Y-94331716D01*
X132532533Y-94167784D01*
X132405871Y-94027112D01*
X132405867Y-94027109D01*
X132252734Y-93915851D01*
X132252729Y-93915848D01*
X132079807Y-93838857D01*
X132079802Y-93838855D01*
X131934001Y-93807865D01*
X131894646Y-93799500D01*
X131705354Y-93799500D01*
X131672897Y-93806398D01*
X131520197Y-93838855D01*
X131520192Y-93838857D01*
X131347270Y-93915848D01*
X131347265Y-93915851D01*
X131194132Y-94027109D01*
X131194129Y-94027111D01*
X131194129Y-94027112D01*
X131142148Y-94084841D01*
X131082663Y-94121489D01*
X131012806Y-94120158D01*
X130957851Y-94084841D01*
X130905871Y-94027112D01*
X130905867Y-94027109D01*
X130752734Y-93915851D01*
X130752729Y-93915848D01*
X130579807Y-93838857D01*
X130579802Y-93838855D01*
X130434001Y-93807865D01*
X130394646Y-93799500D01*
X130205354Y-93799500D01*
X130172897Y-93806398D01*
X130020197Y-93838855D01*
X130020192Y-93838857D01*
X129847270Y-93915848D01*
X129847265Y-93915851D01*
X129694129Y-94027111D01*
X129567466Y-94167785D01*
X129472821Y-94331715D01*
X129472818Y-94331722D01*
X129414327Y-94511740D01*
X129414326Y-94511744D01*
X129394540Y-94700000D01*
X105450499Y-94700000D01*
X105450499Y-93902128D01*
X105444091Y-93842517D01*
X105442725Y-93838855D01*
X105393797Y-93707671D01*
X105393793Y-93707664D01*
X105307547Y-93592455D01*
X105307544Y-93592452D01*
X105192335Y-93506206D01*
X105192328Y-93506202D01*
X105057482Y-93455908D01*
X105057483Y-93455908D01*
X104997883Y-93449501D01*
X104997881Y-93449500D01*
X104997873Y-93449500D01*
X104997864Y-93449500D01*
X103202129Y-93449500D01*
X103202123Y-93449501D01*
X103142516Y-93455908D01*
X103007671Y-93506202D01*
X103007664Y-93506206D01*
X102892455Y-93592452D01*
X102892452Y-93592455D01*
X102806206Y-93707664D01*
X102806202Y-93707671D01*
X102755908Y-93842517D01*
X102753906Y-93861144D01*
X102749501Y-93902123D01*
X102749500Y-93902135D01*
X102749500Y-95697870D01*
X102749501Y-95697876D01*
X102755908Y-95757483D01*
X102806202Y-95892328D01*
X102806206Y-95892335D01*
X102892452Y-96007544D01*
X102892455Y-96007547D01*
X103007664Y-96093793D01*
X103007671Y-96093797D01*
X103139081Y-96142810D01*
X103195015Y-96184681D01*
X103219432Y-96250145D01*
X103204580Y-96318418D01*
X103183430Y-96346673D01*
X103061503Y-96468600D01*
X102925965Y-96662169D01*
X102925964Y-96662171D01*
X102826098Y-96876335D01*
X102826094Y-96876344D01*
X102764938Y-97104586D01*
X102764936Y-97104596D01*
X102744341Y-97339999D01*
X102744341Y-97340000D01*
X100000500Y-97340000D01*
X100000500Y-93097870D01*
X107349500Y-93097870D01*
X107349501Y-93097876D01*
X107355908Y-93157483D01*
X107406202Y-93292328D01*
X107406206Y-93292335D01*
X107492452Y-93407544D01*
X107492455Y-93407547D01*
X107607664Y-93493793D01*
X107607671Y-93493797D01*
X107742517Y-93544091D01*
X107742516Y-93544091D01*
X107749444Y-93544835D01*
X107802127Y-93550500D01*
X109597872Y-93550499D01*
X109657483Y-93544091D01*
X109792331Y-93493796D01*
X109907546Y-93407546D01*
X109993796Y-93292331D01*
X110043002Y-93160401D01*
X110084872Y-93104468D01*
X110150337Y-93080050D01*
X110218610Y-93094901D01*
X110246865Y-93116053D01*
X110368917Y-93238105D01*
X110562421Y-93373600D01*
X110776507Y-93473429D01*
X110776516Y-93473433D01*
X110990000Y-93530634D01*
X110990000Y-92635501D01*
X111097685Y-92684680D01*
X111204237Y-92700000D01*
X111275763Y-92700000D01*
X111382315Y-92684680D01*
X111490000Y-92635501D01*
X111490000Y-93530633D01*
X111703483Y-93473433D01*
X111703492Y-93473429D01*
X111917578Y-93373600D01*
X112111082Y-93238105D01*
X112278105Y-93071082D01*
X112408119Y-92885405D01*
X112462696Y-92841781D01*
X112532195Y-92834588D01*
X112594549Y-92866110D01*
X112611269Y-92885405D01*
X112741505Y-93071401D01*
X112908599Y-93238495D01*
X113005384Y-93306265D01*
X113102165Y-93374032D01*
X113102167Y-93374033D01*
X113102170Y-93374035D01*
X113316337Y-93473903D01*
X113544592Y-93535063D01*
X113721034Y-93550500D01*
X113779999Y-93555659D01*
X113780000Y-93555659D01*
X113780001Y-93555659D01*
X113838966Y-93550500D01*
X114015408Y-93535063D01*
X114243663Y-93473903D01*
X114457830Y-93374035D01*
X114651401Y-93238495D01*
X114818495Y-93071401D01*
X114948425Y-92885842D01*
X115003002Y-92842217D01*
X115072500Y-92835023D01*
X115134855Y-92866546D01*
X115151575Y-92885842D01*
X115281500Y-93071395D01*
X115281505Y-93071401D01*
X115448599Y-93238495D01*
X115545384Y-93306265D01*
X115642165Y-93374032D01*
X115642167Y-93374033D01*
X115642170Y-93374035D01*
X115856337Y-93473903D01*
X116084592Y-93535063D01*
X116261034Y-93550500D01*
X116319999Y-93555659D01*
X116320000Y-93555659D01*
X116320001Y-93555659D01*
X116378966Y-93550500D01*
X116555408Y-93535063D01*
X116783663Y-93473903D01*
X116997830Y-93374035D01*
X117191401Y-93238495D01*
X117358495Y-93071401D01*
X117408491Y-93000000D01*
X143594540Y-93000000D01*
X143614326Y-93188256D01*
X143614327Y-93188259D01*
X143672818Y-93368277D01*
X143672821Y-93368284D01*
X143767467Y-93532216D01*
X143821704Y-93592452D01*
X143894129Y-93672888D01*
X144047265Y-93784148D01*
X144047270Y-93784151D01*
X144220192Y-93861142D01*
X144220197Y-93861144D01*
X144405354Y-93900500D01*
X144405355Y-93900500D01*
X144594644Y-93900500D01*
X144594646Y-93900500D01*
X144779803Y-93861144D01*
X144952730Y-93784151D01*
X145105871Y-93672888D01*
X145232533Y-93532216D01*
X145327179Y-93368284D01*
X145385674Y-93188256D01*
X145405460Y-93000000D01*
X145385674Y-92811744D01*
X145327179Y-92631716D01*
X145232533Y-92467784D01*
X145105871Y-92327112D01*
X145105870Y-92327111D01*
X144952734Y-92215851D01*
X144952729Y-92215848D01*
X144779807Y-92138857D01*
X144779802Y-92138855D01*
X144634001Y-92107865D01*
X144594646Y-92099500D01*
X144405354Y-92099500D01*
X144372897Y-92106398D01*
X144220197Y-92138855D01*
X144220192Y-92138857D01*
X144047270Y-92215848D01*
X144047265Y-92215851D01*
X143894129Y-92327111D01*
X143767466Y-92467785D01*
X143672821Y-92631715D01*
X143672818Y-92631722D01*
X143614327Y-92811740D01*
X143614326Y-92811744D01*
X143594540Y-93000000D01*
X117408491Y-93000000D01*
X117494035Y-92877830D01*
X117593903Y-92663663D01*
X117655063Y-92435408D01*
X117675659Y-92200000D01*
X117655063Y-91964592D01*
X117593903Y-91736337D01*
X117494035Y-91522171D01*
X117488731Y-91514595D01*
X117358494Y-91328597D01*
X117191402Y-91161506D01*
X117191395Y-91161501D01*
X117190882Y-91161142D01*
X117114518Y-91107671D01*
X116997834Y-91025967D01*
X116997830Y-91025965D01*
X116997828Y-91025964D01*
X116783663Y-90926097D01*
X116783659Y-90926096D01*
X116783655Y-90926094D01*
X116555413Y-90864938D01*
X116555403Y-90864936D01*
X116320001Y-90844341D01*
X116319999Y-90844341D01*
X116084596Y-90864936D01*
X116084586Y-90864938D01*
X115856344Y-90926094D01*
X115856335Y-90926098D01*
X115642171Y-91025964D01*
X115642169Y-91025965D01*
X115448597Y-91161505D01*
X115281505Y-91328597D01*
X115151575Y-91514158D01*
X115096998Y-91557783D01*
X115027500Y-91564977D01*
X114965145Y-91533454D01*
X114948425Y-91514158D01*
X114818494Y-91328597D01*
X114651402Y-91161506D01*
X114651395Y-91161501D01*
X114650882Y-91161142D01*
X114574518Y-91107671D01*
X114457834Y-91025967D01*
X114457830Y-91025965D01*
X114457828Y-91025964D01*
X114243663Y-90926097D01*
X114243659Y-90926096D01*
X114243655Y-90926094D01*
X114015413Y-90864938D01*
X114015403Y-90864936D01*
X113780001Y-90844341D01*
X113779999Y-90844341D01*
X113544596Y-90864936D01*
X113544586Y-90864938D01*
X113316344Y-90926094D01*
X113316335Y-90926098D01*
X113102171Y-91025964D01*
X113102169Y-91025965D01*
X112908597Y-91161505D01*
X112741508Y-91328594D01*
X112611269Y-91514595D01*
X112556692Y-91558219D01*
X112487193Y-91565412D01*
X112424839Y-91533890D01*
X112408119Y-91514594D01*
X112278113Y-91328926D01*
X112278108Y-91328920D01*
X112111082Y-91161894D01*
X111917578Y-91026399D01*
X111703492Y-90926570D01*
X111703486Y-90926567D01*
X111490000Y-90869364D01*
X111490000Y-91764498D01*
X111382315Y-91715320D01*
X111275763Y-91700000D01*
X111204237Y-91700000D01*
X111097685Y-91715320D01*
X110990000Y-91764498D01*
X110990000Y-90869364D01*
X110989999Y-90869364D01*
X110776513Y-90926567D01*
X110776507Y-90926570D01*
X110562422Y-91026399D01*
X110562420Y-91026400D01*
X110368926Y-91161886D01*
X110246865Y-91283947D01*
X110185542Y-91317431D01*
X110115850Y-91312447D01*
X110059917Y-91270575D01*
X110043002Y-91239598D01*
X109993797Y-91107671D01*
X109993793Y-91107664D01*
X109907547Y-90992455D01*
X109907544Y-90992452D01*
X109792335Y-90906206D01*
X109792328Y-90906202D01*
X109657482Y-90855908D01*
X109657483Y-90855908D01*
X109597883Y-90849501D01*
X109597881Y-90849500D01*
X109597873Y-90849500D01*
X109597864Y-90849500D01*
X107802129Y-90849500D01*
X107802123Y-90849501D01*
X107742516Y-90855908D01*
X107607671Y-90906202D01*
X107607664Y-90906206D01*
X107492455Y-90992452D01*
X107492452Y-90992455D01*
X107406206Y-91107664D01*
X107406202Y-91107671D01*
X107355908Y-91242517D01*
X107349501Y-91302116D01*
X107349500Y-91302135D01*
X107349500Y-93097870D01*
X100000500Y-93097870D01*
X100000500Y-89100000D01*
X129594659Y-89100000D01*
X129613975Y-89296129D01*
X129671188Y-89484733D01*
X129764086Y-89658532D01*
X129764090Y-89658539D01*
X129889116Y-89810883D01*
X130041460Y-89935909D01*
X130041467Y-89935913D01*
X130215266Y-90028811D01*
X130215269Y-90028811D01*
X130215273Y-90028814D01*
X130403868Y-90086024D01*
X130600000Y-90105341D01*
X130796132Y-90086024D01*
X130984727Y-90028814D01*
X131158538Y-89935910D01*
X131310883Y-89810883D01*
X131435910Y-89658538D01*
X131528814Y-89484727D01*
X131586024Y-89296132D01*
X131605341Y-89100000D01*
X131586024Y-88903868D01*
X131528814Y-88715273D01*
X131528811Y-88715269D01*
X131528811Y-88715266D01*
X131435913Y-88541467D01*
X131435909Y-88541460D01*
X131310883Y-88389116D01*
X131158539Y-88264090D01*
X131158532Y-88264086D01*
X131038636Y-88200000D01*
X136294540Y-88200000D01*
X136314326Y-88388256D01*
X136314327Y-88388259D01*
X136372818Y-88568277D01*
X136372821Y-88568284D01*
X136467467Y-88732216D01*
X136594129Y-88872888D01*
X136747265Y-88984148D01*
X136747270Y-88984151D01*
X136920191Y-89061142D01*
X136920193Y-89061142D01*
X136920197Y-89061144D01*
X136974183Y-89072619D01*
X137035663Y-89105809D01*
X137069440Y-89166972D01*
X137071720Y-89180937D01*
X137083052Y-89288751D01*
X137083053Y-89288754D01*
X137141544Y-89468772D01*
X137141547Y-89468779D01*
X137236193Y-89632711D01*
X137259448Y-89658538D01*
X137362855Y-89773383D01*
X137362861Y-89773388D01*
X137420553Y-89815304D01*
X137463219Y-89870634D01*
X137469198Y-89940247D01*
X137465599Y-89953940D01*
X137416406Y-90105341D01*
X137414326Y-90111744D01*
X137394540Y-90300000D01*
X137414326Y-90488256D01*
X137414327Y-90488259D01*
X137472818Y-90668277D01*
X137472821Y-90668284D01*
X137567467Y-90832216D01*
X137652424Y-90926570D01*
X137694129Y-90972888D01*
X137847265Y-91084148D01*
X137847270Y-91084151D01*
X138020192Y-91161142D01*
X138020197Y-91161144D01*
X138205354Y-91200500D01*
X138205355Y-91200500D01*
X138394644Y-91200500D01*
X138394646Y-91200500D01*
X138579803Y-91161144D01*
X138752730Y-91084151D01*
X138905871Y-90972888D01*
X139032533Y-90832216D01*
X139127179Y-90668284D01*
X139185674Y-90488256D01*
X139205460Y-90300000D01*
X139185674Y-90111744D01*
X139127179Y-89931716D01*
X139032533Y-89767784D01*
X138905871Y-89627112D01*
X138905870Y-89627111D01*
X138905866Y-89627107D01*
X138848173Y-89585192D01*
X138805506Y-89529862D01*
X138799527Y-89460249D01*
X138803126Y-89446555D01*
X138854400Y-89288751D01*
X138874186Y-89100495D01*
X138854400Y-88912239D01*
X138795905Y-88732211D01*
X138701259Y-88568279D01*
X138574597Y-88427607D01*
X138574596Y-88427606D01*
X138421460Y-88316346D01*
X138421455Y-88316343D01*
X138248533Y-88239352D01*
X138248529Y-88239351D01*
X138194542Y-88227875D01*
X138133060Y-88194682D01*
X138099284Y-88133518D01*
X138097006Y-88119565D01*
X138085674Y-88011744D01*
X138027179Y-87831716D01*
X137932533Y-87667784D01*
X137805871Y-87527112D01*
X137783534Y-87510883D01*
X137652734Y-87415851D01*
X137652729Y-87415848D01*
X137479807Y-87338857D01*
X137479802Y-87338855D01*
X137334001Y-87307865D01*
X137294646Y-87299500D01*
X137105354Y-87299500D01*
X137072897Y-87306398D01*
X136920197Y-87338855D01*
X136920192Y-87338857D01*
X136747270Y-87415848D01*
X136747265Y-87415851D01*
X136594129Y-87527111D01*
X136467466Y-87667785D01*
X136372821Y-87831715D01*
X136372818Y-87831722D01*
X136314327Y-88011740D01*
X136314326Y-88011744D01*
X136294540Y-88200000D01*
X131038636Y-88200000D01*
X130984733Y-88171188D01*
X130984727Y-88171186D01*
X130814494Y-88119546D01*
X130796129Y-88113975D01*
X130600000Y-88094659D01*
X130403870Y-88113975D01*
X130215266Y-88171188D01*
X130041467Y-88264086D01*
X130041460Y-88264090D01*
X129889116Y-88389116D01*
X129764090Y-88541460D01*
X129764086Y-88541467D01*
X129671188Y-88715266D01*
X129613975Y-88903870D01*
X129594659Y-89100000D01*
X100000500Y-89100000D01*
X100000500Y-84240000D01*
X101344341Y-84240000D01*
X101364936Y-84475403D01*
X101364938Y-84475413D01*
X101426094Y-84703655D01*
X101426096Y-84703659D01*
X101426097Y-84703663D01*
X101470787Y-84799500D01*
X101525965Y-84917830D01*
X101525967Y-84917834D01*
X101602484Y-85027111D01*
X101653170Y-85099498D01*
X101661501Y-85111395D01*
X101661506Y-85111402D01*
X101828597Y-85278493D01*
X101828603Y-85278498D01*
X102014594Y-85408730D01*
X102058219Y-85463307D01*
X102065413Y-85532805D01*
X102033890Y-85595160D01*
X102014595Y-85611880D01*
X101828922Y-85741890D01*
X101828920Y-85741891D01*
X101661891Y-85908920D01*
X101661886Y-85908926D01*
X101526400Y-86102420D01*
X101526399Y-86102422D01*
X101426570Y-86316507D01*
X101426567Y-86316513D01*
X101369364Y-86529999D01*
X101369364Y-86530000D01*
X102266314Y-86530000D01*
X102240507Y-86570156D01*
X102200000Y-86708111D01*
X102200000Y-86851889D01*
X102240507Y-86989844D01*
X102266314Y-87030000D01*
X101369364Y-87030000D01*
X101426567Y-87243486D01*
X101426570Y-87243492D01*
X101526399Y-87457578D01*
X101661894Y-87651082D01*
X101828917Y-87818105D01*
X102022421Y-87953600D01*
X102236507Y-88053429D01*
X102236516Y-88053433D01*
X102450000Y-88110634D01*
X102450000Y-87215501D01*
X102557685Y-87264680D01*
X102664237Y-87280000D01*
X102735763Y-87280000D01*
X102842315Y-87264680D01*
X102950000Y-87215501D01*
X102950000Y-88110633D01*
X103163483Y-88053433D01*
X103163492Y-88053429D01*
X103377578Y-87953600D01*
X103571082Y-87818105D01*
X103738105Y-87651082D01*
X103873600Y-87457578D01*
X103973429Y-87243492D01*
X103973432Y-87243486D01*
X104030636Y-87030000D01*
X103133686Y-87030000D01*
X103159493Y-86989844D01*
X103200000Y-86851889D01*
X103200000Y-86800000D01*
X114594659Y-86800000D01*
X114613975Y-86996129D01*
X114671188Y-87184733D01*
X114764086Y-87358532D01*
X114764090Y-87358539D01*
X114889116Y-87510883D01*
X115041460Y-87635909D01*
X115041467Y-87635913D01*
X115215266Y-87728811D01*
X115215269Y-87728811D01*
X115215273Y-87728814D01*
X115403868Y-87786024D01*
X115600000Y-87805341D01*
X115796132Y-87786024D01*
X115984727Y-87728814D01*
X116158538Y-87635910D01*
X116310883Y-87510883D01*
X116435910Y-87358538D01*
X116486078Y-87264680D01*
X116528811Y-87184733D01*
X116528811Y-87184732D01*
X116528814Y-87184727D01*
X116586024Y-86996132D01*
X116605341Y-86800000D01*
X116586024Y-86603868D01*
X116528814Y-86415273D01*
X116528811Y-86415269D01*
X116528811Y-86415266D01*
X116435913Y-86241467D01*
X116435909Y-86241460D01*
X116310883Y-86089116D01*
X116158539Y-85964090D01*
X116158532Y-85964086D01*
X115984733Y-85871188D01*
X115984727Y-85871186D01*
X115796132Y-85813976D01*
X115796129Y-85813975D01*
X115600000Y-85794659D01*
X115403870Y-85813975D01*
X115215266Y-85871188D01*
X115041467Y-85964086D01*
X115041460Y-85964090D01*
X114889116Y-86089116D01*
X114764090Y-86241460D01*
X114764086Y-86241467D01*
X114671188Y-86415266D01*
X114613975Y-86603870D01*
X114594659Y-86800000D01*
X103200000Y-86800000D01*
X103200000Y-86708111D01*
X103159493Y-86570156D01*
X103133686Y-86530000D01*
X104030636Y-86530000D01*
X104030635Y-86529999D01*
X103973432Y-86316513D01*
X103973429Y-86316507D01*
X103873600Y-86102422D01*
X103873599Y-86102420D01*
X103738113Y-85908926D01*
X103738108Y-85908920D01*
X103571078Y-85741890D01*
X103385405Y-85611879D01*
X103341780Y-85557302D01*
X103334588Y-85487804D01*
X103366110Y-85425449D01*
X103385406Y-85408730D01*
X103436594Y-85372888D01*
X103571401Y-85278495D01*
X103738495Y-85111401D01*
X103874035Y-84917830D01*
X103882349Y-84900000D01*
X119694540Y-84900000D01*
X119714326Y-85088256D01*
X119714327Y-85088259D01*
X119772818Y-85268277D01*
X119772821Y-85268284D01*
X119867467Y-85432216D01*
X119958038Y-85532805D01*
X119994129Y-85572888D01*
X120147265Y-85684148D01*
X120147270Y-85684151D01*
X120320192Y-85761142D01*
X120320197Y-85761144D01*
X120505354Y-85800500D01*
X120505355Y-85800500D01*
X120694644Y-85800500D01*
X120694646Y-85800500D01*
X120879803Y-85761144D01*
X121017133Y-85700000D01*
X143594540Y-85700000D01*
X143614326Y-85888256D01*
X143614327Y-85888259D01*
X143672818Y-86068277D01*
X143672821Y-86068284D01*
X143767467Y-86232216D01*
X143843363Y-86316507D01*
X143894129Y-86372888D01*
X144047265Y-86484148D01*
X144047270Y-86484151D01*
X144220192Y-86561142D01*
X144220197Y-86561144D01*
X144405354Y-86600500D01*
X144405355Y-86600500D01*
X144594644Y-86600500D01*
X144594646Y-86600500D01*
X144779803Y-86561144D01*
X144952730Y-86484151D01*
X145105871Y-86372888D01*
X145232533Y-86232216D01*
X145327179Y-86068284D01*
X145349367Y-85999998D01*
X145894540Y-85999998D01*
X145914326Y-86188254D01*
X145914327Y-86188257D01*
X145972818Y-86368275D01*
X145972821Y-86368282D01*
X146067467Y-86532214D01*
X146131985Y-86603868D01*
X146194129Y-86672886D01*
X146347265Y-86784146D01*
X146347270Y-86784149D01*
X146520192Y-86861140D01*
X146520197Y-86861142D01*
X146705354Y-86900498D01*
X146705355Y-86900498D01*
X146894644Y-86900498D01*
X146894646Y-86900498D01*
X147079803Y-86861142D01*
X147252730Y-86784149D01*
X147258441Y-86780000D01*
X166544341Y-86780000D01*
X166564936Y-87015403D01*
X166564938Y-87015413D01*
X166626094Y-87243655D01*
X166626096Y-87243659D01*
X166626097Y-87243663D01*
X166706389Y-87415849D01*
X166725965Y-87457830D01*
X166725967Y-87457834D01*
X166834281Y-87612521D01*
X166861505Y-87651401D01*
X167028599Y-87818495D01*
X167125384Y-87886265D01*
X167222165Y-87954032D01*
X167222167Y-87954033D01*
X167222170Y-87954035D01*
X167436337Y-88053903D01*
X167664592Y-88115063D01*
X167852918Y-88131539D01*
X167899999Y-88135659D01*
X167900000Y-88135659D01*
X167900001Y-88135659D01*
X167939234Y-88132226D01*
X168135408Y-88115063D01*
X168363663Y-88053903D01*
X168577830Y-87954035D01*
X168771401Y-87818495D01*
X168938495Y-87651401D01*
X169074035Y-87457830D01*
X169173903Y-87243663D01*
X169235063Y-87015408D01*
X169255659Y-86780000D01*
X169235063Y-86544592D01*
X169173903Y-86316337D01*
X169074035Y-86102171D01*
X169050308Y-86068284D01*
X168938494Y-85908597D01*
X168771402Y-85741506D01*
X168771396Y-85741501D01*
X168585842Y-85611575D01*
X168542217Y-85556998D01*
X168535023Y-85487500D01*
X168566546Y-85425145D01*
X168585842Y-85408425D01*
X168695385Y-85331722D01*
X168771401Y-85278495D01*
X168938495Y-85111401D01*
X169074035Y-84917830D01*
X169173903Y-84703663D01*
X169235063Y-84475408D01*
X169255659Y-84240000D01*
X169235063Y-84004592D01*
X169188626Y-83831285D01*
X169173905Y-83776344D01*
X169173904Y-83776343D01*
X169173903Y-83776337D01*
X169074035Y-83562171D01*
X168938495Y-83368599D01*
X168938494Y-83368597D01*
X168771402Y-83201506D01*
X168771396Y-83201501D01*
X168585842Y-83071575D01*
X168542217Y-83016998D01*
X168535023Y-82947500D01*
X168566546Y-82885145D01*
X168585842Y-82868425D01*
X168608026Y-82852891D01*
X168771401Y-82738495D01*
X168938495Y-82571401D01*
X169074035Y-82377830D01*
X169173903Y-82163663D01*
X169235063Y-81935408D01*
X169255659Y-81700000D01*
X169235063Y-81464592D01*
X169173903Y-81236337D01*
X169074035Y-81022171D01*
X168938495Y-80828599D01*
X168938494Y-80828597D01*
X168771402Y-80661506D01*
X168771396Y-80661501D01*
X168585842Y-80531575D01*
X168542217Y-80476998D01*
X168535023Y-80407500D01*
X168566546Y-80345145D01*
X168585842Y-80328425D01*
X168608026Y-80312891D01*
X168771401Y-80198495D01*
X168938495Y-80031401D01*
X169074035Y-79837830D01*
X169173903Y-79623663D01*
X169235063Y-79395408D01*
X169255659Y-79160000D01*
X169235063Y-78924592D01*
X169188626Y-78751285D01*
X169173905Y-78696344D01*
X169173904Y-78696343D01*
X169173903Y-78696337D01*
X169074035Y-78482171D01*
X168969035Y-78332214D01*
X168938494Y-78288597D01*
X168771402Y-78121506D01*
X168771396Y-78121501D01*
X168585842Y-77991575D01*
X168542217Y-77936998D01*
X168535023Y-77867500D01*
X168566546Y-77805145D01*
X168585842Y-77788425D01*
X168734760Y-77684151D01*
X168771401Y-77658495D01*
X168938495Y-77491401D01*
X169074035Y-77297830D01*
X169173903Y-77083663D01*
X169235063Y-76855408D01*
X169255659Y-76620000D01*
X169235063Y-76384592D01*
X169173903Y-76156337D01*
X169074035Y-75942171D01*
X168938495Y-75748599D01*
X168938494Y-75748597D01*
X168771402Y-75581506D01*
X168771396Y-75581501D01*
X168585842Y-75451575D01*
X168542217Y-75396998D01*
X168535023Y-75327500D01*
X168566546Y-75265145D01*
X168585842Y-75248425D01*
X168608026Y-75232891D01*
X168771401Y-75118495D01*
X168938495Y-74951401D01*
X169074035Y-74757830D01*
X169173903Y-74543663D01*
X169235063Y-74315408D01*
X169255659Y-74080000D01*
X169235063Y-73844592D01*
X169173903Y-73616337D01*
X169074035Y-73402171D01*
X168938495Y-73208599D01*
X168938494Y-73208597D01*
X168771402Y-73041506D01*
X168771396Y-73041501D01*
X168585842Y-72911575D01*
X168542217Y-72856998D01*
X168535023Y-72787500D01*
X168566546Y-72725145D01*
X168585842Y-72708425D01*
X168608026Y-72692891D01*
X168771401Y-72578495D01*
X168938495Y-72411401D01*
X169074035Y-72217830D01*
X169173903Y-72003663D01*
X169235063Y-71775408D01*
X169255659Y-71540000D01*
X169235063Y-71304592D01*
X169173903Y-71076337D01*
X169074035Y-70862171D01*
X169047307Y-70824000D01*
X168938496Y-70668600D01*
X168938495Y-70668599D01*
X168816179Y-70546283D01*
X168782696Y-70484963D01*
X168787680Y-70415271D01*
X168829551Y-70359337D01*
X168860529Y-70342422D01*
X168992086Y-70293354D01*
X168992093Y-70293350D01*
X169107187Y-70207190D01*
X169107190Y-70207187D01*
X169193350Y-70092093D01*
X169193354Y-70092086D01*
X169243596Y-69957379D01*
X169243598Y-69957372D01*
X169249999Y-69897844D01*
X169250000Y-69897827D01*
X169250000Y-69250000D01*
X168333686Y-69250000D01*
X168359493Y-69209844D01*
X168400000Y-69071889D01*
X168400000Y-68928111D01*
X168359493Y-68790156D01*
X168333686Y-68750000D01*
X169250000Y-68750000D01*
X169250000Y-68102172D01*
X169249999Y-68102155D01*
X169243598Y-68042627D01*
X169243596Y-68042620D01*
X169193354Y-67907913D01*
X169193350Y-67907906D01*
X169107190Y-67792812D01*
X169107187Y-67792809D01*
X168992093Y-67706649D01*
X168992086Y-67706645D01*
X168857379Y-67656403D01*
X168857372Y-67656401D01*
X168797844Y-67650000D01*
X168150000Y-67650000D01*
X168150000Y-68564498D01*
X168042315Y-68515320D01*
X167935763Y-68500000D01*
X167864237Y-68500000D01*
X167757685Y-68515320D01*
X167650000Y-68564498D01*
X167650000Y-67650000D01*
X167002155Y-67650000D01*
X166942627Y-67656401D01*
X166942620Y-67656403D01*
X166807913Y-67706645D01*
X166807906Y-67706649D01*
X166692812Y-67792809D01*
X166692809Y-67792812D01*
X166606649Y-67907906D01*
X166606645Y-67907913D01*
X166556403Y-68042620D01*
X166556401Y-68042627D01*
X166550000Y-68102155D01*
X166550000Y-68750000D01*
X167466314Y-68750000D01*
X167440507Y-68790156D01*
X167400000Y-68928111D01*
X167400000Y-69071889D01*
X167440507Y-69209844D01*
X167466314Y-69250000D01*
X166550000Y-69250000D01*
X166550000Y-69897844D01*
X166556401Y-69957372D01*
X166556403Y-69957379D01*
X166606645Y-70092086D01*
X166606649Y-70092093D01*
X166692809Y-70207187D01*
X166692812Y-70207190D01*
X166807906Y-70293350D01*
X166807913Y-70293354D01*
X166939470Y-70342421D01*
X166995403Y-70384292D01*
X167019821Y-70449756D01*
X167004970Y-70518029D01*
X166983819Y-70546284D01*
X166861503Y-70668600D01*
X166725965Y-70862169D01*
X166725964Y-70862171D01*
X166626098Y-71076335D01*
X166626094Y-71076344D01*
X166564938Y-71304586D01*
X166564936Y-71304596D01*
X166544341Y-71539999D01*
X166544341Y-71540000D01*
X166564936Y-71775403D01*
X166564938Y-71775413D01*
X166626094Y-72003655D01*
X166626096Y-72003659D01*
X166626097Y-72003663D01*
X166715846Y-72196129D01*
X166725965Y-72217830D01*
X166725967Y-72217834D01*
X166861501Y-72411395D01*
X166861506Y-72411402D01*
X167028597Y-72578493D01*
X167028603Y-72578498D01*
X167214158Y-72708425D01*
X167257783Y-72763002D01*
X167264977Y-72832500D01*
X167233454Y-72894855D01*
X167214158Y-72911575D01*
X167028597Y-73041505D01*
X166861505Y-73208597D01*
X166725965Y-73402169D01*
X166725964Y-73402171D01*
X166626098Y-73616335D01*
X166626094Y-73616344D01*
X166564938Y-73844586D01*
X166564936Y-73844596D01*
X166544341Y-74079999D01*
X166544341Y-74080000D01*
X166564936Y-74315403D01*
X166564938Y-74315413D01*
X166626094Y-74543655D01*
X166626096Y-74543659D01*
X166626097Y-74543663D01*
X166725965Y-74757830D01*
X166725967Y-74757834D01*
X166861501Y-74951395D01*
X166861506Y-74951402D01*
X167028597Y-75118493D01*
X167028603Y-75118498D01*
X167214158Y-75248425D01*
X167257783Y-75303002D01*
X167264977Y-75372500D01*
X167233454Y-75434855D01*
X167214158Y-75451575D01*
X167028597Y-75581505D01*
X166861505Y-75748597D01*
X166725965Y-75942169D01*
X166725964Y-75942171D01*
X166626098Y-76156335D01*
X166626094Y-76156344D01*
X166564938Y-76384586D01*
X166564936Y-76384596D01*
X166544341Y-76619999D01*
X166544341Y-76620000D01*
X166564936Y-76855403D01*
X166564938Y-76855413D01*
X166626094Y-77083655D01*
X166626096Y-77083659D01*
X166626097Y-77083663D01*
X166725965Y-77297830D01*
X166725967Y-77297834D01*
X166861501Y-77491395D01*
X166861506Y-77491402D01*
X167028597Y-77658493D01*
X167028603Y-77658498D01*
X167214158Y-77788425D01*
X167257783Y-77843002D01*
X167264977Y-77912500D01*
X167233454Y-77974855D01*
X167214158Y-77991575D01*
X167028597Y-78121505D01*
X166861505Y-78288597D01*
X166725965Y-78482169D01*
X166725964Y-78482171D01*
X166626098Y-78696335D01*
X166626094Y-78696344D01*
X166564938Y-78924586D01*
X166564936Y-78924596D01*
X166544341Y-79159999D01*
X166544341Y-79160000D01*
X166564936Y-79395403D01*
X166564938Y-79395413D01*
X166626094Y-79623655D01*
X166626096Y-79623659D01*
X166626097Y-79623663D01*
X166725965Y-79837830D01*
X166725967Y-79837834D01*
X166861501Y-80031395D01*
X166861506Y-80031402D01*
X167028597Y-80198493D01*
X167028603Y-80198498D01*
X167214158Y-80328425D01*
X167257783Y-80383002D01*
X167264977Y-80452500D01*
X167233454Y-80514855D01*
X167214158Y-80531575D01*
X167028597Y-80661505D01*
X166861505Y-80828597D01*
X166725965Y-81022169D01*
X166725964Y-81022171D01*
X166626098Y-81236335D01*
X166626094Y-81236344D01*
X166564938Y-81464586D01*
X166564936Y-81464596D01*
X166544341Y-81699999D01*
X166544341Y-81700000D01*
X166564936Y-81935403D01*
X166564938Y-81935413D01*
X166626094Y-82163655D01*
X166626096Y-82163659D01*
X166626097Y-82163663D01*
X166725965Y-82377830D01*
X166725967Y-82377834D01*
X166861501Y-82571395D01*
X166861506Y-82571402D01*
X167028597Y-82738493D01*
X167028603Y-82738498D01*
X167214158Y-82868425D01*
X167257783Y-82923002D01*
X167264977Y-82992500D01*
X167233454Y-83054855D01*
X167214158Y-83071575D01*
X167028597Y-83201505D01*
X166861505Y-83368597D01*
X166725965Y-83562169D01*
X166725964Y-83562171D01*
X166626098Y-83776335D01*
X166626094Y-83776344D01*
X166564938Y-84004586D01*
X166564936Y-84004596D01*
X166544341Y-84239999D01*
X166544341Y-84240000D01*
X166564936Y-84475403D01*
X166564938Y-84475413D01*
X166626094Y-84703655D01*
X166626096Y-84703659D01*
X166626097Y-84703663D01*
X166670787Y-84799500D01*
X166725965Y-84917830D01*
X166725967Y-84917834D01*
X166802484Y-85027111D01*
X166853170Y-85099498D01*
X166861501Y-85111395D01*
X166861506Y-85111402D01*
X167028597Y-85278493D01*
X167028603Y-85278498D01*
X167214158Y-85408425D01*
X167257783Y-85463002D01*
X167264977Y-85532500D01*
X167233454Y-85594855D01*
X167214158Y-85611575D01*
X167028597Y-85741505D01*
X166861505Y-85908597D01*
X166725965Y-86102169D01*
X166725964Y-86102171D01*
X166626098Y-86316335D01*
X166626094Y-86316344D01*
X166564938Y-86544586D01*
X166564936Y-86544596D01*
X166544341Y-86779999D01*
X166544341Y-86780000D01*
X147258441Y-86780000D01*
X147405871Y-86672886D01*
X147532533Y-86532214D01*
X147627179Y-86368282D01*
X147685674Y-86188254D01*
X147705460Y-85999998D01*
X147685674Y-85811742D01*
X147627179Y-85631714D01*
X147532533Y-85467782D01*
X147405871Y-85327110D01*
X147405870Y-85327109D01*
X147252734Y-85215849D01*
X147252729Y-85215846D01*
X147079807Y-85138855D01*
X147079802Y-85138853D01*
X146934001Y-85107863D01*
X146894646Y-85099498D01*
X146705354Y-85099498D01*
X146672897Y-85106396D01*
X146520197Y-85138853D01*
X146520192Y-85138855D01*
X146347270Y-85215846D01*
X146347265Y-85215849D01*
X146194129Y-85327109D01*
X146067466Y-85467783D01*
X145972821Y-85631713D01*
X145972818Y-85631720D01*
X145914327Y-85811738D01*
X145914326Y-85811742D01*
X145894540Y-85999998D01*
X145349367Y-85999998D01*
X145385674Y-85888256D01*
X145405460Y-85700000D01*
X145385674Y-85511744D01*
X145327179Y-85331716D01*
X145232533Y-85167784D01*
X145105871Y-85027112D01*
X145105870Y-85027111D01*
X144952734Y-84915851D01*
X144952729Y-84915848D01*
X144779807Y-84838857D01*
X144779802Y-84838855D01*
X144634001Y-84807865D01*
X144594646Y-84799500D01*
X144405354Y-84799500D01*
X144372897Y-84806398D01*
X144220197Y-84838855D01*
X144220192Y-84838857D01*
X144047270Y-84915848D01*
X144047265Y-84915851D01*
X143894129Y-85027111D01*
X143767466Y-85167785D01*
X143672821Y-85331715D01*
X143672818Y-85331722D01*
X143614327Y-85511740D01*
X143614326Y-85511744D01*
X143594540Y-85700000D01*
X121017133Y-85700000D01*
X121052730Y-85684151D01*
X121205871Y-85572888D01*
X121332533Y-85432216D01*
X121427179Y-85268284D01*
X121485674Y-85088256D01*
X121505460Y-84900000D01*
X121485674Y-84711744D01*
X121481858Y-84700000D01*
X148894540Y-84700000D01*
X148914326Y-84888256D01*
X148914327Y-84888259D01*
X148972818Y-85068277D01*
X148972821Y-85068284D01*
X149067467Y-85232216D01*
X149157063Y-85331722D01*
X149194129Y-85372888D01*
X149347265Y-85484148D01*
X149347270Y-85484151D01*
X149520192Y-85561142D01*
X149520197Y-85561144D01*
X149705354Y-85600500D01*
X149705355Y-85600500D01*
X149894644Y-85600500D01*
X149894646Y-85600500D01*
X150079803Y-85561144D01*
X150252730Y-85484151D01*
X150405871Y-85372888D01*
X150532533Y-85232216D01*
X150627179Y-85068284D01*
X150685674Y-84888256D01*
X150705460Y-84700000D01*
X150685674Y-84511744D01*
X150627179Y-84331716D01*
X150532533Y-84167784D01*
X150405871Y-84027112D01*
X150405870Y-84027111D01*
X150252734Y-83915851D01*
X150252729Y-83915848D01*
X150079807Y-83838857D01*
X150079802Y-83838855D01*
X149934001Y-83807865D01*
X149894646Y-83799500D01*
X149705354Y-83799500D01*
X149672897Y-83806398D01*
X149520197Y-83838855D01*
X149520192Y-83838857D01*
X149347270Y-83915848D01*
X149347265Y-83915851D01*
X149194129Y-84027111D01*
X149067466Y-84167785D01*
X148972821Y-84331715D01*
X148972818Y-84331722D01*
X148914327Y-84511740D01*
X148914326Y-84511744D01*
X148894540Y-84700000D01*
X121481858Y-84700000D01*
X121427179Y-84531716D01*
X121332533Y-84367784D01*
X121205871Y-84227112D01*
X121205870Y-84227111D01*
X121052734Y-84115851D01*
X121052729Y-84115848D01*
X120879807Y-84038857D01*
X120879802Y-84038855D01*
X120718574Y-84004586D01*
X120694646Y-83999500D01*
X120505354Y-83999500D01*
X120481426Y-84004586D01*
X120320197Y-84038855D01*
X120320192Y-84038857D01*
X120147270Y-84115848D01*
X120147265Y-84115851D01*
X119994129Y-84227111D01*
X119867466Y-84367785D01*
X119772821Y-84531715D01*
X119772818Y-84531722D01*
X119716951Y-84703664D01*
X119714326Y-84711744D01*
X119694540Y-84900000D01*
X103882349Y-84900000D01*
X103973903Y-84703663D01*
X104035063Y-84475408D01*
X104055659Y-84240000D01*
X104035063Y-84004592D01*
X103988626Y-83831285D01*
X103973905Y-83776344D01*
X103973904Y-83776343D01*
X103973903Y-83776337D01*
X103874035Y-83562171D01*
X103738495Y-83368599D01*
X103738494Y-83368597D01*
X103571402Y-83201506D01*
X103571396Y-83201501D01*
X103385842Y-83071575D01*
X103342217Y-83016998D01*
X103335023Y-82947500D01*
X103366546Y-82885145D01*
X103385842Y-82868425D01*
X103408026Y-82852891D01*
X103571401Y-82738495D01*
X103738495Y-82571401D01*
X103874035Y-82377830D01*
X103973903Y-82163663D01*
X104035063Y-81935408D01*
X104055659Y-81700000D01*
X104035063Y-81464592D01*
X103973903Y-81236337D01*
X103874035Y-81022171D01*
X103738495Y-80828599D01*
X103738494Y-80828597D01*
X103571402Y-80661506D01*
X103571396Y-80661501D01*
X103385842Y-80531575D01*
X103342217Y-80476998D01*
X103335023Y-80407500D01*
X103366546Y-80345145D01*
X103385842Y-80328425D01*
X103408026Y-80312891D01*
X103571401Y-80198495D01*
X103738495Y-80031401D01*
X103874035Y-79837830D01*
X103973903Y-79623663D01*
X104035063Y-79395408D01*
X104055659Y-79160000D01*
X104035063Y-78924592D01*
X103988626Y-78751285D01*
X103973905Y-78696344D01*
X103973904Y-78696343D01*
X103973903Y-78696337D01*
X103874035Y-78482171D01*
X103769035Y-78332214D01*
X103738494Y-78288597D01*
X103571402Y-78121506D01*
X103571396Y-78121501D01*
X103397874Y-78000000D01*
X130094540Y-78000000D01*
X130114326Y-78188256D01*
X130114327Y-78188259D01*
X130172818Y-78368277D01*
X130172821Y-78368284D01*
X130267467Y-78532216D01*
X130314227Y-78584148D01*
X130394129Y-78672888D01*
X130547265Y-78784148D01*
X130547270Y-78784151D01*
X130720192Y-78861142D01*
X130720197Y-78861144D01*
X130905354Y-78900500D01*
X130905355Y-78900500D01*
X131094644Y-78900500D01*
X131094646Y-78900500D01*
X131279803Y-78861144D01*
X131452730Y-78784151D01*
X131605871Y-78672888D01*
X131732533Y-78532216D01*
X131827179Y-78368284D01*
X131885674Y-78188256D01*
X131905460Y-78000000D01*
X131885674Y-77811744D01*
X131881858Y-77800000D01*
X142007040Y-77800000D01*
X142026826Y-77988256D01*
X142026827Y-77988259D01*
X142085318Y-78168277D01*
X142085321Y-78168284D01*
X142179967Y-78332216D01*
X142212437Y-78368277D01*
X142306629Y-78472888D01*
X142459765Y-78584148D01*
X142459770Y-78584151D01*
X142632692Y-78661142D01*
X142632697Y-78661144D01*
X142817854Y-78700500D01*
X142817855Y-78700500D01*
X143007144Y-78700500D01*
X143007146Y-78700500D01*
X143192303Y-78661144D01*
X143365230Y-78584151D01*
X143518371Y-78472888D01*
X143645033Y-78332216D01*
X143739679Y-78168284D01*
X143798174Y-77988256D01*
X143817960Y-77800000D01*
X143798174Y-77611744D01*
X143743612Y-77443823D01*
X143739681Y-77431722D01*
X143739680Y-77431721D01*
X143739679Y-77431716D01*
X143645033Y-77267784D01*
X143518371Y-77127112D01*
X143518370Y-77127111D01*
X143365234Y-77015851D01*
X143365229Y-77015848D01*
X143192307Y-76938857D01*
X143192302Y-76938855D01*
X143046501Y-76907865D01*
X143007146Y-76899500D01*
X142817854Y-76899500D01*
X142785397Y-76906398D01*
X142632697Y-76938855D01*
X142632692Y-76938857D01*
X142459770Y-77015848D01*
X142459765Y-77015851D01*
X142306629Y-77127111D01*
X142179966Y-77267785D01*
X142085321Y-77431715D01*
X142085318Y-77431722D01*
X142039451Y-77572888D01*
X142026826Y-77611744D01*
X142007040Y-77800000D01*
X131881858Y-77800000D01*
X131827179Y-77631716D01*
X131732533Y-77467784D01*
X131605871Y-77327112D01*
X131605870Y-77327111D01*
X131452734Y-77215851D01*
X131452729Y-77215848D01*
X131279807Y-77138857D01*
X131279802Y-77138855D01*
X131134001Y-77107865D01*
X131094646Y-77099500D01*
X130905354Y-77099500D01*
X130872897Y-77106398D01*
X130720197Y-77138855D01*
X130720192Y-77138857D01*
X130547270Y-77215848D01*
X130547265Y-77215851D01*
X130394129Y-77327111D01*
X130267466Y-77467785D01*
X130172821Y-77631715D01*
X130172818Y-77631722D01*
X130120080Y-77794035D01*
X130114326Y-77811744D01*
X130094540Y-78000000D01*
X103397874Y-78000000D01*
X103385842Y-77991575D01*
X103342217Y-77936998D01*
X103335023Y-77867500D01*
X103366546Y-77805145D01*
X103385842Y-77788425D01*
X103534760Y-77684151D01*
X103571401Y-77658495D01*
X103738495Y-77491401D01*
X103874035Y-77297830D01*
X103973903Y-77083663D01*
X104023115Y-76900000D01*
X125494540Y-76900000D01*
X125514326Y-77088256D01*
X125514327Y-77088259D01*
X125572818Y-77268277D01*
X125572821Y-77268284D01*
X125667467Y-77432216D01*
X125794129Y-77572888D01*
X125947265Y-77684148D01*
X125947270Y-77684151D01*
X126120192Y-77761142D01*
X126120197Y-77761144D01*
X126305354Y-77800500D01*
X126305355Y-77800500D01*
X126494644Y-77800500D01*
X126494646Y-77800500D01*
X126679803Y-77761144D01*
X126852730Y-77684151D01*
X127005871Y-77572888D01*
X127132533Y-77432216D01*
X127227179Y-77268284D01*
X127285674Y-77088256D01*
X127305460Y-76900000D01*
X127285674Y-76711744D01*
X127227179Y-76531716D01*
X127132533Y-76367784D01*
X127005871Y-76227112D01*
X127005870Y-76227111D01*
X126852734Y-76115851D01*
X126852729Y-76115848D01*
X126679807Y-76038857D01*
X126679802Y-76038855D01*
X126534001Y-76007865D01*
X126494646Y-75999500D01*
X126305354Y-75999500D01*
X126272897Y-76006398D01*
X126120197Y-76038855D01*
X126120192Y-76038857D01*
X125947270Y-76115848D01*
X125947265Y-76115851D01*
X125794129Y-76227111D01*
X125667466Y-76367785D01*
X125572821Y-76531715D01*
X125572818Y-76531722D01*
X125514327Y-76711740D01*
X125514326Y-76711744D01*
X125494540Y-76900000D01*
X104023115Y-76900000D01*
X104035063Y-76855408D01*
X104055659Y-76620000D01*
X104035063Y-76384592D01*
X103973903Y-76156337D01*
X103874035Y-75942171D01*
X103738495Y-75748599D01*
X103738494Y-75748597D01*
X103571402Y-75581506D01*
X103571396Y-75581501D01*
X103385842Y-75451575D01*
X103342217Y-75396998D01*
X103335023Y-75327500D01*
X103366546Y-75265145D01*
X103385842Y-75248425D01*
X103408026Y-75232891D01*
X103571401Y-75118495D01*
X103738495Y-74951401D01*
X103874035Y-74757830D01*
X103973903Y-74543663D01*
X104035063Y-74315408D01*
X104055659Y-74080000D01*
X104035063Y-73844592D01*
X103973903Y-73616337D01*
X103874035Y-73402171D01*
X103738495Y-73208599D01*
X103738494Y-73208597D01*
X103571402Y-73041506D01*
X103571396Y-73041501D01*
X103385842Y-72911575D01*
X103342217Y-72856998D01*
X103335023Y-72787500D01*
X103366546Y-72725145D01*
X103385842Y-72708425D01*
X103408026Y-72692891D01*
X103571401Y-72578495D01*
X103738495Y-72411401D01*
X103874035Y-72217830D01*
X103973903Y-72003663D01*
X103974884Y-72000000D01*
X110094659Y-72000000D01*
X110113975Y-72196129D01*
X110171188Y-72384733D01*
X110264086Y-72558532D01*
X110264090Y-72558539D01*
X110389116Y-72710883D01*
X110541460Y-72835909D01*
X110541467Y-72835913D01*
X110715266Y-72928811D01*
X110715269Y-72928811D01*
X110715273Y-72928814D01*
X110903868Y-72986024D01*
X111100000Y-73005341D01*
X111296132Y-72986024D01*
X111484727Y-72928814D01*
X111527475Y-72905965D01*
X111658532Y-72835913D01*
X111658538Y-72835910D01*
X111810883Y-72710883D01*
X111935910Y-72558538D01*
X112014556Y-72411402D01*
X112028811Y-72384733D01*
X112028811Y-72384732D01*
X112028814Y-72384727D01*
X112086024Y-72196132D01*
X112105341Y-72000000D01*
X112086024Y-71803868D01*
X112028814Y-71615273D01*
X112028811Y-71615269D01*
X112028811Y-71615266D01*
X111935913Y-71441467D01*
X111935909Y-71441460D01*
X111810883Y-71289116D01*
X111658539Y-71164090D01*
X111658532Y-71164086D01*
X111484733Y-71071188D01*
X111484727Y-71071186D01*
X111296132Y-71013976D01*
X111296129Y-71013975D01*
X111100000Y-70994659D01*
X110903870Y-71013975D01*
X110715266Y-71071188D01*
X110541467Y-71164086D01*
X110541460Y-71164090D01*
X110389116Y-71289116D01*
X110264090Y-71441460D01*
X110264086Y-71441467D01*
X110171188Y-71615266D01*
X110113975Y-71803870D01*
X110094659Y-72000000D01*
X103974884Y-72000000D01*
X104035063Y-71775408D01*
X104055659Y-71540000D01*
X104035063Y-71304592D01*
X103973903Y-71076337D01*
X103874035Y-70862171D01*
X103847307Y-70824000D01*
X103738496Y-70668600D01*
X103738495Y-70668599D01*
X103616179Y-70546283D01*
X103582696Y-70484963D01*
X103587680Y-70415271D01*
X103629551Y-70359337D01*
X103660529Y-70342422D01*
X103792086Y-70293354D01*
X103792093Y-70293350D01*
X103907187Y-70207190D01*
X103907190Y-70207187D01*
X103993350Y-70092093D01*
X103993354Y-70092086D01*
X104043596Y-69957379D01*
X104043598Y-69957372D01*
X104049999Y-69897844D01*
X104050000Y-69897827D01*
X104050000Y-69850000D01*
X148444659Y-69850000D01*
X148463975Y-70046129D01*
X148463976Y-70046132D01*
X148505901Y-70184341D01*
X148521188Y-70234733D01*
X148614086Y-70408532D01*
X148614090Y-70408539D01*
X148739116Y-70560883D01*
X148891460Y-70685909D01*
X148891467Y-70685913D01*
X149065266Y-70778811D01*
X149065269Y-70778811D01*
X149065273Y-70778814D01*
X149253868Y-70836024D01*
X149450000Y-70855341D01*
X149646132Y-70836024D01*
X149834727Y-70778814D01*
X150008538Y-70685910D01*
X150160883Y-70560883D01*
X150285910Y-70408538D01*
X150347479Y-70293350D01*
X150378811Y-70234733D01*
X150378811Y-70234732D01*
X150378814Y-70234727D01*
X150436024Y-70046132D01*
X150455341Y-69850000D01*
X150436024Y-69653868D01*
X150378814Y-69465273D01*
X150378811Y-69465269D01*
X150378811Y-69465266D01*
X150285913Y-69291467D01*
X150285909Y-69291460D01*
X150160883Y-69139116D01*
X150008539Y-69014090D01*
X150008532Y-69014086D01*
X149834733Y-68921188D01*
X149834727Y-68921186D01*
X149646132Y-68863976D01*
X149646129Y-68863975D01*
X149450000Y-68844659D01*
X149253870Y-68863975D01*
X149065266Y-68921188D01*
X148891467Y-69014086D01*
X148891460Y-69014090D01*
X148739116Y-69139116D01*
X148614090Y-69291460D01*
X148614086Y-69291467D01*
X148521188Y-69465266D01*
X148463975Y-69653870D01*
X148444659Y-69850000D01*
X104050000Y-69850000D01*
X104050000Y-69250000D01*
X103133686Y-69250000D01*
X103159493Y-69209844D01*
X103200000Y-69071889D01*
X103200000Y-68928111D01*
X103159493Y-68790156D01*
X103133686Y-68750000D01*
X104050000Y-68750000D01*
X104050000Y-68102172D01*
X104049999Y-68102155D01*
X104043598Y-68042627D01*
X104043596Y-68042620D01*
X103993354Y-67907913D01*
X103993350Y-67907906D01*
X103907190Y-67792812D01*
X103907187Y-67792809D01*
X103792093Y-67706649D01*
X103792086Y-67706645D01*
X103657379Y-67656403D01*
X103657372Y-67656401D01*
X103597844Y-67650000D01*
X102950000Y-67650000D01*
X102950000Y-68564498D01*
X102842315Y-68515320D01*
X102735763Y-68500000D01*
X102664237Y-68500000D01*
X102557685Y-68515320D01*
X102450000Y-68564498D01*
X102450000Y-67650000D01*
X101802155Y-67650000D01*
X101742627Y-67656401D01*
X101742620Y-67656403D01*
X101607913Y-67706645D01*
X101607906Y-67706649D01*
X101492812Y-67792809D01*
X101492809Y-67792812D01*
X101406649Y-67907906D01*
X101406645Y-67907913D01*
X101356403Y-68042620D01*
X101356401Y-68042627D01*
X101350000Y-68102155D01*
X101350000Y-68750000D01*
X102266314Y-68750000D01*
X102240507Y-68790156D01*
X102200000Y-68928111D01*
X102200000Y-69071889D01*
X102240507Y-69209844D01*
X102266314Y-69250000D01*
X101350000Y-69250000D01*
X101350000Y-69897844D01*
X101356401Y-69957372D01*
X101356403Y-69957379D01*
X101406645Y-70092086D01*
X101406649Y-70092093D01*
X101492809Y-70207187D01*
X101492812Y-70207190D01*
X101607906Y-70293350D01*
X101607913Y-70293354D01*
X101739470Y-70342421D01*
X101795403Y-70384292D01*
X101819821Y-70449756D01*
X101804970Y-70518029D01*
X101783819Y-70546284D01*
X101661503Y-70668600D01*
X101525965Y-70862169D01*
X101525964Y-70862171D01*
X101426098Y-71076335D01*
X101426094Y-71076344D01*
X101364938Y-71304586D01*
X101364936Y-71304596D01*
X101344341Y-71539999D01*
X101344341Y-71540000D01*
X101364936Y-71775403D01*
X101364938Y-71775413D01*
X101426094Y-72003655D01*
X101426096Y-72003659D01*
X101426097Y-72003663D01*
X101515846Y-72196129D01*
X101525965Y-72217830D01*
X101525967Y-72217834D01*
X101661501Y-72411395D01*
X101661506Y-72411402D01*
X101828597Y-72578493D01*
X101828603Y-72578498D01*
X102014158Y-72708425D01*
X102057783Y-72763002D01*
X102064977Y-72832500D01*
X102033454Y-72894855D01*
X102014158Y-72911575D01*
X101828597Y-73041505D01*
X101661505Y-73208597D01*
X101525965Y-73402169D01*
X101525964Y-73402171D01*
X101426098Y-73616335D01*
X101426094Y-73616344D01*
X101364938Y-73844586D01*
X101364936Y-73844596D01*
X101344341Y-74079999D01*
X101344341Y-74080000D01*
X101364936Y-74315403D01*
X101364938Y-74315413D01*
X101426094Y-74543655D01*
X101426096Y-74543659D01*
X101426097Y-74543663D01*
X101525965Y-74757830D01*
X101525967Y-74757834D01*
X101661501Y-74951395D01*
X101661506Y-74951402D01*
X101828597Y-75118493D01*
X101828603Y-75118498D01*
X102014158Y-75248425D01*
X102057783Y-75303002D01*
X102064977Y-75372500D01*
X102033454Y-75434855D01*
X102014158Y-75451575D01*
X101828597Y-75581505D01*
X101661505Y-75748597D01*
X101525965Y-75942169D01*
X101525964Y-75942171D01*
X101426098Y-76156335D01*
X101426094Y-76156344D01*
X101364938Y-76384586D01*
X101364936Y-76384596D01*
X101344341Y-76619999D01*
X101344341Y-76620000D01*
X101364936Y-76855403D01*
X101364938Y-76855413D01*
X101426094Y-77083655D01*
X101426096Y-77083659D01*
X101426097Y-77083663D01*
X101525965Y-77297830D01*
X101525967Y-77297834D01*
X101661501Y-77491395D01*
X101661506Y-77491402D01*
X101828597Y-77658493D01*
X101828603Y-77658498D01*
X102014158Y-77788425D01*
X102057783Y-77843002D01*
X102064977Y-77912500D01*
X102033454Y-77974855D01*
X102014158Y-77991575D01*
X101828597Y-78121505D01*
X101661505Y-78288597D01*
X101525965Y-78482169D01*
X101525964Y-78482171D01*
X101426098Y-78696335D01*
X101426094Y-78696344D01*
X101364938Y-78924586D01*
X101364936Y-78924596D01*
X101344341Y-79159999D01*
X101344341Y-79160000D01*
X101364936Y-79395403D01*
X101364938Y-79395413D01*
X101426094Y-79623655D01*
X101426096Y-79623659D01*
X101426097Y-79623663D01*
X101525965Y-79837830D01*
X101525967Y-79837834D01*
X101661501Y-80031395D01*
X101661506Y-80031402D01*
X101828597Y-80198493D01*
X101828603Y-80198498D01*
X102014158Y-80328425D01*
X102057783Y-80383002D01*
X102064977Y-80452500D01*
X102033454Y-80514855D01*
X102014158Y-80531575D01*
X101828597Y-80661505D01*
X101661505Y-80828597D01*
X101525965Y-81022169D01*
X101525964Y-81022171D01*
X101426098Y-81236335D01*
X101426094Y-81236344D01*
X101364938Y-81464586D01*
X101364936Y-81464596D01*
X101344341Y-81699999D01*
X101344341Y-81700000D01*
X101364936Y-81935403D01*
X101364938Y-81935413D01*
X101426094Y-82163655D01*
X101426096Y-82163659D01*
X101426097Y-82163663D01*
X101525965Y-82377830D01*
X101525967Y-82377834D01*
X101661501Y-82571395D01*
X101661506Y-82571402D01*
X101828597Y-82738493D01*
X101828603Y-82738498D01*
X102014158Y-82868425D01*
X102057783Y-82923002D01*
X102064977Y-82992500D01*
X102033454Y-83054855D01*
X102014158Y-83071575D01*
X101828597Y-83201505D01*
X101661505Y-83368597D01*
X101525965Y-83562169D01*
X101525964Y-83562171D01*
X101426098Y-83776335D01*
X101426094Y-83776344D01*
X101364938Y-84004586D01*
X101364936Y-84004596D01*
X101344341Y-84239999D01*
X101344341Y-84240000D01*
X100000500Y-84240000D01*
X100000500Y-67000000D01*
X114644341Y-67000000D01*
X114664936Y-67235403D01*
X114664938Y-67235413D01*
X114726094Y-67463655D01*
X114726096Y-67463659D01*
X114726097Y-67463663D01*
X114815973Y-67656403D01*
X114825965Y-67677830D01*
X114825967Y-67677834D01*
X114846141Y-67706645D01*
X114961505Y-67871401D01*
X115128599Y-68038495D01*
X115219515Y-68102155D01*
X115322165Y-68174032D01*
X115322167Y-68174033D01*
X115322170Y-68174035D01*
X115536337Y-68273903D01*
X115764592Y-68335063D01*
X115952918Y-68351539D01*
X115999999Y-68355659D01*
X116000000Y-68355659D01*
X116000001Y-68355659D01*
X116039234Y-68352226D01*
X116235408Y-68335063D01*
X116463663Y-68273903D01*
X116677830Y-68174035D01*
X116871401Y-68038495D01*
X117038495Y-67871401D01*
X117174035Y-67677830D01*
X117273903Y-67463663D01*
X117335063Y-67235408D01*
X117355659Y-67000000D01*
X120444341Y-67000000D01*
X120464936Y-67235403D01*
X120464938Y-67235413D01*
X120526094Y-67463655D01*
X120526096Y-67463659D01*
X120526097Y-67463663D01*
X120615973Y-67656403D01*
X120625965Y-67677830D01*
X120625967Y-67677834D01*
X120646141Y-67706645D01*
X120761505Y-67871401D01*
X120928599Y-68038495D01*
X121019515Y-68102155D01*
X121122165Y-68174032D01*
X121122167Y-68174033D01*
X121122170Y-68174035D01*
X121336337Y-68273903D01*
X121564592Y-68335063D01*
X121752918Y-68351539D01*
X121799999Y-68355659D01*
X121800000Y-68355659D01*
X121800001Y-68355659D01*
X121839234Y-68352226D01*
X122035408Y-68335063D01*
X122263663Y-68273903D01*
X122477830Y-68174035D01*
X122671401Y-68038495D01*
X122838495Y-67871401D01*
X122974035Y-67677830D01*
X123073903Y-67463663D01*
X123135063Y-67235408D01*
X123155659Y-67000000D01*
X126244341Y-67000000D01*
X126264936Y-67235403D01*
X126264938Y-67235413D01*
X126326094Y-67463655D01*
X126326096Y-67463659D01*
X126326097Y-67463663D01*
X126415973Y-67656403D01*
X126425965Y-67677830D01*
X126425967Y-67677834D01*
X126446141Y-67706645D01*
X126561505Y-67871401D01*
X126728599Y-68038495D01*
X126819515Y-68102155D01*
X126922165Y-68174032D01*
X126922167Y-68174033D01*
X126922170Y-68174035D01*
X127136337Y-68273903D01*
X127364592Y-68335063D01*
X127552918Y-68351539D01*
X127599999Y-68355659D01*
X127600000Y-68355659D01*
X127600001Y-68355659D01*
X127639234Y-68352226D01*
X127835408Y-68335063D01*
X128063663Y-68273903D01*
X128277830Y-68174035D01*
X128471401Y-68038495D01*
X128638495Y-67871401D01*
X128774035Y-67677830D01*
X128873903Y-67463663D01*
X128935063Y-67235408D01*
X128955659Y-67000000D01*
X132044341Y-67000000D01*
X132064936Y-67235403D01*
X132064938Y-67235413D01*
X132126094Y-67463655D01*
X132126096Y-67463659D01*
X132126097Y-67463663D01*
X132215973Y-67656403D01*
X132225965Y-67677830D01*
X132225967Y-67677834D01*
X132246141Y-67706645D01*
X132361505Y-67871401D01*
X132528599Y-68038495D01*
X132619515Y-68102155D01*
X132722165Y-68174032D01*
X132722167Y-68174033D01*
X132722170Y-68174035D01*
X132936337Y-68273903D01*
X133164592Y-68335063D01*
X133352918Y-68351539D01*
X133399999Y-68355659D01*
X133400000Y-68355659D01*
X133400001Y-68355659D01*
X133439234Y-68352226D01*
X133635408Y-68335063D01*
X133863663Y-68273903D01*
X134077830Y-68174035D01*
X134271401Y-68038495D01*
X134438495Y-67871401D01*
X134574035Y-67677830D01*
X134673903Y-67463663D01*
X134735063Y-67235408D01*
X134755659Y-67000001D01*
X137844843Y-67000001D01*
X137865430Y-67235315D01*
X137865432Y-67235326D01*
X137926566Y-67463483D01*
X137926570Y-67463492D01*
X138026400Y-67677579D01*
X138026402Y-67677583D01*
X138085072Y-67761373D01*
X138085073Y-67761373D01*
X138716923Y-67129523D01*
X138740507Y-67209844D01*
X138818239Y-67330798D01*
X138926900Y-67424952D01*
X139057685Y-67484680D01*
X139067466Y-67486086D01*
X138438625Y-68114925D01*
X138522421Y-68173599D01*
X138736507Y-68273429D01*
X138736516Y-68273433D01*
X138964673Y-68334567D01*
X138964684Y-68334569D01*
X139199998Y-68355157D01*
X139200002Y-68355157D01*
X139435315Y-68334569D01*
X139435326Y-68334567D01*
X139663483Y-68273433D01*
X139663492Y-68273429D01*
X139877578Y-68173600D01*
X139877582Y-68173598D01*
X139961373Y-68114926D01*
X139961373Y-68114925D01*
X139332533Y-67486086D01*
X139342315Y-67484680D01*
X139473100Y-67424952D01*
X139581761Y-67330798D01*
X139659493Y-67209844D01*
X139683076Y-67129524D01*
X140314925Y-67761373D01*
X140314926Y-67761373D01*
X140373598Y-67677582D01*
X140373600Y-67677578D01*
X140473429Y-67463492D01*
X140473433Y-67463483D01*
X140534567Y-67235326D01*
X140534569Y-67235315D01*
X140555157Y-67000001D01*
X140555157Y-67000000D01*
X143644341Y-67000000D01*
X143664936Y-67235403D01*
X143664938Y-67235413D01*
X143726094Y-67463655D01*
X143726096Y-67463659D01*
X143726097Y-67463663D01*
X143815973Y-67656403D01*
X143825965Y-67677830D01*
X143825967Y-67677834D01*
X143846141Y-67706645D01*
X143961505Y-67871401D01*
X144128599Y-68038495D01*
X144219515Y-68102155D01*
X144322165Y-68174032D01*
X144322167Y-68174033D01*
X144322170Y-68174035D01*
X144536337Y-68273903D01*
X144764592Y-68335063D01*
X144952918Y-68351539D01*
X144999999Y-68355659D01*
X145000000Y-68355659D01*
X145000001Y-68355659D01*
X145039234Y-68352226D01*
X145235408Y-68335063D01*
X145463663Y-68273903D01*
X145677830Y-68174035D01*
X145871401Y-68038495D01*
X146038495Y-67871401D01*
X146174035Y-67677830D01*
X146273903Y-67463663D01*
X146335063Y-67235408D01*
X146355659Y-67000000D01*
X146335063Y-66764592D01*
X146273903Y-66536337D01*
X146174035Y-66322171D01*
X146115537Y-66238626D01*
X146038494Y-66128597D01*
X145871402Y-65961506D01*
X145871395Y-65961501D01*
X145677834Y-65825967D01*
X145677830Y-65825965D01*
X145677828Y-65825964D01*
X145463663Y-65726097D01*
X145463659Y-65726096D01*
X145463655Y-65726094D01*
X145235413Y-65664938D01*
X145235403Y-65664936D01*
X145000001Y-65644341D01*
X144999999Y-65644341D01*
X144764596Y-65664936D01*
X144764586Y-65664938D01*
X144536344Y-65726094D01*
X144536335Y-65726098D01*
X144322171Y-65825964D01*
X144322169Y-65825965D01*
X144128597Y-65961505D01*
X143961505Y-66128597D01*
X143825965Y-66322169D01*
X143825964Y-66322171D01*
X143726098Y-66536335D01*
X143726094Y-66536344D01*
X143664938Y-66764586D01*
X143664936Y-66764596D01*
X143644341Y-66999999D01*
X143644341Y-67000000D01*
X140555157Y-67000000D01*
X140555157Y-66999998D01*
X140534569Y-66764684D01*
X140534567Y-66764673D01*
X140473433Y-66536516D01*
X140473429Y-66536507D01*
X140373600Y-66322423D01*
X140373599Y-66322421D01*
X140314925Y-66238626D01*
X140314925Y-66238625D01*
X139683076Y-66870475D01*
X139659493Y-66790156D01*
X139581761Y-66669202D01*
X139473100Y-66575048D01*
X139342315Y-66515320D01*
X139332533Y-66513913D01*
X139961373Y-65885073D01*
X139961373Y-65885072D01*
X139877583Y-65826402D01*
X139877579Y-65826400D01*
X139663492Y-65726570D01*
X139663483Y-65726566D01*
X139435326Y-65665432D01*
X139435315Y-65665430D01*
X139200002Y-65644843D01*
X139199998Y-65644843D01*
X138964684Y-65665430D01*
X138964673Y-65665432D01*
X138736516Y-65726566D01*
X138736507Y-65726570D01*
X138522419Y-65826401D01*
X138438625Y-65885072D01*
X139067466Y-66513913D01*
X139057685Y-66515320D01*
X138926900Y-66575048D01*
X138818239Y-66669202D01*
X138740507Y-66790156D01*
X138716923Y-66870475D01*
X138085073Y-66238625D01*
X138085072Y-66238625D01*
X138026401Y-66322419D01*
X137926570Y-66536507D01*
X137926566Y-66536516D01*
X137865432Y-66764673D01*
X137865430Y-66764684D01*
X137844843Y-66999998D01*
X137844843Y-67000001D01*
X134755659Y-67000001D01*
X134755659Y-67000000D01*
X134735063Y-66764592D01*
X134673903Y-66536337D01*
X134574035Y-66322171D01*
X134515537Y-66238626D01*
X134438494Y-66128597D01*
X134271402Y-65961506D01*
X134271395Y-65961501D01*
X134077834Y-65825967D01*
X134077830Y-65825965D01*
X134077828Y-65825964D01*
X133863663Y-65726097D01*
X133863659Y-65726096D01*
X133863655Y-65726094D01*
X133635413Y-65664938D01*
X133635403Y-65664936D01*
X133400001Y-65644341D01*
X133399999Y-65644341D01*
X133164596Y-65664936D01*
X133164586Y-65664938D01*
X132936344Y-65726094D01*
X132936335Y-65726098D01*
X132722171Y-65825964D01*
X132722169Y-65825965D01*
X132528597Y-65961505D01*
X132361505Y-66128597D01*
X132225965Y-66322169D01*
X132225964Y-66322171D01*
X132126098Y-66536335D01*
X132126094Y-66536344D01*
X132064938Y-66764586D01*
X132064936Y-66764596D01*
X132044341Y-66999999D01*
X132044341Y-67000000D01*
X128955659Y-67000000D01*
X128935063Y-66764592D01*
X128873903Y-66536337D01*
X128774035Y-66322171D01*
X128715537Y-66238626D01*
X128638494Y-66128597D01*
X128471402Y-65961506D01*
X128471395Y-65961501D01*
X128277834Y-65825967D01*
X128277830Y-65825965D01*
X128277828Y-65825964D01*
X128063663Y-65726097D01*
X128063659Y-65726096D01*
X128063655Y-65726094D01*
X127835413Y-65664938D01*
X127835403Y-65664936D01*
X127600001Y-65644341D01*
X127599999Y-65644341D01*
X127364596Y-65664936D01*
X127364586Y-65664938D01*
X127136344Y-65726094D01*
X127136335Y-65726098D01*
X126922171Y-65825964D01*
X126922169Y-65825965D01*
X126728597Y-65961505D01*
X126561505Y-66128597D01*
X126425965Y-66322169D01*
X126425964Y-66322171D01*
X126326098Y-66536335D01*
X126326094Y-66536344D01*
X126264938Y-66764586D01*
X126264936Y-66764596D01*
X126244341Y-66999999D01*
X126244341Y-67000000D01*
X123155659Y-67000000D01*
X123135063Y-66764592D01*
X123073903Y-66536337D01*
X122974035Y-66322171D01*
X122915537Y-66238626D01*
X122838494Y-66128597D01*
X122671402Y-65961506D01*
X122671395Y-65961501D01*
X122477834Y-65825967D01*
X122477830Y-65825965D01*
X122477828Y-65825964D01*
X122263663Y-65726097D01*
X122263659Y-65726096D01*
X122263655Y-65726094D01*
X122035413Y-65664938D01*
X122035403Y-65664936D01*
X121800001Y-65644341D01*
X121799999Y-65644341D01*
X121564596Y-65664936D01*
X121564586Y-65664938D01*
X121336344Y-65726094D01*
X121336335Y-65726098D01*
X121122171Y-65825964D01*
X121122169Y-65825965D01*
X120928597Y-65961505D01*
X120761505Y-66128597D01*
X120625965Y-66322169D01*
X120625964Y-66322171D01*
X120526098Y-66536335D01*
X120526094Y-66536344D01*
X120464938Y-66764586D01*
X120464936Y-66764596D01*
X120444341Y-66999999D01*
X120444341Y-67000000D01*
X117355659Y-67000000D01*
X117335063Y-66764592D01*
X117273903Y-66536337D01*
X117174035Y-66322171D01*
X117115537Y-66238626D01*
X117038494Y-66128597D01*
X116871402Y-65961506D01*
X116871395Y-65961501D01*
X116677834Y-65825967D01*
X116677830Y-65825965D01*
X116677828Y-65825964D01*
X116463663Y-65726097D01*
X116463659Y-65726096D01*
X116463655Y-65726094D01*
X116235413Y-65664938D01*
X116235403Y-65664936D01*
X116000001Y-65644341D01*
X115999999Y-65644341D01*
X115764596Y-65664936D01*
X115764586Y-65664938D01*
X115536344Y-65726094D01*
X115536335Y-65726098D01*
X115322171Y-65825964D01*
X115322169Y-65825965D01*
X115128597Y-65961505D01*
X114961505Y-66128597D01*
X114825965Y-66322169D01*
X114825964Y-66322171D01*
X114726098Y-66536335D01*
X114726094Y-66536344D01*
X114664938Y-66764586D01*
X114664936Y-66764596D01*
X114644341Y-66999999D01*
X114644341Y-67000000D01*
X100000500Y-67000000D01*
X100000500Y-63824002D01*
X152986500Y-63824002D01*
X152998234Y-63933150D01*
X153009620Y-63985492D01*
X153044288Y-64089653D01*
X153044289Y-64089655D01*
X153044290Y-64089657D01*
X153092125Y-64164090D01*
X153123310Y-64212615D01*
X153123313Y-64212618D01*
X153168705Y-64265004D01*
X153169601Y-64266096D01*
X153280256Y-64361979D01*
X153280259Y-64361980D01*
X153280261Y-64361982D01*
X153413210Y-64422698D01*
X153481331Y-64442700D01*
X153626000Y-64463500D01*
X156762500Y-64463500D01*
X156829539Y-64483185D01*
X156875294Y-64535989D01*
X156886500Y-64587500D01*
X156886500Y-68212500D01*
X156866815Y-68279539D01*
X156814011Y-68325294D01*
X156762500Y-68336500D01*
X156425997Y-68336500D01*
X156316849Y-68348234D01*
X156264507Y-68359620D01*
X156160346Y-68394288D01*
X156160343Y-68394290D01*
X156037388Y-68473308D01*
X156037387Y-68473309D01*
X155984996Y-68518705D01*
X155983903Y-68519601D01*
X155888020Y-68630256D01*
X155888017Y-68630262D01*
X155827303Y-68763207D01*
X155807301Y-68831326D01*
X155807298Y-68831338D01*
X155786500Y-68975999D01*
X155786500Y-70824002D01*
X155798234Y-70933150D01*
X155809620Y-70985492D01*
X155844288Y-71089653D01*
X155844289Y-71089655D01*
X155844290Y-71089657D01*
X155895758Y-71169743D01*
X155923310Y-71212615D01*
X155923313Y-71212618D01*
X155968705Y-71265004D01*
X155969601Y-71266096D01*
X156080256Y-71361979D01*
X156080259Y-71361980D01*
X156080261Y-71361982D01*
X156213210Y-71422698D01*
X156281331Y-71442700D01*
X156426000Y-71463500D01*
X156426003Y-71463500D01*
X158074000Y-71463500D01*
X158183149Y-71451766D01*
X158235491Y-71440380D01*
X158339657Y-71405710D01*
X158462612Y-71326692D01*
X158515035Y-71281267D01*
X158516101Y-71280393D01*
X158611979Y-71169743D01*
X158611979Y-71169741D01*
X158611982Y-71169739D01*
X158672698Y-71036790D01*
X158692700Y-70968669D01*
X158713500Y-70824000D01*
X158713500Y-65000000D01*
X159894659Y-65000000D01*
X159913975Y-65196129D01*
X159971188Y-65384733D01*
X160064086Y-65558532D01*
X160064090Y-65558539D01*
X160189116Y-65710883D01*
X160341460Y-65835909D01*
X160341467Y-65835913D01*
X160515266Y-65928811D01*
X160515269Y-65928811D01*
X160515273Y-65928814D01*
X160703868Y-65986024D01*
X160900000Y-66005341D01*
X161096132Y-65986024D01*
X161284727Y-65928814D01*
X161458538Y-65835910D01*
X161610883Y-65710883D01*
X161735910Y-65558538D01*
X161828814Y-65384727D01*
X161886024Y-65196132D01*
X161905341Y-65000000D01*
X161886024Y-64803868D01*
X161828814Y-64615273D01*
X161828811Y-64615269D01*
X161828811Y-64615266D01*
X161735913Y-64441467D01*
X161735909Y-64441460D01*
X161610883Y-64289116D01*
X161458539Y-64164090D01*
X161458532Y-64164086D01*
X161284733Y-64071188D01*
X161284727Y-64071186D01*
X161096132Y-64013976D01*
X161096129Y-64013975D01*
X160900000Y-63994659D01*
X160703870Y-64013975D01*
X160515266Y-64071188D01*
X160341467Y-64164086D01*
X160341460Y-64164090D01*
X160189116Y-64289116D01*
X160064090Y-64441460D01*
X160064086Y-64441467D01*
X159971188Y-64615266D01*
X159913975Y-64803870D01*
X159894659Y-65000000D01*
X158713500Y-65000000D01*
X158713500Y-61676000D01*
X158701766Y-61566851D01*
X158690380Y-61514509D01*
X158655710Y-61410343D01*
X158576692Y-61287388D01*
X158531285Y-61234986D01*
X158530394Y-61233900D01*
X158419743Y-61138020D01*
X158419737Y-61138017D01*
X158286792Y-61077303D01*
X158286790Y-61077302D01*
X158238914Y-61063244D01*
X158218673Y-61057301D01*
X158218661Y-61057298D01*
X158074000Y-61036500D01*
X157526000Y-61036500D01*
X157525997Y-61036500D01*
X157416849Y-61048234D01*
X157364507Y-61059620D01*
X157260346Y-61094288D01*
X157260343Y-61094290D01*
X157137388Y-61173308D01*
X157137387Y-61173309D01*
X157084996Y-61218705D01*
X157083903Y-61219601D01*
X156988020Y-61330256D01*
X156988017Y-61330262D01*
X156927303Y-61463207D01*
X156907301Y-61531326D01*
X156907298Y-61531338D01*
X156886500Y-61675999D01*
X156886500Y-62612500D01*
X156866815Y-62679539D01*
X156814011Y-62725294D01*
X156762500Y-62736500D01*
X155937500Y-62736500D01*
X155870461Y-62716815D01*
X155824706Y-62664011D01*
X155813500Y-62612500D01*
X155813500Y-62365119D01*
X155810000Y-62338538D01*
X155796001Y-62232210D01*
X155779119Y-62169209D01*
X155747693Y-62093342D01*
X155746013Y-62088786D01*
X155715528Y-61994965D01*
X155710140Y-61969617D01*
X155704185Y-61912957D01*
X155704185Y-61887038D01*
X155710140Y-61830377D01*
X155715527Y-61805030D01*
X155746006Y-61711229D01*
X155747681Y-61706686D01*
X155779124Y-61630778D01*
X155796004Y-61567779D01*
X155813500Y-61434879D01*
X155813500Y-61265120D01*
X155796001Y-61132210D01*
X155779119Y-61069209D01*
X155747693Y-60993342D01*
X155746013Y-60988786D01*
X155715528Y-60894965D01*
X155710140Y-60869617D01*
X155704185Y-60812957D01*
X155704185Y-60787038D01*
X155710140Y-60730377D01*
X155715527Y-60705030D01*
X155746006Y-60611229D01*
X155747681Y-60606686D01*
X155779124Y-60530778D01*
X155796004Y-60467779D01*
X155813500Y-60334879D01*
X155813500Y-59076000D01*
X155801766Y-58966851D01*
X155790380Y-58914509D01*
X155755710Y-58810343D01*
X155676692Y-58687388D01*
X155631285Y-58634986D01*
X155630394Y-58633900D01*
X155519743Y-58538020D01*
X155519737Y-58538017D01*
X155423984Y-58494288D01*
X155386790Y-58477302D01*
X155338914Y-58463244D01*
X155318673Y-58457301D01*
X155318661Y-58457298D01*
X155174000Y-58436500D01*
X153626000Y-58436500D01*
X153625997Y-58436500D01*
X153516849Y-58448234D01*
X153464507Y-58459620D01*
X153360346Y-58494288D01*
X153360343Y-58494290D01*
X153237388Y-58573308D01*
X153237387Y-58573309D01*
X153184996Y-58618705D01*
X153183903Y-58619601D01*
X153088020Y-58730256D01*
X153088017Y-58730262D01*
X153027303Y-58863207D01*
X153007301Y-58931326D01*
X153007298Y-58931338D01*
X152986500Y-59075999D01*
X152986500Y-63824002D01*
X100000500Y-63824002D01*
X100000500Y-57016469D01*
X100005336Y-57000000D01*
X112594540Y-57000000D01*
X112614326Y-57188256D01*
X112614327Y-57188259D01*
X112672818Y-57368277D01*
X112672821Y-57368284D01*
X112767467Y-57532216D01*
X112864889Y-57640414D01*
X112894129Y-57672888D01*
X113047265Y-57784148D01*
X113047270Y-57784151D01*
X113220192Y-57861142D01*
X113220197Y-57861144D01*
X113405354Y-57900500D01*
X113405355Y-57900500D01*
X113594644Y-57900500D01*
X113594646Y-57900500D01*
X113779803Y-57861144D01*
X113952730Y-57784151D01*
X114105871Y-57672888D01*
X114232533Y-57532216D01*
X114327179Y-57368284D01*
X114385674Y-57188256D01*
X114405460Y-57000000D01*
X114385674Y-56811744D01*
X114327179Y-56631716D01*
X114232533Y-56467784D01*
X114105871Y-56327112D01*
X114105870Y-56327111D01*
X113952734Y-56215851D01*
X113952729Y-56215848D01*
X113779807Y-56138857D01*
X113779802Y-56138855D01*
X113634001Y-56107865D01*
X113594646Y-56099500D01*
X113405354Y-56099500D01*
X113372897Y-56106398D01*
X113220197Y-56138855D01*
X113220192Y-56138857D01*
X113047270Y-56215848D01*
X113047265Y-56215851D01*
X112894129Y-56327111D01*
X112767466Y-56467785D01*
X112672821Y-56631715D01*
X112672818Y-56631722D01*
X112621505Y-56789649D01*
X112614326Y-56811744D01*
X112594540Y-57000000D01*
X100005336Y-57000000D01*
X100020185Y-56949430D01*
X100072989Y-56903675D01*
X100142145Y-56893731D01*
X100224000Y-56905500D01*
X100224003Y-56905500D01*
X109975990Y-56905500D01*
X109976000Y-56905500D01*
X110083456Y-56893947D01*
X110134967Y-56882741D01*
X110169197Y-56871347D01*
X110237497Y-56848616D01*
X110237501Y-56848613D01*
X110237504Y-56848613D01*
X110358543Y-56770825D01*
X110411347Y-56725070D01*
X110505567Y-56616336D01*
X110565338Y-56485459D01*
X110580164Y-56434967D01*
X110585022Y-56418425D01*
X110585023Y-56418419D01*
X110585024Y-56418416D01*
X110605500Y-56276000D01*
X110605500Y-55735000D01*
X128944341Y-55735000D01*
X128964936Y-55970403D01*
X128964938Y-55970413D01*
X129026094Y-56198655D01*
X129026096Y-56198659D01*
X129026097Y-56198663D01*
X129085994Y-56327112D01*
X129125965Y-56412830D01*
X129125967Y-56412834D01*
X129184462Y-56496373D01*
X129261504Y-56606400D01*
X129261506Y-56606402D01*
X129383430Y-56728326D01*
X129416915Y-56789649D01*
X129411931Y-56859341D01*
X129370059Y-56915274D01*
X129339083Y-56932189D01*
X129207669Y-56981203D01*
X129207664Y-56981206D01*
X129092455Y-57067452D01*
X129092452Y-57067455D01*
X129006206Y-57182664D01*
X129006202Y-57182671D01*
X128955908Y-57317517D01*
X128949501Y-57377116D01*
X128949501Y-57377123D01*
X128949500Y-57377135D01*
X128949500Y-59172870D01*
X128949501Y-59172876D01*
X128955908Y-59232483D01*
X129006202Y-59367328D01*
X129006206Y-59367335D01*
X129092452Y-59482544D01*
X129092455Y-59482547D01*
X129207664Y-59568793D01*
X129207671Y-59568797D01*
X129342517Y-59619091D01*
X129342516Y-59619091D01*
X129349444Y-59619835D01*
X129402127Y-59625500D01*
X131197872Y-59625499D01*
X131257483Y-59619091D01*
X131392331Y-59568796D01*
X131507546Y-59482546D01*
X131593796Y-59367331D01*
X131644091Y-59232483D01*
X131650500Y-59172873D01*
X131650499Y-59162314D01*
X131670179Y-59095277D01*
X131686818Y-59074628D01*
X132356923Y-58404523D01*
X132380507Y-58484844D01*
X132458239Y-58605798D01*
X132566900Y-58699952D01*
X132697685Y-58759680D01*
X132707466Y-58761086D01*
X132078625Y-59389925D01*
X132162421Y-59448599D01*
X132376507Y-59548429D01*
X132376516Y-59548433D01*
X132604673Y-59609567D01*
X132604684Y-59609569D01*
X132839998Y-59630157D01*
X132840002Y-59630157D01*
X133075315Y-59609569D01*
X133075326Y-59609567D01*
X133303483Y-59548433D01*
X133303492Y-59548429D01*
X133517578Y-59448600D01*
X133517582Y-59448598D01*
X133601373Y-59389926D01*
X133601373Y-59389925D01*
X132972533Y-58761086D01*
X132982315Y-58759680D01*
X133113100Y-58699952D01*
X133221761Y-58605798D01*
X133299493Y-58484844D01*
X133323076Y-58404524D01*
X133954925Y-59036373D01*
X134008425Y-58959968D01*
X134063002Y-58916344D01*
X134132501Y-58909151D01*
X134194855Y-58940673D01*
X134211576Y-58959969D01*
X134265073Y-59036372D01*
X134896922Y-58404523D01*
X134920507Y-58484844D01*
X134998239Y-58605798D01*
X135106900Y-58699952D01*
X135237685Y-58759680D01*
X135247466Y-58761086D01*
X134618625Y-59389925D01*
X134702421Y-59448599D01*
X134916507Y-59548429D01*
X134916516Y-59548433D01*
X135144673Y-59609567D01*
X135144684Y-59609569D01*
X135379998Y-59630157D01*
X135380002Y-59630157D01*
X135615315Y-59609569D01*
X135615326Y-59609567D01*
X135843483Y-59548433D01*
X135843492Y-59548429D01*
X136057578Y-59448600D01*
X136057582Y-59448598D01*
X136141373Y-59389926D01*
X136141373Y-59389925D01*
X135512533Y-58761086D01*
X135522315Y-58759680D01*
X135653100Y-58699952D01*
X135761761Y-58605798D01*
X135839493Y-58484844D01*
X135863076Y-58404524D01*
X136494925Y-59036373D01*
X136548425Y-58959968D01*
X136603002Y-58916344D01*
X136672501Y-58909151D01*
X136734855Y-58940673D01*
X136751576Y-58959969D01*
X136805073Y-59036372D01*
X137436922Y-58404523D01*
X137460507Y-58484844D01*
X137538239Y-58605798D01*
X137646900Y-58699952D01*
X137777685Y-58759680D01*
X137787466Y-58761086D01*
X137158625Y-59389925D01*
X137242421Y-59448599D01*
X137456507Y-59548429D01*
X137456516Y-59548433D01*
X137684673Y-59609567D01*
X137684684Y-59609569D01*
X137919998Y-59630157D01*
X137920002Y-59630157D01*
X138155315Y-59609569D01*
X138155326Y-59609567D01*
X138383483Y-59548433D01*
X138383492Y-59548429D01*
X138597578Y-59448600D01*
X138597582Y-59448598D01*
X138681373Y-59389926D01*
X138681373Y-59389925D01*
X138052533Y-58761086D01*
X138062315Y-58759680D01*
X138193100Y-58699952D01*
X138301761Y-58605798D01*
X138379493Y-58484844D01*
X138403076Y-58404524D01*
X139034925Y-59036373D01*
X139088119Y-58960405D01*
X139142696Y-58916781D01*
X139212195Y-58909588D01*
X139274549Y-58941110D01*
X139291269Y-58960405D01*
X139421505Y-59146401D01*
X139588599Y-59313495D01*
X139685384Y-59381265D01*
X139782165Y-59449032D01*
X139782167Y-59449033D01*
X139782170Y-59449035D01*
X139996337Y-59548903D01*
X140224592Y-59610063D01*
X140401034Y-59625500D01*
X140459999Y-59630659D01*
X140460000Y-59630659D01*
X140460001Y-59630659D01*
X140518966Y-59625500D01*
X140695408Y-59610063D01*
X140923663Y-59548903D01*
X141137830Y-59449035D01*
X141331401Y-59313495D01*
X141498495Y-59146401D01*
X141634035Y-58952830D01*
X141733903Y-58738663D01*
X141795063Y-58510408D01*
X141815659Y-58275000D01*
X141795063Y-58039592D01*
X141733903Y-57811337D01*
X141634035Y-57597171D01*
X141628731Y-57589595D01*
X141498494Y-57403597D01*
X141331402Y-57236506D01*
X141331396Y-57236501D01*
X141145842Y-57106575D01*
X141102217Y-57051998D01*
X141095023Y-56982500D01*
X141126546Y-56920145D01*
X141145842Y-56903425D01*
X141258054Y-56824853D01*
X141331401Y-56773495D01*
X141498495Y-56606401D01*
X141634035Y-56412830D01*
X141733903Y-56198663D01*
X141795063Y-55970408D01*
X141815659Y-55735000D01*
X141795063Y-55499592D01*
X141733903Y-55271337D01*
X141634035Y-55057171D01*
X141628731Y-55049595D01*
X141498494Y-54863597D01*
X141331402Y-54696506D01*
X141331395Y-54696501D01*
X141137834Y-54560967D01*
X141137830Y-54560965D01*
X141137828Y-54560964D01*
X140923663Y-54461097D01*
X140923659Y-54461096D01*
X140923655Y-54461094D01*
X140695413Y-54399938D01*
X140695403Y-54399936D01*
X140460001Y-54379341D01*
X140459999Y-54379341D01*
X140224596Y-54399936D01*
X140224586Y-54399938D01*
X139996344Y-54461094D01*
X139996335Y-54461098D01*
X139782171Y-54560964D01*
X139782169Y-54560965D01*
X139588597Y-54696505D01*
X139421505Y-54863597D01*
X139291269Y-55049595D01*
X139236692Y-55093220D01*
X139167194Y-55100414D01*
X139104839Y-55068891D01*
X139088119Y-55049595D01*
X139034925Y-54973626D01*
X139034925Y-54973625D01*
X138403076Y-55605475D01*
X138379493Y-55525156D01*
X138301761Y-55404202D01*
X138193100Y-55310048D01*
X138062315Y-55250320D01*
X138052533Y-55248913D01*
X138681373Y-54620073D01*
X138681373Y-54620072D01*
X138597583Y-54561402D01*
X138597579Y-54561400D01*
X138383492Y-54461570D01*
X138383483Y-54461566D01*
X138155326Y-54400432D01*
X138155315Y-54400430D01*
X137920002Y-54379843D01*
X137919998Y-54379843D01*
X137684684Y-54400430D01*
X137684673Y-54400432D01*
X137456516Y-54461566D01*
X137456507Y-54461570D01*
X137242419Y-54561401D01*
X137158625Y-54620072D01*
X137787466Y-55248913D01*
X137777685Y-55250320D01*
X137646900Y-55310048D01*
X137538239Y-55404202D01*
X137460507Y-55525156D01*
X137436923Y-55605476D01*
X136805072Y-54973625D01*
X136805072Y-54973626D01*
X136751574Y-55050030D01*
X136696998Y-55093655D01*
X136627499Y-55100849D01*
X136565144Y-55069326D01*
X136548424Y-55050030D01*
X136494925Y-54973626D01*
X136494925Y-54973625D01*
X135863076Y-55605475D01*
X135839493Y-55525156D01*
X135761761Y-55404202D01*
X135653100Y-55310048D01*
X135522315Y-55250320D01*
X135512533Y-55248913D01*
X136141373Y-54620073D01*
X136141373Y-54620072D01*
X136057583Y-54561402D01*
X136057579Y-54561400D01*
X135843492Y-54461570D01*
X135843483Y-54461566D01*
X135615326Y-54400432D01*
X135615315Y-54400430D01*
X135380002Y-54379843D01*
X135379998Y-54379843D01*
X135144684Y-54400430D01*
X135144673Y-54400432D01*
X134916516Y-54461566D01*
X134916507Y-54461570D01*
X134702419Y-54561401D01*
X134618625Y-54620072D01*
X135247466Y-55248913D01*
X135237685Y-55250320D01*
X135106900Y-55310048D01*
X134998239Y-55404202D01*
X134920507Y-55525156D01*
X134896923Y-55605475D01*
X134265073Y-54973625D01*
X134265072Y-54973626D01*
X134211574Y-55050030D01*
X134156998Y-55093655D01*
X134087499Y-55100849D01*
X134025144Y-55069326D01*
X134008424Y-55050030D01*
X133954925Y-54973626D01*
X133954925Y-54973625D01*
X133323076Y-55605475D01*
X133299493Y-55525156D01*
X133221761Y-55404202D01*
X133113100Y-55310048D01*
X132982315Y-55250320D01*
X132972533Y-55248913D01*
X133601373Y-54620073D01*
X133601373Y-54620072D01*
X133517583Y-54561402D01*
X133517579Y-54561400D01*
X133303492Y-54461570D01*
X133303483Y-54461566D01*
X133075326Y-54400432D01*
X133075315Y-54400430D01*
X132840002Y-54379843D01*
X132839998Y-54379843D01*
X132604684Y-54400430D01*
X132604673Y-54400432D01*
X132376516Y-54461566D01*
X132376507Y-54461570D01*
X132162419Y-54561401D01*
X132078625Y-54620072D01*
X132707466Y-55248913D01*
X132697685Y-55250320D01*
X132566900Y-55310048D01*
X132458239Y-55404202D01*
X132380507Y-55525156D01*
X132356923Y-55605476D01*
X131725073Y-54973626D01*
X131671881Y-55049594D01*
X131617304Y-55093219D01*
X131547806Y-55100413D01*
X131485451Y-55068891D01*
X131468730Y-55049594D01*
X131338494Y-54863597D01*
X131171402Y-54696506D01*
X131171395Y-54696501D01*
X130977834Y-54560967D01*
X130977830Y-54560965D01*
X130977828Y-54560964D01*
X130763663Y-54461097D01*
X130763659Y-54461096D01*
X130763655Y-54461094D01*
X130535413Y-54399938D01*
X130535403Y-54399936D01*
X130300001Y-54379341D01*
X130299999Y-54379341D01*
X130064596Y-54399936D01*
X130064586Y-54399938D01*
X129836344Y-54461094D01*
X129836335Y-54461098D01*
X129622171Y-54560964D01*
X129622169Y-54560965D01*
X129428597Y-54696505D01*
X129261505Y-54863597D01*
X129125965Y-55057169D01*
X129125964Y-55057171D01*
X129026098Y-55271335D01*
X129026094Y-55271344D01*
X128964938Y-55499586D01*
X128964936Y-55499596D01*
X128944341Y-55734999D01*
X128944341Y-55735000D01*
X110605500Y-55735000D01*
X110605500Y-50124500D01*
X110625185Y-50057461D01*
X110677989Y-50011706D01*
X110729500Y-50000500D01*
X170475500Y-50000500D01*
X170542539Y-50020185D01*
G37*
%TD.AperFunction*%
%TD*%
%TA.AperFunction,Conductor*%
%TO.N,/VSW*%
G36*
X155242121Y-58970002D02*
G01*
X155288614Y-59023658D01*
X155300000Y-59076000D01*
X155300000Y-60334879D01*
X155283120Y-60397878D01*
X155265472Y-60428444D01*
X155265470Y-60428449D01*
X155206457Y-60610071D01*
X155186496Y-60800000D01*
X155206457Y-60989927D01*
X155265475Y-61171561D01*
X155283118Y-61202119D01*
X155300000Y-61265120D01*
X155300000Y-61434879D01*
X155283120Y-61497878D01*
X155265472Y-61528444D01*
X155265470Y-61528449D01*
X155206457Y-61710071D01*
X155186496Y-61900000D01*
X155206457Y-62089927D01*
X155265475Y-62271561D01*
X155283118Y-62302119D01*
X155300000Y-62365120D01*
X155300000Y-63250000D01*
X157400000Y-63250000D01*
X157400000Y-61676000D01*
X157420002Y-61607879D01*
X157473658Y-61561386D01*
X157526000Y-61550000D01*
X158074000Y-61550000D01*
X158142121Y-61570002D01*
X158188614Y-61623658D01*
X158200000Y-61676000D01*
X158200000Y-70824000D01*
X158179998Y-70892121D01*
X158126342Y-70938614D01*
X158074000Y-70950000D01*
X156426000Y-70950000D01*
X156357879Y-70929998D01*
X156311386Y-70876342D01*
X156300000Y-70824000D01*
X156300000Y-68976000D01*
X156320002Y-68907879D01*
X156373658Y-68861386D01*
X156426000Y-68850000D01*
X157400000Y-68850000D01*
X157400000Y-63950000D01*
X153626000Y-63950000D01*
X153557879Y-63929998D01*
X153511386Y-63876342D01*
X153500000Y-63824000D01*
X153500000Y-59076000D01*
X153520002Y-59007879D01*
X153573658Y-58961386D01*
X153626000Y-58950000D01*
X155174000Y-58950000D01*
X155242121Y-58970002D01*
G37*
%TD.AperFunction*%
%TD*%
M02*
