%TF.GenerationSoftware,KiCad,Pcbnew,7.0.9*%
%TF.CreationDate,2024-02-02T16:32:34+00:00*%
%TF.ProjectId,QuadMod_Panel,51756164-4d6f-4645-9f50-616e656c2e6b,rev?*%
%TF.SameCoordinates,Original*%
%TF.FileFunction,Soldermask,Top*%
%TF.FilePolarity,Negative*%
%FSLAX46Y46*%
G04 Gerber Fmt 4.6, Leading zero omitted, Abs format (unit mm)*
G04 Created by KiCad (PCBNEW 7.0.9) date 2024-02-02 16:32:34*
%MOMM*%
%LPD*%
G01*
G04 APERTURE LIST*
%ADD10C,0.500000*%
%ADD11C,4.000000*%
%ADD12C,0.100000*%
%ADD13C,0.300000*%
%ADD14C,7.000000*%
%ADD15O,5.000000X3.200000*%
%ADD16C,6.000000*%
%ADD17C,6.350000*%
G04 APERTURE END LIST*
D10*
X157250000Y-68000000D02*
X150750000Y-68000000D01*
X151000000Y-68000000D02*
G75*
G03*
X146000000Y-73000000I0J-5000000D01*
G01*
X133500000Y-68000000D02*
X127000000Y-68000000D01*
X162500000Y-97964466D02*
G75*
G03*
X162500000Y-88035534I0J4964466D01*
G01*
X155100000Y-45421085D02*
X155100000Y-45421085D01*
X119678508Y-46921085D02*
X119678508Y-43921085D01*
X133000000Y-126000000D02*
X133000000Y-120500000D01*
X127000000Y-98000000D02*
G75*
G03*
X122000000Y-103000000I0J-5000000D01*
G01*
X153600000Y-45921085D02*
X153600000Y-44921085D01*
X111000000Y-126000000D02*
X111000000Y-120500000D01*
D11*
X122500000Y-148000000D02*
X141000000Y-148000000D01*
D10*
X152100000Y-46421085D02*
X152100000Y-44421085D01*
X146000000Y-145100000D02*
X146000000Y-73000000D01*
X100100000Y-169200000D02*
X100100000Y-41100000D01*
X170500000Y-169200000D02*
X170500000Y-41100000D01*
D11*
X122500000Y-154500000D02*
X141000000Y-154500000D01*
D10*
X106000000Y-131000000D02*
G75*
G03*
X111000000Y-126000000I0J5000000D01*
G01*
X116678508Y-45921085D02*
X116678508Y-44921085D01*
X118178508Y-46421085D02*
X118178508Y-44421085D01*
X162900000Y-151100000D02*
G75*
G03*
X167900000Y-146100000I0J5000000D01*
G01*
X146000000Y-145100000D02*
G75*
G03*
X151000000Y-150100000I5000000J0D01*
G01*
X122000000Y-63000000D02*
X122000000Y-56000000D01*
X115178508Y-45421085D02*
X115178508Y-45421085D01*
D12*
X120500000Y-148000000D02*
X143000000Y-148000000D01*
X143000000Y-154500000D01*
X120500000Y-154500000D01*
X120500000Y-148000000D01*
G36*
X120500000Y-148000000D02*
G01*
X143000000Y-148000000D01*
X143000000Y-154500000D01*
X120500000Y-154500000D01*
X120500000Y-148000000D01*
G37*
D10*
X122000000Y-63000000D02*
G75*
G03*
X127000000Y-68000000I5000000J0D01*
G01*
X167900000Y-124000000D02*
G75*
G03*
X162900000Y-119000000I-5000000J0D01*
G01*
X167900000Y-146100000D02*
X167900000Y-124100000D01*
X133000000Y-126000000D02*
G75*
G03*
X138000000Y-131000000I5000000J0D01*
G01*
X122000000Y-103000000D02*
X122000000Y-129000000D01*
X150600000Y-46921085D02*
X150600000Y-43921085D01*
D13*
X103404761Y-138814400D02*
X103690475Y-138909638D01*
X103690475Y-138909638D02*
X104166666Y-138909638D01*
X104166666Y-138909638D02*
X104357142Y-138814400D01*
X104357142Y-138814400D02*
X104452380Y-138719161D01*
X104452380Y-138719161D02*
X104547618Y-138528685D01*
X104547618Y-138528685D02*
X104547618Y-138338209D01*
X104547618Y-138338209D02*
X104452380Y-138147733D01*
X104452380Y-138147733D02*
X104357142Y-138052495D01*
X104357142Y-138052495D02*
X104166666Y-137957257D01*
X104166666Y-137957257D02*
X103785713Y-137862019D01*
X103785713Y-137862019D02*
X103595237Y-137766780D01*
X103595237Y-137766780D02*
X103499999Y-137671542D01*
X103499999Y-137671542D02*
X103404761Y-137481066D01*
X103404761Y-137481066D02*
X103404761Y-137290590D01*
X103404761Y-137290590D02*
X103499999Y-137100114D01*
X103499999Y-137100114D02*
X103595237Y-137004876D01*
X103595237Y-137004876D02*
X103785713Y-136909638D01*
X103785713Y-136909638D02*
X104261904Y-136909638D01*
X104261904Y-136909638D02*
X104547618Y-137004876D01*
X105404761Y-137576304D02*
X105404761Y-139576304D01*
X105404761Y-137671542D02*
X105595237Y-137576304D01*
X105595237Y-137576304D02*
X105976190Y-137576304D01*
X105976190Y-137576304D02*
X106166666Y-137671542D01*
X106166666Y-137671542D02*
X106261904Y-137766780D01*
X106261904Y-137766780D02*
X106357142Y-137957257D01*
X106357142Y-137957257D02*
X106357142Y-138528685D01*
X106357142Y-138528685D02*
X106261904Y-138719161D01*
X106261904Y-138719161D02*
X106166666Y-138814400D01*
X106166666Y-138814400D02*
X105976190Y-138909638D01*
X105976190Y-138909638D02*
X105595237Y-138909638D01*
X105595237Y-138909638D02*
X105404761Y-138814400D01*
X107976190Y-138814400D02*
X107785714Y-138909638D01*
X107785714Y-138909638D02*
X107404761Y-138909638D01*
X107404761Y-138909638D02*
X107214285Y-138814400D01*
X107214285Y-138814400D02*
X107119047Y-138623923D01*
X107119047Y-138623923D02*
X107119047Y-137862019D01*
X107119047Y-137862019D02*
X107214285Y-137671542D01*
X107214285Y-137671542D02*
X107404761Y-137576304D01*
X107404761Y-137576304D02*
X107785714Y-137576304D01*
X107785714Y-137576304D02*
X107976190Y-137671542D01*
X107976190Y-137671542D02*
X108071428Y-137862019D01*
X108071428Y-137862019D02*
X108071428Y-138052495D01*
X108071428Y-138052495D02*
X107119047Y-138242971D01*
X109690476Y-138814400D02*
X109500000Y-138909638D01*
X109500000Y-138909638D02*
X109119047Y-138909638D01*
X109119047Y-138909638D02*
X108928571Y-138814400D01*
X108928571Y-138814400D02*
X108833333Y-138623923D01*
X108833333Y-138623923D02*
X108833333Y-137862019D01*
X108833333Y-137862019D02*
X108928571Y-137671542D01*
X108928571Y-137671542D02*
X109119047Y-137576304D01*
X109119047Y-137576304D02*
X109500000Y-137576304D01*
X109500000Y-137576304D02*
X109690476Y-137671542D01*
X109690476Y-137671542D02*
X109785714Y-137862019D01*
X109785714Y-137862019D02*
X109785714Y-138052495D01*
X109785714Y-138052495D02*
X108833333Y-138242971D01*
X111500000Y-138909638D02*
X111500000Y-136909638D01*
X111500000Y-138814400D02*
X111309524Y-138909638D01*
X111309524Y-138909638D02*
X110928571Y-138909638D01*
X110928571Y-138909638D02*
X110738095Y-138814400D01*
X110738095Y-138814400D02*
X110642857Y-138719161D01*
X110642857Y-138719161D02*
X110547619Y-138528685D01*
X110547619Y-138528685D02*
X110547619Y-137957257D01*
X110547619Y-137957257D02*
X110642857Y-137766780D01*
X110642857Y-137766780D02*
X110738095Y-137671542D01*
X110738095Y-137671542D02*
X110928571Y-137576304D01*
X110928571Y-137576304D02*
X111309524Y-137576304D01*
X111309524Y-137576304D02*
X111500000Y-137671542D01*
X125714284Y-159909638D02*
X124761903Y-159909638D01*
X124761903Y-159909638D02*
X124761903Y-157909638D01*
X129809523Y-157909638D02*
X130190476Y-157909638D01*
X130190476Y-157909638D02*
X130380952Y-158004876D01*
X130380952Y-158004876D02*
X130571428Y-158195352D01*
X130571428Y-158195352D02*
X130666666Y-158576304D01*
X130666666Y-158576304D02*
X130666666Y-159242971D01*
X130666666Y-159242971D02*
X130571428Y-159623923D01*
X130571428Y-159623923D02*
X130380952Y-159814400D01*
X130380952Y-159814400D02*
X130190476Y-159909638D01*
X130190476Y-159909638D02*
X129809523Y-159909638D01*
X129809523Y-159909638D02*
X129619047Y-159814400D01*
X129619047Y-159814400D02*
X129428571Y-159623923D01*
X129428571Y-159623923D02*
X129333333Y-159242971D01*
X129333333Y-159242971D02*
X129333333Y-158576304D01*
X129333333Y-158576304D02*
X129428571Y-158195352D01*
X129428571Y-158195352D02*
X129619047Y-158004876D01*
X129619047Y-158004876D02*
X129809523Y-157909638D01*
X131523809Y-157909638D02*
X131523809Y-159528685D01*
X131523809Y-159528685D02*
X131619047Y-159719161D01*
X131619047Y-159719161D02*
X131714285Y-159814400D01*
X131714285Y-159814400D02*
X131904761Y-159909638D01*
X131904761Y-159909638D02*
X132285714Y-159909638D01*
X132285714Y-159909638D02*
X132476190Y-159814400D01*
X132476190Y-159814400D02*
X132571428Y-159719161D01*
X132571428Y-159719161D02*
X132666666Y-159528685D01*
X132666666Y-159528685D02*
X132666666Y-157909638D01*
X133333333Y-157909638D02*
X134476190Y-157909638D01*
X133904761Y-159909638D02*
X133904761Y-157909638D01*
X139333334Y-159909638D02*
X138666667Y-158957257D01*
X138190477Y-159909638D02*
X138190477Y-157909638D01*
X138190477Y-157909638D02*
X138952382Y-157909638D01*
X138952382Y-157909638D02*
X139142858Y-158004876D01*
X139142858Y-158004876D02*
X139238096Y-158100114D01*
X139238096Y-158100114D02*
X139333334Y-158290590D01*
X139333334Y-158290590D02*
X139333334Y-158576304D01*
X139333334Y-158576304D02*
X139238096Y-158766780D01*
X139238096Y-158766780D02*
X139142858Y-158862019D01*
X139142858Y-158862019D02*
X138952382Y-158957257D01*
X138952382Y-158957257D02*
X138190477Y-158957257D01*
X132595237Y-138909638D02*
X131928570Y-137957257D01*
X131452380Y-138909638D02*
X131452380Y-136909638D01*
X131452380Y-136909638D02*
X132214285Y-136909638D01*
X132214285Y-136909638D02*
X132404761Y-137004876D01*
X132404761Y-137004876D02*
X132499999Y-137100114D01*
X132499999Y-137100114D02*
X132595237Y-137290590D01*
X132595237Y-137290590D02*
X132595237Y-137576304D01*
X132595237Y-137576304D02*
X132499999Y-137766780D01*
X132499999Y-137766780D02*
X132404761Y-137862019D01*
X132404761Y-137862019D02*
X132214285Y-137957257D01*
X132214285Y-137957257D02*
X131452380Y-137957257D01*
X134214285Y-138814400D02*
X134023809Y-138909638D01*
X134023809Y-138909638D02*
X133642856Y-138909638D01*
X133642856Y-138909638D02*
X133452380Y-138814400D01*
X133452380Y-138814400D02*
X133357142Y-138623923D01*
X133357142Y-138623923D02*
X133357142Y-137862019D01*
X133357142Y-137862019D02*
X133452380Y-137671542D01*
X133452380Y-137671542D02*
X133642856Y-137576304D01*
X133642856Y-137576304D02*
X134023809Y-137576304D01*
X134023809Y-137576304D02*
X134214285Y-137671542D01*
X134214285Y-137671542D02*
X134309523Y-137862019D01*
X134309523Y-137862019D02*
X134309523Y-138052495D01*
X134309523Y-138052495D02*
X133357142Y-138242971D01*
X136023809Y-137576304D02*
X136023809Y-139195352D01*
X136023809Y-139195352D02*
X135928571Y-139385828D01*
X135928571Y-139385828D02*
X135833333Y-139481066D01*
X135833333Y-139481066D02*
X135642856Y-139576304D01*
X135642856Y-139576304D02*
X135357142Y-139576304D01*
X135357142Y-139576304D02*
X135166666Y-139481066D01*
X136023809Y-138814400D02*
X135833333Y-138909638D01*
X135833333Y-138909638D02*
X135452380Y-138909638D01*
X135452380Y-138909638D02*
X135261904Y-138814400D01*
X135261904Y-138814400D02*
X135166666Y-138719161D01*
X135166666Y-138719161D02*
X135071428Y-138528685D01*
X135071428Y-138528685D02*
X135071428Y-137957257D01*
X135071428Y-137957257D02*
X135166666Y-137766780D01*
X135166666Y-137766780D02*
X135261904Y-137671542D01*
X135261904Y-137671542D02*
X135452380Y-137576304D01*
X135452380Y-137576304D02*
X135833333Y-137576304D01*
X135833333Y-137576304D02*
X136023809Y-137671542D01*
X137738095Y-138814400D02*
X137547619Y-138909638D01*
X137547619Y-138909638D02*
X137166666Y-138909638D01*
X137166666Y-138909638D02*
X136976190Y-138814400D01*
X136976190Y-138814400D02*
X136880952Y-138623923D01*
X136880952Y-138623923D02*
X136880952Y-137862019D01*
X136880952Y-137862019D02*
X136976190Y-137671542D01*
X136976190Y-137671542D02*
X137166666Y-137576304D01*
X137166666Y-137576304D02*
X137547619Y-137576304D01*
X137547619Y-137576304D02*
X137738095Y-137671542D01*
X137738095Y-137671542D02*
X137833333Y-137862019D01*
X137833333Y-137862019D02*
X137833333Y-138052495D01*
X137833333Y-138052495D02*
X136880952Y-138242971D01*
X138690476Y-137576304D02*
X138690476Y-138909638D01*
X138690476Y-137766780D02*
X138785714Y-137671542D01*
X138785714Y-137671542D02*
X138976190Y-137576304D01*
X138976190Y-137576304D02*
X139261905Y-137576304D01*
X139261905Y-137576304D02*
X139452381Y-137671542D01*
X139452381Y-137671542D02*
X139547619Y-137862019D01*
X139547619Y-137862019D02*
X139547619Y-138909638D01*
X104190475Y-161838209D02*
X105142856Y-161838209D01*
X103999999Y-162409638D02*
X104666665Y-160409638D01*
X104666665Y-160409638D02*
X105333332Y-162409638D01*
X106857142Y-161076304D02*
X106857142Y-162409638D01*
X105999999Y-161076304D02*
X105999999Y-162123923D01*
X105999999Y-162123923D02*
X106095237Y-162314400D01*
X106095237Y-162314400D02*
X106285713Y-162409638D01*
X106285713Y-162409638D02*
X106571428Y-162409638D01*
X106571428Y-162409638D02*
X106761904Y-162314400D01*
X106761904Y-162314400D02*
X106857142Y-162219161D01*
X108666666Y-162409638D02*
X108666666Y-160409638D01*
X108666666Y-162314400D02*
X108476190Y-162409638D01*
X108476190Y-162409638D02*
X108095237Y-162409638D01*
X108095237Y-162409638D02*
X107904761Y-162314400D01*
X107904761Y-162314400D02*
X107809523Y-162219161D01*
X107809523Y-162219161D02*
X107714285Y-162028685D01*
X107714285Y-162028685D02*
X107714285Y-161457257D01*
X107714285Y-161457257D02*
X107809523Y-161266780D01*
X107809523Y-161266780D02*
X107904761Y-161171542D01*
X107904761Y-161171542D02*
X108095237Y-161076304D01*
X108095237Y-161076304D02*
X108476190Y-161076304D01*
X108476190Y-161076304D02*
X108666666Y-161171542D01*
X109619047Y-162409638D02*
X109619047Y-161076304D01*
X109619047Y-160409638D02*
X109523809Y-160504876D01*
X109523809Y-160504876D02*
X109619047Y-160600114D01*
X109619047Y-160600114D02*
X109714285Y-160504876D01*
X109714285Y-160504876D02*
X109619047Y-160409638D01*
X109619047Y-160409638D02*
X109619047Y-160600114D01*
X110857142Y-162409638D02*
X110666666Y-162314400D01*
X110666666Y-162314400D02*
X110571428Y-162219161D01*
X110571428Y-162219161D02*
X110476190Y-162028685D01*
X110476190Y-162028685D02*
X110476190Y-161457257D01*
X110476190Y-161457257D02*
X110571428Y-161266780D01*
X110571428Y-161266780D02*
X110666666Y-161171542D01*
X110666666Y-161171542D02*
X110857142Y-161076304D01*
X110857142Y-161076304D02*
X111142857Y-161076304D01*
X111142857Y-161076304D02*
X111333333Y-161171542D01*
X111333333Y-161171542D02*
X111428571Y-161266780D01*
X111428571Y-161266780D02*
X111523809Y-161457257D01*
X111523809Y-161457257D02*
X111523809Y-162028685D01*
X111523809Y-162028685D02*
X111428571Y-162219161D01*
X111428571Y-162219161D02*
X111333333Y-162314400D01*
X111333333Y-162314400D02*
X111142857Y-162409638D01*
X111142857Y-162409638D02*
X110857142Y-162409638D01*
X113904762Y-162409638D02*
X113904762Y-160409638D01*
X114857143Y-161076304D02*
X114857143Y-162409638D01*
X114857143Y-161266780D02*
X114952381Y-161171542D01*
X114952381Y-161171542D02*
X115142857Y-161076304D01*
X115142857Y-161076304D02*
X115428572Y-161076304D01*
X115428572Y-161076304D02*
X115619048Y-161171542D01*
X115619048Y-161171542D02*
X115714286Y-161362019D01*
X115714286Y-161362019D02*
X115714286Y-162409638D01*
X160238095Y-158862019D02*
X159571428Y-158862019D01*
X159571428Y-159909638D02*
X159571428Y-157909638D01*
X159571428Y-157909638D02*
X160523809Y-157909638D01*
X161285714Y-159909638D02*
X161285714Y-158576304D01*
X161285714Y-157909638D02*
X161190476Y-158004876D01*
X161190476Y-158004876D02*
X161285714Y-158100114D01*
X161285714Y-158100114D02*
X161380952Y-158004876D01*
X161380952Y-158004876D02*
X161285714Y-157909638D01*
X161285714Y-157909638D02*
X161285714Y-158100114D01*
X162523809Y-159909638D02*
X162333333Y-159814400D01*
X162333333Y-159814400D02*
X162238095Y-159623923D01*
X162238095Y-159623923D02*
X162238095Y-157909638D01*
X163000000Y-158576304D02*
X163761904Y-158576304D01*
X163285714Y-157909638D02*
X163285714Y-159623923D01*
X163285714Y-159623923D02*
X163380952Y-159814400D01*
X163380952Y-159814400D02*
X163571428Y-159909638D01*
X163571428Y-159909638D02*
X163761904Y-159909638D01*
X165190476Y-159814400D02*
X165000000Y-159909638D01*
X165000000Y-159909638D02*
X164619047Y-159909638D01*
X164619047Y-159909638D02*
X164428571Y-159814400D01*
X164428571Y-159814400D02*
X164333333Y-159623923D01*
X164333333Y-159623923D02*
X164333333Y-158862019D01*
X164333333Y-158862019D02*
X164428571Y-158671542D01*
X164428571Y-158671542D02*
X164619047Y-158576304D01*
X164619047Y-158576304D02*
X165000000Y-158576304D01*
X165000000Y-158576304D02*
X165190476Y-158671542D01*
X165190476Y-158671542D02*
X165285714Y-158862019D01*
X165285714Y-158862019D02*
X165285714Y-159052495D01*
X165285714Y-159052495D02*
X164333333Y-159242971D01*
X166142857Y-159909638D02*
X166142857Y-158576304D01*
X166142857Y-158957257D02*
X166238095Y-158766780D01*
X166238095Y-158766780D02*
X166333333Y-158671542D01*
X166333333Y-158671542D02*
X166523809Y-158576304D01*
X166523809Y-158576304D02*
X166714286Y-158576304D01*
X119404762Y-137862019D02*
X118738095Y-137862019D01*
X118738095Y-138909638D02*
X118738095Y-136909638D01*
X118738095Y-136909638D02*
X119690476Y-136909638D01*
X120452381Y-138909638D02*
X120452381Y-137576304D01*
X120452381Y-137957257D02*
X120547619Y-137766780D01*
X120547619Y-137766780D02*
X120642857Y-137671542D01*
X120642857Y-137671542D02*
X120833333Y-137576304D01*
X120833333Y-137576304D02*
X121023810Y-137576304D01*
X122452381Y-138814400D02*
X122261905Y-138909638D01*
X122261905Y-138909638D02*
X121880952Y-138909638D01*
X121880952Y-138909638D02*
X121690476Y-138814400D01*
X121690476Y-138814400D02*
X121595238Y-138623923D01*
X121595238Y-138623923D02*
X121595238Y-137862019D01*
X121595238Y-137862019D02*
X121690476Y-137671542D01*
X121690476Y-137671542D02*
X121880952Y-137576304D01*
X121880952Y-137576304D02*
X122261905Y-137576304D01*
X122261905Y-137576304D02*
X122452381Y-137671542D01*
X122452381Y-137671542D02*
X122547619Y-137862019D01*
X122547619Y-137862019D02*
X122547619Y-138052495D01*
X122547619Y-138052495D02*
X121595238Y-138242971D01*
X124261905Y-137576304D02*
X124261905Y-139576304D01*
X124261905Y-138814400D02*
X124071429Y-138909638D01*
X124071429Y-138909638D02*
X123690476Y-138909638D01*
X123690476Y-138909638D02*
X123500000Y-138814400D01*
X123500000Y-138814400D02*
X123404762Y-138719161D01*
X123404762Y-138719161D02*
X123309524Y-138528685D01*
X123309524Y-138528685D02*
X123309524Y-137957257D01*
X123309524Y-137957257D02*
X123404762Y-137766780D01*
X123404762Y-137766780D02*
X123500000Y-137671542D01*
X123500000Y-137671542D02*
X123690476Y-137576304D01*
X123690476Y-137576304D02*
X124071429Y-137576304D01*
X124071429Y-137576304D02*
X124261905Y-137671542D01*
X147261904Y-157909638D02*
X148404761Y-157909638D01*
X147833332Y-159909638D02*
X147833332Y-157909638D01*
X149071428Y-159909638D02*
X149071428Y-158576304D01*
X149071428Y-157909638D02*
X148976190Y-158004876D01*
X148976190Y-158004876D02*
X149071428Y-158100114D01*
X149071428Y-158100114D02*
X149166666Y-158004876D01*
X149166666Y-158004876D02*
X149071428Y-157909638D01*
X149071428Y-157909638D02*
X149071428Y-158100114D01*
X150023809Y-159909638D02*
X150023809Y-158576304D01*
X150023809Y-158766780D02*
X150119047Y-158671542D01*
X150119047Y-158671542D02*
X150309523Y-158576304D01*
X150309523Y-158576304D02*
X150595238Y-158576304D01*
X150595238Y-158576304D02*
X150785714Y-158671542D01*
X150785714Y-158671542D02*
X150880952Y-158862019D01*
X150880952Y-158862019D02*
X150880952Y-159909638D01*
X150880952Y-158862019D02*
X150976190Y-158671542D01*
X150976190Y-158671542D02*
X151166666Y-158576304D01*
X151166666Y-158576304D02*
X151452380Y-158576304D01*
X151452380Y-158576304D02*
X151642857Y-158671542D01*
X151642857Y-158671542D02*
X151738095Y-158862019D01*
X151738095Y-158862019D02*
X151738095Y-159909638D01*
X153452381Y-159814400D02*
X153261905Y-159909638D01*
X153261905Y-159909638D02*
X152880952Y-159909638D01*
X152880952Y-159909638D02*
X152690476Y-159814400D01*
X152690476Y-159814400D02*
X152595238Y-159623923D01*
X152595238Y-159623923D02*
X152595238Y-158862019D01*
X152595238Y-158862019D02*
X152690476Y-158671542D01*
X152690476Y-158671542D02*
X152880952Y-158576304D01*
X152880952Y-158576304D02*
X153261905Y-158576304D01*
X153261905Y-158576304D02*
X153452381Y-158671542D01*
X153452381Y-158671542D02*
X153547619Y-158862019D01*
X153547619Y-158862019D02*
X153547619Y-159052495D01*
X153547619Y-159052495D02*
X152595238Y-159242971D01*
%TO.C,kibuzzard-65B29CC1*%
G36*
X159748670Y-98258124D02*
G01*
X159240794Y-98258124D01*
X159493336Y-97497705D01*
X159748670Y-98258124D01*
G37*
G36*
X152735202Y-97343877D02*
G01*
X152838626Y-97405618D01*
X152899843Y-97503286D01*
X152920249Y-97631650D01*
X152898623Y-97757399D01*
X152833743Y-97852800D01*
X152729447Y-97912970D01*
X152589572Y-97933027D01*
X152251918Y-97933027D01*
X152251918Y-97323297D01*
X152588176Y-97323297D01*
X152735202Y-97343877D01*
G37*
G36*
X156204700Y-97348412D02*
G01*
X156309345Y-97418175D01*
X156375271Y-97524564D01*
X156397246Y-97659556D01*
X156375445Y-97787920D01*
X156310042Y-97882798D01*
X156203130Y-97941399D01*
X156056802Y-97960933D01*
X155682871Y-97960933D01*
X155682871Y-97323297D01*
X156066569Y-97323297D01*
X156204700Y-97348412D01*
G37*
G36*
X162562698Y-96396693D02*
G01*
X162719090Y-96419892D01*
X162872454Y-96458308D01*
X163021314Y-96511571D01*
X163164237Y-96579168D01*
X163299846Y-96660449D01*
X163426835Y-96754630D01*
X163543981Y-96860805D01*
X163650156Y-96977952D01*
X163744337Y-97104941D01*
X163825618Y-97240550D01*
X163893216Y-97383472D01*
X163946479Y-97532333D01*
X163984895Y-97685697D01*
X164008093Y-97842088D01*
X164015851Y-98000000D01*
X164008093Y-98157912D01*
X163984895Y-98314303D01*
X163946479Y-98467667D01*
X163893216Y-98616528D01*
X163825618Y-98759450D01*
X163744337Y-98895059D01*
X163650156Y-99022048D01*
X163543981Y-99139195D01*
X163426835Y-99245370D01*
X163299846Y-99339551D01*
X163164237Y-99420832D01*
X163021314Y-99488429D01*
X162872454Y-99541692D01*
X162719090Y-99580108D01*
X162562698Y-99603307D01*
X162404787Y-99611064D01*
X162166662Y-99611064D01*
X161544374Y-99611064D01*
X158988251Y-99611064D01*
X158469213Y-99611064D01*
X155682871Y-99611064D01*
X155018726Y-99611064D01*
X152251918Y-99611064D01*
X151833339Y-99611064D01*
X151595214Y-99611064D01*
X151437302Y-99603307D01*
X151280911Y-99580108D01*
X151127546Y-99541693D01*
X150978686Y-99488429D01*
X150835763Y-99420832D01*
X150700154Y-99339551D01*
X150573165Y-99245370D01*
X150456019Y-99139195D01*
X150349844Y-99022048D01*
X150255663Y-98895059D01*
X150174382Y-98759451D01*
X150106784Y-98616528D01*
X150053521Y-98467667D01*
X150015105Y-98314303D01*
X149991907Y-98157912D01*
X149984149Y-98000000D01*
X149991907Y-97842088D01*
X150015105Y-97685697D01*
X150053521Y-97532333D01*
X150106784Y-97383472D01*
X150174382Y-97240549D01*
X150255663Y-97104941D01*
X150345175Y-96984248D01*
X151833339Y-96984248D01*
X151833339Y-99015752D01*
X152251918Y-99015752D01*
X152251918Y-98272076D01*
X152585386Y-98272076D01*
X152966293Y-99015752D01*
X153415568Y-99015752D01*
X153415568Y-98996218D01*
X152976060Y-98166036D01*
X153135643Y-98069589D01*
X153248834Y-97944887D01*
X153316330Y-97788792D01*
X153338828Y-97598164D01*
X153317124Y-97417555D01*
X153252012Y-97266401D01*
X153143491Y-97144703D01*
X152994973Y-97055562D01*
X152809868Y-97002076D01*
X152588176Y-96984248D01*
X153656948Y-96984248D01*
X153656948Y-99015752D01*
X155018726Y-99015752D01*
X155018726Y-98679493D01*
X154075527Y-98679493D01*
X154075527Y-98135341D01*
X154879199Y-98135341D01*
X154879199Y-97807454D01*
X154075527Y-97807454D01*
X154075527Y-97323297D01*
X155015935Y-97323297D01*
X155015935Y-96984248D01*
X155264292Y-96984248D01*
X155264292Y-99015752D01*
X155682871Y-99015752D01*
X155682871Y-98299982D01*
X156049826Y-98299982D01*
X156273300Y-98280836D01*
X156461893Y-98223397D01*
X156615605Y-98127667D01*
X156729164Y-97998760D01*
X156797299Y-97841793D01*
X156820011Y-97656765D01*
X156796640Y-97470672D01*
X156726528Y-97305856D01*
X156612989Y-97169295D01*
X156459335Y-97067964D01*
X156271847Y-97005177D01*
X156056802Y-96984248D01*
X157107435Y-96984248D01*
X157107435Y-99015752D01*
X158469213Y-99015752D01*
X158543162Y-99015752D01*
X158988251Y-99015752D01*
X159127777Y-98597173D01*
X159861686Y-98597173D01*
X160002608Y-99015752D01*
X160447697Y-99015752D01*
X159687278Y-96984248D01*
X160511879Y-96984248D01*
X160511879Y-97323297D01*
X161125795Y-97323297D01*
X161125795Y-99015752D01*
X161544374Y-99015752D01*
X161544374Y-97323297D01*
X162166662Y-97323297D01*
X162166662Y-96984248D01*
X160511879Y-96984248D01*
X159687278Y-96984248D01*
X159299395Y-96984248D01*
X158543162Y-99015752D01*
X158469213Y-99015752D01*
X158469213Y-98679493D01*
X157526015Y-98679493D01*
X157526015Y-98135341D01*
X158329686Y-98135341D01*
X158329686Y-97807454D01*
X157526015Y-97807454D01*
X157526015Y-97323297D01*
X158466422Y-97323297D01*
X158466422Y-96984248D01*
X157107435Y-96984248D01*
X156056802Y-96984248D01*
X155264292Y-96984248D01*
X155015935Y-96984248D01*
X153656948Y-96984248D01*
X152588176Y-96984248D01*
X151833339Y-96984248D01*
X150345175Y-96984248D01*
X150349844Y-96977952D01*
X150456019Y-96860805D01*
X150573165Y-96754630D01*
X150700154Y-96660449D01*
X150835763Y-96579168D01*
X150978686Y-96511571D01*
X151127546Y-96458307D01*
X151280911Y-96419892D01*
X151437302Y-96396693D01*
X151595214Y-96388936D01*
X151833339Y-96388936D01*
X162166662Y-96388936D01*
X162404787Y-96388936D01*
X162562698Y-96396693D01*
G37*
%TO.C,G\u002A\u002A\u002A*%
G36*
X127997423Y-45118665D02*
G01*
X128016400Y-45783856D01*
X128040933Y-46224422D01*
X128082265Y-46488796D01*
X128151640Y-46625412D01*
X128260301Y-46682704D01*
X128364843Y-46701417D01*
X128693651Y-46747879D01*
X128608830Y-45165127D01*
X128524008Y-43582375D01*
X129065236Y-43582375D01*
X129606465Y-43582375D01*
X129606465Y-45349585D01*
X129598407Y-46015978D01*
X129576374Y-46578322D01*
X129543577Y-46983155D01*
X129503230Y-47177019D01*
X129496200Y-47184941D01*
X129195283Y-47277769D01*
X128732638Y-47327044D01*
X128216591Y-47330005D01*
X127755471Y-47283889D01*
X127558078Y-47234353D01*
X127181030Y-47022804D01*
X126901606Y-46670341D01*
X126704203Y-46141038D01*
X126573221Y-45398970D01*
X126520685Y-44845547D01*
X126426418Y-43582375D01*
X127192614Y-43582375D01*
X127958810Y-43582375D01*
X127997423Y-45118665D01*
G37*
G36*
X142550618Y-43507125D02*
G01*
X143047279Y-43776011D01*
X143422083Y-44236624D01*
X143636445Y-44861856D01*
X143672056Y-45286969D01*
X143581251Y-46042397D01*
X143331794Y-46652039D01*
X142958127Y-47093540D01*
X142494689Y-47344540D01*
X141975921Y-47382684D01*
X141436264Y-47185614D01*
X141117150Y-46945516D01*
X140838606Y-46666794D01*
X140680032Y-46409613D01*
X140599637Y-46073440D01*
X140589877Y-45961767D01*
X141680550Y-45961767D01*
X141744849Y-46211139D01*
X141914757Y-46513698D01*
X142103288Y-46550604D01*
X142333923Y-46322709D01*
X142394236Y-46234695D01*
X142529990Y-45866922D01*
X142503887Y-45506609D01*
X142339365Y-45240409D01*
X142101626Y-45152805D01*
X141847985Y-45270191D01*
X141698355Y-45567347D01*
X141680550Y-45961767D01*
X140589877Y-45961767D01*
X140558370Y-45601278D01*
X140579299Y-44806823D01*
X140764045Y-44212582D01*
X141123020Y-43792799D01*
X141346081Y-43652966D01*
X141970690Y-43457074D01*
X142550618Y-43507125D01*
G37*
G36*
X133990257Y-43582886D02*
G01*
X134826465Y-43643189D01*
X135442258Y-43836516D01*
X135865885Y-44182942D01*
X136125599Y-44702542D01*
X136223643Y-45169842D01*
X136200989Y-45874282D01*
X135952242Y-46487277D01*
X135500679Y-46951917D01*
X135492453Y-46957485D01*
X135156153Y-47139571D01*
X134771838Y-47235808D01*
X134239155Y-47268564D01*
X134092722Y-47269472D01*
X133157002Y-47269472D01*
X133156184Y-46552536D01*
X133144484Y-46056458D01*
X133134548Y-45845614D01*
X134522594Y-45845614D01*
X134534475Y-46281658D01*
X134582973Y-46503101D01*
X134687371Y-46567908D01*
X134760533Y-46560880D01*
X134985588Y-46413139D01*
X135181149Y-46133914D01*
X135290710Y-45820952D01*
X135233423Y-45566778D01*
X135144900Y-45418648D01*
X134890401Y-45120375D01*
X134697026Y-45084831D01*
X134572125Y-45306973D01*
X134523049Y-45781758D01*
X134522594Y-45845614D01*
X133134548Y-45845614D01*
X133114421Y-45418498D01*
X133072244Y-44768780D01*
X133067664Y-44708988D01*
X132979963Y-43582375D01*
X133990257Y-43582886D01*
G37*
G36*
X144914988Y-43582886D02*
G01*
X145751197Y-43643189D01*
X146366989Y-43836516D01*
X146790616Y-44182942D01*
X147050331Y-44702542D01*
X147148374Y-45169842D01*
X147125721Y-45874282D01*
X146876973Y-46487277D01*
X146425410Y-46951917D01*
X146417184Y-46957485D01*
X146080884Y-47139571D01*
X145696569Y-47235808D01*
X145163886Y-47268564D01*
X145017453Y-47269472D01*
X144081734Y-47269472D01*
X144080915Y-46552536D01*
X144069215Y-46056458D01*
X144059280Y-45845614D01*
X145447325Y-45845614D01*
X145459206Y-46281658D01*
X145507704Y-46503101D01*
X145612102Y-46567908D01*
X145685264Y-46560880D01*
X145910319Y-46413139D01*
X146105880Y-46133914D01*
X146215441Y-45820952D01*
X146158154Y-45566778D01*
X146069632Y-45418648D01*
X145815133Y-45120375D01*
X145621757Y-45084831D01*
X145496856Y-45306973D01*
X145447780Y-45781758D01*
X145447325Y-45845614D01*
X144059280Y-45845614D01*
X144039153Y-45418498D01*
X143996975Y-44768780D01*
X143992395Y-44708988D01*
X143904694Y-43582375D01*
X144914988Y-43582886D01*
G37*
G36*
X125081938Y-43528477D02*
G01*
X125609865Y-43806969D01*
X125998974Y-44287077D01*
X126000166Y-44289378D01*
X126155696Y-44824165D01*
X126175227Y-45474863D01*
X126068358Y-46126305D01*
X125844684Y-46663327D01*
X125796441Y-46734003D01*
X125602984Y-47017142D01*
X125567358Y-47192189D01*
X125679470Y-47366446D01*
X125731473Y-47424753D01*
X125889527Y-47637980D01*
X125852027Y-47767559D01*
X125777379Y-47821954D01*
X125438479Y-47942927D01*
X125154046Y-47814009D01*
X125127325Y-47788397D01*
X124982377Y-47567314D01*
X124963052Y-47481139D01*
X124842672Y-47383475D01*
X124547507Y-47330022D01*
X124488257Y-47327638D01*
X123938697Y-47191081D01*
X123500518Y-46829770D01*
X123198781Y-46278074D01*
X123085123Y-45704475D01*
X124189449Y-45704475D01*
X124268128Y-46109867D01*
X124353385Y-46271231D01*
X124592778Y-46636591D01*
X124846396Y-46323387D01*
X125032770Y-46018196D01*
X125100013Y-45778293D01*
X125015872Y-45450237D01*
X124814087Y-45199739D01*
X124570617Y-45110836D01*
X124509314Y-45124770D01*
X124274169Y-45344312D01*
X124189449Y-45704475D01*
X123085123Y-45704475D01*
X123058548Y-45570356D01*
X123051626Y-45357644D01*
X123146028Y-44593895D01*
X123425940Y-44018858D01*
X123866511Y-43652966D01*
X124479413Y-43470758D01*
X125081938Y-43528477D01*
G37*
G36*
X137467984Y-43593628D02*
G01*
X137704832Y-43668731D01*
X137875281Y-43869702D01*
X138060510Y-44230576D01*
X138375431Y-44878776D01*
X138704855Y-44230576D01*
X138909275Y-43854115D01*
X139086497Y-43661780D01*
X139328186Y-43591799D01*
X139666775Y-43582375D01*
X140299270Y-43582375D01*
X140211101Y-44913827D01*
X140172079Y-45554999D01*
X140141734Y-46152207D01*
X140124517Y-46613113D01*
X140122225Y-46757375D01*
X140102354Y-47093413D01*
X140001885Y-47237268D01*
X139757636Y-47269320D01*
X139719693Y-47269472D01*
X139464070Y-47245860D01*
X139339344Y-47124168D01*
X139286390Y-46828109D01*
X139275876Y-46696826D01*
X139233884Y-46124180D01*
X138856409Y-46696826D01*
X138621486Y-47025262D01*
X138438193Y-47231951D01*
X138378452Y-47268539D01*
X138246407Y-47165262D01*
X138035761Y-46907467D01*
X137953109Y-46790582D01*
X137680491Y-46439517D01*
X137503871Y-46339434D01*
X137411490Y-46490352D01*
X137390336Y-46791515D01*
X137367498Y-47112636D01*
X137251659Y-47244346D01*
X136980658Y-47269472D01*
X136751727Y-47258212D01*
X136629436Y-47180966D01*
X136580347Y-46972535D01*
X136571018Y-46567721D01*
X136570981Y-46470721D01*
X136558368Y-45911431D01*
X136525417Y-45233445D01*
X136482663Y-44627172D01*
X136394346Y-43582375D01*
X137069968Y-43582375D01*
X137467984Y-43593628D01*
G37*
G36*
X131654093Y-43598129D02*
G01*
X131874015Y-43666101D01*
X131974467Y-43817351D01*
X131994144Y-43889633D01*
X132053617Y-44145598D01*
X132158728Y-44597928D01*
X132293288Y-45176956D01*
X132406423Y-45663778D01*
X132543888Y-46261213D01*
X132654825Y-46754634D01*
X132726582Y-47087030D01*
X132747325Y-47200069D01*
X132629142Y-47262380D01*
X132338484Y-47280619D01*
X131971193Y-47261719D01*
X131623106Y-47212613D01*
X131390064Y-47140234D01*
X131347041Y-47098773D01*
X131252810Y-47005396D01*
X131057038Y-47120096D01*
X131052135Y-47124132D01*
X130850793Y-47250251D01*
X130716313Y-47175728D01*
X130678134Y-47124132D01*
X130547730Y-47006316D01*
X130472323Y-47098773D01*
X130298001Y-47228487D01*
X130057115Y-47269472D01*
X129810899Y-47231639D01*
X129769633Y-47068886D01*
X129793623Y-46962214D01*
X129856672Y-46700915D01*
X129911604Y-46458364D01*
X130635542Y-46458364D01*
X130672691Y-46567473D01*
X130859499Y-46562015D01*
X130862915Y-46561513D01*
X131117507Y-46468770D01*
X131202179Y-46376315D01*
X131166523Y-46164638D01*
X131062836Y-45979836D01*
X130930449Y-45830817D01*
X130838744Y-45877115D01*
X130728438Y-46151093D01*
X130723571Y-46165034D01*
X130635542Y-46458364D01*
X129911604Y-46458364D01*
X129959604Y-46246422D01*
X130085829Y-45672756D01*
X130168580Y-45289364D01*
X130296047Y-44698545D01*
X130405286Y-44200078D01*
X130481818Y-43859600D01*
X130507445Y-43753074D01*
X130673258Y-43640129D01*
X131069800Y-43585891D01*
X131238287Y-43582375D01*
X131654093Y-43598129D01*
G37*
%TO.C,kibuzzard-65B29E5A*%
G36*
X109321498Y-98258124D02*
G01*
X108813622Y-98258124D01*
X109066164Y-97497705D01*
X109321498Y-98258124D01*
G37*
G36*
X107365861Y-97343877D02*
G01*
X107469285Y-97405618D01*
X107530502Y-97503286D01*
X107550908Y-97631650D01*
X107529282Y-97757399D01*
X107464402Y-97852800D01*
X107360106Y-97912970D01*
X107220231Y-97933027D01*
X106882577Y-97933027D01*
X106882577Y-97323297D01*
X107218835Y-97323297D01*
X107365861Y-97343877D01*
G37*
G36*
X116291962Y-96368922D02*
G01*
X116451062Y-96392523D01*
X116607082Y-96431604D01*
X116758521Y-96485789D01*
X116903920Y-96554558D01*
X117041877Y-96637246D01*
X117171066Y-96733059D01*
X117290241Y-96841073D01*
X117398255Y-96960249D01*
X117494068Y-97089437D01*
X117576757Y-97227395D01*
X117645525Y-97372793D01*
X117699711Y-97524232D01*
X117738792Y-97680253D01*
X117762392Y-97839353D01*
X117770284Y-98000000D01*
X117762392Y-98160647D01*
X117738792Y-98319747D01*
X117699711Y-98475768D01*
X117645525Y-98627207D01*
X117576757Y-98772605D01*
X117494068Y-98910563D01*
X117398255Y-99039751D01*
X117290241Y-99158927D01*
X117171066Y-99266941D01*
X117041877Y-99362754D01*
X116903920Y-99445442D01*
X116758521Y-99514211D01*
X116607082Y-99568396D01*
X116451062Y-99607477D01*
X116291962Y-99631078D01*
X116131315Y-99638970D01*
X115536002Y-99638970D01*
X113058014Y-99638970D01*
X111862273Y-99638970D01*
X108561079Y-99638970D01*
X106882577Y-99638970D01*
X106463998Y-99638970D01*
X105868685Y-99638970D01*
X105708038Y-99631078D01*
X105548938Y-99607477D01*
X105392917Y-99568396D01*
X105241479Y-99514211D01*
X105096080Y-99445442D01*
X104958123Y-99362753D01*
X104828934Y-99266941D01*
X104709759Y-99158927D01*
X104601745Y-99039751D01*
X104505932Y-98910563D01*
X104423243Y-98772605D01*
X104354475Y-98627207D01*
X104300289Y-98475768D01*
X104261208Y-98319747D01*
X104237608Y-98160647D01*
X104229716Y-98000000D01*
X104237608Y-97839353D01*
X104261208Y-97680253D01*
X104300289Y-97524232D01*
X104354475Y-97372793D01*
X104423243Y-97227395D01*
X104505932Y-97089437D01*
X104583946Y-96984248D01*
X106463998Y-96984248D01*
X106463998Y-99015752D01*
X106882577Y-99015752D01*
X106882577Y-98272076D01*
X107216045Y-98272076D01*
X107596952Y-99015752D01*
X108046227Y-99015752D01*
X108115990Y-99015752D01*
X108561079Y-99015752D01*
X108700605Y-98597173D01*
X109434514Y-98597173D01*
X109575436Y-99015752D01*
X110020525Y-99015752D01*
X109260106Y-96984248D01*
X110210281Y-96984248D01*
X110210281Y-99015752D01*
X110628860Y-99015752D01*
X110628860Y-97679089D01*
X111443694Y-99015752D01*
X111862273Y-99015752D01*
X111862273Y-98079530D01*
X112177602Y-98079530D01*
X112191167Y-98268201D01*
X112228142Y-98439818D01*
X112288526Y-98594382D01*
X112419332Y-98787452D01*
X112595484Y-98928548D01*
X112735243Y-98992498D01*
X112889419Y-99030867D01*
X113058014Y-99043657D01*
X113297999Y-99024996D01*
X113515660Y-98969011D01*
X113698789Y-98879191D01*
X113835176Y-98759023D01*
X113835176Y-97948375D01*
X113035690Y-97948375D01*
X113035690Y-98256729D01*
X113416597Y-98256729D01*
X113416597Y-98606940D01*
X113282302Y-98682284D01*
X113080338Y-98707399D01*
X112874188Y-98666587D01*
X112724546Y-98544153D01*
X112657108Y-98417959D01*
X112616645Y-98257039D01*
X112603158Y-98061392D01*
X112603158Y-97931632D01*
X112616335Y-97737845D01*
X112654007Y-97578785D01*
X112716174Y-97454452D01*
X112853259Y-97334110D01*
X113041271Y-97293997D01*
X113190738Y-97314228D01*
X113304278Y-97374922D01*
X113382936Y-97479218D01*
X113427759Y-97630255D01*
X113835176Y-97630255D01*
X113791612Y-97428174D01*
X113711152Y-97260975D01*
X113593795Y-97128658D01*
X113440471Y-97032927D01*
X113280834Y-96984248D01*
X114174225Y-96984248D01*
X114174225Y-99015752D01*
X115536002Y-99015752D01*
X115536002Y-98679493D01*
X114592804Y-98679493D01*
X114592804Y-98135341D01*
X115396476Y-98135341D01*
X115396476Y-97807454D01*
X114592804Y-97807454D01*
X114592804Y-97323297D01*
X115533212Y-97323297D01*
X115533212Y-96984248D01*
X114174225Y-96984248D01*
X113280834Y-96984248D01*
X113252110Y-96975489D01*
X113028713Y-96956343D01*
X112863064Y-96969443D01*
X112712143Y-97008743D01*
X112575950Y-97074243D01*
X112405379Y-97218304D01*
X112280154Y-97414687D01*
X112223181Y-97572119D01*
X112188997Y-97747690D01*
X112177602Y-97941399D01*
X112177602Y-98079530D01*
X111862273Y-98079530D01*
X111862273Y-96984248D01*
X111445089Y-96984248D01*
X111445089Y-98323701D01*
X110628860Y-96984248D01*
X110210281Y-96984248D01*
X109260106Y-96984248D01*
X108872223Y-96984248D01*
X108115990Y-99015752D01*
X108046227Y-99015752D01*
X108046227Y-98996218D01*
X107606719Y-98166036D01*
X107766302Y-98069589D01*
X107879493Y-97944887D01*
X107946989Y-97788792D01*
X107969487Y-97598164D01*
X107947783Y-97417555D01*
X107882671Y-97266401D01*
X107774150Y-97144703D01*
X107625632Y-97055562D01*
X107440527Y-97002076D01*
X107218835Y-96984248D01*
X106463998Y-96984248D01*
X104583946Y-96984248D01*
X104601745Y-96960249D01*
X104709759Y-96841073D01*
X104828934Y-96733059D01*
X104958123Y-96637247D01*
X105096080Y-96554558D01*
X105241479Y-96485789D01*
X105392917Y-96431604D01*
X105548938Y-96392523D01*
X105708038Y-96368922D01*
X105868685Y-96361030D01*
X106463998Y-96361030D01*
X115536002Y-96361030D01*
X116131315Y-96361030D01*
X116291962Y-96368922D01*
G37*
%TO.C,kibuzzard-65B2A761*%
G36*
X136177713Y-74515128D02*
G01*
X136250267Y-74722324D01*
X136250267Y-74754415D01*
X135689371Y-74754415D01*
X135723729Y-74621168D01*
X135784946Y-74522802D01*
X135979586Y-74441876D01*
X136177713Y-74515128D01*
G37*
G36*
X131384982Y-75226014D02*
G01*
X131273361Y-75332752D01*
X131108720Y-75372517D01*
X130963613Y-75323683D01*
X130910593Y-75199504D01*
X130911988Y-75175785D01*
X130956481Y-75059513D01*
X131063917Y-74989750D01*
X131234294Y-74966495D01*
X131384982Y-74966495D01*
X131384982Y-75226014D01*
G37*
G36*
X134510722Y-74477804D02*
G01*
X134616413Y-74581403D01*
X134616413Y-75216248D01*
X134510722Y-75319846D01*
X134352708Y-75354379D01*
X134224344Y-75325253D01*
X134126675Y-75237874D01*
X134064935Y-75099220D01*
X134044355Y-74916266D01*
X134065109Y-74709767D01*
X134127373Y-74561869D01*
X134225914Y-74472921D01*
X134355499Y-74443271D01*
X134510722Y-74477804D01*
G37*
G36*
X139514874Y-74700000D02*
G01*
X138324559Y-76485472D01*
X137729246Y-76485472D01*
X137278576Y-76485472D01*
X136025629Y-76485472D01*
X134295502Y-76485472D01*
X133394162Y-76485472D01*
X131020818Y-76485472D01*
X130235285Y-76485472D01*
X128689333Y-76485472D01*
X128270754Y-76485472D01*
X127675441Y-76485472D01*
X126485126Y-74700000D01*
X127204152Y-73621461D01*
X128270754Y-73621461D01*
X128270754Y-75652965D01*
X128689333Y-75652965D01*
X128689333Y-74822783D01*
X129493005Y-74822783D01*
X129493005Y-74485129D01*
X128689333Y-74485129D01*
X128689333Y-73960510D01*
X129593464Y-73960510D01*
X129593464Y-73621461D01*
X128270754Y-73621461D01*
X127204152Y-73621461D01*
X127278566Y-73509840D01*
X129830659Y-73509840D01*
X129830659Y-75652965D01*
X130235285Y-75652965D01*
X130235285Y-75228805D01*
X130507361Y-75228805D01*
X130543813Y-75407399D01*
X130653167Y-75552506D01*
X130817982Y-75648779D01*
X131020818Y-75680870D01*
X131233247Y-75640059D01*
X131401725Y-75517625D01*
X131442188Y-75652965D01*
X131849605Y-75652965D01*
X132090986Y-75652965D01*
X132494217Y-75652965D01*
X132494217Y-74588379D01*
X132600606Y-74479548D01*
X132749550Y-74443271D01*
X132935120Y-74501175D01*
X132990931Y-74687443D01*
X132990931Y-75652965D01*
X133394162Y-75652965D01*
X133394162Y-74903708D01*
X133641124Y-74903708D01*
X133659805Y-75122687D01*
X133715848Y-75310815D01*
X133809253Y-75468093D01*
X133932889Y-75586302D01*
X134079624Y-75657228D01*
X134249459Y-75680870D01*
X134454911Y-75641454D01*
X134616413Y-75523206D01*
X134616413Y-75604131D01*
X134594089Y-75743832D01*
X134527116Y-75847604D01*
X134420030Y-75911961D01*
X134277364Y-75933413D01*
X134078539Y-75891206D01*
X133911805Y-75764586D01*
X133733211Y-76010153D01*
X133833321Y-76105205D01*
X133971801Y-76181072D01*
X134131559Y-76230779D01*
X134295502Y-76247347D01*
X134500606Y-76228163D01*
X134677805Y-76170608D01*
X134822738Y-76076428D01*
X134931045Y-75947366D01*
X134998541Y-75787957D01*
X135021039Y-75602736D01*
X135021039Y-74934404D01*
X135276373Y-74934404D01*
X135299550Y-75145399D01*
X135369080Y-75326318D01*
X135484965Y-75477162D01*
X135637746Y-75590333D01*
X135817968Y-75658236D01*
X136025629Y-75680870D01*
X136205618Y-75662906D01*
X136235731Y-75652965D01*
X136875345Y-75652965D01*
X137278576Y-75652965D01*
X137278576Y-74665118D01*
X137389151Y-74548963D01*
X137578558Y-74510244D01*
X137723665Y-74521406D01*
X137729246Y-74133523D01*
X137603672Y-74115385D01*
X137412173Y-74167358D01*
X137267414Y-74323279D01*
X137256252Y-74143290D01*
X136875345Y-74143290D01*
X136875345Y-75652965D01*
X136235731Y-75652965D01*
X136368864Y-75609014D01*
X136507693Y-75523031D01*
X136614431Y-75408794D01*
X136416303Y-75186947D01*
X136259685Y-75313567D01*
X136052139Y-75355774D01*
X135914531Y-75333450D01*
X135803085Y-75266477D01*
X135724427Y-75162530D01*
X135685185Y-75029282D01*
X136646522Y-75029282D01*
X136646522Y-74864641D01*
X136626755Y-74643724D01*
X136567457Y-74459084D01*
X136468625Y-74310721D01*
X136335378Y-74202201D01*
X136172830Y-74137089D01*
X135980981Y-74115385D01*
X135785818Y-74139627D01*
X135613329Y-74212355D01*
X135470489Y-74329906D01*
X135364274Y-74488618D01*
X135298348Y-74679943D01*
X135276373Y-74895337D01*
X135276373Y-74934404D01*
X135021039Y-74934404D01*
X135021039Y-74143290D01*
X134655480Y-74143290D01*
X134638737Y-74285607D01*
X134473050Y-74157940D01*
X134252249Y-74115385D01*
X134078074Y-74138949D01*
X133929478Y-74209642D01*
X133806462Y-74327465D01*
X133714608Y-74483889D01*
X133659495Y-74670389D01*
X133641124Y-74886965D01*
X133641124Y-74903708D01*
X133394162Y-74903708D01*
X133394162Y-74677676D01*
X133362769Y-74432109D01*
X133274169Y-74256306D01*
X133126271Y-74150615D01*
X132916982Y-74115385D01*
X132747845Y-74137864D01*
X132603203Y-74205302D01*
X132483055Y-74317698D01*
X132470497Y-74143290D01*
X132090986Y-74143290D01*
X132090986Y-75652965D01*
X131849605Y-75652965D01*
X131849605Y-75629246D01*
X131805305Y-75492859D01*
X131789609Y-75304149D01*
X131789609Y-74649771D01*
X131748623Y-74424261D01*
X131625665Y-74255609D01*
X131503580Y-74177706D01*
X131355914Y-74130965D01*
X131182669Y-74115385D01*
X131007563Y-74131256D01*
X130850596Y-74178869D01*
X130719442Y-74254388D01*
X130621773Y-74353975D01*
X130561079Y-74470479D01*
X130540848Y-74596750D01*
X130944079Y-74596750D01*
X131001982Y-74462805D01*
X131161740Y-74413971D01*
X131331265Y-74476758D01*
X131384982Y-74644189D01*
X131384982Y-74730696D01*
X131199412Y-74730696D01*
X130992836Y-74745734D01*
X130821451Y-74788987D01*
X130685258Y-74860455D01*
X130551835Y-75016725D01*
X130507361Y-75228805D01*
X130235285Y-75228805D01*
X130235285Y-73509840D01*
X129830659Y-73509840D01*
X127278566Y-73509840D01*
X127675441Y-72914528D01*
X128270754Y-72914528D01*
X137729246Y-72914528D01*
X138324559Y-72914528D01*
X139514874Y-74700000D01*
G37*
%TO.C,kibuzzard-65B29D47*%
G36*
X157319773Y-54354203D02*
G01*
X156622854Y-54354203D01*
X156969399Y-53310740D01*
X157319773Y-54354203D01*
G37*
G36*
X150179707Y-53126219D02*
G01*
X150396537Y-53290636D01*
X150494395Y-53459654D01*
X150553110Y-53674410D01*
X150572681Y-53934903D01*
X150572681Y-54082328D01*
X150550769Y-54334419D01*
X150490140Y-54544388D01*
X150390793Y-54712236D01*
X150173006Y-54877371D01*
X149875762Y-54932416D01*
X149598144Y-54932416D01*
X149598144Y-53071413D01*
X149881506Y-53071413D01*
X150179707Y-53126219D01*
G37*
G36*
X165009832Y-51799907D02*
G01*
X165224435Y-51831740D01*
X165434885Y-51884455D01*
X165639154Y-51957544D01*
X165835276Y-52050303D01*
X166021362Y-52161838D01*
X166195619Y-52291076D01*
X166356369Y-52436772D01*
X166502065Y-52597523D01*
X166631303Y-52771780D01*
X166742838Y-52957865D01*
X166835597Y-53153987D01*
X166908686Y-53358257D01*
X166961401Y-53568706D01*
X166993234Y-53783310D01*
X167003879Y-54000000D01*
X166993234Y-54216690D01*
X166961401Y-54431294D01*
X166908686Y-54641743D01*
X166835597Y-54846013D01*
X166742838Y-55042135D01*
X166631303Y-55228220D01*
X166502065Y-55402477D01*
X166356369Y-55563228D01*
X166195619Y-55708924D01*
X166021362Y-55838162D01*
X165835276Y-55949697D01*
X165639154Y-56042456D01*
X165434885Y-56115545D01*
X165224435Y-56168260D01*
X165009832Y-56200093D01*
X164793141Y-56210738D01*
X160708636Y-56210738D01*
X159793452Y-56210738D01*
X156276310Y-56210738D01*
X155571733Y-56210738D01*
X153440770Y-56210738D01*
X149023760Y-56210738D01*
X148206859Y-56210738D01*
X147990169Y-56200093D01*
X147775565Y-56168260D01*
X147565116Y-56115545D01*
X147360846Y-56042456D01*
X147164724Y-55949697D01*
X146978639Y-55838162D01*
X146804381Y-55708924D01*
X146643631Y-55563228D01*
X146497935Y-55402478D01*
X146368697Y-55228220D01*
X146257162Y-55042135D01*
X146164403Y-54846013D01*
X146091314Y-54641743D01*
X146038599Y-54431294D01*
X146006766Y-54216690D01*
X145996121Y-54000000D01*
X146006766Y-53783310D01*
X146038599Y-53568706D01*
X146091314Y-53358257D01*
X146164403Y-53153987D01*
X146257162Y-52957865D01*
X146368697Y-52771780D01*
X146491526Y-52606163D01*
X149023760Y-52606163D01*
X149023760Y-55393837D01*
X149887250Y-55393837D01*
X150122747Y-55374266D01*
X150341651Y-55318104D01*
X150543962Y-55225352D01*
X150723404Y-55099200D01*
X150873701Y-54942840D01*
X150994853Y-54756272D01*
X151083670Y-54545026D01*
X151136960Y-54314635D01*
X151154723Y-54065097D01*
X151154723Y-53936818D01*
X151136641Y-53686961D01*
X151082393Y-53455612D01*
X150991981Y-53242771D01*
X150869340Y-53054714D01*
X150718404Y-52897715D01*
X150539175Y-52771777D01*
X150337184Y-52679769D01*
X150117961Y-52624564D01*
X149881506Y-52606163D01*
X151572108Y-52606163D01*
X151572108Y-55393837D01*
X153440770Y-55393837D01*
X153440770Y-54932416D01*
X152146492Y-54932416D01*
X152146492Y-54185717D01*
X153249308Y-54185717D01*
X153249308Y-53735784D01*
X152146492Y-53735784D01*
X152146492Y-53071413D01*
X153436940Y-53071413D01*
X153436940Y-52606163D01*
X153777741Y-52606163D01*
X153777741Y-55393837D01*
X155571733Y-55393837D01*
X155665549Y-55393837D01*
X156276310Y-55393837D01*
X156467771Y-54819454D01*
X157474857Y-54819454D01*
X157668232Y-55393837D01*
X158278994Y-55393837D01*
X157235530Y-52606163D01*
X158294311Y-52606163D01*
X159209495Y-54382922D01*
X159209495Y-55393837D01*
X159793452Y-55393837D01*
X159793452Y-54382922D01*
X160708636Y-52606163D01*
X160080643Y-52606163D01*
X159500516Y-53862148D01*
X158924218Y-52606163D01*
X158294311Y-52606163D01*
X157235530Y-52606163D01*
X156703268Y-52606163D01*
X155665549Y-55393837D01*
X155571733Y-55393837D01*
X155571733Y-54932416D01*
X154352125Y-54932416D01*
X154352125Y-52606163D01*
X153777741Y-52606163D01*
X153436940Y-52606163D01*
X151572108Y-52606163D01*
X149881506Y-52606163D01*
X149023760Y-52606163D01*
X146491526Y-52606163D01*
X146497935Y-52597522D01*
X146643631Y-52436772D01*
X146804381Y-52291076D01*
X146978639Y-52161838D01*
X147164724Y-52050303D01*
X147360846Y-51957544D01*
X147565116Y-51884455D01*
X147775565Y-51831740D01*
X147990169Y-51799907D01*
X148206859Y-51789262D01*
X149023760Y-51789262D01*
X160708636Y-51789262D01*
X164793141Y-51789262D01*
X165009832Y-51799907D01*
G37*
%TO.C,kibuzzard-65B29BCB*%
G36*
X160771223Y-118343877D02*
G01*
X160874647Y-118405618D01*
X160935865Y-118503286D01*
X160956270Y-118631650D01*
X160934644Y-118757399D01*
X160869764Y-118852800D01*
X160765468Y-118912970D01*
X160625593Y-118933027D01*
X160287939Y-118933027D01*
X160287939Y-118323297D01*
X160624198Y-118323297D01*
X160771223Y-118343877D01*
G37*
G36*
X162204813Y-117396693D02*
G01*
X162361204Y-117419892D01*
X162514569Y-117458308D01*
X162663429Y-117511571D01*
X162806352Y-117579168D01*
X162941961Y-117660449D01*
X163068950Y-117754630D01*
X163186096Y-117860805D01*
X163292271Y-117977952D01*
X163386452Y-118104941D01*
X163467733Y-118240550D01*
X163535331Y-118383472D01*
X163588594Y-118532333D01*
X163627009Y-118685697D01*
X163650208Y-118842088D01*
X163657966Y-119000000D01*
X163650208Y-119157912D01*
X163627009Y-119314303D01*
X163588594Y-119467667D01*
X163535331Y-119616528D01*
X163467733Y-119759450D01*
X163386452Y-119895059D01*
X163292271Y-120022048D01*
X163186096Y-120139195D01*
X163068950Y-120245370D01*
X162941961Y-120339551D01*
X162806352Y-120420832D01*
X162663429Y-120488429D01*
X162514569Y-120541692D01*
X162361204Y-120580108D01*
X162204813Y-120603307D01*
X162046901Y-120611064D01*
X161451589Y-120611064D01*
X160287939Y-120611064D01*
X159623793Y-120611064D01*
X157401138Y-120611064D01*
X156254232Y-120611064D01*
X154558986Y-120611064D01*
X152966990Y-120611064D01*
X152548411Y-120611064D01*
X151953099Y-120611064D01*
X151795187Y-120603307D01*
X151638796Y-120580108D01*
X151485432Y-120541693D01*
X151336571Y-120488429D01*
X151193648Y-120420832D01*
X151058039Y-120339551D01*
X150931050Y-120245370D01*
X150813904Y-120139195D01*
X150707729Y-120022048D01*
X150613548Y-119895059D01*
X150532267Y-119759451D01*
X150464669Y-119616528D01*
X150411406Y-119467667D01*
X150372991Y-119314303D01*
X150349792Y-119157912D01*
X150342034Y-119000000D01*
X150349792Y-118842088D01*
X150372991Y-118685697D01*
X150411406Y-118532333D01*
X150464669Y-118383472D01*
X150532267Y-118240549D01*
X150613548Y-118104941D01*
X150703060Y-117984248D01*
X152548411Y-117984248D01*
X152548411Y-120015752D01*
X152966990Y-120015752D01*
X152966990Y-119185570D01*
X153770662Y-119185570D01*
X153770662Y-118847916D01*
X152966990Y-118847916D01*
X152966990Y-118323297D01*
X153871121Y-118323297D01*
X153871121Y-117984248D01*
X154140407Y-117984248D01*
X154140407Y-120015752D01*
X154558986Y-120015752D01*
X154558986Y-117984248D01*
X154946870Y-117984248D01*
X154946870Y-120015752D01*
X156254232Y-120015752D01*
X156254232Y-119679493D01*
X155365449Y-119679493D01*
X155365449Y-117984248D01*
X156368643Y-117984248D01*
X156368643Y-118323297D01*
X156982559Y-118323297D01*
X156982559Y-120015752D01*
X157401138Y-120015752D01*
X157401138Y-118323297D01*
X158023426Y-118323297D01*
X158023426Y-117984248D01*
X158262016Y-117984248D01*
X158262016Y-120015752D01*
X159623793Y-120015752D01*
X159623793Y-119679493D01*
X158680595Y-119679493D01*
X158680595Y-119135341D01*
X159484267Y-119135341D01*
X159484267Y-118807454D01*
X158680595Y-118807454D01*
X158680595Y-118323297D01*
X159621003Y-118323297D01*
X159621003Y-117984248D01*
X159869360Y-117984248D01*
X159869360Y-120015752D01*
X160287939Y-120015752D01*
X160287939Y-119272076D01*
X160621407Y-119272076D01*
X161002314Y-120015752D01*
X161451589Y-120015752D01*
X161451589Y-119996218D01*
X161012081Y-119166036D01*
X161171664Y-119069589D01*
X161284855Y-118944887D01*
X161352351Y-118788792D01*
X161374849Y-118598164D01*
X161353145Y-118417555D01*
X161288033Y-118266401D01*
X161179512Y-118144703D01*
X161030994Y-118055562D01*
X160845889Y-118002076D01*
X160624198Y-117984248D01*
X159869360Y-117984248D01*
X159621003Y-117984248D01*
X158262016Y-117984248D01*
X158023426Y-117984248D01*
X156368643Y-117984248D01*
X155365449Y-117984248D01*
X154946870Y-117984248D01*
X154558986Y-117984248D01*
X154140407Y-117984248D01*
X153871121Y-117984248D01*
X152548411Y-117984248D01*
X150703060Y-117984248D01*
X150707729Y-117977952D01*
X150813904Y-117860805D01*
X150931050Y-117754630D01*
X151058039Y-117660449D01*
X151193648Y-117579168D01*
X151336571Y-117511571D01*
X151485432Y-117458307D01*
X151638796Y-117419892D01*
X151795187Y-117396693D01*
X151953099Y-117388936D01*
X152548411Y-117388936D01*
X161451589Y-117388936D01*
X162046901Y-117388936D01*
X162204813Y-117396693D01*
G37*
%TO.C,kibuzzard-65B29E0F*%
G36*
X115771351Y-75396693D02*
G01*
X115927743Y-75419892D01*
X116081107Y-75458308D01*
X116229967Y-75511571D01*
X116372890Y-75579168D01*
X116508499Y-75660449D01*
X116635488Y-75754630D01*
X116752634Y-75860805D01*
X116858809Y-75977952D01*
X116952990Y-76104941D01*
X117034271Y-76240550D01*
X117101869Y-76383472D01*
X117155132Y-76532333D01*
X117193548Y-76685697D01*
X117216746Y-76842088D01*
X117224504Y-77000000D01*
X117216746Y-77157912D01*
X117193548Y-77314303D01*
X117155132Y-77467667D01*
X117101869Y-77616528D01*
X117034271Y-77759450D01*
X116952990Y-77895059D01*
X116858809Y-78022048D01*
X116752634Y-78139195D01*
X116635488Y-78245370D01*
X116508499Y-78339551D01*
X116372890Y-78420832D01*
X116229967Y-78488429D01*
X116081107Y-78541692D01*
X115927743Y-78580108D01*
X115771351Y-78603307D01*
X115613439Y-78611064D01*
X113470314Y-78611064D01*
X111477878Y-78611064D01*
X110667230Y-78611064D01*
X108529686Y-78611064D01*
X106386561Y-78611064D01*
X106228649Y-78603307D01*
X106072258Y-78580108D01*
X105918893Y-78541693D01*
X105770033Y-78488429D01*
X105627110Y-78420832D01*
X105491501Y-78339551D01*
X105364512Y-78245370D01*
X105247366Y-78139195D01*
X105141191Y-78022048D01*
X105047010Y-77895059D01*
X104965729Y-77759451D01*
X104898131Y-77616528D01*
X104844868Y-77467667D01*
X104806452Y-77314303D01*
X104783254Y-77157912D01*
X104775496Y-77000000D01*
X104783254Y-76842088D01*
X104806452Y-76685697D01*
X104844868Y-76532333D01*
X104898131Y-76383472D01*
X104965729Y-76240549D01*
X105047010Y-76104941D01*
X105136522Y-75984248D01*
X108529686Y-75984248D01*
X108529686Y-78015752D01*
X108948265Y-78015752D01*
X108948265Y-77460437D01*
X108906407Y-76503286D01*
X109453350Y-78015752D01*
X109740775Y-78015752D01*
X110289113Y-76501891D01*
X110247255Y-77460437D01*
X110247255Y-78015752D01*
X110667230Y-78015752D01*
X110667230Y-75984248D01*
X111059299Y-75984248D01*
X111059299Y-78015752D01*
X111477878Y-78015752D01*
X111715073Y-78015752D01*
X112202020Y-78015752D01*
X112592694Y-77304167D01*
X112983367Y-78015752D01*
X113470314Y-78015752D01*
X112863375Y-76991628D01*
X113454967Y-75984248D01*
X112973601Y-75984248D01*
X112592694Y-76684670D01*
X112211787Y-75984248D01*
X111730421Y-75984248D01*
X112322012Y-76991628D01*
X111715073Y-78015752D01*
X111477878Y-78015752D01*
X111477878Y-75984248D01*
X111059299Y-75984248D01*
X110667230Y-75984248D01*
X110117496Y-75984248D01*
X109598458Y-77457646D01*
X109076629Y-75984248D01*
X108529686Y-75984248D01*
X105136522Y-75984248D01*
X105141191Y-75977952D01*
X105247366Y-75860805D01*
X105364512Y-75754630D01*
X105491501Y-75660449D01*
X105627110Y-75579168D01*
X105770033Y-75511571D01*
X105918893Y-75458307D01*
X106072258Y-75419892D01*
X106228649Y-75396693D01*
X106386561Y-75388936D01*
X108529686Y-75388936D01*
X113470314Y-75388936D01*
X115613439Y-75388936D01*
X115771351Y-75396693D01*
G37*
%TO.C,kibuzzard-65B29E34*%
G36*
X109555902Y-118348412D02*
G01*
X109660547Y-118418175D01*
X109726473Y-118524564D01*
X109748448Y-118659556D01*
X109726647Y-118787920D01*
X109661244Y-118882798D01*
X109554332Y-118941399D01*
X109408004Y-118960933D01*
X109034073Y-118960933D01*
X109034073Y-118323297D01*
X109417771Y-118323297D01*
X109555902Y-118348412D01*
G37*
G36*
X114515716Y-118363237D02*
G01*
X114673729Y-118483055D01*
X114745043Y-118606226D01*
X114787831Y-118762728D01*
X114802093Y-118952561D01*
X114802093Y-119059996D01*
X114786125Y-119243706D01*
X114741942Y-119396720D01*
X114669543Y-119519038D01*
X114510832Y-119639380D01*
X114294217Y-119679493D01*
X114091904Y-119679493D01*
X114091904Y-118323297D01*
X114298403Y-118323297D01*
X114515716Y-118363237D01*
G37*
G36*
X115982213Y-117368922D02*
G01*
X116141313Y-117392523D01*
X116297334Y-117431604D01*
X116448773Y-117485789D01*
X116594171Y-117554558D01*
X116732129Y-117637246D01*
X116861317Y-117733059D01*
X116980493Y-117841073D01*
X117088507Y-117960249D01*
X117184320Y-118089437D01*
X117267008Y-118227395D01*
X117335777Y-118372793D01*
X117389962Y-118524232D01*
X117429043Y-118680253D01*
X117452644Y-118839353D01*
X117460536Y-119000000D01*
X117452644Y-119160647D01*
X117429043Y-119319747D01*
X117389962Y-119475768D01*
X117335777Y-119627207D01*
X117267008Y-119772605D01*
X117184320Y-119910563D01*
X117088507Y-120039751D01*
X116980493Y-120158927D01*
X116861317Y-120266941D01*
X116732129Y-120362754D01*
X116594171Y-120445442D01*
X116448773Y-120514211D01*
X116297334Y-120568396D01*
X116141313Y-120607477D01*
X115982213Y-120631078D01*
X115821566Y-120638970D01*
X115226254Y-120638970D01*
X113673325Y-120638970D01*
X113427759Y-120638970D01*
X111820415Y-120638970D01*
X109034073Y-120638970D01*
X107595557Y-120638970D01*
X106773746Y-120638970D01*
X106178434Y-120638970D01*
X106017787Y-120631078D01*
X105858687Y-120607477D01*
X105702666Y-120568396D01*
X105551227Y-120514211D01*
X105405829Y-120445442D01*
X105267871Y-120362753D01*
X105138682Y-120266941D01*
X105019507Y-120158927D01*
X104911493Y-120039751D01*
X104815680Y-119910563D01*
X104732992Y-119772605D01*
X104664223Y-119627207D01*
X104610038Y-119475768D01*
X104585228Y-119376721D01*
X106773746Y-119376721D01*
X106799035Y-119561594D01*
X106874903Y-119722747D01*
X106998907Y-119856169D01*
X107168606Y-119957849D01*
X107371617Y-120022205D01*
X107595557Y-120043657D01*
X107805311Y-120026992D01*
X107984370Y-119976995D01*
X108132733Y-119893666D01*
X108243579Y-119781038D01*
X108310087Y-119643139D01*
X108332256Y-119479971D01*
X108291444Y-119262310D01*
X108169010Y-119083716D01*
X108038630Y-118983412D01*
X107865152Y-118894580D01*
X107648577Y-118817220D01*
X107478180Y-118756526D01*
X107354874Y-118691647D01*
X107255112Y-118525610D01*
X107340223Y-118354691D01*
X107442426Y-118306031D01*
X107578813Y-118289811D01*
X107720084Y-118309170D01*
X107825775Y-118367248D01*
X107891701Y-118460207D01*
X107913677Y-118584211D01*
X108332256Y-118584211D01*
X108308711Y-118411199D01*
X108238075Y-118257720D01*
X108124885Y-118130228D01*
X107973673Y-118035175D01*
X107816835Y-117984248D01*
X108615494Y-117984248D01*
X108615494Y-120015752D01*
X109034073Y-120015752D01*
X109034073Y-119299982D01*
X109401028Y-119299982D01*
X109624502Y-119280836D01*
X109813096Y-119223397D01*
X109966807Y-119127667D01*
X110080366Y-118998760D01*
X110148501Y-118841793D01*
X110171213Y-118656765D01*
X110147843Y-118470672D01*
X110077731Y-118305856D01*
X109964191Y-118169295D01*
X109810538Y-118067964D01*
X109623049Y-118005177D01*
X109408004Y-117984248D01*
X110458638Y-117984248D01*
X110458638Y-120015752D01*
X111820415Y-120015752D01*
X111820415Y-119679493D01*
X110877217Y-119679493D01*
X110877217Y-119135341D01*
X111680889Y-119135341D01*
X111680889Y-118807454D01*
X110877217Y-118807454D01*
X110877217Y-118323297D01*
X111817624Y-118323297D01*
X111817624Y-117984248D01*
X112065981Y-117984248D01*
X112065981Y-120015752D01*
X113427759Y-120015752D01*
X113427759Y-119679493D01*
X112484560Y-119679493D01*
X112484560Y-119135341D01*
X113288232Y-119135341D01*
X113288232Y-118807454D01*
X112484560Y-118807454D01*
X112484560Y-118323297D01*
X113424968Y-118323297D01*
X113424968Y-117984248D01*
X113673325Y-117984248D01*
X113673325Y-120015752D01*
X114302589Y-120015752D01*
X114474206Y-120001489D01*
X114633732Y-119960562D01*
X114781164Y-119892969D01*
X114911932Y-119801036D01*
X115021460Y-119687090D01*
X115109749Y-119551129D01*
X115174474Y-119397185D01*
X115213309Y-119229288D01*
X115226254Y-119047439D01*
X115226254Y-118953956D01*
X115213076Y-118771874D01*
X115173544Y-118603280D01*
X115107656Y-118448173D01*
X115018282Y-118311127D01*
X114908288Y-118196716D01*
X114777676Y-118104938D01*
X114630476Y-118037888D01*
X114470718Y-117997658D01*
X114298403Y-117984248D01*
X113673325Y-117984248D01*
X113424968Y-117984248D01*
X112065981Y-117984248D01*
X111817624Y-117984248D01*
X110458638Y-117984248D01*
X109408004Y-117984248D01*
X108615494Y-117984248D01*
X107816835Y-117984248D01*
X107791591Y-117976051D01*
X107585790Y-117956343D01*
X107380163Y-117974481D01*
X107195813Y-118028896D01*
X107042334Y-118115577D01*
X106929318Y-118230512D01*
X106859729Y-118368469D01*
X106836533Y-118524215D01*
X106874980Y-118720947D01*
X106990322Y-118888844D01*
X107182558Y-119027905D01*
X107332201Y-119096796D01*
X107527189Y-119166734D01*
X107711363Y-119235451D01*
X107828566Y-119300679D01*
X107912281Y-119482761D01*
X107828566Y-119652286D01*
X107728455Y-119697806D01*
X107595557Y-119712980D01*
X107419753Y-119691964D01*
X107294180Y-119628915D01*
X107218835Y-119523834D01*
X107193721Y-119376721D01*
X106773746Y-119376721D01*
X104585228Y-119376721D01*
X104570957Y-119319747D01*
X104547356Y-119160647D01*
X104539464Y-119000000D01*
X104547356Y-118839353D01*
X104570957Y-118680253D01*
X104610038Y-118524232D01*
X104664223Y-118372793D01*
X104732992Y-118227395D01*
X104815680Y-118089437D01*
X104911493Y-117960249D01*
X105019507Y-117841073D01*
X105138682Y-117733059D01*
X105267871Y-117637247D01*
X105405829Y-117554558D01*
X105551227Y-117485789D01*
X105702666Y-117431604D01*
X105858687Y-117392523D01*
X106017787Y-117368922D01*
X106178434Y-117361030D01*
X106773746Y-117361030D01*
X115226254Y-117361030D01*
X115821566Y-117361030D01*
X115982213Y-117368922D01*
G37*
%TO.C,kibuzzard-65B29BBA*%
G36*
X158788031Y-77258124D02*
G01*
X158280155Y-77258124D01*
X158532697Y-76497705D01*
X158788031Y-77258124D01*
G37*
G36*
X153584743Y-76363237D02*
G01*
X153742757Y-76483055D01*
X153814071Y-76606226D01*
X153856859Y-76762728D01*
X153871121Y-76952561D01*
X153871121Y-77059996D01*
X153855153Y-77243706D01*
X153810970Y-77396720D01*
X153738571Y-77519038D01*
X153579860Y-77639380D01*
X153363245Y-77679493D01*
X153160932Y-77679493D01*
X153160932Y-76323297D01*
X153367431Y-76323297D01*
X153584743Y-76363237D01*
G37*
G36*
X162010872Y-75396693D02*
G01*
X162167263Y-75419892D01*
X162320627Y-75458308D01*
X162469487Y-75511571D01*
X162612410Y-75579168D01*
X162748019Y-75660449D01*
X162875008Y-75754630D01*
X162992154Y-75860805D01*
X163098329Y-75977952D01*
X163192511Y-76104941D01*
X163273792Y-76240550D01*
X163341389Y-76383472D01*
X163394652Y-76532333D01*
X163433068Y-76685697D01*
X163456266Y-76842088D01*
X163464024Y-77000000D01*
X163456266Y-77157912D01*
X163433068Y-77314303D01*
X163394652Y-77467667D01*
X163341389Y-77616528D01*
X163273792Y-77759450D01*
X163192511Y-77895059D01*
X163098329Y-78022048D01*
X162992154Y-78139195D01*
X162875008Y-78245370D01*
X162748019Y-78339551D01*
X162612410Y-78420832D01*
X162469487Y-78488429D01*
X162320627Y-78541692D01*
X162167263Y-78580108D01*
X162010872Y-78603307D01*
X161852960Y-78611064D01*
X161257647Y-78611064D01*
X160590711Y-78611064D01*
X158027612Y-78611064D01*
X157514155Y-78611064D01*
X155961226Y-78611064D01*
X152742353Y-78611064D01*
X152147041Y-78611064D01*
X151989129Y-78603307D01*
X151832737Y-78580108D01*
X151679373Y-78541693D01*
X151530513Y-78488429D01*
X151387590Y-78420832D01*
X151251981Y-78339551D01*
X151124992Y-78245370D01*
X151007846Y-78139195D01*
X150901671Y-78022048D01*
X150807489Y-77895059D01*
X150726209Y-77759451D01*
X150658611Y-77616528D01*
X150605348Y-77467667D01*
X150566932Y-77314303D01*
X150543734Y-77157912D01*
X150535976Y-77000000D01*
X150543734Y-76842088D01*
X150566932Y-76685697D01*
X150605348Y-76532333D01*
X150658611Y-76383472D01*
X150726209Y-76240549D01*
X150807489Y-76104941D01*
X150897002Y-75984248D01*
X152742353Y-75984248D01*
X152742353Y-78015752D01*
X153371617Y-78015752D01*
X153543234Y-78001489D01*
X153702760Y-77960562D01*
X153850192Y-77892969D01*
X153980960Y-77801036D01*
X154090488Y-77687090D01*
X154178777Y-77551129D01*
X154243502Y-77397185D01*
X154282337Y-77229288D01*
X154295281Y-77047439D01*
X154295281Y-76953956D01*
X154282104Y-76771874D01*
X154242572Y-76603280D01*
X154176684Y-76448173D01*
X154087310Y-76311127D01*
X153977316Y-76196716D01*
X153846704Y-76104938D01*
X153699504Y-76037888D01*
X153539746Y-75997658D01*
X153367431Y-75984248D01*
X154599449Y-75984248D01*
X154599449Y-78015752D01*
X155961226Y-78015752D01*
X155961226Y-77679493D01*
X155018028Y-77679493D01*
X155018028Y-77135341D01*
X155821700Y-77135341D01*
X155821700Y-76807454D01*
X155018028Y-76807454D01*
X155018028Y-76323297D01*
X155958436Y-76323297D01*
X155958436Y-75984248D01*
X156206793Y-75984248D01*
X156206793Y-78015752D01*
X157514155Y-78015752D01*
X157582523Y-78015752D01*
X158027612Y-78015752D01*
X158167138Y-77597173D01*
X158901047Y-77597173D01*
X159041969Y-78015752D01*
X159487058Y-78015752D01*
X158726639Y-75984248D01*
X159498220Y-75984248D01*
X160165156Y-77279053D01*
X160165156Y-78015752D01*
X160590711Y-78015752D01*
X160590711Y-77279053D01*
X161257647Y-75984248D01*
X160800001Y-75984248D01*
X160377236Y-76899541D01*
X159957261Y-75984248D01*
X159498220Y-75984248D01*
X158726639Y-75984248D01*
X158338756Y-75984248D01*
X157582523Y-78015752D01*
X157514155Y-78015752D01*
X157514155Y-77679493D01*
X156625372Y-77679493D01*
X156625372Y-75984248D01*
X156206793Y-75984248D01*
X155958436Y-75984248D01*
X154599449Y-75984248D01*
X153367431Y-75984248D01*
X152742353Y-75984248D01*
X150897002Y-75984248D01*
X150901671Y-75977952D01*
X151007846Y-75860805D01*
X151124992Y-75754630D01*
X151251981Y-75660449D01*
X151387590Y-75579168D01*
X151530513Y-75511571D01*
X151679373Y-75458307D01*
X151832737Y-75419892D01*
X151989129Y-75396693D01*
X152147041Y-75388936D01*
X152742353Y-75388936D01*
X161257647Y-75388936D01*
X161852960Y-75388936D01*
X162010872Y-75396693D01*
G37*
%TO.C,kibuzzard-65B29E0F*%
G36*
X161771351Y-138896693D02*
G01*
X161927743Y-138919892D01*
X162081107Y-138958308D01*
X162229967Y-139011571D01*
X162372890Y-139079168D01*
X162508499Y-139160449D01*
X162635488Y-139254630D01*
X162752634Y-139360805D01*
X162858809Y-139477952D01*
X162952990Y-139604941D01*
X163034271Y-139740550D01*
X163101869Y-139883472D01*
X163155132Y-140032333D01*
X163193548Y-140185697D01*
X163216746Y-140342088D01*
X163224504Y-140500000D01*
X163216746Y-140657912D01*
X163193548Y-140814303D01*
X163155132Y-140967667D01*
X163101869Y-141116528D01*
X163034271Y-141259450D01*
X162952990Y-141395059D01*
X162858809Y-141522048D01*
X162752634Y-141639195D01*
X162635488Y-141745370D01*
X162508499Y-141839551D01*
X162372890Y-141920832D01*
X162229967Y-141988429D01*
X162081107Y-142041692D01*
X161927743Y-142080108D01*
X161771351Y-142103307D01*
X161613439Y-142111064D01*
X159470314Y-142111064D01*
X157477878Y-142111064D01*
X156667230Y-142111064D01*
X154529686Y-142111064D01*
X152386561Y-142111064D01*
X152228649Y-142103307D01*
X152072258Y-142080108D01*
X151918893Y-142041693D01*
X151770033Y-141988429D01*
X151627110Y-141920832D01*
X151491501Y-141839551D01*
X151364512Y-141745370D01*
X151247366Y-141639195D01*
X151141191Y-141522048D01*
X151047010Y-141395059D01*
X150965729Y-141259451D01*
X150898131Y-141116528D01*
X150844868Y-140967667D01*
X150806452Y-140814303D01*
X150783254Y-140657912D01*
X150775496Y-140500000D01*
X150783254Y-140342088D01*
X150806452Y-140185697D01*
X150844868Y-140032333D01*
X150898131Y-139883472D01*
X150965729Y-139740549D01*
X151047010Y-139604941D01*
X151136522Y-139484248D01*
X154529686Y-139484248D01*
X154529686Y-141515752D01*
X154948265Y-141515752D01*
X154948265Y-140960437D01*
X154906407Y-140003286D01*
X155453350Y-141515752D01*
X155740775Y-141515752D01*
X156289113Y-140001891D01*
X156247255Y-140960437D01*
X156247255Y-141515752D01*
X156667230Y-141515752D01*
X156667230Y-139484248D01*
X157059299Y-139484248D01*
X157059299Y-141515752D01*
X157477878Y-141515752D01*
X157715073Y-141515752D01*
X158202020Y-141515752D01*
X158592694Y-140804167D01*
X158983367Y-141515752D01*
X159470314Y-141515752D01*
X158863375Y-140491628D01*
X159454967Y-139484248D01*
X158973601Y-139484248D01*
X158592694Y-140184670D01*
X158211787Y-139484248D01*
X157730421Y-139484248D01*
X158322012Y-140491628D01*
X157715073Y-141515752D01*
X157477878Y-141515752D01*
X157477878Y-139484248D01*
X157059299Y-139484248D01*
X156667230Y-139484248D01*
X156117496Y-139484248D01*
X155598458Y-140957646D01*
X155076629Y-139484248D01*
X154529686Y-139484248D01*
X151136522Y-139484248D01*
X151141191Y-139477952D01*
X151247366Y-139360805D01*
X151364512Y-139254630D01*
X151491501Y-139160449D01*
X151627110Y-139079168D01*
X151770033Y-139011571D01*
X151918893Y-138958307D01*
X152072258Y-138919892D01*
X152228649Y-138896693D01*
X152386561Y-138888936D01*
X154529686Y-138888936D01*
X159470314Y-138888936D01*
X161613439Y-138888936D01*
X161771351Y-138896693D01*
G37*
%TO.C,kibuzzard-65B29D82*%
G36*
X126731006Y-54354203D02*
G01*
X126034087Y-54354203D01*
X126380632Y-53310740D01*
X126731006Y-54354203D01*
G37*
G36*
X119215676Y-53126219D02*
G01*
X119432505Y-53290636D01*
X119530363Y-53459654D01*
X119589078Y-53674410D01*
X119608650Y-53934903D01*
X119608650Y-54082328D01*
X119586738Y-54334419D01*
X119526109Y-54544388D01*
X119426762Y-54712236D01*
X119208974Y-54877371D01*
X118911731Y-54932416D01*
X118634112Y-54932416D01*
X118634112Y-53071413D01*
X118917475Y-53071413D01*
X119215676Y-53126219D01*
G37*
G36*
X116712799Y-53099654D02*
G01*
X116903303Y-53270533D01*
X116990524Y-53445826D01*
X117042857Y-53667921D01*
X117060301Y-53936818D01*
X117060301Y-54072755D01*
X117042006Y-54339418D01*
X116989673Y-54559918D01*
X116903303Y-54734254D01*
X116714714Y-54904415D01*
X116459113Y-54961135D01*
X116198726Y-54902261D01*
X116007265Y-54725638D01*
X115920044Y-54547366D01*
X115867711Y-54326548D01*
X115850267Y-54063182D01*
X115850267Y-53927245D01*
X115868775Y-53660795D01*
X115921746Y-53440933D01*
X116009179Y-53267661D01*
X116199205Y-53098936D01*
X116455284Y-53042694D01*
X116712799Y-53099654D01*
G37*
G36*
X132879781Y-53099654D02*
G01*
X133070285Y-53270533D01*
X133157507Y-53445826D01*
X133209839Y-53667921D01*
X133227284Y-53936818D01*
X133227284Y-54072755D01*
X133208988Y-54339418D01*
X133156656Y-54559918D01*
X133070285Y-54734254D01*
X132881696Y-54904415D01*
X132626095Y-54961135D01*
X132365708Y-54902261D01*
X132174247Y-54725638D01*
X132087026Y-54547366D01*
X132034693Y-54326548D01*
X132017249Y-54063182D01*
X132017249Y-53927245D01*
X132035757Y-53660795D01*
X132088728Y-53440933D01*
X132176162Y-53267661D01*
X132366187Y-53098936D01*
X132622266Y-53042694D01*
X132879781Y-53099654D01*
G37*
G36*
X137204195Y-51761799D02*
G01*
X137422516Y-51794184D01*
X137636611Y-51847812D01*
X137844419Y-51922167D01*
X138043938Y-52016532D01*
X138233246Y-52129999D01*
X138410522Y-52261476D01*
X138574057Y-52409695D01*
X138722276Y-52573230D01*
X138853753Y-52750506D01*
X138967220Y-52939814D01*
X139061585Y-53139333D01*
X139135940Y-53347141D01*
X139189568Y-53561236D01*
X139221953Y-53779556D01*
X139232783Y-54000000D01*
X139221953Y-54220444D01*
X139189568Y-54438764D01*
X139135940Y-54652859D01*
X139061585Y-54860667D01*
X138967220Y-55060186D01*
X138853753Y-55249494D01*
X138722276Y-55426770D01*
X138574057Y-55590305D01*
X138410522Y-55738524D01*
X138233246Y-55870001D01*
X138043938Y-55983468D01*
X137844419Y-56077833D01*
X137636611Y-56152188D01*
X137422516Y-56205816D01*
X137204195Y-56238201D01*
X136983752Y-56249031D01*
X136493611Y-56249031D01*
X132626095Y-56249031D01*
X130987188Y-56249031D01*
X129195111Y-56249031D01*
X125687542Y-56249031D01*
X124982965Y-56249031D01*
X121649626Y-56249031D01*
X118059729Y-56249031D01*
X116459113Y-56249031D01*
X114850839Y-56249031D01*
X111917654Y-56249031D01*
X107016248Y-56249031D01*
X106795804Y-56238201D01*
X106577484Y-56205816D01*
X106363389Y-56152188D01*
X106155581Y-56077833D01*
X105956062Y-55983468D01*
X105766753Y-55870001D01*
X105589478Y-55738524D01*
X105425943Y-55590305D01*
X105277724Y-55426770D01*
X105146247Y-55249494D01*
X105032780Y-55060186D01*
X104938415Y-54860667D01*
X104864060Y-54652859D01*
X104810432Y-54438764D01*
X104778047Y-54220444D01*
X104767217Y-54000000D01*
X104778047Y-53779556D01*
X104810432Y-53561236D01*
X104864060Y-53347141D01*
X104938415Y-53139333D01*
X105032780Y-52939814D01*
X105146247Y-52750506D01*
X105253299Y-52606163D01*
X111917654Y-52606163D01*
X111917654Y-55393837D01*
X112492038Y-55393837D01*
X112492038Y-54631822D01*
X112434599Y-53318398D01*
X113185127Y-55393837D01*
X113579537Y-55393837D01*
X114331980Y-53316484D01*
X114274541Y-54631822D01*
X114274541Y-55393837D01*
X114850839Y-55393837D01*
X114850839Y-54078499D01*
X115268225Y-54078499D01*
X115285882Y-54336227D01*
X115336300Y-54573320D01*
X115419479Y-54789777D01*
X115532654Y-54980069D01*
X115673059Y-55138662D01*
X115840694Y-55265558D01*
X116030240Y-55358098D01*
X116236380Y-55413622D01*
X116459113Y-55432130D01*
X116683867Y-55413409D01*
X116890965Y-55357247D01*
X117080405Y-55263644D01*
X117247082Y-55135578D01*
X117385892Y-54976027D01*
X117496833Y-54784991D01*
X117577672Y-54566938D01*
X117626176Y-54326335D01*
X117642343Y-54063182D01*
X117642343Y-53938732D01*
X117625856Y-53676324D01*
X117576396Y-53435402D01*
X117493961Y-53215966D01*
X117381424Y-53023442D01*
X117241658Y-52863252D01*
X117074661Y-52735399D01*
X116885433Y-52642327D01*
X116751728Y-52606163D01*
X118059729Y-52606163D01*
X118059729Y-55393837D01*
X118923219Y-55393837D01*
X119158716Y-55374266D01*
X119377620Y-55318104D01*
X119579931Y-55225352D01*
X119759372Y-55099200D01*
X119909669Y-54942840D01*
X120030822Y-54756272D01*
X120119638Y-54545026D01*
X120172928Y-54314635D01*
X120190692Y-54065097D01*
X120190692Y-53936818D01*
X120172609Y-53686961D01*
X120118362Y-53455612D01*
X120027950Y-53242771D01*
X119905308Y-53054714D01*
X119754373Y-52897715D01*
X119575144Y-52771777D01*
X119373152Y-52679769D01*
X119153929Y-52624564D01*
X118917475Y-52606163D01*
X120581272Y-52606163D01*
X120581272Y-54463336D01*
X120616374Y-54743082D01*
X120714019Y-54979856D01*
X120874208Y-55173657D01*
X121088006Y-55317253D01*
X121346479Y-55403410D01*
X121649626Y-55432130D01*
X121956921Y-55402560D01*
X122217627Y-55313849D01*
X122431745Y-55165999D01*
X122590764Y-54967304D01*
X122686175Y-54726063D01*
X122717979Y-54442275D01*
X122717979Y-52606163D01*
X123188974Y-52606163D01*
X123188974Y-55393837D01*
X124982965Y-55393837D01*
X125076781Y-55393837D01*
X125687542Y-55393837D01*
X125879003Y-54819454D01*
X126886089Y-54819454D01*
X127079465Y-55393837D01*
X127690226Y-55393837D01*
X126646763Y-52606163D01*
X127778298Y-52606163D01*
X127778298Y-53071413D01*
X128620728Y-53071413D01*
X128620728Y-55393837D01*
X129195111Y-55393837D01*
X129195111Y-53071413D01*
X130049028Y-53071413D01*
X130049028Y-52606163D01*
X130412804Y-52606163D01*
X130412804Y-55393837D01*
X130987188Y-55393837D01*
X130987188Y-54078499D01*
X131435207Y-54078499D01*
X131452864Y-54336227D01*
X131503282Y-54573320D01*
X131586461Y-54789777D01*
X131699636Y-54980069D01*
X131840041Y-55138662D01*
X132007676Y-55265558D01*
X132197222Y-55358098D01*
X132403362Y-55413622D01*
X132626095Y-55432130D01*
X132850850Y-55413409D01*
X133057947Y-55357247D01*
X133247387Y-55263644D01*
X133414065Y-55135578D01*
X133552874Y-54976027D01*
X133663815Y-54784991D01*
X133744654Y-54566938D01*
X133793158Y-54326335D01*
X133809326Y-54063182D01*
X133809326Y-53938732D01*
X133792839Y-53676324D01*
X133743378Y-53435402D01*
X133660943Y-53215966D01*
X133548406Y-53023442D01*
X133408640Y-52863252D01*
X133241643Y-52735399D01*
X133052416Y-52642327D01*
X132918710Y-52606163D01*
X134226711Y-52606163D01*
X134226711Y-55393837D01*
X134801094Y-55393837D01*
X134801094Y-53559639D01*
X135919228Y-55393837D01*
X136493611Y-55393837D01*
X136493611Y-52606163D01*
X135921142Y-52606163D01*
X135921142Y-54444190D01*
X134801094Y-52606163D01*
X134226711Y-52606163D01*
X132918710Y-52606163D01*
X132845957Y-52586485D01*
X132622266Y-52567870D01*
X132398576Y-52586485D01*
X132192117Y-52642327D01*
X132002889Y-52735399D01*
X131835893Y-52863252D01*
X131696126Y-53023442D01*
X131583589Y-53215966D01*
X131501155Y-53435615D01*
X131451694Y-53677175D01*
X131435207Y-53940647D01*
X131435207Y-54078499D01*
X130987188Y-54078499D01*
X130987188Y-52606163D01*
X130412804Y-52606163D01*
X130049028Y-52606163D01*
X127778298Y-52606163D01*
X126646763Y-52606163D01*
X126114501Y-52606163D01*
X125076781Y-55393837D01*
X124982965Y-55393837D01*
X124982965Y-54932416D01*
X123763357Y-54932416D01*
X123763357Y-52606163D01*
X123188974Y-52606163D01*
X122717979Y-52606163D01*
X122141681Y-52606163D01*
X122141681Y-54461421D01*
X122108056Y-54684234D01*
X122014838Y-54843387D01*
X121862028Y-54938878D01*
X121649626Y-54970708D01*
X121443087Y-54939356D01*
X121286807Y-54845301D01*
X121188444Y-54682798D01*
X121155656Y-54446105D01*
X121155656Y-52606163D01*
X120581272Y-52606163D01*
X118917475Y-52606163D01*
X118059729Y-52606163D01*
X116751728Y-52606163D01*
X116678975Y-52586485D01*
X116455284Y-52567870D01*
X116231594Y-52586485D01*
X116025135Y-52642327D01*
X115835907Y-52735399D01*
X115668910Y-52863252D01*
X115529144Y-53023442D01*
X115416607Y-53215966D01*
X115334172Y-53435615D01*
X115284712Y-53677175D01*
X115268225Y-53940647D01*
X115268225Y-54078499D01*
X114850839Y-54078499D01*
X114850839Y-52606163D01*
X114096482Y-52606163D01*
X113384247Y-54627993D01*
X112668182Y-52606163D01*
X111917654Y-52606163D01*
X105253299Y-52606163D01*
X105277724Y-52573230D01*
X105425943Y-52409695D01*
X105589478Y-52261476D01*
X105766753Y-52129999D01*
X105956062Y-52016532D01*
X106155581Y-51922167D01*
X106363389Y-51847812D01*
X106577484Y-51794184D01*
X106795804Y-51761799D01*
X107016248Y-51750969D01*
X111917654Y-51750969D01*
X136493611Y-51750969D01*
X136983752Y-51750969D01*
X137204195Y-51761799D01*
G37*
%TO.C,kibuzzard-65B38E0B*%
G36*
X132136158Y-97355039D02*
G01*
X132239581Y-97416780D01*
X132300799Y-97514448D01*
X132321204Y-97642812D01*
X132299578Y-97768561D01*
X132234698Y-97863962D01*
X132130402Y-97924133D01*
X131990527Y-97944189D01*
X131652873Y-97944189D01*
X131652873Y-97334459D01*
X131989132Y-97334459D01*
X132136158Y-97355039D01*
G37*
G36*
X135653792Y-97355039D02*
G01*
X135792620Y-97479567D01*
X135856182Y-97607311D01*
X135894320Y-97769161D01*
X135907032Y-97965118D01*
X135907032Y-98064182D01*
X135893700Y-98258511D01*
X135855562Y-98419199D01*
X135792620Y-98546246D01*
X135655187Y-98670250D01*
X135468919Y-98711584D01*
X135279163Y-98668680D01*
X135139637Y-98539967D01*
X135076075Y-98410052D01*
X135037938Y-98249132D01*
X135025225Y-98057206D01*
X135025225Y-97958142D01*
X135038713Y-97763968D01*
X135077315Y-97603745D01*
X135141032Y-97477474D01*
X135279512Y-97354516D01*
X135466129Y-97313530D01*
X135653792Y-97355039D01*
G37*
G36*
X137681370Y-96380031D02*
G01*
X137839387Y-96403470D01*
X137994345Y-96442285D01*
X138144752Y-96496102D01*
X138289160Y-96564402D01*
X138426178Y-96646528D01*
X138554487Y-96741688D01*
X138672851Y-96848966D01*
X138780129Y-96967330D01*
X138875289Y-97095639D01*
X138957415Y-97232657D01*
X139025715Y-97377065D01*
X139079532Y-97527472D01*
X139118347Y-97682431D01*
X139141786Y-97840447D01*
X139149624Y-98000000D01*
X139141786Y-98159553D01*
X139118347Y-98317569D01*
X139079532Y-98472528D01*
X139025715Y-98622935D01*
X138957415Y-98767343D01*
X138875289Y-98904361D01*
X138780129Y-99032670D01*
X138672851Y-99151034D01*
X138554487Y-99258312D01*
X138426178Y-99353472D01*
X138289160Y-99435598D01*
X138144752Y-99503898D01*
X137994345Y-99557715D01*
X137839387Y-99596530D01*
X137681370Y-99619969D01*
X137521817Y-99627808D01*
X136331192Y-99627808D01*
X136054930Y-99627808D01*
X134419681Y-99627808D01*
X131652873Y-99627808D01*
X130087387Y-99627808D01*
X129668808Y-99627808D01*
X128478183Y-99627808D01*
X128318630Y-99619969D01*
X128160614Y-99596530D01*
X128005656Y-99557715D01*
X127855248Y-99503898D01*
X127710840Y-99435598D01*
X127573822Y-99353473D01*
X127445513Y-99258312D01*
X127327149Y-99151034D01*
X127219871Y-99032670D01*
X127124711Y-98904361D01*
X127042585Y-98767343D01*
X126974285Y-98622935D01*
X126920468Y-98472528D01*
X126881653Y-98317570D01*
X126858214Y-98159553D01*
X126850376Y-98000000D01*
X126858214Y-97840447D01*
X126881653Y-97682430D01*
X126920468Y-97527472D01*
X126974285Y-97377065D01*
X127042585Y-97232657D01*
X127124711Y-97095639D01*
X127199046Y-96995410D01*
X129668808Y-96995410D01*
X129668808Y-99026914D01*
X130087387Y-99026914D01*
X130087387Y-98196732D01*
X130891059Y-98196732D01*
X130891059Y-97859078D01*
X130087387Y-97859078D01*
X130087387Y-97334459D01*
X130991518Y-97334459D01*
X130991518Y-96995410D01*
X131234294Y-96995410D01*
X131234294Y-99026914D01*
X131652873Y-99026914D01*
X131652873Y-98283239D01*
X131986341Y-98283239D01*
X132367248Y-99026914D01*
X132816523Y-99026914D01*
X132816523Y-99007380D01*
X132377015Y-98177198D01*
X132536598Y-98080751D01*
X132649789Y-97956049D01*
X132717285Y-97799954D01*
X132739784Y-97609326D01*
X132718079Y-97428717D01*
X132652967Y-97277563D01*
X132544447Y-97155865D01*
X132395929Y-97066724D01*
X132210824Y-97013239D01*
X131989132Y-96995410D01*
X133057904Y-96995410D01*
X133057904Y-99026914D01*
X134419681Y-99026914D01*
X134419681Y-98690656D01*
X133476483Y-98690656D01*
X133476483Y-98146503D01*
X134280155Y-98146503D01*
X134280155Y-98068368D01*
X134601065Y-98068368D01*
X134613933Y-98256186D01*
X134650675Y-98428966D01*
X134711291Y-98586708D01*
X134793767Y-98725382D01*
X134896086Y-98840956D01*
X135018249Y-98933431D01*
X135156380Y-99000869D01*
X135306604Y-99041332D01*
X135468919Y-99054819D01*
X135622398Y-99042262D01*
X136054930Y-99389683D01*
X136321425Y-99153883D01*
X135983772Y-98888783D01*
X136129228Y-98741059D01*
X136239105Y-98551827D01*
X136290264Y-98403541D01*
X136320960Y-98238668D01*
X136331192Y-98057206D01*
X136331192Y-97966514D01*
X136319177Y-97775285D01*
X136283133Y-97599714D01*
X136223059Y-97439802D01*
X136141049Y-97299500D01*
X136039195Y-97182763D01*
X135917497Y-97089590D01*
X135779598Y-97021765D01*
X135629142Y-96981070D01*
X135466129Y-96967505D01*
X135303115Y-96981070D01*
X135152659Y-97021765D01*
X135014761Y-97089590D01*
X134893063Y-97182763D01*
X134791209Y-97299500D01*
X134709198Y-97439802D01*
X134649124Y-97599869D01*
X134613080Y-97775905D01*
X134601065Y-97967909D01*
X134601065Y-98068368D01*
X134280155Y-98068368D01*
X134280155Y-97818616D01*
X133476483Y-97818616D01*
X133476483Y-97334459D01*
X134416890Y-97334459D01*
X134416890Y-96995410D01*
X133057904Y-96995410D01*
X131989132Y-96995410D01*
X131234294Y-96995410D01*
X130991518Y-96995410D01*
X129668808Y-96995410D01*
X127199046Y-96995410D01*
X127219871Y-96967330D01*
X127327149Y-96848966D01*
X127445513Y-96741688D01*
X127573822Y-96646527D01*
X127710840Y-96564402D01*
X127855248Y-96496102D01*
X128005656Y-96442285D01*
X128160614Y-96403470D01*
X128318630Y-96380031D01*
X128478183Y-96372192D01*
X129668808Y-96372192D01*
X136331192Y-96372192D01*
X137521817Y-96372192D01*
X137681370Y-96380031D01*
G37*
%TO.C,kibuzzard-65B2A755*%
G36*
X135856105Y-61419772D02*
G01*
X135928658Y-61626969D01*
X135928658Y-61659060D01*
X135367762Y-61659060D01*
X135402121Y-61525812D01*
X135463338Y-61427446D01*
X135657977Y-61346521D01*
X135856105Y-61419772D01*
G37*
G36*
X132825592Y-62130659D02*
G01*
X132713971Y-62237397D01*
X132549330Y-62277162D01*
X132404222Y-62228328D01*
X132351202Y-62104149D01*
X132352598Y-62080430D01*
X132397091Y-61964158D01*
X132504526Y-61894395D01*
X132674904Y-61871140D01*
X132825592Y-61871140D01*
X132825592Y-62130659D01*
G37*
G36*
X129532770Y-60890270D02*
G01*
X129637415Y-60960033D01*
X129703341Y-61066422D01*
X129725316Y-61201414D01*
X129703515Y-61329778D01*
X129638112Y-61424656D01*
X129531200Y-61483257D01*
X129384872Y-61502791D01*
X129010941Y-61502791D01*
X129010941Y-60865155D01*
X129394639Y-60865155D01*
X129532770Y-60890270D01*
G37*
G36*
X139123502Y-61500000D02*
G01*
X138002950Y-63180828D01*
X137407638Y-63180828D01*
X136956968Y-63180828D01*
X135704021Y-63180828D01*
X134114816Y-63180828D01*
X132461428Y-63180828D01*
X131703800Y-63180828D01*
X129010941Y-63180828D01*
X128592362Y-63180828D01*
X127997050Y-63180828D01*
X126876498Y-61500000D01*
X127525761Y-60526106D01*
X128592362Y-60526106D01*
X128592362Y-62557610D01*
X129010941Y-62557610D01*
X129010941Y-61841840D01*
X129377896Y-61841840D01*
X129601370Y-61822693D01*
X129789963Y-61765255D01*
X129943675Y-61669525D01*
X130057234Y-61540618D01*
X130125369Y-61383651D01*
X130148081Y-61198623D01*
X130124710Y-61012530D01*
X130054598Y-60847714D01*
X129941059Y-60711153D01*
X129787405Y-60609822D01*
X129599917Y-60547035D01*
X129384872Y-60526106D01*
X128592362Y-60526106D01*
X127525761Y-60526106D01*
X127600175Y-60414485D01*
X130399229Y-60414485D01*
X130399229Y-62557610D01*
X130802460Y-62557610D01*
X130802460Y-61484652D01*
X130906407Y-61382100D01*
X131059188Y-61347916D01*
X131244758Y-61410005D01*
X131300569Y-61601854D01*
X131300569Y-62557610D01*
X131703800Y-62557610D01*
X131703800Y-62133450D01*
X131947971Y-62133450D01*
X131984422Y-62312043D01*
X132093776Y-62457151D01*
X132258592Y-62553424D01*
X132461428Y-62585515D01*
X132673857Y-62544704D01*
X132842335Y-62422269D01*
X132882798Y-62557610D01*
X133290215Y-62557610D01*
X133290215Y-62533890D01*
X133245915Y-62397503D01*
X133230219Y-62208794D01*
X133230219Y-62077639D01*
X133463228Y-62077639D01*
X133484156Y-62209666D01*
X133546943Y-62332275D01*
X133646530Y-62437617D01*
X133777859Y-62517845D01*
X133935699Y-62568598D01*
X134114816Y-62585515D01*
X134290309Y-62571330D01*
X134442858Y-62528774D01*
X134572462Y-62457849D01*
X134705361Y-62310474D01*
X134749661Y-62123683D01*
X134714159Y-61950205D01*
X134626685Y-61839049D01*
X134954764Y-61839049D01*
X134977941Y-62050044D01*
X135047472Y-62230963D01*
X135163356Y-62381807D01*
X135316138Y-62494978D01*
X135496359Y-62562881D01*
X135704021Y-62585515D01*
X135884010Y-62567551D01*
X135914123Y-62557610D01*
X136553737Y-62557610D01*
X136956968Y-62557610D01*
X136956968Y-61569763D01*
X137067542Y-61453607D01*
X137256949Y-61414889D01*
X137402057Y-61426051D01*
X137407638Y-61038168D01*
X137282064Y-61020029D01*
X137090564Y-61072003D01*
X136945806Y-61227924D01*
X136934644Y-61047935D01*
X136553737Y-61047935D01*
X136553737Y-62557610D01*
X135914123Y-62557610D01*
X136047256Y-62513659D01*
X136186085Y-62427676D01*
X136292822Y-62313439D01*
X136094695Y-62091592D01*
X135938076Y-62218212D01*
X135730531Y-62260419D01*
X135592923Y-62238094D01*
X135481476Y-62171122D01*
X135402818Y-62067175D01*
X135363577Y-61933927D01*
X136324913Y-61933927D01*
X136324913Y-61769286D01*
X136305147Y-61548369D01*
X136245848Y-61363729D01*
X136147017Y-61215366D01*
X136013770Y-61106846D01*
X135851221Y-61041733D01*
X135659373Y-61020029D01*
X135464210Y-61044272D01*
X135291721Y-61117000D01*
X135148880Y-61234551D01*
X135042666Y-61393262D01*
X134976740Y-61584588D01*
X134954764Y-61799982D01*
X134954764Y-61839049D01*
X134626685Y-61839049D01*
X134607654Y-61814865D01*
X134430145Y-61717661D01*
X134315036Y-61681908D01*
X134176207Y-61649991D01*
X133962034Y-61578832D01*
X133898550Y-61470699D01*
X133954360Y-61353497D01*
X134112025Y-61307454D01*
X134286433Y-61363962D01*
X134342244Y-61506976D01*
X134745475Y-61506976D01*
X134702396Y-61310942D01*
X134573160Y-61155370D01*
X134445493Y-61080181D01*
X134292247Y-61035067D01*
X134113420Y-61020029D01*
X133945291Y-61034990D01*
X133799951Y-61079871D01*
X133677401Y-61154672D01*
X133552350Y-61305884D01*
X133510667Y-61490233D01*
X133544327Y-61648072D01*
X133645309Y-61776960D01*
X133813613Y-61876896D01*
X134049238Y-61947880D01*
X134188939Y-61983633D01*
X134284340Y-62023922D01*
X134357592Y-62140426D01*
X134298293Y-62255535D01*
X134123187Y-62299486D01*
X133925060Y-62242280D01*
X133845530Y-62077639D01*
X133463228Y-62077639D01*
X133230219Y-62077639D01*
X133230219Y-61554415D01*
X133189233Y-61328906D01*
X133066275Y-61160253D01*
X132944189Y-61082351D01*
X132796524Y-61035610D01*
X132623279Y-61020029D01*
X132448173Y-61035900D01*
X132291206Y-61083514D01*
X132160051Y-61159032D01*
X132062383Y-61258619D01*
X132001689Y-61375124D01*
X131981458Y-61501395D01*
X132384689Y-61501395D01*
X132442592Y-61367450D01*
X132602350Y-61318616D01*
X132771874Y-61381403D01*
X132825592Y-61548834D01*
X132825592Y-61635341D01*
X132640022Y-61635341D01*
X132433445Y-61650378D01*
X132262061Y-61693632D01*
X132125867Y-61765100D01*
X131992445Y-61921370D01*
X131947971Y-62133450D01*
X131703800Y-62133450D01*
X131703800Y-61590692D01*
X131681643Y-61385254D01*
X131620754Y-61225468D01*
X131521132Y-61111335D01*
X131382778Y-61042856D01*
X131205691Y-61020029D01*
X131052987Y-61041423D01*
X130918577Y-61105605D01*
X130802460Y-61212576D01*
X130802460Y-60414485D01*
X130399229Y-60414485D01*
X127600175Y-60414485D01*
X127997050Y-59819172D01*
X128592362Y-59819172D01*
X137407638Y-59819172D01*
X138002950Y-59819172D01*
X139123502Y-61500000D01*
G37*
%TO.C,kibuzzard-65B29EC8*%
G36*
X129583522Y-118343877D02*
G01*
X129686946Y-118405618D01*
X129748163Y-118503286D01*
X129768569Y-118631650D01*
X129746943Y-118757399D01*
X129682063Y-118852800D01*
X129577767Y-118912970D01*
X129437892Y-118933027D01*
X129100238Y-118933027D01*
X129100238Y-118323297D01*
X129436496Y-118323297D01*
X129583522Y-118343877D01*
G37*
G36*
X138074301Y-117368922D02*
G01*
X138233401Y-117392523D01*
X138389421Y-117431604D01*
X138540860Y-117485789D01*
X138686258Y-117554558D01*
X138824216Y-117637246D01*
X138953405Y-117733059D01*
X139072580Y-117841073D01*
X139180594Y-117960249D01*
X139276407Y-118089437D01*
X139359096Y-118227395D01*
X139427864Y-118372793D01*
X139482050Y-118524232D01*
X139521131Y-118680253D01*
X139544731Y-118839353D01*
X139552623Y-119000000D01*
X139544731Y-119160647D01*
X139521131Y-119319747D01*
X139482050Y-119475768D01*
X139427864Y-119627207D01*
X139359096Y-119772605D01*
X139276407Y-119910563D01*
X139180594Y-120039751D01*
X139072580Y-120158927D01*
X138953405Y-120266941D01*
X138824216Y-120362754D01*
X138686258Y-120445442D01*
X138540860Y-120514211D01*
X138389421Y-120568396D01*
X138233401Y-120607477D01*
X138074301Y-120631078D01*
X137913653Y-120638970D01*
X137318341Y-120638970D01*
X135420782Y-120638970D01*
X132942794Y-120638970D01*
X131867046Y-120638970D01*
X129100238Y-120638970D01*
X128681659Y-120638970D01*
X128086346Y-120638970D01*
X127925699Y-120631078D01*
X127766599Y-120607477D01*
X127610579Y-120568396D01*
X127459140Y-120514211D01*
X127313741Y-120445442D01*
X127175784Y-120362753D01*
X127046595Y-120266941D01*
X126927420Y-120158927D01*
X126819406Y-120039751D01*
X126723593Y-119910563D01*
X126640904Y-119772605D01*
X126572136Y-119627207D01*
X126517950Y-119475768D01*
X126478869Y-119319747D01*
X126455269Y-119160647D01*
X126447377Y-119000000D01*
X126455269Y-118839353D01*
X126478869Y-118680253D01*
X126517950Y-118524232D01*
X126572136Y-118372793D01*
X126640904Y-118227395D01*
X126723593Y-118089437D01*
X126801607Y-117984248D01*
X128681659Y-117984248D01*
X128681659Y-120015752D01*
X129100238Y-120015752D01*
X129100238Y-119272076D01*
X129433706Y-119272076D01*
X129814613Y-120015752D01*
X130263888Y-120015752D01*
X130263888Y-119996218D01*
X129824380Y-119166036D01*
X129983963Y-119069589D01*
X130097154Y-118944887D01*
X130164650Y-118788792D01*
X130187148Y-118598164D01*
X130165444Y-118417555D01*
X130100332Y-118266401D01*
X129991811Y-118144703D01*
X129843293Y-118055562D01*
X129658188Y-118002076D01*
X129436496Y-117984248D01*
X130505268Y-117984248D01*
X130505268Y-120015752D01*
X131867046Y-120015752D01*
X131867046Y-119679493D01*
X130923848Y-119679493D01*
X130923848Y-119135341D01*
X131727519Y-119135341D01*
X131727519Y-119079530D01*
X132062383Y-119079530D01*
X132075948Y-119268201D01*
X132112922Y-119439818D01*
X132173306Y-119594382D01*
X132304112Y-119787452D01*
X132480264Y-119928548D01*
X132620023Y-119992498D01*
X132774200Y-120030867D01*
X132942794Y-120043657D01*
X133182779Y-120024996D01*
X133400441Y-119969011D01*
X133583569Y-119879191D01*
X133719956Y-119759023D01*
X133719956Y-118948375D01*
X132920470Y-118948375D01*
X132920470Y-119256729D01*
X133301377Y-119256729D01*
X133301377Y-119606940D01*
X133167083Y-119682284D01*
X132965118Y-119707399D01*
X132758968Y-119666587D01*
X132609326Y-119544153D01*
X132541888Y-119417959D01*
X132501426Y-119257039D01*
X132487938Y-119061392D01*
X132487938Y-118931632D01*
X132501116Y-118737845D01*
X132538788Y-118578785D01*
X132600954Y-118454452D01*
X132738039Y-118334110D01*
X132926051Y-118293997D01*
X133075519Y-118314228D01*
X133189058Y-118374922D01*
X133267716Y-118479218D01*
X133312539Y-118630255D01*
X133719956Y-118630255D01*
X133676393Y-118428174D01*
X133595933Y-118260975D01*
X133478575Y-118128658D01*
X133325251Y-118032927D01*
X133165615Y-117984248D01*
X134059005Y-117984248D01*
X134059005Y-120015752D01*
X135420782Y-120015752D01*
X135420782Y-119679493D01*
X134477584Y-119679493D01*
X134477584Y-119135341D01*
X135281256Y-119135341D01*
X135281256Y-118807454D01*
X134477584Y-118807454D01*
X134477584Y-118323297D01*
X135417992Y-118323297D01*
X135417992Y-117984248D01*
X135666349Y-117984248D01*
X135666349Y-120015752D01*
X136084928Y-120015752D01*
X136084928Y-118679089D01*
X136899762Y-120015752D01*
X137318341Y-120015752D01*
X137318341Y-117984248D01*
X136901157Y-117984248D01*
X136901157Y-119323701D01*
X136084928Y-117984248D01*
X135666349Y-117984248D01*
X135417992Y-117984248D01*
X134059005Y-117984248D01*
X133165615Y-117984248D01*
X133136891Y-117975489D01*
X132913494Y-117956343D01*
X132747845Y-117969443D01*
X132596924Y-118008743D01*
X132460730Y-118074243D01*
X132290159Y-118218304D01*
X132164935Y-118414687D01*
X132107961Y-118572119D01*
X132073777Y-118747690D01*
X132062383Y-118941399D01*
X132062383Y-119079530D01*
X131727519Y-119079530D01*
X131727519Y-118807454D01*
X130923848Y-118807454D01*
X130923848Y-118323297D01*
X131864255Y-118323297D01*
X131864255Y-117984248D01*
X130505268Y-117984248D01*
X129436496Y-117984248D01*
X128681659Y-117984248D01*
X126801607Y-117984248D01*
X126819406Y-117960249D01*
X126927420Y-117841073D01*
X127046595Y-117733059D01*
X127175784Y-117637247D01*
X127313741Y-117554558D01*
X127459140Y-117485789D01*
X127610579Y-117431604D01*
X127766599Y-117392523D01*
X127925699Y-117368922D01*
X128086346Y-117361030D01*
X128681659Y-117361030D01*
X137318341Y-117361030D01*
X137913653Y-117361030D01*
X138074301Y-117368922D01*
G37*
%TO.C,kibuzzard-65BBC0F3*%
G36*
X145347991Y-167799278D02*
G01*
X145236370Y-167906016D01*
X145071729Y-167945781D01*
X144926622Y-167896946D01*
X144873602Y-167772768D01*
X144874997Y-167749048D01*
X144919490Y-167632776D01*
X145026926Y-167563013D01*
X145197303Y-167539759D01*
X145347991Y-167539759D01*
X145347991Y-167799278D01*
G37*
G36*
X141353700Y-167055951D02*
G01*
X141456601Y-167174200D01*
X141456601Y-167769977D01*
X141352305Y-167888226D01*
X141192896Y-167927642D01*
X141068718Y-167899388D01*
X140978026Y-167814626D01*
X140922564Y-167676844D01*
X140904077Y-167489529D01*
X140922302Y-167282594D01*
X140976979Y-167134784D01*
X141068107Y-167046097D01*
X141195687Y-167016535D01*
X141353700Y-167055951D01*
G37*
G36*
X126943068Y-167044091D02*
G01*
X127042132Y-167130947D01*
X127103872Y-167270473D01*
X127124453Y-167457438D01*
X127103872Y-167670739D01*
X127042132Y-167816719D01*
X126943766Y-167900958D01*
X126813309Y-167929037D01*
X126680061Y-167900609D01*
X126581695Y-167815323D01*
X126521001Y-167676320D01*
X126500770Y-167486739D01*
X126521001Y-167276926D01*
X126581695Y-167130249D01*
X126679363Y-167043917D01*
X126810518Y-167015140D01*
X126943068Y-167044091D01*
G37*
G36*
X133465926Y-167044091D02*
G01*
X133564990Y-167130947D01*
X133626730Y-167270473D01*
X133647310Y-167457438D01*
X133626730Y-167670739D01*
X133564990Y-167816719D01*
X133466624Y-167900958D01*
X133336166Y-167929037D01*
X133202919Y-167900609D01*
X133104553Y-167815323D01*
X133043859Y-167676320D01*
X133023627Y-167486739D01*
X133043859Y-167276926D01*
X133104553Y-167130249D01*
X133202221Y-167043917D01*
X133333376Y-167015140D01*
X133465926Y-167044091D01*
G37*
G36*
X139730660Y-167044091D02*
G01*
X139829724Y-167130947D01*
X139891464Y-167270473D01*
X139912044Y-167457438D01*
X139891464Y-167670739D01*
X139829724Y-167816719D01*
X139731357Y-167900958D01*
X139600900Y-167929037D01*
X139467653Y-167900609D01*
X139369286Y-167815323D01*
X139308593Y-167676320D01*
X139288361Y-167486739D01*
X139308593Y-167276926D01*
X139369286Y-167130249D01*
X139466955Y-167043917D01*
X139598110Y-167015140D01*
X139730660Y-167044091D01*
G37*
G36*
X151040156Y-169312209D02*
G01*
X149892830Y-169312209D01*
X146916268Y-169312209D01*
X146465598Y-169312209D01*
X144983828Y-169312209D01*
X144198294Y-169312209D01*
X142664899Y-169312209D01*
X141089647Y-169312209D01*
X139600900Y-169312209D01*
X138608868Y-169312209D01*
X134487259Y-169312209D01*
X133336166Y-169312209D01*
X131853001Y-169312209D01*
X131487442Y-169312209D01*
X130669818Y-169312209D01*
X128267173Y-169312209D01*
X126813309Y-169312209D01*
X125821276Y-169312209D01*
X123683732Y-169312209D01*
X120707170Y-169312209D01*
X119559844Y-169312209D01*
X119709835Y-168812239D01*
X131653478Y-168812239D01*
X131853001Y-168835959D01*
X132073453Y-168801252D01*
X132235303Y-168697130D01*
X132334716Y-168530571D01*
X132367853Y-168308549D01*
X132367853Y-167475577D01*
X132620396Y-167475577D01*
X132642023Y-167698819D01*
X132706902Y-167888575D01*
X132815035Y-168044844D01*
X132959445Y-168161116D01*
X133133156Y-168230880D01*
X133336166Y-168254134D01*
X133539100Y-168230802D01*
X133712578Y-168160806D01*
X133856600Y-168044147D01*
X133964345Y-167888885D01*
X134028992Y-167703082D01*
X134050541Y-167486739D01*
X134047751Y-167383489D01*
X134013877Y-167184432D01*
X133942021Y-167015140D01*
X133832183Y-166875613D01*
X133690873Y-166771744D01*
X133543629Y-166716553D01*
X134148210Y-166716553D01*
X134677015Y-168230414D01*
X134629576Y-168354593D01*
X134540977Y-168470400D01*
X134370057Y-168505281D01*
X134308665Y-168503886D01*
X134308665Y-168809449D01*
X134487259Y-168835959D01*
X134675154Y-168803093D01*
X134823983Y-168704494D01*
X134933743Y-168540163D01*
X134967230Y-168460633D01*
X135574169Y-166716553D01*
X135141638Y-166716553D01*
X134862585Y-167655566D01*
X134582137Y-166716553D01*
X134148210Y-166716553D01*
X133543629Y-166716553D01*
X133524604Y-166709422D01*
X133333376Y-166688648D01*
X133131586Y-166712716D01*
X132955957Y-166784921D01*
X132812419Y-166901077D01*
X132706902Y-167056998D01*
X132642023Y-167245009D01*
X132620396Y-167457438D01*
X132620396Y-167475577D01*
X132367853Y-167475577D01*
X132367853Y-166716553D01*
X132157169Y-166716553D01*
X131963227Y-166716553D01*
X131963227Y-168311340D01*
X131917532Y-168456796D01*
X131780447Y-168505281D01*
X131653478Y-168492724D01*
X131653478Y-168812239D01*
X119709835Y-168812239D01*
X120495090Y-166194725D01*
X123683732Y-166194725D01*
X123683732Y-168226229D01*
X124102311Y-168226229D01*
X124102311Y-167670914D01*
X124060453Y-166713763D01*
X124607397Y-168226229D01*
X124894821Y-168226229D01*
X125443160Y-166712368D01*
X125401302Y-167670914D01*
X125401302Y-168226229D01*
X125821276Y-168226229D01*
X125821276Y-167475577D01*
X126097538Y-167475577D01*
X126119165Y-167698819D01*
X126184045Y-167888575D01*
X126292178Y-168044844D01*
X126436588Y-168161116D01*
X126610298Y-168230880D01*
X126813309Y-168254134D01*
X127016242Y-168230802D01*
X127189720Y-168160806D01*
X127333742Y-168044147D01*
X127441487Y-167888885D01*
X127506135Y-167703082D01*
X127527684Y-167486739D01*
X127524893Y-167383489D01*
X127491019Y-167184432D01*
X127419163Y-167015140D01*
X127309325Y-166875613D01*
X127168016Y-166771744D01*
X127020772Y-166716553D01*
X127766274Y-166716553D01*
X127766274Y-167705795D01*
X127800283Y-167942641D01*
X127896731Y-168114608D01*
X128053175Y-168219252D01*
X128267173Y-168254134D01*
X128430264Y-168233980D01*
X128567930Y-168173519D01*
X128680172Y-168072750D01*
X128691334Y-168226229D01*
X129070845Y-168226229D01*
X129366641Y-168226229D01*
X129769872Y-168226229D01*
X129769872Y-167161642D01*
X129876261Y-167052812D01*
X130025206Y-167016535D01*
X130210776Y-167074438D01*
X130266586Y-167260706D01*
X130266586Y-168226229D01*
X130669818Y-168226229D01*
X130669818Y-167250939D01*
X130639316Y-167012349D01*
X130834459Y-167012349D01*
X131054910Y-167012349D01*
X131054910Y-167825788D01*
X131085083Y-168013189D01*
X131167229Y-168147047D01*
X131301349Y-168227362D01*
X131487442Y-168254134D01*
X131611272Y-168245065D01*
X131731613Y-168217857D01*
X131731613Y-167912294D01*
X131613016Y-167922061D01*
X131490233Y-167885784D01*
X131458141Y-167765792D01*
X131458141Y-167012349D01*
X131716265Y-167012349D01*
X131716265Y-166716553D01*
X131458141Y-166716553D01*
X131458141Y-166345413D01*
X131054910Y-166345413D01*
X131054910Y-166716553D01*
X130834459Y-166716553D01*
X130834459Y-167012349D01*
X130639316Y-167012349D01*
X130638424Y-167005373D01*
X130549825Y-166829570D01*
X130401927Y-166723878D01*
X130192637Y-166688648D01*
X130023500Y-166711127D01*
X129878858Y-166778565D01*
X129758710Y-166890961D01*
X129746153Y-166716553D01*
X129366641Y-166716553D01*
X129366641Y-168226229D01*
X129070845Y-168226229D01*
X129070845Y-166716553D01*
X128666219Y-166716553D01*
X128666219Y-167785325D01*
X128557388Y-167892063D01*
X128384376Y-167927642D01*
X128223223Y-167868692D01*
X128169505Y-167691843D01*
X128169505Y-166716553D01*
X127766274Y-166716553D01*
X127020772Y-166716553D01*
X127001747Y-166709422D01*
X126810518Y-166688648D01*
X126608728Y-166712716D01*
X126433099Y-166784921D01*
X126289562Y-166901077D01*
X126184045Y-167056998D01*
X126119165Y-167245009D01*
X126097538Y-167457438D01*
X126097538Y-167475577D01*
X125821276Y-167475577D01*
X125821276Y-166325880D01*
X131931136Y-166325880D01*
X131993225Y-166476568D01*
X132157169Y-166535169D01*
X132321112Y-166476568D01*
X132383201Y-166325880D01*
X132329881Y-166194725D01*
X136471324Y-166194725D01*
X136471324Y-168226229D01*
X136889903Y-168226229D01*
X136889903Y-167670914D01*
X136848045Y-166713763D01*
X137394988Y-168226229D01*
X137682413Y-168226229D01*
X138230751Y-166712368D01*
X138188893Y-167670914D01*
X138188893Y-168226229D01*
X138608868Y-168226229D01*
X138608868Y-167475577D01*
X138885130Y-167475577D01*
X138906757Y-167698819D01*
X138971636Y-167888575D01*
X139079769Y-168044844D01*
X139224179Y-168161116D01*
X139397889Y-168230880D01*
X139600900Y-168254134D01*
X139803834Y-168230802D01*
X139977311Y-168160806D01*
X140121334Y-168044147D01*
X140229079Y-167888885D01*
X140293726Y-167703082D01*
X140315275Y-167486739D01*
X140314559Y-167460229D01*
X140500845Y-167460229D01*
X140518751Y-167691300D01*
X140572469Y-167885939D01*
X140661998Y-168044147D01*
X140781138Y-168160806D01*
X140923688Y-168230802D01*
X141089647Y-168254134D01*
X141238165Y-168233205D01*
X141367459Y-168170418D01*
X141477530Y-168065773D01*
X141497064Y-168226229D01*
X141861227Y-168226229D01*
X141861227Y-166716553D01*
X142164000Y-166716553D01*
X142164000Y-167705795D01*
X142198009Y-167942641D01*
X142294457Y-168114608D01*
X142450901Y-168219252D01*
X142664899Y-168254134D01*
X142827990Y-168233980D01*
X142965656Y-168173519D01*
X143077897Y-168072750D01*
X143089059Y-168226229D01*
X143468571Y-168226229D01*
X143468571Y-166716553D01*
X143063945Y-166716553D01*
X143063945Y-167785325D01*
X142955114Y-167892063D01*
X142782101Y-167927642D01*
X142620948Y-167868692D01*
X142567231Y-167691843D01*
X142567231Y-166716553D01*
X142164000Y-166716553D01*
X141861227Y-166716553D01*
X141861227Y-166083104D01*
X143793668Y-166083104D01*
X143793668Y-168226229D01*
X144198294Y-168226229D01*
X144198294Y-167802068D01*
X144470370Y-167802068D01*
X144506822Y-167980662D01*
X144616176Y-168125770D01*
X144780991Y-168222043D01*
X144983828Y-168254134D01*
X145196256Y-168213322D01*
X145364734Y-168090888D01*
X145405197Y-168226229D01*
X145812614Y-168226229D01*
X146062366Y-168226229D01*
X146465598Y-168226229D01*
X146465598Y-167238382D01*
X146576172Y-167122226D01*
X146765579Y-167083508D01*
X146910687Y-167094670D01*
X146916268Y-166706786D01*
X146790694Y-166688648D01*
X146599194Y-166740622D01*
X146454435Y-166896542D01*
X146443273Y-166716553D01*
X146062366Y-166716553D01*
X146062366Y-168226229D01*
X145812614Y-168226229D01*
X145812614Y-168202509D01*
X145768315Y-168066122D01*
X145752618Y-167877413D01*
X145752618Y-167223034D01*
X145711632Y-166997525D01*
X145588674Y-166828872D01*
X145466589Y-166750970D01*
X145318923Y-166704229D01*
X145145678Y-166688648D01*
X144970573Y-166704519D01*
X144813605Y-166752133D01*
X144682451Y-166827651D01*
X144584782Y-166927238D01*
X144524088Y-167043743D01*
X144503857Y-167170014D01*
X144907088Y-167170014D01*
X144964991Y-167036069D01*
X145124749Y-166987234D01*
X145294274Y-167050021D01*
X145347991Y-167217453D01*
X145347991Y-167303959D01*
X145162421Y-167303959D01*
X144955845Y-167318997D01*
X144784460Y-167362250D01*
X144648267Y-167433719D01*
X144514845Y-167589988D01*
X144470370Y-167802068D01*
X144198294Y-167802068D01*
X144198294Y-166083104D01*
X143793668Y-166083104D01*
X141861227Y-166083104D01*
X141456601Y-166083104D01*
X141456601Y-166853289D01*
X141293704Y-166729808D01*
X141092437Y-166688648D01*
X140922137Y-166711902D01*
X140777728Y-166781666D01*
X140659208Y-166897938D01*
X140571229Y-167053432D01*
X140518441Y-167240862D01*
X140500845Y-167460229D01*
X140314559Y-167460229D01*
X140312485Y-167383489D01*
X140278611Y-167184432D01*
X140206755Y-167015140D01*
X140096917Y-166875613D01*
X139955607Y-166771744D01*
X139789338Y-166709422D01*
X139598110Y-166688648D01*
X139396320Y-166712716D01*
X139220691Y-166784921D01*
X139077153Y-166901077D01*
X138971636Y-167056998D01*
X138906757Y-167245009D01*
X138885130Y-167457438D01*
X138885130Y-167475577D01*
X138608868Y-167475577D01*
X138608868Y-166194725D01*
X138059134Y-166194725D01*
X137540096Y-167668123D01*
X137018267Y-166194725D01*
X136471324Y-166194725D01*
X132329881Y-166194725D01*
X132322507Y-166176586D01*
X132157169Y-166117985D01*
X131991830Y-166176586D01*
X131931136Y-166325880D01*
X125821276Y-166325880D01*
X125821276Y-166194725D01*
X125271542Y-166194725D01*
X124752504Y-167668123D01*
X124230676Y-166194725D01*
X123683732Y-166194725D01*
X120495090Y-166194725D01*
X120707170Y-165487791D01*
X123683732Y-165487791D01*
X146916268Y-165487791D01*
X149892830Y-165487791D01*
X151040156Y-169312209D01*
G37*
%TD*%
D14*
%TO.C,MIX*%
X157000000Y-131000000D03*
%TD*%
D15*
%TO.C,Ref\u002A\u002A*%
X107400000Y-43900000D03*
%TD*%
%TO.C,Ref\u002A\u002A*%
X163200000Y-166400000D03*
%TD*%
D14*
%TO.C,MIX*%
X157000000Y-110000000D03*
%TD*%
D16*
%TO.C,Ref\u002A\u002A*%
X137500000Y-151000000D03*
%TD*%
D15*
%TO.C,Ref\u002A\u002A*%
X107400000Y-166400000D03*
%TD*%
D16*
%TO.C,Ref\u002A\u002A*%
X163000000Y-151000000D03*
%TD*%
D14*
%TO.C,MIX*%
X157000000Y-89000000D03*
%TD*%
D16*
%TO.C,Ref\u002A\u002A*%
X122000000Y-131000000D03*
%TD*%
D14*
%TO.C,MIX*%
X133000000Y-89000000D03*
%TD*%
%TO.C,MIX*%
X111000000Y-89000000D03*
%TD*%
%TO.C,MIX*%
X111000000Y-110000000D03*
%TD*%
%TO.C,MIX*%
X157000000Y-68000000D03*
%TD*%
D17*
%TO.C,TYPE*%
X133000000Y-68000000D03*
%TD*%
D16*
%TO.C,Ref\u002A\u002A*%
X126000000Y-151000000D03*
%TD*%
%TO.C,Ref\u002A\u002A*%
X150500000Y-151000000D03*
%TD*%
D14*
%TO.C,MIX*%
X111000000Y-68000000D03*
%TD*%
%TO.C,MIX*%
X133000000Y-110000000D03*
%TD*%
D15*
%TO.C,Ref\u002A\u002A*%
X163200000Y-43900000D03*
%TD*%
D16*
%TO.C,Ref\u002A\u002A*%
X108400000Y-131000000D03*
%TD*%
%TO.C,Ref\u002A\u002A*%
X135500000Y-131000000D03*
%TD*%
G36*
X165193472Y-52447468D02*
G01*
X165198541Y-52448071D01*
X165225510Y-52452414D01*
X165230333Y-52453388D01*
X165414642Y-52498298D01*
X165433313Y-52504452D01*
X165601377Y-52575057D01*
X165618842Y-52584084D01*
X165773904Y-52680531D01*
X165789261Y-52691806D01*
X166007502Y-52879476D01*
X166020552Y-52892508D01*
X166208717Y-53110674D01*
X166220054Y-53126077D01*
X166316881Y-53281445D01*
X166325981Y-53299036D01*
X166396602Y-53467278D01*
X166402784Y-53486093D01*
X166447469Y-53670662D01*
X166448442Y-53675524D01*
X166452489Y-53700995D01*
X166453075Y-53705983D01*
X166474857Y-53989856D01*
X166474768Y-54009922D01*
X166451072Y-54286620D01*
X166448015Y-54305329D01*
X166405876Y-54478683D01*
X166400424Y-54495677D01*
X166333620Y-54661723D01*
X166325784Y-54677757D01*
X166232473Y-54838279D01*
X166230091Y-54842057D01*
X166201688Y-54883701D01*
X166198002Y-54888572D01*
X166019471Y-55101791D01*
X166002052Y-55118859D01*
X165791969Y-55287608D01*
X165772554Y-55300406D01*
X165532958Y-55427871D01*
X165512585Y-55436476D01*
X165245671Y-55522072D01*
X165240329Y-55523526D01*
X165198894Y-55532837D01*
X165194245Y-55533697D01*
X165009122Y-55560693D01*
X164990281Y-55561987D01*
X164810310Y-55560611D01*
X164791491Y-55559029D01*
X164613848Y-55530344D01*
X164595428Y-55525903D01*
X164326885Y-55438977D01*
X164309299Y-55431753D01*
X164050841Y-55301593D01*
X164046684Y-55299296D01*
X164040545Y-55295590D01*
X164036358Y-55292826D01*
X163879562Y-55179931D01*
X163864319Y-55166965D01*
X163733067Y-55035662D01*
X163720108Y-55020414D01*
X163607287Y-54863595D01*
X163604527Y-54859411D01*
X163601492Y-54854381D01*
X163599202Y-54850235D01*
X163468852Y-54591346D01*
X163461653Y-54573832D01*
X163374425Y-54304846D01*
X163369993Y-54286542D01*
X163340975Y-54108489D01*
X163339367Y-54089825D01*
X163337502Y-53909385D01*
X163338723Y-53890692D01*
X163365052Y-53705044D01*
X163365885Y-53700432D01*
X163374795Y-53659915D01*
X163376248Y-53654491D01*
X163461084Y-53386902D01*
X163469765Y-53366230D01*
X163597157Y-53126286D01*
X163610165Y-53106579D01*
X163779457Y-52896713D01*
X163796884Y-52879061D01*
X164011300Y-52701511D01*
X164016277Y-52697793D01*
X164057313Y-52670231D01*
X164062927Y-52666876D01*
X164309123Y-52536824D01*
X164333361Y-52527129D01*
X164593231Y-52453787D01*
X164616099Y-52449597D01*
X164889935Y-52425628D01*
X164910327Y-52425527D01*
X165193472Y-52447468D01*
G37*
G36*
X107293472Y-52447468D02*
G01*
X107298541Y-52448071D01*
X107325510Y-52452414D01*
X107330333Y-52453388D01*
X107514642Y-52498298D01*
X107533313Y-52504452D01*
X107701377Y-52575057D01*
X107718842Y-52584084D01*
X107873904Y-52680531D01*
X107889261Y-52691806D01*
X108107502Y-52879476D01*
X108120552Y-52892508D01*
X108308717Y-53110674D01*
X108320054Y-53126077D01*
X108416881Y-53281445D01*
X108425981Y-53299036D01*
X108496602Y-53467278D01*
X108502784Y-53486093D01*
X108547469Y-53670662D01*
X108548442Y-53675524D01*
X108552489Y-53700995D01*
X108553075Y-53705983D01*
X108574857Y-53989856D01*
X108574768Y-54009922D01*
X108551072Y-54286620D01*
X108548015Y-54305329D01*
X108505876Y-54478683D01*
X108500424Y-54495677D01*
X108433620Y-54661723D01*
X108425784Y-54677757D01*
X108332473Y-54838279D01*
X108330091Y-54842057D01*
X108301688Y-54883701D01*
X108298002Y-54888572D01*
X108119471Y-55101791D01*
X108102052Y-55118859D01*
X107891969Y-55287608D01*
X107872554Y-55300406D01*
X107632958Y-55427871D01*
X107612585Y-55436476D01*
X107345671Y-55522072D01*
X107340329Y-55523526D01*
X107298894Y-55532837D01*
X107294245Y-55533697D01*
X107109122Y-55560693D01*
X107090281Y-55561987D01*
X106910310Y-55560611D01*
X106891491Y-55559029D01*
X106713851Y-55530345D01*
X106695431Y-55525904D01*
X106426885Y-55438977D01*
X106409299Y-55431753D01*
X106150841Y-55301593D01*
X106146684Y-55299296D01*
X106140545Y-55295590D01*
X106136358Y-55292826D01*
X105979562Y-55179931D01*
X105964319Y-55166965D01*
X105833067Y-55035662D01*
X105820107Y-55020414D01*
X105707298Y-54863609D01*
X105704561Y-54859462D01*
X105701524Y-54854437D01*
X105699212Y-54850254D01*
X105568852Y-54591346D01*
X105561653Y-54573832D01*
X105474425Y-54304846D01*
X105469993Y-54286542D01*
X105440975Y-54108489D01*
X105439367Y-54089825D01*
X105437502Y-53909385D01*
X105438723Y-53890692D01*
X105465052Y-53705044D01*
X105465885Y-53700432D01*
X105474795Y-53659915D01*
X105476248Y-53654491D01*
X105561084Y-53386902D01*
X105569765Y-53366230D01*
X105697157Y-53126286D01*
X105710165Y-53106579D01*
X105879457Y-52896713D01*
X105896884Y-52879061D01*
X106111300Y-52701511D01*
X106116277Y-52697793D01*
X106157313Y-52670231D01*
X106162927Y-52666876D01*
X106409123Y-52536824D01*
X106433361Y-52527129D01*
X106693231Y-52453787D01*
X106716099Y-52449597D01*
X106989935Y-52425628D01*
X107010327Y-52425527D01*
X107293472Y-52447468D01*
G37*
M02*
