%TF.GenerationSoftware,KiCad,Pcbnew,7.0.9*%
%TF.CreationDate,2024-02-02T16:32:34+00:00*%
%TF.ProjectId,QuadMod_Panel,51756164-4d6f-4645-9f50-616e656c2e6b,rev?*%
%TF.SameCoordinates,Original*%
%TF.FileFunction,Legend,Bot*%
%TF.FilePolarity,Positive*%
%FSLAX46Y46*%
G04 Gerber Fmt 4.6, Leading zero omitted, Abs format (unit mm)*
G04 Created by KiCad (PCBNEW 7.0.9) date 2024-02-02 16:32:34*
%MOMM*%
%LPD*%
G01*
G04 APERTURE LIST*
%ADD10C,0.300000*%
%ADD11C,0.150000*%
G04 APERTURE END LIST*
D10*
X145621428Y-45713685D02*
X145764285Y-45642257D01*
X145764285Y-45642257D02*
X145907142Y-45499400D01*
X145907142Y-45499400D02*
X146121428Y-45285114D01*
X146121428Y-45285114D02*
X146264285Y-45213685D01*
X146264285Y-45213685D02*
X146407142Y-45213685D01*
X146335713Y-45570828D02*
X146478571Y-45499400D01*
X146478571Y-45499400D02*
X146621428Y-45356542D01*
X146621428Y-45356542D02*
X146692856Y-45070828D01*
X146692856Y-45070828D02*
X146692856Y-44570828D01*
X146692856Y-44570828D02*
X146621428Y-44285114D01*
X146621428Y-44285114D02*
X146478571Y-44142257D01*
X146478571Y-44142257D02*
X146335713Y-44070828D01*
X146335713Y-44070828D02*
X146049999Y-44070828D01*
X146049999Y-44070828D02*
X145907142Y-44142257D01*
X145907142Y-44142257D02*
X145764285Y-44285114D01*
X145764285Y-44285114D02*
X145692856Y-44570828D01*
X145692856Y-44570828D02*
X145692856Y-45070828D01*
X145692856Y-45070828D02*
X145764285Y-45356542D01*
X145764285Y-45356542D02*
X145907142Y-45499400D01*
X145907142Y-45499400D02*
X146049999Y-45570828D01*
X146049999Y-45570828D02*
X146335713Y-45570828D01*
X144407142Y-44570828D02*
X144407142Y-45570828D01*
X145049999Y-44570828D02*
X145049999Y-45356542D01*
X145049999Y-45356542D02*
X144978570Y-45499400D01*
X144978570Y-45499400D02*
X144835713Y-45570828D01*
X144835713Y-45570828D02*
X144621427Y-45570828D01*
X144621427Y-45570828D02*
X144478570Y-45499400D01*
X144478570Y-45499400D02*
X144407142Y-45427971D01*
X143049999Y-45570828D02*
X143049999Y-44785114D01*
X143049999Y-44785114D02*
X143121427Y-44642257D01*
X143121427Y-44642257D02*
X143264284Y-44570828D01*
X143264284Y-44570828D02*
X143549999Y-44570828D01*
X143549999Y-44570828D02*
X143692856Y-44642257D01*
X143049999Y-45499400D02*
X143192856Y-45570828D01*
X143192856Y-45570828D02*
X143549999Y-45570828D01*
X143549999Y-45570828D02*
X143692856Y-45499400D01*
X143692856Y-45499400D02*
X143764284Y-45356542D01*
X143764284Y-45356542D02*
X143764284Y-45213685D01*
X143764284Y-45213685D02*
X143692856Y-45070828D01*
X143692856Y-45070828D02*
X143549999Y-44999400D01*
X143549999Y-44999400D02*
X143192856Y-44999400D01*
X143192856Y-44999400D02*
X143049999Y-44927971D01*
X141692856Y-45570828D02*
X141692856Y-44070828D01*
X141692856Y-45499400D02*
X141835713Y-45570828D01*
X141835713Y-45570828D02*
X142121427Y-45570828D01*
X142121427Y-45570828D02*
X142264284Y-45499400D01*
X142264284Y-45499400D02*
X142335713Y-45427971D01*
X142335713Y-45427971D02*
X142407141Y-45285114D01*
X142407141Y-45285114D02*
X142407141Y-44856542D01*
X142407141Y-44856542D02*
X142335713Y-44713685D01*
X142335713Y-44713685D02*
X142264284Y-44642257D01*
X142264284Y-44642257D02*
X142121427Y-44570828D01*
X142121427Y-44570828D02*
X141835713Y-44570828D01*
X141835713Y-44570828D02*
X141692856Y-44642257D01*
X140978570Y-45570828D02*
X140978570Y-44070828D01*
X140978570Y-44070828D02*
X140478570Y-45142257D01*
X140478570Y-45142257D02*
X139978570Y-44070828D01*
X139978570Y-44070828D02*
X139978570Y-45570828D01*
X139049998Y-45570828D02*
X139192855Y-45499400D01*
X139192855Y-45499400D02*
X139264284Y-45427971D01*
X139264284Y-45427971D02*
X139335712Y-45285114D01*
X139335712Y-45285114D02*
X139335712Y-44856542D01*
X139335712Y-44856542D02*
X139264284Y-44713685D01*
X139264284Y-44713685D02*
X139192855Y-44642257D01*
X139192855Y-44642257D02*
X139049998Y-44570828D01*
X139049998Y-44570828D02*
X138835712Y-44570828D01*
X138835712Y-44570828D02*
X138692855Y-44642257D01*
X138692855Y-44642257D02*
X138621427Y-44713685D01*
X138621427Y-44713685D02*
X138549998Y-44856542D01*
X138549998Y-44856542D02*
X138549998Y-45285114D01*
X138549998Y-45285114D02*
X138621427Y-45427971D01*
X138621427Y-45427971D02*
X138692855Y-45499400D01*
X138692855Y-45499400D02*
X138835712Y-45570828D01*
X138835712Y-45570828D02*
X139049998Y-45570828D01*
X137264284Y-45570828D02*
X137264284Y-44070828D01*
X137264284Y-45499400D02*
X137407141Y-45570828D01*
X137407141Y-45570828D02*
X137692855Y-45570828D01*
X137692855Y-45570828D02*
X137835712Y-45499400D01*
X137835712Y-45499400D02*
X137907141Y-45427971D01*
X137907141Y-45427971D02*
X137978569Y-45285114D01*
X137978569Y-45285114D02*
X137978569Y-44856542D01*
X137978569Y-44856542D02*
X137907141Y-44713685D01*
X137907141Y-44713685D02*
X137835712Y-44642257D01*
X137835712Y-44642257D02*
X137692855Y-44570828D01*
X137692855Y-44570828D02*
X137407141Y-44570828D01*
X137407141Y-44570828D02*
X137264284Y-44642257D01*
X135407141Y-45570828D02*
X135407141Y-44070828D01*
X135407141Y-44070828D02*
X134835712Y-44070828D01*
X134835712Y-44070828D02*
X134692855Y-44142257D01*
X134692855Y-44142257D02*
X134621426Y-44213685D01*
X134621426Y-44213685D02*
X134549998Y-44356542D01*
X134549998Y-44356542D02*
X134549998Y-44570828D01*
X134549998Y-44570828D02*
X134621426Y-44713685D01*
X134621426Y-44713685D02*
X134692855Y-44785114D01*
X134692855Y-44785114D02*
X134835712Y-44856542D01*
X134835712Y-44856542D02*
X135407141Y-44856542D01*
X133264284Y-45570828D02*
X133264284Y-44785114D01*
X133264284Y-44785114D02*
X133335712Y-44642257D01*
X133335712Y-44642257D02*
X133478569Y-44570828D01*
X133478569Y-44570828D02*
X133764284Y-44570828D01*
X133764284Y-44570828D02*
X133907141Y-44642257D01*
X133264284Y-45499400D02*
X133407141Y-45570828D01*
X133407141Y-45570828D02*
X133764284Y-45570828D01*
X133764284Y-45570828D02*
X133907141Y-45499400D01*
X133907141Y-45499400D02*
X133978569Y-45356542D01*
X133978569Y-45356542D02*
X133978569Y-45213685D01*
X133978569Y-45213685D02*
X133907141Y-45070828D01*
X133907141Y-45070828D02*
X133764284Y-44999400D01*
X133764284Y-44999400D02*
X133407141Y-44999400D01*
X133407141Y-44999400D02*
X133264284Y-44927971D01*
X132549998Y-44570828D02*
X132549998Y-45570828D01*
X132549998Y-44713685D02*
X132478569Y-44642257D01*
X132478569Y-44642257D02*
X132335712Y-44570828D01*
X132335712Y-44570828D02*
X132121426Y-44570828D01*
X132121426Y-44570828D02*
X131978569Y-44642257D01*
X131978569Y-44642257D02*
X131907141Y-44785114D01*
X131907141Y-44785114D02*
X131907141Y-45570828D01*
X130621426Y-45499400D02*
X130764283Y-45570828D01*
X130764283Y-45570828D02*
X131049998Y-45570828D01*
X131049998Y-45570828D02*
X131192855Y-45499400D01*
X131192855Y-45499400D02*
X131264283Y-45356542D01*
X131264283Y-45356542D02*
X131264283Y-44785114D01*
X131264283Y-44785114D02*
X131192855Y-44642257D01*
X131192855Y-44642257D02*
X131049998Y-44570828D01*
X131049998Y-44570828D02*
X130764283Y-44570828D01*
X130764283Y-44570828D02*
X130621426Y-44642257D01*
X130621426Y-44642257D02*
X130549998Y-44785114D01*
X130549998Y-44785114D02*
X130549998Y-44927971D01*
X130549998Y-44927971D02*
X131264283Y-45070828D01*
X129692855Y-45570828D02*
X129835712Y-45499400D01*
X129835712Y-45499400D02*
X129907141Y-45356542D01*
X129907141Y-45356542D02*
X129907141Y-44070828D01*
X128121427Y-44570828D02*
X127764284Y-45570828D01*
X127764284Y-45570828D02*
X127407141Y-44570828D01*
X126049998Y-45570828D02*
X126907141Y-45570828D01*
X126478570Y-45570828D02*
X126478570Y-44070828D01*
X126478570Y-44070828D02*
X126621427Y-44285114D01*
X126621427Y-44285114D02*
X126764284Y-44427971D01*
X126764284Y-44427971D02*
X126907141Y-44499400D01*
X125407142Y-45427971D02*
X125335713Y-45499400D01*
X125335713Y-45499400D02*
X125407142Y-45570828D01*
X125407142Y-45570828D02*
X125478570Y-45499400D01*
X125478570Y-45499400D02*
X125407142Y-45427971D01*
X125407142Y-45427971D02*
X125407142Y-45570828D01*
X124407141Y-44070828D02*
X124264284Y-44070828D01*
X124264284Y-44070828D02*
X124121427Y-44142257D01*
X124121427Y-44142257D02*
X124049999Y-44213685D01*
X124049999Y-44213685D02*
X123978570Y-44356542D01*
X123978570Y-44356542D02*
X123907141Y-44642257D01*
X123907141Y-44642257D02*
X123907141Y-44999400D01*
X123907141Y-44999400D02*
X123978570Y-45285114D01*
X123978570Y-45285114D02*
X124049999Y-45427971D01*
X124049999Y-45427971D02*
X124121427Y-45499400D01*
X124121427Y-45499400D02*
X124264284Y-45570828D01*
X124264284Y-45570828D02*
X124407141Y-45570828D01*
X124407141Y-45570828D02*
X124549999Y-45499400D01*
X124549999Y-45499400D02*
X124621427Y-45427971D01*
X124621427Y-45427971D02*
X124692856Y-45285114D01*
X124692856Y-45285114D02*
X124764284Y-44999400D01*
X124764284Y-44999400D02*
X124764284Y-44642257D01*
X124764284Y-44642257D02*
X124692856Y-44356542D01*
X124692856Y-44356542D02*
X124621427Y-44213685D01*
X124621427Y-44213685D02*
X124549999Y-44142257D01*
X124549999Y-44142257D02*
X124407141Y-44070828D01*
X148299999Y-47985828D02*
X148299999Y-46485828D01*
X148299999Y-46485828D02*
X147799999Y-47557257D01*
X147799999Y-47557257D02*
X147299999Y-46485828D01*
X147299999Y-46485828D02*
X147299999Y-47985828D01*
X146371427Y-47985828D02*
X146514284Y-47914400D01*
X146514284Y-47914400D02*
X146585713Y-47842971D01*
X146585713Y-47842971D02*
X146657141Y-47700114D01*
X146657141Y-47700114D02*
X146657141Y-47271542D01*
X146657141Y-47271542D02*
X146585713Y-47128685D01*
X146585713Y-47128685D02*
X146514284Y-47057257D01*
X146514284Y-47057257D02*
X146371427Y-46985828D01*
X146371427Y-46985828D02*
X146157141Y-46985828D01*
X146157141Y-46985828D02*
X146014284Y-47057257D01*
X146014284Y-47057257D02*
X145942856Y-47128685D01*
X145942856Y-47128685D02*
X145871427Y-47271542D01*
X145871427Y-47271542D02*
X145871427Y-47700114D01*
X145871427Y-47700114D02*
X145942856Y-47842971D01*
X145942856Y-47842971D02*
X146014284Y-47914400D01*
X146014284Y-47914400D02*
X146157141Y-47985828D01*
X146157141Y-47985828D02*
X146371427Y-47985828D01*
X144585713Y-46985828D02*
X144585713Y-47985828D01*
X145228570Y-46985828D02*
X145228570Y-47771542D01*
X145228570Y-47771542D02*
X145157141Y-47914400D01*
X145157141Y-47914400D02*
X145014284Y-47985828D01*
X145014284Y-47985828D02*
X144799998Y-47985828D01*
X144799998Y-47985828D02*
X144657141Y-47914400D01*
X144657141Y-47914400D02*
X144585713Y-47842971D01*
X143871427Y-46985828D02*
X143871427Y-47985828D01*
X143871427Y-47128685D02*
X143799998Y-47057257D01*
X143799998Y-47057257D02*
X143657141Y-46985828D01*
X143657141Y-46985828D02*
X143442855Y-46985828D01*
X143442855Y-46985828D02*
X143299998Y-47057257D01*
X143299998Y-47057257D02*
X143228570Y-47200114D01*
X143228570Y-47200114D02*
X143228570Y-47985828D01*
X142728569Y-46985828D02*
X142157141Y-46985828D01*
X142514284Y-46485828D02*
X142514284Y-47771542D01*
X142514284Y-47771542D02*
X142442855Y-47914400D01*
X142442855Y-47914400D02*
X142299998Y-47985828D01*
X142299998Y-47985828D02*
X142157141Y-47985828D01*
X141657141Y-46985828D02*
X141657141Y-48271542D01*
X141657141Y-48271542D02*
X141728569Y-48414400D01*
X141728569Y-48414400D02*
X141871426Y-48485828D01*
X141871426Y-48485828D02*
X141942855Y-48485828D01*
X141657141Y-46485828D02*
X141728569Y-46557257D01*
X141728569Y-46557257D02*
X141657141Y-46628685D01*
X141657141Y-46628685D02*
X141585712Y-46557257D01*
X141585712Y-46557257D02*
X141657141Y-46485828D01*
X141657141Y-46485828D02*
X141657141Y-46628685D01*
X140728569Y-47985828D02*
X140871426Y-47914400D01*
X140871426Y-47914400D02*
X140942855Y-47842971D01*
X140942855Y-47842971D02*
X141014283Y-47700114D01*
X141014283Y-47700114D02*
X141014283Y-47271542D01*
X141014283Y-47271542D02*
X140942855Y-47128685D01*
X140942855Y-47128685D02*
X140871426Y-47057257D01*
X140871426Y-47057257D02*
X140728569Y-46985828D01*
X140728569Y-46985828D02*
X140514283Y-46985828D01*
X140514283Y-46985828D02*
X140371426Y-47057257D01*
X140371426Y-47057257D02*
X140299998Y-47128685D01*
X140299998Y-47128685D02*
X140228569Y-47271542D01*
X140228569Y-47271542D02*
X140228569Y-47700114D01*
X140228569Y-47700114D02*
X140299998Y-47842971D01*
X140299998Y-47842971D02*
X140371426Y-47914400D01*
X140371426Y-47914400D02*
X140514283Y-47985828D01*
X140514283Y-47985828D02*
X140728569Y-47985828D01*
X139728569Y-46985828D02*
X139371426Y-47985828D01*
X139014283Y-46985828D02*
X139371426Y-47985828D01*
X139371426Y-47985828D02*
X139514283Y-48342971D01*
X139514283Y-48342971D02*
X139585712Y-48414400D01*
X139585712Y-48414400D02*
X139728569Y-48485828D01*
X137299998Y-47985828D02*
X137299998Y-46485828D01*
X137299998Y-46485828D02*
X136799998Y-47557257D01*
X136799998Y-47557257D02*
X136299998Y-46485828D01*
X136299998Y-46485828D02*
X136299998Y-47985828D01*
X135371426Y-47985828D02*
X135514283Y-47914400D01*
X135514283Y-47914400D02*
X135585712Y-47842971D01*
X135585712Y-47842971D02*
X135657140Y-47700114D01*
X135657140Y-47700114D02*
X135657140Y-47271542D01*
X135657140Y-47271542D02*
X135585712Y-47128685D01*
X135585712Y-47128685D02*
X135514283Y-47057257D01*
X135514283Y-47057257D02*
X135371426Y-46985828D01*
X135371426Y-46985828D02*
X135157140Y-46985828D01*
X135157140Y-46985828D02*
X135014283Y-47057257D01*
X135014283Y-47057257D02*
X134942855Y-47128685D01*
X134942855Y-47128685D02*
X134871426Y-47271542D01*
X134871426Y-47271542D02*
X134871426Y-47700114D01*
X134871426Y-47700114D02*
X134942855Y-47842971D01*
X134942855Y-47842971D02*
X135014283Y-47914400D01*
X135014283Y-47914400D02*
X135157140Y-47985828D01*
X135157140Y-47985828D02*
X135371426Y-47985828D01*
X133585712Y-47985828D02*
X133585712Y-46485828D01*
X133585712Y-47914400D02*
X133728569Y-47985828D01*
X133728569Y-47985828D02*
X134014283Y-47985828D01*
X134014283Y-47985828D02*
X134157140Y-47914400D01*
X134157140Y-47914400D02*
X134228569Y-47842971D01*
X134228569Y-47842971D02*
X134299997Y-47700114D01*
X134299997Y-47700114D02*
X134299997Y-47271542D01*
X134299997Y-47271542D02*
X134228569Y-47128685D01*
X134228569Y-47128685D02*
X134157140Y-47057257D01*
X134157140Y-47057257D02*
X134014283Y-46985828D01*
X134014283Y-46985828D02*
X133728569Y-46985828D01*
X133728569Y-46985828D02*
X133585712Y-47057257D01*
X132228569Y-46985828D02*
X132228569Y-47985828D01*
X132871426Y-46985828D02*
X132871426Y-47771542D01*
X132871426Y-47771542D02*
X132799997Y-47914400D01*
X132799997Y-47914400D02*
X132657140Y-47985828D01*
X132657140Y-47985828D02*
X132442854Y-47985828D01*
X132442854Y-47985828D02*
X132299997Y-47914400D01*
X132299997Y-47914400D02*
X132228569Y-47842971D01*
X131299997Y-47985828D02*
X131442854Y-47914400D01*
X131442854Y-47914400D02*
X131514283Y-47771542D01*
X131514283Y-47771542D02*
X131514283Y-46485828D01*
X130085712Y-47985828D02*
X130085712Y-47200114D01*
X130085712Y-47200114D02*
X130157140Y-47057257D01*
X130157140Y-47057257D02*
X130299997Y-46985828D01*
X130299997Y-46985828D02*
X130585712Y-46985828D01*
X130585712Y-46985828D02*
X130728569Y-47057257D01*
X130085712Y-47914400D02*
X130228569Y-47985828D01*
X130228569Y-47985828D02*
X130585712Y-47985828D01*
X130585712Y-47985828D02*
X130728569Y-47914400D01*
X130728569Y-47914400D02*
X130799997Y-47771542D01*
X130799997Y-47771542D02*
X130799997Y-47628685D01*
X130799997Y-47628685D02*
X130728569Y-47485828D01*
X130728569Y-47485828D02*
X130585712Y-47414400D01*
X130585712Y-47414400D02*
X130228569Y-47414400D01*
X130228569Y-47414400D02*
X130085712Y-47342971D01*
X129371426Y-47985828D02*
X129371426Y-46985828D01*
X129371426Y-47271542D02*
X129299997Y-47128685D01*
X129299997Y-47128685D02*
X129228569Y-47057257D01*
X129228569Y-47057257D02*
X129085711Y-46985828D01*
X129085711Y-46985828D02*
X128942854Y-46985828D01*
X127371426Y-46628685D02*
X127299998Y-46557257D01*
X127299998Y-46557257D02*
X127157141Y-46485828D01*
X127157141Y-46485828D02*
X126799998Y-46485828D01*
X126799998Y-46485828D02*
X126657141Y-46557257D01*
X126657141Y-46557257D02*
X126585712Y-46628685D01*
X126585712Y-46628685D02*
X126514283Y-46771542D01*
X126514283Y-46771542D02*
X126514283Y-46914400D01*
X126514283Y-46914400D02*
X126585712Y-47128685D01*
X126585712Y-47128685D02*
X127442855Y-47985828D01*
X127442855Y-47985828D02*
X126514283Y-47985828D01*
X125585712Y-46485828D02*
X125442855Y-46485828D01*
X125442855Y-46485828D02*
X125299998Y-46557257D01*
X125299998Y-46557257D02*
X125228570Y-46628685D01*
X125228570Y-46628685D02*
X125157141Y-46771542D01*
X125157141Y-46771542D02*
X125085712Y-47057257D01*
X125085712Y-47057257D02*
X125085712Y-47414400D01*
X125085712Y-47414400D02*
X125157141Y-47700114D01*
X125157141Y-47700114D02*
X125228570Y-47842971D01*
X125228570Y-47842971D02*
X125299998Y-47914400D01*
X125299998Y-47914400D02*
X125442855Y-47985828D01*
X125442855Y-47985828D02*
X125585712Y-47985828D01*
X125585712Y-47985828D02*
X125728570Y-47914400D01*
X125728570Y-47914400D02*
X125799998Y-47842971D01*
X125799998Y-47842971D02*
X125871427Y-47700114D01*
X125871427Y-47700114D02*
X125942855Y-47414400D01*
X125942855Y-47414400D02*
X125942855Y-47057257D01*
X125942855Y-47057257D02*
X125871427Y-46771542D01*
X125871427Y-46771542D02*
X125799998Y-46628685D01*
X125799998Y-46628685D02*
X125728570Y-46557257D01*
X125728570Y-46557257D02*
X125585712Y-46485828D01*
X124514284Y-46628685D02*
X124442856Y-46557257D01*
X124442856Y-46557257D02*
X124299999Y-46485828D01*
X124299999Y-46485828D02*
X123942856Y-46485828D01*
X123942856Y-46485828D02*
X123799999Y-46557257D01*
X123799999Y-46557257D02*
X123728570Y-46628685D01*
X123728570Y-46628685D02*
X123657141Y-46771542D01*
X123657141Y-46771542D02*
X123657141Y-46914400D01*
X123657141Y-46914400D02*
X123728570Y-47128685D01*
X123728570Y-47128685D02*
X124585713Y-47985828D01*
X124585713Y-47985828D02*
X123657141Y-47985828D01*
X122371428Y-46985828D02*
X122371428Y-47985828D01*
X122728570Y-46414400D02*
X123085713Y-47485828D01*
X123085713Y-47485828D02*
X122157142Y-47485828D01*
D11*
X135619048Y-165454819D02*
X135619048Y-166169104D01*
X135619048Y-166169104D02*
X135666667Y-166311961D01*
X135666667Y-166311961D02*
X135761905Y-166407200D01*
X135761905Y-166407200D02*
X135904762Y-166454819D01*
X135904762Y-166454819D02*
X136000000Y-166454819D01*
X134666667Y-166454819D02*
X135142857Y-166454819D01*
X135142857Y-166454819D02*
X135142857Y-165454819D01*
X133761905Y-166359580D02*
X133809524Y-166407200D01*
X133809524Y-166407200D02*
X133952381Y-166454819D01*
X133952381Y-166454819D02*
X134047619Y-166454819D01*
X134047619Y-166454819D02*
X134190476Y-166407200D01*
X134190476Y-166407200D02*
X134285714Y-166311961D01*
X134285714Y-166311961D02*
X134333333Y-166216723D01*
X134333333Y-166216723D02*
X134380952Y-166026247D01*
X134380952Y-166026247D02*
X134380952Y-165883390D01*
X134380952Y-165883390D02*
X134333333Y-165692914D01*
X134333333Y-165692914D02*
X134285714Y-165597676D01*
X134285714Y-165597676D02*
X134190476Y-165502438D01*
X134190476Y-165502438D02*
X134047619Y-165454819D01*
X134047619Y-165454819D02*
X133952381Y-165454819D01*
X133952381Y-165454819D02*
X133809524Y-165502438D01*
X133809524Y-165502438D02*
X133761905Y-165550057D01*
X133047619Y-165454819D02*
X133047619Y-166169104D01*
X133047619Y-166169104D02*
X133095238Y-166311961D01*
X133095238Y-166311961D02*
X133190476Y-166407200D01*
X133190476Y-166407200D02*
X133333333Y-166454819D01*
X133333333Y-166454819D02*
X133428571Y-166454819D01*
X132095238Y-166454819D02*
X132571428Y-166454819D01*
X132571428Y-166454819D02*
X132571428Y-165454819D01*
X131190476Y-166359580D02*
X131238095Y-166407200D01*
X131238095Y-166407200D02*
X131380952Y-166454819D01*
X131380952Y-166454819D02*
X131476190Y-166454819D01*
X131476190Y-166454819D02*
X131619047Y-166407200D01*
X131619047Y-166407200D02*
X131714285Y-166311961D01*
X131714285Y-166311961D02*
X131761904Y-166216723D01*
X131761904Y-166216723D02*
X131809523Y-166026247D01*
X131809523Y-166026247D02*
X131809523Y-165883390D01*
X131809523Y-165883390D02*
X131761904Y-165692914D01*
X131761904Y-165692914D02*
X131714285Y-165597676D01*
X131714285Y-165597676D02*
X131619047Y-165502438D01*
X131619047Y-165502438D02*
X131476190Y-165454819D01*
X131476190Y-165454819D02*
X131380952Y-165454819D01*
X131380952Y-165454819D02*
X131238095Y-165502438D01*
X131238095Y-165502438D02*
X131190476Y-165550057D01*
X130476190Y-165454819D02*
X130476190Y-166169104D01*
X130476190Y-166169104D02*
X130523809Y-166311961D01*
X130523809Y-166311961D02*
X130619047Y-166407200D01*
X130619047Y-166407200D02*
X130761904Y-166454819D01*
X130761904Y-166454819D02*
X130857142Y-166454819D01*
X129523809Y-166454819D02*
X129999999Y-166454819D01*
X129999999Y-166454819D02*
X129999999Y-165454819D01*
X128619047Y-166359580D02*
X128666666Y-166407200D01*
X128666666Y-166407200D02*
X128809523Y-166454819D01*
X128809523Y-166454819D02*
X128904761Y-166454819D01*
X128904761Y-166454819D02*
X129047618Y-166407200D01*
X129047618Y-166407200D02*
X129142856Y-166311961D01*
X129142856Y-166311961D02*
X129190475Y-166216723D01*
X129190475Y-166216723D02*
X129238094Y-166026247D01*
X129238094Y-166026247D02*
X129238094Y-165883390D01*
X129238094Y-165883390D02*
X129190475Y-165692914D01*
X129190475Y-165692914D02*
X129142856Y-165597676D01*
X129142856Y-165597676D02*
X129047618Y-165502438D01*
X129047618Y-165502438D02*
X128904761Y-165454819D01*
X128904761Y-165454819D02*
X128809523Y-165454819D01*
X128809523Y-165454819D02*
X128666666Y-165502438D01*
X128666666Y-165502438D02*
X128619047Y-165550057D01*
X127904761Y-165454819D02*
X127904761Y-166169104D01*
X127904761Y-166169104D02*
X127952380Y-166311961D01*
X127952380Y-166311961D02*
X128047618Y-166407200D01*
X128047618Y-166407200D02*
X128190475Y-166454819D01*
X128190475Y-166454819D02*
X128285713Y-166454819D01*
X126952380Y-166454819D02*
X127428570Y-166454819D01*
X127428570Y-166454819D02*
X127428570Y-165454819D01*
X126047618Y-166359580D02*
X126095237Y-166407200D01*
X126095237Y-166407200D02*
X126238094Y-166454819D01*
X126238094Y-166454819D02*
X126333332Y-166454819D01*
X126333332Y-166454819D02*
X126476189Y-166407200D01*
X126476189Y-166407200D02*
X126571427Y-166311961D01*
X126571427Y-166311961D02*
X126619046Y-166216723D01*
X126619046Y-166216723D02*
X126666665Y-166026247D01*
X126666665Y-166026247D02*
X126666665Y-165883390D01*
X126666665Y-165883390D02*
X126619046Y-165692914D01*
X126619046Y-165692914D02*
X126571427Y-165597676D01*
X126571427Y-165597676D02*
X126476189Y-165502438D01*
X126476189Y-165502438D02*
X126333332Y-165454819D01*
X126333332Y-165454819D02*
X126238094Y-165454819D01*
X126238094Y-165454819D02*
X126095237Y-165502438D01*
X126095237Y-165502438D02*
X126047618Y-165550057D01*
M02*
