M48
; DRILL file {KiCad 7.0.9} date Fri Feb  2 16:32:44 2024
; FORMAT={-:-/ absolute / inch / decimal}
; #@! TF.CreationDate,2024-02-02T16:32:44+00:00
; #@! TF.GenerationSoftware,Kicad,Pcbnew,7.0.9
; #@! TF.FileFunction,NonPlated,1,2,NPTH
FMAT,2
INCH
; #@! TA.AperFunction,NonPlated,NPTH,ComponentDrill
T1C0.1260
; #@! TA.AperFunction,NonPlated,NPTH,ComponentDrill
T2C0.2362
; #@! TA.AperFunction,NonPlated,NPTH,ComponentDrill
T3C0.2500
; #@! TA.AperFunction,NonPlated,NPTH,ComponentDrill
T4C0.2756
%
G90
G05
T2
X4.2677Y-5.1575
X4.8031Y-5.1575
X4.9606Y-5.9449
X5.3346Y-5.1575
X5.4134Y-5.9449
X5.9252Y-5.9449
X6.4173Y-5.9449
T3
X5.2362Y-2.6772
T4
X4.3701Y-2.6772
X4.3701Y-3.5039
X4.3701Y-4.3307
X5.2362Y-3.5039
X5.2362Y-4.3307
X6.1811Y-2.6772
X6.1811Y-3.5039
X6.1811Y-4.3307
X6.1811Y-5.1575
T1
G00X4.1929Y-1.7283
M15
G01X4.2638Y-1.7283
M16
G05
G00X4.1929Y-6.5512
M15
G01X4.2638Y-6.5512
M16
G05
G00X6.3898Y-1.7283
M15
G01X6.4606Y-1.7283
M16
G05
G00X6.3898Y-6.5512
M15
G01X6.4606Y-6.5512
M16
G05
T0
M30
