%TF.GenerationSoftware,KiCad,Pcbnew,7.0.6*%
%TF.CreationDate,2023-08-01T18:28:40+01:00*%
%TF.ProjectId,AK4619_DevBoard,414b3436-3139-45f4-9465-76426f617264,rev?*%
%TF.SameCoordinates,Original*%
%TF.FileFunction,Copper,L2,Bot*%
%TF.FilePolarity,Positive*%
%FSLAX46Y46*%
G04 Gerber Fmt 4.6, Leading zero omitted, Abs format (unit mm)*
G04 Created by KiCad (PCBNEW 7.0.6) date 2023-08-01 18:28:40*
%MOMM*%
%LPD*%
G01*
G04 APERTURE LIST*
%TA.AperFunction,ComponentPad*%
%ADD10C,0.500000*%
%TD*%
%TA.AperFunction,SMDPad,CuDef*%
%ADD11R,2.500000X2.500000*%
%TD*%
%TA.AperFunction,ComponentPad*%
%ADD12C,1.700000*%
%TD*%
%TA.AperFunction,ComponentPad*%
%ADD13R,1.700000X1.700000*%
%TD*%
%TA.AperFunction,ComponentPad*%
%ADD14O,1.700000X1.700000*%
%TD*%
%TA.AperFunction,ViaPad*%
%ADD15C,0.800000*%
%TD*%
%TA.AperFunction,Conductor*%
%ADD16C,0.300000*%
%TD*%
%TA.AperFunction,Conductor*%
%ADD17C,0.250000*%
%TD*%
G04 APERTURE END LIST*
D10*
%TO.P,U2,33,PAD*%
%TO.N,GND*%
X164000000Y-72000000D03*
X164000000Y-73000000D03*
X164000000Y-74000000D03*
X165000000Y-72000000D03*
X165000000Y-73000000D03*
D11*
X165000000Y-73000000D03*
D10*
X165000000Y-74000000D03*
X166000000Y-72000000D03*
X166000000Y-73000000D03*
X166000000Y-74000000D03*
%TD*%
D12*
%TO.P,TP2,1,1*%
%TO.N,+3.3V*%
X144700000Y-39200000D03*
%TD*%
%TO.P,TP1,1,1*%
%TO.N,GND*%
X136700000Y-39200000D03*
%TD*%
D13*
%TO.P,J2,1,Pin_1*%
%TO.N,/IN1*%
X177825000Y-78740000D03*
D14*
%TO.P,J2,2,Pin_2*%
%TO.N,/IN2*%
X177825000Y-81280000D03*
%TO.P,J2,3,Pin_3*%
%TO.N,/IN3*%
X177825000Y-83820000D03*
%TO.P,J2,4,Pin_4*%
%TO.N,/IN4*%
X177825000Y-86360000D03*
%TD*%
%TO.P,J1,4,Pin_4*%
%TO.N,/OUT4*%
X177800000Y-63500000D03*
%TO.P,J1,3,Pin_3*%
%TO.N,/OUT3*%
X177800000Y-66040000D03*
%TO.P,J1,2,Pin_2*%
%TO.N,/OUT2*%
X177800000Y-68580000D03*
D13*
%TO.P,J1,1,Pin_1*%
%TO.N,/OUT1*%
X177800000Y-71120000D03*
%TD*%
%TO.P,J10,1,Pin_1*%
%TO.N,unconnected-(J10-Pin_1-Pad1)*%
X185420000Y-63500000D03*
D14*
%TO.P,J10,2,Pin_2*%
%TO.N,unconnected-(J10-Pin_2-Pad2)*%
X187960000Y-63500000D03*
%TO.P,J10,3,Pin_3*%
%TO.N,unconnected-(J10-Pin_3-Pad3)*%
X185420000Y-66040000D03*
%TO.P,J10,4,Pin_4*%
%TO.N,unconnected-(J10-Pin_4-Pad4)*%
X187960000Y-66040000D03*
%TO.P,J10,5,Pin_5*%
%TO.N,unconnected-(J10-Pin_5-Pad5)*%
X185420000Y-68580000D03*
%TO.P,J10,6,Pin_6*%
%TO.N,Net-(J10-Pin_6)*%
X187960000Y-68580000D03*
%TO.P,J10,7,Pin_7*%
%TO.N,unconnected-(J10-Pin_7-Pad7)*%
X185420000Y-71120000D03*
%TO.P,J10,8,Pin_8*%
%TO.N,unconnected-(J10-Pin_8-Pad8)*%
X187960000Y-71120000D03*
%TO.P,J10,9,Pin_9*%
%TO.N,unconnected-(J10-Pin_9-Pad9)*%
X185420000Y-73660000D03*
%TO.P,J10,10,Pin_10*%
%TO.N,unconnected-(J10-Pin_10-Pad10)*%
X187960000Y-73660000D03*
%TO.P,J10,11,Pin_11*%
%TO.N,unconnected-(J10-Pin_11-Pad11)*%
X185420000Y-76200000D03*
%TO.P,J10,12,Pin_12*%
%TO.N,unconnected-(J10-Pin_12-Pad12)*%
X187960000Y-76200000D03*
%TO.P,J10,13,Pin_13*%
%TO.N,unconnected-(J10-Pin_13-Pad13)*%
X185420000Y-78740000D03*
%TO.P,J10,14,Pin_14*%
%TO.N,unconnected-(J10-Pin_14-Pad14)*%
X187960000Y-78740000D03*
%TO.P,J10,15,Pin_15*%
%TO.N,unconnected-(J10-Pin_15-Pad15)*%
X185420000Y-81280000D03*
%TO.P,J10,16,Pin_16*%
%TO.N,unconnected-(J10-Pin_16-Pad16)*%
X187960000Y-81280000D03*
%TO.P,J10,17,Pin_17*%
%TO.N,GND*%
X185420000Y-83820000D03*
%TO.P,J10,18,Pin_18*%
%TO.N,unconnected-(J10-Pin_18-Pad18)*%
X187960000Y-83820000D03*
%TO.P,J10,19,Pin_19*%
%TO.N,unconnected-(J10-Pin_19-Pad19)*%
X185420000Y-86360000D03*
%TO.P,J10,20,Pin_20*%
%TO.N,unconnected-(J10-Pin_20-Pad20)*%
X187960000Y-86360000D03*
%TO.P,J10,21,Pin_21*%
%TO.N,unconnected-(J10-Pin_21-Pad21)*%
X185420000Y-88900000D03*
%TO.P,J10,22,Pin_22*%
%TO.N,unconnected-(J10-Pin_22-Pad22)*%
X187960000Y-88900000D03*
%TO.P,J10,23,Pin_23*%
%TO.N,Net-(J10-Pin_23)*%
X185420000Y-91440000D03*
%TO.P,J10,24,Pin_24*%
%TO.N,unconnected-(J10-Pin_24-Pad24)*%
X187960000Y-91440000D03*
%TO.P,J10,25,Pin_25*%
%TO.N,unconnected-(J10-Pin_25-Pad25)*%
X185420000Y-93980000D03*
%TO.P,J10,26,Pin_26*%
%TO.N,unconnected-(J10-Pin_26-Pad26)*%
X187960000Y-93980000D03*
%TO.P,J10,27,Pin_27*%
%TO.N,GND*%
X185420000Y-96520000D03*
%TO.P,J10,28,Pin_28*%
%TO.N,unconnected-(J10-Pin_28-Pad28)*%
X187960000Y-96520000D03*
%TO.P,J10,29,Pin_29*%
%TO.N,unconnected-(J10-Pin_29-Pad29)*%
X185420000Y-99060000D03*
%TO.P,J10,30,Pin_30*%
%TO.N,unconnected-(J10-Pin_30-Pad30)*%
X187960000Y-99060000D03*
%TO.P,J10,31,Pin_31*%
%TO.N,unconnected-(J10-Pin_31-Pad31)*%
X185420000Y-101600000D03*
%TO.P,J10,32,Pin_32*%
%TO.N,unconnected-(J10-Pin_32-Pad32)*%
X187960000Y-101600000D03*
%TO.P,J10,33,Pin_33*%
%TO.N,unconnected-(J10-Pin_33-Pad33)*%
X185420000Y-104140000D03*
%TO.P,J10,34,Pin_34*%
%TO.N,unconnected-(J10-Pin_34-Pad34)*%
X187960000Y-104140000D03*
%TD*%
D13*
%TO.P,J7,1,Pin_1*%
%TO.N,unconnected-(J7-Pin_1-Pad1)*%
X185420000Y-35560000D03*
D14*
%TO.P,J7,2,Pin_2*%
%TO.N,unconnected-(J7-Pin_2-Pad2)*%
X187960000Y-35560000D03*
%TO.P,J7,3,Pin_3*%
%TO.N,unconnected-(J7-Pin_3-Pad3)*%
X185420000Y-38100000D03*
%TO.P,J7,4,Pin_4*%
%TO.N,unconnected-(J7-Pin_4-Pad4)*%
X187960000Y-38100000D03*
%TO.P,J7,5,Pin_5*%
%TO.N,unconnected-(J7-Pin_5-Pad5)*%
X185420000Y-40640000D03*
%TO.P,J7,6,Pin_6*%
%TO.N,unconnected-(J7-Pin_6-Pad6)*%
X187960000Y-40640000D03*
%TO.P,J7,7,Pin_7*%
%TO.N,unconnected-(J7-Pin_7-Pad7)*%
X185420000Y-43180000D03*
%TO.P,J7,8,Pin_8*%
%TO.N,GND*%
X187960000Y-43180000D03*
%TO.P,J7,9,Pin_9*%
%TO.N,Net-(J7-Pin_9)*%
X185420000Y-45720000D03*
%TO.P,J7,10,Pin_10*%
%TO.N,Net-(J7-Pin_10)*%
X187960000Y-45720000D03*
%TO.P,J7,11,Pin_11*%
%TO.N,unconnected-(J7-Pin_11-Pad11)*%
X185420000Y-48260000D03*
%TO.P,J7,12,Pin_12*%
%TO.N,unconnected-(J7-Pin_12-Pad12)*%
X187960000Y-48260000D03*
%TO.P,J7,13,Pin_13*%
%TO.N,unconnected-(J7-Pin_13-Pad13)*%
X185420000Y-50800000D03*
%TO.P,J7,14,Pin_14*%
%TO.N,Net-(J7-Pin_14)*%
X187960000Y-50800000D03*
%TO.P,J7,15,Pin_15*%
%TO.N,unconnected-(J7-Pin_15-Pad15)*%
X185420000Y-53340000D03*
%TO.P,J7,16,Pin_16*%
%TO.N,unconnected-(J7-Pin_16-Pad16)*%
X187960000Y-53340000D03*
%TO.P,J7,17,Pin_17*%
%TO.N,unconnected-(J7-Pin_17-Pad17)*%
X185420000Y-55880000D03*
%TO.P,J7,18,Pin_18*%
%TO.N,/PDN*%
X187960000Y-55880000D03*
%TO.P,J7,19,Pin_19*%
%TO.N,Net-(J7-Pin_19)*%
X185420000Y-58420000D03*
%TO.P,J7,20,Pin_20*%
%TO.N,unconnected-(J7-Pin_20-Pad20)*%
X187960000Y-58420000D03*
%TD*%
D13*
%TO.P,J8,1,Pin_1*%
%TO.N,unconnected-(J8-Pin_1-Pad1)*%
X139700000Y-45720000D03*
D14*
%TO.P,J8,2,Pin_2*%
%TO.N,unconnected-(J8-Pin_2-Pad2)*%
X142240000Y-45720000D03*
%TO.P,J8,3,Pin_3*%
%TO.N,unconnected-(J8-Pin_3-Pad3)*%
X139700000Y-48260000D03*
%TO.P,J8,4,Pin_4*%
%TO.N,unconnected-(J8-Pin_4-Pad4)*%
X142240000Y-48260000D03*
%TO.P,J8,5,Pin_5*%
%TO.N,unconnected-(J8-Pin_5-Pad5)*%
X139700000Y-50800000D03*
%TO.P,J8,6,Pin_6*%
%TO.N,unconnected-(J8-Pin_6-Pad6)*%
X142240000Y-50800000D03*
%TO.P,J8,7,Pin_7*%
%TO.N,/3VIN*%
X139700000Y-53340000D03*
%TO.P,J8,8,Pin_8*%
%TO.N,unconnected-(J8-Pin_8-Pad8)*%
X142240000Y-53340000D03*
%TO.P,J8,9,Pin_9*%
%TO.N,unconnected-(J8-Pin_9-Pad9)*%
X139700000Y-55880000D03*
%TO.P,J8,10,Pin_10*%
%TO.N,unconnected-(J8-Pin_10-Pad10)*%
X142240000Y-55880000D03*
%TO.P,J8,11,Pin_11*%
%TO.N,GND*%
X139700000Y-58420000D03*
%TO.P,J8,12,Pin_12*%
%TO.N,unconnected-(J8-Pin_12-Pad12)*%
X142240000Y-58420000D03*
%TO.P,J8,13,Pin_13*%
%TO.N,GND*%
X139700000Y-60960000D03*
%TO.P,J8,14,Pin_14*%
%TO.N,unconnected-(J8-Pin_14-Pad14)*%
X142240000Y-60960000D03*
%TO.P,J8,15,Pin_15*%
%TO.N,unconnected-(J8-Pin_15-Pad15)*%
X139700000Y-63500000D03*
%TO.P,J8,16,Pin_16*%
%TO.N,unconnected-(J8-Pin_16-Pad16)*%
X142240000Y-63500000D03*
%TD*%
D13*
%TO.P,J9,1,Pin_1*%
%TO.N,unconnected-(J9-Pin_1-Pad1)*%
X139700000Y-68580000D03*
D14*
%TO.P,J9,2,Pin_2*%
%TO.N,unconnected-(J9-Pin_2-Pad2)*%
X142240000Y-68580000D03*
%TO.P,J9,3,Pin_3*%
%TO.N,unconnected-(J9-Pin_3-Pad3)*%
X139700000Y-71120000D03*
%TO.P,J9,4,Pin_4*%
%TO.N,unconnected-(J9-Pin_4-Pad4)*%
X142240000Y-71120000D03*
%TO.P,J9,5,Pin_5*%
%TO.N,unconnected-(J9-Pin_5-Pad5)*%
X139700000Y-73660000D03*
%TO.P,J9,6,Pin_6*%
%TO.N,unconnected-(J9-Pin_6-Pad6)*%
X142240000Y-73660000D03*
%TO.P,J9,7,Pin_7*%
%TO.N,unconnected-(J9-Pin_7-Pad7)*%
X139700000Y-76200000D03*
%TO.P,J9,8,Pin_8*%
%TO.N,unconnected-(J9-Pin_8-Pad8)*%
X142240000Y-76200000D03*
%TO.P,J9,9,Pin_9*%
%TO.N,unconnected-(J9-Pin_9-Pad9)*%
X139700000Y-78740000D03*
%TO.P,J9,10,Pin_10*%
%TO.N,unconnected-(J9-Pin_10-Pad10)*%
X142240000Y-78740000D03*
%TO.P,J9,11,Pin_11*%
%TO.N,unconnected-(J9-Pin_11-Pad11)*%
X139700000Y-81280000D03*
%TO.P,J9,12,Pin_12*%
%TO.N,GND*%
X142240000Y-81280000D03*
%TO.P,J9,13,Pin_13*%
%TO.N,unconnected-(J9-Pin_13-Pad13)*%
X139700000Y-83820000D03*
%TO.P,J9,14,Pin_14*%
%TO.N,Net-(J9-Pin_14)*%
X142240000Y-83820000D03*
%TO.P,J9,15,Pin_15*%
%TO.N,unconnected-(J9-Pin_15-Pad15)*%
X139700000Y-86360000D03*
%TO.P,J9,16,Pin_16*%
%TO.N,Net-(J9-Pin_16)*%
X142240000Y-86360000D03*
%TO.P,J9,17,Pin_17*%
%TO.N,unconnected-(J9-Pin_17-Pad17)*%
X139700000Y-88900000D03*
%TO.P,J9,18,Pin_18*%
%TO.N,Net-(J9-Pin_18)*%
X142240000Y-88900000D03*
%TO.P,J9,19,Pin_19*%
%TO.N,unconnected-(J9-Pin_19-Pad19)*%
X139700000Y-91440000D03*
%TO.P,J9,20,Pin_20*%
%TO.N,Net-(J9-Pin_20)*%
X142240000Y-91440000D03*
%TO.P,J9,21,Pin_21*%
%TO.N,unconnected-(J9-Pin_21-Pad21)*%
X139700000Y-93980000D03*
%TO.P,J9,22,Pin_22*%
%TO.N,Net-(J9-Pin_22)*%
X142240000Y-93980000D03*
%TO.P,J9,23,Pin_23*%
%TO.N,unconnected-(J9-Pin_23-Pad23)*%
X139700000Y-96520000D03*
%TO.P,J9,24,Pin_24*%
%TO.N,unconnected-(J9-Pin_24-Pad24)*%
X142240000Y-96520000D03*
%TO.P,J9,25,Pin_25*%
%TO.N,unconnected-(J9-Pin_25-Pad25)*%
X139700000Y-99060000D03*
%TO.P,J9,26,Pin_26*%
%TO.N,unconnected-(J9-Pin_26-Pad26)*%
X142240000Y-99060000D03*
%TO.P,J9,27,Pin_27*%
%TO.N,unconnected-(J9-Pin_27-Pad27)*%
X139700000Y-101600000D03*
%TO.P,J9,28,Pin_28*%
%TO.N,unconnected-(J9-Pin_28-Pad28)*%
X142240000Y-101600000D03*
%TO.P,J9,29,Pin_29*%
%TO.N,unconnected-(J9-Pin_29-Pad29)*%
X139700000Y-104140000D03*
%TO.P,J9,30,Pin_30*%
%TO.N,unconnected-(J9-Pin_30-Pad30)*%
X142240000Y-104140000D03*
%TD*%
D15*
%TO.N,+3.3VA*%
X157900000Y-66800000D03*
%TO.N,GND*%
X173200000Y-83100000D03*
X166200000Y-83800000D03*
X162800000Y-83800000D03*
X161100000Y-72700000D03*
X173400000Y-75100000D03*
X168700000Y-73500000D03*
%TO.N,/SAI1_SD_A*%
X151300000Y-91800000D03*
X161300000Y-69900000D03*
%TO.N,/SAI1_SD_B*%
X161000000Y-71250000D03*
X158800000Y-86000000D03*
%TO.N,/SAI1_FS_A*%
X155600000Y-74200000D03*
X154468323Y-83956982D03*
%TO.N,+3.3VA*%
X176000000Y-75000000D03*
%TD*%
D16*
%TO.N,+3.3VA*%
X157900000Y-66800000D02*
X167800000Y-66800000D01*
D17*
%TO.N,/SAI1_FS_A*%
X154400000Y-83888659D02*
X154468323Y-83956982D01*
X155600000Y-74200000D02*
X154400000Y-75400000D01*
X154400000Y-75400000D02*
X154400000Y-83888659D01*
%TO.N,/SAI1_SD_B*%
X158800000Y-73450000D02*
X161000000Y-71250000D01*
X158800000Y-86000000D02*
X158800000Y-73450000D01*
D16*
%TO.N,+3.3VA*%
X167800000Y-66800000D02*
X176000000Y-75000000D01*
D17*
%TO.N,/SAI1_SD_A*%
X156700000Y-74500000D02*
X156700000Y-86400000D01*
X161300000Y-69900000D02*
X156700000Y-74500000D01*
X156700000Y-86400000D02*
X151300000Y-91800000D01*
%TD*%
%TA.AperFunction,Conductor*%
%TO.N,GND*%
G36*
X139950000Y-60524498D02*
G01*
X139842315Y-60475320D01*
X139735763Y-60460000D01*
X139664237Y-60460000D01*
X139557685Y-60475320D01*
X139450000Y-60524498D01*
X139450000Y-58855501D01*
X139557685Y-58904680D01*
X139664237Y-58920000D01*
X139735763Y-58920000D01*
X139842315Y-58904680D01*
X139950000Y-58855501D01*
X139950000Y-60524498D01*
G37*
%TD.AperFunction*%
%TA.AperFunction,Conductor*%
G36*
X198242539Y-30120185D02*
G01*
X198288294Y-30172989D01*
X198299500Y-30224500D01*
X198299500Y-110175500D01*
X198279815Y-110242539D01*
X198227011Y-110288294D01*
X198175500Y-110299500D01*
X129624500Y-110299500D01*
X129557461Y-110279815D01*
X129511706Y-110227011D01*
X129500500Y-110175500D01*
X129500500Y-104140000D01*
X138344341Y-104140000D01*
X138364936Y-104375403D01*
X138364938Y-104375413D01*
X138426094Y-104603655D01*
X138426096Y-104603659D01*
X138426097Y-104603663D01*
X138430000Y-104612032D01*
X138525965Y-104817830D01*
X138525967Y-104817834D01*
X138634281Y-104972521D01*
X138661505Y-105011401D01*
X138828599Y-105178495D01*
X138925384Y-105246264D01*
X139022165Y-105314032D01*
X139022167Y-105314033D01*
X139022170Y-105314035D01*
X139236337Y-105413903D01*
X139464592Y-105475063D01*
X139652918Y-105491539D01*
X139699999Y-105495659D01*
X139700000Y-105495659D01*
X139700001Y-105495659D01*
X139739234Y-105492226D01*
X139935408Y-105475063D01*
X140163663Y-105413903D01*
X140377830Y-105314035D01*
X140571401Y-105178495D01*
X140738495Y-105011401D01*
X140868424Y-104825842D01*
X140923002Y-104782217D01*
X140992500Y-104775023D01*
X141054855Y-104806546D01*
X141071575Y-104825842D01*
X141201500Y-105011395D01*
X141201505Y-105011401D01*
X141368599Y-105178495D01*
X141465384Y-105246264D01*
X141562165Y-105314032D01*
X141562167Y-105314033D01*
X141562170Y-105314035D01*
X141776337Y-105413903D01*
X142004592Y-105475063D01*
X142192918Y-105491539D01*
X142239999Y-105495659D01*
X142240000Y-105495659D01*
X142240001Y-105495659D01*
X142279234Y-105492226D01*
X142475408Y-105475063D01*
X142703663Y-105413903D01*
X142917830Y-105314035D01*
X143111401Y-105178495D01*
X143278495Y-105011401D01*
X143414035Y-104817830D01*
X143513903Y-104603663D01*
X143575063Y-104375408D01*
X143595659Y-104140000D01*
X184064341Y-104140000D01*
X184084936Y-104375403D01*
X184084938Y-104375413D01*
X184146094Y-104603655D01*
X184146096Y-104603659D01*
X184146097Y-104603663D01*
X184150000Y-104612032D01*
X184245965Y-104817830D01*
X184245967Y-104817834D01*
X184354281Y-104972521D01*
X184381505Y-105011401D01*
X184548599Y-105178495D01*
X184645384Y-105246264D01*
X184742165Y-105314032D01*
X184742167Y-105314033D01*
X184742170Y-105314035D01*
X184956337Y-105413903D01*
X185184592Y-105475063D01*
X185372918Y-105491539D01*
X185419999Y-105495659D01*
X185420000Y-105495659D01*
X185420001Y-105495659D01*
X185459234Y-105492226D01*
X185655408Y-105475063D01*
X185883663Y-105413903D01*
X186097830Y-105314035D01*
X186291401Y-105178495D01*
X186458495Y-105011401D01*
X186588424Y-104825842D01*
X186643002Y-104782217D01*
X186712500Y-104775023D01*
X186774855Y-104806546D01*
X186791575Y-104825842D01*
X186921500Y-105011395D01*
X186921505Y-105011401D01*
X187088599Y-105178495D01*
X187185384Y-105246264D01*
X187282165Y-105314032D01*
X187282167Y-105314033D01*
X187282170Y-105314035D01*
X187496337Y-105413903D01*
X187724592Y-105475063D01*
X187912918Y-105491539D01*
X187959999Y-105495659D01*
X187960000Y-105495659D01*
X187960001Y-105495659D01*
X187999234Y-105492226D01*
X188195408Y-105475063D01*
X188423663Y-105413903D01*
X188637830Y-105314035D01*
X188831401Y-105178495D01*
X188998495Y-105011401D01*
X189134035Y-104817830D01*
X189233903Y-104603663D01*
X189295063Y-104375408D01*
X189315659Y-104140000D01*
X189295063Y-103904592D01*
X189233903Y-103676337D01*
X189134035Y-103462171D01*
X189128425Y-103454158D01*
X188998494Y-103268597D01*
X188831402Y-103101506D01*
X188831396Y-103101501D01*
X188645842Y-102971575D01*
X188602217Y-102916998D01*
X188595023Y-102847500D01*
X188626546Y-102785145D01*
X188645842Y-102768425D01*
X188668026Y-102752891D01*
X188831401Y-102638495D01*
X188998495Y-102471401D01*
X189134035Y-102277830D01*
X189233903Y-102063663D01*
X189295063Y-101835408D01*
X189315659Y-101600000D01*
X189295063Y-101364592D01*
X189233903Y-101136337D01*
X189134035Y-100922171D01*
X189128425Y-100914158D01*
X188998494Y-100728597D01*
X188831402Y-100561506D01*
X188831401Y-100561505D01*
X188645842Y-100431575D01*
X188645841Y-100431574D01*
X188602216Y-100376997D01*
X188595024Y-100307498D01*
X188626546Y-100245144D01*
X188645836Y-100228428D01*
X188831401Y-100098495D01*
X188998495Y-99931401D01*
X189134035Y-99737830D01*
X189233903Y-99523663D01*
X189295063Y-99295408D01*
X189315659Y-99060000D01*
X189295063Y-98824592D01*
X189233903Y-98596337D01*
X189134035Y-98382171D01*
X189128425Y-98374158D01*
X188998494Y-98188597D01*
X188831402Y-98021506D01*
X188831396Y-98021501D01*
X188645842Y-97891575D01*
X188602217Y-97836998D01*
X188595023Y-97767500D01*
X188626546Y-97705145D01*
X188645842Y-97688425D01*
X188668026Y-97672891D01*
X188831401Y-97558495D01*
X188998495Y-97391401D01*
X189134035Y-97197830D01*
X189233903Y-96983663D01*
X189295063Y-96755408D01*
X189315659Y-96520000D01*
X189295063Y-96284592D01*
X189233903Y-96056337D01*
X189134035Y-95842171D01*
X189128731Y-95834595D01*
X188998494Y-95648597D01*
X188831402Y-95481506D01*
X188831401Y-95481505D01*
X188709746Y-95396321D01*
X188645841Y-95351574D01*
X188602216Y-95296997D01*
X188595024Y-95227498D01*
X188626546Y-95165144D01*
X188645836Y-95148428D01*
X188831401Y-95018495D01*
X188998495Y-94851401D01*
X189134035Y-94657830D01*
X189233903Y-94443663D01*
X189295063Y-94215408D01*
X189315659Y-93980000D01*
X189295063Y-93744592D01*
X189233903Y-93516337D01*
X189134035Y-93302171D01*
X189128425Y-93294158D01*
X188998494Y-93108597D01*
X188831402Y-92941506D01*
X188831396Y-92941501D01*
X188645842Y-92811575D01*
X188602217Y-92756998D01*
X188595023Y-92687500D01*
X188626546Y-92625145D01*
X188645842Y-92608425D01*
X188680513Y-92584148D01*
X188831401Y-92478495D01*
X188998495Y-92311401D01*
X189134035Y-92117830D01*
X189233903Y-91903663D01*
X189295063Y-91675408D01*
X189315659Y-91440000D01*
X189295063Y-91204592D01*
X189233903Y-90976337D01*
X189134035Y-90762171D01*
X189128425Y-90754158D01*
X188998494Y-90568597D01*
X188831402Y-90401506D01*
X188831401Y-90401505D01*
X188645842Y-90271575D01*
X188645841Y-90271574D01*
X188602216Y-90216997D01*
X188595024Y-90147498D01*
X188626546Y-90085144D01*
X188645836Y-90068428D01*
X188831401Y-89938495D01*
X188998495Y-89771401D01*
X189134035Y-89577830D01*
X189233903Y-89363663D01*
X189295063Y-89135408D01*
X189315659Y-88900000D01*
X189295063Y-88664592D01*
X189233903Y-88436337D01*
X189134035Y-88222171D01*
X189128425Y-88214158D01*
X188998494Y-88028597D01*
X188831402Y-87861506D01*
X188831396Y-87861501D01*
X188645842Y-87731575D01*
X188602217Y-87676998D01*
X188595023Y-87607500D01*
X188626546Y-87545145D01*
X188645842Y-87528425D01*
X188668026Y-87512891D01*
X188831401Y-87398495D01*
X188998495Y-87231401D01*
X189134035Y-87037830D01*
X189233903Y-86823663D01*
X189295063Y-86595408D01*
X189315659Y-86360000D01*
X189295063Y-86124592D01*
X189233903Y-85896337D01*
X189134035Y-85682171D01*
X189128425Y-85674158D01*
X188998494Y-85488597D01*
X188831402Y-85321506D01*
X188831401Y-85321505D01*
X188645842Y-85191575D01*
X188645841Y-85191574D01*
X188602216Y-85136997D01*
X188595024Y-85067498D01*
X188626546Y-85005144D01*
X188645836Y-84988428D01*
X188831401Y-84858495D01*
X188998495Y-84691401D01*
X189134035Y-84497830D01*
X189233903Y-84283663D01*
X189295063Y-84055408D01*
X189315659Y-83820000D01*
X189295063Y-83584592D01*
X189233903Y-83356337D01*
X189134035Y-83142171D01*
X189128731Y-83134595D01*
X188998494Y-82948597D01*
X188831402Y-82781506D01*
X188831396Y-82781501D01*
X188645842Y-82651575D01*
X188602217Y-82596998D01*
X188595023Y-82527500D01*
X188626546Y-82465145D01*
X188645842Y-82448425D01*
X188668026Y-82432891D01*
X188831401Y-82318495D01*
X188998495Y-82151401D01*
X189134035Y-81957830D01*
X189233903Y-81743663D01*
X189295063Y-81515408D01*
X189315659Y-81280000D01*
X189295063Y-81044592D01*
X189233903Y-80816337D01*
X189134035Y-80602171D01*
X189128731Y-80594595D01*
X188998494Y-80408597D01*
X188831402Y-80241506D01*
X188831401Y-80241505D01*
X188708800Y-80155659D01*
X188645841Y-80111574D01*
X188602216Y-80056997D01*
X188595024Y-79987498D01*
X188626546Y-79925144D01*
X188645836Y-79908428D01*
X188831401Y-79778495D01*
X188998495Y-79611401D01*
X189134035Y-79417830D01*
X189233903Y-79203663D01*
X189295063Y-78975408D01*
X189315659Y-78740000D01*
X189295063Y-78504592D01*
X189233903Y-78276337D01*
X189134035Y-78062171D01*
X189128425Y-78054158D01*
X188998494Y-77868597D01*
X188831402Y-77701506D01*
X188831396Y-77701501D01*
X188645842Y-77571575D01*
X188602217Y-77516998D01*
X188595023Y-77447500D01*
X188626546Y-77385145D01*
X188645842Y-77368425D01*
X188668026Y-77352891D01*
X188831401Y-77238495D01*
X188998495Y-77071401D01*
X189134035Y-76877830D01*
X189233903Y-76663663D01*
X189295063Y-76435408D01*
X189315659Y-76200000D01*
X189295063Y-75964592D01*
X189233903Y-75736337D01*
X189134035Y-75522171D01*
X189128425Y-75514158D01*
X188998494Y-75328597D01*
X188831402Y-75161506D01*
X188831401Y-75161505D01*
X188688071Y-75061144D01*
X188645841Y-75031574D01*
X188602216Y-74976997D01*
X188595024Y-74907498D01*
X188626546Y-74845144D01*
X188645836Y-74828428D01*
X188831401Y-74698495D01*
X188998495Y-74531401D01*
X189134035Y-74337830D01*
X189233903Y-74123663D01*
X189295063Y-73895408D01*
X189315659Y-73660000D01*
X189295063Y-73424592D01*
X189233903Y-73196337D01*
X189134035Y-72982171D01*
X189128425Y-72974158D01*
X188998494Y-72788597D01*
X188831402Y-72621506D01*
X188831396Y-72621501D01*
X188645842Y-72491575D01*
X188602217Y-72436998D01*
X188595023Y-72367500D01*
X188626546Y-72305145D01*
X188645842Y-72288425D01*
X188668026Y-72272891D01*
X188831401Y-72158495D01*
X188998495Y-71991401D01*
X189134035Y-71797830D01*
X189233903Y-71583663D01*
X189295063Y-71355408D01*
X189315659Y-71120000D01*
X189295063Y-70884592D01*
X189233903Y-70656337D01*
X189134035Y-70442171D01*
X189128425Y-70434158D01*
X188998494Y-70248597D01*
X188831402Y-70081506D01*
X188831401Y-70081505D01*
X188708800Y-69995659D01*
X188645841Y-69951574D01*
X188602216Y-69896997D01*
X188595024Y-69827498D01*
X188626546Y-69765144D01*
X188645836Y-69748428D01*
X188831401Y-69618495D01*
X188998495Y-69451401D01*
X189134035Y-69257830D01*
X189233903Y-69043663D01*
X189295063Y-68815408D01*
X189315659Y-68580000D01*
X189295063Y-68344592D01*
X189233903Y-68116337D01*
X189134035Y-67902171D01*
X189128425Y-67894158D01*
X188998494Y-67708597D01*
X188831402Y-67541506D01*
X188831396Y-67541501D01*
X188645842Y-67411575D01*
X188602217Y-67356998D01*
X188595023Y-67287500D01*
X188626546Y-67225145D01*
X188645842Y-67208425D01*
X188703179Y-67168277D01*
X188831401Y-67078495D01*
X188998495Y-66911401D01*
X189134035Y-66717830D01*
X189233903Y-66503663D01*
X189295063Y-66275408D01*
X189315659Y-66040000D01*
X189295063Y-65804592D01*
X189233903Y-65576337D01*
X189134035Y-65362171D01*
X189128425Y-65354158D01*
X188998494Y-65168597D01*
X188831402Y-65001506D01*
X188831401Y-65001505D01*
X188708800Y-64915659D01*
X188645841Y-64871574D01*
X188602216Y-64816997D01*
X188595024Y-64747498D01*
X188626546Y-64685144D01*
X188645836Y-64668428D01*
X188831401Y-64538495D01*
X188998495Y-64371401D01*
X189134035Y-64177830D01*
X189233903Y-63963663D01*
X189295063Y-63735408D01*
X189315659Y-63500000D01*
X189295063Y-63264592D01*
X189233903Y-63036337D01*
X189134035Y-62822171D01*
X189128425Y-62814158D01*
X188998494Y-62628597D01*
X188831402Y-62461506D01*
X188831395Y-62461501D01*
X188637834Y-62325967D01*
X188637830Y-62325965D01*
X188637828Y-62325964D01*
X188423663Y-62226097D01*
X188423659Y-62226096D01*
X188423655Y-62226094D01*
X188195413Y-62164938D01*
X188195403Y-62164936D01*
X187960001Y-62144341D01*
X187959999Y-62144341D01*
X187724596Y-62164936D01*
X187724586Y-62164938D01*
X187496344Y-62226094D01*
X187496335Y-62226098D01*
X187282171Y-62325964D01*
X187282169Y-62325965D01*
X187088600Y-62461503D01*
X186966673Y-62583430D01*
X186905350Y-62616914D01*
X186835658Y-62611930D01*
X186779725Y-62570058D01*
X186762810Y-62539081D01*
X186713797Y-62407671D01*
X186713793Y-62407664D01*
X186627547Y-62292455D01*
X186627544Y-62292452D01*
X186512335Y-62206206D01*
X186512328Y-62206202D01*
X186377482Y-62155908D01*
X186377483Y-62155908D01*
X186317883Y-62149501D01*
X186317881Y-62149500D01*
X186317873Y-62149500D01*
X186317864Y-62149500D01*
X184522129Y-62149500D01*
X184522123Y-62149501D01*
X184462516Y-62155908D01*
X184327671Y-62206202D01*
X184327664Y-62206206D01*
X184212455Y-62292452D01*
X184212452Y-62292455D01*
X184126206Y-62407664D01*
X184126202Y-62407671D01*
X184075908Y-62542517D01*
X184069501Y-62602116D01*
X184069500Y-62602135D01*
X184069500Y-64397870D01*
X184069501Y-64397876D01*
X184075908Y-64457483D01*
X184126202Y-64592328D01*
X184126206Y-64592335D01*
X184212452Y-64707544D01*
X184212455Y-64707547D01*
X184327664Y-64793793D01*
X184327671Y-64793797D01*
X184459081Y-64842810D01*
X184515015Y-64884681D01*
X184539432Y-64950145D01*
X184524580Y-65018418D01*
X184503430Y-65046673D01*
X184381503Y-65168600D01*
X184245965Y-65362169D01*
X184245964Y-65362171D01*
X184146098Y-65576335D01*
X184146094Y-65576344D01*
X184084938Y-65804586D01*
X184084936Y-65804596D01*
X184064341Y-66039999D01*
X184064341Y-66040000D01*
X184084936Y-66275403D01*
X184084938Y-66275413D01*
X184146094Y-66503655D01*
X184146096Y-66503659D01*
X184146097Y-66503663D01*
X184196496Y-66611744D01*
X184245965Y-66717830D01*
X184245967Y-66717834D01*
X184303500Y-66799999D01*
X184381501Y-66911396D01*
X184381506Y-66911402D01*
X184548597Y-67078493D01*
X184548603Y-67078498D01*
X184734158Y-67208425D01*
X184777783Y-67263002D01*
X184784977Y-67332500D01*
X184753454Y-67394855D01*
X184734158Y-67411575D01*
X184548597Y-67541505D01*
X184381505Y-67708597D01*
X184245965Y-67902169D01*
X184245964Y-67902171D01*
X184146098Y-68116335D01*
X184146094Y-68116344D01*
X184084938Y-68344586D01*
X184084936Y-68344596D01*
X184064341Y-68579999D01*
X184064341Y-68580000D01*
X184084936Y-68815403D01*
X184084938Y-68815413D01*
X184146094Y-69043655D01*
X184146096Y-69043659D01*
X184146097Y-69043663D01*
X184231641Y-69227112D01*
X184245965Y-69257830D01*
X184245967Y-69257834D01*
X184322956Y-69367785D01*
X184381501Y-69451396D01*
X184381506Y-69451402D01*
X184548597Y-69618493D01*
X184548603Y-69618498D01*
X184734158Y-69748425D01*
X184777783Y-69803002D01*
X184784977Y-69872500D01*
X184753454Y-69934855D01*
X184734158Y-69951575D01*
X184548597Y-70081505D01*
X184381505Y-70248597D01*
X184245965Y-70442169D01*
X184245964Y-70442171D01*
X184146098Y-70656335D01*
X184146094Y-70656344D01*
X184084938Y-70884586D01*
X184084936Y-70884596D01*
X184064341Y-71119999D01*
X184064341Y-71120000D01*
X184084936Y-71355403D01*
X184084938Y-71355413D01*
X184146094Y-71583655D01*
X184146096Y-71583659D01*
X184146097Y-71583663D01*
X184175374Y-71646447D01*
X184245965Y-71797830D01*
X184245967Y-71797834D01*
X184354281Y-71952521D01*
X184381501Y-71991396D01*
X184381506Y-71991402D01*
X184548597Y-72158493D01*
X184548603Y-72158498D01*
X184734158Y-72288425D01*
X184777783Y-72343002D01*
X184784977Y-72412500D01*
X184753454Y-72474855D01*
X184734158Y-72491575D01*
X184548597Y-72621505D01*
X184381505Y-72788597D01*
X184245965Y-72982169D01*
X184245964Y-72982171D01*
X184146098Y-73196335D01*
X184146094Y-73196344D01*
X184084938Y-73424586D01*
X184084936Y-73424596D01*
X184064341Y-73659999D01*
X184064341Y-73660000D01*
X184084936Y-73895403D01*
X184084938Y-73895413D01*
X184146094Y-74123655D01*
X184146096Y-74123659D01*
X184146097Y-74123663D01*
X184202334Y-74244263D01*
X184245965Y-74337830D01*
X184245967Y-74337834D01*
X184353976Y-74492086D01*
X184381501Y-74531396D01*
X184381506Y-74531402D01*
X184548597Y-74698493D01*
X184548603Y-74698498D01*
X184734158Y-74828425D01*
X184777783Y-74883002D01*
X184784977Y-74952500D01*
X184753454Y-75014855D01*
X184734158Y-75031575D01*
X184548597Y-75161505D01*
X184381505Y-75328597D01*
X184245965Y-75522169D01*
X184245964Y-75522171D01*
X184146098Y-75736335D01*
X184146094Y-75736344D01*
X184084938Y-75964586D01*
X184084936Y-75964596D01*
X184064341Y-76199999D01*
X184064341Y-76200000D01*
X184084936Y-76435403D01*
X184084938Y-76435413D01*
X184146094Y-76663655D01*
X184146096Y-76663659D01*
X184146097Y-76663663D01*
X184150000Y-76672032D01*
X184245965Y-76877830D01*
X184245967Y-76877834D01*
X184354281Y-77032521D01*
X184381501Y-77071396D01*
X184381506Y-77071402D01*
X184548597Y-77238493D01*
X184548603Y-77238498D01*
X184734158Y-77368425D01*
X184777783Y-77423002D01*
X184784977Y-77492500D01*
X184753454Y-77554855D01*
X184734158Y-77571575D01*
X184548597Y-77701505D01*
X184381505Y-77868597D01*
X184245965Y-78062169D01*
X184245964Y-78062171D01*
X184146098Y-78276335D01*
X184146094Y-78276344D01*
X184084938Y-78504586D01*
X184084936Y-78504596D01*
X184064341Y-78739999D01*
X184064341Y-78740000D01*
X184084936Y-78975403D01*
X184084938Y-78975413D01*
X184146094Y-79203655D01*
X184146096Y-79203659D01*
X184146097Y-79203663D01*
X184150000Y-79212032D01*
X184245965Y-79417830D01*
X184245967Y-79417834D01*
X184354281Y-79572521D01*
X184381501Y-79611396D01*
X184381506Y-79611402D01*
X184548597Y-79778493D01*
X184548603Y-79778498D01*
X184734158Y-79908425D01*
X184777783Y-79963002D01*
X184784977Y-80032500D01*
X184753454Y-80094855D01*
X184734158Y-80111575D01*
X184548597Y-80241505D01*
X184381505Y-80408597D01*
X184245965Y-80602169D01*
X184245964Y-80602171D01*
X184146098Y-80816335D01*
X184146094Y-80816344D01*
X184084938Y-81044586D01*
X184084936Y-81044596D01*
X184064341Y-81279999D01*
X184064341Y-81280000D01*
X184084936Y-81515403D01*
X184084938Y-81515413D01*
X184146094Y-81743655D01*
X184146096Y-81743659D01*
X184146097Y-81743663D01*
X184226004Y-81915023D01*
X184245965Y-81957830D01*
X184245967Y-81957834D01*
X184354281Y-82112521D01*
X184381501Y-82151396D01*
X184381506Y-82151402D01*
X184548597Y-82318493D01*
X184548603Y-82318498D01*
X184734594Y-82448730D01*
X184778219Y-82503307D01*
X184785413Y-82572805D01*
X184753890Y-82635160D01*
X184734595Y-82651880D01*
X184548922Y-82781890D01*
X184548920Y-82781891D01*
X184381891Y-82948920D01*
X184381886Y-82948926D01*
X184246400Y-83142420D01*
X184246399Y-83142422D01*
X184146570Y-83356507D01*
X184146567Y-83356513D01*
X184089364Y-83569999D01*
X184089364Y-83570000D01*
X184986314Y-83570000D01*
X184960507Y-83610156D01*
X184920000Y-83748111D01*
X184920000Y-83891889D01*
X184960507Y-84029844D01*
X184986314Y-84070000D01*
X184089364Y-84070000D01*
X184146567Y-84283486D01*
X184146570Y-84283492D01*
X184246399Y-84497578D01*
X184381894Y-84691082D01*
X184548917Y-84858105D01*
X184734595Y-84988119D01*
X184778219Y-85042696D01*
X184785412Y-85112195D01*
X184753890Y-85174549D01*
X184734595Y-85191269D01*
X184548594Y-85321508D01*
X184381505Y-85488597D01*
X184245965Y-85682169D01*
X184245964Y-85682171D01*
X184146098Y-85896335D01*
X184146094Y-85896344D01*
X184084938Y-86124586D01*
X184084936Y-86124596D01*
X184064341Y-86359999D01*
X184064341Y-86360000D01*
X184084936Y-86595403D01*
X184084938Y-86595413D01*
X184146094Y-86823655D01*
X184146096Y-86823659D01*
X184146097Y-86823663D01*
X184226004Y-86995023D01*
X184245965Y-87037830D01*
X184245967Y-87037834D01*
X184354281Y-87192521D01*
X184381501Y-87231396D01*
X184381506Y-87231402D01*
X184548597Y-87398493D01*
X184548603Y-87398498D01*
X184734158Y-87528425D01*
X184777783Y-87583002D01*
X184784977Y-87652500D01*
X184753454Y-87714855D01*
X184734158Y-87731575D01*
X184548597Y-87861505D01*
X184381505Y-88028597D01*
X184245965Y-88222169D01*
X184245964Y-88222171D01*
X184146098Y-88436335D01*
X184146094Y-88436344D01*
X184084938Y-88664586D01*
X184084936Y-88664596D01*
X184064341Y-88899999D01*
X184064341Y-88900000D01*
X184084936Y-89135403D01*
X184084938Y-89135413D01*
X184146094Y-89363655D01*
X184146096Y-89363659D01*
X184146097Y-89363663D01*
X184150000Y-89372032D01*
X184245965Y-89577830D01*
X184245967Y-89577834D01*
X184354281Y-89732521D01*
X184381501Y-89771396D01*
X184381506Y-89771402D01*
X184548597Y-89938493D01*
X184548603Y-89938498D01*
X184734158Y-90068425D01*
X184777783Y-90123002D01*
X184784977Y-90192500D01*
X184753454Y-90254855D01*
X184734158Y-90271575D01*
X184548597Y-90401505D01*
X184381505Y-90568597D01*
X184245965Y-90762169D01*
X184245964Y-90762171D01*
X184146098Y-90976335D01*
X184146094Y-90976344D01*
X184084938Y-91204586D01*
X184084936Y-91204596D01*
X184064341Y-91439999D01*
X184064341Y-91440000D01*
X184084936Y-91675403D01*
X184084938Y-91675413D01*
X184146094Y-91903655D01*
X184146096Y-91903659D01*
X184146097Y-91903663D01*
X184185545Y-91988259D01*
X184245965Y-92117830D01*
X184245967Y-92117834D01*
X184281288Y-92168277D01*
X184381501Y-92311396D01*
X184381506Y-92311402D01*
X184548597Y-92478493D01*
X184548603Y-92478498D01*
X184734158Y-92608425D01*
X184777783Y-92663002D01*
X184784977Y-92732500D01*
X184753454Y-92794855D01*
X184734158Y-92811575D01*
X184548597Y-92941505D01*
X184381505Y-93108597D01*
X184245965Y-93302169D01*
X184245964Y-93302171D01*
X184146098Y-93516335D01*
X184146094Y-93516344D01*
X184084938Y-93744586D01*
X184084936Y-93744596D01*
X184064341Y-93979999D01*
X184064341Y-93980000D01*
X184084936Y-94215403D01*
X184084938Y-94215413D01*
X184146094Y-94443655D01*
X184146096Y-94443659D01*
X184146097Y-94443663D01*
X184150000Y-94452032D01*
X184245965Y-94657830D01*
X184245967Y-94657834D01*
X184354281Y-94812521D01*
X184381501Y-94851396D01*
X184381506Y-94851402D01*
X184548597Y-95018493D01*
X184548603Y-95018498D01*
X184734594Y-95148730D01*
X184778219Y-95203307D01*
X184785413Y-95272805D01*
X184753890Y-95335160D01*
X184734595Y-95351880D01*
X184548922Y-95481890D01*
X184548920Y-95481891D01*
X184381891Y-95648920D01*
X184381886Y-95648926D01*
X184246400Y-95842420D01*
X184246399Y-95842422D01*
X184146570Y-96056507D01*
X184146567Y-96056513D01*
X184089364Y-96269999D01*
X184089364Y-96270000D01*
X184986314Y-96270000D01*
X184960507Y-96310156D01*
X184920000Y-96448111D01*
X184920000Y-96591889D01*
X184960507Y-96729844D01*
X184986314Y-96770000D01*
X184089364Y-96770000D01*
X184146567Y-96983486D01*
X184146570Y-96983492D01*
X184246399Y-97197578D01*
X184381894Y-97391082D01*
X184548917Y-97558105D01*
X184734595Y-97688119D01*
X184778219Y-97742696D01*
X184785412Y-97812195D01*
X184753890Y-97874549D01*
X184734595Y-97891269D01*
X184548594Y-98021508D01*
X184381505Y-98188597D01*
X184245965Y-98382169D01*
X184245964Y-98382171D01*
X184146098Y-98596335D01*
X184146094Y-98596344D01*
X184084938Y-98824586D01*
X184084936Y-98824596D01*
X184064341Y-99059999D01*
X184064341Y-99060000D01*
X184084936Y-99295403D01*
X184084938Y-99295413D01*
X184146094Y-99523655D01*
X184146096Y-99523659D01*
X184146097Y-99523663D01*
X184150000Y-99532032D01*
X184245965Y-99737830D01*
X184245967Y-99737834D01*
X184354281Y-99892521D01*
X184381501Y-99931396D01*
X184381506Y-99931402D01*
X184548597Y-100098493D01*
X184548603Y-100098498D01*
X184734158Y-100228425D01*
X184777783Y-100283002D01*
X184784977Y-100352500D01*
X184753454Y-100414855D01*
X184734158Y-100431575D01*
X184548597Y-100561505D01*
X184381505Y-100728597D01*
X184245965Y-100922169D01*
X184245964Y-100922171D01*
X184146098Y-101136335D01*
X184146094Y-101136344D01*
X184084938Y-101364586D01*
X184084936Y-101364596D01*
X184064341Y-101599999D01*
X184064341Y-101600000D01*
X184084936Y-101835403D01*
X184084938Y-101835413D01*
X184146094Y-102063655D01*
X184146096Y-102063659D01*
X184146097Y-102063663D01*
X184150000Y-102072032D01*
X184245965Y-102277830D01*
X184245967Y-102277834D01*
X184354281Y-102432521D01*
X184381501Y-102471396D01*
X184381506Y-102471402D01*
X184548597Y-102638493D01*
X184548603Y-102638498D01*
X184734158Y-102768425D01*
X184777783Y-102823002D01*
X184784977Y-102892500D01*
X184753454Y-102954855D01*
X184734158Y-102971575D01*
X184548597Y-103101505D01*
X184381505Y-103268597D01*
X184245965Y-103462169D01*
X184245964Y-103462171D01*
X184146098Y-103676335D01*
X184146094Y-103676344D01*
X184084938Y-103904586D01*
X184084936Y-103904596D01*
X184064341Y-104139999D01*
X184064341Y-104140000D01*
X143595659Y-104140000D01*
X143575063Y-103904592D01*
X143513903Y-103676337D01*
X143414035Y-103462171D01*
X143408425Y-103454158D01*
X143278494Y-103268597D01*
X143111402Y-103101506D01*
X143111396Y-103101501D01*
X142925842Y-102971575D01*
X142882217Y-102916998D01*
X142875023Y-102847500D01*
X142906546Y-102785145D01*
X142925842Y-102768425D01*
X142948026Y-102752891D01*
X143111401Y-102638495D01*
X143278495Y-102471401D01*
X143414035Y-102277830D01*
X143513903Y-102063663D01*
X143575063Y-101835408D01*
X143595659Y-101600000D01*
X143575063Y-101364592D01*
X143513903Y-101136337D01*
X143414035Y-100922171D01*
X143408425Y-100914158D01*
X143278494Y-100728597D01*
X143111402Y-100561506D01*
X143111401Y-100561505D01*
X142925842Y-100431575D01*
X142925841Y-100431574D01*
X142882216Y-100376997D01*
X142875024Y-100307498D01*
X142906546Y-100245144D01*
X142925836Y-100228428D01*
X143111401Y-100098495D01*
X143278495Y-99931401D01*
X143414035Y-99737830D01*
X143513903Y-99523663D01*
X143575063Y-99295408D01*
X143595659Y-99060000D01*
X143575063Y-98824592D01*
X143513903Y-98596337D01*
X143414035Y-98382171D01*
X143408425Y-98374158D01*
X143278494Y-98188597D01*
X143111402Y-98021506D01*
X143111396Y-98021501D01*
X142925842Y-97891575D01*
X142882217Y-97836998D01*
X142875023Y-97767500D01*
X142906546Y-97705145D01*
X142925842Y-97688425D01*
X142948026Y-97672891D01*
X143111401Y-97558495D01*
X143278495Y-97391401D01*
X143414035Y-97197830D01*
X143513903Y-96983663D01*
X143575063Y-96755408D01*
X143595659Y-96520000D01*
X143575063Y-96284592D01*
X143513903Y-96056337D01*
X143414035Y-95842171D01*
X143408731Y-95834595D01*
X143278494Y-95648597D01*
X143111402Y-95481506D01*
X143111401Y-95481505D01*
X142989746Y-95396321D01*
X142925841Y-95351574D01*
X142882216Y-95296997D01*
X142875024Y-95227498D01*
X142906546Y-95165144D01*
X142925836Y-95148428D01*
X143111401Y-95018495D01*
X143278495Y-94851401D01*
X143414035Y-94657830D01*
X143513903Y-94443663D01*
X143575063Y-94215408D01*
X143595659Y-93980000D01*
X143575063Y-93744592D01*
X143513903Y-93516337D01*
X143414035Y-93302171D01*
X143408425Y-93294158D01*
X143278494Y-93108597D01*
X143111402Y-92941506D01*
X143111396Y-92941501D01*
X142925842Y-92811575D01*
X142882217Y-92756998D01*
X142875023Y-92687500D01*
X142906546Y-92625145D01*
X142925842Y-92608425D01*
X142960513Y-92584148D01*
X143111401Y-92478495D01*
X143278495Y-92311401D01*
X143414035Y-92117830D01*
X143513903Y-91903663D01*
X143541679Y-91800000D01*
X150394540Y-91800000D01*
X150414326Y-91988256D01*
X150414327Y-91988259D01*
X150472818Y-92168277D01*
X150472821Y-92168284D01*
X150567467Y-92332216D01*
X150694129Y-92472888D01*
X150847265Y-92584148D01*
X150847270Y-92584151D01*
X151020192Y-92661142D01*
X151020197Y-92661144D01*
X151205354Y-92700500D01*
X151205355Y-92700500D01*
X151394644Y-92700500D01*
X151394646Y-92700500D01*
X151579803Y-92661144D01*
X151752730Y-92584151D01*
X151905871Y-92472888D01*
X152032533Y-92332216D01*
X152127179Y-92168284D01*
X152185674Y-91988256D01*
X152203321Y-91820345D01*
X152229905Y-91755732D01*
X152238952Y-91745636D01*
X157083788Y-86900801D01*
X157096042Y-86890986D01*
X157095859Y-86890764D01*
X157101866Y-86885792D01*
X157101877Y-86885786D01*
X157132775Y-86852882D01*
X157149227Y-86835364D01*
X157159671Y-86824918D01*
X157170120Y-86814471D01*
X157174379Y-86808978D01*
X157178152Y-86804561D01*
X157210062Y-86770582D01*
X157219713Y-86753024D01*
X157230396Y-86736761D01*
X157242673Y-86720936D01*
X157261185Y-86678153D01*
X157263738Y-86672941D01*
X157286197Y-86632092D01*
X157291180Y-86612680D01*
X157297481Y-86594280D01*
X157305437Y-86575896D01*
X157312729Y-86529852D01*
X157313906Y-86524171D01*
X157325500Y-86479019D01*
X157325500Y-86458982D01*
X157327027Y-86439582D01*
X157330160Y-86419804D01*
X157325775Y-86373415D01*
X157325500Y-86367577D01*
X157325500Y-74810452D01*
X157345185Y-74743413D01*
X157361819Y-74722771D01*
X157616806Y-74467784D01*
X157962821Y-74121768D01*
X158024142Y-74088285D01*
X158093833Y-74093269D01*
X158149767Y-74135140D01*
X158174184Y-74200605D01*
X158174500Y-74209451D01*
X158174500Y-85301312D01*
X158154815Y-85368351D01*
X158142650Y-85384284D01*
X158067466Y-85467784D01*
X157972821Y-85631715D01*
X157972818Y-85631722D01*
X157942518Y-85724977D01*
X157914326Y-85811744D01*
X157894540Y-86000000D01*
X157914326Y-86188256D01*
X157914327Y-86188259D01*
X157972818Y-86368277D01*
X157972821Y-86368284D01*
X158067467Y-86532216D01*
X158157394Y-86632090D01*
X158194129Y-86672888D01*
X158347265Y-86784148D01*
X158347270Y-86784151D01*
X158520192Y-86861142D01*
X158520197Y-86861144D01*
X158705354Y-86900500D01*
X158705355Y-86900500D01*
X158894644Y-86900500D01*
X158894646Y-86900500D01*
X159079803Y-86861144D01*
X159252730Y-86784151D01*
X159405871Y-86672888D01*
X159532533Y-86532216D01*
X159627179Y-86368284D01*
X159629871Y-86360000D01*
X176469341Y-86360000D01*
X176489936Y-86595403D01*
X176489938Y-86595413D01*
X176551094Y-86823655D01*
X176551096Y-86823659D01*
X176551097Y-86823663D01*
X176631004Y-86995023D01*
X176650965Y-87037830D01*
X176650967Y-87037834D01*
X176759281Y-87192521D01*
X176786505Y-87231401D01*
X176953599Y-87398495D01*
X177050384Y-87466264D01*
X177147165Y-87534032D01*
X177147167Y-87534033D01*
X177147170Y-87534035D01*
X177361337Y-87633903D01*
X177589592Y-87695063D01*
X177777918Y-87711539D01*
X177824999Y-87715659D01*
X177825000Y-87715659D01*
X177825001Y-87715659D01*
X177864234Y-87712226D01*
X178060408Y-87695063D01*
X178288663Y-87633903D01*
X178502830Y-87534035D01*
X178696401Y-87398495D01*
X178863495Y-87231401D01*
X178999035Y-87037830D01*
X179098903Y-86823663D01*
X179160063Y-86595408D01*
X179180659Y-86360000D01*
X179160063Y-86124592D01*
X179098903Y-85896337D01*
X178999035Y-85682171D01*
X178993425Y-85674158D01*
X178863494Y-85488597D01*
X178696402Y-85321506D01*
X178696401Y-85321505D01*
X178510842Y-85191575D01*
X178510841Y-85191574D01*
X178467216Y-85136997D01*
X178460024Y-85067498D01*
X178491546Y-85005144D01*
X178510836Y-84988428D01*
X178696401Y-84858495D01*
X178863495Y-84691401D01*
X178999035Y-84497830D01*
X179098903Y-84283663D01*
X179160063Y-84055408D01*
X179180659Y-83820000D01*
X179160063Y-83584592D01*
X179098903Y-83356337D01*
X178999035Y-83142171D01*
X178993731Y-83134595D01*
X178863494Y-82948597D01*
X178696402Y-82781506D01*
X178696396Y-82781501D01*
X178510842Y-82651575D01*
X178467217Y-82596998D01*
X178460023Y-82527500D01*
X178491546Y-82465145D01*
X178510842Y-82448425D01*
X178533026Y-82432891D01*
X178696401Y-82318495D01*
X178863495Y-82151401D01*
X178999035Y-81957830D01*
X179098903Y-81743663D01*
X179160063Y-81515408D01*
X179180659Y-81280000D01*
X179160063Y-81044592D01*
X179098903Y-80816337D01*
X178999035Y-80602171D01*
X178993730Y-80594595D01*
X178863496Y-80408600D01*
X178863493Y-80408597D01*
X178741567Y-80286671D01*
X178708084Y-80225351D01*
X178713068Y-80155659D01*
X178754939Y-80099725D01*
X178785915Y-80082810D01*
X178917331Y-80033796D01*
X179032546Y-79947546D01*
X179118796Y-79832331D01*
X179169091Y-79697483D01*
X179175500Y-79637873D01*
X179175499Y-77842128D01*
X179169091Y-77782517D01*
X179118796Y-77647669D01*
X179118795Y-77647668D01*
X179118793Y-77647664D01*
X179032547Y-77532455D01*
X179032544Y-77532452D01*
X178917335Y-77446206D01*
X178917328Y-77446202D01*
X178782482Y-77395908D01*
X178782483Y-77395908D01*
X178722883Y-77389501D01*
X178722881Y-77389500D01*
X178722873Y-77389500D01*
X178722864Y-77389500D01*
X176927129Y-77389500D01*
X176927123Y-77389501D01*
X176867516Y-77395908D01*
X176732671Y-77446202D01*
X176732664Y-77446206D01*
X176617455Y-77532452D01*
X176617452Y-77532455D01*
X176531206Y-77647664D01*
X176531202Y-77647671D01*
X176480908Y-77782517D01*
X176474501Y-77842116D01*
X176474501Y-77842123D01*
X176474500Y-77842135D01*
X176474500Y-79637870D01*
X176474501Y-79637876D01*
X176480908Y-79697483D01*
X176531202Y-79832328D01*
X176531206Y-79832335D01*
X176617452Y-79947544D01*
X176617455Y-79947547D01*
X176732664Y-80033793D01*
X176732671Y-80033797D01*
X176864081Y-80082810D01*
X176920015Y-80124681D01*
X176944432Y-80190145D01*
X176929580Y-80258418D01*
X176908430Y-80286673D01*
X176786503Y-80408600D01*
X176650965Y-80602169D01*
X176650964Y-80602171D01*
X176551098Y-80816335D01*
X176551094Y-80816344D01*
X176489938Y-81044586D01*
X176489936Y-81044596D01*
X176469341Y-81279999D01*
X176469341Y-81280000D01*
X176489936Y-81515403D01*
X176489938Y-81515413D01*
X176551094Y-81743655D01*
X176551096Y-81743659D01*
X176551097Y-81743663D01*
X176631004Y-81915023D01*
X176650965Y-81957830D01*
X176650967Y-81957834D01*
X176759281Y-82112521D01*
X176786501Y-82151396D01*
X176786506Y-82151402D01*
X176953597Y-82318493D01*
X176953603Y-82318498D01*
X177139158Y-82448425D01*
X177182783Y-82503002D01*
X177189977Y-82572500D01*
X177158454Y-82634855D01*
X177139158Y-82651575D01*
X176953597Y-82781505D01*
X176786505Y-82948597D01*
X176650965Y-83142169D01*
X176650964Y-83142171D01*
X176551098Y-83356335D01*
X176551094Y-83356344D01*
X176489938Y-83584586D01*
X176489936Y-83584596D01*
X176469341Y-83819999D01*
X176469341Y-83820000D01*
X176489936Y-84055403D01*
X176489938Y-84055413D01*
X176551094Y-84283655D01*
X176551096Y-84283659D01*
X176551097Y-84283663D01*
X176570494Y-84325259D01*
X176650965Y-84497830D01*
X176650967Y-84497834D01*
X176743420Y-84629870D01*
X176786504Y-84691400D01*
X176786506Y-84691402D01*
X176953597Y-84858493D01*
X176953603Y-84858498D01*
X177139158Y-84988425D01*
X177182783Y-85043002D01*
X177189977Y-85112500D01*
X177158454Y-85174855D01*
X177139158Y-85191575D01*
X176953597Y-85321505D01*
X176786505Y-85488597D01*
X176650965Y-85682169D01*
X176650964Y-85682171D01*
X176551098Y-85896335D01*
X176551094Y-85896344D01*
X176489938Y-86124586D01*
X176489936Y-86124596D01*
X176469341Y-86359999D01*
X176469341Y-86360000D01*
X159629871Y-86360000D01*
X159685674Y-86188256D01*
X159705460Y-86000000D01*
X159685674Y-85811744D01*
X159627179Y-85631716D01*
X159532533Y-85467784D01*
X159457350Y-85384284D01*
X159427120Y-85321292D01*
X159425500Y-85301312D01*
X159425500Y-74000000D01*
X163245254Y-74000000D01*
X163249610Y-74038656D01*
X163250000Y-74045604D01*
X163250000Y-74297844D01*
X163256401Y-74357372D01*
X163256403Y-74357379D01*
X163306645Y-74492086D01*
X163306649Y-74492093D01*
X163392809Y-74607187D01*
X163392812Y-74607190D01*
X163507906Y-74693350D01*
X163507913Y-74693354D01*
X163642620Y-74743596D01*
X163642627Y-74743598D01*
X163702155Y-74749999D01*
X163702172Y-74750000D01*
X163954395Y-74750000D01*
X163961343Y-74750390D01*
X163999998Y-74754746D01*
X164000002Y-74754746D01*
X164038657Y-74750390D01*
X164045605Y-74750000D01*
X164750000Y-74750000D01*
X165250000Y-74750000D01*
X165954395Y-74750000D01*
X165961343Y-74750390D01*
X165999998Y-74754746D01*
X166000002Y-74754746D01*
X166038657Y-74750390D01*
X166045605Y-74750000D01*
X166297828Y-74750000D01*
X166297844Y-74749999D01*
X166357372Y-74743598D01*
X166357379Y-74743596D01*
X166492086Y-74693354D01*
X166492093Y-74693350D01*
X166607187Y-74607190D01*
X166607190Y-74607187D01*
X166693350Y-74492093D01*
X166693354Y-74492086D01*
X166743596Y-74357379D01*
X166743598Y-74357372D01*
X166749999Y-74297844D01*
X166750000Y-74297827D01*
X166750000Y-74045604D01*
X166750390Y-74038656D01*
X166754746Y-74000000D01*
X166754746Y-73999999D01*
X166750390Y-73961343D01*
X166750000Y-73954395D01*
X166750000Y-73250000D01*
X166603552Y-73250000D01*
X166647708Y-73294156D01*
X166681193Y-73355479D01*
X166676209Y-73425171D01*
X166647709Y-73469518D01*
X166617228Y-73499999D01*
X166647709Y-73530480D01*
X166681194Y-73591803D01*
X166676210Y-73661495D01*
X166647709Y-73705843D01*
X166000000Y-74353553D01*
X165705843Y-74647709D01*
X165644520Y-74681194D01*
X165574828Y-74676210D01*
X165530480Y-74647709D01*
X165499999Y-74617228D01*
X165469518Y-74647709D01*
X165408194Y-74681193D01*
X165338503Y-74676208D01*
X165294155Y-74647708D01*
X165250000Y-74603553D01*
X165250000Y-74750000D01*
X164750000Y-74750000D01*
X164750000Y-74603553D01*
X164749999Y-74603552D01*
X164705843Y-74647709D01*
X164644520Y-74681193D01*
X164574828Y-74676209D01*
X164530481Y-74647708D01*
X164500001Y-74617228D01*
X164499999Y-74617228D01*
X164469518Y-74647709D01*
X164408195Y-74681194D01*
X164338503Y-74676210D01*
X164294156Y-74647709D01*
X163646447Y-74000000D01*
X163844709Y-74000000D01*
X163865514Y-74077645D01*
X163922355Y-74134486D01*
X163980254Y-74150000D01*
X164019746Y-74150000D01*
X164077645Y-74134486D01*
X164134486Y-74077646D01*
X164155291Y-74000000D01*
X164353553Y-74000000D01*
X164500000Y-74146447D01*
X164646447Y-74000000D01*
X164844709Y-74000000D01*
X164865514Y-74077645D01*
X164922355Y-74134486D01*
X164980254Y-74150000D01*
X165019746Y-74150000D01*
X165077645Y-74134486D01*
X165134486Y-74077646D01*
X165155291Y-74000000D01*
X165353553Y-74000000D01*
X165499999Y-74146447D01*
X165646446Y-74000000D01*
X165844709Y-74000000D01*
X165865514Y-74077645D01*
X165922355Y-74134486D01*
X165980254Y-74150000D01*
X166019746Y-74150000D01*
X166077645Y-74134486D01*
X166134486Y-74077646D01*
X166155291Y-74000000D01*
X166134486Y-73922355D01*
X166077645Y-73865514D01*
X166019746Y-73850000D01*
X165980254Y-73850000D01*
X165922355Y-73865514D01*
X165865514Y-73922354D01*
X165844709Y-74000000D01*
X165646446Y-74000000D01*
X165646447Y-73999999D01*
X165500000Y-73853553D01*
X165353553Y-73999999D01*
X165353553Y-74000000D01*
X165155291Y-74000000D01*
X165134486Y-73922355D01*
X165077645Y-73865514D01*
X165019746Y-73850000D01*
X164980254Y-73850000D01*
X164922355Y-73865514D01*
X164865514Y-73922354D01*
X164844709Y-74000000D01*
X164646447Y-74000000D01*
X164500000Y-73853552D01*
X164353553Y-74000000D01*
X164155291Y-74000000D01*
X164134486Y-73922355D01*
X164077645Y-73865514D01*
X164019746Y-73850000D01*
X163980254Y-73850000D01*
X163922355Y-73865514D01*
X163865514Y-73922354D01*
X163844709Y-74000000D01*
X163646447Y-74000000D01*
X163352289Y-73705842D01*
X163318804Y-73644519D01*
X163323788Y-73574827D01*
X163352289Y-73530479D01*
X163382768Y-73500000D01*
X163853553Y-73500000D01*
X164000000Y-73646447D01*
X164146447Y-73500000D01*
X165853553Y-73500000D01*
X166000000Y-73646447D01*
X166146447Y-73500000D01*
X166000000Y-73353553D01*
X165853553Y-73499999D01*
X165853553Y-73500000D01*
X164146447Y-73500000D01*
X164000000Y-73353553D01*
X163853553Y-73500000D01*
X163382768Y-73500000D01*
X163382771Y-73499997D01*
X163352291Y-73469518D01*
X163318806Y-73408195D01*
X163323790Y-73338503D01*
X163352291Y-73294155D01*
X163396446Y-73250000D01*
X163250000Y-73250000D01*
X163250000Y-73954395D01*
X163249610Y-73961343D01*
X163245254Y-73999999D01*
X163245254Y-74000000D01*
X159425500Y-74000000D01*
X159425500Y-73760452D01*
X159445185Y-73693413D01*
X159461819Y-73672771D01*
X160134590Y-73000000D01*
X163844709Y-73000000D01*
X163865514Y-73077645D01*
X163922355Y-73134486D01*
X163980254Y-73150000D01*
X164019746Y-73150000D01*
X164077645Y-73134486D01*
X164134486Y-73077646D01*
X164155291Y-73000000D01*
X164844709Y-73000000D01*
X164865514Y-73077645D01*
X164922355Y-73134486D01*
X164980254Y-73150000D01*
X165019746Y-73150000D01*
X165077645Y-73134486D01*
X165134486Y-73077646D01*
X165155291Y-73000000D01*
X165844709Y-73000000D01*
X165865514Y-73077645D01*
X165922355Y-73134486D01*
X165980254Y-73150000D01*
X166019746Y-73150000D01*
X166077645Y-73134486D01*
X166134486Y-73077646D01*
X166155291Y-73000000D01*
X166134486Y-72922355D01*
X166077645Y-72865514D01*
X166019746Y-72850000D01*
X165980254Y-72850000D01*
X165922355Y-72865514D01*
X165865514Y-72922354D01*
X165844709Y-73000000D01*
X165155291Y-73000000D01*
X165134486Y-72922355D01*
X165077645Y-72865514D01*
X165019746Y-72850000D01*
X164980254Y-72850000D01*
X164922355Y-72865514D01*
X164865514Y-72922354D01*
X164844709Y-73000000D01*
X164155291Y-73000000D01*
X164134486Y-72922355D01*
X164077645Y-72865514D01*
X164019746Y-72850000D01*
X163980254Y-72850000D01*
X163922355Y-72865514D01*
X163865514Y-72922354D01*
X163844709Y-73000000D01*
X160134590Y-73000000D01*
X160947772Y-72186819D01*
X161009095Y-72153334D01*
X161035453Y-72150500D01*
X161094644Y-72150500D01*
X161094646Y-72150500D01*
X161279803Y-72111144D01*
X161452730Y-72034151D01*
X161499735Y-72000000D01*
X163245254Y-72000000D01*
X163249610Y-72038656D01*
X163250000Y-72045604D01*
X163250000Y-72750000D01*
X163396447Y-72750000D01*
X163396447Y-72749999D01*
X163352290Y-72705842D01*
X163318805Y-72644519D01*
X163323789Y-72574827D01*
X163352290Y-72530479D01*
X163382770Y-72499999D01*
X163853553Y-72499999D01*
X164000000Y-72646446D01*
X164146446Y-72500000D01*
X165853552Y-72500000D01*
X166000000Y-72646447D01*
X166146447Y-72500000D01*
X166146447Y-72499999D01*
X166000001Y-72353553D01*
X165853552Y-72500000D01*
X164146446Y-72500000D01*
X164000000Y-72353553D01*
X163853553Y-72499999D01*
X163382770Y-72499999D01*
X163352290Y-72469519D01*
X163318805Y-72408196D01*
X163323789Y-72338504D01*
X163352290Y-72294157D01*
X163646447Y-72000000D01*
X163844709Y-72000000D01*
X163865514Y-72077645D01*
X163922355Y-72134486D01*
X163980254Y-72150000D01*
X164019746Y-72150000D01*
X164077645Y-72134486D01*
X164134486Y-72077646D01*
X164155291Y-72000000D01*
X164155291Y-71999999D01*
X164353553Y-71999999D01*
X164499999Y-72146446D01*
X164646446Y-72000000D01*
X164844709Y-72000000D01*
X164865514Y-72077645D01*
X164922355Y-72134486D01*
X164980254Y-72150000D01*
X165019746Y-72150000D01*
X165077645Y-72134486D01*
X165134486Y-72077646D01*
X165155291Y-72000000D01*
X165353553Y-72000000D01*
X165499999Y-72146447D01*
X165646447Y-72000000D01*
X165844709Y-72000000D01*
X165865514Y-72077645D01*
X165922355Y-72134486D01*
X165980254Y-72150000D01*
X166019746Y-72150000D01*
X166077645Y-72134486D01*
X166134486Y-72077646D01*
X166155291Y-72000000D01*
X166134486Y-71922355D01*
X166077645Y-71865514D01*
X166019746Y-71850000D01*
X165980254Y-71850000D01*
X165922355Y-71865514D01*
X165865514Y-71922354D01*
X165844709Y-72000000D01*
X165646447Y-72000000D01*
X165500000Y-71853553D01*
X165353553Y-72000000D01*
X165155291Y-72000000D01*
X165134486Y-71922355D01*
X165077645Y-71865514D01*
X165019746Y-71850000D01*
X164980254Y-71850000D01*
X164922355Y-71865514D01*
X164865514Y-71922354D01*
X164844709Y-72000000D01*
X164646446Y-72000000D01*
X164646447Y-71999999D01*
X164500001Y-71853553D01*
X164353553Y-71999999D01*
X164155291Y-71999999D01*
X164134486Y-71922355D01*
X164077645Y-71865514D01*
X164019746Y-71850000D01*
X163980254Y-71850000D01*
X163922355Y-71865514D01*
X163865514Y-71922354D01*
X163844709Y-72000000D01*
X163646447Y-72000000D01*
X164000000Y-71646447D01*
X164294157Y-71352289D01*
X164355480Y-71318804D01*
X164425171Y-71323788D01*
X164469520Y-71352289D01*
X164499999Y-71382769D01*
X164530479Y-71352290D01*
X164591802Y-71318805D01*
X164661494Y-71323789D01*
X164705842Y-71352290D01*
X164749999Y-71396447D01*
X164750000Y-71396446D01*
X164750000Y-71396445D01*
X165250000Y-71396445D01*
X165294155Y-71352291D01*
X165355478Y-71318806D01*
X165425170Y-71323790D01*
X165469518Y-71352291D01*
X165499997Y-71382770D01*
X165530479Y-71352289D01*
X165591802Y-71318804D01*
X165661494Y-71323788D01*
X165705842Y-71352289D01*
X166647709Y-72294156D01*
X166681194Y-72355479D01*
X166676210Y-72425171D01*
X166647709Y-72469518D01*
X166617228Y-72499999D01*
X166617228Y-72500001D01*
X166647708Y-72530481D01*
X166681193Y-72591804D01*
X166676209Y-72661496D01*
X166647709Y-72705843D01*
X166603552Y-72749999D01*
X166603553Y-72750000D01*
X166750000Y-72750000D01*
X166750000Y-72045604D01*
X166750390Y-72038656D01*
X166754746Y-72000000D01*
X166754746Y-71999999D01*
X166750390Y-71961343D01*
X166750000Y-71954395D01*
X166750000Y-71702172D01*
X166749999Y-71702155D01*
X166743598Y-71642627D01*
X166743596Y-71642620D01*
X166693354Y-71507913D01*
X166693350Y-71507906D01*
X166607190Y-71392812D01*
X166607187Y-71392809D01*
X166492093Y-71306649D01*
X166492086Y-71306645D01*
X166357379Y-71256403D01*
X166357372Y-71256401D01*
X166297844Y-71250000D01*
X166045605Y-71250000D01*
X166038657Y-71249610D01*
X166000002Y-71245254D01*
X165999998Y-71245254D01*
X165961343Y-71249610D01*
X165954395Y-71250000D01*
X165250000Y-71250000D01*
X165250000Y-71396445D01*
X164750000Y-71396445D01*
X164750000Y-71250000D01*
X164045605Y-71250000D01*
X164038657Y-71249610D01*
X164000002Y-71245254D01*
X163999998Y-71245254D01*
X163961343Y-71249610D01*
X163954395Y-71250000D01*
X163702155Y-71250000D01*
X163642627Y-71256401D01*
X163642620Y-71256403D01*
X163507913Y-71306645D01*
X163507906Y-71306649D01*
X163392812Y-71392809D01*
X163392809Y-71392812D01*
X163306649Y-71507906D01*
X163306645Y-71507913D01*
X163256403Y-71642620D01*
X163256401Y-71642627D01*
X163250000Y-71702155D01*
X163250000Y-71954395D01*
X163249610Y-71961343D01*
X163245254Y-71999999D01*
X163245254Y-72000000D01*
X161499735Y-72000000D01*
X161605871Y-71922888D01*
X161732533Y-71782216D01*
X161827179Y-71618284D01*
X161885674Y-71438256D01*
X161905460Y-71250000D01*
X161885674Y-71061744D01*
X161828115Y-70884596D01*
X161827181Y-70881722D01*
X161827180Y-70881721D01*
X161827179Y-70881716D01*
X161780645Y-70801117D01*
X161764173Y-70733219D01*
X161787026Y-70667192D01*
X161815145Y-70638804D01*
X161905871Y-70572888D01*
X162032533Y-70432216D01*
X162127179Y-70268284D01*
X162185674Y-70088256D01*
X162205460Y-69900000D01*
X162185674Y-69711744D01*
X162127179Y-69531716D01*
X162032533Y-69367784D01*
X161905871Y-69227112D01*
X161889232Y-69215023D01*
X161752734Y-69115851D01*
X161752729Y-69115848D01*
X161579807Y-69038857D01*
X161579802Y-69038855D01*
X161434000Y-69007865D01*
X161394646Y-68999500D01*
X161205354Y-68999500D01*
X161172897Y-69006398D01*
X161020197Y-69038855D01*
X161020192Y-69038857D01*
X160847270Y-69115848D01*
X160847265Y-69115851D01*
X160694129Y-69227111D01*
X160567466Y-69367785D01*
X160472821Y-69531715D01*
X160472818Y-69531722D01*
X160416731Y-69704341D01*
X160414326Y-69711744D01*
X160402296Y-69826203D01*
X160396679Y-69879649D01*
X160370094Y-69944263D01*
X160361039Y-69954368D01*
X156562132Y-73753275D01*
X156500809Y-73786760D01*
X156431117Y-73781776D01*
X156375184Y-73739904D01*
X156367068Y-73727601D01*
X156332533Y-73667784D01*
X156205871Y-73527112D01*
X156205870Y-73527111D01*
X156052734Y-73415851D01*
X156052729Y-73415848D01*
X155879807Y-73338857D01*
X155879802Y-73338855D01*
X155734001Y-73307865D01*
X155694646Y-73299500D01*
X155505354Y-73299500D01*
X155472897Y-73306398D01*
X155320197Y-73338855D01*
X155320192Y-73338857D01*
X155147270Y-73415848D01*
X155147265Y-73415851D01*
X154994129Y-73527111D01*
X154867466Y-73667785D01*
X154772821Y-73831715D01*
X154772818Y-73831722D01*
X154730702Y-73961343D01*
X154714326Y-74011744D01*
X154700966Y-74138857D01*
X154696679Y-74179649D01*
X154670094Y-74244263D01*
X154661039Y-74254368D01*
X154016208Y-74899199D01*
X154003951Y-74909020D01*
X154004134Y-74909241D01*
X153998123Y-74914213D01*
X153950772Y-74964636D01*
X153929889Y-74985519D01*
X153929877Y-74985532D01*
X153925621Y-74991017D01*
X153921837Y-74995447D01*
X153889937Y-75029418D01*
X153889936Y-75029420D01*
X153880284Y-75046976D01*
X153869610Y-75063226D01*
X153857329Y-75079061D01*
X153857324Y-75079068D01*
X153838815Y-75121838D01*
X153836245Y-75127084D01*
X153813803Y-75167906D01*
X153808822Y-75187307D01*
X153802521Y-75205710D01*
X153794562Y-75224102D01*
X153794561Y-75224105D01*
X153787271Y-75270127D01*
X153786087Y-75275846D01*
X153774501Y-75320972D01*
X153774500Y-75320982D01*
X153774500Y-75341016D01*
X153772973Y-75360415D01*
X153769840Y-75380194D01*
X153769840Y-75380195D01*
X153774225Y-75426583D01*
X153774500Y-75432421D01*
X153774500Y-83334175D01*
X153754815Y-83401214D01*
X153742651Y-83417146D01*
X153735789Y-83424767D01*
X153641144Y-83588697D01*
X153641141Y-83588704D01*
X153589347Y-83748111D01*
X153582649Y-83768726D01*
X153562863Y-83956982D01*
X153582649Y-84145238D01*
X153582650Y-84145241D01*
X153641141Y-84325259D01*
X153641144Y-84325266D01*
X153735790Y-84489198D01*
X153862452Y-84629869D01*
X153862452Y-84629870D01*
X154015588Y-84741130D01*
X154015593Y-84741133D01*
X154188515Y-84818124D01*
X154188520Y-84818126D01*
X154373677Y-84857482D01*
X154373678Y-84857482D01*
X154562967Y-84857482D01*
X154562969Y-84857482D01*
X154748126Y-84818126D01*
X154921053Y-84741133D01*
X155074194Y-84629870D01*
X155200856Y-84489198D01*
X155295502Y-84325266D01*
X155353997Y-84145238D01*
X155373783Y-83956982D01*
X155353997Y-83768726D01*
X155295502Y-83588698D01*
X155200856Y-83424766D01*
X155074194Y-83284094D01*
X155069365Y-83279746D01*
X155070730Y-83278229D01*
X155033941Y-83230501D01*
X155025500Y-83185534D01*
X155025500Y-75710452D01*
X155045185Y-75643413D01*
X155061819Y-75622771D01*
X155547772Y-75136819D01*
X155609095Y-75103334D01*
X155635453Y-75100500D01*
X155694644Y-75100500D01*
X155694646Y-75100500D01*
X155879803Y-75061144D01*
X155900062Y-75052123D01*
X155969311Y-75042837D01*
X156032589Y-75072464D01*
X156069803Y-75131598D01*
X156074500Y-75165402D01*
X156074500Y-86089546D01*
X156054815Y-86156585D01*
X156038181Y-86177227D01*
X151352228Y-90863181D01*
X151290905Y-90896666D01*
X151264547Y-90899500D01*
X151205354Y-90899500D01*
X151172897Y-90906398D01*
X151020197Y-90938855D01*
X151020192Y-90938857D01*
X150847270Y-91015848D01*
X150847265Y-91015851D01*
X150694129Y-91127111D01*
X150567466Y-91267785D01*
X150472821Y-91431715D01*
X150472818Y-91431722D01*
X150414327Y-91611740D01*
X150414326Y-91611744D01*
X150394540Y-91800000D01*
X143541679Y-91800000D01*
X143575063Y-91675408D01*
X143595659Y-91440000D01*
X143575063Y-91204592D01*
X143513903Y-90976337D01*
X143414035Y-90762171D01*
X143408425Y-90754158D01*
X143278494Y-90568597D01*
X143111402Y-90401506D01*
X143111401Y-90401505D01*
X142925842Y-90271575D01*
X142925841Y-90271574D01*
X142882216Y-90216997D01*
X142875024Y-90147498D01*
X142906546Y-90085144D01*
X142925836Y-90068428D01*
X143111401Y-89938495D01*
X143278495Y-89771401D01*
X143414035Y-89577830D01*
X143513903Y-89363663D01*
X143575063Y-89135408D01*
X143595659Y-88900000D01*
X143575063Y-88664592D01*
X143513903Y-88436337D01*
X143414035Y-88222171D01*
X143408425Y-88214158D01*
X143278494Y-88028597D01*
X143111402Y-87861506D01*
X143111396Y-87861501D01*
X142925842Y-87731575D01*
X142882217Y-87676998D01*
X142875023Y-87607500D01*
X142906546Y-87545145D01*
X142925842Y-87528425D01*
X142948026Y-87512891D01*
X143111401Y-87398495D01*
X143278495Y-87231401D01*
X143414035Y-87037830D01*
X143513903Y-86823663D01*
X143575063Y-86595408D01*
X143595659Y-86360000D01*
X143575063Y-86124592D01*
X143513903Y-85896337D01*
X143414035Y-85682171D01*
X143408425Y-85674158D01*
X143278494Y-85488597D01*
X143111402Y-85321506D01*
X143111401Y-85321505D01*
X142925842Y-85191575D01*
X142925841Y-85191574D01*
X142882216Y-85136997D01*
X142875024Y-85067498D01*
X142906546Y-85005144D01*
X142925836Y-84988428D01*
X143111401Y-84858495D01*
X143278495Y-84691401D01*
X143414035Y-84497830D01*
X143513903Y-84283663D01*
X143575063Y-84055408D01*
X143595659Y-83820000D01*
X143575063Y-83584592D01*
X143513903Y-83356337D01*
X143414035Y-83142171D01*
X143408731Y-83134595D01*
X143278494Y-82948597D01*
X143111402Y-82781506D01*
X143111401Y-82781505D01*
X142943844Y-82664180D01*
X142925405Y-82651269D01*
X142881781Y-82596692D01*
X142874588Y-82527193D01*
X142906110Y-82464839D01*
X142925405Y-82448119D01*
X143111082Y-82318105D01*
X143278105Y-82151082D01*
X143413600Y-81957578D01*
X143513429Y-81743492D01*
X143513432Y-81743486D01*
X143570636Y-81530000D01*
X142673686Y-81530000D01*
X142699493Y-81489844D01*
X142740000Y-81351889D01*
X142740000Y-81208111D01*
X142699493Y-81070156D01*
X142673686Y-81030000D01*
X143570636Y-81030000D01*
X143570635Y-81029999D01*
X143513432Y-80816513D01*
X143513429Y-80816507D01*
X143413600Y-80602422D01*
X143413599Y-80602420D01*
X143278113Y-80408926D01*
X143278108Y-80408920D01*
X143111078Y-80241890D01*
X142925405Y-80111879D01*
X142881780Y-80057302D01*
X142874588Y-79987804D01*
X142906110Y-79925449D01*
X142925406Y-79908730D01*
X142925843Y-79908424D01*
X143111401Y-79778495D01*
X143278495Y-79611401D01*
X143414035Y-79417830D01*
X143513903Y-79203663D01*
X143575063Y-78975408D01*
X143595659Y-78740000D01*
X143575063Y-78504592D01*
X143513903Y-78276337D01*
X143414035Y-78062171D01*
X143408425Y-78054158D01*
X143278494Y-77868597D01*
X143111402Y-77701506D01*
X143111396Y-77701501D01*
X142925842Y-77571575D01*
X142882217Y-77516998D01*
X142875023Y-77447500D01*
X142906546Y-77385145D01*
X142925842Y-77368425D01*
X142948026Y-77352891D01*
X143111401Y-77238495D01*
X143278495Y-77071401D01*
X143414035Y-76877830D01*
X143513903Y-76663663D01*
X143575063Y-76435408D01*
X143595659Y-76200000D01*
X143575063Y-75964592D01*
X143513903Y-75736337D01*
X143414035Y-75522171D01*
X143408425Y-75514158D01*
X143278494Y-75328597D01*
X143111402Y-75161506D01*
X143111401Y-75161505D01*
X142968071Y-75061144D01*
X142925841Y-75031574D01*
X142882216Y-74976997D01*
X142875024Y-74907498D01*
X142906546Y-74845144D01*
X142925836Y-74828428D01*
X143111401Y-74698495D01*
X143278495Y-74531401D01*
X143414035Y-74337830D01*
X143513903Y-74123663D01*
X143575063Y-73895408D01*
X143595659Y-73660000D01*
X143575063Y-73424592D01*
X143513903Y-73196337D01*
X143414035Y-72982171D01*
X143408425Y-72974158D01*
X143278494Y-72788597D01*
X143111402Y-72621506D01*
X143111396Y-72621501D01*
X142925842Y-72491575D01*
X142882217Y-72436998D01*
X142875023Y-72367500D01*
X142906546Y-72305145D01*
X142925842Y-72288425D01*
X142948026Y-72272891D01*
X143111401Y-72158495D01*
X143278495Y-71991401D01*
X143414035Y-71797830D01*
X143513903Y-71583663D01*
X143575063Y-71355408D01*
X143595659Y-71120000D01*
X143575063Y-70884592D01*
X143513903Y-70656337D01*
X143414035Y-70442171D01*
X143408425Y-70434158D01*
X143278494Y-70248597D01*
X143111402Y-70081506D01*
X143111401Y-70081505D01*
X142988800Y-69995659D01*
X142925841Y-69951574D01*
X142882216Y-69896997D01*
X142875024Y-69827498D01*
X142906546Y-69765144D01*
X142925836Y-69748428D01*
X143111401Y-69618495D01*
X143278495Y-69451401D01*
X143414035Y-69257830D01*
X143513903Y-69043663D01*
X143575063Y-68815408D01*
X143595659Y-68580000D01*
X143575063Y-68344592D01*
X143513903Y-68116337D01*
X143414035Y-67902171D01*
X143408425Y-67894158D01*
X143278494Y-67708597D01*
X143111402Y-67541506D01*
X143111395Y-67541501D01*
X142917834Y-67405967D01*
X142917830Y-67405965D01*
X142917828Y-67405964D01*
X142703663Y-67306097D01*
X142703659Y-67306096D01*
X142703655Y-67306094D01*
X142475413Y-67244938D01*
X142475403Y-67244936D01*
X142240001Y-67224341D01*
X142239999Y-67224341D01*
X142004596Y-67244936D01*
X142004586Y-67244938D01*
X141776344Y-67306094D01*
X141776335Y-67306098D01*
X141562171Y-67405964D01*
X141562169Y-67405965D01*
X141368600Y-67541503D01*
X141246673Y-67663430D01*
X141185350Y-67696914D01*
X141115658Y-67691930D01*
X141059725Y-67650058D01*
X141042810Y-67619081D01*
X140993797Y-67487671D01*
X140993793Y-67487664D01*
X140907547Y-67372455D01*
X140907544Y-67372452D01*
X140792335Y-67286206D01*
X140792328Y-67286202D01*
X140657482Y-67235908D01*
X140657483Y-67235908D01*
X140597883Y-67229501D01*
X140597881Y-67229500D01*
X140597873Y-67229500D01*
X140597864Y-67229500D01*
X138802129Y-67229500D01*
X138802123Y-67229501D01*
X138742516Y-67235908D01*
X138607671Y-67286202D01*
X138607664Y-67286206D01*
X138492455Y-67372452D01*
X138492452Y-67372455D01*
X138406206Y-67487664D01*
X138406202Y-67487671D01*
X138355908Y-67622517D01*
X138349501Y-67682116D01*
X138349500Y-67682135D01*
X138349500Y-69477870D01*
X138349501Y-69477876D01*
X138355908Y-69537483D01*
X138406202Y-69672328D01*
X138406206Y-69672335D01*
X138492452Y-69787544D01*
X138492455Y-69787547D01*
X138607664Y-69873793D01*
X138607671Y-69873797D01*
X138739081Y-69922810D01*
X138795015Y-69964681D01*
X138819432Y-70030145D01*
X138804580Y-70098418D01*
X138783430Y-70126673D01*
X138661503Y-70248600D01*
X138525965Y-70442169D01*
X138525964Y-70442171D01*
X138426098Y-70656335D01*
X138426094Y-70656344D01*
X138364938Y-70884586D01*
X138364936Y-70884596D01*
X138344341Y-71119999D01*
X138344341Y-71120000D01*
X138364936Y-71355403D01*
X138364938Y-71355413D01*
X138426094Y-71583655D01*
X138426096Y-71583659D01*
X138426097Y-71583663D01*
X138455374Y-71646447D01*
X138525965Y-71797830D01*
X138525967Y-71797834D01*
X138634281Y-71952521D01*
X138661501Y-71991396D01*
X138661506Y-71991402D01*
X138828597Y-72158493D01*
X138828603Y-72158498D01*
X139014158Y-72288425D01*
X139057783Y-72343002D01*
X139064977Y-72412500D01*
X139033454Y-72474855D01*
X139014158Y-72491575D01*
X138828597Y-72621505D01*
X138661505Y-72788597D01*
X138525965Y-72982169D01*
X138525964Y-72982171D01*
X138426098Y-73196335D01*
X138426094Y-73196344D01*
X138364938Y-73424586D01*
X138364936Y-73424596D01*
X138344341Y-73659999D01*
X138344341Y-73660000D01*
X138364936Y-73895403D01*
X138364938Y-73895413D01*
X138426094Y-74123655D01*
X138426096Y-74123659D01*
X138426097Y-74123663D01*
X138482334Y-74244263D01*
X138525965Y-74337830D01*
X138525967Y-74337834D01*
X138633976Y-74492086D01*
X138661501Y-74531396D01*
X138661506Y-74531402D01*
X138828597Y-74698493D01*
X138828603Y-74698498D01*
X139014158Y-74828425D01*
X139057783Y-74883002D01*
X139064977Y-74952500D01*
X139033454Y-75014855D01*
X139014158Y-75031575D01*
X138828597Y-75161505D01*
X138661505Y-75328597D01*
X138525965Y-75522169D01*
X138525964Y-75522171D01*
X138426098Y-75736335D01*
X138426094Y-75736344D01*
X138364938Y-75964586D01*
X138364936Y-75964596D01*
X138344341Y-76199999D01*
X138344341Y-76200000D01*
X138364936Y-76435403D01*
X138364938Y-76435413D01*
X138426094Y-76663655D01*
X138426096Y-76663659D01*
X138426097Y-76663663D01*
X138430000Y-76672032D01*
X138525965Y-76877830D01*
X138525967Y-76877834D01*
X138634281Y-77032521D01*
X138661501Y-77071396D01*
X138661506Y-77071402D01*
X138828597Y-77238493D01*
X138828603Y-77238498D01*
X139014158Y-77368425D01*
X139057783Y-77423002D01*
X139064977Y-77492500D01*
X139033454Y-77554855D01*
X139014158Y-77571575D01*
X138828597Y-77701505D01*
X138661505Y-77868597D01*
X138525965Y-78062169D01*
X138525964Y-78062171D01*
X138426098Y-78276335D01*
X138426094Y-78276344D01*
X138364938Y-78504586D01*
X138364936Y-78504596D01*
X138344341Y-78739999D01*
X138344341Y-78740000D01*
X138364936Y-78975403D01*
X138364938Y-78975413D01*
X138426094Y-79203655D01*
X138426096Y-79203659D01*
X138426097Y-79203663D01*
X138430000Y-79212032D01*
X138525965Y-79417830D01*
X138525967Y-79417834D01*
X138634281Y-79572521D01*
X138661501Y-79611396D01*
X138661506Y-79611402D01*
X138828597Y-79778493D01*
X138828603Y-79778498D01*
X139014158Y-79908425D01*
X139057783Y-79963002D01*
X139064977Y-80032500D01*
X139033454Y-80094855D01*
X139014158Y-80111575D01*
X138828597Y-80241505D01*
X138661505Y-80408597D01*
X138525965Y-80602169D01*
X138525964Y-80602171D01*
X138426098Y-80816335D01*
X138426094Y-80816344D01*
X138364938Y-81044586D01*
X138364936Y-81044596D01*
X138344341Y-81279999D01*
X138344341Y-81280000D01*
X138364936Y-81515403D01*
X138364938Y-81515413D01*
X138426094Y-81743655D01*
X138426096Y-81743659D01*
X138426097Y-81743663D01*
X138506004Y-81915023D01*
X138525965Y-81957830D01*
X138525967Y-81957834D01*
X138634281Y-82112521D01*
X138661501Y-82151396D01*
X138661506Y-82151402D01*
X138828597Y-82318493D01*
X138828603Y-82318498D01*
X139014158Y-82448425D01*
X139057783Y-82503002D01*
X139064977Y-82572500D01*
X139033454Y-82634855D01*
X139014158Y-82651575D01*
X138828597Y-82781505D01*
X138661505Y-82948597D01*
X138525965Y-83142169D01*
X138525964Y-83142171D01*
X138426098Y-83356335D01*
X138426094Y-83356344D01*
X138364938Y-83584586D01*
X138364936Y-83584596D01*
X138344341Y-83819999D01*
X138344341Y-83820000D01*
X138364936Y-84055403D01*
X138364938Y-84055413D01*
X138426094Y-84283655D01*
X138426096Y-84283659D01*
X138426097Y-84283663D01*
X138445494Y-84325259D01*
X138525965Y-84497830D01*
X138525967Y-84497834D01*
X138618420Y-84629870D01*
X138661504Y-84691400D01*
X138661506Y-84691402D01*
X138828597Y-84858493D01*
X138828603Y-84858498D01*
X139014158Y-84988425D01*
X139057783Y-85043002D01*
X139064977Y-85112500D01*
X139033454Y-85174855D01*
X139014158Y-85191575D01*
X138828597Y-85321505D01*
X138661505Y-85488597D01*
X138525965Y-85682169D01*
X138525964Y-85682171D01*
X138426098Y-85896335D01*
X138426094Y-85896344D01*
X138364938Y-86124586D01*
X138364936Y-86124596D01*
X138344341Y-86359999D01*
X138344341Y-86360000D01*
X138364936Y-86595403D01*
X138364938Y-86595413D01*
X138426094Y-86823655D01*
X138426096Y-86823659D01*
X138426097Y-86823663D01*
X138506004Y-86995023D01*
X138525965Y-87037830D01*
X138525967Y-87037834D01*
X138634281Y-87192521D01*
X138661501Y-87231396D01*
X138661506Y-87231402D01*
X138828597Y-87398493D01*
X138828603Y-87398498D01*
X139014158Y-87528425D01*
X139057783Y-87583002D01*
X139064977Y-87652500D01*
X139033454Y-87714855D01*
X139014158Y-87731575D01*
X138828597Y-87861505D01*
X138661505Y-88028597D01*
X138525965Y-88222169D01*
X138525964Y-88222171D01*
X138426098Y-88436335D01*
X138426094Y-88436344D01*
X138364938Y-88664586D01*
X138364936Y-88664596D01*
X138344341Y-88899999D01*
X138344341Y-88900000D01*
X138364936Y-89135403D01*
X138364938Y-89135413D01*
X138426094Y-89363655D01*
X138426096Y-89363659D01*
X138426097Y-89363663D01*
X138430000Y-89372032D01*
X138525965Y-89577830D01*
X138525967Y-89577834D01*
X138634281Y-89732521D01*
X138661501Y-89771396D01*
X138661506Y-89771402D01*
X138828597Y-89938493D01*
X138828603Y-89938498D01*
X139014158Y-90068425D01*
X139057783Y-90123002D01*
X139064977Y-90192500D01*
X139033454Y-90254855D01*
X139014158Y-90271575D01*
X138828597Y-90401505D01*
X138661505Y-90568597D01*
X138525965Y-90762169D01*
X138525964Y-90762171D01*
X138426098Y-90976335D01*
X138426094Y-90976344D01*
X138364938Y-91204586D01*
X138364936Y-91204596D01*
X138344341Y-91439999D01*
X138344341Y-91440000D01*
X138364936Y-91675403D01*
X138364938Y-91675413D01*
X138426094Y-91903655D01*
X138426096Y-91903659D01*
X138426097Y-91903663D01*
X138465545Y-91988259D01*
X138525965Y-92117830D01*
X138525967Y-92117834D01*
X138561288Y-92168277D01*
X138661501Y-92311396D01*
X138661506Y-92311402D01*
X138828597Y-92478493D01*
X138828603Y-92478498D01*
X139014158Y-92608425D01*
X139057783Y-92663002D01*
X139064977Y-92732500D01*
X139033454Y-92794855D01*
X139014158Y-92811575D01*
X138828597Y-92941505D01*
X138661505Y-93108597D01*
X138525965Y-93302169D01*
X138525964Y-93302171D01*
X138426098Y-93516335D01*
X138426094Y-93516344D01*
X138364938Y-93744586D01*
X138364936Y-93744596D01*
X138344341Y-93979999D01*
X138344341Y-93980000D01*
X138364936Y-94215403D01*
X138364938Y-94215413D01*
X138426094Y-94443655D01*
X138426096Y-94443659D01*
X138426097Y-94443663D01*
X138430000Y-94452032D01*
X138525965Y-94657830D01*
X138525967Y-94657834D01*
X138634281Y-94812521D01*
X138661501Y-94851396D01*
X138661506Y-94851402D01*
X138828597Y-95018493D01*
X138828603Y-95018498D01*
X139014158Y-95148425D01*
X139057783Y-95203002D01*
X139064977Y-95272500D01*
X139033454Y-95334855D01*
X139014158Y-95351575D01*
X138828597Y-95481505D01*
X138661505Y-95648597D01*
X138525965Y-95842169D01*
X138525964Y-95842171D01*
X138426098Y-96056335D01*
X138426094Y-96056344D01*
X138364938Y-96284586D01*
X138364936Y-96284596D01*
X138344341Y-96519999D01*
X138344341Y-96520000D01*
X138364936Y-96755403D01*
X138364938Y-96755413D01*
X138426094Y-96983655D01*
X138426096Y-96983659D01*
X138426097Y-96983663D01*
X138505801Y-97154588D01*
X138525965Y-97197830D01*
X138525967Y-97197834D01*
X138634281Y-97352521D01*
X138661504Y-97391400D01*
X138661506Y-97391402D01*
X138828597Y-97558493D01*
X138828603Y-97558498D01*
X139014158Y-97688425D01*
X139057783Y-97743002D01*
X139064977Y-97812500D01*
X139033454Y-97874855D01*
X139014158Y-97891575D01*
X138828597Y-98021505D01*
X138661505Y-98188597D01*
X138525965Y-98382169D01*
X138525964Y-98382171D01*
X138426098Y-98596335D01*
X138426094Y-98596344D01*
X138364938Y-98824586D01*
X138364936Y-98824596D01*
X138344341Y-99059999D01*
X138344341Y-99060000D01*
X138364936Y-99295403D01*
X138364938Y-99295413D01*
X138426094Y-99523655D01*
X138426096Y-99523659D01*
X138426097Y-99523663D01*
X138430000Y-99532032D01*
X138525965Y-99737830D01*
X138525967Y-99737834D01*
X138634281Y-99892521D01*
X138661501Y-99931396D01*
X138661506Y-99931402D01*
X138828597Y-100098493D01*
X138828603Y-100098498D01*
X139014158Y-100228425D01*
X139057783Y-100283002D01*
X139064977Y-100352500D01*
X139033454Y-100414855D01*
X139014158Y-100431575D01*
X138828597Y-100561505D01*
X138661505Y-100728597D01*
X138525965Y-100922169D01*
X138525964Y-100922171D01*
X138426098Y-101136335D01*
X138426094Y-101136344D01*
X138364938Y-101364586D01*
X138364936Y-101364596D01*
X138344341Y-101599999D01*
X138344341Y-101600000D01*
X138364936Y-101835403D01*
X138364938Y-101835413D01*
X138426094Y-102063655D01*
X138426096Y-102063659D01*
X138426097Y-102063663D01*
X138430000Y-102072032D01*
X138525965Y-102277830D01*
X138525967Y-102277834D01*
X138634281Y-102432521D01*
X138661501Y-102471396D01*
X138661506Y-102471402D01*
X138828597Y-102638493D01*
X138828603Y-102638498D01*
X139014158Y-102768425D01*
X139057783Y-102823002D01*
X139064977Y-102892500D01*
X139033454Y-102954855D01*
X139014158Y-102971575D01*
X138828597Y-103101505D01*
X138661505Y-103268597D01*
X138525965Y-103462169D01*
X138525964Y-103462171D01*
X138426098Y-103676335D01*
X138426094Y-103676344D01*
X138364938Y-103904586D01*
X138364936Y-103904596D01*
X138344341Y-104139999D01*
X138344341Y-104140000D01*
X129500500Y-104140000D01*
X129500500Y-66800000D01*
X156994540Y-66800000D01*
X157014326Y-66988256D01*
X157014327Y-66988259D01*
X157072818Y-67168277D01*
X157072821Y-67168284D01*
X157167467Y-67332216D01*
X157273971Y-67450500D01*
X157294129Y-67472888D01*
X157447265Y-67584148D01*
X157447270Y-67584151D01*
X157620192Y-67661142D01*
X157620197Y-67661144D01*
X157805354Y-67700500D01*
X157805355Y-67700500D01*
X157994644Y-67700500D01*
X157994646Y-67700500D01*
X158179803Y-67661144D01*
X158352730Y-67584151D01*
X158485527Y-67487669D01*
X158504090Y-67474182D01*
X158569896Y-67450702D01*
X158576975Y-67450500D01*
X167479192Y-67450500D01*
X167546231Y-67470185D01*
X167566873Y-67486819D01*
X175065191Y-74985137D01*
X175098676Y-75046460D01*
X175100830Y-75059851D01*
X175114326Y-75188256D01*
X175114327Y-75188259D01*
X175172818Y-75368277D01*
X175172821Y-75368284D01*
X175267467Y-75532216D01*
X175367590Y-75643413D01*
X175394129Y-75672888D01*
X175547265Y-75784148D01*
X175547270Y-75784151D01*
X175720192Y-75861142D01*
X175720197Y-75861144D01*
X175905354Y-75900500D01*
X175905355Y-75900500D01*
X176094644Y-75900500D01*
X176094646Y-75900500D01*
X176279803Y-75861144D01*
X176452730Y-75784151D01*
X176605871Y-75672888D01*
X176732533Y-75532216D01*
X176827179Y-75368284D01*
X176885674Y-75188256D01*
X176905460Y-75000000D01*
X176885674Y-74811744D01*
X176827179Y-74631716D01*
X176732533Y-74467784D01*
X176605871Y-74327112D01*
X176565587Y-74297844D01*
X176452734Y-74215851D01*
X176452729Y-74215848D01*
X176279807Y-74138857D01*
X176279802Y-74138855D01*
X176134000Y-74107865D01*
X176094646Y-74099500D01*
X176094645Y-74099500D01*
X176070808Y-74099500D01*
X176003769Y-74079815D01*
X175983127Y-74063181D01*
X170499946Y-68580000D01*
X176444341Y-68580000D01*
X176464936Y-68815403D01*
X176464938Y-68815413D01*
X176526094Y-69043655D01*
X176526096Y-69043659D01*
X176526097Y-69043663D01*
X176611641Y-69227112D01*
X176625965Y-69257830D01*
X176625967Y-69257834D01*
X176702956Y-69367785D01*
X176761501Y-69451396D01*
X176761506Y-69451402D01*
X176883430Y-69573326D01*
X176916915Y-69634649D01*
X176911931Y-69704341D01*
X176870059Y-69760274D01*
X176839083Y-69777189D01*
X176707669Y-69826203D01*
X176707664Y-69826206D01*
X176592455Y-69912452D01*
X176592452Y-69912455D01*
X176506206Y-70027664D01*
X176506202Y-70027671D01*
X176455908Y-70162517D01*
X176449501Y-70222116D01*
X176449501Y-70222123D01*
X176449500Y-70222135D01*
X176449500Y-72017870D01*
X176449501Y-72017876D01*
X176455908Y-72077483D01*
X176506202Y-72212328D01*
X176506206Y-72212335D01*
X176592452Y-72327544D01*
X176592455Y-72327547D01*
X176707664Y-72413793D01*
X176707671Y-72413797D01*
X176842517Y-72464091D01*
X176842516Y-72464091D01*
X176849444Y-72464835D01*
X176902127Y-72470500D01*
X178697872Y-72470499D01*
X178757483Y-72464091D01*
X178892331Y-72413796D01*
X179007546Y-72327546D01*
X179093796Y-72212331D01*
X179144091Y-72077483D01*
X179150500Y-72017873D01*
X179150499Y-70222128D01*
X179144091Y-70162517D01*
X179130722Y-70126674D01*
X179093797Y-70027671D01*
X179093793Y-70027664D01*
X179007547Y-69912455D01*
X179007544Y-69912452D01*
X178892335Y-69826206D01*
X178892328Y-69826202D01*
X178760917Y-69777189D01*
X178704983Y-69735318D01*
X178680566Y-69669853D01*
X178695418Y-69601580D01*
X178716563Y-69573332D01*
X178838495Y-69451401D01*
X178974035Y-69257830D01*
X179073903Y-69043663D01*
X179135063Y-68815408D01*
X179155659Y-68580000D01*
X179135063Y-68344592D01*
X179073903Y-68116337D01*
X178974035Y-67902171D01*
X178968425Y-67894158D01*
X178838494Y-67708597D01*
X178671402Y-67541506D01*
X178671401Y-67541505D01*
X178485842Y-67411575D01*
X178485841Y-67411574D01*
X178442216Y-67356997D01*
X178435024Y-67287498D01*
X178466546Y-67225144D01*
X178485836Y-67208428D01*
X178671401Y-67078495D01*
X178838495Y-66911401D01*
X178974035Y-66717830D01*
X179073903Y-66503663D01*
X179135063Y-66275408D01*
X179155659Y-66040000D01*
X179135063Y-65804592D01*
X179073903Y-65576337D01*
X178974035Y-65362171D01*
X178968425Y-65354158D01*
X178838494Y-65168597D01*
X178671402Y-65001506D01*
X178671396Y-65001501D01*
X178485842Y-64871575D01*
X178442217Y-64816998D01*
X178435023Y-64747500D01*
X178466546Y-64685145D01*
X178485842Y-64668425D01*
X178508026Y-64652891D01*
X178671401Y-64538495D01*
X178838495Y-64371401D01*
X178974035Y-64177830D01*
X179073903Y-63963663D01*
X179135063Y-63735408D01*
X179155659Y-63500000D01*
X179135063Y-63264592D01*
X179073903Y-63036337D01*
X178974035Y-62822171D01*
X178968425Y-62814158D01*
X178838494Y-62628597D01*
X178671402Y-62461506D01*
X178671395Y-62461501D01*
X178477834Y-62325967D01*
X178477830Y-62325965D01*
X178477828Y-62325964D01*
X178263663Y-62226097D01*
X178263659Y-62226096D01*
X178263655Y-62226094D01*
X178035413Y-62164938D01*
X178035403Y-62164936D01*
X177800001Y-62144341D01*
X177799999Y-62144341D01*
X177564596Y-62164936D01*
X177564586Y-62164938D01*
X177336344Y-62226094D01*
X177336335Y-62226098D01*
X177122171Y-62325964D01*
X177122169Y-62325965D01*
X176928597Y-62461505D01*
X176761505Y-62628597D01*
X176625965Y-62822169D01*
X176625964Y-62822171D01*
X176526098Y-63036335D01*
X176526094Y-63036344D01*
X176464938Y-63264586D01*
X176464936Y-63264596D01*
X176444341Y-63499999D01*
X176444341Y-63500000D01*
X176464936Y-63735403D01*
X176464938Y-63735413D01*
X176526094Y-63963655D01*
X176526096Y-63963659D01*
X176526097Y-63963663D01*
X176530000Y-63972032D01*
X176625965Y-64177830D01*
X176625967Y-64177834D01*
X176734281Y-64332521D01*
X176761501Y-64371396D01*
X176761506Y-64371402D01*
X176928597Y-64538493D01*
X176928603Y-64538498D01*
X177114158Y-64668425D01*
X177157783Y-64723002D01*
X177164977Y-64792500D01*
X177133454Y-64854855D01*
X177114158Y-64871575D01*
X176928597Y-65001505D01*
X176761505Y-65168597D01*
X176625965Y-65362169D01*
X176625964Y-65362171D01*
X176526098Y-65576335D01*
X176526094Y-65576344D01*
X176464938Y-65804586D01*
X176464936Y-65804596D01*
X176444341Y-66039999D01*
X176444341Y-66040000D01*
X176464936Y-66275403D01*
X176464938Y-66275413D01*
X176526094Y-66503655D01*
X176526096Y-66503659D01*
X176526097Y-66503663D01*
X176576496Y-66611744D01*
X176625965Y-66717830D01*
X176625967Y-66717834D01*
X176683500Y-66799999D01*
X176761501Y-66911396D01*
X176761506Y-66911402D01*
X176928597Y-67078493D01*
X176928603Y-67078498D01*
X177114158Y-67208425D01*
X177157783Y-67263002D01*
X177164977Y-67332500D01*
X177133454Y-67394855D01*
X177114158Y-67411575D01*
X176928597Y-67541505D01*
X176761505Y-67708597D01*
X176625965Y-67902169D01*
X176625964Y-67902171D01*
X176526098Y-68116335D01*
X176526094Y-68116344D01*
X176464938Y-68344586D01*
X176464936Y-68344596D01*
X176444341Y-68579999D01*
X176444341Y-68580000D01*
X170499946Y-68580000D01*
X168320434Y-66400488D01*
X168310361Y-66387914D01*
X168310174Y-66388070D01*
X168305201Y-66382059D01*
X168252756Y-66332810D01*
X168231035Y-66311089D01*
X168225240Y-66306594D01*
X168220798Y-66302799D01*
X168185396Y-66269554D01*
X168185388Y-66269548D01*
X168166792Y-66259325D01*
X168150531Y-66248644D01*
X168133763Y-66235637D01*
X168110295Y-66225482D01*
X168089178Y-66216343D01*
X168083956Y-66213786D01*
X168041368Y-66190373D01*
X168041365Y-66190372D01*
X168020801Y-66185092D01*
X168002396Y-66178790D01*
X167982927Y-66170365D01*
X167982921Y-66170363D01*
X167934951Y-66162766D01*
X167929236Y-66161582D01*
X167912772Y-66157355D01*
X167882180Y-66149500D01*
X167882177Y-66149500D01*
X167860955Y-66149500D01*
X167841555Y-66147973D01*
X167820596Y-66144653D01*
X167820595Y-66144653D01*
X167796786Y-66146903D01*
X167772230Y-66149225D01*
X167766392Y-66149500D01*
X158576975Y-66149500D01*
X158509936Y-66129815D01*
X158504090Y-66125818D01*
X158352734Y-66015851D01*
X158352729Y-66015848D01*
X158179807Y-65938857D01*
X158179802Y-65938855D01*
X158034000Y-65907865D01*
X157994646Y-65899500D01*
X157805354Y-65899500D01*
X157772897Y-65906398D01*
X157620197Y-65938855D01*
X157620192Y-65938857D01*
X157447270Y-66015848D01*
X157447265Y-66015851D01*
X157294129Y-66127111D01*
X157167466Y-66267785D01*
X157072821Y-66431715D01*
X157072818Y-66431722D01*
X157014327Y-66611740D01*
X157014326Y-66611744D01*
X156994540Y-66800000D01*
X129500500Y-66800000D01*
X129500500Y-63500000D01*
X138344341Y-63500000D01*
X138364936Y-63735403D01*
X138364938Y-63735413D01*
X138426094Y-63963655D01*
X138426096Y-63963659D01*
X138426097Y-63963663D01*
X138430000Y-63972032D01*
X138525965Y-64177830D01*
X138525967Y-64177834D01*
X138634281Y-64332521D01*
X138661505Y-64371401D01*
X138828599Y-64538495D01*
X138925384Y-64606264D01*
X139022165Y-64674032D01*
X139022167Y-64674033D01*
X139022170Y-64674035D01*
X139236337Y-64773903D01*
X139464592Y-64835063D01*
X139641034Y-64850500D01*
X139699999Y-64855659D01*
X139700000Y-64855659D01*
X139700001Y-64855659D01*
X139758966Y-64850500D01*
X139935408Y-64835063D01*
X140163663Y-64773903D01*
X140377830Y-64674035D01*
X140571401Y-64538495D01*
X140738495Y-64371401D01*
X140868424Y-64185842D01*
X140923002Y-64142217D01*
X140992500Y-64135023D01*
X141054855Y-64166546D01*
X141071575Y-64185842D01*
X141201500Y-64371395D01*
X141201505Y-64371401D01*
X141368599Y-64538495D01*
X141465384Y-64606264D01*
X141562165Y-64674032D01*
X141562167Y-64674033D01*
X141562170Y-64674035D01*
X141776337Y-64773903D01*
X142004592Y-64835063D01*
X142181034Y-64850500D01*
X142239999Y-64855659D01*
X142240000Y-64855659D01*
X142240001Y-64855659D01*
X142298966Y-64850500D01*
X142475408Y-64835063D01*
X142703663Y-64773903D01*
X142917830Y-64674035D01*
X143111401Y-64538495D01*
X143278495Y-64371401D01*
X143414035Y-64177830D01*
X143513903Y-63963663D01*
X143575063Y-63735408D01*
X143595659Y-63500000D01*
X143575063Y-63264592D01*
X143513903Y-63036337D01*
X143414035Y-62822171D01*
X143408425Y-62814158D01*
X143278494Y-62628597D01*
X143111402Y-62461506D01*
X143111396Y-62461501D01*
X142925842Y-62331575D01*
X142882217Y-62276998D01*
X142875023Y-62207500D01*
X142906546Y-62145145D01*
X142925842Y-62128425D01*
X142948026Y-62112891D01*
X143111401Y-61998495D01*
X143278495Y-61831401D01*
X143414035Y-61637830D01*
X143513903Y-61423663D01*
X143575063Y-61195408D01*
X143595659Y-60960000D01*
X143575063Y-60724592D01*
X143513903Y-60496337D01*
X143414035Y-60282171D01*
X143408731Y-60274595D01*
X143278494Y-60088597D01*
X143111402Y-59921506D01*
X143111396Y-59921501D01*
X142925842Y-59791575D01*
X142882217Y-59736998D01*
X142875023Y-59667500D01*
X142906546Y-59605145D01*
X142925842Y-59588425D01*
X142948026Y-59572891D01*
X143111401Y-59458495D01*
X143278495Y-59291401D01*
X143414035Y-59097830D01*
X143513903Y-58883663D01*
X143575063Y-58655408D01*
X143595659Y-58420000D01*
X184064341Y-58420000D01*
X184084936Y-58655403D01*
X184084938Y-58655413D01*
X184146094Y-58883655D01*
X184146096Y-58883659D01*
X184146097Y-58883663D01*
X184225801Y-59054588D01*
X184245965Y-59097830D01*
X184245967Y-59097834D01*
X184354281Y-59252521D01*
X184381505Y-59291401D01*
X184548599Y-59458495D01*
X184645384Y-59526264D01*
X184742165Y-59594032D01*
X184742167Y-59594033D01*
X184742170Y-59594035D01*
X184956337Y-59693903D01*
X185184592Y-59755063D01*
X185372918Y-59771539D01*
X185419999Y-59775659D01*
X185420000Y-59775659D01*
X185420001Y-59775659D01*
X185459234Y-59772226D01*
X185655408Y-59755063D01*
X185883663Y-59693903D01*
X186097830Y-59594035D01*
X186291401Y-59458495D01*
X186458495Y-59291401D01*
X186588424Y-59105842D01*
X186643002Y-59062217D01*
X186712500Y-59055023D01*
X186774855Y-59086546D01*
X186791575Y-59105842D01*
X186921500Y-59291395D01*
X186921505Y-59291401D01*
X187088599Y-59458495D01*
X187185384Y-59526264D01*
X187282165Y-59594032D01*
X187282167Y-59594033D01*
X187282170Y-59594035D01*
X187496337Y-59693903D01*
X187724592Y-59755063D01*
X187912918Y-59771539D01*
X187959999Y-59775659D01*
X187960000Y-59775659D01*
X187960001Y-59775659D01*
X187999234Y-59772226D01*
X188195408Y-59755063D01*
X188423663Y-59693903D01*
X188637830Y-59594035D01*
X188831401Y-59458495D01*
X188998495Y-59291401D01*
X189134035Y-59097830D01*
X189233903Y-58883663D01*
X189295063Y-58655408D01*
X189315659Y-58420000D01*
X189295063Y-58184592D01*
X189233903Y-57956337D01*
X189134035Y-57742171D01*
X189128731Y-57734595D01*
X188998494Y-57548597D01*
X188831402Y-57381506D01*
X188831396Y-57381501D01*
X188645842Y-57251575D01*
X188602217Y-57196998D01*
X188595023Y-57127500D01*
X188626546Y-57065145D01*
X188645842Y-57048425D01*
X188668026Y-57032891D01*
X188831401Y-56918495D01*
X188998495Y-56751401D01*
X189134035Y-56557830D01*
X189233903Y-56343663D01*
X189295063Y-56115408D01*
X189315659Y-55880000D01*
X189295063Y-55644592D01*
X189233903Y-55416337D01*
X189134035Y-55202171D01*
X189128425Y-55194158D01*
X188998494Y-55008597D01*
X188831402Y-54841506D01*
X188831401Y-54841505D01*
X188645842Y-54711575D01*
X188645841Y-54711574D01*
X188602216Y-54656997D01*
X188595024Y-54587498D01*
X188626546Y-54525144D01*
X188645836Y-54508428D01*
X188831401Y-54378495D01*
X188998495Y-54211401D01*
X189134035Y-54017830D01*
X189233903Y-53803663D01*
X189295063Y-53575408D01*
X189315659Y-53340000D01*
X189295063Y-53104592D01*
X189233903Y-52876337D01*
X189134035Y-52662171D01*
X189128425Y-52654158D01*
X188998494Y-52468597D01*
X188831402Y-52301506D01*
X188831396Y-52301501D01*
X188645842Y-52171575D01*
X188602217Y-52116998D01*
X188595023Y-52047500D01*
X188626546Y-51985145D01*
X188645842Y-51968425D01*
X188668026Y-51952891D01*
X188831401Y-51838495D01*
X188998495Y-51671401D01*
X189134035Y-51477830D01*
X189233903Y-51263663D01*
X189295063Y-51035408D01*
X189315659Y-50800000D01*
X189295063Y-50564592D01*
X189233903Y-50336337D01*
X189134035Y-50122171D01*
X189128425Y-50114158D01*
X188998494Y-49928597D01*
X188831402Y-49761506D01*
X188831396Y-49761501D01*
X188645842Y-49631575D01*
X188602217Y-49576998D01*
X188595023Y-49507500D01*
X188626546Y-49445145D01*
X188645842Y-49428425D01*
X188668026Y-49412891D01*
X188831401Y-49298495D01*
X188998495Y-49131401D01*
X189134035Y-48937830D01*
X189233903Y-48723663D01*
X189295063Y-48495408D01*
X189315659Y-48260000D01*
X189295063Y-48024592D01*
X189233903Y-47796337D01*
X189134035Y-47582171D01*
X189128425Y-47574158D01*
X188998494Y-47388597D01*
X188831402Y-47221506D01*
X188831396Y-47221501D01*
X188645842Y-47091575D01*
X188602217Y-47036998D01*
X188595023Y-46967500D01*
X188626546Y-46905145D01*
X188645842Y-46888425D01*
X188668026Y-46872891D01*
X188831401Y-46758495D01*
X188998495Y-46591401D01*
X189134035Y-46397830D01*
X189233903Y-46183663D01*
X189295063Y-45955408D01*
X189315659Y-45720000D01*
X189295063Y-45484592D01*
X189233903Y-45256337D01*
X189134035Y-45042171D01*
X189128425Y-45034158D01*
X188998494Y-44848597D01*
X188831402Y-44681506D01*
X188831401Y-44681505D01*
X188645842Y-44551575D01*
X188645405Y-44551269D01*
X188601781Y-44496692D01*
X188594588Y-44427193D01*
X188626110Y-44364839D01*
X188645405Y-44348119D01*
X188831082Y-44218105D01*
X188998105Y-44051082D01*
X189133600Y-43857578D01*
X189233429Y-43643492D01*
X189233432Y-43643486D01*
X189290636Y-43430000D01*
X188393686Y-43430000D01*
X188419493Y-43389844D01*
X188460000Y-43251889D01*
X188460000Y-43108111D01*
X188419493Y-42970156D01*
X188393686Y-42930000D01*
X189290636Y-42930000D01*
X189290635Y-42929999D01*
X189233432Y-42716513D01*
X189233429Y-42716507D01*
X189133600Y-42502422D01*
X189133599Y-42502420D01*
X188998113Y-42308926D01*
X188998108Y-42308920D01*
X188831078Y-42141890D01*
X188645405Y-42011879D01*
X188601780Y-41957302D01*
X188594588Y-41887804D01*
X188626110Y-41825449D01*
X188645406Y-41808730D01*
X188645842Y-41808425D01*
X188831401Y-41678495D01*
X188998495Y-41511401D01*
X189134035Y-41317830D01*
X189233903Y-41103663D01*
X189295063Y-40875408D01*
X189315659Y-40640000D01*
X189295063Y-40404592D01*
X189233903Y-40176337D01*
X189134035Y-39962171D01*
X189133477Y-39961373D01*
X188998494Y-39768597D01*
X188831402Y-39601506D01*
X188831396Y-39601501D01*
X188645842Y-39471575D01*
X188602217Y-39416998D01*
X188595023Y-39347500D01*
X188626546Y-39285145D01*
X188645842Y-39268425D01*
X188743564Y-39199999D01*
X188831401Y-39138495D01*
X188998495Y-38971401D01*
X189134035Y-38777830D01*
X189233903Y-38563663D01*
X189295063Y-38335408D01*
X189315659Y-38100000D01*
X189295063Y-37864592D01*
X189233903Y-37636337D01*
X189134035Y-37422171D01*
X189128425Y-37414158D01*
X188998494Y-37228597D01*
X188831402Y-37061506D01*
X188831396Y-37061501D01*
X188645842Y-36931575D01*
X188602217Y-36876998D01*
X188595023Y-36807500D01*
X188626546Y-36745145D01*
X188645842Y-36728425D01*
X188668026Y-36712891D01*
X188831401Y-36598495D01*
X188998495Y-36431401D01*
X189134035Y-36237830D01*
X189233903Y-36023663D01*
X189295063Y-35795408D01*
X189315659Y-35560000D01*
X189295063Y-35324592D01*
X189233903Y-35096337D01*
X189134035Y-34882171D01*
X188998495Y-34688599D01*
X188998494Y-34688597D01*
X188831402Y-34521506D01*
X188831395Y-34521501D01*
X188637834Y-34385967D01*
X188637830Y-34385965D01*
X188637829Y-34385964D01*
X188423663Y-34286097D01*
X188423659Y-34286096D01*
X188423655Y-34286094D01*
X188195413Y-34224938D01*
X188195403Y-34224936D01*
X187960001Y-34204341D01*
X187959999Y-34204341D01*
X187724596Y-34224936D01*
X187724586Y-34224938D01*
X187496344Y-34286094D01*
X187496335Y-34286098D01*
X187282171Y-34385964D01*
X187282169Y-34385965D01*
X187088600Y-34521503D01*
X186966673Y-34643430D01*
X186905350Y-34676914D01*
X186835658Y-34671930D01*
X186779725Y-34630058D01*
X186762810Y-34599081D01*
X186713797Y-34467671D01*
X186713793Y-34467664D01*
X186627547Y-34352455D01*
X186627544Y-34352452D01*
X186512335Y-34266206D01*
X186512328Y-34266202D01*
X186377482Y-34215908D01*
X186377483Y-34215908D01*
X186317883Y-34209501D01*
X186317881Y-34209500D01*
X186317873Y-34209500D01*
X186317864Y-34209500D01*
X184522129Y-34209500D01*
X184522123Y-34209501D01*
X184462516Y-34215908D01*
X184327671Y-34266202D01*
X184327664Y-34266206D01*
X184212455Y-34352452D01*
X184212452Y-34352455D01*
X184126206Y-34467664D01*
X184126202Y-34467671D01*
X184075908Y-34602517D01*
X184069501Y-34662116D01*
X184069500Y-34662135D01*
X184069500Y-36457870D01*
X184069501Y-36457876D01*
X184075908Y-36517483D01*
X184126202Y-36652328D01*
X184126206Y-36652335D01*
X184212452Y-36767544D01*
X184212455Y-36767547D01*
X184327664Y-36853793D01*
X184327671Y-36853797D01*
X184459081Y-36902810D01*
X184515015Y-36944681D01*
X184539432Y-37010145D01*
X184524580Y-37078418D01*
X184503430Y-37106673D01*
X184381503Y-37228600D01*
X184245965Y-37422169D01*
X184245964Y-37422171D01*
X184146098Y-37636335D01*
X184146094Y-37636344D01*
X184084938Y-37864586D01*
X184084936Y-37864596D01*
X184064341Y-38099999D01*
X184064341Y-38100000D01*
X184084936Y-38335403D01*
X184084938Y-38335413D01*
X184146094Y-38563655D01*
X184146096Y-38563659D01*
X184146097Y-38563663D01*
X184226620Y-38736344D01*
X184245965Y-38777830D01*
X184245967Y-38777834D01*
X184294011Y-38846447D01*
X184381501Y-38971396D01*
X184381506Y-38971402D01*
X184548597Y-39138493D01*
X184548603Y-39138498D01*
X184734158Y-39268425D01*
X184777783Y-39323002D01*
X184784977Y-39392500D01*
X184753454Y-39454855D01*
X184734158Y-39471575D01*
X184548597Y-39601505D01*
X184381505Y-39768597D01*
X184245965Y-39962169D01*
X184245964Y-39962171D01*
X184146098Y-40176335D01*
X184146094Y-40176344D01*
X184084938Y-40404586D01*
X184084936Y-40404596D01*
X184064341Y-40639999D01*
X184064341Y-40640000D01*
X184084936Y-40875403D01*
X184084938Y-40875413D01*
X184146094Y-41103655D01*
X184146096Y-41103659D01*
X184146097Y-41103663D01*
X184150000Y-41112032D01*
X184245965Y-41317830D01*
X184245967Y-41317834D01*
X184354281Y-41472521D01*
X184381501Y-41511396D01*
X184381506Y-41511402D01*
X184548597Y-41678493D01*
X184548603Y-41678498D01*
X184734158Y-41808425D01*
X184777783Y-41863002D01*
X184784977Y-41932500D01*
X184753454Y-41994855D01*
X184734158Y-42011575D01*
X184548597Y-42141505D01*
X184381505Y-42308597D01*
X184245965Y-42502169D01*
X184245964Y-42502171D01*
X184146098Y-42716335D01*
X184146094Y-42716344D01*
X184084938Y-42944586D01*
X184084936Y-42944596D01*
X184064341Y-43179999D01*
X184064341Y-43180000D01*
X184084936Y-43415403D01*
X184084938Y-43415413D01*
X184146094Y-43643655D01*
X184146096Y-43643659D01*
X184146097Y-43643663D01*
X184229155Y-43821781D01*
X184245965Y-43857830D01*
X184245967Y-43857834D01*
X184354281Y-44012521D01*
X184381501Y-44051396D01*
X184381506Y-44051402D01*
X184548597Y-44218493D01*
X184548603Y-44218498D01*
X184734158Y-44348425D01*
X184777783Y-44403002D01*
X184784977Y-44472500D01*
X184753454Y-44534855D01*
X184734158Y-44551575D01*
X184548597Y-44681505D01*
X184381505Y-44848597D01*
X184245965Y-45042169D01*
X184245964Y-45042171D01*
X184146098Y-45256335D01*
X184146094Y-45256344D01*
X184084938Y-45484586D01*
X184084936Y-45484596D01*
X184064341Y-45719999D01*
X184064341Y-45720000D01*
X184084936Y-45955403D01*
X184084938Y-45955413D01*
X184146094Y-46183655D01*
X184146096Y-46183659D01*
X184146097Y-46183663D01*
X184150000Y-46192032D01*
X184245965Y-46397830D01*
X184245967Y-46397834D01*
X184354281Y-46552521D01*
X184381501Y-46591396D01*
X184381506Y-46591402D01*
X184548597Y-46758493D01*
X184548603Y-46758498D01*
X184734158Y-46888425D01*
X184777783Y-46943002D01*
X184784977Y-47012500D01*
X184753454Y-47074855D01*
X184734158Y-47091575D01*
X184548597Y-47221505D01*
X184381505Y-47388597D01*
X184245965Y-47582169D01*
X184245964Y-47582171D01*
X184146098Y-47796335D01*
X184146094Y-47796344D01*
X184084938Y-48024586D01*
X184084936Y-48024596D01*
X184064341Y-48259999D01*
X184064341Y-48260000D01*
X184084936Y-48495403D01*
X184084938Y-48495413D01*
X184146094Y-48723655D01*
X184146096Y-48723659D01*
X184146097Y-48723663D01*
X184150000Y-48732032D01*
X184245965Y-48937830D01*
X184245967Y-48937834D01*
X184354281Y-49092521D01*
X184381501Y-49131396D01*
X184381506Y-49131402D01*
X184548597Y-49298493D01*
X184548603Y-49298498D01*
X184734158Y-49428425D01*
X184777783Y-49483002D01*
X184784977Y-49552500D01*
X184753454Y-49614855D01*
X184734158Y-49631575D01*
X184548597Y-49761505D01*
X184381505Y-49928597D01*
X184245965Y-50122169D01*
X184245964Y-50122171D01*
X184146098Y-50336335D01*
X184146094Y-50336344D01*
X184084938Y-50564586D01*
X184084936Y-50564596D01*
X184064341Y-50799999D01*
X184064341Y-50800000D01*
X184084936Y-51035403D01*
X184084938Y-51035413D01*
X184146094Y-51263655D01*
X184146096Y-51263659D01*
X184146097Y-51263663D01*
X184150000Y-51272032D01*
X184245965Y-51477830D01*
X184245967Y-51477834D01*
X184354281Y-51632521D01*
X184381501Y-51671396D01*
X184381506Y-51671402D01*
X184548597Y-51838493D01*
X184548603Y-51838498D01*
X184734158Y-51968425D01*
X184777783Y-52023002D01*
X184784977Y-52092500D01*
X184753454Y-52154855D01*
X184734158Y-52171575D01*
X184548597Y-52301505D01*
X184381505Y-52468597D01*
X184245965Y-52662169D01*
X184245964Y-52662171D01*
X184146098Y-52876335D01*
X184146094Y-52876344D01*
X184084938Y-53104586D01*
X184084936Y-53104596D01*
X184064341Y-53339999D01*
X184064341Y-53340000D01*
X184084936Y-53575403D01*
X184084938Y-53575413D01*
X184146094Y-53803655D01*
X184146096Y-53803659D01*
X184146097Y-53803663D01*
X184150000Y-53812032D01*
X184245965Y-54017830D01*
X184245967Y-54017834D01*
X184354281Y-54172521D01*
X184381501Y-54211396D01*
X184381506Y-54211402D01*
X184548597Y-54378493D01*
X184548603Y-54378498D01*
X184734158Y-54508425D01*
X184777783Y-54563002D01*
X184784977Y-54632500D01*
X184753454Y-54694855D01*
X184734158Y-54711575D01*
X184548597Y-54841505D01*
X184381505Y-55008597D01*
X184245965Y-55202169D01*
X184245964Y-55202171D01*
X184146098Y-55416335D01*
X184146094Y-55416344D01*
X184084938Y-55644586D01*
X184084936Y-55644596D01*
X184064341Y-55879999D01*
X184064341Y-55880000D01*
X184084936Y-56115403D01*
X184084938Y-56115413D01*
X184146094Y-56343655D01*
X184146096Y-56343659D01*
X184146097Y-56343663D01*
X184150000Y-56352032D01*
X184245965Y-56557830D01*
X184245967Y-56557834D01*
X184354281Y-56712521D01*
X184381501Y-56751396D01*
X184381506Y-56751402D01*
X184548597Y-56918493D01*
X184548603Y-56918498D01*
X184734158Y-57048425D01*
X184777783Y-57103002D01*
X184784977Y-57172500D01*
X184753454Y-57234855D01*
X184734158Y-57251575D01*
X184548597Y-57381505D01*
X184381505Y-57548597D01*
X184245965Y-57742169D01*
X184245964Y-57742171D01*
X184146098Y-57956335D01*
X184146094Y-57956344D01*
X184084938Y-58184586D01*
X184084936Y-58184596D01*
X184064341Y-58419999D01*
X184064341Y-58420000D01*
X143595659Y-58420000D01*
X143575063Y-58184592D01*
X143513903Y-57956337D01*
X143414035Y-57742171D01*
X143408731Y-57734595D01*
X143278494Y-57548597D01*
X143111402Y-57381506D01*
X143111396Y-57381501D01*
X142925842Y-57251575D01*
X142882217Y-57196998D01*
X142875023Y-57127500D01*
X142906546Y-57065145D01*
X142925842Y-57048425D01*
X142948026Y-57032891D01*
X143111401Y-56918495D01*
X143278495Y-56751401D01*
X143414035Y-56557830D01*
X143513903Y-56343663D01*
X143575063Y-56115408D01*
X143595659Y-55880000D01*
X143575063Y-55644592D01*
X143513903Y-55416337D01*
X143414035Y-55202171D01*
X143408425Y-55194158D01*
X143278494Y-55008597D01*
X143111402Y-54841506D01*
X143111396Y-54841501D01*
X142925842Y-54711575D01*
X142882217Y-54656998D01*
X142875023Y-54587500D01*
X142906546Y-54525145D01*
X142925842Y-54508425D01*
X142948026Y-54492891D01*
X143111401Y-54378495D01*
X143278495Y-54211401D01*
X143414035Y-54017830D01*
X143513903Y-53803663D01*
X143575063Y-53575408D01*
X143595659Y-53340000D01*
X143575063Y-53104592D01*
X143513903Y-52876337D01*
X143414035Y-52662171D01*
X143408425Y-52654158D01*
X143278494Y-52468597D01*
X143111402Y-52301506D01*
X143111396Y-52301501D01*
X142925842Y-52171575D01*
X142882217Y-52116998D01*
X142875023Y-52047500D01*
X142906546Y-51985145D01*
X142925842Y-51968425D01*
X142948026Y-51952891D01*
X143111401Y-51838495D01*
X143278495Y-51671401D01*
X143414035Y-51477830D01*
X143513903Y-51263663D01*
X143575063Y-51035408D01*
X143595659Y-50800000D01*
X143575063Y-50564592D01*
X143513903Y-50336337D01*
X143414035Y-50122171D01*
X143408425Y-50114158D01*
X143278494Y-49928597D01*
X143111402Y-49761506D01*
X143111396Y-49761501D01*
X142925842Y-49631575D01*
X142882217Y-49576998D01*
X142875023Y-49507500D01*
X142906546Y-49445145D01*
X142925842Y-49428425D01*
X142948026Y-49412891D01*
X143111401Y-49298495D01*
X143278495Y-49131401D01*
X143414035Y-48937830D01*
X143513903Y-48723663D01*
X143575063Y-48495408D01*
X143595659Y-48260000D01*
X143575063Y-48024592D01*
X143513903Y-47796337D01*
X143414035Y-47582171D01*
X143408425Y-47574158D01*
X143278494Y-47388597D01*
X143111402Y-47221506D01*
X143111396Y-47221501D01*
X142925842Y-47091575D01*
X142882217Y-47036998D01*
X142875023Y-46967500D01*
X142906546Y-46905145D01*
X142925842Y-46888425D01*
X142948026Y-46872891D01*
X143111401Y-46758495D01*
X143278495Y-46591401D01*
X143414035Y-46397830D01*
X143513903Y-46183663D01*
X143575063Y-45955408D01*
X143595659Y-45720000D01*
X143575063Y-45484592D01*
X143513903Y-45256337D01*
X143414035Y-45042171D01*
X143408425Y-45034158D01*
X143278494Y-44848597D01*
X143111402Y-44681506D01*
X143111395Y-44681501D01*
X142917834Y-44545967D01*
X142917830Y-44545965D01*
X142917829Y-44545964D01*
X142703663Y-44446097D01*
X142703659Y-44446096D01*
X142703655Y-44446094D01*
X142475413Y-44384938D01*
X142475403Y-44384936D01*
X142240001Y-44364341D01*
X142239999Y-44364341D01*
X142004596Y-44384936D01*
X142004586Y-44384938D01*
X141776344Y-44446094D01*
X141776335Y-44446098D01*
X141562171Y-44545964D01*
X141562169Y-44545965D01*
X141368600Y-44681503D01*
X141246673Y-44803430D01*
X141185350Y-44836914D01*
X141115658Y-44831930D01*
X141059725Y-44790058D01*
X141042810Y-44759081D01*
X140993797Y-44627671D01*
X140993793Y-44627664D01*
X140907547Y-44512455D01*
X140907544Y-44512452D01*
X140792335Y-44426206D01*
X140792328Y-44426202D01*
X140657482Y-44375908D01*
X140657483Y-44375908D01*
X140597883Y-44369501D01*
X140597881Y-44369500D01*
X140597873Y-44369500D01*
X140597864Y-44369500D01*
X138802129Y-44369500D01*
X138802123Y-44369501D01*
X138742516Y-44375908D01*
X138607671Y-44426202D01*
X138607664Y-44426206D01*
X138492455Y-44512452D01*
X138492452Y-44512455D01*
X138406206Y-44627664D01*
X138406202Y-44627671D01*
X138355908Y-44762517D01*
X138349501Y-44822116D01*
X138349500Y-44822135D01*
X138349500Y-46617870D01*
X138349501Y-46617876D01*
X138355908Y-46677483D01*
X138406202Y-46812328D01*
X138406206Y-46812335D01*
X138492452Y-46927544D01*
X138492455Y-46927547D01*
X138607664Y-47013793D01*
X138607671Y-47013797D01*
X138739081Y-47062810D01*
X138795015Y-47104681D01*
X138819432Y-47170145D01*
X138804580Y-47238418D01*
X138783430Y-47266673D01*
X138661503Y-47388600D01*
X138525965Y-47582169D01*
X138525964Y-47582171D01*
X138426098Y-47796335D01*
X138426094Y-47796344D01*
X138364938Y-48024586D01*
X138364936Y-48024596D01*
X138344341Y-48259999D01*
X138344341Y-48260000D01*
X138364936Y-48495403D01*
X138364938Y-48495413D01*
X138426094Y-48723655D01*
X138426096Y-48723659D01*
X138426097Y-48723663D01*
X138430000Y-48732032D01*
X138525965Y-48937830D01*
X138525967Y-48937834D01*
X138634281Y-49092521D01*
X138661501Y-49131396D01*
X138661506Y-49131402D01*
X138828597Y-49298493D01*
X138828603Y-49298498D01*
X139014158Y-49428425D01*
X139057783Y-49483002D01*
X139064977Y-49552500D01*
X139033454Y-49614855D01*
X139014158Y-49631575D01*
X138828597Y-49761505D01*
X138661505Y-49928597D01*
X138525965Y-50122169D01*
X138525964Y-50122171D01*
X138426098Y-50336335D01*
X138426094Y-50336344D01*
X138364938Y-50564586D01*
X138364936Y-50564596D01*
X138344341Y-50799999D01*
X138344341Y-50800000D01*
X138364936Y-51035403D01*
X138364938Y-51035413D01*
X138426094Y-51263655D01*
X138426096Y-51263659D01*
X138426097Y-51263663D01*
X138430000Y-51272032D01*
X138525965Y-51477830D01*
X138525967Y-51477834D01*
X138634281Y-51632521D01*
X138661501Y-51671396D01*
X138661506Y-51671402D01*
X138828597Y-51838493D01*
X138828603Y-51838498D01*
X139014158Y-51968425D01*
X139057783Y-52023002D01*
X139064977Y-52092500D01*
X139033454Y-52154855D01*
X139014158Y-52171575D01*
X138828597Y-52301505D01*
X138661505Y-52468597D01*
X138525965Y-52662169D01*
X138525964Y-52662171D01*
X138426098Y-52876335D01*
X138426094Y-52876344D01*
X138364938Y-53104586D01*
X138364936Y-53104596D01*
X138344341Y-53339999D01*
X138344341Y-53340000D01*
X138364936Y-53575403D01*
X138364938Y-53575413D01*
X138426094Y-53803655D01*
X138426096Y-53803659D01*
X138426097Y-53803663D01*
X138430000Y-53812032D01*
X138525965Y-54017830D01*
X138525967Y-54017834D01*
X138634281Y-54172521D01*
X138661501Y-54211396D01*
X138661506Y-54211402D01*
X138828597Y-54378493D01*
X138828603Y-54378498D01*
X139014158Y-54508425D01*
X139057783Y-54563002D01*
X139064977Y-54632500D01*
X139033454Y-54694855D01*
X139014158Y-54711575D01*
X138828597Y-54841505D01*
X138661505Y-55008597D01*
X138525965Y-55202169D01*
X138525964Y-55202171D01*
X138426098Y-55416335D01*
X138426094Y-55416344D01*
X138364938Y-55644586D01*
X138364936Y-55644596D01*
X138344341Y-55879999D01*
X138344341Y-55880000D01*
X138364936Y-56115403D01*
X138364938Y-56115413D01*
X138426094Y-56343655D01*
X138426096Y-56343659D01*
X138426097Y-56343663D01*
X138430000Y-56352032D01*
X138525965Y-56557830D01*
X138525967Y-56557834D01*
X138634281Y-56712521D01*
X138661501Y-56751396D01*
X138661506Y-56751402D01*
X138828597Y-56918493D01*
X138828603Y-56918498D01*
X139014594Y-57048730D01*
X139058219Y-57103307D01*
X139065413Y-57172805D01*
X139033890Y-57235160D01*
X139014595Y-57251880D01*
X138828922Y-57381890D01*
X138828920Y-57381891D01*
X138661891Y-57548920D01*
X138661886Y-57548926D01*
X138526400Y-57742420D01*
X138526399Y-57742422D01*
X138426570Y-57956507D01*
X138426567Y-57956513D01*
X138369364Y-58169999D01*
X138369364Y-58170000D01*
X139266314Y-58170000D01*
X139240507Y-58210156D01*
X139200000Y-58348111D01*
X139200000Y-58491889D01*
X139240507Y-58629844D01*
X139266314Y-58670000D01*
X138369364Y-58670000D01*
X138426567Y-58883486D01*
X138426570Y-58883492D01*
X138526399Y-59097578D01*
X138661894Y-59291082D01*
X138828917Y-59458105D01*
X139015031Y-59588425D01*
X139058656Y-59643003D01*
X139065848Y-59712501D01*
X139034326Y-59774856D01*
X139015031Y-59791575D01*
X138828922Y-59921890D01*
X138828920Y-59921891D01*
X138661891Y-60088920D01*
X138661886Y-60088926D01*
X138526400Y-60282420D01*
X138526399Y-60282422D01*
X138426570Y-60496507D01*
X138426567Y-60496513D01*
X138369364Y-60709999D01*
X138369364Y-60710000D01*
X139266314Y-60710000D01*
X139240507Y-60750156D01*
X139200000Y-60888111D01*
X139200000Y-61031889D01*
X139240507Y-61169844D01*
X139266314Y-61210000D01*
X138369364Y-61210000D01*
X138426567Y-61423486D01*
X138426570Y-61423492D01*
X138526399Y-61637578D01*
X138661894Y-61831082D01*
X138828917Y-61998105D01*
X139014595Y-62128119D01*
X139058219Y-62182696D01*
X139065412Y-62252195D01*
X139033890Y-62314549D01*
X139014595Y-62331269D01*
X138828594Y-62461508D01*
X138661505Y-62628597D01*
X138525965Y-62822169D01*
X138525964Y-62822171D01*
X138426098Y-63036335D01*
X138426094Y-63036344D01*
X138364938Y-63264586D01*
X138364936Y-63264596D01*
X138344341Y-63499999D01*
X138344341Y-63500000D01*
X129500500Y-63500000D01*
X129500500Y-39200001D01*
X135344843Y-39200001D01*
X135365430Y-39435315D01*
X135365432Y-39435326D01*
X135426566Y-39663483D01*
X135426570Y-39663492D01*
X135526400Y-39877579D01*
X135526402Y-39877583D01*
X135585072Y-39961373D01*
X135585073Y-39961373D01*
X136216923Y-39329523D01*
X136240507Y-39409844D01*
X136318239Y-39530798D01*
X136426900Y-39624952D01*
X136557685Y-39684680D01*
X136567466Y-39686086D01*
X135938625Y-40314925D01*
X136022421Y-40373599D01*
X136236507Y-40473429D01*
X136236516Y-40473433D01*
X136464673Y-40534567D01*
X136464684Y-40534569D01*
X136699998Y-40555157D01*
X136700002Y-40555157D01*
X136935315Y-40534569D01*
X136935326Y-40534567D01*
X137163483Y-40473433D01*
X137163492Y-40473429D01*
X137377578Y-40373600D01*
X137377582Y-40373598D01*
X137461373Y-40314926D01*
X137461373Y-40314925D01*
X136832533Y-39686086D01*
X136842315Y-39684680D01*
X136973100Y-39624952D01*
X137081761Y-39530798D01*
X137159493Y-39409844D01*
X137183076Y-39329524D01*
X137814925Y-39961373D01*
X137814926Y-39961373D01*
X137873598Y-39877582D01*
X137873600Y-39877578D01*
X137973429Y-39663492D01*
X137973433Y-39663483D01*
X138034567Y-39435326D01*
X138034569Y-39435315D01*
X138055157Y-39200001D01*
X138055157Y-39200000D01*
X143344341Y-39200000D01*
X143364936Y-39435403D01*
X143364938Y-39435413D01*
X143426094Y-39663655D01*
X143426096Y-39663659D01*
X143426097Y-39663663D01*
X143475029Y-39768597D01*
X143525965Y-39877830D01*
X143525967Y-39877834D01*
X143609957Y-39997783D01*
X143661505Y-40071401D01*
X143828599Y-40238495D01*
X143925384Y-40306264D01*
X144022165Y-40374032D01*
X144022167Y-40374033D01*
X144022170Y-40374035D01*
X144236337Y-40473903D01*
X144464592Y-40535063D01*
X144652918Y-40551539D01*
X144699999Y-40555659D01*
X144700000Y-40555659D01*
X144700001Y-40555659D01*
X144739234Y-40552226D01*
X144935408Y-40535063D01*
X145163663Y-40473903D01*
X145377830Y-40374035D01*
X145571401Y-40238495D01*
X145738495Y-40071401D01*
X145874035Y-39877830D01*
X145973903Y-39663663D01*
X146035063Y-39435408D01*
X146055659Y-39200000D01*
X146035063Y-38964592D01*
X145973903Y-38736337D01*
X145874035Y-38522171D01*
X145815537Y-38438626D01*
X145738494Y-38328597D01*
X145571402Y-38161506D01*
X145571395Y-38161501D01*
X145377834Y-38025967D01*
X145377830Y-38025965D01*
X145377828Y-38025964D01*
X145163663Y-37926097D01*
X145163659Y-37926096D01*
X145163655Y-37926094D01*
X144935413Y-37864938D01*
X144935403Y-37864936D01*
X144700001Y-37844341D01*
X144699999Y-37844341D01*
X144464596Y-37864936D01*
X144464586Y-37864938D01*
X144236344Y-37926094D01*
X144236335Y-37926098D01*
X144022171Y-38025964D01*
X144022169Y-38025965D01*
X143828597Y-38161505D01*
X143661505Y-38328597D01*
X143525965Y-38522169D01*
X143525964Y-38522171D01*
X143426098Y-38736335D01*
X143426094Y-38736344D01*
X143364938Y-38964586D01*
X143364936Y-38964596D01*
X143344341Y-39199999D01*
X143344341Y-39200000D01*
X138055157Y-39200000D01*
X138055157Y-39199998D01*
X138034569Y-38964684D01*
X138034567Y-38964673D01*
X137973433Y-38736516D01*
X137973429Y-38736507D01*
X137873600Y-38522423D01*
X137873599Y-38522421D01*
X137814925Y-38438626D01*
X137814925Y-38438625D01*
X137183076Y-39070475D01*
X137159493Y-38990156D01*
X137081761Y-38869202D01*
X136973100Y-38775048D01*
X136842315Y-38715320D01*
X136832533Y-38713913D01*
X137461373Y-38085073D01*
X137461373Y-38085072D01*
X137377583Y-38026402D01*
X137377579Y-38026400D01*
X137163492Y-37926570D01*
X137163483Y-37926566D01*
X136935326Y-37865432D01*
X136935315Y-37865430D01*
X136700002Y-37844843D01*
X136699998Y-37844843D01*
X136464684Y-37865430D01*
X136464673Y-37865432D01*
X136236516Y-37926566D01*
X136236507Y-37926570D01*
X136022419Y-38026401D01*
X135938625Y-38085072D01*
X136567466Y-38713913D01*
X136557685Y-38715320D01*
X136426900Y-38775048D01*
X136318239Y-38869202D01*
X136240507Y-38990156D01*
X136216923Y-39070475D01*
X135585073Y-38438625D01*
X135585072Y-38438625D01*
X135526401Y-38522419D01*
X135426570Y-38736507D01*
X135426566Y-38736516D01*
X135365432Y-38964673D01*
X135365430Y-38964684D01*
X135344843Y-39199998D01*
X135344843Y-39200001D01*
X129500500Y-39200001D01*
X129500500Y-30224500D01*
X129520185Y-30157461D01*
X129572989Y-30111706D01*
X129624500Y-30100500D01*
X198175500Y-30100500D01*
X198242539Y-30120185D01*
G37*
%TD.AperFunction*%
%TD*%
M02*
