%TF.GenerationSoftware,KiCad,Pcbnew,7.0.6*%
%TF.CreationDate,2023-08-01T18:28:40+01:00*%
%TF.ProjectId,AK4619_DevBoard,414b3436-3139-45f4-9465-76426f617264,rev?*%
%TF.SameCoordinates,Original*%
%TF.FileFunction,Paste,Top*%
%TF.FilePolarity,Positive*%
%FSLAX46Y46*%
G04 Gerber Fmt 4.6, Leading zero omitted, Abs format (unit mm)*
G04 Created by KiCad (PCBNEW 7.0.6) date 2023-08-01 18:28:40*
%MOMM*%
%LPD*%
G01*
G04 APERTURE LIST*
G04 Aperture macros list*
%AMRoundRect*
0 Rectangle with rounded corners*
0 $1 Rounding radius*
0 $2 $3 $4 $5 $6 $7 $8 $9 X,Y pos of 4 corners*
0 Add a 4 corners polygon primitive as box body*
4,1,4,$2,$3,$4,$5,$6,$7,$8,$9,$2,$3,0*
0 Add four circle primitives for the rounded corners*
1,1,$1+$1,$2,$3*
1,1,$1+$1,$4,$5*
1,1,$1+$1,$6,$7*
1,1,$1+$1,$8,$9*
0 Add four rect primitives between the rounded corners*
20,1,$1+$1,$2,$3,$4,$5,0*
20,1,$1+$1,$4,$5,$6,$7,0*
20,1,$1+$1,$6,$7,$8,$9,0*
20,1,$1+$1,$8,$9,$2,$3,0*%
%AMFreePoly0*
4,1,48,0.127555,0.216286,0.145112,0.216286,0.159316,0.205966,0.176016,0.200540,0.186335,0.186335,0.200540,0.176016,0.205966,0.159316,0.216286,0.145112,0.216286,0.127555,0.221712,0.110856,0.221712,0.000473,0.218947,-0.008034,0.220347,-0.016868,0.208562,-0.039997,0.200540,-0.064687,0.193303,-0.069944,0.189243,-0.077914,0.077914,-0.189243,0.069944,-0.193303,0.064687,-0.200540,
0.039997,-0.208562,0.016868,-0.220347,0.008034,-0.218947,-0.000473,-0.221712,-0.110856,-0.221712,-0.127555,-0.216286,-0.145112,-0.216286,-0.159316,-0.205966,-0.176016,-0.200540,-0.186335,-0.186335,-0.200540,-0.176016,-0.205966,-0.159316,-0.216286,-0.145112,-0.216286,-0.127555,-0.221712,-0.110856,-0.221712,0.110856,-0.216286,0.127555,-0.216286,0.145112,-0.205966,0.159316,-0.200540,0.176016,
-0.186335,0.186335,-0.176016,0.200540,-0.159316,0.205966,-0.145112,0.216286,-0.127555,0.216286,-0.110856,0.221712,0.110856,0.221712,0.127555,0.216286,0.127555,0.216286,$1*%
%AMFreePoly1*
4,1,51,0.057385,0.400773,0.064862,0.401958,0.084435,0.391985,0.105327,0.385197,0.109775,0.379073,0.116521,0.375637,0.194236,0.297921,0.197672,0.291177,0.203796,0.286728,0.210584,0.265835,0.220557,0.246263,0.219372,0.238786,0.221712,0.231588,0.221712,-0.231588,0.219372,-0.238786,0.220557,-0.246263,0.210584,-0.265835,0.203796,-0.286728,0.197672,-0.291177,0.194236,-0.297921,
0.116521,-0.375637,0.109775,-0.379073,0.105327,-0.385197,0.084435,-0.391985,0.064862,-0.401958,0.057385,-0.400773,0.050187,-0.403113,-0.127902,-0.403113,-0.142032,-0.398522,-0.156891,-0.398522,-0.168912,-0.389788,-0.183042,-0.385197,-0.191775,-0.373176,-0.203796,-0.364443,-0.208387,-0.350313,-0.217121,-0.338292,-0.217121,-0.323432,-0.221712,-0.309303,-0.221712,0.309303,-0.217121,0.323432,
-0.217121,0.338292,-0.208387,0.350313,-0.203796,0.364443,-0.191775,0.373176,-0.183042,0.385197,-0.168912,0.389788,-0.156891,0.398522,-0.142032,0.398522,-0.127902,0.403113,0.050187,0.403113,0.057385,0.400773,0.057385,0.400773,$1*%
%AMFreePoly2*
4,1,48,0.008034,0.218947,0.016868,0.220347,0.039997,0.208562,0.064687,0.200540,0.069944,0.193303,0.077914,0.189243,0.189243,0.077914,0.193303,0.069944,0.200540,0.064687,0.208562,0.039997,0.220347,0.016868,0.218947,0.008034,0.221712,-0.000473,0.221712,-0.110856,0.216286,-0.127555,0.216286,-0.145112,0.205966,-0.159316,0.200540,-0.176016,0.186335,-0.186335,0.176016,-0.200540,
0.159316,-0.205966,0.145112,-0.216286,0.127555,-0.216286,0.110856,-0.221712,-0.110856,-0.221712,-0.127555,-0.216286,-0.145112,-0.216286,-0.159316,-0.205966,-0.176016,-0.200540,-0.186335,-0.186335,-0.200540,-0.176016,-0.205966,-0.159316,-0.216286,-0.145112,-0.216286,-0.127555,-0.221712,-0.110856,-0.221712,0.110856,-0.216286,0.127555,-0.216286,0.145112,-0.205966,0.159316,-0.200540,0.176016,
-0.186335,0.186335,-0.176016,0.200540,-0.159316,0.205966,-0.145112,0.216286,-0.127555,0.216286,-0.110856,0.221712,-0.000473,0.221712,0.008034,0.218947,0.008034,0.218947,$1*%
%AMFreePoly3*
4,1,51,0.323433,0.217121,0.338292,0.217121,0.350313,0.208387,0.364443,0.203796,0.373176,0.191775,0.385197,0.183042,0.389788,0.168912,0.398522,0.156891,0.398522,0.142031,0.403113,0.127902,0.403113,-0.050187,0.400773,-0.057385,0.401958,-0.064862,0.391985,-0.084434,0.385197,-0.105327,0.379073,-0.109776,0.375637,-0.116520,0.297922,-0.194236,0.291176,-0.197672,0.286728,-0.203796,
0.265836,-0.210584,0.246263,-0.220557,0.238786,-0.219372,0.231588,-0.221712,-0.231588,-0.221712,-0.238786,-0.219372,-0.246263,-0.220557,-0.265835,-0.210584,-0.286728,-0.203796,-0.291177,-0.197672,-0.297921,-0.194236,-0.375637,-0.116521,-0.379073,-0.109775,-0.385197,-0.105327,-0.391985,-0.084435,-0.401958,-0.064862,-0.400773,-0.057385,-0.403113,-0.050187,-0.403113,0.127902,-0.398522,0.142031,
-0.398522,0.156891,-0.389788,0.168912,-0.385197,0.183042,-0.373176,0.191775,-0.364443,0.203796,-0.350313,0.208387,-0.338292,0.217121,-0.323433,0.217121,-0.309303,0.221712,0.309303,0.221712,0.323433,0.217121,0.323433,0.217121,$1*%
%AMFreePoly4*
4,1,51,0.238786,0.219372,0.246263,0.220557,0.265836,0.210584,0.286728,0.203796,0.291176,0.197672,0.297922,0.194236,0.375637,0.116520,0.379073,0.109776,0.385197,0.105327,0.391985,0.084434,0.401958,0.064862,0.400773,0.057385,0.403113,0.050187,0.403113,-0.127902,0.398522,-0.142031,0.398522,-0.156891,0.389788,-0.168912,0.385197,-0.183042,0.373176,-0.191775,0.364443,-0.203796,
0.350313,-0.208387,0.338292,-0.217121,0.323433,-0.217121,0.309303,-0.221712,-0.309303,-0.221712,-0.323433,-0.217121,-0.338292,-0.217121,-0.350313,-0.208387,-0.364443,-0.203796,-0.373176,-0.191775,-0.385197,-0.183042,-0.389788,-0.168912,-0.398522,-0.156891,-0.398522,-0.142031,-0.403113,-0.127902,-0.403113,0.050187,-0.400773,0.057385,-0.401958,0.064862,-0.391985,0.084435,-0.385197,0.105327,
-0.379073,0.109775,-0.375637,0.116521,-0.297921,0.194236,-0.291177,0.197672,-0.286728,0.203796,-0.265835,0.210584,-0.246263,0.220557,-0.238786,0.219372,-0.231588,0.221712,0.231588,0.221712,0.238786,0.219372,0.238786,0.219372,$1*%
%AMFreePoly5*
4,1,48,0.127555,0.216286,0.145112,0.216286,0.159316,0.205966,0.176016,0.200540,0.186335,0.186335,0.200540,0.176016,0.205966,0.159316,0.216286,0.145112,0.216286,0.127555,0.221712,0.110856,0.221712,-0.110856,0.216286,-0.127555,0.216286,-0.145112,0.205966,-0.159316,0.200540,-0.176016,0.186335,-0.186335,0.176016,-0.200540,0.159316,-0.205966,0.145112,-0.216286,0.127555,-0.216286,
0.110856,-0.221712,0.000473,-0.221712,-0.008034,-0.218947,-0.016868,-0.220347,-0.039997,-0.208562,-0.064687,-0.200540,-0.069944,-0.193303,-0.077914,-0.189243,-0.189243,-0.077914,-0.193303,-0.069944,-0.200540,-0.064687,-0.208562,-0.039997,-0.220347,-0.016868,-0.218947,-0.008034,-0.221712,0.000473,-0.221712,0.110856,-0.216286,0.127555,-0.216286,0.145112,-0.205966,0.159316,-0.200540,0.176016,
-0.186335,0.186335,-0.176016,0.200540,-0.159316,0.205966,-0.145112,0.216286,-0.127555,0.216286,-0.110856,0.221712,0.110856,0.221712,0.127555,0.216286,0.127555,0.216286,$1*%
%AMFreePoly6*
4,1,51,0.142032,0.398522,0.156891,0.398522,0.168912,0.389788,0.183042,0.385197,0.191775,0.373176,0.203796,0.364443,0.208387,0.350313,0.217121,0.338292,0.217121,0.323432,0.221712,0.309303,0.221712,-0.309303,0.217121,-0.323432,0.217121,-0.338292,0.208387,-0.350313,0.203796,-0.364443,0.191775,-0.373176,0.183042,-0.385197,0.168912,-0.389788,0.156891,-0.398522,0.142032,-0.398522,
0.127902,-0.403113,-0.050187,-0.403113,-0.057385,-0.400773,-0.064862,-0.401958,-0.084434,-0.391985,-0.105327,-0.385197,-0.109776,-0.379073,-0.116520,-0.375637,-0.194236,-0.297922,-0.197672,-0.291176,-0.203796,-0.286728,-0.210584,-0.265836,-0.220557,-0.246263,-0.219372,-0.238786,-0.221712,-0.231588,-0.221712,0.231588,-0.219372,0.238786,-0.220557,0.246263,-0.210584,0.265836,-0.203796,0.286728,
-0.197672,0.291176,-0.194236,0.297922,-0.116520,0.375637,-0.109776,0.379073,-0.105327,0.385197,-0.084434,0.391985,-0.064862,0.401958,-0.057385,0.400773,-0.050187,0.403113,0.127902,0.403113,0.142032,0.398522,0.142032,0.398522,$1*%
%AMFreePoly7*
4,1,48,0.127555,0.216286,0.145112,0.216286,0.159316,0.205966,0.176016,0.200540,0.186335,0.186335,0.200540,0.176016,0.205966,0.159316,0.216286,0.145112,0.216286,0.127555,0.221712,0.110856,0.221712,-0.110856,0.216286,-0.127555,0.216286,-0.145112,0.205966,-0.159316,0.200540,-0.176016,0.186335,-0.186335,0.176016,-0.200540,0.159316,-0.205966,0.145112,-0.216286,0.127555,-0.216286,
0.110856,-0.221712,-0.110856,-0.221712,-0.127555,-0.216286,-0.145112,-0.216286,-0.159316,-0.205966,-0.176016,-0.200540,-0.186335,-0.186335,-0.200540,-0.176016,-0.205966,-0.159316,-0.216286,-0.145112,-0.216286,-0.127555,-0.221712,-0.110856,-0.221712,-0.000473,-0.218947,0.008034,-0.220347,0.016868,-0.208562,0.039997,-0.200540,0.064687,-0.193303,0.069944,-0.189243,0.077914,-0.077914,0.189243,
-0.069944,0.193303,-0.064687,0.200540,-0.039997,0.208562,-0.016868,0.220347,-0.008034,0.218947,0.000473,0.221712,0.110856,0.221712,0.127555,0.216286,0.127555,0.216286,$1*%
G04 Aperture macros list end*
%ADD10FreePoly0,0.000000*%
%ADD11FreePoly1,0.000000*%
%ADD12FreePoly2,0.000000*%
%ADD13FreePoly3,0.000000*%
%ADD14RoundRect,0.201557X-0.201556X-0.201556X0.201556X-0.201556X0.201556X0.201556X-0.201556X0.201556X0*%
%ADD15FreePoly4,0.000000*%
%ADD16FreePoly5,0.000000*%
%ADD17FreePoly6,0.000000*%
%ADD18FreePoly7,0.000000*%
%ADD19RoundRect,0.062500X-0.375000X-0.062500X0.375000X-0.062500X0.375000X0.062500X-0.375000X0.062500X0*%
%ADD20RoundRect,0.062500X-0.062500X-0.375000X0.062500X-0.375000X0.062500X0.375000X-0.062500X0.375000X0*%
%ADD21RoundRect,0.237500X0.237500X-0.250000X0.237500X0.250000X-0.237500X0.250000X-0.237500X-0.250000X0*%
%ADD22RoundRect,0.237500X0.287500X0.237500X-0.287500X0.237500X-0.287500X-0.237500X0.287500X-0.237500X0*%
%ADD23RoundRect,0.237500X0.300000X0.237500X-0.300000X0.237500X-0.300000X-0.237500X0.300000X-0.237500X0*%
%ADD24RoundRect,0.237500X-0.300000X-0.237500X0.300000X-0.237500X0.300000X0.237500X-0.300000X0.237500X0*%
%ADD25RoundRect,0.237500X-0.237500X0.300000X-0.237500X-0.300000X0.237500X-0.300000X0.237500X0.300000X0*%
G04 APERTURE END LIST*
D10*
%TO.C,U2*%
X163725000Y-71725000D03*
D11*
X163725000Y-72500000D03*
X163725000Y-73500000D03*
D12*
X163725000Y-74275000D03*
D13*
X164500000Y-71725000D03*
D14*
X164500000Y-72500000D03*
X164500000Y-73500000D03*
D15*
X164500000Y-74275000D03*
D13*
X165500000Y-71725000D03*
D14*
X165500000Y-72500000D03*
X165500000Y-73500000D03*
D15*
X165500000Y-74275000D03*
D16*
X166275000Y-71725000D03*
D17*
X166275000Y-72500000D03*
X166275000Y-73500000D03*
D18*
X166275000Y-74275000D03*
D19*
X162562500Y-71250000D03*
X162562500Y-71750000D03*
X162562500Y-72250000D03*
X162562500Y-72750000D03*
X162562500Y-73250000D03*
X162562500Y-73750000D03*
X162562500Y-74250000D03*
X162562500Y-74750000D03*
D20*
X163250000Y-75437500D03*
X163750000Y-75437500D03*
X164250000Y-75437500D03*
X164750000Y-75437500D03*
X165250000Y-75437500D03*
X165750000Y-75437500D03*
X166250000Y-75437500D03*
X166750000Y-75437500D03*
D19*
X167437500Y-74750000D03*
X167437500Y-74250000D03*
X167437500Y-73750000D03*
X167437500Y-73250000D03*
X167437500Y-72750000D03*
X167437500Y-72250000D03*
X167437500Y-71750000D03*
X167437500Y-71250000D03*
D20*
X166750000Y-70562500D03*
X166250000Y-70562500D03*
X165750000Y-70562500D03*
X165250000Y-70562500D03*
X164750000Y-70562500D03*
X164250000Y-70562500D03*
X163750000Y-70562500D03*
X163250000Y-70562500D03*
%TD*%
D21*
%TO.C,R1*%
X166300000Y-67312500D03*
X166300000Y-65487500D03*
%TD*%
D22*
%TO.C,L1*%
X159575000Y-68300000D03*
X157825000Y-68300000D03*
%TD*%
D23*
%TO.C,C24*%
X170337500Y-71700000D03*
X172062500Y-71700000D03*
%TD*%
%TO.C,C23*%
X170337500Y-73300000D03*
X172062500Y-73300000D03*
%TD*%
%TO.C,C22*%
X170337500Y-75100000D03*
X172062500Y-75100000D03*
%TD*%
%TO.C,C19*%
X170337500Y-76800000D03*
X172062500Y-76800000D03*
%TD*%
D24*
%TO.C,C18*%
X157837500Y-70000000D03*
X159562500Y-70000000D03*
%TD*%
%TO.C,C17*%
X157837500Y-71700000D03*
X159562500Y-71700000D03*
%TD*%
%TO.C,C16*%
X172062500Y-78400000D03*
X170337500Y-78400000D03*
%TD*%
D23*
%TO.C,C15*%
X159562500Y-73300000D03*
X157837500Y-73300000D03*
%TD*%
D25*
%TO.C,C12*%
X159400000Y-80437500D03*
X159400000Y-82162500D03*
%TD*%
%TO.C,C11*%
X162600000Y-80437500D03*
X162600000Y-82162500D03*
%TD*%
%TO.C,C10*%
X165800000Y-80437500D03*
X165800000Y-82162500D03*
%TD*%
%TO.C,C9*%
X161000000Y-80437500D03*
X161000000Y-82162500D03*
%TD*%
%TO.C,C8*%
X164200000Y-80437500D03*
X164200000Y-82162500D03*
%TD*%
%TO.C,C7*%
X167400000Y-80437500D03*
X167400000Y-82162500D03*
%TD*%
%TO.C,C6*%
X170600000Y-80437500D03*
X170600000Y-82162500D03*
%TD*%
%TO.C,C5*%
X168000000Y-65537500D03*
X168000000Y-67262500D03*
%TD*%
D23*
%TO.C,C4*%
X170337500Y-66900000D03*
X172062500Y-66900000D03*
%TD*%
%TO.C,C3*%
X170337500Y-68500000D03*
X172062500Y-68500000D03*
%TD*%
D25*
%TO.C,C2*%
X169000000Y-80437500D03*
X169000000Y-82162500D03*
%TD*%
D23*
%TO.C,C1*%
X170337500Y-70100000D03*
X172062500Y-70100000D03*
%TD*%
M02*
