%TF.GenerationSoftware,KiCad,Pcbnew,7.0.7*%
%TF.CreationDate,2023-08-23T14:17:52+01:00*%
%TF.ProjectId,AK4619_DevBoard,414b3436-3139-45f4-9465-76426f617264,rev?*%
%TF.SameCoordinates,Original*%
%TF.FileFunction,Soldermask,Top*%
%TF.FilePolarity,Negative*%
%FSLAX46Y46*%
G04 Gerber Fmt 4.6, Leading zero omitted, Abs format (unit mm)*
G04 Created by KiCad (PCBNEW 7.0.7) date 2023-08-23 14:17:52*
%MOMM*%
%LPD*%
G01*
G04 APERTURE LIST*
G04 Aperture macros list*
%AMRoundRect*
0 Rectangle with rounded corners*
0 $1 Rounding radius*
0 $2 $3 $4 $5 $6 $7 $8 $9 X,Y pos of 4 corners*
0 Add a 4 corners polygon primitive as box body*
4,1,4,$2,$3,$4,$5,$6,$7,$8,$9,$2,$3,0*
0 Add four circle primitives for the rounded corners*
1,1,$1+$1,$2,$3*
1,1,$1+$1,$4,$5*
1,1,$1+$1,$6,$7*
1,1,$1+$1,$8,$9*
0 Add four rect primitives between the rounded corners*
20,1,$1+$1,$2,$3,$4,$5,0*
20,1,$1+$1,$4,$5,$6,$7,0*
20,1,$1+$1,$6,$7,$8,$9,0*
20,1,$1+$1,$8,$9,$2,$3,0*%
%AMFreePoly0*
4,1,19,0.500000,-0.750000,0.000000,-0.750000,0.000000,-0.744911,-0.071157,-0.744911,-0.207708,-0.704816,-0.327430,-0.627875,-0.420627,-0.520320,-0.479746,-0.390866,-0.500000,-0.250000,-0.500000,0.250000,-0.479746,0.390866,-0.420627,0.520320,-0.327430,0.627875,-0.207708,0.704816,-0.071157,0.744911,0.000000,0.744911,0.000000,0.750000,0.500000,0.750000,0.500000,-0.750000,0.500000,-0.750000,
$1*%
%AMFreePoly1*
4,1,19,0.000000,0.744911,0.071157,0.744911,0.207708,0.704816,0.327430,0.627875,0.420627,0.520320,0.479746,0.390866,0.500000,0.250000,0.500000,-0.250000,0.479746,-0.390866,0.420627,-0.520320,0.327430,-0.627875,0.207708,-0.704816,0.071157,-0.744911,0.000000,-0.744911,0.000000,-0.750000,-0.500000,-0.750000,-0.500000,0.750000,0.000000,0.750000,0.000000,0.744911,0.000000,0.744911,
$1*%
G04 Aperture macros list end*
%ADD10R,1.700000X1.700000*%
%ADD11O,1.700000X1.700000*%
%ADD12FreePoly0,0.000000*%
%ADD13FreePoly1,0.000000*%
%ADD14RoundRect,0.237500X0.250000X0.237500X-0.250000X0.237500X-0.250000X-0.237500X0.250000X-0.237500X0*%
%ADD15RoundRect,0.237500X0.300000X0.237500X-0.300000X0.237500X-0.300000X-0.237500X0.300000X-0.237500X0*%
%ADD16RoundRect,0.150000X0.825000X0.150000X-0.825000X0.150000X-0.825000X-0.150000X0.825000X-0.150000X0*%
%ADD17RoundRect,0.237500X-0.300000X-0.237500X0.300000X-0.237500X0.300000X0.237500X-0.300000X0.237500X0*%
%ADD18RoundRect,0.237500X0.237500X-0.250000X0.237500X0.250000X-0.237500X0.250000X-0.237500X-0.250000X0*%
%ADD19C,1.700000*%
%ADD20RoundRect,0.237500X-0.250000X-0.237500X0.250000X-0.237500X0.250000X0.237500X-0.250000X0.237500X0*%
%ADD21RoundRect,0.237500X-0.237500X0.300000X-0.237500X-0.300000X0.237500X-0.300000X0.237500X0.300000X0*%
%ADD22RoundRect,0.237500X0.237500X-0.300000X0.237500X0.300000X-0.237500X0.300000X-0.237500X-0.300000X0*%
%ADD23RoundRect,0.062500X-0.375000X-0.062500X0.375000X-0.062500X0.375000X0.062500X-0.375000X0.062500X0*%
%ADD24RoundRect,0.062500X-0.062500X-0.375000X0.062500X-0.375000X0.062500X0.375000X-0.062500X0.375000X0*%
%ADD25RoundRect,0.100000X-1.450000X-1.450000X1.450000X-1.450000X1.450000X1.450000X-1.450000X1.450000X0*%
%ADD26C,0.400000*%
%ADD27RoundRect,0.237500X0.287500X0.237500X-0.287500X0.237500X-0.287500X-0.237500X0.287500X-0.237500X0*%
G04 APERTURE END LIST*
D10*
%TO.C,J2*%
X138950000Y-47775000D03*
D11*
X141490000Y-47775000D03*
%TD*%
D12*
%TO.C,JP7*%
X179850000Y-72800000D03*
D13*
X181150000Y-72800000D03*
%TD*%
D14*
%TO.C,R8*%
X160612500Y-97300000D03*
X158787500Y-97300000D03*
%TD*%
D15*
%TO.C,C20*%
X172112500Y-71562500D03*
X170387500Y-71562500D03*
%TD*%
D12*
%TO.C,JP6*%
X146350000Y-112100000D03*
D13*
X147650000Y-112100000D03*
%TD*%
D16*
%TO.C,U1*%
X166775000Y-56710000D03*
X166775000Y-55440000D03*
X166775000Y-54170000D03*
X166775000Y-52900000D03*
X166775000Y-51630000D03*
X166775000Y-50360000D03*
X166775000Y-49090000D03*
X161825000Y-49090000D03*
X161825000Y-50360000D03*
X161825000Y-51630000D03*
X161825000Y-52900000D03*
X161825000Y-54170000D03*
X161825000Y-55440000D03*
X161825000Y-56710000D03*
%TD*%
D12*
%TO.C,JP11*%
X192350000Y-68100000D03*
D13*
X193650000Y-68100000D03*
%TD*%
D17*
%TO.C,C2*%
X157237500Y-52900000D03*
X158962500Y-52900000D03*
%TD*%
D10*
%TO.C,J8*%
X185420000Y-52860000D03*
D11*
X187960000Y-52860000D03*
X185420000Y-55400000D03*
X187960000Y-55400000D03*
X185420000Y-57940000D03*
X187960000Y-57940000D03*
X185420000Y-60480000D03*
X187960000Y-60480000D03*
X185420000Y-63020000D03*
X187960000Y-63020000D03*
X185420000Y-65560000D03*
X187960000Y-65560000D03*
X185420000Y-68100000D03*
X187960000Y-68100000D03*
X185420000Y-70640000D03*
X187960000Y-70640000D03*
X185420000Y-73180000D03*
X187960000Y-73180000D03*
X185420000Y-75720000D03*
X187960000Y-75720000D03*
%TD*%
D15*
%TO.C,C19*%
X172112500Y-78262500D03*
X170387500Y-78262500D03*
%TD*%
D18*
%TO.C,R1*%
X166350000Y-68775000D03*
X166350000Y-66950000D03*
%TD*%
D19*
%TO.C,TP1*%
X136700000Y-56500000D03*
%TD*%
D14*
%TO.C,R15*%
X159012500Y-55100000D03*
X157187500Y-55100000D03*
%TD*%
D15*
%TO.C,C4*%
X172112500Y-74762500D03*
X170387500Y-74762500D03*
%TD*%
D20*
%TO.C,R10*%
X171087500Y-98900000D03*
X172912500Y-98900000D03*
%TD*%
D17*
%TO.C,C17*%
X157887500Y-73162500D03*
X159612500Y-73162500D03*
%TD*%
D21*
%TO.C,C11*%
X164250000Y-81900000D03*
X164250000Y-83625000D03*
%TD*%
D20*
%TO.C,R11*%
X171087500Y-94100000D03*
X172912500Y-94100000D03*
%TD*%
D22*
%TO.C,C16*%
X165600000Y-123162500D03*
X165600000Y-121437500D03*
%TD*%
D17*
%TO.C,C13*%
X156437500Y-117600000D03*
X158162500Y-117600000D03*
%TD*%
D14*
%TO.C,R12*%
X160612500Y-94100000D03*
X158787500Y-94100000D03*
%TD*%
D12*
%TO.C,JP12*%
X192350000Y-85900000D03*
D13*
X193650000Y-85900000D03*
%TD*%
D12*
%TO.C,JP8*%
X179850000Y-75700000D03*
D13*
X181150000Y-75700000D03*
%TD*%
D14*
%TO.C,R19*%
X159012500Y-56700000D03*
X157187500Y-56700000D03*
%TD*%
%TO.C,R9*%
X160612500Y-100500000D03*
X158787500Y-100500000D03*
%TD*%
D15*
%TO.C,C3*%
X172112500Y-73162500D03*
X170387500Y-73162500D03*
%TD*%
D21*
%TO.C,C12*%
X161050000Y-81900000D03*
X161050000Y-83625000D03*
%TD*%
D15*
%TO.C,C22*%
X172112500Y-68362500D03*
X170387500Y-68362500D03*
%TD*%
D14*
%TO.C,R6*%
X160612500Y-95700000D03*
X158787500Y-95700000D03*
%TD*%
D15*
%TO.C,C1*%
X171362500Y-52900000D03*
X169637500Y-52900000D03*
%TD*%
%TO.C,C21*%
X172112500Y-69962500D03*
X170387500Y-69962500D03*
%TD*%
D10*
%TO.C,J5*%
X168100000Y-40425000D03*
D11*
X165560000Y-40425000D03*
X163020000Y-40425000D03*
X160480000Y-40425000D03*
%TD*%
D21*
%TO.C,C7*%
X162650000Y-81900000D03*
X162650000Y-83625000D03*
%TD*%
%TO.C,C5*%
X169050000Y-81900000D03*
X169050000Y-83625000D03*
%TD*%
D20*
%TO.C,R21*%
X169587500Y-49100000D03*
X171412500Y-49100000D03*
%TD*%
D14*
%TO.C,R13*%
X160612500Y-98900000D03*
X158787500Y-98900000D03*
%TD*%
D23*
%TO.C,U4*%
X162612500Y-72712500D03*
X162612500Y-73212500D03*
X162612500Y-73712500D03*
X162612500Y-74212500D03*
X162612500Y-74712500D03*
X162612500Y-75212500D03*
X162612500Y-75712500D03*
X162612500Y-76212500D03*
D24*
X163300000Y-76900000D03*
X163800000Y-76900000D03*
X164300000Y-76900000D03*
X164800000Y-76900000D03*
X165300000Y-76900000D03*
X165800000Y-76900000D03*
X166300000Y-76900000D03*
X166800000Y-76900000D03*
D23*
X167487500Y-76212500D03*
X167487500Y-75712500D03*
X167487500Y-75212500D03*
X167487500Y-74712500D03*
X167487500Y-74212500D03*
X167487500Y-73712500D03*
X167487500Y-73212500D03*
X167487500Y-72712500D03*
D24*
X166800000Y-72025000D03*
X166300000Y-72025000D03*
X165800000Y-72025000D03*
X165300000Y-72025000D03*
X164800000Y-72025000D03*
X164300000Y-72025000D03*
X163800000Y-72025000D03*
X163300000Y-72025000D03*
D25*
X165050000Y-74462500D03*
%TD*%
D21*
%TO.C,C6*%
X165850000Y-81900000D03*
X165850000Y-83625000D03*
%TD*%
D26*
%TO.C,U3*%
X166500000Y-115000000D03*
X166500000Y-116000000D03*
X166500000Y-117000000D03*
X166500000Y-118000000D03*
X165500000Y-114000000D03*
X165500000Y-115000000D03*
X165500000Y-116000000D03*
X165500000Y-117000000D03*
X165500000Y-118000000D03*
X164500000Y-114000000D03*
X164500000Y-115000000D03*
X164500000Y-116000000D03*
X164500000Y-117000000D03*
X164500000Y-118000000D03*
X163500000Y-114000000D03*
X163500000Y-115000000D03*
X163500000Y-116000000D03*
X163500000Y-117000000D03*
X163500000Y-118000000D03*
X162500000Y-114000000D03*
X162500000Y-115000000D03*
X162500000Y-116000000D03*
X162500000Y-117000000D03*
X162500000Y-118000000D03*
%TD*%
D14*
%TO.C,R14*%
X159012500Y-50700000D03*
X157187500Y-50700000D03*
%TD*%
D27*
%TO.C,L1*%
X159625000Y-69762500D03*
X157875000Y-69762500D03*
%TD*%
D20*
%TO.C,R16*%
X169587500Y-55100000D03*
X171412500Y-55100000D03*
%TD*%
D12*
%TO.C,JP2*%
X146350000Y-100800000D03*
D13*
X147650000Y-100800000D03*
%TD*%
D12*
%TO.C,JP1*%
X133750000Y-70800000D03*
D13*
X135050000Y-70800000D03*
%TD*%
D21*
%TO.C,C8*%
X159450000Y-81900000D03*
X159450000Y-83625000D03*
%TD*%
D20*
%TO.C,R20*%
X169587500Y-56700000D03*
X171412500Y-56700000D03*
%TD*%
D10*
%TO.C,J7*%
X139700000Y-85880000D03*
D11*
X142240000Y-85880000D03*
X139700000Y-88420000D03*
X142240000Y-88420000D03*
X139700000Y-90960000D03*
X142240000Y-90960000D03*
X139700000Y-93500000D03*
X142240000Y-93500000D03*
X139700000Y-96040000D03*
X142240000Y-96040000D03*
X139700000Y-98580000D03*
X142240000Y-98580000D03*
X139700000Y-101120000D03*
X142240000Y-101120000D03*
X139700000Y-103660000D03*
X142240000Y-103660000D03*
X139700000Y-106200000D03*
X142240000Y-106200000D03*
X139700000Y-108740000D03*
X142240000Y-108740000D03*
X139700000Y-111280000D03*
X142240000Y-111280000D03*
X139700000Y-113820000D03*
X142240000Y-113820000D03*
X139700000Y-116360000D03*
X142240000Y-116360000D03*
X139700000Y-118900000D03*
X142240000Y-118900000D03*
X139700000Y-121440000D03*
X142240000Y-121440000D03*
%TD*%
D12*
%TO.C,JP5*%
X146350000Y-109200000D03*
D13*
X147650000Y-109200000D03*
%TD*%
D19*
%TO.C,TP2*%
X142500000Y-56500000D03*
%TD*%
D20*
%TO.C,R17*%
X169587500Y-50700000D03*
X171412500Y-50700000D03*
%TD*%
D12*
%TO.C,JP4*%
X146350000Y-106400000D03*
D13*
X147650000Y-106400000D03*
%TD*%
D12*
%TO.C,JP3*%
X146350000Y-103600000D03*
D13*
X147650000Y-103600000D03*
%TD*%
D20*
%TO.C,R5*%
X171087500Y-92500000D03*
X172912500Y-92500000D03*
%TD*%
D16*
%TO.C,U2*%
X168375000Y-100310000D03*
X168375000Y-99040000D03*
X168375000Y-97770000D03*
X168375000Y-96500000D03*
X168375000Y-95230000D03*
X168375000Y-93960000D03*
X168375000Y-92690000D03*
X163425000Y-92690000D03*
X163425000Y-93960000D03*
X163425000Y-95230000D03*
X163425000Y-96500000D03*
X163425000Y-97770000D03*
X163425000Y-99040000D03*
X163425000Y-100310000D03*
%TD*%
D20*
%TO.C,R3*%
X171087500Y-100500000D03*
X172912500Y-100500000D03*
%TD*%
D21*
%TO.C,C23*%
X168050000Y-67000000D03*
X168050000Y-68725000D03*
%TD*%
D10*
%TO.C,J3*%
X169800000Y-104400000D03*
D11*
X167260000Y-104400000D03*
X164720000Y-104400000D03*
X162180000Y-104400000D03*
%TD*%
D12*
%TO.C,JP10*%
X192350000Y-63000000D03*
D13*
X193650000Y-63000000D03*
%TD*%
D14*
%TO.C,R18*%
X159012500Y-49100000D03*
X157187500Y-49100000D03*
%TD*%
D20*
%TO.C,R4*%
X171087500Y-95700000D03*
X172912500Y-95700000D03*
%TD*%
D14*
%TO.C,R7*%
X160612500Y-92500000D03*
X158787500Y-92500000D03*
%TD*%
D17*
%TO.C,C15*%
X157887500Y-71462500D03*
X159612500Y-71462500D03*
%TD*%
D20*
%TO.C,R2*%
X171087500Y-97300000D03*
X172912500Y-97300000D03*
%TD*%
D21*
%TO.C,C14*%
X163500000Y-109137500D03*
X163500000Y-110862500D03*
%TD*%
D15*
%TO.C,C24*%
X159612500Y-74762500D03*
X157887500Y-74762500D03*
%TD*%
%TO.C,C18*%
X172112500Y-76562500D03*
X170387500Y-76562500D03*
%TD*%
D10*
%TO.C,J9*%
X185420000Y-80800000D03*
D11*
X187960000Y-80800000D03*
X185420000Y-83340000D03*
X187960000Y-83340000D03*
X185420000Y-85880000D03*
X187960000Y-85880000D03*
X185420000Y-88420000D03*
X187960000Y-88420000D03*
X185420000Y-90960000D03*
X187960000Y-90960000D03*
X185420000Y-93500000D03*
X187960000Y-93500000D03*
X185420000Y-96040000D03*
X187960000Y-96040000D03*
X185420000Y-98580000D03*
X187960000Y-98580000D03*
X185420000Y-101120000D03*
X187960000Y-101120000D03*
X185420000Y-103660000D03*
X187960000Y-103660000D03*
X185420000Y-106200000D03*
X187960000Y-106200000D03*
X185420000Y-108740000D03*
X187960000Y-108740000D03*
X185420000Y-111280000D03*
X187960000Y-111280000D03*
X185420000Y-113820000D03*
X187960000Y-113820000D03*
X185420000Y-116360000D03*
X187960000Y-116360000D03*
X185420000Y-118900000D03*
X187960000Y-118900000D03*
X185420000Y-121440000D03*
X187960000Y-121440000D03*
%TD*%
D12*
%TO.C,JP9*%
X179950000Y-108800000D03*
D13*
X181250000Y-108800000D03*
%TD*%
D10*
%TO.C,J6*%
X139700000Y-63020000D03*
D11*
X142240000Y-63020000D03*
X139700000Y-65560000D03*
X142240000Y-65560000D03*
X139700000Y-68100000D03*
X142240000Y-68100000D03*
X139700000Y-70640000D03*
X142240000Y-70640000D03*
X139700000Y-73180000D03*
X142240000Y-73180000D03*
X139700000Y-75720000D03*
X142240000Y-75720000D03*
X139700000Y-78260000D03*
X142240000Y-78260000D03*
X139700000Y-80800000D03*
X142240000Y-80800000D03*
%TD*%
D21*
%TO.C,C10*%
X167450000Y-81900000D03*
X167450000Y-83625000D03*
%TD*%
D10*
%TO.C,J4*%
X169200000Y-60825000D03*
D11*
X166660000Y-60825000D03*
X164120000Y-60825000D03*
X161580000Y-60825000D03*
%TD*%
D17*
%TO.C,C25*%
X170387500Y-79862500D03*
X172112500Y-79862500D03*
%TD*%
D21*
%TO.C,C9*%
X170650000Y-81900000D03*
X170650000Y-83625000D03*
%TD*%
D10*
%TO.C,J1*%
X166825000Y-45225000D03*
D11*
X164285000Y-45225000D03*
X161745000Y-45225000D03*
%TD*%
M02*
