%TF.GenerationSoftware,KiCad,Pcbnew,7.0.6*%
%TF.CreationDate,2023-08-01T18:28:40+01:00*%
%TF.ProjectId,AK4619_DevBoard,414b3436-3139-45f4-9465-76426f617264,rev?*%
%TF.SameCoordinates,Original*%
%TF.FileFunction,Soldermask,Bot*%
%TF.FilePolarity,Negative*%
%FSLAX46Y46*%
G04 Gerber Fmt 4.6, Leading zero omitted, Abs format (unit mm)*
G04 Created by KiCad (PCBNEW 7.0.6) date 2023-08-01 18:28:40*
%MOMM*%
%LPD*%
G01*
G04 APERTURE LIST*
%ADD10C,1.700000*%
%ADD11R,1.700000X1.700000*%
%ADD12O,1.700000X1.700000*%
G04 APERTURE END LIST*
D10*
%TO.C,TP2*%
X144700000Y-39200000D03*
%TD*%
%TO.C,TP1*%
X136700000Y-39200000D03*
%TD*%
D11*
%TO.C,J2*%
X177825000Y-78740000D03*
D12*
X177825000Y-81280000D03*
X177825000Y-83820000D03*
X177825000Y-86360000D03*
%TD*%
%TO.C,J1*%
X177800000Y-63500000D03*
X177800000Y-66040000D03*
X177800000Y-68580000D03*
D11*
X177800000Y-71120000D03*
%TD*%
%TO.C,J10*%
X185420000Y-63500000D03*
D12*
X187960000Y-63500000D03*
X185420000Y-66040000D03*
X187960000Y-66040000D03*
X185420000Y-68580000D03*
X187960000Y-68580000D03*
X185420000Y-71120000D03*
X187960000Y-71120000D03*
X185420000Y-73660000D03*
X187960000Y-73660000D03*
X185420000Y-76200000D03*
X187960000Y-76200000D03*
X185420000Y-78740000D03*
X187960000Y-78740000D03*
X185420000Y-81280000D03*
X187960000Y-81280000D03*
X185420000Y-83820000D03*
X187960000Y-83820000D03*
X185420000Y-86360000D03*
X187960000Y-86360000D03*
X185420000Y-88900000D03*
X187960000Y-88900000D03*
X185420000Y-91440000D03*
X187960000Y-91440000D03*
X185420000Y-93980000D03*
X187960000Y-93980000D03*
X185420000Y-96520000D03*
X187960000Y-96520000D03*
X185420000Y-99060000D03*
X187960000Y-99060000D03*
X185420000Y-101600000D03*
X187960000Y-101600000D03*
X185420000Y-104140000D03*
X187960000Y-104140000D03*
%TD*%
D11*
%TO.C,J7*%
X185420000Y-35560000D03*
D12*
X187960000Y-35560000D03*
X185420000Y-38100000D03*
X187960000Y-38100000D03*
X185420000Y-40640000D03*
X187960000Y-40640000D03*
X185420000Y-43180000D03*
X187960000Y-43180000D03*
X185420000Y-45720000D03*
X187960000Y-45720000D03*
X185420000Y-48260000D03*
X187960000Y-48260000D03*
X185420000Y-50800000D03*
X187960000Y-50800000D03*
X185420000Y-53340000D03*
X187960000Y-53340000D03*
X185420000Y-55880000D03*
X187960000Y-55880000D03*
X185420000Y-58420000D03*
X187960000Y-58420000D03*
%TD*%
D11*
%TO.C,J8*%
X139700000Y-45720000D03*
D12*
X142240000Y-45720000D03*
X139700000Y-48260000D03*
X142240000Y-48260000D03*
X139700000Y-50800000D03*
X142240000Y-50800000D03*
X139700000Y-53340000D03*
X142240000Y-53340000D03*
X139700000Y-55880000D03*
X142240000Y-55880000D03*
X139700000Y-58420000D03*
X142240000Y-58420000D03*
X139700000Y-60960000D03*
X142240000Y-60960000D03*
X139700000Y-63500000D03*
X142240000Y-63500000D03*
%TD*%
D11*
%TO.C,J9*%
X139700000Y-68580000D03*
D12*
X142240000Y-68580000D03*
X139700000Y-71120000D03*
X142240000Y-71120000D03*
X139700000Y-73660000D03*
X142240000Y-73660000D03*
X139700000Y-76200000D03*
X142240000Y-76200000D03*
X139700000Y-78740000D03*
X142240000Y-78740000D03*
X139700000Y-81280000D03*
X142240000Y-81280000D03*
X139700000Y-83820000D03*
X142240000Y-83820000D03*
X139700000Y-86360000D03*
X142240000Y-86360000D03*
X139700000Y-88900000D03*
X142240000Y-88900000D03*
X139700000Y-91440000D03*
X142240000Y-91440000D03*
X139700000Y-93980000D03*
X142240000Y-93980000D03*
X139700000Y-96520000D03*
X142240000Y-96520000D03*
X139700000Y-99060000D03*
X142240000Y-99060000D03*
X139700000Y-101600000D03*
X142240000Y-101600000D03*
X139700000Y-104140000D03*
X142240000Y-104140000D03*
%TD*%
M02*
