%TF.GenerationSoftware,KiCad,Pcbnew,7.0.6*%
%TF.CreationDate,2023-08-01T18:28:40+01:00*%
%TF.ProjectId,AK4619_DevBoard,414b3436-3139-45f4-9465-76426f617264,rev?*%
%TF.SameCoordinates,Original*%
%TF.FileFunction,Legend,Top*%
%TF.FilePolarity,Positive*%
%FSLAX46Y46*%
G04 Gerber Fmt 4.6, Leading zero omitted, Abs format (unit mm)*
G04 Created by KiCad (PCBNEW 7.0.6) date 2023-08-01 18:28:40*
%MOMM*%
%LPD*%
G01*
G04 APERTURE LIST*
%ADD10C,0.100000*%
%ADD11C,0.150000*%
%ADD12C,0.120000*%
G04 APERTURE END LIST*
D10*
X150700000Y-34600000D02*
X177000000Y-34600000D01*
X177000000Y-42400000D01*
X150700000Y-42400000D01*
X150700000Y-34600000D01*
D11*
X155076189Y-36964104D02*
X155552379Y-36964104D01*
X154980951Y-37249819D02*
X155314284Y-36249819D01*
X155314284Y-36249819D02*
X155647617Y-37249819D01*
X155980951Y-37249819D02*
X155980951Y-36249819D01*
X156552379Y-37249819D02*
X156123808Y-36678390D01*
X156552379Y-36249819D02*
X155980951Y-36821247D01*
X157409522Y-36583152D02*
X157409522Y-37249819D01*
X157171427Y-36202200D02*
X156933332Y-36916485D01*
X156933332Y-36916485D02*
X157552379Y-36916485D01*
X158409522Y-36249819D02*
X157933332Y-36249819D01*
X157933332Y-36249819D02*
X157885713Y-36726009D01*
X157885713Y-36726009D02*
X157933332Y-36678390D01*
X157933332Y-36678390D02*
X158028570Y-36630771D01*
X158028570Y-36630771D02*
X158266665Y-36630771D01*
X158266665Y-36630771D02*
X158361903Y-36678390D01*
X158361903Y-36678390D02*
X158409522Y-36726009D01*
X158409522Y-36726009D02*
X158457141Y-36821247D01*
X158457141Y-36821247D02*
X158457141Y-37059342D01*
X158457141Y-37059342D02*
X158409522Y-37154580D01*
X158409522Y-37154580D02*
X158361903Y-37202200D01*
X158361903Y-37202200D02*
X158266665Y-37249819D01*
X158266665Y-37249819D02*
X158028570Y-37249819D01*
X158028570Y-37249819D02*
X157933332Y-37202200D01*
X157933332Y-37202200D02*
X157885713Y-37154580D01*
X159409522Y-37249819D02*
X158838094Y-37249819D01*
X159123808Y-37249819D02*
X159123808Y-36249819D01*
X159123808Y-36249819D02*
X159028570Y-36392676D01*
X159028570Y-36392676D02*
X158933332Y-36487914D01*
X158933332Y-36487914D02*
X158838094Y-36535533D01*
X159885713Y-37249819D02*
X160076189Y-37249819D01*
X160076189Y-37249819D02*
X160171427Y-37202200D01*
X160171427Y-37202200D02*
X160219046Y-37154580D01*
X160219046Y-37154580D02*
X160314284Y-37011723D01*
X160314284Y-37011723D02*
X160361903Y-36821247D01*
X160361903Y-36821247D02*
X160361903Y-36440295D01*
X160361903Y-36440295D02*
X160314284Y-36345057D01*
X160314284Y-36345057D02*
X160266665Y-36297438D01*
X160266665Y-36297438D02*
X160171427Y-36249819D01*
X160171427Y-36249819D02*
X159980951Y-36249819D01*
X159980951Y-36249819D02*
X159885713Y-36297438D01*
X159885713Y-36297438D02*
X159838094Y-36345057D01*
X159838094Y-36345057D02*
X159790475Y-36440295D01*
X159790475Y-36440295D02*
X159790475Y-36678390D01*
X159790475Y-36678390D02*
X159838094Y-36773628D01*
X159838094Y-36773628D02*
X159885713Y-36821247D01*
X159885713Y-36821247D02*
X159980951Y-36868866D01*
X159980951Y-36868866D02*
X160171427Y-36868866D01*
X160171427Y-36868866D02*
X160266665Y-36821247D01*
X160266665Y-36821247D02*
X160314284Y-36773628D01*
X160314284Y-36773628D02*
X160361903Y-36678390D01*
X161409523Y-36249819D02*
X161980951Y-36249819D01*
X161695237Y-37249819D02*
X161695237Y-36249819D01*
X162695237Y-37202200D02*
X162599999Y-37249819D01*
X162599999Y-37249819D02*
X162409523Y-37249819D01*
X162409523Y-37249819D02*
X162314285Y-37202200D01*
X162314285Y-37202200D02*
X162266666Y-37106961D01*
X162266666Y-37106961D02*
X162266666Y-36726009D01*
X162266666Y-36726009D02*
X162314285Y-36630771D01*
X162314285Y-36630771D02*
X162409523Y-36583152D01*
X162409523Y-36583152D02*
X162599999Y-36583152D01*
X162599999Y-36583152D02*
X162695237Y-36630771D01*
X162695237Y-36630771D02*
X162742856Y-36726009D01*
X162742856Y-36726009D02*
X162742856Y-36821247D01*
X162742856Y-36821247D02*
X162266666Y-36916485D01*
X163123809Y-37202200D02*
X163219047Y-37249819D01*
X163219047Y-37249819D02*
X163409523Y-37249819D01*
X163409523Y-37249819D02*
X163504761Y-37202200D01*
X163504761Y-37202200D02*
X163552380Y-37106961D01*
X163552380Y-37106961D02*
X163552380Y-37059342D01*
X163552380Y-37059342D02*
X163504761Y-36964104D01*
X163504761Y-36964104D02*
X163409523Y-36916485D01*
X163409523Y-36916485D02*
X163266666Y-36916485D01*
X163266666Y-36916485D02*
X163171428Y-36868866D01*
X163171428Y-36868866D02*
X163123809Y-36773628D01*
X163123809Y-36773628D02*
X163123809Y-36726009D01*
X163123809Y-36726009D02*
X163171428Y-36630771D01*
X163171428Y-36630771D02*
X163266666Y-36583152D01*
X163266666Y-36583152D02*
X163409523Y-36583152D01*
X163409523Y-36583152D02*
X163504761Y-36630771D01*
X163838095Y-36583152D02*
X164219047Y-36583152D01*
X163980952Y-36249819D02*
X163980952Y-37106961D01*
X163980952Y-37106961D02*
X164028571Y-37202200D01*
X164028571Y-37202200D02*
X164123809Y-37249819D01*
X164123809Y-37249819D02*
X164219047Y-37249819D01*
X165647619Y-36726009D02*
X165790476Y-36773628D01*
X165790476Y-36773628D02*
X165838095Y-36821247D01*
X165838095Y-36821247D02*
X165885714Y-36916485D01*
X165885714Y-36916485D02*
X165885714Y-37059342D01*
X165885714Y-37059342D02*
X165838095Y-37154580D01*
X165838095Y-37154580D02*
X165790476Y-37202200D01*
X165790476Y-37202200D02*
X165695238Y-37249819D01*
X165695238Y-37249819D02*
X165314286Y-37249819D01*
X165314286Y-37249819D02*
X165314286Y-36249819D01*
X165314286Y-36249819D02*
X165647619Y-36249819D01*
X165647619Y-36249819D02*
X165742857Y-36297438D01*
X165742857Y-36297438D02*
X165790476Y-36345057D01*
X165790476Y-36345057D02*
X165838095Y-36440295D01*
X165838095Y-36440295D02*
X165838095Y-36535533D01*
X165838095Y-36535533D02*
X165790476Y-36630771D01*
X165790476Y-36630771D02*
X165742857Y-36678390D01*
X165742857Y-36678390D02*
X165647619Y-36726009D01*
X165647619Y-36726009D02*
X165314286Y-36726009D01*
X166457143Y-37249819D02*
X166361905Y-37202200D01*
X166361905Y-37202200D02*
X166314286Y-37154580D01*
X166314286Y-37154580D02*
X166266667Y-37059342D01*
X166266667Y-37059342D02*
X166266667Y-36773628D01*
X166266667Y-36773628D02*
X166314286Y-36678390D01*
X166314286Y-36678390D02*
X166361905Y-36630771D01*
X166361905Y-36630771D02*
X166457143Y-36583152D01*
X166457143Y-36583152D02*
X166600000Y-36583152D01*
X166600000Y-36583152D02*
X166695238Y-36630771D01*
X166695238Y-36630771D02*
X166742857Y-36678390D01*
X166742857Y-36678390D02*
X166790476Y-36773628D01*
X166790476Y-36773628D02*
X166790476Y-37059342D01*
X166790476Y-37059342D02*
X166742857Y-37154580D01*
X166742857Y-37154580D02*
X166695238Y-37202200D01*
X166695238Y-37202200D02*
X166600000Y-37249819D01*
X166600000Y-37249819D02*
X166457143Y-37249819D01*
X167647619Y-37249819D02*
X167647619Y-36726009D01*
X167647619Y-36726009D02*
X167600000Y-36630771D01*
X167600000Y-36630771D02*
X167504762Y-36583152D01*
X167504762Y-36583152D02*
X167314286Y-36583152D01*
X167314286Y-36583152D02*
X167219048Y-36630771D01*
X167647619Y-37202200D02*
X167552381Y-37249819D01*
X167552381Y-37249819D02*
X167314286Y-37249819D01*
X167314286Y-37249819D02*
X167219048Y-37202200D01*
X167219048Y-37202200D02*
X167171429Y-37106961D01*
X167171429Y-37106961D02*
X167171429Y-37011723D01*
X167171429Y-37011723D02*
X167219048Y-36916485D01*
X167219048Y-36916485D02*
X167314286Y-36868866D01*
X167314286Y-36868866D02*
X167552381Y-36868866D01*
X167552381Y-36868866D02*
X167647619Y-36821247D01*
X168123810Y-37249819D02*
X168123810Y-36583152D01*
X168123810Y-36773628D02*
X168171429Y-36678390D01*
X168171429Y-36678390D02*
X168219048Y-36630771D01*
X168219048Y-36630771D02*
X168314286Y-36583152D01*
X168314286Y-36583152D02*
X168409524Y-36583152D01*
X169171429Y-37249819D02*
X169171429Y-36249819D01*
X169171429Y-37202200D02*
X169076191Y-37249819D01*
X169076191Y-37249819D02*
X168885715Y-37249819D01*
X168885715Y-37249819D02*
X168790477Y-37202200D01*
X168790477Y-37202200D02*
X168742858Y-37154580D01*
X168742858Y-37154580D02*
X168695239Y-37059342D01*
X168695239Y-37059342D02*
X168695239Y-36773628D01*
X168695239Y-36773628D02*
X168742858Y-36678390D01*
X168742858Y-36678390D02*
X168790477Y-36630771D01*
X168790477Y-36630771D02*
X168885715Y-36583152D01*
X168885715Y-36583152D02*
X169076191Y-36583152D01*
X169076191Y-36583152D02*
X169171429Y-36630771D01*
X170314287Y-36583152D02*
X170552382Y-37249819D01*
X170552382Y-37249819D02*
X170790477Y-36583152D01*
X171695239Y-37249819D02*
X171123811Y-37249819D01*
X171409525Y-37249819D02*
X171409525Y-36249819D01*
X171409525Y-36249819D02*
X171314287Y-36392676D01*
X171314287Y-36392676D02*
X171219049Y-36487914D01*
X171219049Y-36487914D02*
X171123811Y-36535533D01*
X172123811Y-37154580D02*
X172171430Y-37202200D01*
X172171430Y-37202200D02*
X172123811Y-37249819D01*
X172123811Y-37249819D02*
X172076192Y-37202200D01*
X172076192Y-37202200D02*
X172123811Y-37154580D01*
X172123811Y-37154580D02*
X172123811Y-37249819D01*
X172790477Y-36249819D02*
X172885715Y-36249819D01*
X172885715Y-36249819D02*
X172980953Y-36297438D01*
X172980953Y-36297438D02*
X173028572Y-36345057D01*
X173028572Y-36345057D02*
X173076191Y-36440295D01*
X173076191Y-36440295D02*
X173123810Y-36630771D01*
X173123810Y-36630771D02*
X173123810Y-36868866D01*
X173123810Y-36868866D02*
X173076191Y-37059342D01*
X173076191Y-37059342D02*
X173028572Y-37154580D01*
X173028572Y-37154580D02*
X172980953Y-37202200D01*
X172980953Y-37202200D02*
X172885715Y-37249819D01*
X172885715Y-37249819D02*
X172790477Y-37249819D01*
X172790477Y-37249819D02*
X172695239Y-37202200D01*
X172695239Y-37202200D02*
X172647620Y-37154580D01*
X172647620Y-37154580D02*
X172600001Y-37059342D01*
X172600001Y-37059342D02*
X172552382Y-36868866D01*
X172552382Y-36868866D02*
X172552382Y-36630771D01*
X172552382Y-36630771D02*
X172600001Y-36440295D01*
X172600001Y-36440295D02*
X172647620Y-36345057D01*
X172647620Y-36345057D02*
X172695239Y-36297438D01*
X172695239Y-36297438D02*
X172790477Y-36249819D01*
X153338094Y-38336009D02*
X153004761Y-38336009D01*
X153004761Y-38859819D02*
X153004761Y-37859819D01*
X153004761Y-37859819D02*
X153480951Y-37859819D01*
X154004761Y-38859819D02*
X153909523Y-38812200D01*
X153909523Y-38812200D02*
X153861904Y-38764580D01*
X153861904Y-38764580D02*
X153814285Y-38669342D01*
X153814285Y-38669342D02*
X153814285Y-38383628D01*
X153814285Y-38383628D02*
X153861904Y-38288390D01*
X153861904Y-38288390D02*
X153909523Y-38240771D01*
X153909523Y-38240771D02*
X154004761Y-38193152D01*
X154004761Y-38193152D02*
X154147618Y-38193152D01*
X154147618Y-38193152D02*
X154242856Y-38240771D01*
X154242856Y-38240771D02*
X154290475Y-38288390D01*
X154290475Y-38288390D02*
X154338094Y-38383628D01*
X154338094Y-38383628D02*
X154338094Y-38669342D01*
X154338094Y-38669342D02*
X154290475Y-38764580D01*
X154290475Y-38764580D02*
X154242856Y-38812200D01*
X154242856Y-38812200D02*
X154147618Y-38859819D01*
X154147618Y-38859819D02*
X154004761Y-38859819D01*
X154766666Y-38859819D02*
X154766666Y-38193152D01*
X154766666Y-38383628D02*
X154814285Y-38288390D01*
X154814285Y-38288390D02*
X154861904Y-38240771D01*
X154861904Y-38240771D02*
X154957142Y-38193152D01*
X154957142Y-38193152D02*
X155052380Y-38193152D01*
X156576190Y-38193152D02*
X156576190Y-38859819D01*
X156147619Y-38193152D02*
X156147619Y-38716961D01*
X156147619Y-38716961D02*
X156195238Y-38812200D01*
X156195238Y-38812200D02*
X156290476Y-38859819D01*
X156290476Y-38859819D02*
X156433333Y-38859819D01*
X156433333Y-38859819D02*
X156528571Y-38812200D01*
X156528571Y-38812200D02*
X156576190Y-38764580D01*
X157004762Y-38812200D02*
X157100000Y-38859819D01*
X157100000Y-38859819D02*
X157290476Y-38859819D01*
X157290476Y-38859819D02*
X157385714Y-38812200D01*
X157385714Y-38812200D02*
X157433333Y-38716961D01*
X157433333Y-38716961D02*
X157433333Y-38669342D01*
X157433333Y-38669342D02*
X157385714Y-38574104D01*
X157385714Y-38574104D02*
X157290476Y-38526485D01*
X157290476Y-38526485D02*
X157147619Y-38526485D01*
X157147619Y-38526485D02*
X157052381Y-38478866D01*
X157052381Y-38478866D02*
X157004762Y-38383628D01*
X157004762Y-38383628D02*
X157004762Y-38336009D01*
X157004762Y-38336009D02*
X157052381Y-38240771D01*
X157052381Y-38240771D02*
X157147619Y-38193152D01*
X157147619Y-38193152D02*
X157290476Y-38193152D01*
X157290476Y-38193152D02*
X157385714Y-38240771D01*
X158242857Y-38812200D02*
X158147619Y-38859819D01*
X158147619Y-38859819D02*
X157957143Y-38859819D01*
X157957143Y-38859819D02*
X157861905Y-38812200D01*
X157861905Y-38812200D02*
X157814286Y-38716961D01*
X157814286Y-38716961D02*
X157814286Y-38336009D01*
X157814286Y-38336009D02*
X157861905Y-38240771D01*
X157861905Y-38240771D02*
X157957143Y-38193152D01*
X157957143Y-38193152D02*
X158147619Y-38193152D01*
X158147619Y-38193152D02*
X158242857Y-38240771D01*
X158242857Y-38240771D02*
X158290476Y-38336009D01*
X158290476Y-38336009D02*
X158290476Y-38431247D01*
X158290476Y-38431247D02*
X157814286Y-38526485D01*
X159385715Y-38193152D02*
X159576191Y-38859819D01*
X159576191Y-38859819D02*
X159766667Y-38383628D01*
X159766667Y-38383628D02*
X159957143Y-38859819D01*
X159957143Y-38859819D02*
X160147619Y-38193152D01*
X160528572Y-38859819D02*
X160528572Y-38193152D01*
X160528572Y-37859819D02*
X160480953Y-37907438D01*
X160480953Y-37907438D02*
X160528572Y-37955057D01*
X160528572Y-37955057D02*
X160576191Y-37907438D01*
X160576191Y-37907438D02*
X160528572Y-37859819D01*
X160528572Y-37859819D02*
X160528572Y-37955057D01*
X160861905Y-38193152D02*
X161242857Y-38193152D01*
X161004762Y-37859819D02*
X161004762Y-38716961D01*
X161004762Y-38716961D02*
X161052381Y-38812200D01*
X161052381Y-38812200D02*
X161147619Y-38859819D01*
X161147619Y-38859819D02*
X161242857Y-38859819D01*
X161576191Y-38859819D02*
X161576191Y-37859819D01*
X162004762Y-38859819D02*
X162004762Y-38336009D01*
X162004762Y-38336009D02*
X161957143Y-38240771D01*
X161957143Y-38240771D02*
X161861905Y-38193152D01*
X161861905Y-38193152D02*
X161719048Y-38193152D01*
X161719048Y-38193152D02*
X161623810Y-38240771D01*
X161623810Y-38240771D02*
X161576191Y-38288390D01*
X163242858Y-38859819D02*
X163242858Y-37859819D01*
X163242858Y-37859819D02*
X163814286Y-38859819D01*
X163814286Y-38859819D02*
X163814286Y-37859819D01*
X164290477Y-37859819D02*
X164290477Y-38669342D01*
X164290477Y-38669342D02*
X164338096Y-38764580D01*
X164338096Y-38764580D02*
X164385715Y-38812200D01*
X164385715Y-38812200D02*
X164480953Y-38859819D01*
X164480953Y-38859819D02*
X164671429Y-38859819D01*
X164671429Y-38859819D02*
X164766667Y-38812200D01*
X164766667Y-38812200D02*
X164814286Y-38764580D01*
X164814286Y-38764580D02*
X164861905Y-38669342D01*
X164861905Y-38669342D02*
X164861905Y-37859819D01*
X165909524Y-38764580D02*
X165861905Y-38812200D01*
X165861905Y-38812200D02*
X165719048Y-38859819D01*
X165719048Y-38859819D02*
X165623810Y-38859819D01*
X165623810Y-38859819D02*
X165480953Y-38812200D01*
X165480953Y-38812200D02*
X165385715Y-38716961D01*
X165385715Y-38716961D02*
X165338096Y-38621723D01*
X165338096Y-38621723D02*
X165290477Y-38431247D01*
X165290477Y-38431247D02*
X165290477Y-38288390D01*
X165290477Y-38288390D02*
X165338096Y-38097914D01*
X165338096Y-38097914D02*
X165385715Y-38002676D01*
X165385715Y-38002676D02*
X165480953Y-37907438D01*
X165480953Y-37907438D02*
X165623810Y-37859819D01*
X165623810Y-37859819D02*
X165719048Y-37859819D01*
X165719048Y-37859819D02*
X165861905Y-37907438D01*
X165861905Y-37907438D02*
X165909524Y-37955057D01*
X166814286Y-38859819D02*
X166338096Y-38859819D01*
X166338096Y-38859819D02*
X166338096Y-37859819D01*
X167147620Y-38336009D02*
X167480953Y-38336009D01*
X167623810Y-38859819D02*
X167147620Y-38859819D01*
X167147620Y-38859819D02*
X167147620Y-37859819D01*
X167147620Y-37859819D02*
X167623810Y-37859819D01*
X168242858Y-37859819D02*
X168433334Y-37859819D01*
X168433334Y-37859819D02*
X168528572Y-37907438D01*
X168528572Y-37907438D02*
X168623810Y-38002676D01*
X168623810Y-38002676D02*
X168671429Y-38193152D01*
X168671429Y-38193152D02*
X168671429Y-38526485D01*
X168671429Y-38526485D02*
X168623810Y-38716961D01*
X168623810Y-38716961D02*
X168528572Y-38812200D01*
X168528572Y-38812200D02*
X168433334Y-38859819D01*
X168433334Y-38859819D02*
X168242858Y-38859819D01*
X168242858Y-38859819D02*
X168147620Y-38812200D01*
X168147620Y-38812200D02*
X168052382Y-38716961D01*
X168052382Y-38716961D02*
X168004763Y-38526485D01*
X168004763Y-38526485D02*
X168004763Y-38193152D01*
X168004763Y-38193152D02*
X168052382Y-38002676D01*
X168052382Y-38002676D02*
X168147620Y-37907438D01*
X168147620Y-37907438D02*
X168242858Y-37859819D01*
X169100001Y-38478866D02*
X169861906Y-38478866D01*
X170338096Y-38859819D02*
X170338096Y-37859819D01*
X170338096Y-38336009D02*
X170909524Y-38336009D01*
X170909524Y-38859819D02*
X170909524Y-37859819D01*
X171861905Y-37859819D02*
X171385715Y-37859819D01*
X171385715Y-37859819D02*
X171338096Y-38336009D01*
X171338096Y-38336009D02*
X171385715Y-38288390D01*
X171385715Y-38288390D02*
X171480953Y-38240771D01*
X171480953Y-38240771D02*
X171719048Y-38240771D01*
X171719048Y-38240771D02*
X171814286Y-38288390D01*
X171814286Y-38288390D02*
X171861905Y-38336009D01*
X171861905Y-38336009D02*
X171909524Y-38431247D01*
X171909524Y-38431247D02*
X171909524Y-38669342D01*
X171909524Y-38669342D02*
X171861905Y-38764580D01*
X171861905Y-38764580D02*
X171814286Y-38812200D01*
X171814286Y-38812200D02*
X171719048Y-38859819D01*
X171719048Y-38859819D02*
X171480953Y-38859819D01*
X171480953Y-38859819D02*
X171385715Y-38812200D01*
X171385715Y-38812200D02*
X171338096Y-38764580D01*
X172766667Y-37859819D02*
X172576191Y-37859819D01*
X172576191Y-37859819D02*
X172480953Y-37907438D01*
X172480953Y-37907438D02*
X172433334Y-37955057D01*
X172433334Y-37955057D02*
X172338096Y-38097914D01*
X172338096Y-38097914D02*
X172290477Y-38288390D01*
X172290477Y-38288390D02*
X172290477Y-38669342D01*
X172290477Y-38669342D02*
X172338096Y-38764580D01*
X172338096Y-38764580D02*
X172385715Y-38812200D01*
X172385715Y-38812200D02*
X172480953Y-38859819D01*
X172480953Y-38859819D02*
X172671429Y-38859819D01*
X172671429Y-38859819D02*
X172766667Y-38812200D01*
X172766667Y-38812200D02*
X172814286Y-38764580D01*
X172814286Y-38764580D02*
X172861905Y-38669342D01*
X172861905Y-38669342D02*
X172861905Y-38431247D01*
X172861905Y-38431247D02*
X172814286Y-38336009D01*
X172814286Y-38336009D02*
X172766667Y-38288390D01*
X172766667Y-38288390D02*
X172671429Y-38240771D01*
X172671429Y-38240771D02*
X172480953Y-38240771D01*
X172480953Y-38240771D02*
X172385715Y-38288390D01*
X172385715Y-38288390D02*
X172338096Y-38336009D01*
X172338096Y-38336009D02*
X172290477Y-38431247D01*
X173195239Y-37859819D02*
X173814286Y-37859819D01*
X173814286Y-37859819D02*
X173480953Y-38240771D01*
X173480953Y-38240771D02*
X173623810Y-38240771D01*
X173623810Y-38240771D02*
X173719048Y-38288390D01*
X173719048Y-38288390D02*
X173766667Y-38336009D01*
X173766667Y-38336009D02*
X173814286Y-38431247D01*
X173814286Y-38431247D02*
X173814286Y-38669342D01*
X173814286Y-38669342D02*
X173766667Y-38764580D01*
X173766667Y-38764580D02*
X173719048Y-38812200D01*
X173719048Y-38812200D02*
X173623810Y-38859819D01*
X173623810Y-38859819D02*
X173338096Y-38859819D01*
X173338096Y-38859819D02*
X173242858Y-38812200D01*
X173242858Y-38812200D02*
X173195239Y-38764580D01*
X174147620Y-37859819D02*
X174814286Y-37859819D01*
X174814286Y-37859819D02*
X174147620Y-38859819D01*
X174147620Y-38859819D02*
X174814286Y-38859819D01*
X175195239Y-38859819D02*
X175195239Y-37859819D01*
X155385713Y-39565057D02*
X155433332Y-39517438D01*
X155433332Y-39517438D02*
X155528570Y-39469819D01*
X155528570Y-39469819D02*
X155766665Y-39469819D01*
X155766665Y-39469819D02*
X155861903Y-39517438D01*
X155861903Y-39517438D02*
X155909522Y-39565057D01*
X155909522Y-39565057D02*
X155957141Y-39660295D01*
X155957141Y-39660295D02*
X155957141Y-39755533D01*
X155957141Y-39755533D02*
X155909522Y-39898390D01*
X155909522Y-39898390D02*
X155338094Y-40469819D01*
X155338094Y-40469819D02*
X155957141Y-40469819D01*
X156576189Y-39469819D02*
X156671427Y-39469819D01*
X156671427Y-39469819D02*
X156766665Y-39517438D01*
X156766665Y-39517438D02*
X156814284Y-39565057D01*
X156814284Y-39565057D02*
X156861903Y-39660295D01*
X156861903Y-39660295D02*
X156909522Y-39850771D01*
X156909522Y-39850771D02*
X156909522Y-40088866D01*
X156909522Y-40088866D02*
X156861903Y-40279342D01*
X156861903Y-40279342D02*
X156814284Y-40374580D01*
X156814284Y-40374580D02*
X156766665Y-40422200D01*
X156766665Y-40422200D02*
X156671427Y-40469819D01*
X156671427Y-40469819D02*
X156576189Y-40469819D01*
X156576189Y-40469819D02*
X156480951Y-40422200D01*
X156480951Y-40422200D02*
X156433332Y-40374580D01*
X156433332Y-40374580D02*
X156385713Y-40279342D01*
X156385713Y-40279342D02*
X156338094Y-40088866D01*
X156338094Y-40088866D02*
X156338094Y-39850771D01*
X156338094Y-39850771D02*
X156385713Y-39660295D01*
X156385713Y-39660295D02*
X156433332Y-39565057D01*
X156433332Y-39565057D02*
X156480951Y-39517438D01*
X156480951Y-39517438D02*
X156576189Y-39469819D01*
X157290475Y-39565057D02*
X157338094Y-39517438D01*
X157338094Y-39517438D02*
X157433332Y-39469819D01*
X157433332Y-39469819D02*
X157671427Y-39469819D01*
X157671427Y-39469819D02*
X157766665Y-39517438D01*
X157766665Y-39517438D02*
X157814284Y-39565057D01*
X157814284Y-39565057D02*
X157861903Y-39660295D01*
X157861903Y-39660295D02*
X157861903Y-39755533D01*
X157861903Y-39755533D02*
X157814284Y-39898390D01*
X157814284Y-39898390D02*
X157242856Y-40469819D01*
X157242856Y-40469819D02*
X157861903Y-40469819D01*
X158195237Y-39469819D02*
X158814284Y-39469819D01*
X158814284Y-39469819D02*
X158480951Y-39850771D01*
X158480951Y-39850771D02*
X158623808Y-39850771D01*
X158623808Y-39850771D02*
X158719046Y-39898390D01*
X158719046Y-39898390D02*
X158766665Y-39946009D01*
X158766665Y-39946009D02*
X158814284Y-40041247D01*
X158814284Y-40041247D02*
X158814284Y-40279342D01*
X158814284Y-40279342D02*
X158766665Y-40374580D01*
X158766665Y-40374580D02*
X158719046Y-40422200D01*
X158719046Y-40422200D02*
X158623808Y-40469819D01*
X158623808Y-40469819D02*
X158338094Y-40469819D01*
X158338094Y-40469819D02*
X158242856Y-40422200D01*
X158242856Y-40422200D02*
X158195237Y-40374580D01*
X160004761Y-40469819D02*
X160004761Y-39469819D01*
X160004761Y-39469819D02*
X160338094Y-40184104D01*
X160338094Y-40184104D02*
X160671427Y-39469819D01*
X160671427Y-39469819D02*
X160671427Y-40469819D01*
X161290475Y-40469819D02*
X161195237Y-40422200D01*
X161195237Y-40422200D02*
X161147618Y-40374580D01*
X161147618Y-40374580D02*
X161099999Y-40279342D01*
X161099999Y-40279342D02*
X161099999Y-39993628D01*
X161099999Y-39993628D02*
X161147618Y-39898390D01*
X161147618Y-39898390D02*
X161195237Y-39850771D01*
X161195237Y-39850771D02*
X161290475Y-39803152D01*
X161290475Y-39803152D02*
X161433332Y-39803152D01*
X161433332Y-39803152D02*
X161528570Y-39850771D01*
X161528570Y-39850771D02*
X161576189Y-39898390D01*
X161576189Y-39898390D02*
X161623808Y-39993628D01*
X161623808Y-39993628D02*
X161623808Y-40279342D01*
X161623808Y-40279342D02*
X161576189Y-40374580D01*
X161576189Y-40374580D02*
X161528570Y-40422200D01*
X161528570Y-40422200D02*
X161433332Y-40469819D01*
X161433332Y-40469819D02*
X161290475Y-40469819D01*
X162480951Y-39803152D02*
X162480951Y-40469819D01*
X162052380Y-39803152D02*
X162052380Y-40326961D01*
X162052380Y-40326961D02*
X162099999Y-40422200D01*
X162099999Y-40422200D02*
X162195237Y-40469819D01*
X162195237Y-40469819D02*
X162338094Y-40469819D01*
X162338094Y-40469819D02*
X162433332Y-40422200D01*
X162433332Y-40422200D02*
X162480951Y-40374580D01*
X162957142Y-39803152D02*
X162957142Y-40469819D01*
X162957142Y-39898390D02*
X163004761Y-39850771D01*
X163004761Y-39850771D02*
X163099999Y-39803152D01*
X163099999Y-39803152D02*
X163242856Y-39803152D01*
X163242856Y-39803152D02*
X163338094Y-39850771D01*
X163338094Y-39850771D02*
X163385713Y-39946009D01*
X163385713Y-39946009D02*
X163385713Y-40469819D01*
X163719047Y-39803152D02*
X164099999Y-39803152D01*
X163861904Y-39469819D02*
X163861904Y-40326961D01*
X163861904Y-40326961D02*
X163909523Y-40422200D01*
X163909523Y-40422200D02*
X164004761Y-40469819D01*
X164004761Y-40469819D02*
X164099999Y-40469819D01*
X164433333Y-39803152D02*
X164433333Y-40660295D01*
X164433333Y-40660295D02*
X164385714Y-40755533D01*
X164385714Y-40755533D02*
X164290476Y-40803152D01*
X164290476Y-40803152D02*
X164242857Y-40803152D01*
X164433333Y-39469819D02*
X164385714Y-39517438D01*
X164385714Y-39517438D02*
X164433333Y-39565057D01*
X164433333Y-39565057D02*
X164480952Y-39517438D01*
X164480952Y-39517438D02*
X164433333Y-39469819D01*
X164433333Y-39469819D02*
X164433333Y-39565057D01*
X165052380Y-40469819D02*
X164957142Y-40422200D01*
X164957142Y-40422200D02*
X164909523Y-40374580D01*
X164909523Y-40374580D02*
X164861904Y-40279342D01*
X164861904Y-40279342D02*
X164861904Y-39993628D01*
X164861904Y-39993628D02*
X164909523Y-39898390D01*
X164909523Y-39898390D02*
X164957142Y-39850771D01*
X164957142Y-39850771D02*
X165052380Y-39803152D01*
X165052380Y-39803152D02*
X165195237Y-39803152D01*
X165195237Y-39803152D02*
X165290475Y-39850771D01*
X165290475Y-39850771D02*
X165338094Y-39898390D01*
X165338094Y-39898390D02*
X165385713Y-39993628D01*
X165385713Y-39993628D02*
X165385713Y-40279342D01*
X165385713Y-40279342D02*
X165338094Y-40374580D01*
X165338094Y-40374580D02*
X165290475Y-40422200D01*
X165290475Y-40422200D02*
X165195237Y-40469819D01*
X165195237Y-40469819D02*
X165052380Y-40469819D01*
X165719047Y-39803152D02*
X165957142Y-40469819D01*
X166195237Y-39803152D02*
X165957142Y-40469819D01*
X165957142Y-40469819D02*
X165861904Y-40707914D01*
X165861904Y-40707914D02*
X165814285Y-40755533D01*
X165814285Y-40755533D02*
X165719047Y-40803152D01*
X167338095Y-40469819D02*
X167338095Y-39469819D01*
X167338095Y-39469819D02*
X167671428Y-40184104D01*
X167671428Y-40184104D02*
X168004761Y-39469819D01*
X168004761Y-39469819D02*
X168004761Y-40469819D01*
X168623809Y-40469819D02*
X168528571Y-40422200D01*
X168528571Y-40422200D02*
X168480952Y-40374580D01*
X168480952Y-40374580D02*
X168433333Y-40279342D01*
X168433333Y-40279342D02*
X168433333Y-39993628D01*
X168433333Y-39993628D02*
X168480952Y-39898390D01*
X168480952Y-39898390D02*
X168528571Y-39850771D01*
X168528571Y-39850771D02*
X168623809Y-39803152D01*
X168623809Y-39803152D02*
X168766666Y-39803152D01*
X168766666Y-39803152D02*
X168861904Y-39850771D01*
X168861904Y-39850771D02*
X168909523Y-39898390D01*
X168909523Y-39898390D02*
X168957142Y-39993628D01*
X168957142Y-39993628D02*
X168957142Y-40279342D01*
X168957142Y-40279342D02*
X168909523Y-40374580D01*
X168909523Y-40374580D02*
X168861904Y-40422200D01*
X168861904Y-40422200D02*
X168766666Y-40469819D01*
X168766666Y-40469819D02*
X168623809Y-40469819D01*
X169814285Y-40469819D02*
X169814285Y-39469819D01*
X169814285Y-40422200D02*
X169719047Y-40469819D01*
X169719047Y-40469819D02*
X169528571Y-40469819D01*
X169528571Y-40469819D02*
X169433333Y-40422200D01*
X169433333Y-40422200D02*
X169385714Y-40374580D01*
X169385714Y-40374580D02*
X169338095Y-40279342D01*
X169338095Y-40279342D02*
X169338095Y-39993628D01*
X169338095Y-39993628D02*
X169385714Y-39898390D01*
X169385714Y-39898390D02*
X169433333Y-39850771D01*
X169433333Y-39850771D02*
X169528571Y-39803152D01*
X169528571Y-39803152D02*
X169719047Y-39803152D01*
X169719047Y-39803152D02*
X169814285Y-39850771D01*
X170719047Y-39803152D02*
X170719047Y-40469819D01*
X170290476Y-39803152D02*
X170290476Y-40326961D01*
X170290476Y-40326961D02*
X170338095Y-40422200D01*
X170338095Y-40422200D02*
X170433333Y-40469819D01*
X170433333Y-40469819D02*
X170576190Y-40469819D01*
X170576190Y-40469819D02*
X170671428Y-40422200D01*
X170671428Y-40422200D02*
X170719047Y-40374580D01*
X171338095Y-40469819D02*
X171242857Y-40422200D01*
X171242857Y-40422200D02*
X171195238Y-40326961D01*
X171195238Y-40326961D02*
X171195238Y-39469819D01*
X172147619Y-40469819D02*
X172147619Y-39946009D01*
X172147619Y-39946009D02*
X172100000Y-39850771D01*
X172100000Y-39850771D02*
X172004762Y-39803152D01*
X172004762Y-39803152D02*
X171814286Y-39803152D01*
X171814286Y-39803152D02*
X171719048Y-39850771D01*
X172147619Y-40422200D02*
X172052381Y-40469819D01*
X172052381Y-40469819D02*
X171814286Y-40469819D01*
X171814286Y-40469819D02*
X171719048Y-40422200D01*
X171719048Y-40422200D02*
X171671429Y-40326961D01*
X171671429Y-40326961D02*
X171671429Y-40231723D01*
X171671429Y-40231723D02*
X171719048Y-40136485D01*
X171719048Y-40136485D02*
X171814286Y-40088866D01*
X171814286Y-40088866D02*
X172052381Y-40088866D01*
X172052381Y-40088866D02*
X172147619Y-40041247D01*
X172623810Y-40469819D02*
X172623810Y-39803152D01*
X172623810Y-39993628D02*
X172671429Y-39898390D01*
X172671429Y-39898390D02*
X172719048Y-39850771D01*
X172719048Y-39850771D02*
X172814286Y-39803152D01*
X172814286Y-39803152D02*
X172909524Y-39803152D01*
X136460588Y-63976961D02*
X135889160Y-63976961D01*
X136174874Y-63976961D02*
X136174874Y-62976961D01*
X136174874Y-62976961D02*
X136079636Y-63119818D01*
X136079636Y-63119818D02*
X135984398Y-63215056D01*
X135984398Y-63215056D02*
X135889160Y-63262675D01*
X137365350Y-62976961D02*
X136889160Y-62976961D01*
X136889160Y-62976961D02*
X136841541Y-63453151D01*
X136841541Y-63453151D02*
X136889160Y-63405532D01*
X136889160Y-63405532D02*
X136984398Y-63357913D01*
X136984398Y-63357913D02*
X137222493Y-63357913D01*
X137222493Y-63357913D02*
X137317731Y-63405532D01*
X137317731Y-63405532D02*
X137365350Y-63453151D01*
X137365350Y-63453151D02*
X137412969Y-63548389D01*
X137412969Y-63548389D02*
X137412969Y-63786484D01*
X137412969Y-63786484D02*
X137365350Y-63881722D01*
X137365350Y-63881722D02*
X137317731Y-63929342D01*
X137317731Y-63929342D02*
X137222493Y-63976961D01*
X137222493Y-63976961D02*
X136984398Y-63976961D01*
X136984398Y-63976961D02*
X136889160Y-63929342D01*
X136889160Y-63929342D02*
X136841541Y-63881722D01*
X136884398Y-56369819D02*
X137074874Y-56369819D01*
X137074874Y-56369819D02*
X137170112Y-56322200D01*
X137170112Y-56322200D02*
X137217731Y-56274580D01*
X137217731Y-56274580D02*
X137312969Y-56131723D01*
X137312969Y-56131723D02*
X137360588Y-55941247D01*
X137360588Y-55941247D02*
X137360588Y-55560295D01*
X137360588Y-55560295D02*
X137312969Y-55465057D01*
X137312969Y-55465057D02*
X137265350Y-55417438D01*
X137265350Y-55417438D02*
X137170112Y-55369819D01*
X137170112Y-55369819D02*
X136979636Y-55369819D01*
X136979636Y-55369819D02*
X136884398Y-55417438D01*
X136884398Y-55417438D02*
X136836779Y-55465057D01*
X136836779Y-55465057D02*
X136789160Y-55560295D01*
X136789160Y-55560295D02*
X136789160Y-55798390D01*
X136789160Y-55798390D02*
X136836779Y-55893628D01*
X136836779Y-55893628D02*
X136884398Y-55941247D01*
X136884398Y-55941247D02*
X136979636Y-55988866D01*
X136979636Y-55988866D02*
X137170112Y-55988866D01*
X137170112Y-55988866D02*
X137265350Y-55941247D01*
X137265350Y-55941247D02*
X137312969Y-55893628D01*
X137312969Y-55893628D02*
X137360588Y-55798390D01*
X182784398Y-74069819D02*
X182974874Y-74069819D01*
X182974874Y-74069819D02*
X183070112Y-74022200D01*
X183070112Y-74022200D02*
X183117731Y-73974580D01*
X183117731Y-73974580D02*
X183212969Y-73831723D01*
X183212969Y-73831723D02*
X183260588Y-73641247D01*
X183260588Y-73641247D02*
X183260588Y-73260295D01*
X183260588Y-73260295D02*
X183212969Y-73165057D01*
X183212969Y-73165057D02*
X183165350Y-73117438D01*
X183165350Y-73117438D02*
X183070112Y-73069819D01*
X183070112Y-73069819D02*
X182879636Y-73069819D01*
X182879636Y-73069819D02*
X182784398Y-73117438D01*
X182784398Y-73117438D02*
X182736779Y-73165057D01*
X182736779Y-73165057D02*
X182689160Y-73260295D01*
X182689160Y-73260295D02*
X182689160Y-73498390D01*
X182689160Y-73498390D02*
X182736779Y-73593628D01*
X182736779Y-73593628D02*
X182784398Y-73641247D01*
X182784398Y-73641247D02*
X182879636Y-73688866D01*
X182879636Y-73688866D02*
X183070112Y-73688866D01*
X183070112Y-73688866D02*
X183165350Y-73641247D01*
X183165350Y-73641247D02*
X183212969Y-73593628D01*
X183212969Y-73593628D02*
X183260588Y-73498390D01*
X182360588Y-76605533D02*
X181789160Y-76605533D01*
X182074874Y-76605533D02*
X182074874Y-75605533D01*
X182074874Y-75605533D02*
X181979636Y-75748390D01*
X181979636Y-75748390D02*
X181884398Y-75843628D01*
X181884398Y-75843628D02*
X181789160Y-75891247D01*
X183312969Y-76605533D02*
X182741541Y-76605533D01*
X183027255Y-76605533D02*
X183027255Y-75605533D01*
X183027255Y-75605533D02*
X182932017Y-75748390D01*
X182932017Y-75748390D02*
X182836779Y-75843628D01*
X182836779Y-75843628D02*
X182741541Y-75891247D01*
X181641541Y-101169819D02*
X182260588Y-101169819D01*
X182260588Y-101169819D02*
X181927255Y-101550771D01*
X181927255Y-101550771D02*
X182070112Y-101550771D01*
X182070112Y-101550771D02*
X182165350Y-101598390D01*
X182165350Y-101598390D02*
X182212969Y-101646009D01*
X182212969Y-101646009D02*
X182260588Y-101741247D01*
X182260588Y-101741247D02*
X182260588Y-101979342D01*
X182260588Y-101979342D02*
X182212969Y-102074580D01*
X182212969Y-102074580D02*
X182165350Y-102122200D01*
X182165350Y-102122200D02*
X182070112Y-102169819D01*
X182070112Y-102169819D02*
X181784398Y-102169819D01*
X181784398Y-102169819D02*
X181689160Y-102122200D01*
X181689160Y-102122200D02*
X181641541Y-102074580D01*
X183212969Y-102169819D02*
X182641541Y-102169819D01*
X182927255Y-102169819D02*
X182927255Y-101169819D01*
X182927255Y-101169819D02*
X182832017Y-101312676D01*
X182832017Y-101312676D02*
X182736779Y-101407914D01*
X182736779Y-101407914D02*
X182641541Y-101455533D01*
X181641541Y-103769819D02*
X182260588Y-103769819D01*
X182260588Y-103769819D02*
X181927255Y-104150771D01*
X181927255Y-104150771D02*
X182070112Y-104150771D01*
X182070112Y-104150771D02*
X182165350Y-104198390D01*
X182165350Y-104198390D02*
X182212969Y-104246009D01*
X182212969Y-104246009D02*
X182260588Y-104341247D01*
X182260588Y-104341247D02*
X182260588Y-104579342D01*
X182260588Y-104579342D02*
X182212969Y-104674580D01*
X182212969Y-104674580D02*
X182165350Y-104722200D01*
X182165350Y-104722200D02*
X182070112Y-104769819D01*
X182070112Y-104769819D02*
X181784398Y-104769819D01*
X181784398Y-104769819D02*
X181689160Y-104722200D01*
X181689160Y-104722200D02*
X181641541Y-104674580D01*
X182593922Y-103769819D02*
X183212969Y-103769819D01*
X183212969Y-103769819D02*
X182879636Y-104150771D01*
X182879636Y-104150771D02*
X183022493Y-104150771D01*
X183022493Y-104150771D02*
X183117731Y-104198390D01*
X183117731Y-104198390D02*
X183165350Y-104246009D01*
X183165350Y-104246009D02*
X183212969Y-104341247D01*
X183212969Y-104341247D02*
X183212969Y-104579342D01*
X183212969Y-104579342D02*
X183165350Y-104674580D01*
X183165350Y-104674580D02*
X183117731Y-104722200D01*
X183117731Y-104722200D02*
X183022493Y-104769819D01*
X183022493Y-104769819D02*
X182736779Y-104769819D01*
X182736779Y-104769819D02*
X182641541Y-104722200D01*
X182641541Y-104722200D02*
X182593922Y-104674580D01*
X181689160Y-98765057D02*
X181736779Y-98717438D01*
X181736779Y-98717438D02*
X181832017Y-98669819D01*
X181832017Y-98669819D02*
X182070112Y-98669819D01*
X182070112Y-98669819D02*
X182165350Y-98717438D01*
X182165350Y-98717438D02*
X182212969Y-98765057D01*
X182212969Y-98765057D02*
X182260588Y-98860295D01*
X182260588Y-98860295D02*
X182260588Y-98955533D01*
X182260588Y-98955533D02*
X182212969Y-99098390D01*
X182212969Y-99098390D02*
X181641541Y-99669819D01*
X181641541Y-99669819D02*
X182260588Y-99669819D01*
X182736779Y-99669819D02*
X182927255Y-99669819D01*
X182927255Y-99669819D02*
X183022493Y-99622200D01*
X183022493Y-99622200D02*
X183070112Y-99574580D01*
X183070112Y-99574580D02*
X183165350Y-99431723D01*
X183165350Y-99431723D02*
X183212969Y-99241247D01*
X183212969Y-99241247D02*
X183212969Y-98860295D01*
X183212969Y-98860295D02*
X183165350Y-98765057D01*
X183165350Y-98765057D02*
X183117731Y-98717438D01*
X183117731Y-98717438D02*
X183022493Y-98669819D01*
X183022493Y-98669819D02*
X182832017Y-98669819D01*
X182832017Y-98669819D02*
X182736779Y-98717438D01*
X182736779Y-98717438D02*
X182689160Y-98765057D01*
X182689160Y-98765057D02*
X182641541Y-98860295D01*
X182641541Y-98860295D02*
X182641541Y-99098390D01*
X182641541Y-99098390D02*
X182689160Y-99193628D01*
X182689160Y-99193628D02*
X182736779Y-99241247D01*
X182736779Y-99241247D02*
X182832017Y-99288866D01*
X182832017Y-99288866D02*
X183022493Y-99288866D01*
X183022493Y-99288866D02*
X183117731Y-99241247D01*
X183117731Y-99241247D02*
X183165350Y-99193628D01*
X183165350Y-99193628D02*
X183212969Y-99098390D01*
X181689160Y-93693625D02*
X181736779Y-93646006D01*
X181736779Y-93646006D02*
X181832017Y-93598387D01*
X181832017Y-93598387D02*
X182070112Y-93598387D01*
X182070112Y-93598387D02*
X182165350Y-93646006D01*
X182165350Y-93646006D02*
X182212969Y-93693625D01*
X182212969Y-93693625D02*
X182260588Y-93788863D01*
X182260588Y-93788863D02*
X182260588Y-93884101D01*
X182260588Y-93884101D02*
X182212969Y-94026958D01*
X182212969Y-94026958D02*
X181641541Y-94598387D01*
X181641541Y-94598387D02*
X182260588Y-94598387D01*
X183165350Y-93598387D02*
X182689160Y-93598387D01*
X182689160Y-93598387D02*
X182641541Y-94074577D01*
X182641541Y-94074577D02*
X182689160Y-94026958D01*
X182689160Y-94026958D02*
X182784398Y-93979339D01*
X182784398Y-93979339D02*
X183022493Y-93979339D01*
X183022493Y-93979339D02*
X183117731Y-94026958D01*
X183117731Y-94026958D02*
X183165350Y-94074577D01*
X183165350Y-94074577D02*
X183212969Y-94169815D01*
X183212969Y-94169815D02*
X183212969Y-94407910D01*
X183212969Y-94407910D02*
X183165350Y-94503148D01*
X183165350Y-94503148D02*
X183117731Y-94550768D01*
X183117731Y-94550768D02*
X183022493Y-94598387D01*
X183022493Y-94598387D02*
X182784398Y-94598387D01*
X182784398Y-94598387D02*
X182689160Y-94550768D01*
X182689160Y-94550768D02*
X182641541Y-94503148D01*
X190689160Y-57965057D02*
X190736779Y-57917438D01*
X190736779Y-57917438D02*
X190832017Y-57869819D01*
X190832017Y-57869819D02*
X191070112Y-57869819D01*
X191070112Y-57869819D02*
X191165350Y-57917438D01*
X191165350Y-57917438D02*
X191212969Y-57965057D01*
X191212969Y-57965057D02*
X191260588Y-58060295D01*
X191260588Y-58060295D02*
X191260588Y-58155533D01*
X191260588Y-58155533D02*
X191212969Y-58298390D01*
X191212969Y-58298390D02*
X190641541Y-58869819D01*
X190641541Y-58869819D02*
X191260588Y-58869819D01*
X191879636Y-57869819D02*
X191974874Y-57869819D01*
X191974874Y-57869819D02*
X192070112Y-57917438D01*
X192070112Y-57917438D02*
X192117731Y-57965057D01*
X192117731Y-57965057D02*
X192165350Y-58060295D01*
X192165350Y-58060295D02*
X192212969Y-58250771D01*
X192212969Y-58250771D02*
X192212969Y-58488866D01*
X192212969Y-58488866D02*
X192165350Y-58679342D01*
X192165350Y-58679342D02*
X192117731Y-58774580D01*
X192117731Y-58774580D02*
X192070112Y-58822200D01*
X192070112Y-58822200D02*
X191974874Y-58869819D01*
X191974874Y-58869819D02*
X191879636Y-58869819D01*
X191879636Y-58869819D02*
X191784398Y-58822200D01*
X191784398Y-58822200D02*
X191736779Y-58774580D01*
X191736779Y-58774580D02*
X191689160Y-58679342D01*
X191689160Y-58679342D02*
X191641541Y-58488866D01*
X191641541Y-58488866D02*
X191641541Y-58250771D01*
X191641541Y-58250771D02*
X191689160Y-58060295D01*
X191689160Y-58060295D02*
X191736779Y-57965057D01*
X191736779Y-57965057D02*
X191784398Y-57917438D01*
X191784398Y-57917438D02*
X191879636Y-57869819D01*
X191260588Y-56369819D02*
X190689160Y-56369819D01*
X190974874Y-56369819D02*
X190974874Y-55369819D01*
X190974874Y-55369819D02*
X190879636Y-55512676D01*
X190879636Y-55512676D02*
X190784398Y-55607914D01*
X190784398Y-55607914D02*
X190689160Y-55655533D01*
X191832017Y-55798390D02*
X191736779Y-55750771D01*
X191736779Y-55750771D02*
X191689160Y-55703152D01*
X191689160Y-55703152D02*
X191641541Y-55607914D01*
X191641541Y-55607914D02*
X191641541Y-55560295D01*
X191641541Y-55560295D02*
X191689160Y-55465057D01*
X191689160Y-55465057D02*
X191736779Y-55417438D01*
X191736779Y-55417438D02*
X191832017Y-55369819D01*
X191832017Y-55369819D02*
X192022493Y-55369819D01*
X192022493Y-55369819D02*
X192117731Y-55417438D01*
X192117731Y-55417438D02*
X192165350Y-55465057D01*
X192165350Y-55465057D02*
X192212969Y-55560295D01*
X192212969Y-55560295D02*
X192212969Y-55607914D01*
X192212969Y-55607914D02*
X192165350Y-55703152D01*
X192165350Y-55703152D02*
X192117731Y-55750771D01*
X192117731Y-55750771D02*
X192022493Y-55798390D01*
X192022493Y-55798390D02*
X191832017Y-55798390D01*
X191832017Y-55798390D02*
X191736779Y-55846009D01*
X191736779Y-55846009D02*
X191689160Y-55893628D01*
X191689160Y-55893628D02*
X191641541Y-55988866D01*
X191641541Y-55988866D02*
X191641541Y-56179342D01*
X191641541Y-56179342D02*
X191689160Y-56274580D01*
X191689160Y-56274580D02*
X191736779Y-56322200D01*
X191736779Y-56322200D02*
X191832017Y-56369819D01*
X191832017Y-56369819D02*
X192022493Y-56369819D01*
X192022493Y-56369819D02*
X192117731Y-56322200D01*
X192117731Y-56322200D02*
X192165350Y-56274580D01*
X192165350Y-56274580D02*
X192212969Y-56179342D01*
X192212969Y-56179342D02*
X192212969Y-55988866D01*
X192212969Y-55988866D02*
X192165350Y-55893628D01*
X192165350Y-55893628D02*
X192117731Y-55846009D01*
X192117731Y-55846009D02*
X192022493Y-55798390D01*
X190589160Y-35215057D02*
X190636779Y-35167438D01*
X190636779Y-35167438D02*
X190732017Y-35119819D01*
X190732017Y-35119819D02*
X190970112Y-35119819D01*
X190970112Y-35119819D02*
X191065350Y-35167438D01*
X191065350Y-35167438D02*
X191112969Y-35215057D01*
X191112969Y-35215057D02*
X191160588Y-35310295D01*
X191160588Y-35310295D02*
X191160588Y-35405533D01*
X191160588Y-35405533D02*
X191112969Y-35548390D01*
X191112969Y-35548390D02*
X190541541Y-36119819D01*
X190541541Y-36119819D02*
X191160588Y-36119819D01*
X191065350Y-40219819D02*
X190874874Y-40219819D01*
X190874874Y-40219819D02*
X190779636Y-40267438D01*
X190779636Y-40267438D02*
X190732017Y-40315057D01*
X190732017Y-40315057D02*
X190636779Y-40457914D01*
X190636779Y-40457914D02*
X190589160Y-40648390D01*
X190589160Y-40648390D02*
X190589160Y-41029342D01*
X190589160Y-41029342D02*
X190636779Y-41124580D01*
X190636779Y-41124580D02*
X190684398Y-41172200D01*
X190684398Y-41172200D02*
X190779636Y-41219819D01*
X190779636Y-41219819D02*
X190970112Y-41219819D01*
X190970112Y-41219819D02*
X191065350Y-41172200D01*
X191065350Y-41172200D02*
X191112969Y-41124580D01*
X191112969Y-41124580D02*
X191160588Y-41029342D01*
X191160588Y-41029342D02*
X191160588Y-40791247D01*
X191160588Y-40791247D02*
X191112969Y-40696009D01*
X191112969Y-40696009D02*
X191065350Y-40648390D01*
X191065350Y-40648390D02*
X190970112Y-40600771D01*
X190970112Y-40600771D02*
X190779636Y-40600771D01*
X190779636Y-40600771D02*
X190684398Y-40648390D01*
X190684398Y-40648390D02*
X190636779Y-40696009D01*
X190636779Y-40696009D02*
X190589160Y-40791247D01*
X191065350Y-38003152D02*
X191065350Y-38669819D01*
X190827255Y-37622200D02*
X190589160Y-38336485D01*
X190589160Y-38336485D02*
X191208207Y-38336485D01*
X182060588Y-53819817D02*
X181489160Y-53819817D01*
X181774874Y-53819817D02*
X181774874Y-52819817D01*
X181774874Y-52819817D02*
X181679636Y-52962674D01*
X181679636Y-52962674D02*
X181584398Y-53057912D01*
X181584398Y-53057912D02*
X181489160Y-53105531D01*
X182965350Y-52819817D02*
X182489160Y-52819817D01*
X182489160Y-52819817D02*
X182441541Y-53296007D01*
X182441541Y-53296007D02*
X182489160Y-53248388D01*
X182489160Y-53248388D02*
X182584398Y-53200769D01*
X182584398Y-53200769D02*
X182822493Y-53200769D01*
X182822493Y-53200769D02*
X182917731Y-53248388D01*
X182917731Y-53248388D02*
X182965350Y-53296007D01*
X182965350Y-53296007D02*
X183012969Y-53391245D01*
X183012969Y-53391245D02*
X183012969Y-53629340D01*
X183012969Y-53629340D02*
X182965350Y-53724578D01*
X182965350Y-53724578D02*
X182917731Y-53772198D01*
X182917731Y-53772198D02*
X182822493Y-53819817D01*
X182822493Y-53819817D02*
X182584398Y-53819817D01*
X182584398Y-53819817D02*
X182489160Y-53772198D01*
X182489160Y-53772198D02*
X182441541Y-53724578D01*
X182060588Y-48748389D02*
X181489160Y-48748389D01*
X181774874Y-48748389D02*
X181774874Y-47748389D01*
X181774874Y-47748389D02*
X181679636Y-47891246D01*
X181679636Y-47891246D02*
X181584398Y-47986484D01*
X181584398Y-47986484D02*
X181489160Y-48034103D01*
X183012969Y-48748389D02*
X182441541Y-48748389D01*
X182727255Y-48748389D02*
X182727255Y-47748389D01*
X182727255Y-47748389D02*
X182632017Y-47891246D01*
X182632017Y-47891246D02*
X182536779Y-47986484D01*
X182536779Y-47986484D02*
X182441541Y-48034103D01*
X182060588Y-51284103D02*
X181489160Y-51284103D01*
X181774874Y-51284103D02*
X181774874Y-50284103D01*
X181774874Y-50284103D02*
X181679636Y-50426960D01*
X181679636Y-50426960D02*
X181584398Y-50522198D01*
X181584398Y-50522198D02*
X181489160Y-50569817D01*
X182393922Y-50284103D02*
X183012969Y-50284103D01*
X183012969Y-50284103D02*
X182679636Y-50665055D01*
X182679636Y-50665055D02*
X182822493Y-50665055D01*
X182822493Y-50665055D02*
X182917731Y-50712674D01*
X182917731Y-50712674D02*
X182965350Y-50760293D01*
X182965350Y-50760293D02*
X183012969Y-50855531D01*
X183012969Y-50855531D02*
X183012969Y-51093626D01*
X183012969Y-51093626D02*
X182965350Y-51188864D01*
X182965350Y-51188864D02*
X182917731Y-51236484D01*
X182917731Y-51236484D02*
X182822493Y-51284103D01*
X182822493Y-51284103D02*
X182536779Y-51284103D01*
X182536779Y-51284103D02*
X182441541Y-51236484D01*
X182441541Y-51236484D02*
X182393922Y-51188864D01*
X182241541Y-37605533D02*
X182860588Y-37605533D01*
X182860588Y-37605533D02*
X182527255Y-37986485D01*
X182527255Y-37986485D02*
X182670112Y-37986485D01*
X182670112Y-37986485D02*
X182765350Y-38034104D01*
X182765350Y-38034104D02*
X182812969Y-38081723D01*
X182812969Y-38081723D02*
X182860588Y-38176961D01*
X182860588Y-38176961D02*
X182860588Y-38415056D01*
X182860588Y-38415056D02*
X182812969Y-38510294D01*
X182812969Y-38510294D02*
X182765350Y-38557914D01*
X182765350Y-38557914D02*
X182670112Y-38605533D01*
X182670112Y-38605533D02*
X182384398Y-38605533D01*
X182384398Y-38605533D02*
X182289160Y-38557914D01*
X182289160Y-38557914D02*
X182241541Y-38510294D01*
X182241541Y-42676961D02*
X182908207Y-42676961D01*
X182908207Y-42676961D02*
X182479636Y-43676961D01*
X182812969Y-40141247D02*
X182336779Y-40141247D01*
X182336779Y-40141247D02*
X182289160Y-40617437D01*
X182289160Y-40617437D02*
X182336779Y-40569818D01*
X182336779Y-40569818D02*
X182432017Y-40522199D01*
X182432017Y-40522199D02*
X182670112Y-40522199D01*
X182670112Y-40522199D02*
X182765350Y-40569818D01*
X182765350Y-40569818D02*
X182812969Y-40617437D01*
X182812969Y-40617437D02*
X182860588Y-40712675D01*
X182860588Y-40712675D02*
X182860588Y-40950770D01*
X182860588Y-40950770D02*
X182812969Y-41046008D01*
X182812969Y-41046008D02*
X182765350Y-41093628D01*
X182765350Y-41093628D02*
X182670112Y-41141247D01*
X182670112Y-41141247D02*
X182432017Y-41141247D01*
X182432017Y-41141247D02*
X182336779Y-41093628D01*
X182336779Y-41093628D02*
X182289160Y-41046008D01*
X182860588Y-36069819D02*
X182289160Y-36069819D01*
X182574874Y-36069819D02*
X182574874Y-35069819D01*
X182574874Y-35069819D02*
X182479636Y-35212676D01*
X182479636Y-35212676D02*
X182384398Y-35307914D01*
X182384398Y-35307914D02*
X182289160Y-35355533D01*
X182060588Y-56355531D02*
X181489160Y-56355531D01*
X181774874Y-56355531D02*
X181774874Y-55355531D01*
X181774874Y-55355531D02*
X181679636Y-55498388D01*
X181679636Y-55498388D02*
X181584398Y-55593626D01*
X181584398Y-55593626D02*
X181489160Y-55641245D01*
X182393922Y-55355531D02*
X183060588Y-55355531D01*
X183060588Y-55355531D02*
X182632017Y-56355531D01*
X190441541Y-103769819D02*
X191060588Y-103769819D01*
X191060588Y-103769819D02*
X190727255Y-104150771D01*
X190727255Y-104150771D02*
X190870112Y-104150771D01*
X190870112Y-104150771D02*
X190965350Y-104198390D01*
X190965350Y-104198390D02*
X191012969Y-104246009D01*
X191012969Y-104246009D02*
X191060588Y-104341247D01*
X191060588Y-104341247D02*
X191060588Y-104579342D01*
X191060588Y-104579342D02*
X191012969Y-104674580D01*
X191012969Y-104674580D02*
X190965350Y-104722200D01*
X190965350Y-104722200D02*
X190870112Y-104769819D01*
X190870112Y-104769819D02*
X190584398Y-104769819D01*
X190584398Y-104769819D02*
X190489160Y-104722200D01*
X190489160Y-104722200D02*
X190441541Y-104674580D01*
X191917731Y-104103152D02*
X191917731Y-104769819D01*
X191679636Y-103722200D02*
X191441541Y-104436485D01*
X191441541Y-104436485D02*
X192060588Y-104436485D01*
X190441541Y-101169819D02*
X191060588Y-101169819D01*
X191060588Y-101169819D02*
X190727255Y-101550771D01*
X190727255Y-101550771D02*
X190870112Y-101550771D01*
X190870112Y-101550771D02*
X190965350Y-101598390D01*
X190965350Y-101598390D02*
X191012969Y-101646009D01*
X191012969Y-101646009D02*
X191060588Y-101741247D01*
X191060588Y-101741247D02*
X191060588Y-101979342D01*
X191060588Y-101979342D02*
X191012969Y-102074580D01*
X191012969Y-102074580D02*
X190965350Y-102122200D01*
X190965350Y-102122200D02*
X190870112Y-102169819D01*
X190870112Y-102169819D02*
X190584398Y-102169819D01*
X190584398Y-102169819D02*
X190489160Y-102122200D01*
X190489160Y-102122200D02*
X190441541Y-102074580D01*
X191441541Y-101265057D02*
X191489160Y-101217438D01*
X191489160Y-101217438D02*
X191584398Y-101169819D01*
X191584398Y-101169819D02*
X191822493Y-101169819D01*
X191822493Y-101169819D02*
X191917731Y-101217438D01*
X191917731Y-101217438D02*
X191965350Y-101265057D01*
X191965350Y-101265057D02*
X192012969Y-101360295D01*
X192012969Y-101360295D02*
X192012969Y-101455533D01*
X192012969Y-101455533D02*
X191965350Y-101598390D01*
X191965350Y-101598390D02*
X191393922Y-102169819D01*
X191393922Y-102169819D02*
X192012969Y-102169819D01*
X191060588Y-84269819D02*
X190489160Y-84269819D01*
X190774874Y-84269819D02*
X190774874Y-83269819D01*
X190774874Y-83269819D02*
X190679636Y-83412676D01*
X190679636Y-83412676D02*
X190584398Y-83507914D01*
X190584398Y-83507914D02*
X190489160Y-83555533D01*
X191632017Y-83698390D02*
X191536779Y-83650771D01*
X191536779Y-83650771D02*
X191489160Y-83603152D01*
X191489160Y-83603152D02*
X191441541Y-83507914D01*
X191441541Y-83507914D02*
X191441541Y-83460295D01*
X191441541Y-83460295D02*
X191489160Y-83365057D01*
X191489160Y-83365057D02*
X191536779Y-83317438D01*
X191536779Y-83317438D02*
X191632017Y-83269819D01*
X191632017Y-83269819D02*
X191822493Y-83269819D01*
X191822493Y-83269819D02*
X191917731Y-83317438D01*
X191917731Y-83317438D02*
X191965350Y-83365057D01*
X191965350Y-83365057D02*
X192012969Y-83460295D01*
X192012969Y-83460295D02*
X192012969Y-83507914D01*
X192012969Y-83507914D02*
X191965350Y-83603152D01*
X191965350Y-83603152D02*
X191917731Y-83650771D01*
X191917731Y-83650771D02*
X191822493Y-83698390D01*
X191822493Y-83698390D02*
X191632017Y-83698390D01*
X191632017Y-83698390D02*
X191536779Y-83746009D01*
X191536779Y-83746009D02*
X191489160Y-83793628D01*
X191489160Y-83793628D02*
X191441541Y-83888866D01*
X191441541Y-83888866D02*
X191441541Y-84079342D01*
X191441541Y-84079342D02*
X191489160Y-84174580D01*
X191489160Y-84174580D02*
X191536779Y-84222200D01*
X191536779Y-84222200D02*
X191632017Y-84269819D01*
X191632017Y-84269819D02*
X191822493Y-84269819D01*
X191822493Y-84269819D02*
X191917731Y-84222200D01*
X191917731Y-84222200D02*
X191965350Y-84174580D01*
X191965350Y-84174580D02*
X192012969Y-84079342D01*
X192012969Y-84079342D02*
X192012969Y-83888866D01*
X192012969Y-83888866D02*
X191965350Y-83793628D01*
X191965350Y-83793628D02*
X191917731Y-83746009D01*
X191917731Y-83746009D02*
X191822493Y-83698390D01*
X190489160Y-90865057D02*
X190536779Y-90817438D01*
X190536779Y-90817438D02*
X190632017Y-90769819D01*
X190632017Y-90769819D02*
X190870112Y-90769819D01*
X190870112Y-90769819D02*
X190965350Y-90817438D01*
X190965350Y-90817438D02*
X191012969Y-90865057D01*
X191012969Y-90865057D02*
X191060588Y-90960295D01*
X191060588Y-90960295D02*
X191060588Y-91055533D01*
X191060588Y-91055533D02*
X191012969Y-91198390D01*
X191012969Y-91198390D02*
X190441541Y-91769819D01*
X190441541Y-91769819D02*
X191060588Y-91769819D01*
X191917731Y-91103152D02*
X191917731Y-91769819D01*
X191679636Y-90722200D02*
X191441541Y-91436485D01*
X191441541Y-91436485D02*
X192060588Y-91436485D01*
X190489160Y-85865057D02*
X190536779Y-85817438D01*
X190536779Y-85817438D02*
X190632017Y-85769819D01*
X190632017Y-85769819D02*
X190870112Y-85769819D01*
X190870112Y-85769819D02*
X190965350Y-85817438D01*
X190965350Y-85817438D02*
X191012969Y-85865057D01*
X191012969Y-85865057D02*
X191060588Y-85960295D01*
X191060588Y-85960295D02*
X191060588Y-86055533D01*
X191060588Y-86055533D02*
X191012969Y-86198390D01*
X191012969Y-86198390D02*
X190441541Y-86769819D01*
X190441541Y-86769819D02*
X191060588Y-86769819D01*
X191679636Y-85769819D02*
X191774874Y-85769819D01*
X191774874Y-85769819D02*
X191870112Y-85817438D01*
X191870112Y-85817438D02*
X191917731Y-85865057D01*
X191917731Y-85865057D02*
X191965350Y-85960295D01*
X191965350Y-85960295D02*
X192012969Y-86150771D01*
X192012969Y-86150771D02*
X192012969Y-86388866D01*
X192012969Y-86388866D02*
X191965350Y-86579342D01*
X191965350Y-86579342D02*
X191917731Y-86674580D01*
X191917731Y-86674580D02*
X191870112Y-86722200D01*
X191870112Y-86722200D02*
X191774874Y-86769819D01*
X191774874Y-86769819D02*
X191679636Y-86769819D01*
X191679636Y-86769819D02*
X191584398Y-86722200D01*
X191584398Y-86722200D02*
X191536779Y-86674580D01*
X191536779Y-86674580D02*
X191489160Y-86579342D01*
X191489160Y-86579342D02*
X191441541Y-86388866D01*
X191441541Y-86388866D02*
X191441541Y-86150771D01*
X191441541Y-86150771D02*
X191489160Y-85960295D01*
X191489160Y-85960295D02*
X191536779Y-85865057D01*
X191536779Y-85865057D02*
X191584398Y-85817438D01*
X191584398Y-85817438D02*
X191679636Y-85769819D01*
X190489160Y-88265057D02*
X190536779Y-88217438D01*
X190536779Y-88217438D02*
X190632017Y-88169819D01*
X190632017Y-88169819D02*
X190870112Y-88169819D01*
X190870112Y-88169819D02*
X190965350Y-88217438D01*
X190965350Y-88217438D02*
X191012969Y-88265057D01*
X191012969Y-88265057D02*
X191060588Y-88360295D01*
X191060588Y-88360295D02*
X191060588Y-88455533D01*
X191060588Y-88455533D02*
X191012969Y-88598390D01*
X191012969Y-88598390D02*
X190441541Y-89169819D01*
X190441541Y-89169819D02*
X191060588Y-89169819D01*
X191441541Y-88265057D02*
X191489160Y-88217438D01*
X191489160Y-88217438D02*
X191584398Y-88169819D01*
X191584398Y-88169819D02*
X191822493Y-88169819D01*
X191822493Y-88169819D02*
X191917731Y-88217438D01*
X191917731Y-88217438D02*
X191965350Y-88265057D01*
X191965350Y-88265057D02*
X192012969Y-88360295D01*
X192012969Y-88360295D02*
X192012969Y-88455533D01*
X192012969Y-88455533D02*
X191965350Y-88598390D01*
X191965350Y-88598390D02*
X191393922Y-89169819D01*
X191393922Y-89169819D02*
X192012969Y-89169819D01*
X190441541Y-98469819D02*
X191060588Y-98469819D01*
X191060588Y-98469819D02*
X190727255Y-98850771D01*
X190727255Y-98850771D02*
X190870112Y-98850771D01*
X190870112Y-98850771D02*
X190965350Y-98898390D01*
X190965350Y-98898390D02*
X191012969Y-98946009D01*
X191012969Y-98946009D02*
X191060588Y-99041247D01*
X191060588Y-99041247D02*
X191060588Y-99279342D01*
X191060588Y-99279342D02*
X191012969Y-99374580D01*
X191012969Y-99374580D02*
X190965350Y-99422200D01*
X190965350Y-99422200D02*
X190870112Y-99469819D01*
X190870112Y-99469819D02*
X190584398Y-99469819D01*
X190584398Y-99469819D02*
X190489160Y-99422200D01*
X190489160Y-99422200D02*
X190441541Y-99374580D01*
X191679636Y-98469819D02*
X191774874Y-98469819D01*
X191774874Y-98469819D02*
X191870112Y-98517438D01*
X191870112Y-98517438D02*
X191917731Y-98565057D01*
X191917731Y-98565057D02*
X191965350Y-98660295D01*
X191965350Y-98660295D02*
X192012969Y-98850771D01*
X192012969Y-98850771D02*
X192012969Y-99088866D01*
X192012969Y-99088866D02*
X191965350Y-99279342D01*
X191965350Y-99279342D02*
X191917731Y-99374580D01*
X191917731Y-99374580D02*
X191870112Y-99422200D01*
X191870112Y-99422200D02*
X191774874Y-99469819D01*
X191774874Y-99469819D02*
X191679636Y-99469819D01*
X191679636Y-99469819D02*
X191584398Y-99422200D01*
X191584398Y-99422200D02*
X191536779Y-99374580D01*
X191536779Y-99374580D02*
X191489160Y-99279342D01*
X191489160Y-99279342D02*
X191441541Y-99088866D01*
X191441541Y-99088866D02*
X191441541Y-98850771D01*
X191441541Y-98850771D02*
X191489160Y-98660295D01*
X191489160Y-98660295D02*
X191536779Y-98565057D01*
X191536779Y-98565057D02*
X191584398Y-98517438D01*
X191584398Y-98517438D02*
X191679636Y-98469819D01*
X190489160Y-93565057D02*
X190536779Y-93517438D01*
X190536779Y-93517438D02*
X190632017Y-93469819D01*
X190632017Y-93469819D02*
X190870112Y-93469819D01*
X190870112Y-93469819D02*
X190965350Y-93517438D01*
X190965350Y-93517438D02*
X191012969Y-93565057D01*
X191012969Y-93565057D02*
X191060588Y-93660295D01*
X191060588Y-93660295D02*
X191060588Y-93755533D01*
X191060588Y-93755533D02*
X191012969Y-93898390D01*
X191012969Y-93898390D02*
X190441541Y-94469819D01*
X190441541Y-94469819D02*
X191060588Y-94469819D01*
X191917731Y-93469819D02*
X191727255Y-93469819D01*
X191727255Y-93469819D02*
X191632017Y-93517438D01*
X191632017Y-93517438D02*
X191584398Y-93565057D01*
X191584398Y-93565057D02*
X191489160Y-93707914D01*
X191489160Y-93707914D02*
X191441541Y-93898390D01*
X191441541Y-93898390D02*
X191441541Y-94279342D01*
X191441541Y-94279342D02*
X191489160Y-94374580D01*
X191489160Y-94374580D02*
X191536779Y-94422200D01*
X191536779Y-94422200D02*
X191632017Y-94469819D01*
X191632017Y-94469819D02*
X191822493Y-94469819D01*
X191822493Y-94469819D02*
X191917731Y-94422200D01*
X191917731Y-94422200D02*
X191965350Y-94374580D01*
X191965350Y-94374580D02*
X192012969Y-94279342D01*
X192012969Y-94279342D02*
X192012969Y-94041247D01*
X192012969Y-94041247D02*
X191965350Y-93946009D01*
X191965350Y-93946009D02*
X191917731Y-93898390D01*
X191917731Y-93898390D02*
X191822493Y-93850771D01*
X191822493Y-93850771D02*
X191632017Y-93850771D01*
X191632017Y-93850771D02*
X191536779Y-93898390D01*
X191536779Y-93898390D02*
X191489160Y-93946009D01*
X191489160Y-93946009D02*
X191441541Y-94041247D01*
X190489160Y-95965057D02*
X190536779Y-95917438D01*
X190536779Y-95917438D02*
X190632017Y-95869819D01*
X190632017Y-95869819D02*
X190870112Y-95869819D01*
X190870112Y-95869819D02*
X190965350Y-95917438D01*
X190965350Y-95917438D02*
X191012969Y-95965057D01*
X191012969Y-95965057D02*
X191060588Y-96060295D01*
X191060588Y-96060295D02*
X191060588Y-96155533D01*
X191060588Y-96155533D02*
X191012969Y-96298390D01*
X191012969Y-96298390D02*
X190441541Y-96869819D01*
X190441541Y-96869819D02*
X191060588Y-96869819D01*
X191632017Y-96298390D02*
X191536779Y-96250771D01*
X191536779Y-96250771D02*
X191489160Y-96203152D01*
X191489160Y-96203152D02*
X191441541Y-96107914D01*
X191441541Y-96107914D02*
X191441541Y-96060295D01*
X191441541Y-96060295D02*
X191489160Y-95965057D01*
X191489160Y-95965057D02*
X191536779Y-95917438D01*
X191536779Y-95917438D02*
X191632017Y-95869819D01*
X191632017Y-95869819D02*
X191822493Y-95869819D01*
X191822493Y-95869819D02*
X191917731Y-95917438D01*
X191917731Y-95917438D02*
X191965350Y-95965057D01*
X191965350Y-95965057D02*
X192012969Y-96060295D01*
X192012969Y-96060295D02*
X192012969Y-96107914D01*
X192012969Y-96107914D02*
X191965350Y-96203152D01*
X191965350Y-96203152D02*
X191917731Y-96250771D01*
X191917731Y-96250771D02*
X191822493Y-96298390D01*
X191822493Y-96298390D02*
X191632017Y-96298390D01*
X191632017Y-96298390D02*
X191536779Y-96346009D01*
X191536779Y-96346009D02*
X191489160Y-96393628D01*
X191489160Y-96393628D02*
X191441541Y-96488866D01*
X191441541Y-96488866D02*
X191441541Y-96679342D01*
X191441541Y-96679342D02*
X191489160Y-96774580D01*
X191489160Y-96774580D02*
X191536779Y-96822200D01*
X191536779Y-96822200D02*
X191632017Y-96869819D01*
X191632017Y-96869819D02*
X191822493Y-96869819D01*
X191822493Y-96869819D02*
X191917731Y-96822200D01*
X191917731Y-96822200D02*
X191965350Y-96774580D01*
X191965350Y-96774580D02*
X192012969Y-96679342D01*
X192012969Y-96679342D02*
X192012969Y-96488866D01*
X192012969Y-96488866D02*
X191965350Y-96393628D01*
X191965350Y-96393628D02*
X191917731Y-96346009D01*
X191917731Y-96346009D02*
X191822493Y-96298390D01*
X190489160Y-62865057D02*
X190536779Y-62817438D01*
X190536779Y-62817438D02*
X190632017Y-62769819D01*
X190632017Y-62769819D02*
X190870112Y-62769819D01*
X190870112Y-62769819D02*
X190965350Y-62817438D01*
X190965350Y-62817438D02*
X191012969Y-62865057D01*
X191012969Y-62865057D02*
X191060588Y-62960295D01*
X191060588Y-62960295D02*
X191060588Y-63055533D01*
X191060588Y-63055533D02*
X191012969Y-63198390D01*
X191012969Y-63198390D02*
X190441541Y-63769819D01*
X190441541Y-63769819D02*
X191060588Y-63769819D01*
X190965350Y-65653152D02*
X190965350Y-66319819D01*
X190727255Y-65272200D02*
X190489160Y-65986485D01*
X190489160Y-65986485D02*
X191108207Y-65986485D01*
X191060588Y-81669819D02*
X190489160Y-81669819D01*
X190774874Y-81669819D02*
X190774874Y-80669819D01*
X190774874Y-80669819D02*
X190679636Y-80812676D01*
X190679636Y-80812676D02*
X190584398Y-80907914D01*
X190584398Y-80907914D02*
X190489160Y-80955533D01*
X191917731Y-80669819D02*
X191727255Y-80669819D01*
X191727255Y-80669819D02*
X191632017Y-80717438D01*
X191632017Y-80717438D02*
X191584398Y-80765057D01*
X191584398Y-80765057D02*
X191489160Y-80907914D01*
X191489160Y-80907914D02*
X191441541Y-81098390D01*
X191441541Y-81098390D02*
X191441541Y-81479342D01*
X191441541Y-81479342D02*
X191489160Y-81574580D01*
X191489160Y-81574580D02*
X191536779Y-81622200D01*
X191536779Y-81622200D02*
X191632017Y-81669819D01*
X191632017Y-81669819D02*
X191822493Y-81669819D01*
X191822493Y-81669819D02*
X191917731Y-81622200D01*
X191917731Y-81622200D02*
X191965350Y-81574580D01*
X191965350Y-81574580D02*
X192012969Y-81479342D01*
X192012969Y-81479342D02*
X192012969Y-81241247D01*
X192012969Y-81241247D02*
X191965350Y-81146009D01*
X191965350Y-81146009D02*
X191917731Y-81098390D01*
X191917731Y-81098390D02*
X191822493Y-81050771D01*
X191822493Y-81050771D02*
X191632017Y-81050771D01*
X191632017Y-81050771D02*
X191536779Y-81098390D01*
X191536779Y-81098390D02*
X191489160Y-81146009D01*
X191489160Y-81146009D02*
X191441541Y-81241247D01*
X191060588Y-76669819D02*
X190489160Y-76669819D01*
X190774874Y-76669819D02*
X190774874Y-75669819D01*
X190774874Y-75669819D02*
X190679636Y-75812676D01*
X190679636Y-75812676D02*
X190584398Y-75907914D01*
X190584398Y-75907914D02*
X190489160Y-75955533D01*
X191441541Y-75765057D02*
X191489160Y-75717438D01*
X191489160Y-75717438D02*
X191584398Y-75669819D01*
X191584398Y-75669819D02*
X191822493Y-75669819D01*
X191822493Y-75669819D02*
X191917731Y-75717438D01*
X191917731Y-75717438D02*
X191965350Y-75765057D01*
X191965350Y-75765057D02*
X192012969Y-75860295D01*
X192012969Y-75860295D02*
X192012969Y-75955533D01*
X192012969Y-75955533D02*
X191965350Y-76098390D01*
X191965350Y-76098390D02*
X191393922Y-76669819D01*
X191393922Y-76669819D02*
X192012969Y-76669819D01*
X191060588Y-79069819D02*
X190489160Y-79069819D01*
X190774874Y-79069819D02*
X190774874Y-78069819D01*
X190774874Y-78069819D02*
X190679636Y-78212676D01*
X190679636Y-78212676D02*
X190584398Y-78307914D01*
X190584398Y-78307914D02*
X190489160Y-78355533D01*
X191917731Y-78403152D02*
X191917731Y-79069819D01*
X191679636Y-78022200D02*
X191441541Y-78736485D01*
X191441541Y-78736485D02*
X192060588Y-78736485D01*
X191060588Y-73969819D02*
X190489160Y-73969819D01*
X190774874Y-73969819D02*
X190774874Y-72969819D01*
X190774874Y-72969819D02*
X190679636Y-73112676D01*
X190679636Y-73112676D02*
X190584398Y-73207914D01*
X190584398Y-73207914D02*
X190489160Y-73255533D01*
X191679636Y-72969819D02*
X191774874Y-72969819D01*
X191774874Y-72969819D02*
X191870112Y-73017438D01*
X191870112Y-73017438D02*
X191917731Y-73065057D01*
X191917731Y-73065057D02*
X191965350Y-73160295D01*
X191965350Y-73160295D02*
X192012969Y-73350771D01*
X192012969Y-73350771D02*
X192012969Y-73588866D01*
X192012969Y-73588866D02*
X191965350Y-73779342D01*
X191965350Y-73779342D02*
X191917731Y-73874580D01*
X191917731Y-73874580D02*
X191870112Y-73922200D01*
X191870112Y-73922200D02*
X191774874Y-73969819D01*
X191774874Y-73969819D02*
X191679636Y-73969819D01*
X191679636Y-73969819D02*
X191584398Y-73922200D01*
X191584398Y-73922200D02*
X191536779Y-73874580D01*
X191536779Y-73874580D02*
X191489160Y-73779342D01*
X191489160Y-73779342D02*
X191441541Y-73588866D01*
X191441541Y-73588866D02*
X191441541Y-73350771D01*
X191441541Y-73350771D02*
X191489160Y-73160295D01*
X191489160Y-73160295D02*
X191536779Y-73065057D01*
X191536779Y-73065057D02*
X191584398Y-73017438D01*
X191584398Y-73017438D02*
X191679636Y-72969819D01*
X145460588Y-63969819D02*
X144889160Y-63969819D01*
X145174874Y-63969819D02*
X145174874Y-62969819D01*
X145174874Y-62969819D02*
X145079636Y-63112676D01*
X145079636Y-63112676D02*
X144984398Y-63207914D01*
X144984398Y-63207914D02*
X144889160Y-63255533D01*
X146317731Y-62969819D02*
X146127255Y-62969819D01*
X146127255Y-62969819D02*
X146032017Y-63017438D01*
X146032017Y-63017438D02*
X145984398Y-63065057D01*
X145984398Y-63065057D02*
X145889160Y-63207914D01*
X145889160Y-63207914D02*
X145841541Y-63398390D01*
X145841541Y-63398390D02*
X145841541Y-63779342D01*
X145841541Y-63779342D02*
X145889160Y-63874580D01*
X145889160Y-63874580D02*
X145936779Y-63922200D01*
X145936779Y-63922200D02*
X146032017Y-63969819D01*
X146032017Y-63969819D02*
X146222493Y-63969819D01*
X146222493Y-63969819D02*
X146317731Y-63922200D01*
X146317731Y-63922200D02*
X146365350Y-63874580D01*
X146365350Y-63874580D02*
X146412969Y-63779342D01*
X146412969Y-63779342D02*
X146412969Y-63541247D01*
X146412969Y-63541247D02*
X146365350Y-63446009D01*
X146365350Y-63446009D02*
X146317731Y-63398390D01*
X146317731Y-63398390D02*
X146222493Y-63350771D01*
X146222493Y-63350771D02*
X146032017Y-63350771D01*
X146032017Y-63350771D02*
X145936779Y-63398390D01*
X145936779Y-63398390D02*
X145889160Y-63446009D01*
X145889160Y-63446009D02*
X145841541Y-63541247D01*
X145460588Y-58969819D02*
X144889160Y-58969819D01*
X145174874Y-58969819D02*
X145174874Y-57969819D01*
X145174874Y-57969819D02*
X145079636Y-58112676D01*
X145079636Y-58112676D02*
X144984398Y-58207914D01*
X144984398Y-58207914D02*
X144889160Y-58255533D01*
X145841541Y-58065057D02*
X145889160Y-58017438D01*
X145889160Y-58017438D02*
X145984398Y-57969819D01*
X145984398Y-57969819D02*
X146222493Y-57969819D01*
X146222493Y-57969819D02*
X146317731Y-58017438D01*
X146317731Y-58017438D02*
X146365350Y-58065057D01*
X146365350Y-58065057D02*
X146412969Y-58160295D01*
X146412969Y-58160295D02*
X146412969Y-58255533D01*
X146412969Y-58255533D02*
X146365350Y-58398390D01*
X146365350Y-58398390D02*
X145793922Y-58969819D01*
X145793922Y-58969819D02*
X146412969Y-58969819D01*
X145460588Y-61369819D02*
X144889160Y-61369819D01*
X145174874Y-61369819D02*
X145174874Y-60369819D01*
X145174874Y-60369819D02*
X145079636Y-60512676D01*
X145079636Y-60512676D02*
X144984398Y-60607914D01*
X144984398Y-60607914D02*
X144889160Y-60655533D01*
X146317731Y-60703152D02*
X146317731Y-61369819D01*
X146079636Y-60322200D02*
X145841541Y-61036485D01*
X145841541Y-61036485D02*
X146460588Y-61036485D01*
X136641541Y-47569819D02*
X137260588Y-47569819D01*
X137260588Y-47569819D02*
X136927255Y-47950771D01*
X136927255Y-47950771D02*
X137070112Y-47950771D01*
X137070112Y-47950771D02*
X137165350Y-47998390D01*
X137165350Y-47998390D02*
X137212969Y-48046009D01*
X137212969Y-48046009D02*
X137260588Y-48141247D01*
X137260588Y-48141247D02*
X137260588Y-48379342D01*
X137260588Y-48379342D02*
X137212969Y-48474580D01*
X137212969Y-48474580D02*
X137165350Y-48522200D01*
X137165350Y-48522200D02*
X137070112Y-48569819D01*
X137070112Y-48569819D02*
X136784398Y-48569819D01*
X136784398Y-48569819D02*
X136689160Y-48522200D01*
X136689160Y-48522200D02*
X136641541Y-48474580D01*
X137212969Y-50105533D02*
X136736779Y-50105533D01*
X136736779Y-50105533D02*
X136689160Y-50581723D01*
X136689160Y-50581723D02*
X136736779Y-50534104D01*
X136736779Y-50534104D02*
X136832017Y-50486485D01*
X136832017Y-50486485D02*
X137070112Y-50486485D01*
X137070112Y-50486485D02*
X137165350Y-50534104D01*
X137165350Y-50534104D02*
X137212969Y-50581723D01*
X137212969Y-50581723D02*
X137260588Y-50676961D01*
X137260588Y-50676961D02*
X137260588Y-50915056D01*
X137260588Y-50915056D02*
X137212969Y-51010294D01*
X137212969Y-51010294D02*
X137165350Y-51057914D01*
X137165350Y-51057914D02*
X137070112Y-51105533D01*
X137070112Y-51105533D02*
X136832017Y-51105533D01*
X136832017Y-51105533D02*
X136736779Y-51057914D01*
X136736779Y-51057914D02*
X136689160Y-51010294D01*
X137260588Y-46034105D02*
X136689160Y-46034105D01*
X136974874Y-46034105D02*
X136974874Y-45034105D01*
X136974874Y-45034105D02*
X136879636Y-45176962D01*
X136879636Y-45176962D02*
X136784398Y-45272200D01*
X136784398Y-45272200D02*
X136689160Y-45319819D01*
X145265350Y-50169819D02*
X145074874Y-50169819D01*
X145074874Y-50169819D02*
X144979636Y-50217438D01*
X144979636Y-50217438D02*
X144932017Y-50265057D01*
X144932017Y-50265057D02*
X144836779Y-50407914D01*
X144836779Y-50407914D02*
X144789160Y-50598390D01*
X144789160Y-50598390D02*
X144789160Y-50979342D01*
X144789160Y-50979342D02*
X144836779Y-51074580D01*
X144836779Y-51074580D02*
X144884398Y-51122200D01*
X144884398Y-51122200D02*
X144979636Y-51169819D01*
X144979636Y-51169819D02*
X145170112Y-51169819D01*
X145170112Y-51169819D02*
X145265350Y-51122200D01*
X145265350Y-51122200D02*
X145312969Y-51074580D01*
X145312969Y-51074580D02*
X145360588Y-50979342D01*
X145360588Y-50979342D02*
X145360588Y-50741247D01*
X145360588Y-50741247D02*
X145312969Y-50646009D01*
X145312969Y-50646009D02*
X145265350Y-50598390D01*
X145265350Y-50598390D02*
X145170112Y-50550771D01*
X145170112Y-50550771D02*
X144979636Y-50550771D01*
X144979636Y-50550771D02*
X144884398Y-50598390D01*
X144884398Y-50598390D02*
X144836779Y-50646009D01*
X144836779Y-50646009D02*
X144789160Y-50741247D01*
X144979636Y-53148390D02*
X144884398Y-53100771D01*
X144884398Y-53100771D02*
X144836779Y-53053152D01*
X144836779Y-53053152D02*
X144789160Y-52957914D01*
X144789160Y-52957914D02*
X144789160Y-52910295D01*
X144789160Y-52910295D02*
X144836779Y-52815057D01*
X144836779Y-52815057D02*
X144884398Y-52767438D01*
X144884398Y-52767438D02*
X144979636Y-52719819D01*
X144979636Y-52719819D02*
X145170112Y-52719819D01*
X145170112Y-52719819D02*
X145265350Y-52767438D01*
X145265350Y-52767438D02*
X145312969Y-52815057D01*
X145312969Y-52815057D02*
X145360588Y-52910295D01*
X145360588Y-52910295D02*
X145360588Y-52957914D01*
X145360588Y-52957914D02*
X145312969Y-53053152D01*
X145312969Y-53053152D02*
X145265350Y-53100771D01*
X145265350Y-53100771D02*
X145170112Y-53148390D01*
X145170112Y-53148390D02*
X144979636Y-53148390D01*
X144979636Y-53148390D02*
X144884398Y-53196009D01*
X144884398Y-53196009D02*
X144836779Y-53243628D01*
X144836779Y-53243628D02*
X144789160Y-53338866D01*
X144789160Y-53338866D02*
X144789160Y-53529342D01*
X144789160Y-53529342D02*
X144836779Y-53624580D01*
X144836779Y-53624580D02*
X144884398Y-53672200D01*
X144884398Y-53672200D02*
X144979636Y-53719819D01*
X144979636Y-53719819D02*
X145170112Y-53719819D01*
X145170112Y-53719819D02*
X145265350Y-53672200D01*
X145265350Y-53672200D02*
X145312969Y-53624580D01*
X145312969Y-53624580D02*
X145360588Y-53529342D01*
X145360588Y-53529342D02*
X145360588Y-53338866D01*
X145360588Y-53338866D02*
X145312969Y-53243628D01*
X145312969Y-53243628D02*
X145265350Y-53196009D01*
X145265350Y-53196009D02*
X145170112Y-53148390D01*
X144789160Y-45165057D02*
X144836779Y-45117438D01*
X144836779Y-45117438D02*
X144932017Y-45069819D01*
X144932017Y-45069819D02*
X145170112Y-45069819D01*
X145170112Y-45069819D02*
X145265350Y-45117438D01*
X145265350Y-45117438D02*
X145312969Y-45165057D01*
X145312969Y-45165057D02*
X145360588Y-45260295D01*
X145360588Y-45260295D02*
X145360588Y-45355533D01*
X145360588Y-45355533D02*
X145312969Y-45498390D01*
X145312969Y-45498390D02*
X144741541Y-46069819D01*
X144741541Y-46069819D02*
X145360588Y-46069819D01*
X145265350Y-47953152D02*
X145265350Y-48619819D01*
X145027255Y-47572200D02*
X144789160Y-48286485D01*
X144789160Y-48286485D02*
X145408207Y-48286485D01*
X145360588Y-56269819D02*
X144789160Y-56269819D01*
X145074874Y-56269819D02*
X145074874Y-55269819D01*
X145074874Y-55269819D02*
X144979636Y-55412676D01*
X144979636Y-55412676D02*
X144884398Y-55507914D01*
X144884398Y-55507914D02*
X144789160Y-55555533D01*
X145979636Y-55269819D02*
X146074874Y-55269819D01*
X146074874Y-55269819D02*
X146170112Y-55317438D01*
X146170112Y-55317438D02*
X146217731Y-55365057D01*
X146217731Y-55365057D02*
X146265350Y-55460295D01*
X146265350Y-55460295D02*
X146312969Y-55650771D01*
X146312969Y-55650771D02*
X146312969Y-55888866D01*
X146312969Y-55888866D02*
X146265350Y-56079342D01*
X146265350Y-56079342D02*
X146217731Y-56174580D01*
X146217731Y-56174580D02*
X146170112Y-56222200D01*
X146170112Y-56222200D02*
X146074874Y-56269819D01*
X146074874Y-56269819D02*
X145979636Y-56269819D01*
X145979636Y-56269819D02*
X145884398Y-56222200D01*
X145884398Y-56222200D02*
X145836779Y-56174580D01*
X145836779Y-56174580D02*
X145789160Y-56079342D01*
X145789160Y-56079342D02*
X145741541Y-55888866D01*
X145741541Y-55888866D02*
X145741541Y-55650771D01*
X145741541Y-55650771D02*
X145789160Y-55460295D01*
X145789160Y-55460295D02*
X145836779Y-55365057D01*
X145836779Y-55365057D02*
X145884398Y-55317438D01*
X145884398Y-55317438D02*
X145979636Y-55269819D01*
X144689160Y-101065057D02*
X144736779Y-101017438D01*
X144736779Y-101017438D02*
X144832017Y-100969819D01*
X144832017Y-100969819D02*
X145070112Y-100969819D01*
X145070112Y-100969819D02*
X145165350Y-101017438D01*
X145165350Y-101017438D02*
X145212969Y-101065057D01*
X145212969Y-101065057D02*
X145260588Y-101160295D01*
X145260588Y-101160295D02*
X145260588Y-101255533D01*
X145260588Y-101255533D02*
X145212969Y-101398390D01*
X145212969Y-101398390D02*
X144641541Y-101969819D01*
X144641541Y-101969819D02*
X145260588Y-101969819D01*
X145832017Y-101398390D02*
X145736779Y-101350771D01*
X145736779Y-101350771D02*
X145689160Y-101303152D01*
X145689160Y-101303152D02*
X145641541Y-101207914D01*
X145641541Y-101207914D02*
X145641541Y-101160295D01*
X145641541Y-101160295D02*
X145689160Y-101065057D01*
X145689160Y-101065057D02*
X145736779Y-101017438D01*
X145736779Y-101017438D02*
X145832017Y-100969819D01*
X145832017Y-100969819D02*
X146022493Y-100969819D01*
X146022493Y-100969819D02*
X146117731Y-101017438D01*
X146117731Y-101017438D02*
X146165350Y-101065057D01*
X146165350Y-101065057D02*
X146212969Y-101160295D01*
X146212969Y-101160295D02*
X146212969Y-101207914D01*
X146212969Y-101207914D02*
X146165350Y-101303152D01*
X146165350Y-101303152D02*
X146117731Y-101350771D01*
X146117731Y-101350771D02*
X146022493Y-101398390D01*
X146022493Y-101398390D02*
X145832017Y-101398390D01*
X145832017Y-101398390D02*
X145736779Y-101446009D01*
X145736779Y-101446009D02*
X145689160Y-101493628D01*
X145689160Y-101493628D02*
X145641541Y-101588866D01*
X145641541Y-101588866D02*
X145641541Y-101779342D01*
X145641541Y-101779342D02*
X145689160Y-101874580D01*
X145689160Y-101874580D02*
X145736779Y-101922200D01*
X145736779Y-101922200D02*
X145832017Y-101969819D01*
X145832017Y-101969819D02*
X146022493Y-101969819D01*
X146022493Y-101969819D02*
X146117731Y-101922200D01*
X146117731Y-101922200D02*
X146165350Y-101874580D01*
X146165350Y-101874580D02*
X146212969Y-101779342D01*
X146212969Y-101779342D02*
X146212969Y-101588866D01*
X146212969Y-101588866D02*
X146165350Y-101493628D01*
X146165350Y-101493628D02*
X146117731Y-101446009D01*
X146117731Y-101446009D02*
X146022493Y-101398390D01*
X144641541Y-103569819D02*
X145260588Y-103569819D01*
X145260588Y-103569819D02*
X144927255Y-103950771D01*
X144927255Y-103950771D02*
X145070112Y-103950771D01*
X145070112Y-103950771D02*
X145165350Y-103998390D01*
X145165350Y-103998390D02*
X145212969Y-104046009D01*
X145212969Y-104046009D02*
X145260588Y-104141247D01*
X145260588Y-104141247D02*
X145260588Y-104379342D01*
X145260588Y-104379342D02*
X145212969Y-104474580D01*
X145212969Y-104474580D02*
X145165350Y-104522200D01*
X145165350Y-104522200D02*
X145070112Y-104569819D01*
X145070112Y-104569819D02*
X144784398Y-104569819D01*
X144784398Y-104569819D02*
X144689160Y-104522200D01*
X144689160Y-104522200D02*
X144641541Y-104474580D01*
X145879636Y-103569819D02*
X145974874Y-103569819D01*
X145974874Y-103569819D02*
X146070112Y-103617438D01*
X146070112Y-103617438D02*
X146117731Y-103665057D01*
X146117731Y-103665057D02*
X146165350Y-103760295D01*
X146165350Y-103760295D02*
X146212969Y-103950771D01*
X146212969Y-103950771D02*
X146212969Y-104188866D01*
X146212969Y-104188866D02*
X146165350Y-104379342D01*
X146165350Y-104379342D02*
X146117731Y-104474580D01*
X146117731Y-104474580D02*
X146070112Y-104522200D01*
X146070112Y-104522200D02*
X145974874Y-104569819D01*
X145974874Y-104569819D02*
X145879636Y-104569819D01*
X145879636Y-104569819D02*
X145784398Y-104522200D01*
X145784398Y-104522200D02*
X145736779Y-104474580D01*
X145736779Y-104474580D02*
X145689160Y-104379342D01*
X145689160Y-104379342D02*
X145641541Y-104188866D01*
X145641541Y-104188866D02*
X145641541Y-103950771D01*
X145641541Y-103950771D02*
X145689160Y-103760295D01*
X145689160Y-103760295D02*
X145736779Y-103665057D01*
X145736779Y-103665057D02*
X145784398Y-103617438D01*
X145784398Y-103617438D02*
X145879636Y-103569819D01*
X144689160Y-98665057D02*
X144736779Y-98617438D01*
X144736779Y-98617438D02*
X144832017Y-98569819D01*
X144832017Y-98569819D02*
X145070112Y-98569819D01*
X145070112Y-98569819D02*
X145165350Y-98617438D01*
X145165350Y-98617438D02*
X145212969Y-98665057D01*
X145212969Y-98665057D02*
X145260588Y-98760295D01*
X145260588Y-98760295D02*
X145260588Y-98855533D01*
X145260588Y-98855533D02*
X145212969Y-98998390D01*
X145212969Y-98998390D02*
X144641541Y-99569819D01*
X144641541Y-99569819D02*
X145260588Y-99569819D01*
X146117731Y-98569819D02*
X145927255Y-98569819D01*
X145927255Y-98569819D02*
X145832017Y-98617438D01*
X145832017Y-98617438D02*
X145784398Y-98665057D01*
X145784398Y-98665057D02*
X145689160Y-98807914D01*
X145689160Y-98807914D02*
X145641541Y-98998390D01*
X145641541Y-98998390D02*
X145641541Y-99379342D01*
X145641541Y-99379342D02*
X145689160Y-99474580D01*
X145689160Y-99474580D02*
X145736779Y-99522200D01*
X145736779Y-99522200D02*
X145832017Y-99569819D01*
X145832017Y-99569819D02*
X146022493Y-99569819D01*
X146022493Y-99569819D02*
X146117731Y-99522200D01*
X146117731Y-99522200D02*
X146165350Y-99474580D01*
X146165350Y-99474580D02*
X146212969Y-99379342D01*
X146212969Y-99379342D02*
X146212969Y-99141247D01*
X146212969Y-99141247D02*
X146165350Y-99046009D01*
X146165350Y-99046009D02*
X146117731Y-98998390D01*
X146117731Y-98998390D02*
X146022493Y-98950771D01*
X146022493Y-98950771D02*
X145832017Y-98950771D01*
X145832017Y-98950771D02*
X145736779Y-98998390D01*
X145736779Y-98998390D02*
X145689160Y-99046009D01*
X145689160Y-99046009D02*
X145641541Y-99141247D01*
X135889160Y-103665057D02*
X135936779Y-103617438D01*
X135936779Y-103617438D02*
X136032017Y-103569819D01*
X136032017Y-103569819D02*
X136270112Y-103569819D01*
X136270112Y-103569819D02*
X136365350Y-103617438D01*
X136365350Y-103617438D02*
X136412969Y-103665057D01*
X136412969Y-103665057D02*
X136460588Y-103760295D01*
X136460588Y-103760295D02*
X136460588Y-103855533D01*
X136460588Y-103855533D02*
X136412969Y-103998390D01*
X136412969Y-103998390D02*
X135841541Y-104569819D01*
X135841541Y-104569819D02*
X136460588Y-104569819D01*
X136936779Y-104569819D02*
X137127255Y-104569819D01*
X137127255Y-104569819D02*
X137222493Y-104522200D01*
X137222493Y-104522200D02*
X137270112Y-104474580D01*
X137270112Y-104474580D02*
X137365350Y-104331723D01*
X137365350Y-104331723D02*
X137412969Y-104141247D01*
X137412969Y-104141247D02*
X137412969Y-103760295D01*
X137412969Y-103760295D02*
X137365350Y-103665057D01*
X137365350Y-103665057D02*
X137317731Y-103617438D01*
X137317731Y-103617438D02*
X137222493Y-103569819D01*
X137222493Y-103569819D02*
X137032017Y-103569819D01*
X137032017Y-103569819D02*
X136936779Y-103617438D01*
X136936779Y-103617438D02*
X136889160Y-103665057D01*
X136889160Y-103665057D02*
X136841541Y-103760295D01*
X136841541Y-103760295D02*
X136841541Y-103998390D01*
X136841541Y-103998390D02*
X136889160Y-104093628D01*
X136889160Y-104093628D02*
X136936779Y-104141247D01*
X136936779Y-104141247D02*
X137032017Y-104188866D01*
X137032017Y-104188866D02*
X137222493Y-104188866D01*
X137222493Y-104188866D02*
X137317731Y-104141247D01*
X137317731Y-104141247D02*
X137365350Y-104093628D01*
X137365350Y-104093628D02*
X137412969Y-103998390D01*
X135889160Y-101129339D02*
X135936779Y-101081720D01*
X135936779Y-101081720D02*
X136032017Y-101034101D01*
X136032017Y-101034101D02*
X136270112Y-101034101D01*
X136270112Y-101034101D02*
X136365350Y-101081720D01*
X136365350Y-101081720D02*
X136412969Y-101129339D01*
X136412969Y-101129339D02*
X136460588Y-101224577D01*
X136460588Y-101224577D02*
X136460588Y-101319815D01*
X136460588Y-101319815D02*
X136412969Y-101462672D01*
X136412969Y-101462672D02*
X135841541Y-102034101D01*
X135841541Y-102034101D02*
X136460588Y-102034101D01*
X136793922Y-101034101D02*
X137460588Y-101034101D01*
X137460588Y-101034101D02*
X137032017Y-102034101D01*
X135889160Y-96057911D02*
X135936779Y-96010292D01*
X135936779Y-96010292D02*
X136032017Y-95962673D01*
X136032017Y-95962673D02*
X136270112Y-95962673D01*
X136270112Y-95962673D02*
X136365350Y-96010292D01*
X136365350Y-96010292D02*
X136412969Y-96057911D01*
X136412969Y-96057911D02*
X136460588Y-96153149D01*
X136460588Y-96153149D02*
X136460588Y-96248387D01*
X136460588Y-96248387D02*
X136412969Y-96391244D01*
X136412969Y-96391244D02*
X135841541Y-96962673D01*
X135841541Y-96962673D02*
X136460588Y-96962673D01*
X136793922Y-95962673D02*
X137412969Y-95962673D01*
X137412969Y-95962673D02*
X137079636Y-96343625D01*
X137079636Y-96343625D02*
X137222493Y-96343625D01*
X137222493Y-96343625D02*
X137317731Y-96391244D01*
X137317731Y-96391244D02*
X137365350Y-96438863D01*
X137365350Y-96438863D02*
X137412969Y-96534101D01*
X137412969Y-96534101D02*
X137412969Y-96772196D01*
X137412969Y-96772196D02*
X137365350Y-96867434D01*
X137365350Y-96867434D02*
X137317731Y-96915054D01*
X137317731Y-96915054D02*
X137222493Y-96962673D01*
X137222493Y-96962673D02*
X136936779Y-96962673D01*
X136936779Y-96962673D02*
X136841541Y-96915054D01*
X136841541Y-96915054D02*
X136793922Y-96867434D01*
X135889160Y-98593625D02*
X135936779Y-98546006D01*
X135936779Y-98546006D02*
X136032017Y-98498387D01*
X136032017Y-98498387D02*
X136270112Y-98498387D01*
X136270112Y-98498387D02*
X136365350Y-98546006D01*
X136365350Y-98546006D02*
X136412969Y-98593625D01*
X136412969Y-98593625D02*
X136460588Y-98688863D01*
X136460588Y-98688863D02*
X136460588Y-98784101D01*
X136460588Y-98784101D02*
X136412969Y-98926958D01*
X136412969Y-98926958D02*
X135841541Y-99498387D01*
X135841541Y-99498387D02*
X136460588Y-99498387D01*
X137365350Y-98498387D02*
X136889160Y-98498387D01*
X136889160Y-98498387D02*
X136841541Y-98974577D01*
X136841541Y-98974577D02*
X136889160Y-98926958D01*
X136889160Y-98926958D02*
X136984398Y-98879339D01*
X136984398Y-98879339D02*
X137222493Y-98879339D01*
X137222493Y-98879339D02*
X137317731Y-98926958D01*
X137317731Y-98926958D02*
X137365350Y-98974577D01*
X137365350Y-98974577D02*
X137412969Y-99069815D01*
X137412969Y-99069815D02*
X137412969Y-99307910D01*
X137412969Y-99307910D02*
X137365350Y-99403148D01*
X137365350Y-99403148D02*
X137317731Y-99450768D01*
X137317731Y-99450768D02*
X137222493Y-99498387D01*
X137222493Y-99498387D02*
X136984398Y-99498387D01*
X136984398Y-99498387D02*
X136889160Y-99450768D01*
X136889160Y-99450768D02*
X136841541Y-99403148D01*
X135889160Y-93522197D02*
X135936779Y-93474578D01*
X135936779Y-93474578D02*
X136032017Y-93426959D01*
X136032017Y-93426959D02*
X136270112Y-93426959D01*
X136270112Y-93426959D02*
X136365350Y-93474578D01*
X136365350Y-93474578D02*
X136412969Y-93522197D01*
X136412969Y-93522197D02*
X136460588Y-93617435D01*
X136460588Y-93617435D02*
X136460588Y-93712673D01*
X136460588Y-93712673D02*
X136412969Y-93855530D01*
X136412969Y-93855530D02*
X135841541Y-94426959D01*
X135841541Y-94426959D02*
X136460588Y-94426959D01*
X137412969Y-94426959D02*
X136841541Y-94426959D01*
X137127255Y-94426959D02*
X137127255Y-93426959D01*
X137127255Y-93426959D02*
X137032017Y-93569816D01*
X137032017Y-93569816D02*
X136936779Y-93665054D01*
X136936779Y-93665054D02*
X136841541Y-93712673D01*
X136460588Y-89355531D02*
X135889160Y-89355531D01*
X136174874Y-89355531D02*
X136174874Y-88355531D01*
X136174874Y-88355531D02*
X136079636Y-88498388D01*
X136079636Y-88498388D02*
X135984398Y-88593626D01*
X135984398Y-88593626D02*
X135889160Y-88641245D01*
X136793922Y-88355531D02*
X137460588Y-88355531D01*
X137460588Y-88355531D02*
X137032017Y-89355531D01*
X136460588Y-91891245D02*
X135889160Y-91891245D01*
X136174874Y-91891245D02*
X136174874Y-90891245D01*
X136174874Y-90891245D02*
X136079636Y-91034102D01*
X136079636Y-91034102D02*
X135984398Y-91129340D01*
X135984398Y-91129340D02*
X135889160Y-91176959D01*
X136936779Y-91891245D02*
X137127255Y-91891245D01*
X137127255Y-91891245D02*
X137222493Y-91843626D01*
X137222493Y-91843626D02*
X137270112Y-91796006D01*
X137270112Y-91796006D02*
X137365350Y-91653149D01*
X137365350Y-91653149D02*
X137412969Y-91462673D01*
X137412969Y-91462673D02*
X137412969Y-91081721D01*
X137412969Y-91081721D02*
X137365350Y-90986483D01*
X137365350Y-90986483D02*
X137317731Y-90938864D01*
X137317731Y-90938864D02*
X137222493Y-90891245D01*
X137222493Y-90891245D02*
X137032017Y-90891245D01*
X137032017Y-90891245D02*
X136936779Y-90938864D01*
X136936779Y-90938864D02*
X136889160Y-90986483D01*
X136889160Y-90986483D02*
X136841541Y-91081721D01*
X136841541Y-91081721D02*
X136841541Y-91319816D01*
X136841541Y-91319816D02*
X136889160Y-91415054D01*
X136889160Y-91415054D02*
X136936779Y-91462673D01*
X136936779Y-91462673D02*
X137032017Y-91510292D01*
X137032017Y-91510292D02*
X137222493Y-91510292D01*
X137222493Y-91510292D02*
X137317731Y-91462673D01*
X137317731Y-91462673D02*
X137365350Y-91415054D01*
X137365350Y-91415054D02*
X137412969Y-91319816D01*
X145160588Y-79169819D02*
X144589160Y-79169819D01*
X144874874Y-79169819D02*
X144874874Y-78169819D01*
X144874874Y-78169819D02*
X144779636Y-78312676D01*
X144779636Y-78312676D02*
X144684398Y-78407914D01*
X144684398Y-78407914D02*
X144589160Y-78455533D01*
X145779636Y-78169819D02*
X145874874Y-78169819D01*
X145874874Y-78169819D02*
X145970112Y-78217438D01*
X145970112Y-78217438D02*
X146017731Y-78265057D01*
X146017731Y-78265057D02*
X146065350Y-78360295D01*
X146065350Y-78360295D02*
X146112969Y-78550771D01*
X146112969Y-78550771D02*
X146112969Y-78788866D01*
X146112969Y-78788866D02*
X146065350Y-78979342D01*
X146065350Y-78979342D02*
X146017731Y-79074580D01*
X146017731Y-79074580D02*
X145970112Y-79122200D01*
X145970112Y-79122200D02*
X145874874Y-79169819D01*
X145874874Y-79169819D02*
X145779636Y-79169819D01*
X145779636Y-79169819D02*
X145684398Y-79122200D01*
X145684398Y-79122200D02*
X145636779Y-79074580D01*
X145636779Y-79074580D02*
X145589160Y-78979342D01*
X145589160Y-78979342D02*
X145541541Y-78788866D01*
X145541541Y-78788866D02*
X145541541Y-78550771D01*
X145541541Y-78550771D02*
X145589160Y-78360295D01*
X145589160Y-78360295D02*
X145636779Y-78265057D01*
X145636779Y-78265057D02*
X145684398Y-78217438D01*
X145684398Y-78217438D02*
X145779636Y-78169819D01*
X136460588Y-81748389D02*
X135889160Y-81748389D01*
X136174874Y-81748389D02*
X136174874Y-80748389D01*
X136174874Y-80748389D02*
X136079636Y-80891246D01*
X136079636Y-80891246D02*
X135984398Y-80986484D01*
X135984398Y-80986484D02*
X135889160Y-81034103D01*
X137412969Y-81748389D02*
X136841541Y-81748389D01*
X137127255Y-81748389D02*
X137127255Y-80748389D01*
X137127255Y-80748389D02*
X137032017Y-80891246D01*
X137032017Y-80891246D02*
X136936779Y-80986484D01*
X136936779Y-80986484D02*
X136841541Y-81034103D01*
X136460588Y-86819817D02*
X135889160Y-86819817D01*
X136174874Y-86819817D02*
X136174874Y-85819817D01*
X136174874Y-85819817D02*
X136079636Y-85962674D01*
X136079636Y-85962674D02*
X135984398Y-86057912D01*
X135984398Y-86057912D02*
X135889160Y-86105531D01*
X137365350Y-85819817D02*
X136889160Y-85819817D01*
X136889160Y-85819817D02*
X136841541Y-86296007D01*
X136841541Y-86296007D02*
X136889160Y-86248388D01*
X136889160Y-86248388D02*
X136984398Y-86200769D01*
X136984398Y-86200769D02*
X137222493Y-86200769D01*
X137222493Y-86200769D02*
X137317731Y-86248388D01*
X137317731Y-86248388D02*
X137365350Y-86296007D01*
X137365350Y-86296007D02*
X137412969Y-86391245D01*
X137412969Y-86391245D02*
X137412969Y-86629340D01*
X137412969Y-86629340D02*
X137365350Y-86724578D01*
X137365350Y-86724578D02*
X137317731Y-86772198D01*
X137317731Y-86772198D02*
X137222493Y-86819817D01*
X137222493Y-86819817D02*
X136984398Y-86819817D01*
X136984398Y-86819817D02*
X136889160Y-86772198D01*
X136889160Y-86772198D02*
X136841541Y-86724578D01*
X136460588Y-84284103D02*
X135889160Y-84284103D01*
X136174874Y-84284103D02*
X136174874Y-83284103D01*
X136174874Y-83284103D02*
X136079636Y-83426960D01*
X136079636Y-83426960D02*
X135984398Y-83522198D01*
X135984398Y-83522198D02*
X135889160Y-83569817D01*
X136793922Y-83284103D02*
X137412969Y-83284103D01*
X137412969Y-83284103D02*
X137079636Y-83665055D01*
X137079636Y-83665055D02*
X137222493Y-83665055D01*
X137222493Y-83665055D02*
X137317731Y-83712674D01*
X137317731Y-83712674D02*
X137365350Y-83760293D01*
X137365350Y-83760293D02*
X137412969Y-83855531D01*
X137412969Y-83855531D02*
X137412969Y-84093626D01*
X137412969Y-84093626D02*
X137365350Y-84188864D01*
X137365350Y-84188864D02*
X137317731Y-84236484D01*
X137317731Y-84236484D02*
X137222493Y-84284103D01*
X137222493Y-84284103D02*
X136936779Y-84284103D01*
X136936779Y-84284103D02*
X136841541Y-84236484D01*
X136841541Y-84236484D02*
X136793922Y-84188864D01*
X136884398Y-79212675D02*
X137074874Y-79212675D01*
X137074874Y-79212675D02*
X137170112Y-79165056D01*
X137170112Y-79165056D02*
X137217731Y-79117436D01*
X137217731Y-79117436D02*
X137312969Y-78974579D01*
X137312969Y-78974579D02*
X137360588Y-78784103D01*
X137360588Y-78784103D02*
X137360588Y-78403151D01*
X137360588Y-78403151D02*
X137312969Y-78307913D01*
X137312969Y-78307913D02*
X137265350Y-78260294D01*
X137265350Y-78260294D02*
X137170112Y-78212675D01*
X137170112Y-78212675D02*
X136979636Y-78212675D01*
X136979636Y-78212675D02*
X136884398Y-78260294D01*
X136884398Y-78260294D02*
X136836779Y-78307913D01*
X136836779Y-78307913D02*
X136789160Y-78403151D01*
X136789160Y-78403151D02*
X136789160Y-78641246D01*
X136789160Y-78641246D02*
X136836779Y-78736484D01*
X136836779Y-78736484D02*
X136884398Y-78784103D01*
X136884398Y-78784103D02*
X136979636Y-78831722D01*
X136979636Y-78831722D02*
X137170112Y-78831722D01*
X137170112Y-78831722D02*
X137265350Y-78784103D01*
X137265350Y-78784103D02*
X137312969Y-78736484D01*
X137312969Y-78736484D02*
X137360588Y-78641246D01*
X145065350Y-73069819D02*
X144874874Y-73069819D01*
X144874874Y-73069819D02*
X144779636Y-73117438D01*
X144779636Y-73117438D02*
X144732017Y-73165057D01*
X144732017Y-73165057D02*
X144636779Y-73307914D01*
X144636779Y-73307914D02*
X144589160Y-73498390D01*
X144589160Y-73498390D02*
X144589160Y-73879342D01*
X144589160Y-73879342D02*
X144636779Y-73974580D01*
X144636779Y-73974580D02*
X144684398Y-74022200D01*
X144684398Y-74022200D02*
X144779636Y-74069819D01*
X144779636Y-74069819D02*
X144970112Y-74069819D01*
X144970112Y-74069819D02*
X145065350Y-74022200D01*
X145065350Y-74022200D02*
X145112969Y-73974580D01*
X145112969Y-73974580D02*
X145160588Y-73879342D01*
X145160588Y-73879342D02*
X145160588Y-73641247D01*
X145160588Y-73641247D02*
X145112969Y-73546009D01*
X145112969Y-73546009D02*
X145065350Y-73498390D01*
X145065350Y-73498390D02*
X144970112Y-73450771D01*
X144970112Y-73450771D02*
X144779636Y-73450771D01*
X144779636Y-73450771D02*
X144684398Y-73498390D01*
X144684398Y-73498390D02*
X144636779Y-73546009D01*
X144636779Y-73546009D02*
X144589160Y-73641247D01*
X144779636Y-76048390D02*
X144684398Y-76000771D01*
X144684398Y-76000771D02*
X144636779Y-75953152D01*
X144636779Y-75953152D02*
X144589160Y-75857914D01*
X144589160Y-75857914D02*
X144589160Y-75810295D01*
X144589160Y-75810295D02*
X144636779Y-75715057D01*
X144636779Y-75715057D02*
X144684398Y-75667438D01*
X144684398Y-75667438D02*
X144779636Y-75619819D01*
X144779636Y-75619819D02*
X144970112Y-75619819D01*
X144970112Y-75619819D02*
X145065350Y-75667438D01*
X145065350Y-75667438D02*
X145112969Y-75715057D01*
X145112969Y-75715057D02*
X145160588Y-75810295D01*
X145160588Y-75810295D02*
X145160588Y-75857914D01*
X145160588Y-75857914D02*
X145112969Y-75953152D01*
X145112969Y-75953152D02*
X145065350Y-76000771D01*
X145065350Y-76000771D02*
X144970112Y-76048390D01*
X144970112Y-76048390D02*
X144779636Y-76048390D01*
X144779636Y-76048390D02*
X144684398Y-76096009D01*
X144684398Y-76096009D02*
X144636779Y-76143628D01*
X144636779Y-76143628D02*
X144589160Y-76238866D01*
X144589160Y-76238866D02*
X144589160Y-76429342D01*
X144589160Y-76429342D02*
X144636779Y-76524580D01*
X144636779Y-76524580D02*
X144684398Y-76572200D01*
X144684398Y-76572200D02*
X144779636Y-76619819D01*
X144779636Y-76619819D02*
X144970112Y-76619819D01*
X144970112Y-76619819D02*
X145065350Y-76572200D01*
X145065350Y-76572200D02*
X145112969Y-76524580D01*
X145112969Y-76524580D02*
X145160588Y-76429342D01*
X145160588Y-76429342D02*
X145160588Y-76238866D01*
X145160588Y-76238866D02*
X145112969Y-76143628D01*
X145112969Y-76143628D02*
X145065350Y-76096009D01*
X145065350Y-76096009D02*
X144970112Y-76048390D01*
X136641541Y-75676961D02*
X137308207Y-75676961D01*
X137308207Y-75676961D02*
X136879636Y-76676961D01*
X137212969Y-73141247D02*
X136736779Y-73141247D01*
X136736779Y-73141247D02*
X136689160Y-73617437D01*
X136689160Y-73617437D02*
X136736779Y-73569818D01*
X136736779Y-73569818D02*
X136832017Y-73522199D01*
X136832017Y-73522199D02*
X137070112Y-73522199D01*
X137070112Y-73522199D02*
X137165350Y-73569818D01*
X137165350Y-73569818D02*
X137212969Y-73617437D01*
X137212969Y-73617437D02*
X137260588Y-73712675D01*
X137260588Y-73712675D02*
X137260588Y-73950770D01*
X137260588Y-73950770D02*
X137212969Y-74046008D01*
X137212969Y-74046008D02*
X137165350Y-74093628D01*
X137165350Y-74093628D02*
X137070112Y-74141247D01*
X137070112Y-74141247D02*
X136832017Y-74141247D01*
X136832017Y-74141247D02*
X136736779Y-74093628D01*
X136736779Y-74093628D02*
X136689160Y-74046008D01*
X136641541Y-70605533D02*
X137260588Y-70605533D01*
X137260588Y-70605533D02*
X136927255Y-70986485D01*
X136927255Y-70986485D02*
X137070112Y-70986485D01*
X137070112Y-70986485D02*
X137165350Y-71034104D01*
X137165350Y-71034104D02*
X137212969Y-71081723D01*
X137212969Y-71081723D02*
X137260588Y-71176961D01*
X137260588Y-71176961D02*
X137260588Y-71415056D01*
X137260588Y-71415056D02*
X137212969Y-71510294D01*
X137212969Y-71510294D02*
X137165350Y-71557914D01*
X137165350Y-71557914D02*
X137070112Y-71605533D01*
X137070112Y-71605533D02*
X136784398Y-71605533D01*
X136784398Y-71605533D02*
X136689160Y-71557914D01*
X136689160Y-71557914D02*
X136641541Y-71510294D01*
X145065350Y-70853152D02*
X145065350Y-71519819D01*
X144827255Y-70472200D02*
X144589160Y-71186485D01*
X144589160Y-71186485D02*
X145208207Y-71186485D01*
X144589160Y-68065057D02*
X144636779Y-68017438D01*
X144636779Y-68017438D02*
X144732017Y-67969819D01*
X144732017Y-67969819D02*
X144970112Y-67969819D01*
X144970112Y-67969819D02*
X145065350Y-68017438D01*
X145065350Y-68017438D02*
X145112969Y-68065057D01*
X145112969Y-68065057D02*
X145160588Y-68160295D01*
X145160588Y-68160295D02*
X145160588Y-68255533D01*
X145160588Y-68255533D02*
X145112969Y-68398390D01*
X145112969Y-68398390D02*
X144541541Y-68969819D01*
X144541541Y-68969819D02*
X145160588Y-68969819D01*
X137260588Y-69069819D02*
X136689160Y-69069819D01*
X136974874Y-69069819D02*
X136974874Y-68069819D01*
X136974874Y-68069819D02*
X136879636Y-68212676D01*
X136879636Y-68212676D02*
X136784398Y-68307914D01*
X136784398Y-68307914D02*
X136689160Y-68355533D01*
X190760588Y-42817438D02*
X190665350Y-42769819D01*
X190665350Y-42769819D02*
X190522493Y-42769819D01*
X190522493Y-42769819D02*
X190379636Y-42817438D01*
X190379636Y-42817438D02*
X190284398Y-42912676D01*
X190284398Y-42912676D02*
X190236779Y-43007914D01*
X190236779Y-43007914D02*
X190189160Y-43198390D01*
X190189160Y-43198390D02*
X190189160Y-43341247D01*
X190189160Y-43341247D02*
X190236779Y-43531723D01*
X190236779Y-43531723D02*
X190284398Y-43626961D01*
X190284398Y-43626961D02*
X190379636Y-43722200D01*
X190379636Y-43722200D02*
X190522493Y-43769819D01*
X190522493Y-43769819D02*
X190617731Y-43769819D01*
X190617731Y-43769819D02*
X190760588Y-43722200D01*
X190760588Y-43722200D02*
X190808207Y-43674580D01*
X190808207Y-43674580D02*
X190808207Y-43341247D01*
X190808207Y-43341247D02*
X190617731Y-43341247D01*
X191236779Y-43769819D02*
X191236779Y-42769819D01*
X191236779Y-42769819D02*
X191808207Y-43769819D01*
X191808207Y-43769819D02*
X191808207Y-42769819D01*
X192284398Y-43769819D02*
X192284398Y-42769819D01*
X192284398Y-42769819D02*
X192522493Y-42769819D01*
X192522493Y-42769819D02*
X192665350Y-42817438D01*
X192665350Y-42817438D02*
X192760588Y-42912676D01*
X192760588Y-42912676D02*
X192808207Y-43007914D01*
X192808207Y-43007914D02*
X192855826Y-43198390D01*
X192855826Y-43198390D02*
X192855826Y-43341247D01*
X192855826Y-43341247D02*
X192808207Y-43531723D01*
X192808207Y-43531723D02*
X192760588Y-43626961D01*
X192760588Y-43626961D02*
X192665350Y-43722200D01*
X192665350Y-43722200D02*
X192522493Y-43769819D01*
X192522493Y-43769819D02*
X192284398Y-43769819D01*
X181160588Y-96117438D02*
X181065350Y-96069819D01*
X181065350Y-96069819D02*
X180922493Y-96069819D01*
X180922493Y-96069819D02*
X180779636Y-96117438D01*
X180779636Y-96117438D02*
X180684398Y-96212676D01*
X180684398Y-96212676D02*
X180636779Y-96307914D01*
X180636779Y-96307914D02*
X180589160Y-96498390D01*
X180589160Y-96498390D02*
X180589160Y-96641247D01*
X180589160Y-96641247D02*
X180636779Y-96831723D01*
X180636779Y-96831723D02*
X180684398Y-96926961D01*
X180684398Y-96926961D02*
X180779636Y-97022200D01*
X180779636Y-97022200D02*
X180922493Y-97069819D01*
X180922493Y-97069819D02*
X181017731Y-97069819D01*
X181017731Y-97069819D02*
X181160588Y-97022200D01*
X181160588Y-97022200D02*
X181208207Y-96974580D01*
X181208207Y-96974580D02*
X181208207Y-96641247D01*
X181208207Y-96641247D02*
X181017731Y-96641247D01*
X181636779Y-97069819D02*
X181636779Y-96069819D01*
X181636779Y-96069819D02*
X182208207Y-97069819D01*
X182208207Y-97069819D02*
X182208207Y-96069819D01*
X182684398Y-97069819D02*
X182684398Y-96069819D01*
X182684398Y-96069819D02*
X182922493Y-96069819D01*
X182922493Y-96069819D02*
X183065350Y-96117438D01*
X183065350Y-96117438D02*
X183160588Y-96212676D01*
X183160588Y-96212676D02*
X183208207Y-96307914D01*
X183208207Y-96307914D02*
X183255826Y-96498390D01*
X183255826Y-96498390D02*
X183255826Y-96641247D01*
X183255826Y-96641247D02*
X183208207Y-96831723D01*
X183208207Y-96831723D02*
X183160588Y-96926961D01*
X183160588Y-96926961D02*
X183065350Y-97022200D01*
X183065350Y-97022200D02*
X182922493Y-97069819D01*
X182922493Y-97069819D02*
X182684398Y-97069819D01*
X183760588Y-83317438D02*
X183665350Y-83269819D01*
X183665350Y-83269819D02*
X183522493Y-83269819D01*
X183522493Y-83269819D02*
X183379636Y-83317438D01*
X183379636Y-83317438D02*
X183284398Y-83412676D01*
X183284398Y-83412676D02*
X183236779Y-83507914D01*
X183236779Y-83507914D02*
X183189160Y-83698390D01*
X183189160Y-83698390D02*
X183189160Y-83841247D01*
X183189160Y-83841247D02*
X183236779Y-84031723D01*
X183236779Y-84031723D02*
X183284398Y-84126961D01*
X183284398Y-84126961D02*
X183379636Y-84222200D01*
X183379636Y-84222200D02*
X183522493Y-84269819D01*
X183522493Y-84269819D02*
X183617731Y-84269819D01*
X183617731Y-84269819D02*
X183760588Y-84222200D01*
X183760588Y-84222200D02*
X183808207Y-84174580D01*
X183808207Y-84174580D02*
X183808207Y-83841247D01*
X183808207Y-83841247D02*
X183617731Y-83841247D01*
X145060588Y-80817438D02*
X144965350Y-80769819D01*
X144965350Y-80769819D02*
X144822493Y-80769819D01*
X144822493Y-80769819D02*
X144679636Y-80817438D01*
X144679636Y-80817438D02*
X144584398Y-80912676D01*
X144584398Y-80912676D02*
X144536779Y-81007914D01*
X144536779Y-81007914D02*
X144489160Y-81198390D01*
X144489160Y-81198390D02*
X144489160Y-81341247D01*
X144489160Y-81341247D02*
X144536779Y-81531723D01*
X144536779Y-81531723D02*
X144584398Y-81626961D01*
X144584398Y-81626961D02*
X144679636Y-81722200D01*
X144679636Y-81722200D02*
X144822493Y-81769819D01*
X144822493Y-81769819D02*
X144917731Y-81769819D01*
X144917731Y-81769819D02*
X145060588Y-81722200D01*
X145060588Y-81722200D02*
X145108207Y-81674580D01*
X145108207Y-81674580D02*
X145108207Y-81341247D01*
X145108207Y-81341247D02*
X144917731Y-81341247D01*
X145536779Y-81769819D02*
X145536779Y-80769819D01*
X145536779Y-80769819D02*
X146108207Y-81769819D01*
X146108207Y-81769819D02*
X146108207Y-80769819D01*
X146584398Y-81769819D02*
X146584398Y-80769819D01*
X146584398Y-80769819D02*
X146822493Y-80769819D01*
X146822493Y-80769819D02*
X146965350Y-80817438D01*
X146965350Y-80817438D02*
X147060588Y-80912676D01*
X147060588Y-80912676D02*
X147108207Y-81007914D01*
X147108207Y-81007914D02*
X147155826Y-81198390D01*
X147155826Y-81198390D02*
X147155826Y-81341247D01*
X147155826Y-81341247D02*
X147108207Y-81531723D01*
X147108207Y-81531723D02*
X147060588Y-81626961D01*
X147060588Y-81626961D02*
X146965350Y-81722200D01*
X146965350Y-81722200D02*
X146822493Y-81769819D01*
X146822493Y-81769819D02*
X146584398Y-81769819D01*
X135460588Y-60517438D02*
X135365350Y-60469819D01*
X135365350Y-60469819D02*
X135222493Y-60469819D01*
X135222493Y-60469819D02*
X135079636Y-60517438D01*
X135079636Y-60517438D02*
X134984398Y-60612676D01*
X134984398Y-60612676D02*
X134936779Y-60707914D01*
X134936779Y-60707914D02*
X134889160Y-60898390D01*
X134889160Y-60898390D02*
X134889160Y-61041247D01*
X134889160Y-61041247D02*
X134936779Y-61231723D01*
X134936779Y-61231723D02*
X134984398Y-61326961D01*
X134984398Y-61326961D02*
X135079636Y-61422200D01*
X135079636Y-61422200D02*
X135222493Y-61469819D01*
X135222493Y-61469819D02*
X135317731Y-61469819D01*
X135317731Y-61469819D02*
X135460588Y-61422200D01*
X135460588Y-61422200D02*
X135508207Y-61374580D01*
X135508207Y-61374580D02*
X135508207Y-61041247D01*
X135508207Y-61041247D02*
X135317731Y-61041247D01*
X135936779Y-61469819D02*
X135936779Y-60469819D01*
X135936779Y-60469819D02*
X136508207Y-61469819D01*
X136508207Y-61469819D02*
X136508207Y-60469819D01*
X136984398Y-61469819D02*
X136984398Y-60469819D01*
X136984398Y-60469819D02*
X137222493Y-60469819D01*
X137222493Y-60469819D02*
X137365350Y-60517438D01*
X137365350Y-60517438D02*
X137460588Y-60612676D01*
X137460588Y-60612676D02*
X137508207Y-60707914D01*
X137508207Y-60707914D02*
X137555826Y-60898390D01*
X137555826Y-60898390D02*
X137555826Y-61041247D01*
X137555826Y-61041247D02*
X137508207Y-61231723D01*
X137508207Y-61231723D02*
X137460588Y-61326961D01*
X137460588Y-61326961D02*
X137365350Y-61422200D01*
X137365350Y-61422200D02*
X137222493Y-61469819D01*
X137222493Y-61469819D02*
X136984398Y-61469819D01*
X135360588Y-57917438D02*
X135265350Y-57869819D01*
X135265350Y-57869819D02*
X135122493Y-57869819D01*
X135122493Y-57869819D02*
X134979636Y-57917438D01*
X134979636Y-57917438D02*
X134884398Y-58012676D01*
X134884398Y-58012676D02*
X134836779Y-58107914D01*
X134836779Y-58107914D02*
X134789160Y-58298390D01*
X134789160Y-58298390D02*
X134789160Y-58441247D01*
X134789160Y-58441247D02*
X134836779Y-58631723D01*
X134836779Y-58631723D02*
X134884398Y-58726961D01*
X134884398Y-58726961D02*
X134979636Y-58822200D01*
X134979636Y-58822200D02*
X135122493Y-58869819D01*
X135122493Y-58869819D02*
X135217731Y-58869819D01*
X135217731Y-58869819D02*
X135360588Y-58822200D01*
X135360588Y-58822200D02*
X135408207Y-58774580D01*
X135408207Y-58774580D02*
X135408207Y-58441247D01*
X135408207Y-58441247D02*
X135217731Y-58441247D01*
X135836779Y-58869819D02*
X135836779Y-57869819D01*
X135836779Y-57869819D02*
X136408207Y-58869819D01*
X136408207Y-58869819D02*
X136408207Y-57869819D01*
X136884398Y-58869819D02*
X136884398Y-57869819D01*
X136884398Y-57869819D02*
X137122493Y-57869819D01*
X137122493Y-57869819D02*
X137265350Y-57917438D01*
X137265350Y-57917438D02*
X137360588Y-58012676D01*
X137360588Y-58012676D02*
X137408207Y-58107914D01*
X137408207Y-58107914D02*
X137455826Y-58298390D01*
X137455826Y-58298390D02*
X137455826Y-58441247D01*
X137455826Y-58441247D02*
X137408207Y-58631723D01*
X137408207Y-58631723D02*
X137360588Y-58726961D01*
X137360588Y-58726961D02*
X137265350Y-58822200D01*
X137265350Y-58822200D02*
X137122493Y-58869819D01*
X137122493Y-58869819D02*
X136884398Y-58869819D01*
X177336779Y-89469819D02*
X177336779Y-88469819D01*
X177812969Y-89469819D02*
X177812969Y-88469819D01*
X177812969Y-88469819D02*
X178384397Y-89469819D01*
X178384397Y-89469819D02*
X178384397Y-88469819D01*
X180141541Y-83269819D02*
X180760588Y-83269819D01*
X180760588Y-83269819D02*
X180427255Y-83650771D01*
X180427255Y-83650771D02*
X180570112Y-83650771D01*
X180570112Y-83650771D02*
X180665350Y-83698390D01*
X180665350Y-83698390D02*
X180712969Y-83746009D01*
X180712969Y-83746009D02*
X180760588Y-83841247D01*
X180760588Y-83841247D02*
X180760588Y-84079342D01*
X180760588Y-84079342D02*
X180712969Y-84174580D01*
X180712969Y-84174580D02*
X180665350Y-84222200D01*
X180665350Y-84222200D02*
X180570112Y-84269819D01*
X180570112Y-84269819D02*
X180284398Y-84269819D01*
X180284398Y-84269819D02*
X180189160Y-84222200D01*
X180189160Y-84222200D02*
X180141541Y-84174580D01*
X180665350Y-86303152D02*
X180665350Y-86969819D01*
X180427255Y-85922200D02*
X180189160Y-86636485D01*
X180189160Y-86636485D02*
X180808207Y-86636485D01*
X180189160Y-80865057D02*
X180236779Y-80817438D01*
X180236779Y-80817438D02*
X180332017Y-80769819D01*
X180332017Y-80769819D02*
X180570112Y-80769819D01*
X180570112Y-80769819D02*
X180665350Y-80817438D01*
X180665350Y-80817438D02*
X180712969Y-80865057D01*
X180712969Y-80865057D02*
X180760588Y-80960295D01*
X180760588Y-80960295D02*
X180760588Y-81055533D01*
X180760588Y-81055533D02*
X180712969Y-81198390D01*
X180712969Y-81198390D02*
X180141541Y-81769819D01*
X180141541Y-81769819D02*
X180760588Y-81769819D01*
X180760588Y-79069819D02*
X180189160Y-79069819D01*
X180474874Y-79069819D02*
X180474874Y-78069819D01*
X180474874Y-78069819D02*
X180379636Y-78212676D01*
X180379636Y-78212676D02*
X180284398Y-78307914D01*
X180284398Y-78307914D02*
X180189160Y-78355533D01*
X180665350Y-63403152D02*
X180665350Y-64069819D01*
X180427255Y-63022200D02*
X180189160Y-63736485D01*
X180189160Y-63736485D02*
X180808207Y-63736485D01*
X180141541Y-65469819D02*
X180760588Y-65469819D01*
X180760588Y-65469819D02*
X180427255Y-65850771D01*
X180427255Y-65850771D02*
X180570112Y-65850771D01*
X180570112Y-65850771D02*
X180665350Y-65898390D01*
X180665350Y-65898390D02*
X180712969Y-65946009D01*
X180712969Y-65946009D02*
X180760588Y-66041247D01*
X180760588Y-66041247D02*
X180760588Y-66279342D01*
X180760588Y-66279342D02*
X180712969Y-66374580D01*
X180712969Y-66374580D02*
X180665350Y-66422200D01*
X180665350Y-66422200D02*
X180570112Y-66469819D01*
X180570112Y-66469819D02*
X180284398Y-66469819D01*
X180284398Y-66469819D02*
X180189160Y-66422200D01*
X180189160Y-66422200D02*
X180141541Y-66374580D01*
X180189160Y-67965057D02*
X180236779Y-67917438D01*
X180236779Y-67917438D02*
X180332017Y-67869819D01*
X180332017Y-67869819D02*
X180570112Y-67869819D01*
X180570112Y-67869819D02*
X180665350Y-67917438D01*
X180665350Y-67917438D02*
X180712969Y-67965057D01*
X180712969Y-67965057D02*
X180760588Y-68060295D01*
X180760588Y-68060295D02*
X180760588Y-68155533D01*
X180760588Y-68155533D02*
X180712969Y-68298390D01*
X180712969Y-68298390D02*
X180141541Y-68869819D01*
X180141541Y-68869819D02*
X180760588Y-68869819D01*
X180760588Y-71769819D02*
X180189160Y-71769819D01*
X180474874Y-71769819D02*
X180474874Y-70769819D01*
X180474874Y-70769819D02*
X180379636Y-70912676D01*
X180379636Y-70912676D02*
X180284398Y-71007914D01*
X180284398Y-71007914D02*
X180189160Y-71055533D01*
X176827255Y-60369819D02*
X177017731Y-60369819D01*
X177017731Y-60369819D02*
X177112969Y-60417438D01*
X177112969Y-60417438D02*
X177208207Y-60512676D01*
X177208207Y-60512676D02*
X177255826Y-60703152D01*
X177255826Y-60703152D02*
X177255826Y-61036485D01*
X177255826Y-61036485D02*
X177208207Y-61226961D01*
X177208207Y-61226961D02*
X177112969Y-61322200D01*
X177112969Y-61322200D02*
X177017731Y-61369819D01*
X177017731Y-61369819D02*
X176827255Y-61369819D01*
X176827255Y-61369819D02*
X176732017Y-61322200D01*
X176732017Y-61322200D02*
X176636779Y-61226961D01*
X176636779Y-61226961D02*
X176589160Y-61036485D01*
X176589160Y-61036485D02*
X176589160Y-60703152D01*
X176589160Y-60703152D02*
X176636779Y-60512676D01*
X176636779Y-60512676D02*
X176732017Y-60417438D01*
X176732017Y-60417438D02*
X176827255Y-60369819D01*
X177684398Y-60369819D02*
X177684398Y-61179342D01*
X177684398Y-61179342D02*
X177732017Y-61274580D01*
X177732017Y-61274580D02*
X177779636Y-61322200D01*
X177779636Y-61322200D02*
X177874874Y-61369819D01*
X177874874Y-61369819D02*
X178065350Y-61369819D01*
X178065350Y-61369819D02*
X178160588Y-61322200D01*
X178160588Y-61322200D02*
X178208207Y-61274580D01*
X178208207Y-61274580D02*
X178255826Y-61179342D01*
X178255826Y-61179342D02*
X178255826Y-60369819D01*
X178589160Y-60369819D02*
X179160588Y-60369819D01*
X178874874Y-61369819D02*
X178874874Y-60369819D01*
X136160588Y-41117438D02*
X136065350Y-41069819D01*
X136065350Y-41069819D02*
X135922493Y-41069819D01*
X135922493Y-41069819D02*
X135779636Y-41117438D01*
X135779636Y-41117438D02*
X135684398Y-41212676D01*
X135684398Y-41212676D02*
X135636779Y-41307914D01*
X135636779Y-41307914D02*
X135589160Y-41498390D01*
X135589160Y-41498390D02*
X135589160Y-41641247D01*
X135589160Y-41641247D02*
X135636779Y-41831723D01*
X135636779Y-41831723D02*
X135684398Y-41926961D01*
X135684398Y-41926961D02*
X135779636Y-42022200D01*
X135779636Y-42022200D02*
X135922493Y-42069819D01*
X135922493Y-42069819D02*
X136017731Y-42069819D01*
X136017731Y-42069819D02*
X136160588Y-42022200D01*
X136160588Y-42022200D02*
X136208207Y-41974580D01*
X136208207Y-41974580D02*
X136208207Y-41641247D01*
X136208207Y-41641247D02*
X136017731Y-41641247D01*
X136636779Y-42069819D02*
X136636779Y-41069819D01*
X136636779Y-41069819D02*
X137208207Y-42069819D01*
X137208207Y-42069819D02*
X137208207Y-41069819D01*
X137684398Y-42069819D02*
X137684398Y-41069819D01*
X137684398Y-41069819D02*
X137922493Y-41069819D01*
X137922493Y-41069819D02*
X138065350Y-41117438D01*
X138065350Y-41117438D02*
X138160588Y-41212676D01*
X138160588Y-41212676D02*
X138208207Y-41307914D01*
X138208207Y-41307914D02*
X138255826Y-41498390D01*
X138255826Y-41498390D02*
X138255826Y-41641247D01*
X138255826Y-41641247D02*
X138208207Y-41831723D01*
X138208207Y-41831723D02*
X138160588Y-41926961D01*
X138160588Y-41926961D02*
X138065350Y-42022200D01*
X138065350Y-42022200D02*
X137922493Y-42069819D01*
X137922493Y-42069819D02*
X137684398Y-42069819D01*
X143541541Y-41069819D02*
X144160588Y-41069819D01*
X144160588Y-41069819D02*
X143827255Y-41450771D01*
X143827255Y-41450771D02*
X143970112Y-41450771D01*
X143970112Y-41450771D02*
X144065350Y-41498390D01*
X144065350Y-41498390D02*
X144112969Y-41546009D01*
X144112969Y-41546009D02*
X144160588Y-41641247D01*
X144160588Y-41641247D02*
X144160588Y-41879342D01*
X144160588Y-41879342D02*
X144112969Y-41974580D01*
X144112969Y-41974580D02*
X144065350Y-42022200D01*
X144065350Y-42022200D02*
X143970112Y-42069819D01*
X143970112Y-42069819D02*
X143684398Y-42069819D01*
X143684398Y-42069819D02*
X143589160Y-42022200D01*
X143589160Y-42022200D02*
X143541541Y-41974580D01*
X144589160Y-41974580D02*
X144636779Y-42022200D01*
X144636779Y-42022200D02*
X144589160Y-42069819D01*
X144589160Y-42069819D02*
X144541541Y-42022200D01*
X144541541Y-42022200D02*
X144589160Y-41974580D01*
X144589160Y-41974580D02*
X144589160Y-42069819D01*
X144970112Y-41069819D02*
X145589159Y-41069819D01*
X145589159Y-41069819D02*
X145255826Y-41450771D01*
X145255826Y-41450771D02*
X145398683Y-41450771D01*
X145398683Y-41450771D02*
X145493921Y-41498390D01*
X145493921Y-41498390D02*
X145541540Y-41546009D01*
X145541540Y-41546009D02*
X145589159Y-41641247D01*
X145589159Y-41641247D02*
X145589159Y-41879342D01*
X145589159Y-41879342D02*
X145541540Y-41974580D01*
X145541540Y-41974580D02*
X145493921Y-42022200D01*
X145493921Y-42022200D02*
X145398683Y-42069819D01*
X145398683Y-42069819D02*
X145112969Y-42069819D01*
X145112969Y-42069819D02*
X145017731Y-42022200D01*
X145017731Y-42022200D02*
X144970112Y-41974580D01*
X145874874Y-41069819D02*
X146208207Y-42069819D01*
X146208207Y-42069819D02*
X146541540Y-41069819D01*
X133141541Y-50869819D02*
X133760588Y-50869819D01*
X133760588Y-50869819D02*
X133427255Y-51250771D01*
X133427255Y-51250771D02*
X133570112Y-51250771D01*
X133570112Y-51250771D02*
X133665350Y-51298390D01*
X133665350Y-51298390D02*
X133712969Y-51346009D01*
X133712969Y-51346009D02*
X133760588Y-51441247D01*
X133760588Y-51441247D02*
X133760588Y-51679342D01*
X133760588Y-51679342D02*
X133712969Y-51774580D01*
X133712969Y-51774580D02*
X133665350Y-51822200D01*
X133665350Y-51822200D02*
X133570112Y-51869819D01*
X133570112Y-51869819D02*
X133284398Y-51869819D01*
X133284398Y-51869819D02*
X133189160Y-51822200D01*
X133189160Y-51822200D02*
X133141541Y-51774580D01*
X134189160Y-51774580D02*
X134236779Y-51822200D01*
X134236779Y-51822200D02*
X134189160Y-51869819D01*
X134189160Y-51869819D02*
X134141541Y-51822200D01*
X134141541Y-51822200D02*
X134189160Y-51774580D01*
X134189160Y-51774580D02*
X134189160Y-51869819D01*
X134570112Y-50869819D02*
X135189159Y-50869819D01*
X135189159Y-50869819D02*
X134855826Y-51250771D01*
X134855826Y-51250771D02*
X134998683Y-51250771D01*
X134998683Y-51250771D02*
X135093921Y-51298390D01*
X135093921Y-51298390D02*
X135141540Y-51346009D01*
X135141540Y-51346009D02*
X135189159Y-51441247D01*
X135189159Y-51441247D02*
X135189159Y-51679342D01*
X135189159Y-51679342D02*
X135141540Y-51774580D01*
X135141540Y-51774580D02*
X135093921Y-51822200D01*
X135093921Y-51822200D02*
X134998683Y-51869819D01*
X134998683Y-51869819D02*
X134712969Y-51869819D01*
X134712969Y-51869819D02*
X134617731Y-51822200D01*
X134617731Y-51822200D02*
X134570112Y-51774580D01*
X135474874Y-50869819D02*
X135808207Y-51869819D01*
X135808207Y-51869819D02*
X136141540Y-50869819D01*
X189989160Y-53422200D02*
X190132017Y-53469819D01*
X190132017Y-53469819D02*
X190370112Y-53469819D01*
X190370112Y-53469819D02*
X190465350Y-53422200D01*
X190465350Y-53422200D02*
X190512969Y-53374580D01*
X190512969Y-53374580D02*
X190560588Y-53279342D01*
X190560588Y-53279342D02*
X190560588Y-53184104D01*
X190560588Y-53184104D02*
X190512969Y-53088866D01*
X190512969Y-53088866D02*
X190465350Y-53041247D01*
X190465350Y-53041247D02*
X190370112Y-52993628D01*
X190370112Y-52993628D02*
X190179636Y-52946009D01*
X190179636Y-52946009D02*
X190084398Y-52898390D01*
X190084398Y-52898390D02*
X190036779Y-52850771D01*
X190036779Y-52850771D02*
X189989160Y-52755533D01*
X189989160Y-52755533D02*
X189989160Y-52660295D01*
X189989160Y-52660295D02*
X190036779Y-52565057D01*
X190036779Y-52565057D02*
X190084398Y-52517438D01*
X190084398Y-52517438D02*
X190179636Y-52469819D01*
X190179636Y-52469819D02*
X190417731Y-52469819D01*
X190417731Y-52469819D02*
X190560588Y-52517438D01*
X190989160Y-53469819D02*
X190989160Y-52469819D01*
X190989160Y-52469819D02*
X191370112Y-52469819D01*
X191370112Y-52469819D02*
X191465350Y-52517438D01*
X191465350Y-52517438D02*
X191512969Y-52565057D01*
X191512969Y-52565057D02*
X191560588Y-52660295D01*
X191560588Y-52660295D02*
X191560588Y-52803152D01*
X191560588Y-52803152D02*
X191512969Y-52898390D01*
X191512969Y-52898390D02*
X191465350Y-52946009D01*
X191465350Y-52946009D02*
X191370112Y-52993628D01*
X191370112Y-52993628D02*
X190989160Y-52993628D01*
X191989160Y-53469819D02*
X191989160Y-52469819D01*
X192989159Y-53469819D02*
X192417731Y-53469819D01*
X192703445Y-53469819D02*
X192703445Y-52469819D01*
X192703445Y-52469819D02*
X192608207Y-52612676D01*
X192608207Y-52612676D02*
X192512969Y-52707914D01*
X192512969Y-52707914D02*
X192417731Y-52755533D01*
X194179636Y-53469819D02*
X194179636Y-52469819D01*
X194179636Y-52469819D02*
X194512969Y-53184104D01*
X194512969Y-53184104D02*
X194846302Y-52469819D01*
X194846302Y-52469819D02*
X194846302Y-53469819D01*
X195512969Y-52469819D02*
X195703445Y-52469819D01*
X195703445Y-52469819D02*
X195798683Y-52517438D01*
X195798683Y-52517438D02*
X195893921Y-52612676D01*
X195893921Y-52612676D02*
X195941540Y-52803152D01*
X195941540Y-52803152D02*
X195941540Y-53136485D01*
X195941540Y-53136485D02*
X195893921Y-53326961D01*
X195893921Y-53326961D02*
X195798683Y-53422200D01*
X195798683Y-53422200D02*
X195703445Y-53469819D01*
X195703445Y-53469819D02*
X195512969Y-53469819D01*
X195512969Y-53469819D02*
X195417731Y-53422200D01*
X195417731Y-53422200D02*
X195322493Y-53326961D01*
X195322493Y-53326961D02*
X195274874Y-53136485D01*
X195274874Y-53136485D02*
X195274874Y-52803152D01*
X195274874Y-52803152D02*
X195322493Y-52612676D01*
X195322493Y-52612676D02*
X195417731Y-52517438D01*
X195417731Y-52517438D02*
X195512969Y-52469819D01*
X196322493Y-53422200D02*
X196465350Y-53469819D01*
X196465350Y-53469819D02*
X196703445Y-53469819D01*
X196703445Y-53469819D02*
X196798683Y-53422200D01*
X196798683Y-53422200D02*
X196846302Y-53374580D01*
X196846302Y-53374580D02*
X196893921Y-53279342D01*
X196893921Y-53279342D02*
X196893921Y-53184104D01*
X196893921Y-53184104D02*
X196846302Y-53088866D01*
X196846302Y-53088866D02*
X196798683Y-53041247D01*
X196798683Y-53041247D02*
X196703445Y-52993628D01*
X196703445Y-52993628D02*
X196512969Y-52946009D01*
X196512969Y-52946009D02*
X196417731Y-52898390D01*
X196417731Y-52898390D02*
X196370112Y-52850771D01*
X196370112Y-52850771D02*
X196322493Y-52755533D01*
X196322493Y-52755533D02*
X196322493Y-52660295D01*
X196322493Y-52660295D02*
X196370112Y-52565057D01*
X196370112Y-52565057D02*
X196417731Y-52517438D01*
X196417731Y-52517438D02*
X196512969Y-52469819D01*
X196512969Y-52469819D02*
X196751064Y-52469819D01*
X196751064Y-52469819D02*
X196893921Y-52517438D01*
X197322493Y-53469819D02*
X197322493Y-52469819D01*
X190189160Y-48122200D02*
X190332017Y-48169819D01*
X190332017Y-48169819D02*
X190570112Y-48169819D01*
X190570112Y-48169819D02*
X190665350Y-48122200D01*
X190665350Y-48122200D02*
X190712969Y-48074580D01*
X190712969Y-48074580D02*
X190760588Y-47979342D01*
X190760588Y-47979342D02*
X190760588Y-47884104D01*
X190760588Y-47884104D02*
X190712969Y-47788866D01*
X190712969Y-47788866D02*
X190665350Y-47741247D01*
X190665350Y-47741247D02*
X190570112Y-47693628D01*
X190570112Y-47693628D02*
X190379636Y-47646009D01*
X190379636Y-47646009D02*
X190284398Y-47598390D01*
X190284398Y-47598390D02*
X190236779Y-47550771D01*
X190236779Y-47550771D02*
X190189160Y-47455533D01*
X190189160Y-47455533D02*
X190189160Y-47360295D01*
X190189160Y-47360295D02*
X190236779Y-47265057D01*
X190236779Y-47265057D02*
X190284398Y-47217438D01*
X190284398Y-47217438D02*
X190379636Y-47169819D01*
X190379636Y-47169819D02*
X190617731Y-47169819D01*
X190617731Y-47169819D02*
X190760588Y-47217438D01*
X191189160Y-48169819D02*
X191189160Y-47169819D01*
X191189160Y-47169819D02*
X191570112Y-47169819D01*
X191570112Y-47169819D02*
X191665350Y-47217438D01*
X191665350Y-47217438D02*
X191712969Y-47265057D01*
X191712969Y-47265057D02*
X191760588Y-47360295D01*
X191760588Y-47360295D02*
X191760588Y-47503152D01*
X191760588Y-47503152D02*
X191712969Y-47598390D01*
X191712969Y-47598390D02*
X191665350Y-47646009D01*
X191665350Y-47646009D02*
X191570112Y-47693628D01*
X191570112Y-47693628D02*
X191189160Y-47693628D01*
X192189160Y-48169819D02*
X192189160Y-47169819D01*
X193189159Y-48169819D02*
X192617731Y-48169819D01*
X192903445Y-48169819D02*
X192903445Y-47169819D01*
X192903445Y-47169819D02*
X192808207Y-47312676D01*
X192808207Y-47312676D02*
X192712969Y-47407914D01*
X192712969Y-47407914D02*
X192617731Y-47455533D01*
X194332017Y-48122200D02*
X194474874Y-48169819D01*
X194474874Y-48169819D02*
X194712969Y-48169819D01*
X194712969Y-48169819D02*
X194808207Y-48122200D01*
X194808207Y-48122200D02*
X194855826Y-48074580D01*
X194855826Y-48074580D02*
X194903445Y-47979342D01*
X194903445Y-47979342D02*
X194903445Y-47884104D01*
X194903445Y-47884104D02*
X194855826Y-47788866D01*
X194855826Y-47788866D02*
X194808207Y-47741247D01*
X194808207Y-47741247D02*
X194712969Y-47693628D01*
X194712969Y-47693628D02*
X194522493Y-47646009D01*
X194522493Y-47646009D02*
X194427255Y-47598390D01*
X194427255Y-47598390D02*
X194379636Y-47550771D01*
X194379636Y-47550771D02*
X194332017Y-47455533D01*
X194332017Y-47455533D02*
X194332017Y-47360295D01*
X194332017Y-47360295D02*
X194379636Y-47265057D01*
X194379636Y-47265057D02*
X194427255Y-47217438D01*
X194427255Y-47217438D02*
X194522493Y-47169819D01*
X194522493Y-47169819D02*
X194760588Y-47169819D01*
X194760588Y-47169819D02*
X194903445Y-47217438D01*
X195903445Y-48074580D02*
X195855826Y-48122200D01*
X195855826Y-48122200D02*
X195712969Y-48169819D01*
X195712969Y-48169819D02*
X195617731Y-48169819D01*
X195617731Y-48169819D02*
X195474874Y-48122200D01*
X195474874Y-48122200D02*
X195379636Y-48026961D01*
X195379636Y-48026961D02*
X195332017Y-47931723D01*
X195332017Y-47931723D02*
X195284398Y-47741247D01*
X195284398Y-47741247D02*
X195284398Y-47598390D01*
X195284398Y-47598390D02*
X195332017Y-47407914D01*
X195332017Y-47407914D02*
X195379636Y-47312676D01*
X195379636Y-47312676D02*
X195474874Y-47217438D01*
X195474874Y-47217438D02*
X195617731Y-47169819D01*
X195617731Y-47169819D02*
X195712969Y-47169819D01*
X195712969Y-47169819D02*
X195855826Y-47217438D01*
X195855826Y-47217438D02*
X195903445Y-47265057D01*
X196332017Y-48169819D02*
X196332017Y-47169819D01*
X196903445Y-48169819D02*
X196474874Y-47598390D01*
X196903445Y-47169819D02*
X196332017Y-47741247D01*
X171789160Y-46222200D02*
X171932017Y-46269819D01*
X171932017Y-46269819D02*
X172170112Y-46269819D01*
X172170112Y-46269819D02*
X172265350Y-46222200D01*
X172265350Y-46222200D02*
X172312969Y-46174580D01*
X172312969Y-46174580D02*
X172360588Y-46079342D01*
X172360588Y-46079342D02*
X172360588Y-45984104D01*
X172360588Y-45984104D02*
X172312969Y-45888866D01*
X172312969Y-45888866D02*
X172265350Y-45841247D01*
X172265350Y-45841247D02*
X172170112Y-45793628D01*
X172170112Y-45793628D02*
X171979636Y-45746009D01*
X171979636Y-45746009D02*
X171884398Y-45698390D01*
X171884398Y-45698390D02*
X171836779Y-45650771D01*
X171836779Y-45650771D02*
X171789160Y-45555533D01*
X171789160Y-45555533D02*
X171789160Y-45460295D01*
X171789160Y-45460295D02*
X171836779Y-45365057D01*
X171836779Y-45365057D02*
X171884398Y-45317438D01*
X171884398Y-45317438D02*
X171979636Y-45269819D01*
X171979636Y-45269819D02*
X172217731Y-45269819D01*
X172217731Y-45269819D02*
X172360588Y-45317438D01*
X172789160Y-46269819D02*
X172789160Y-45269819D01*
X172789160Y-45269819D02*
X173170112Y-45269819D01*
X173170112Y-45269819D02*
X173265350Y-45317438D01*
X173265350Y-45317438D02*
X173312969Y-45365057D01*
X173312969Y-45365057D02*
X173360588Y-45460295D01*
X173360588Y-45460295D02*
X173360588Y-45603152D01*
X173360588Y-45603152D02*
X173312969Y-45698390D01*
X173312969Y-45698390D02*
X173265350Y-45746009D01*
X173265350Y-45746009D02*
X173170112Y-45793628D01*
X173170112Y-45793628D02*
X172789160Y-45793628D01*
X173789160Y-46269819D02*
X173789160Y-45269819D01*
X174789159Y-46269819D02*
X174217731Y-46269819D01*
X174503445Y-46269819D02*
X174503445Y-45269819D01*
X174503445Y-45269819D02*
X174408207Y-45412676D01*
X174408207Y-45412676D02*
X174312969Y-45507914D01*
X174312969Y-45507914D02*
X174217731Y-45555533D01*
X175979636Y-46269819D02*
X175979636Y-45269819D01*
X175979636Y-45269819D02*
X176551064Y-46269819D01*
X176551064Y-46269819D02*
X176551064Y-45269819D01*
X176979636Y-46222200D02*
X177122493Y-46269819D01*
X177122493Y-46269819D02*
X177360588Y-46269819D01*
X177360588Y-46269819D02*
X177455826Y-46222200D01*
X177455826Y-46222200D02*
X177503445Y-46174580D01*
X177503445Y-46174580D02*
X177551064Y-46079342D01*
X177551064Y-46079342D02*
X177551064Y-45984104D01*
X177551064Y-45984104D02*
X177503445Y-45888866D01*
X177503445Y-45888866D02*
X177455826Y-45841247D01*
X177455826Y-45841247D02*
X177360588Y-45793628D01*
X177360588Y-45793628D02*
X177170112Y-45746009D01*
X177170112Y-45746009D02*
X177074874Y-45698390D01*
X177074874Y-45698390D02*
X177027255Y-45650771D01*
X177027255Y-45650771D02*
X176979636Y-45555533D01*
X176979636Y-45555533D02*
X176979636Y-45460295D01*
X176979636Y-45460295D02*
X177027255Y-45365057D01*
X177027255Y-45365057D02*
X177074874Y-45317438D01*
X177074874Y-45317438D02*
X177170112Y-45269819D01*
X177170112Y-45269819D02*
X177408207Y-45269819D01*
X177408207Y-45269819D02*
X177551064Y-45317438D01*
X177932017Y-46222200D02*
X178074874Y-46269819D01*
X178074874Y-46269819D02*
X178312969Y-46269819D01*
X178312969Y-46269819D02*
X178408207Y-46222200D01*
X178408207Y-46222200D02*
X178455826Y-46174580D01*
X178455826Y-46174580D02*
X178503445Y-46079342D01*
X178503445Y-46079342D02*
X178503445Y-45984104D01*
X178503445Y-45984104D02*
X178455826Y-45888866D01*
X178455826Y-45888866D02*
X178408207Y-45841247D01*
X178408207Y-45841247D02*
X178312969Y-45793628D01*
X178312969Y-45793628D02*
X178122493Y-45746009D01*
X178122493Y-45746009D02*
X178027255Y-45698390D01*
X178027255Y-45698390D02*
X177979636Y-45650771D01*
X177979636Y-45650771D02*
X177932017Y-45555533D01*
X177932017Y-45555533D02*
X177932017Y-45460295D01*
X177932017Y-45460295D02*
X177979636Y-45365057D01*
X177979636Y-45365057D02*
X178027255Y-45317438D01*
X178027255Y-45317438D02*
X178122493Y-45269819D01*
X178122493Y-45269819D02*
X178360588Y-45269819D01*
X178360588Y-45269819D02*
X178503445Y-45317438D01*
X170689160Y-58922200D02*
X170832017Y-58969819D01*
X170832017Y-58969819D02*
X171070112Y-58969819D01*
X171070112Y-58969819D02*
X171165350Y-58922200D01*
X171165350Y-58922200D02*
X171212969Y-58874580D01*
X171212969Y-58874580D02*
X171260588Y-58779342D01*
X171260588Y-58779342D02*
X171260588Y-58684104D01*
X171260588Y-58684104D02*
X171212969Y-58588866D01*
X171212969Y-58588866D02*
X171165350Y-58541247D01*
X171165350Y-58541247D02*
X171070112Y-58493628D01*
X171070112Y-58493628D02*
X170879636Y-58446009D01*
X170879636Y-58446009D02*
X170784398Y-58398390D01*
X170784398Y-58398390D02*
X170736779Y-58350771D01*
X170736779Y-58350771D02*
X170689160Y-58255533D01*
X170689160Y-58255533D02*
X170689160Y-58160295D01*
X170689160Y-58160295D02*
X170736779Y-58065057D01*
X170736779Y-58065057D02*
X170784398Y-58017438D01*
X170784398Y-58017438D02*
X170879636Y-57969819D01*
X170879636Y-57969819D02*
X171117731Y-57969819D01*
X171117731Y-57969819D02*
X171260588Y-58017438D01*
X171689160Y-58969819D02*
X171689160Y-57969819D01*
X171689160Y-57969819D02*
X172070112Y-57969819D01*
X172070112Y-57969819D02*
X172165350Y-58017438D01*
X172165350Y-58017438D02*
X172212969Y-58065057D01*
X172212969Y-58065057D02*
X172260588Y-58160295D01*
X172260588Y-58160295D02*
X172260588Y-58303152D01*
X172260588Y-58303152D02*
X172212969Y-58398390D01*
X172212969Y-58398390D02*
X172165350Y-58446009D01*
X172165350Y-58446009D02*
X172070112Y-58493628D01*
X172070112Y-58493628D02*
X171689160Y-58493628D01*
X172689160Y-58969819D02*
X172689160Y-57969819D01*
X173689159Y-58969819D02*
X173117731Y-58969819D01*
X173403445Y-58969819D02*
X173403445Y-57969819D01*
X173403445Y-57969819D02*
X173308207Y-58112676D01*
X173308207Y-58112676D02*
X173212969Y-58207914D01*
X173212969Y-58207914D02*
X173117731Y-58255533D01*
X174879636Y-58969819D02*
X174879636Y-57969819D01*
X174879636Y-57969819D02*
X175212969Y-58684104D01*
X175212969Y-58684104D02*
X175546302Y-57969819D01*
X175546302Y-57969819D02*
X175546302Y-58969819D01*
X176022493Y-58969819D02*
X176022493Y-57969819D01*
X176451064Y-58922200D02*
X176593921Y-58969819D01*
X176593921Y-58969819D02*
X176832016Y-58969819D01*
X176832016Y-58969819D02*
X176927254Y-58922200D01*
X176927254Y-58922200D02*
X176974873Y-58874580D01*
X176974873Y-58874580D02*
X177022492Y-58779342D01*
X177022492Y-58779342D02*
X177022492Y-58684104D01*
X177022492Y-58684104D02*
X176974873Y-58588866D01*
X176974873Y-58588866D02*
X176927254Y-58541247D01*
X176927254Y-58541247D02*
X176832016Y-58493628D01*
X176832016Y-58493628D02*
X176641540Y-58446009D01*
X176641540Y-58446009D02*
X176546302Y-58398390D01*
X176546302Y-58398390D02*
X176498683Y-58350771D01*
X176498683Y-58350771D02*
X176451064Y-58255533D01*
X176451064Y-58255533D02*
X176451064Y-58160295D01*
X176451064Y-58160295D02*
X176498683Y-58065057D01*
X176498683Y-58065057D02*
X176546302Y-58017438D01*
X176546302Y-58017438D02*
X176641540Y-57969819D01*
X176641540Y-57969819D02*
X176879635Y-57969819D01*
X176879635Y-57969819D02*
X177022492Y-58017438D01*
X177641540Y-57969819D02*
X177832016Y-57969819D01*
X177832016Y-57969819D02*
X177927254Y-58017438D01*
X177927254Y-58017438D02*
X178022492Y-58112676D01*
X178022492Y-58112676D02*
X178070111Y-58303152D01*
X178070111Y-58303152D02*
X178070111Y-58636485D01*
X178070111Y-58636485D02*
X178022492Y-58826961D01*
X178022492Y-58826961D02*
X177927254Y-58922200D01*
X177927254Y-58922200D02*
X177832016Y-58969819D01*
X177832016Y-58969819D02*
X177641540Y-58969819D01*
X177641540Y-58969819D02*
X177546302Y-58922200D01*
X177546302Y-58922200D02*
X177451064Y-58826961D01*
X177451064Y-58826961D02*
X177403445Y-58636485D01*
X177403445Y-58636485D02*
X177403445Y-58303152D01*
X177403445Y-58303152D02*
X177451064Y-58112676D01*
X177451064Y-58112676D02*
X177546302Y-58017438D01*
X177546302Y-58017438D02*
X177641540Y-57969819D01*
X190089160Y-71322200D02*
X190232017Y-71369819D01*
X190232017Y-71369819D02*
X190470112Y-71369819D01*
X190470112Y-71369819D02*
X190565350Y-71322200D01*
X190565350Y-71322200D02*
X190612969Y-71274580D01*
X190612969Y-71274580D02*
X190660588Y-71179342D01*
X190660588Y-71179342D02*
X190660588Y-71084104D01*
X190660588Y-71084104D02*
X190612969Y-70988866D01*
X190612969Y-70988866D02*
X190565350Y-70941247D01*
X190565350Y-70941247D02*
X190470112Y-70893628D01*
X190470112Y-70893628D02*
X190279636Y-70846009D01*
X190279636Y-70846009D02*
X190184398Y-70798390D01*
X190184398Y-70798390D02*
X190136779Y-70750771D01*
X190136779Y-70750771D02*
X190089160Y-70655533D01*
X190089160Y-70655533D02*
X190089160Y-70560295D01*
X190089160Y-70560295D02*
X190136779Y-70465057D01*
X190136779Y-70465057D02*
X190184398Y-70417438D01*
X190184398Y-70417438D02*
X190279636Y-70369819D01*
X190279636Y-70369819D02*
X190517731Y-70369819D01*
X190517731Y-70369819D02*
X190660588Y-70417438D01*
X191041541Y-71084104D02*
X191517731Y-71084104D01*
X190946303Y-71369819D02*
X191279636Y-70369819D01*
X191279636Y-70369819D02*
X191612969Y-71369819D01*
X191946303Y-71369819D02*
X191946303Y-70369819D01*
X192374874Y-70465057D02*
X192422493Y-70417438D01*
X192422493Y-70417438D02*
X192517731Y-70369819D01*
X192517731Y-70369819D02*
X192755826Y-70369819D01*
X192755826Y-70369819D02*
X192851064Y-70417438D01*
X192851064Y-70417438D02*
X192898683Y-70465057D01*
X192898683Y-70465057D02*
X192946302Y-70560295D01*
X192946302Y-70560295D02*
X192946302Y-70655533D01*
X192946302Y-70655533D02*
X192898683Y-70798390D01*
X192898683Y-70798390D02*
X192327255Y-71369819D01*
X192327255Y-71369819D02*
X192946302Y-71369819D01*
X194089160Y-71322200D02*
X194232017Y-71369819D01*
X194232017Y-71369819D02*
X194470112Y-71369819D01*
X194470112Y-71369819D02*
X194565350Y-71322200D01*
X194565350Y-71322200D02*
X194612969Y-71274580D01*
X194612969Y-71274580D02*
X194660588Y-71179342D01*
X194660588Y-71179342D02*
X194660588Y-71084104D01*
X194660588Y-71084104D02*
X194612969Y-70988866D01*
X194612969Y-70988866D02*
X194565350Y-70941247D01*
X194565350Y-70941247D02*
X194470112Y-70893628D01*
X194470112Y-70893628D02*
X194279636Y-70846009D01*
X194279636Y-70846009D02*
X194184398Y-70798390D01*
X194184398Y-70798390D02*
X194136779Y-70750771D01*
X194136779Y-70750771D02*
X194089160Y-70655533D01*
X194089160Y-70655533D02*
X194089160Y-70560295D01*
X194089160Y-70560295D02*
X194136779Y-70465057D01*
X194136779Y-70465057D02*
X194184398Y-70417438D01*
X194184398Y-70417438D02*
X194279636Y-70369819D01*
X194279636Y-70369819D02*
X194517731Y-70369819D01*
X194517731Y-70369819D02*
X194660588Y-70417438D01*
X195089160Y-71369819D02*
X195089160Y-70369819D01*
X195089160Y-70369819D02*
X195327255Y-70369819D01*
X195327255Y-70369819D02*
X195470112Y-70417438D01*
X195470112Y-70417438D02*
X195565350Y-70512676D01*
X195565350Y-70512676D02*
X195612969Y-70607914D01*
X195612969Y-70607914D02*
X195660588Y-70798390D01*
X195660588Y-70798390D02*
X195660588Y-70941247D01*
X195660588Y-70941247D02*
X195612969Y-71131723D01*
X195612969Y-71131723D02*
X195565350Y-71226961D01*
X195565350Y-71226961D02*
X195470112Y-71322200D01*
X195470112Y-71322200D02*
X195327255Y-71369819D01*
X195327255Y-71369819D02*
X195089160Y-71369819D01*
X196422493Y-70846009D02*
X196565350Y-70893628D01*
X196565350Y-70893628D02*
X196612969Y-70941247D01*
X196612969Y-70941247D02*
X196660588Y-71036485D01*
X196660588Y-71036485D02*
X196660588Y-71179342D01*
X196660588Y-71179342D02*
X196612969Y-71274580D01*
X196612969Y-71274580D02*
X196565350Y-71322200D01*
X196565350Y-71322200D02*
X196470112Y-71369819D01*
X196470112Y-71369819D02*
X196089160Y-71369819D01*
X196089160Y-71369819D02*
X196089160Y-70369819D01*
X196089160Y-70369819D02*
X196422493Y-70369819D01*
X196422493Y-70369819D02*
X196517731Y-70417438D01*
X196517731Y-70417438D02*
X196565350Y-70465057D01*
X196565350Y-70465057D02*
X196612969Y-70560295D01*
X196612969Y-70560295D02*
X196612969Y-70655533D01*
X196612969Y-70655533D02*
X196565350Y-70750771D01*
X196565350Y-70750771D02*
X196517731Y-70798390D01*
X196517731Y-70798390D02*
X196422493Y-70846009D01*
X196422493Y-70846009D02*
X196089160Y-70846009D01*
X172089160Y-92022200D02*
X172232017Y-92069819D01*
X172232017Y-92069819D02*
X172470112Y-92069819D01*
X172470112Y-92069819D02*
X172565350Y-92022200D01*
X172565350Y-92022200D02*
X172612969Y-91974580D01*
X172612969Y-91974580D02*
X172660588Y-91879342D01*
X172660588Y-91879342D02*
X172660588Y-91784104D01*
X172660588Y-91784104D02*
X172612969Y-91688866D01*
X172612969Y-91688866D02*
X172565350Y-91641247D01*
X172565350Y-91641247D02*
X172470112Y-91593628D01*
X172470112Y-91593628D02*
X172279636Y-91546009D01*
X172279636Y-91546009D02*
X172184398Y-91498390D01*
X172184398Y-91498390D02*
X172136779Y-91450771D01*
X172136779Y-91450771D02*
X172089160Y-91355533D01*
X172089160Y-91355533D02*
X172089160Y-91260295D01*
X172089160Y-91260295D02*
X172136779Y-91165057D01*
X172136779Y-91165057D02*
X172184398Y-91117438D01*
X172184398Y-91117438D02*
X172279636Y-91069819D01*
X172279636Y-91069819D02*
X172517731Y-91069819D01*
X172517731Y-91069819D02*
X172660588Y-91117438D01*
X173041541Y-91784104D02*
X173517731Y-91784104D01*
X172946303Y-92069819D02*
X173279636Y-91069819D01*
X173279636Y-91069819D02*
X173612969Y-92069819D01*
X173946303Y-92069819D02*
X173946303Y-91069819D01*
X174374874Y-91165057D02*
X174422493Y-91117438D01*
X174422493Y-91117438D02*
X174517731Y-91069819D01*
X174517731Y-91069819D02*
X174755826Y-91069819D01*
X174755826Y-91069819D02*
X174851064Y-91117438D01*
X174851064Y-91117438D02*
X174898683Y-91165057D01*
X174898683Y-91165057D02*
X174946302Y-91260295D01*
X174946302Y-91260295D02*
X174946302Y-91355533D01*
X174946302Y-91355533D02*
X174898683Y-91498390D01*
X174898683Y-91498390D02*
X174327255Y-92069819D01*
X174327255Y-92069819D02*
X174946302Y-92069819D01*
X176089160Y-92022200D02*
X176232017Y-92069819D01*
X176232017Y-92069819D02*
X176470112Y-92069819D01*
X176470112Y-92069819D02*
X176565350Y-92022200D01*
X176565350Y-92022200D02*
X176612969Y-91974580D01*
X176612969Y-91974580D02*
X176660588Y-91879342D01*
X176660588Y-91879342D02*
X176660588Y-91784104D01*
X176660588Y-91784104D02*
X176612969Y-91688866D01*
X176612969Y-91688866D02*
X176565350Y-91641247D01*
X176565350Y-91641247D02*
X176470112Y-91593628D01*
X176470112Y-91593628D02*
X176279636Y-91546009D01*
X176279636Y-91546009D02*
X176184398Y-91498390D01*
X176184398Y-91498390D02*
X176136779Y-91450771D01*
X176136779Y-91450771D02*
X176089160Y-91355533D01*
X176089160Y-91355533D02*
X176089160Y-91260295D01*
X176089160Y-91260295D02*
X176136779Y-91165057D01*
X176136779Y-91165057D02*
X176184398Y-91117438D01*
X176184398Y-91117438D02*
X176279636Y-91069819D01*
X176279636Y-91069819D02*
X176517731Y-91069819D01*
X176517731Y-91069819D02*
X176660588Y-91117438D01*
X177089160Y-92069819D02*
X177089160Y-91069819D01*
X177089160Y-91069819D02*
X177327255Y-91069819D01*
X177327255Y-91069819D02*
X177470112Y-91117438D01*
X177470112Y-91117438D02*
X177565350Y-91212676D01*
X177565350Y-91212676D02*
X177612969Y-91307914D01*
X177612969Y-91307914D02*
X177660588Y-91498390D01*
X177660588Y-91498390D02*
X177660588Y-91641247D01*
X177660588Y-91641247D02*
X177612969Y-91831723D01*
X177612969Y-91831723D02*
X177565350Y-91926961D01*
X177565350Y-91926961D02*
X177470112Y-92022200D01*
X177470112Y-92022200D02*
X177327255Y-92069819D01*
X177327255Y-92069819D02*
X177089160Y-92069819D01*
X178041541Y-91784104D02*
X178517731Y-91784104D01*
X177946303Y-92069819D02*
X178279636Y-91069819D01*
X178279636Y-91069819D02*
X178612969Y-92069819D01*
X148989160Y-95322200D02*
X149132017Y-95369819D01*
X149132017Y-95369819D02*
X149370112Y-95369819D01*
X149370112Y-95369819D02*
X149465350Y-95322200D01*
X149465350Y-95322200D02*
X149512969Y-95274580D01*
X149512969Y-95274580D02*
X149560588Y-95179342D01*
X149560588Y-95179342D02*
X149560588Y-95084104D01*
X149560588Y-95084104D02*
X149512969Y-94988866D01*
X149512969Y-94988866D02*
X149465350Y-94941247D01*
X149465350Y-94941247D02*
X149370112Y-94893628D01*
X149370112Y-94893628D02*
X149179636Y-94846009D01*
X149179636Y-94846009D02*
X149084398Y-94798390D01*
X149084398Y-94798390D02*
X149036779Y-94750771D01*
X149036779Y-94750771D02*
X148989160Y-94655533D01*
X148989160Y-94655533D02*
X148989160Y-94560295D01*
X148989160Y-94560295D02*
X149036779Y-94465057D01*
X149036779Y-94465057D02*
X149084398Y-94417438D01*
X149084398Y-94417438D02*
X149179636Y-94369819D01*
X149179636Y-94369819D02*
X149417731Y-94369819D01*
X149417731Y-94369819D02*
X149560588Y-94417438D01*
X149941541Y-95084104D02*
X150417731Y-95084104D01*
X149846303Y-95369819D02*
X150179636Y-94369819D01*
X150179636Y-94369819D02*
X150512969Y-95369819D01*
X150846303Y-95369819D02*
X150846303Y-94369819D01*
X151846302Y-95369819D02*
X151274874Y-95369819D01*
X151560588Y-95369819D02*
X151560588Y-94369819D01*
X151560588Y-94369819D02*
X151465350Y-94512676D01*
X151465350Y-94512676D02*
X151370112Y-94607914D01*
X151370112Y-94607914D02*
X151274874Y-94655533D01*
X152989160Y-95322200D02*
X153132017Y-95369819D01*
X153132017Y-95369819D02*
X153370112Y-95369819D01*
X153370112Y-95369819D02*
X153465350Y-95322200D01*
X153465350Y-95322200D02*
X153512969Y-95274580D01*
X153512969Y-95274580D02*
X153560588Y-95179342D01*
X153560588Y-95179342D02*
X153560588Y-95084104D01*
X153560588Y-95084104D02*
X153512969Y-94988866D01*
X153512969Y-94988866D02*
X153465350Y-94941247D01*
X153465350Y-94941247D02*
X153370112Y-94893628D01*
X153370112Y-94893628D02*
X153179636Y-94846009D01*
X153179636Y-94846009D02*
X153084398Y-94798390D01*
X153084398Y-94798390D02*
X153036779Y-94750771D01*
X153036779Y-94750771D02*
X152989160Y-94655533D01*
X152989160Y-94655533D02*
X152989160Y-94560295D01*
X152989160Y-94560295D02*
X153036779Y-94465057D01*
X153036779Y-94465057D02*
X153084398Y-94417438D01*
X153084398Y-94417438D02*
X153179636Y-94369819D01*
X153179636Y-94369819D02*
X153417731Y-94369819D01*
X153417731Y-94369819D02*
X153560588Y-94417438D01*
X153989160Y-95369819D02*
X153989160Y-94369819D01*
X153989160Y-94369819D02*
X154227255Y-94369819D01*
X154227255Y-94369819D02*
X154370112Y-94417438D01*
X154370112Y-94417438D02*
X154465350Y-94512676D01*
X154465350Y-94512676D02*
X154512969Y-94607914D01*
X154512969Y-94607914D02*
X154560588Y-94798390D01*
X154560588Y-94798390D02*
X154560588Y-94941247D01*
X154560588Y-94941247D02*
X154512969Y-95131723D01*
X154512969Y-95131723D02*
X154465350Y-95226961D01*
X154465350Y-95226961D02*
X154370112Y-95322200D01*
X154370112Y-95322200D02*
X154227255Y-95369819D01*
X154227255Y-95369819D02*
X153989160Y-95369819D01*
X155322493Y-94846009D02*
X155465350Y-94893628D01*
X155465350Y-94893628D02*
X155512969Y-94941247D01*
X155512969Y-94941247D02*
X155560588Y-95036485D01*
X155560588Y-95036485D02*
X155560588Y-95179342D01*
X155560588Y-95179342D02*
X155512969Y-95274580D01*
X155512969Y-95274580D02*
X155465350Y-95322200D01*
X155465350Y-95322200D02*
X155370112Y-95369819D01*
X155370112Y-95369819D02*
X154989160Y-95369819D01*
X154989160Y-95369819D02*
X154989160Y-94369819D01*
X154989160Y-94369819D02*
X155322493Y-94369819D01*
X155322493Y-94369819D02*
X155417731Y-94417438D01*
X155417731Y-94417438D02*
X155465350Y-94465057D01*
X155465350Y-94465057D02*
X155512969Y-94560295D01*
X155512969Y-94560295D02*
X155512969Y-94655533D01*
X155512969Y-94655533D02*
X155465350Y-94750771D01*
X155465350Y-94750771D02*
X155417731Y-94798390D01*
X155417731Y-94798390D02*
X155322493Y-94846009D01*
X155322493Y-94846009D02*
X154989160Y-94846009D01*
X148989160Y-92322200D02*
X149132017Y-92369819D01*
X149132017Y-92369819D02*
X149370112Y-92369819D01*
X149370112Y-92369819D02*
X149465350Y-92322200D01*
X149465350Y-92322200D02*
X149512969Y-92274580D01*
X149512969Y-92274580D02*
X149560588Y-92179342D01*
X149560588Y-92179342D02*
X149560588Y-92084104D01*
X149560588Y-92084104D02*
X149512969Y-91988866D01*
X149512969Y-91988866D02*
X149465350Y-91941247D01*
X149465350Y-91941247D02*
X149370112Y-91893628D01*
X149370112Y-91893628D02*
X149179636Y-91846009D01*
X149179636Y-91846009D02*
X149084398Y-91798390D01*
X149084398Y-91798390D02*
X149036779Y-91750771D01*
X149036779Y-91750771D02*
X148989160Y-91655533D01*
X148989160Y-91655533D02*
X148989160Y-91560295D01*
X148989160Y-91560295D02*
X149036779Y-91465057D01*
X149036779Y-91465057D02*
X149084398Y-91417438D01*
X149084398Y-91417438D02*
X149179636Y-91369819D01*
X149179636Y-91369819D02*
X149417731Y-91369819D01*
X149417731Y-91369819D02*
X149560588Y-91417438D01*
X149941541Y-92084104D02*
X150417731Y-92084104D01*
X149846303Y-92369819D02*
X150179636Y-91369819D01*
X150179636Y-91369819D02*
X150512969Y-92369819D01*
X150846303Y-92369819D02*
X150846303Y-91369819D01*
X151846302Y-92369819D02*
X151274874Y-92369819D01*
X151560588Y-92369819D02*
X151560588Y-91369819D01*
X151560588Y-91369819D02*
X151465350Y-91512676D01*
X151465350Y-91512676D02*
X151370112Y-91607914D01*
X151370112Y-91607914D02*
X151274874Y-91655533D01*
X152989160Y-92322200D02*
X153132017Y-92369819D01*
X153132017Y-92369819D02*
X153370112Y-92369819D01*
X153370112Y-92369819D02*
X153465350Y-92322200D01*
X153465350Y-92322200D02*
X153512969Y-92274580D01*
X153512969Y-92274580D02*
X153560588Y-92179342D01*
X153560588Y-92179342D02*
X153560588Y-92084104D01*
X153560588Y-92084104D02*
X153512969Y-91988866D01*
X153512969Y-91988866D02*
X153465350Y-91941247D01*
X153465350Y-91941247D02*
X153370112Y-91893628D01*
X153370112Y-91893628D02*
X153179636Y-91846009D01*
X153179636Y-91846009D02*
X153084398Y-91798390D01*
X153084398Y-91798390D02*
X153036779Y-91750771D01*
X153036779Y-91750771D02*
X152989160Y-91655533D01*
X152989160Y-91655533D02*
X152989160Y-91560295D01*
X152989160Y-91560295D02*
X153036779Y-91465057D01*
X153036779Y-91465057D02*
X153084398Y-91417438D01*
X153084398Y-91417438D02*
X153179636Y-91369819D01*
X153179636Y-91369819D02*
X153417731Y-91369819D01*
X153417731Y-91369819D02*
X153560588Y-91417438D01*
X153989160Y-92369819D02*
X153989160Y-91369819D01*
X153989160Y-91369819D02*
X154227255Y-91369819D01*
X154227255Y-91369819D02*
X154370112Y-91417438D01*
X154370112Y-91417438D02*
X154465350Y-91512676D01*
X154465350Y-91512676D02*
X154512969Y-91607914D01*
X154512969Y-91607914D02*
X154560588Y-91798390D01*
X154560588Y-91798390D02*
X154560588Y-91941247D01*
X154560588Y-91941247D02*
X154512969Y-92131723D01*
X154512969Y-92131723D02*
X154465350Y-92226961D01*
X154465350Y-92226961D02*
X154370112Y-92322200D01*
X154370112Y-92322200D02*
X154227255Y-92369819D01*
X154227255Y-92369819D02*
X153989160Y-92369819D01*
X154941541Y-92084104D02*
X155417731Y-92084104D01*
X154846303Y-92369819D02*
X155179636Y-91369819D01*
X155179636Y-91369819D02*
X155512969Y-92369819D01*
X148989160Y-89522200D02*
X149132017Y-89569819D01*
X149132017Y-89569819D02*
X149370112Y-89569819D01*
X149370112Y-89569819D02*
X149465350Y-89522200D01*
X149465350Y-89522200D02*
X149512969Y-89474580D01*
X149512969Y-89474580D02*
X149560588Y-89379342D01*
X149560588Y-89379342D02*
X149560588Y-89284104D01*
X149560588Y-89284104D02*
X149512969Y-89188866D01*
X149512969Y-89188866D02*
X149465350Y-89141247D01*
X149465350Y-89141247D02*
X149370112Y-89093628D01*
X149370112Y-89093628D02*
X149179636Y-89046009D01*
X149179636Y-89046009D02*
X149084398Y-88998390D01*
X149084398Y-88998390D02*
X149036779Y-88950771D01*
X149036779Y-88950771D02*
X148989160Y-88855533D01*
X148989160Y-88855533D02*
X148989160Y-88760295D01*
X148989160Y-88760295D02*
X149036779Y-88665057D01*
X149036779Y-88665057D02*
X149084398Y-88617438D01*
X149084398Y-88617438D02*
X149179636Y-88569819D01*
X149179636Y-88569819D02*
X149417731Y-88569819D01*
X149417731Y-88569819D02*
X149560588Y-88617438D01*
X149941541Y-89284104D02*
X150417731Y-89284104D01*
X149846303Y-89569819D02*
X150179636Y-88569819D01*
X150179636Y-88569819D02*
X150512969Y-89569819D01*
X150846303Y-89569819D02*
X150846303Y-88569819D01*
X151846302Y-89569819D02*
X151274874Y-89569819D01*
X151560588Y-89569819D02*
X151560588Y-88569819D01*
X151560588Y-88569819D02*
X151465350Y-88712676D01*
X151465350Y-88712676D02*
X151370112Y-88807914D01*
X151370112Y-88807914D02*
X151274874Y-88855533D01*
X152989160Y-89522200D02*
X153132017Y-89569819D01*
X153132017Y-89569819D02*
X153370112Y-89569819D01*
X153370112Y-89569819D02*
X153465350Y-89522200D01*
X153465350Y-89522200D02*
X153512969Y-89474580D01*
X153512969Y-89474580D02*
X153560588Y-89379342D01*
X153560588Y-89379342D02*
X153560588Y-89284104D01*
X153560588Y-89284104D02*
X153512969Y-89188866D01*
X153512969Y-89188866D02*
X153465350Y-89141247D01*
X153465350Y-89141247D02*
X153370112Y-89093628D01*
X153370112Y-89093628D02*
X153179636Y-89046009D01*
X153179636Y-89046009D02*
X153084398Y-88998390D01*
X153084398Y-88998390D02*
X153036779Y-88950771D01*
X153036779Y-88950771D02*
X152989160Y-88855533D01*
X152989160Y-88855533D02*
X152989160Y-88760295D01*
X152989160Y-88760295D02*
X153036779Y-88665057D01*
X153036779Y-88665057D02*
X153084398Y-88617438D01*
X153084398Y-88617438D02*
X153179636Y-88569819D01*
X153179636Y-88569819D02*
X153417731Y-88569819D01*
X153417731Y-88569819D02*
X153560588Y-88617438D01*
X154560588Y-89474580D02*
X154512969Y-89522200D01*
X154512969Y-89522200D02*
X154370112Y-89569819D01*
X154370112Y-89569819D02*
X154274874Y-89569819D01*
X154274874Y-89569819D02*
X154132017Y-89522200D01*
X154132017Y-89522200D02*
X154036779Y-89426961D01*
X154036779Y-89426961D02*
X153989160Y-89331723D01*
X153989160Y-89331723D02*
X153941541Y-89141247D01*
X153941541Y-89141247D02*
X153941541Y-88998390D01*
X153941541Y-88998390D02*
X153989160Y-88807914D01*
X153989160Y-88807914D02*
X154036779Y-88712676D01*
X154036779Y-88712676D02*
X154132017Y-88617438D01*
X154132017Y-88617438D02*
X154274874Y-88569819D01*
X154274874Y-88569819D02*
X154370112Y-88569819D01*
X154370112Y-88569819D02*
X154512969Y-88617438D01*
X154512969Y-88617438D02*
X154560588Y-88665057D01*
X154989160Y-89569819D02*
X154989160Y-88569819D01*
X155560588Y-89569819D02*
X155132017Y-88998390D01*
X155560588Y-88569819D02*
X154989160Y-89141247D01*
X148989160Y-86722200D02*
X149132017Y-86769819D01*
X149132017Y-86769819D02*
X149370112Y-86769819D01*
X149370112Y-86769819D02*
X149465350Y-86722200D01*
X149465350Y-86722200D02*
X149512969Y-86674580D01*
X149512969Y-86674580D02*
X149560588Y-86579342D01*
X149560588Y-86579342D02*
X149560588Y-86484104D01*
X149560588Y-86484104D02*
X149512969Y-86388866D01*
X149512969Y-86388866D02*
X149465350Y-86341247D01*
X149465350Y-86341247D02*
X149370112Y-86293628D01*
X149370112Y-86293628D02*
X149179636Y-86246009D01*
X149179636Y-86246009D02*
X149084398Y-86198390D01*
X149084398Y-86198390D02*
X149036779Y-86150771D01*
X149036779Y-86150771D02*
X148989160Y-86055533D01*
X148989160Y-86055533D02*
X148989160Y-85960295D01*
X148989160Y-85960295D02*
X149036779Y-85865057D01*
X149036779Y-85865057D02*
X149084398Y-85817438D01*
X149084398Y-85817438D02*
X149179636Y-85769819D01*
X149179636Y-85769819D02*
X149417731Y-85769819D01*
X149417731Y-85769819D02*
X149560588Y-85817438D01*
X149941541Y-86484104D02*
X150417731Y-86484104D01*
X149846303Y-86769819D02*
X150179636Y-85769819D01*
X150179636Y-85769819D02*
X150512969Y-86769819D01*
X150846303Y-86769819D02*
X150846303Y-85769819D01*
X151846302Y-86769819D02*
X151274874Y-86769819D01*
X151560588Y-86769819D02*
X151560588Y-85769819D01*
X151560588Y-85769819D02*
X151465350Y-85912676D01*
X151465350Y-85912676D02*
X151370112Y-86007914D01*
X151370112Y-86007914D02*
X151274874Y-86055533D01*
X153370112Y-86246009D02*
X153036779Y-86246009D01*
X153036779Y-86769819D02*
X153036779Y-85769819D01*
X153036779Y-85769819D02*
X153512969Y-85769819D01*
X153846303Y-86722200D02*
X153989160Y-86769819D01*
X153989160Y-86769819D02*
X154227255Y-86769819D01*
X154227255Y-86769819D02*
X154322493Y-86722200D01*
X154322493Y-86722200D02*
X154370112Y-86674580D01*
X154370112Y-86674580D02*
X154417731Y-86579342D01*
X154417731Y-86579342D02*
X154417731Y-86484104D01*
X154417731Y-86484104D02*
X154370112Y-86388866D01*
X154370112Y-86388866D02*
X154322493Y-86341247D01*
X154322493Y-86341247D02*
X154227255Y-86293628D01*
X154227255Y-86293628D02*
X154036779Y-86246009D01*
X154036779Y-86246009D02*
X153941541Y-86198390D01*
X153941541Y-86198390D02*
X153893922Y-86150771D01*
X153893922Y-86150771D02*
X153846303Y-86055533D01*
X153846303Y-86055533D02*
X153846303Y-85960295D01*
X153846303Y-85960295D02*
X153893922Y-85865057D01*
X153893922Y-85865057D02*
X153941541Y-85817438D01*
X153941541Y-85817438D02*
X154036779Y-85769819D01*
X154036779Y-85769819D02*
X154274874Y-85769819D01*
X154274874Y-85769819D02*
X154417731Y-85817438D01*
X148989160Y-83922200D02*
X149132017Y-83969819D01*
X149132017Y-83969819D02*
X149370112Y-83969819D01*
X149370112Y-83969819D02*
X149465350Y-83922200D01*
X149465350Y-83922200D02*
X149512969Y-83874580D01*
X149512969Y-83874580D02*
X149560588Y-83779342D01*
X149560588Y-83779342D02*
X149560588Y-83684104D01*
X149560588Y-83684104D02*
X149512969Y-83588866D01*
X149512969Y-83588866D02*
X149465350Y-83541247D01*
X149465350Y-83541247D02*
X149370112Y-83493628D01*
X149370112Y-83493628D02*
X149179636Y-83446009D01*
X149179636Y-83446009D02*
X149084398Y-83398390D01*
X149084398Y-83398390D02*
X149036779Y-83350771D01*
X149036779Y-83350771D02*
X148989160Y-83255533D01*
X148989160Y-83255533D02*
X148989160Y-83160295D01*
X148989160Y-83160295D02*
X149036779Y-83065057D01*
X149036779Y-83065057D02*
X149084398Y-83017438D01*
X149084398Y-83017438D02*
X149179636Y-82969819D01*
X149179636Y-82969819D02*
X149417731Y-82969819D01*
X149417731Y-82969819D02*
X149560588Y-83017438D01*
X149941541Y-83684104D02*
X150417731Y-83684104D01*
X149846303Y-83969819D02*
X150179636Y-82969819D01*
X150179636Y-82969819D02*
X150512969Y-83969819D01*
X150846303Y-83969819D02*
X150846303Y-82969819D01*
X151846302Y-83969819D02*
X151274874Y-83969819D01*
X151560588Y-83969819D02*
X151560588Y-82969819D01*
X151560588Y-82969819D02*
X151465350Y-83112676D01*
X151465350Y-83112676D02*
X151370112Y-83207914D01*
X151370112Y-83207914D02*
X151274874Y-83255533D01*
X153036779Y-83969819D02*
X153036779Y-82969819D01*
X153036779Y-82969819D02*
X153370112Y-83684104D01*
X153370112Y-83684104D02*
X153703445Y-82969819D01*
X153703445Y-82969819D02*
X153703445Y-83969819D01*
X154751064Y-83874580D02*
X154703445Y-83922200D01*
X154703445Y-83922200D02*
X154560588Y-83969819D01*
X154560588Y-83969819D02*
X154465350Y-83969819D01*
X154465350Y-83969819D02*
X154322493Y-83922200D01*
X154322493Y-83922200D02*
X154227255Y-83826961D01*
X154227255Y-83826961D02*
X154179636Y-83731723D01*
X154179636Y-83731723D02*
X154132017Y-83541247D01*
X154132017Y-83541247D02*
X154132017Y-83398390D01*
X154132017Y-83398390D02*
X154179636Y-83207914D01*
X154179636Y-83207914D02*
X154227255Y-83112676D01*
X154227255Y-83112676D02*
X154322493Y-83017438D01*
X154322493Y-83017438D02*
X154465350Y-82969819D01*
X154465350Y-82969819D02*
X154560588Y-82969819D01*
X154560588Y-82969819D02*
X154703445Y-83017438D01*
X154703445Y-83017438D02*
X154751064Y-83065057D01*
X155655826Y-83969819D02*
X155179636Y-83969819D01*
X155179636Y-83969819D02*
X155179636Y-82969819D01*
X155989160Y-83969819D02*
X155989160Y-82969819D01*
X156560588Y-83969819D02*
X156132017Y-83398390D01*
X156560588Y-82969819D02*
X155989160Y-83541247D01*
X164238095Y-68634819D02*
X164238095Y-69444342D01*
X164238095Y-69444342D02*
X164285714Y-69539580D01*
X164285714Y-69539580D02*
X164333333Y-69587200D01*
X164333333Y-69587200D02*
X164428571Y-69634819D01*
X164428571Y-69634819D02*
X164619047Y-69634819D01*
X164619047Y-69634819D02*
X164714285Y-69587200D01*
X164714285Y-69587200D02*
X164761904Y-69539580D01*
X164761904Y-69539580D02*
X164809523Y-69444342D01*
X164809523Y-69444342D02*
X164809523Y-68634819D01*
X165238095Y-68730057D02*
X165285714Y-68682438D01*
X165285714Y-68682438D02*
X165380952Y-68634819D01*
X165380952Y-68634819D02*
X165619047Y-68634819D01*
X165619047Y-68634819D02*
X165714285Y-68682438D01*
X165714285Y-68682438D02*
X165761904Y-68730057D01*
X165761904Y-68730057D02*
X165809523Y-68825295D01*
X165809523Y-68825295D02*
X165809523Y-68920533D01*
X165809523Y-68920533D02*
X165761904Y-69063390D01*
X165761904Y-69063390D02*
X165190476Y-69634819D01*
X165190476Y-69634819D02*
X165809523Y-69634819D01*
X166754819Y-63766666D02*
X166278628Y-64099999D01*
X166754819Y-64338094D02*
X165754819Y-64338094D01*
X165754819Y-64338094D02*
X165754819Y-63957142D01*
X165754819Y-63957142D02*
X165802438Y-63861904D01*
X165802438Y-63861904D02*
X165850057Y-63814285D01*
X165850057Y-63814285D02*
X165945295Y-63766666D01*
X165945295Y-63766666D02*
X166088152Y-63766666D01*
X166088152Y-63766666D02*
X166183390Y-63814285D01*
X166183390Y-63814285D02*
X166231009Y-63861904D01*
X166231009Y-63861904D02*
X166278628Y-63957142D01*
X166278628Y-63957142D02*
X166278628Y-64338094D01*
X166754819Y-62814285D02*
X166754819Y-63385713D01*
X166754819Y-63099999D02*
X165754819Y-63099999D01*
X165754819Y-63099999D02*
X165897676Y-63195237D01*
X165897676Y-63195237D02*
X165992914Y-63290475D01*
X165992914Y-63290475D02*
X166040533Y-63385713D01*
X155833333Y-68754819D02*
X155357143Y-68754819D01*
X155357143Y-68754819D02*
X155357143Y-67754819D01*
X156690476Y-68754819D02*
X156119048Y-68754819D01*
X156404762Y-68754819D02*
X156404762Y-67754819D01*
X156404762Y-67754819D02*
X156309524Y-67897676D01*
X156309524Y-67897676D02*
X156214286Y-67992914D01*
X156214286Y-67992914D02*
X156119048Y-68040533D01*
X185990476Y-106354819D02*
X185990476Y-107069104D01*
X185990476Y-107069104D02*
X185942857Y-107211961D01*
X185942857Y-107211961D02*
X185847619Y-107307200D01*
X185847619Y-107307200D02*
X185704762Y-107354819D01*
X185704762Y-107354819D02*
X185609524Y-107354819D01*
X186990476Y-107354819D02*
X186419048Y-107354819D01*
X186704762Y-107354819D02*
X186704762Y-106354819D01*
X186704762Y-106354819D02*
X186609524Y-106497676D01*
X186609524Y-106497676D02*
X186514286Y-106592914D01*
X186514286Y-106592914D02*
X186419048Y-106640533D01*
X187609524Y-106354819D02*
X187704762Y-106354819D01*
X187704762Y-106354819D02*
X187800000Y-106402438D01*
X187800000Y-106402438D02*
X187847619Y-106450057D01*
X187847619Y-106450057D02*
X187895238Y-106545295D01*
X187895238Y-106545295D02*
X187942857Y-106735771D01*
X187942857Y-106735771D02*
X187942857Y-106973866D01*
X187942857Y-106973866D02*
X187895238Y-107164342D01*
X187895238Y-107164342D02*
X187847619Y-107259580D01*
X187847619Y-107259580D02*
X187800000Y-107307200D01*
X187800000Y-107307200D02*
X187704762Y-107354819D01*
X187704762Y-107354819D02*
X187609524Y-107354819D01*
X187609524Y-107354819D02*
X187514286Y-107307200D01*
X187514286Y-107307200D02*
X187466667Y-107259580D01*
X187466667Y-107259580D02*
X187419048Y-107164342D01*
X187419048Y-107164342D02*
X187371429Y-106973866D01*
X187371429Y-106973866D02*
X187371429Y-106735771D01*
X187371429Y-106735771D02*
X187419048Y-106545295D01*
X187419048Y-106545295D02*
X187466667Y-106450057D01*
X187466667Y-106450057D02*
X187514286Y-106402438D01*
X187514286Y-106402438D02*
X187609524Y-106354819D01*
X186356666Y-32684819D02*
X186356666Y-33399104D01*
X186356666Y-33399104D02*
X186309047Y-33541961D01*
X186309047Y-33541961D02*
X186213809Y-33637200D01*
X186213809Y-33637200D02*
X186070952Y-33684819D01*
X186070952Y-33684819D02*
X185975714Y-33684819D01*
X186737619Y-32684819D02*
X187404285Y-32684819D01*
X187404285Y-32684819D02*
X186975714Y-33684819D01*
X140636666Y-42844819D02*
X140636666Y-43559104D01*
X140636666Y-43559104D02*
X140589047Y-43701961D01*
X140589047Y-43701961D02*
X140493809Y-43797200D01*
X140493809Y-43797200D02*
X140350952Y-43844819D01*
X140350952Y-43844819D02*
X140255714Y-43844819D01*
X141255714Y-43273390D02*
X141160476Y-43225771D01*
X141160476Y-43225771D02*
X141112857Y-43178152D01*
X141112857Y-43178152D02*
X141065238Y-43082914D01*
X141065238Y-43082914D02*
X141065238Y-43035295D01*
X141065238Y-43035295D02*
X141112857Y-42940057D01*
X141112857Y-42940057D02*
X141160476Y-42892438D01*
X141160476Y-42892438D02*
X141255714Y-42844819D01*
X141255714Y-42844819D02*
X141446190Y-42844819D01*
X141446190Y-42844819D02*
X141541428Y-42892438D01*
X141541428Y-42892438D02*
X141589047Y-42940057D01*
X141589047Y-42940057D02*
X141636666Y-43035295D01*
X141636666Y-43035295D02*
X141636666Y-43082914D01*
X141636666Y-43082914D02*
X141589047Y-43178152D01*
X141589047Y-43178152D02*
X141541428Y-43225771D01*
X141541428Y-43225771D02*
X141446190Y-43273390D01*
X141446190Y-43273390D02*
X141255714Y-43273390D01*
X141255714Y-43273390D02*
X141160476Y-43321009D01*
X141160476Y-43321009D02*
X141112857Y-43368628D01*
X141112857Y-43368628D02*
X141065238Y-43463866D01*
X141065238Y-43463866D02*
X141065238Y-43654342D01*
X141065238Y-43654342D02*
X141112857Y-43749580D01*
X141112857Y-43749580D02*
X141160476Y-43797200D01*
X141160476Y-43797200D02*
X141255714Y-43844819D01*
X141255714Y-43844819D02*
X141446190Y-43844819D01*
X141446190Y-43844819D02*
X141541428Y-43797200D01*
X141541428Y-43797200D02*
X141589047Y-43749580D01*
X141589047Y-43749580D02*
X141636666Y-43654342D01*
X141636666Y-43654342D02*
X141636666Y-43463866D01*
X141636666Y-43463866D02*
X141589047Y-43368628D01*
X141589047Y-43368628D02*
X141541428Y-43321009D01*
X141541428Y-43321009D02*
X141446190Y-43273390D01*
X140666666Y-106254819D02*
X140666666Y-106969104D01*
X140666666Y-106969104D02*
X140619047Y-107111961D01*
X140619047Y-107111961D02*
X140523809Y-107207200D01*
X140523809Y-107207200D02*
X140380952Y-107254819D01*
X140380952Y-107254819D02*
X140285714Y-107254819D01*
X141190476Y-107254819D02*
X141380952Y-107254819D01*
X141380952Y-107254819D02*
X141476190Y-107207200D01*
X141476190Y-107207200D02*
X141523809Y-107159580D01*
X141523809Y-107159580D02*
X141619047Y-107016723D01*
X141619047Y-107016723D02*
X141666666Y-106826247D01*
X141666666Y-106826247D02*
X141666666Y-106445295D01*
X141666666Y-106445295D02*
X141619047Y-106350057D01*
X141619047Y-106350057D02*
X141571428Y-106302438D01*
X141571428Y-106302438D02*
X141476190Y-106254819D01*
X141476190Y-106254819D02*
X141285714Y-106254819D01*
X141285714Y-106254819D02*
X141190476Y-106302438D01*
X141190476Y-106302438D02*
X141142857Y-106350057D01*
X141142857Y-106350057D02*
X141095238Y-106445295D01*
X141095238Y-106445295D02*
X141095238Y-106683390D01*
X141095238Y-106683390D02*
X141142857Y-106778628D01*
X141142857Y-106778628D02*
X141190476Y-106826247D01*
X141190476Y-106826247D02*
X141285714Y-106873866D01*
X141285714Y-106873866D02*
X141476190Y-106873866D01*
X141476190Y-106873866D02*
X141571428Y-106826247D01*
X141571428Y-106826247D02*
X141619047Y-106778628D01*
X141619047Y-106778628D02*
X141666666Y-106683390D01*
X173657142Y-72059580D02*
X173609523Y-72107200D01*
X173609523Y-72107200D02*
X173466666Y-72154819D01*
X173466666Y-72154819D02*
X173371428Y-72154819D01*
X173371428Y-72154819D02*
X173228571Y-72107200D01*
X173228571Y-72107200D02*
X173133333Y-72011961D01*
X173133333Y-72011961D02*
X173085714Y-71916723D01*
X173085714Y-71916723D02*
X173038095Y-71726247D01*
X173038095Y-71726247D02*
X173038095Y-71583390D01*
X173038095Y-71583390D02*
X173085714Y-71392914D01*
X173085714Y-71392914D02*
X173133333Y-71297676D01*
X173133333Y-71297676D02*
X173228571Y-71202438D01*
X173228571Y-71202438D02*
X173371428Y-71154819D01*
X173371428Y-71154819D02*
X173466666Y-71154819D01*
X173466666Y-71154819D02*
X173609523Y-71202438D01*
X173609523Y-71202438D02*
X173657142Y-71250057D01*
X174038095Y-71250057D02*
X174085714Y-71202438D01*
X174085714Y-71202438D02*
X174180952Y-71154819D01*
X174180952Y-71154819D02*
X174419047Y-71154819D01*
X174419047Y-71154819D02*
X174514285Y-71202438D01*
X174514285Y-71202438D02*
X174561904Y-71250057D01*
X174561904Y-71250057D02*
X174609523Y-71345295D01*
X174609523Y-71345295D02*
X174609523Y-71440533D01*
X174609523Y-71440533D02*
X174561904Y-71583390D01*
X174561904Y-71583390D02*
X173990476Y-72154819D01*
X173990476Y-72154819D02*
X174609523Y-72154819D01*
X175466666Y-71488152D02*
X175466666Y-72154819D01*
X175228571Y-71107200D02*
X174990476Y-71821485D01*
X174990476Y-71821485D02*
X175609523Y-71821485D01*
X173657142Y-73659580D02*
X173609523Y-73707200D01*
X173609523Y-73707200D02*
X173466666Y-73754819D01*
X173466666Y-73754819D02*
X173371428Y-73754819D01*
X173371428Y-73754819D02*
X173228571Y-73707200D01*
X173228571Y-73707200D02*
X173133333Y-73611961D01*
X173133333Y-73611961D02*
X173085714Y-73516723D01*
X173085714Y-73516723D02*
X173038095Y-73326247D01*
X173038095Y-73326247D02*
X173038095Y-73183390D01*
X173038095Y-73183390D02*
X173085714Y-72992914D01*
X173085714Y-72992914D02*
X173133333Y-72897676D01*
X173133333Y-72897676D02*
X173228571Y-72802438D01*
X173228571Y-72802438D02*
X173371428Y-72754819D01*
X173371428Y-72754819D02*
X173466666Y-72754819D01*
X173466666Y-72754819D02*
X173609523Y-72802438D01*
X173609523Y-72802438D02*
X173657142Y-72850057D01*
X174038095Y-72850057D02*
X174085714Y-72802438D01*
X174085714Y-72802438D02*
X174180952Y-72754819D01*
X174180952Y-72754819D02*
X174419047Y-72754819D01*
X174419047Y-72754819D02*
X174514285Y-72802438D01*
X174514285Y-72802438D02*
X174561904Y-72850057D01*
X174561904Y-72850057D02*
X174609523Y-72945295D01*
X174609523Y-72945295D02*
X174609523Y-73040533D01*
X174609523Y-73040533D02*
X174561904Y-73183390D01*
X174561904Y-73183390D02*
X173990476Y-73754819D01*
X173990476Y-73754819D02*
X174609523Y-73754819D01*
X174942857Y-72754819D02*
X175561904Y-72754819D01*
X175561904Y-72754819D02*
X175228571Y-73135771D01*
X175228571Y-73135771D02*
X175371428Y-73135771D01*
X175371428Y-73135771D02*
X175466666Y-73183390D01*
X175466666Y-73183390D02*
X175514285Y-73231009D01*
X175514285Y-73231009D02*
X175561904Y-73326247D01*
X175561904Y-73326247D02*
X175561904Y-73564342D01*
X175561904Y-73564342D02*
X175514285Y-73659580D01*
X175514285Y-73659580D02*
X175466666Y-73707200D01*
X175466666Y-73707200D02*
X175371428Y-73754819D01*
X175371428Y-73754819D02*
X175085714Y-73754819D01*
X175085714Y-73754819D02*
X174990476Y-73707200D01*
X174990476Y-73707200D02*
X174942857Y-73659580D01*
X173657142Y-75459580D02*
X173609523Y-75507200D01*
X173609523Y-75507200D02*
X173466666Y-75554819D01*
X173466666Y-75554819D02*
X173371428Y-75554819D01*
X173371428Y-75554819D02*
X173228571Y-75507200D01*
X173228571Y-75507200D02*
X173133333Y-75411961D01*
X173133333Y-75411961D02*
X173085714Y-75316723D01*
X173085714Y-75316723D02*
X173038095Y-75126247D01*
X173038095Y-75126247D02*
X173038095Y-74983390D01*
X173038095Y-74983390D02*
X173085714Y-74792914D01*
X173085714Y-74792914D02*
X173133333Y-74697676D01*
X173133333Y-74697676D02*
X173228571Y-74602438D01*
X173228571Y-74602438D02*
X173371428Y-74554819D01*
X173371428Y-74554819D02*
X173466666Y-74554819D01*
X173466666Y-74554819D02*
X173609523Y-74602438D01*
X173609523Y-74602438D02*
X173657142Y-74650057D01*
X174038095Y-74650057D02*
X174085714Y-74602438D01*
X174085714Y-74602438D02*
X174180952Y-74554819D01*
X174180952Y-74554819D02*
X174419047Y-74554819D01*
X174419047Y-74554819D02*
X174514285Y-74602438D01*
X174514285Y-74602438D02*
X174561904Y-74650057D01*
X174561904Y-74650057D02*
X174609523Y-74745295D01*
X174609523Y-74745295D02*
X174609523Y-74840533D01*
X174609523Y-74840533D02*
X174561904Y-74983390D01*
X174561904Y-74983390D02*
X173990476Y-75554819D01*
X173990476Y-75554819D02*
X174609523Y-75554819D01*
X174990476Y-74650057D02*
X175038095Y-74602438D01*
X175038095Y-74602438D02*
X175133333Y-74554819D01*
X175133333Y-74554819D02*
X175371428Y-74554819D01*
X175371428Y-74554819D02*
X175466666Y-74602438D01*
X175466666Y-74602438D02*
X175514285Y-74650057D01*
X175514285Y-74650057D02*
X175561904Y-74745295D01*
X175561904Y-74745295D02*
X175561904Y-74840533D01*
X175561904Y-74840533D02*
X175514285Y-74983390D01*
X175514285Y-74983390D02*
X174942857Y-75554819D01*
X174942857Y-75554819D02*
X175561904Y-75554819D01*
X173657142Y-77159580D02*
X173609523Y-77207200D01*
X173609523Y-77207200D02*
X173466666Y-77254819D01*
X173466666Y-77254819D02*
X173371428Y-77254819D01*
X173371428Y-77254819D02*
X173228571Y-77207200D01*
X173228571Y-77207200D02*
X173133333Y-77111961D01*
X173133333Y-77111961D02*
X173085714Y-77016723D01*
X173085714Y-77016723D02*
X173038095Y-76826247D01*
X173038095Y-76826247D02*
X173038095Y-76683390D01*
X173038095Y-76683390D02*
X173085714Y-76492914D01*
X173085714Y-76492914D02*
X173133333Y-76397676D01*
X173133333Y-76397676D02*
X173228571Y-76302438D01*
X173228571Y-76302438D02*
X173371428Y-76254819D01*
X173371428Y-76254819D02*
X173466666Y-76254819D01*
X173466666Y-76254819D02*
X173609523Y-76302438D01*
X173609523Y-76302438D02*
X173657142Y-76350057D01*
X174609523Y-77254819D02*
X174038095Y-77254819D01*
X174323809Y-77254819D02*
X174323809Y-76254819D01*
X174323809Y-76254819D02*
X174228571Y-76397676D01*
X174228571Y-76397676D02*
X174133333Y-76492914D01*
X174133333Y-76492914D02*
X174038095Y-76540533D01*
X175085714Y-77254819D02*
X175276190Y-77254819D01*
X175276190Y-77254819D02*
X175371428Y-77207200D01*
X175371428Y-77207200D02*
X175419047Y-77159580D01*
X175419047Y-77159580D02*
X175514285Y-77016723D01*
X175514285Y-77016723D02*
X175561904Y-76826247D01*
X175561904Y-76826247D02*
X175561904Y-76445295D01*
X175561904Y-76445295D02*
X175514285Y-76350057D01*
X175514285Y-76350057D02*
X175466666Y-76302438D01*
X175466666Y-76302438D02*
X175371428Y-76254819D01*
X175371428Y-76254819D02*
X175180952Y-76254819D01*
X175180952Y-76254819D02*
X175085714Y-76302438D01*
X175085714Y-76302438D02*
X175038095Y-76350057D01*
X175038095Y-76350057D02*
X174990476Y-76445295D01*
X174990476Y-76445295D02*
X174990476Y-76683390D01*
X174990476Y-76683390D02*
X175038095Y-76778628D01*
X175038095Y-76778628D02*
X175085714Y-76826247D01*
X175085714Y-76826247D02*
X175180952Y-76873866D01*
X175180952Y-76873866D02*
X175371428Y-76873866D01*
X175371428Y-76873866D02*
X175466666Y-76826247D01*
X175466666Y-76826247D02*
X175514285Y-76778628D01*
X175514285Y-76778628D02*
X175561904Y-76683390D01*
X154857142Y-70359580D02*
X154809523Y-70407200D01*
X154809523Y-70407200D02*
X154666666Y-70454819D01*
X154666666Y-70454819D02*
X154571428Y-70454819D01*
X154571428Y-70454819D02*
X154428571Y-70407200D01*
X154428571Y-70407200D02*
X154333333Y-70311961D01*
X154333333Y-70311961D02*
X154285714Y-70216723D01*
X154285714Y-70216723D02*
X154238095Y-70026247D01*
X154238095Y-70026247D02*
X154238095Y-69883390D01*
X154238095Y-69883390D02*
X154285714Y-69692914D01*
X154285714Y-69692914D02*
X154333333Y-69597676D01*
X154333333Y-69597676D02*
X154428571Y-69502438D01*
X154428571Y-69502438D02*
X154571428Y-69454819D01*
X154571428Y-69454819D02*
X154666666Y-69454819D01*
X154666666Y-69454819D02*
X154809523Y-69502438D01*
X154809523Y-69502438D02*
X154857142Y-69550057D01*
X155809523Y-70454819D02*
X155238095Y-70454819D01*
X155523809Y-70454819D02*
X155523809Y-69454819D01*
X155523809Y-69454819D02*
X155428571Y-69597676D01*
X155428571Y-69597676D02*
X155333333Y-69692914D01*
X155333333Y-69692914D02*
X155238095Y-69740533D01*
X156380952Y-69883390D02*
X156285714Y-69835771D01*
X156285714Y-69835771D02*
X156238095Y-69788152D01*
X156238095Y-69788152D02*
X156190476Y-69692914D01*
X156190476Y-69692914D02*
X156190476Y-69645295D01*
X156190476Y-69645295D02*
X156238095Y-69550057D01*
X156238095Y-69550057D02*
X156285714Y-69502438D01*
X156285714Y-69502438D02*
X156380952Y-69454819D01*
X156380952Y-69454819D02*
X156571428Y-69454819D01*
X156571428Y-69454819D02*
X156666666Y-69502438D01*
X156666666Y-69502438D02*
X156714285Y-69550057D01*
X156714285Y-69550057D02*
X156761904Y-69645295D01*
X156761904Y-69645295D02*
X156761904Y-69692914D01*
X156761904Y-69692914D02*
X156714285Y-69788152D01*
X156714285Y-69788152D02*
X156666666Y-69835771D01*
X156666666Y-69835771D02*
X156571428Y-69883390D01*
X156571428Y-69883390D02*
X156380952Y-69883390D01*
X156380952Y-69883390D02*
X156285714Y-69931009D01*
X156285714Y-69931009D02*
X156238095Y-69978628D01*
X156238095Y-69978628D02*
X156190476Y-70073866D01*
X156190476Y-70073866D02*
X156190476Y-70264342D01*
X156190476Y-70264342D02*
X156238095Y-70359580D01*
X156238095Y-70359580D02*
X156285714Y-70407200D01*
X156285714Y-70407200D02*
X156380952Y-70454819D01*
X156380952Y-70454819D02*
X156571428Y-70454819D01*
X156571428Y-70454819D02*
X156666666Y-70407200D01*
X156666666Y-70407200D02*
X156714285Y-70359580D01*
X156714285Y-70359580D02*
X156761904Y-70264342D01*
X156761904Y-70264342D02*
X156761904Y-70073866D01*
X156761904Y-70073866D02*
X156714285Y-69978628D01*
X156714285Y-69978628D02*
X156666666Y-69931009D01*
X156666666Y-69931009D02*
X156571428Y-69883390D01*
X154857142Y-72059580D02*
X154809523Y-72107200D01*
X154809523Y-72107200D02*
X154666666Y-72154819D01*
X154666666Y-72154819D02*
X154571428Y-72154819D01*
X154571428Y-72154819D02*
X154428571Y-72107200D01*
X154428571Y-72107200D02*
X154333333Y-72011961D01*
X154333333Y-72011961D02*
X154285714Y-71916723D01*
X154285714Y-71916723D02*
X154238095Y-71726247D01*
X154238095Y-71726247D02*
X154238095Y-71583390D01*
X154238095Y-71583390D02*
X154285714Y-71392914D01*
X154285714Y-71392914D02*
X154333333Y-71297676D01*
X154333333Y-71297676D02*
X154428571Y-71202438D01*
X154428571Y-71202438D02*
X154571428Y-71154819D01*
X154571428Y-71154819D02*
X154666666Y-71154819D01*
X154666666Y-71154819D02*
X154809523Y-71202438D01*
X154809523Y-71202438D02*
X154857142Y-71250057D01*
X155809523Y-72154819D02*
X155238095Y-72154819D01*
X155523809Y-72154819D02*
X155523809Y-71154819D01*
X155523809Y-71154819D02*
X155428571Y-71297676D01*
X155428571Y-71297676D02*
X155333333Y-71392914D01*
X155333333Y-71392914D02*
X155238095Y-71440533D01*
X156142857Y-71154819D02*
X156809523Y-71154819D01*
X156809523Y-71154819D02*
X156380952Y-72154819D01*
X173657142Y-78759580D02*
X173609523Y-78807200D01*
X173609523Y-78807200D02*
X173466666Y-78854819D01*
X173466666Y-78854819D02*
X173371428Y-78854819D01*
X173371428Y-78854819D02*
X173228571Y-78807200D01*
X173228571Y-78807200D02*
X173133333Y-78711961D01*
X173133333Y-78711961D02*
X173085714Y-78616723D01*
X173085714Y-78616723D02*
X173038095Y-78426247D01*
X173038095Y-78426247D02*
X173038095Y-78283390D01*
X173038095Y-78283390D02*
X173085714Y-78092914D01*
X173085714Y-78092914D02*
X173133333Y-77997676D01*
X173133333Y-77997676D02*
X173228571Y-77902438D01*
X173228571Y-77902438D02*
X173371428Y-77854819D01*
X173371428Y-77854819D02*
X173466666Y-77854819D01*
X173466666Y-77854819D02*
X173609523Y-77902438D01*
X173609523Y-77902438D02*
X173657142Y-77950057D01*
X174609523Y-78854819D02*
X174038095Y-78854819D01*
X174323809Y-78854819D02*
X174323809Y-77854819D01*
X174323809Y-77854819D02*
X174228571Y-77997676D01*
X174228571Y-77997676D02*
X174133333Y-78092914D01*
X174133333Y-78092914D02*
X174038095Y-78140533D01*
X175466666Y-77854819D02*
X175276190Y-77854819D01*
X175276190Y-77854819D02*
X175180952Y-77902438D01*
X175180952Y-77902438D02*
X175133333Y-77950057D01*
X175133333Y-77950057D02*
X175038095Y-78092914D01*
X175038095Y-78092914D02*
X174990476Y-78283390D01*
X174990476Y-78283390D02*
X174990476Y-78664342D01*
X174990476Y-78664342D02*
X175038095Y-78759580D01*
X175038095Y-78759580D02*
X175085714Y-78807200D01*
X175085714Y-78807200D02*
X175180952Y-78854819D01*
X175180952Y-78854819D02*
X175371428Y-78854819D01*
X175371428Y-78854819D02*
X175466666Y-78807200D01*
X175466666Y-78807200D02*
X175514285Y-78759580D01*
X175514285Y-78759580D02*
X175561904Y-78664342D01*
X175561904Y-78664342D02*
X175561904Y-78426247D01*
X175561904Y-78426247D02*
X175514285Y-78331009D01*
X175514285Y-78331009D02*
X175466666Y-78283390D01*
X175466666Y-78283390D02*
X175371428Y-78235771D01*
X175371428Y-78235771D02*
X175180952Y-78235771D01*
X175180952Y-78235771D02*
X175085714Y-78283390D01*
X175085714Y-78283390D02*
X175038095Y-78331009D01*
X175038095Y-78331009D02*
X174990476Y-78426247D01*
X154857142Y-73659580D02*
X154809523Y-73707200D01*
X154809523Y-73707200D02*
X154666666Y-73754819D01*
X154666666Y-73754819D02*
X154571428Y-73754819D01*
X154571428Y-73754819D02*
X154428571Y-73707200D01*
X154428571Y-73707200D02*
X154333333Y-73611961D01*
X154333333Y-73611961D02*
X154285714Y-73516723D01*
X154285714Y-73516723D02*
X154238095Y-73326247D01*
X154238095Y-73326247D02*
X154238095Y-73183390D01*
X154238095Y-73183390D02*
X154285714Y-72992914D01*
X154285714Y-72992914D02*
X154333333Y-72897676D01*
X154333333Y-72897676D02*
X154428571Y-72802438D01*
X154428571Y-72802438D02*
X154571428Y-72754819D01*
X154571428Y-72754819D02*
X154666666Y-72754819D01*
X154666666Y-72754819D02*
X154809523Y-72802438D01*
X154809523Y-72802438D02*
X154857142Y-72850057D01*
X155809523Y-73754819D02*
X155238095Y-73754819D01*
X155523809Y-73754819D02*
X155523809Y-72754819D01*
X155523809Y-72754819D02*
X155428571Y-72897676D01*
X155428571Y-72897676D02*
X155333333Y-72992914D01*
X155333333Y-72992914D02*
X155238095Y-73040533D01*
X156714285Y-72754819D02*
X156238095Y-72754819D01*
X156238095Y-72754819D02*
X156190476Y-73231009D01*
X156190476Y-73231009D02*
X156238095Y-73183390D01*
X156238095Y-73183390D02*
X156333333Y-73135771D01*
X156333333Y-73135771D02*
X156571428Y-73135771D01*
X156571428Y-73135771D02*
X156666666Y-73183390D01*
X156666666Y-73183390D02*
X156714285Y-73231009D01*
X156714285Y-73231009D02*
X156761904Y-73326247D01*
X156761904Y-73326247D02*
X156761904Y-73564342D01*
X156761904Y-73564342D02*
X156714285Y-73659580D01*
X156714285Y-73659580D02*
X156666666Y-73707200D01*
X156666666Y-73707200D02*
X156571428Y-73754819D01*
X156571428Y-73754819D02*
X156333333Y-73754819D01*
X156333333Y-73754819D02*
X156238095Y-73707200D01*
X156238095Y-73707200D02*
X156190476Y-73659580D01*
X159759580Y-85142857D02*
X159807200Y-85190476D01*
X159807200Y-85190476D02*
X159854819Y-85333333D01*
X159854819Y-85333333D02*
X159854819Y-85428571D01*
X159854819Y-85428571D02*
X159807200Y-85571428D01*
X159807200Y-85571428D02*
X159711961Y-85666666D01*
X159711961Y-85666666D02*
X159616723Y-85714285D01*
X159616723Y-85714285D02*
X159426247Y-85761904D01*
X159426247Y-85761904D02*
X159283390Y-85761904D01*
X159283390Y-85761904D02*
X159092914Y-85714285D01*
X159092914Y-85714285D02*
X158997676Y-85666666D01*
X158997676Y-85666666D02*
X158902438Y-85571428D01*
X158902438Y-85571428D02*
X158854819Y-85428571D01*
X158854819Y-85428571D02*
X158854819Y-85333333D01*
X158854819Y-85333333D02*
X158902438Y-85190476D01*
X158902438Y-85190476D02*
X158950057Y-85142857D01*
X159854819Y-84190476D02*
X159854819Y-84761904D01*
X159854819Y-84476190D02*
X158854819Y-84476190D01*
X158854819Y-84476190D02*
X158997676Y-84571428D01*
X158997676Y-84571428D02*
X159092914Y-84666666D01*
X159092914Y-84666666D02*
X159140533Y-84761904D01*
X158950057Y-83809523D02*
X158902438Y-83761904D01*
X158902438Y-83761904D02*
X158854819Y-83666666D01*
X158854819Y-83666666D02*
X158854819Y-83428571D01*
X158854819Y-83428571D02*
X158902438Y-83333333D01*
X158902438Y-83333333D02*
X158950057Y-83285714D01*
X158950057Y-83285714D02*
X159045295Y-83238095D01*
X159045295Y-83238095D02*
X159140533Y-83238095D01*
X159140533Y-83238095D02*
X159283390Y-83285714D01*
X159283390Y-83285714D02*
X159854819Y-83857142D01*
X159854819Y-83857142D02*
X159854819Y-83238095D01*
X162959580Y-85142857D02*
X163007200Y-85190476D01*
X163007200Y-85190476D02*
X163054819Y-85333333D01*
X163054819Y-85333333D02*
X163054819Y-85428571D01*
X163054819Y-85428571D02*
X163007200Y-85571428D01*
X163007200Y-85571428D02*
X162911961Y-85666666D01*
X162911961Y-85666666D02*
X162816723Y-85714285D01*
X162816723Y-85714285D02*
X162626247Y-85761904D01*
X162626247Y-85761904D02*
X162483390Y-85761904D01*
X162483390Y-85761904D02*
X162292914Y-85714285D01*
X162292914Y-85714285D02*
X162197676Y-85666666D01*
X162197676Y-85666666D02*
X162102438Y-85571428D01*
X162102438Y-85571428D02*
X162054819Y-85428571D01*
X162054819Y-85428571D02*
X162054819Y-85333333D01*
X162054819Y-85333333D02*
X162102438Y-85190476D01*
X162102438Y-85190476D02*
X162150057Y-85142857D01*
X163054819Y-84190476D02*
X163054819Y-84761904D01*
X163054819Y-84476190D02*
X162054819Y-84476190D01*
X162054819Y-84476190D02*
X162197676Y-84571428D01*
X162197676Y-84571428D02*
X162292914Y-84666666D01*
X162292914Y-84666666D02*
X162340533Y-84761904D01*
X163054819Y-83238095D02*
X163054819Y-83809523D01*
X163054819Y-83523809D02*
X162054819Y-83523809D01*
X162054819Y-83523809D02*
X162197676Y-83619047D01*
X162197676Y-83619047D02*
X162292914Y-83714285D01*
X162292914Y-83714285D02*
X162340533Y-83809523D01*
X166159580Y-85142857D02*
X166207200Y-85190476D01*
X166207200Y-85190476D02*
X166254819Y-85333333D01*
X166254819Y-85333333D02*
X166254819Y-85428571D01*
X166254819Y-85428571D02*
X166207200Y-85571428D01*
X166207200Y-85571428D02*
X166111961Y-85666666D01*
X166111961Y-85666666D02*
X166016723Y-85714285D01*
X166016723Y-85714285D02*
X165826247Y-85761904D01*
X165826247Y-85761904D02*
X165683390Y-85761904D01*
X165683390Y-85761904D02*
X165492914Y-85714285D01*
X165492914Y-85714285D02*
X165397676Y-85666666D01*
X165397676Y-85666666D02*
X165302438Y-85571428D01*
X165302438Y-85571428D02*
X165254819Y-85428571D01*
X165254819Y-85428571D02*
X165254819Y-85333333D01*
X165254819Y-85333333D02*
X165302438Y-85190476D01*
X165302438Y-85190476D02*
X165350057Y-85142857D01*
X166254819Y-84190476D02*
X166254819Y-84761904D01*
X166254819Y-84476190D02*
X165254819Y-84476190D01*
X165254819Y-84476190D02*
X165397676Y-84571428D01*
X165397676Y-84571428D02*
X165492914Y-84666666D01*
X165492914Y-84666666D02*
X165540533Y-84761904D01*
X165254819Y-83571428D02*
X165254819Y-83476190D01*
X165254819Y-83476190D02*
X165302438Y-83380952D01*
X165302438Y-83380952D02*
X165350057Y-83333333D01*
X165350057Y-83333333D02*
X165445295Y-83285714D01*
X165445295Y-83285714D02*
X165635771Y-83238095D01*
X165635771Y-83238095D02*
X165873866Y-83238095D01*
X165873866Y-83238095D02*
X166064342Y-83285714D01*
X166064342Y-83285714D02*
X166159580Y-83333333D01*
X166159580Y-83333333D02*
X166207200Y-83380952D01*
X166207200Y-83380952D02*
X166254819Y-83476190D01*
X166254819Y-83476190D02*
X166254819Y-83571428D01*
X166254819Y-83571428D02*
X166207200Y-83666666D01*
X166207200Y-83666666D02*
X166159580Y-83714285D01*
X166159580Y-83714285D02*
X166064342Y-83761904D01*
X166064342Y-83761904D02*
X165873866Y-83809523D01*
X165873866Y-83809523D02*
X165635771Y-83809523D01*
X165635771Y-83809523D02*
X165445295Y-83761904D01*
X165445295Y-83761904D02*
X165350057Y-83714285D01*
X165350057Y-83714285D02*
X165302438Y-83666666D01*
X165302438Y-83666666D02*
X165254819Y-83571428D01*
X161359580Y-84166666D02*
X161407200Y-84214285D01*
X161407200Y-84214285D02*
X161454819Y-84357142D01*
X161454819Y-84357142D02*
X161454819Y-84452380D01*
X161454819Y-84452380D02*
X161407200Y-84595237D01*
X161407200Y-84595237D02*
X161311961Y-84690475D01*
X161311961Y-84690475D02*
X161216723Y-84738094D01*
X161216723Y-84738094D02*
X161026247Y-84785713D01*
X161026247Y-84785713D02*
X160883390Y-84785713D01*
X160883390Y-84785713D02*
X160692914Y-84738094D01*
X160692914Y-84738094D02*
X160597676Y-84690475D01*
X160597676Y-84690475D02*
X160502438Y-84595237D01*
X160502438Y-84595237D02*
X160454819Y-84452380D01*
X160454819Y-84452380D02*
X160454819Y-84357142D01*
X160454819Y-84357142D02*
X160502438Y-84214285D01*
X160502438Y-84214285D02*
X160550057Y-84166666D01*
X161454819Y-83690475D02*
X161454819Y-83499999D01*
X161454819Y-83499999D02*
X161407200Y-83404761D01*
X161407200Y-83404761D02*
X161359580Y-83357142D01*
X161359580Y-83357142D02*
X161216723Y-83261904D01*
X161216723Y-83261904D02*
X161026247Y-83214285D01*
X161026247Y-83214285D02*
X160645295Y-83214285D01*
X160645295Y-83214285D02*
X160550057Y-83261904D01*
X160550057Y-83261904D02*
X160502438Y-83309523D01*
X160502438Y-83309523D02*
X160454819Y-83404761D01*
X160454819Y-83404761D02*
X160454819Y-83595237D01*
X160454819Y-83595237D02*
X160502438Y-83690475D01*
X160502438Y-83690475D02*
X160550057Y-83738094D01*
X160550057Y-83738094D02*
X160645295Y-83785713D01*
X160645295Y-83785713D02*
X160883390Y-83785713D01*
X160883390Y-83785713D02*
X160978628Y-83738094D01*
X160978628Y-83738094D02*
X161026247Y-83690475D01*
X161026247Y-83690475D02*
X161073866Y-83595237D01*
X161073866Y-83595237D02*
X161073866Y-83404761D01*
X161073866Y-83404761D02*
X161026247Y-83309523D01*
X161026247Y-83309523D02*
X160978628Y-83261904D01*
X160978628Y-83261904D02*
X160883390Y-83214285D01*
X164559580Y-84166666D02*
X164607200Y-84214285D01*
X164607200Y-84214285D02*
X164654819Y-84357142D01*
X164654819Y-84357142D02*
X164654819Y-84452380D01*
X164654819Y-84452380D02*
X164607200Y-84595237D01*
X164607200Y-84595237D02*
X164511961Y-84690475D01*
X164511961Y-84690475D02*
X164416723Y-84738094D01*
X164416723Y-84738094D02*
X164226247Y-84785713D01*
X164226247Y-84785713D02*
X164083390Y-84785713D01*
X164083390Y-84785713D02*
X163892914Y-84738094D01*
X163892914Y-84738094D02*
X163797676Y-84690475D01*
X163797676Y-84690475D02*
X163702438Y-84595237D01*
X163702438Y-84595237D02*
X163654819Y-84452380D01*
X163654819Y-84452380D02*
X163654819Y-84357142D01*
X163654819Y-84357142D02*
X163702438Y-84214285D01*
X163702438Y-84214285D02*
X163750057Y-84166666D01*
X164083390Y-83595237D02*
X164035771Y-83690475D01*
X164035771Y-83690475D02*
X163988152Y-83738094D01*
X163988152Y-83738094D02*
X163892914Y-83785713D01*
X163892914Y-83785713D02*
X163845295Y-83785713D01*
X163845295Y-83785713D02*
X163750057Y-83738094D01*
X163750057Y-83738094D02*
X163702438Y-83690475D01*
X163702438Y-83690475D02*
X163654819Y-83595237D01*
X163654819Y-83595237D02*
X163654819Y-83404761D01*
X163654819Y-83404761D02*
X163702438Y-83309523D01*
X163702438Y-83309523D02*
X163750057Y-83261904D01*
X163750057Y-83261904D02*
X163845295Y-83214285D01*
X163845295Y-83214285D02*
X163892914Y-83214285D01*
X163892914Y-83214285D02*
X163988152Y-83261904D01*
X163988152Y-83261904D02*
X164035771Y-83309523D01*
X164035771Y-83309523D02*
X164083390Y-83404761D01*
X164083390Y-83404761D02*
X164083390Y-83595237D01*
X164083390Y-83595237D02*
X164131009Y-83690475D01*
X164131009Y-83690475D02*
X164178628Y-83738094D01*
X164178628Y-83738094D02*
X164273866Y-83785713D01*
X164273866Y-83785713D02*
X164464342Y-83785713D01*
X164464342Y-83785713D02*
X164559580Y-83738094D01*
X164559580Y-83738094D02*
X164607200Y-83690475D01*
X164607200Y-83690475D02*
X164654819Y-83595237D01*
X164654819Y-83595237D02*
X164654819Y-83404761D01*
X164654819Y-83404761D02*
X164607200Y-83309523D01*
X164607200Y-83309523D02*
X164559580Y-83261904D01*
X164559580Y-83261904D02*
X164464342Y-83214285D01*
X164464342Y-83214285D02*
X164273866Y-83214285D01*
X164273866Y-83214285D02*
X164178628Y-83261904D01*
X164178628Y-83261904D02*
X164131009Y-83309523D01*
X164131009Y-83309523D02*
X164083390Y-83404761D01*
X167759580Y-84166666D02*
X167807200Y-84214285D01*
X167807200Y-84214285D02*
X167854819Y-84357142D01*
X167854819Y-84357142D02*
X167854819Y-84452380D01*
X167854819Y-84452380D02*
X167807200Y-84595237D01*
X167807200Y-84595237D02*
X167711961Y-84690475D01*
X167711961Y-84690475D02*
X167616723Y-84738094D01*
X167616723Y-84738094D02*
X167426247Y-84785713D01*
X167426247Y-84785713D02*
X167283390Y-84785713D01*
X167283390Y-84785713D02*
X167092914Y-84738094D01*
X167092914Y-84738094D02*
X166997676Y-84690475D01*
X166997676Y-84690475D02*
X166902438Y-84595237D01*
X166902438Y-84595237D02*
X166854819Y-84452380D01*
X166854819Y-84452380D02*
X166854819Y-84357142D01*
X166854819Y-84357142D02*
X166902438Y-84214285D01*
X166902438Y-84214285D02*
X166950057Y-84166666D01*
X166854819Y-83833332D02*
X166854819Y-83166666D01*
X166854819Y-83166666D02*
X167854819Y-83595237D01*
X170959580Y-84066666D02*
X171007200Y-84114285D01*
X171007200Y-84114285D02*
X171054819Y-84257142D01*
X171054819Y-84257142D02*
X171054819Y-84352380D01*
X171054819Y-84352380D02*
X171007200Y-84495237D01*
X171007200Y-84495237D02*
X170911961Y-84590475D01*
X170911961Y-84590475D02*
X170816723Y-84638094D01*
X170816723Y-84638094D02*
X170626247Y-84685713D01*
X170626247Y-84685713D02*
X170483390Y-84685713D01*
X170483390Y-84685713D02*
X170292914Y-84638094D01*
X170292914Y-84638094D02*
X170197676Y-84590475D01*
X170197676Y-84590475D02*
X170102438Y-84495237D01*
X170102438Y-84495237D02*
X170054819Y-84352380D01*
X170054819Y-84352380D02*
X170054819Y-84257142D01*
X170054819Y-84257142D02*
X170102438Y-84114285D01*
X170102438Y-84114285D02*
X170150057Y-84066666D01*
X170054819Y-83209523D02*
X170054819Y-83399999D01*
X170054819Y-83399999D02*
X170102438Y-83495237D01*
X170102438Y-83495237D02*
X170150057Y-83542856D01*
X170150057Y-83542856D02*
X170292914Y-83638094D01*
X170292914Y-83638094D02*
X170483390Y-83685713D01*
X170483390Y-83685713D02*
X170864342Y-83685713D01*
X170864342Y-83685713D02*
X170959580Y-83638094D01*
X170959580Y-83638094D02*
X171007200Y-83590475D01*
X171007200Y-83590475D02*
X171054819Y-83495237D01*
X171054819Y-83495237D02*
X171054819Y-83304761D01*
X171054819Y-83304761D02*
X171007200Y-83209523D01*
X171007200Y-83209523D02*
X170959580Y-83161904D01*
X170959580Y-83161904D02*
X170864342Y-83114285D01*
X170864342Y-83114285D02*
X170626247Y-83114285D01*
X170626247Y-83114285D02*
X170531009Y-83161904D01*
X170531009Y-83161904D02*
X170483390Y-83209523D01*
X170483390Y-83209523D02*
X170435771Y-83304761D01*
X170435771Y-83304761D02*
X170435771Y-83495237D01*
X170435771Y-83495237D02*
X170483390Y-83590475D01*
X170483390Y-83590475D02*
X170531009Y-83638094D01*
X170531009Y-83638094D02*
X170626247Y-83685713D01*
X168359580Y-63766666D02*
X168407200Y-63814285D01*
X168407200Y-63814285D02*
X168454819Y-63957142D01*
X168454819Y-63957142D02*
X168454819Y-64052380D01*
X168454819Y-64052380D02*
X168407200Y-64195237D01*
X168407200Y-64195237D02*
X168311961Y-64290475D01*
X168311961Y-64290475D02*
X168216723Y-64338094D01*
X168216723Y-64338094D02*
X168026247Y-64385713D01*
X168026247Y-64385713D02*
X167883390Y-64385713D01*
X167883390Y-64385713D02*
X167692914Y-64338094D01*
X167692914Y-64338094D02*
X167597676Y-64290475D01*
X167597676Y-64290475D02*
X167502438Y-64195237D01*
X167502438Y-64195237D02*
X167454819Y-64052380D01*
X167454819Y-64052380D02*
X167454819Y-63957142D01*
X167454819Y-63957142D02*
X167502438Y-63814285D01*
X167502438Y-63814285D02*
X167550057Y-63766666D01*
X167454819Y-62861904D02*
X167454819Y-63338094D01*
X167454819Y-63338094D02*
X167931009Y-63385713D01*
X167931009Y-63385713D02*
X167883390Y-63338094D01*
X167883390Y-63338094D02*
X167835771Y-63242856D01*
X167835771Y-63242856D02*
X167835771Y-63004761D01*
X167835771Y-63004761D02*
X167883390Y-62909523D01*
X167883390Y-62909523D02*
X167931009Y-62861904D01*
X167931009Y-62861904D02*
X168026247Y-62814285D01*
X168026247Y-62814285D02*
X168264342Y-62814285D01*
X168264342Y-62814285D02*
X168359580Y-62861904D01*
X168359580Y-62861904D02*
X168407200Y-62909523D01*
X168407200Y-62909523D02*
X168454819Y-63004761D01*
X168454819Y-63004761D02*
X168454819Y-63242856D01*
X168454819Y-63242856D02*
X168407200Y-63338094D01*
X168407200Y-63338094D02*
X168359580Y-63385713D01*
X173733333Y-67259580D02*
X173685714Y-67307200D01*
X173685714Y-67307200D02*
X173542857Y-67354819D01*
X173542857Y-67354819D02*
X173447619Y-67354819D01*
X173447619Y-67354819D02*
X173304762Y-67307200D01*
X173304762Y-67307200D02*
X173209524Y-67211961D01*
X173209524Y-67211961D02*
X173161905Y-67116723D01*
X173161905Y-67116723D02*
X173114286Y-66926247D01*
X173114286Y-66926247D02*
X173114286Y-66783390D01*
X173114286Y-66783390D02*
X173161905Y-66592914D01*
X173161905Y-66592914D02*
X173209524Y-66497676D01*
X173209524Y-66497676D02*
X173304762Y-66402438D01*
X173304762Y-66402438D02*
X173447619Y-66354819D01*
X173447619Y-66354819D02*
X173542857Y-66354819D01*
X173542857Y-66354819D02*
X173685714Y-66402438D01*
X173685714Y-66402438D02*
X173733333Y-66450057D01*
X174590476Y-66688152D02*
X174590476Y-67354819D01*
X174352381Y-66307200D02*
X174114286Y-67021485D01*
X174114286Y-67021485D02*
X174733333Y-67021485D01*
X173633333Y-68859580D02*
X173585714Y-68907200D01*
X173585714Y-68907200D02*
X173442857Y-68954819D01*
X173442857Y-68954819D02*
X173347619Y-68954819D01*
X173347619Y-68954819D02*
X173204762Y-68907200D01*
X173204762Y-68907200D02*
X173109524Y-68811961D01*
X173109524Y-68811961D02*
X173061905Y-68716723D01*
X173061905Y-68716723D02*
X173014286Y-68526247D01*
X173014286Y-68526247D02*
X173014286Y-68383390D01*
X173014286Y-68383390D02*
X173061905Y-68192914D01*
X173061905Y-68192914D02*
X173109524Y-68097676D01*
X173109524Y-68097676D02*
X173204762Y-68002438D01*
X173204762Y-68002438D02*
X173347619Y-67954819D01*
X173347619Y-67954819D02*
X173442857Y-67954819D01*
X173442857Y-67954819D02*
X173585714Y-68002438D01*
X173585714Y-68002438D02*
X173633333Y-68050057D01*
X173966667Y-67954819D02*
X174585714Y-67954819D01*
X174585714Y-67954819D02*
X174252381Y-68335771D01*
X174252381Y-68335771D02*
X174395238Y-68335771D01*
X174395238Y-68335771D02*
X174490476Y-68383390D01*
X174490476Y-68383390D02*
X174538095Y-68431009D01*
X174538095Y-68431009D02*
X174585714Y-68526247D01*
X174585714Y-68526247D02*
X174585714Y-68764342D01*
X174585714Y-68764342D02*
X174538095Y-68859580D01*
X174538095Y-68859580D02*
X174490476Y-68907200D01*
X174490476Y-68907200D02*
X174395238Y-68954819D01*
X174395238Y-68954819D02*
X174109524Y-68954819D01*
X174109524Y-68954819D02*
X174014286Y-68907200D01*
X174014286Y-68907200D02*
X173966667Y-68859580D01*
X169359580Y-84166666D02*
X169407200Y-84214285D01*
X169407200Y-84214285D02*
X169454819Y-84357142D01*
X169454819Y-84357142D02*
X169454819Y-84452380D01*
X169454819Y-84452380D02*
X169407200Y-84595237D01*
X169407200Y-84595237D02*
X169311961Y-84690475D01*
X169311961Y-84690475D02*
X169216723Y-84738094D01*
X169216723Y-84738094D02*
X169026247Y-84785713D01*
X169026247Y-84785713D02*
X168883390Y-84785713D01*
X168883390Y-84785713D02*
X168692914Y-84738094D01*
X168692914Y-84738094D02*
X168597676Y-84690475D01*
X168597676Y-84690475D02*
X168502438Y-84595237D01*
X168502438Y-84595237D02*
X168454819Y-84452380D01*
X168454819Y-84452380D02*
X168454819Y-84357142D01*
X168454819Y-84357142D02*
X168502438Y-84214285D01*
X168502438Y-84214285D02*
X168550057Y-84166666D01*
X168550057Y-83785713D02*
X168502438Y-83738094D01*
X168502438Y-83738094D02*
X168454819Y-83642856D01*
X168454819Y-83642856D02*
X168454819Y-83404761D01*
X168454819Y-83404761D02*
X168502438Y-83309523D01*
X168502438Y-83309523D02*
X168550057Y-83261904D01*
X168550057Y-83261904D02*
X168645295Y-83214285D01*
X168645295Y-83214285D02*
X168740533Y-83214285D01*
X168740533Y-83214285D02*
X168883390Y-83261904D01*
X168883390Y-83261904D02*
X169454819Y-83833332D01*
X169454819Y-83833332D02*
X169454819Y-83214285D01*
X173633333Y-70459580D02*
X173585714Y-70507200D01*
X173585714Y-70507200D02*
X173442857Y-70554819D01*
X173442857Y-70554819D02*
X173347619Y-70554819D01*
X173347619Y-70554819D02*
X173204762Y-70507200D01*
X173204762Y-70507200D02*
X173109524Y-70411961D01*
X173109524Y-70411961D02*
X173061905Y-70316723D01*
X173061905Y-70316723D02*
X173014286Y-70126247D01*
X173014286Y-70126247D02*
X173014286Y-69983390D01*
X173014286Y-69983390D02*
X173061905Y-69792914D01*
X173061905Y-69792914D02*
X173109524Y-69697676D01*
X173109524Y-69697676D02*
X173204762Y-69602438D01*
X173204762Y-69602438D02*
X173347619Y-69554819D01*
X173347619Y-69554819D02*
X173442857Y-69554819D01*
X173442857Y-69554819D02*
X173585714Y-69602438D01*
X173585714Y-69602438D02*
X173633333Y-69650057D01*
X174585714Y-70554819D02*
X174014286Y-70554819D01*
X174300000Y-70554819D02*
X174300000Y-69554819D01*
X174300000Y-69554819D02*
X174204762Y-69697676D01*
X174204762Y-69697676D02*
X174109524Y-69792914D01*
X174109524Y-69792914D02*
X174014286Y-69840533D01*
D12*
%TO.C,U2*%
X162390000Y-75610000D02*
X162390000Y-75135000D01*
X162865000Y-70390000D02*
X162390000Y-70390000D01*
X162865000Y-75610000D02*
X162390000Y-75610000D01*
X167135000Y-70390000D02*
X167610000Y-70390000D01*
X167135000Y-75610000D02*
X167610000Y-75610000D01*
X167610000Y-70390000D02*
X167610000Y-70865000D01*
X167610000Y-75610000D02*
X167610000Y-75135000D01*
%TO.C,J2*%
X177825000Y-77410000D02*
X179155000Y-77410000D01*
X179155000Y-77410000D02*
X179155000Y-78740000D01*
X176495000Y-80010000D02*
X176495000Y-87690000D01*
X176495000Y-80010000D02*
X179155000Y-80010000D01*
X179155000Y-80010000D02*
X179155000Y-87690000D01*
X176495000Y-87690000D02*
X179155000Y-87690000D01*
%TO.C,J1*%
X179130000Y-62170000D02*
X176470000Y-62170000D01*
X176470000Y-69850000D02*
X176470000Y-62170000D01*
X179130000Y-69850000D02*
X176470000Y-69850000D01*
X179130000Y-69850000D02*
X179130000Y-62170000D01*
X176470000Y-72450000D02*
X176470000Y-71120000D01*
X177800000Y-72450000D02*
X176470000Y-72450000D01*
%TO.C,R1*%
X165777500Y-66654724D02*
X165777500Y-66145276D01*
X166822500Y-66654724D02*
X166822500Y-66145276D01*
%TO.C,L1*%
X158871267Y-67790000D02*
X158528733Y-67790000D01*
X158871267Y-68810000D02*
X158528733Y-68810000D01*
%TO.C,JP12*%
X135100000Y-54500000D02*
X133700000Y-54500000D01*
X133700000Y-52500000D02*
X135100000Y-52500000D01*
X133000000Y-53800000D02*
X133000000Y-53200000D01*
X135800000Y-53200000D02*
X135800000Y-53800000D01*
X133700000Y-52500000D02*
G75*
G03*
X133000000Y-53200000I-1J-699999D01*
G01*
X133000000Y-53800000D02*
G75*
G03*
X133700000Y-54500000I699999J-1D01*
G01*
X135100000Y-54500000D02*
G75*
G03*
X135800000Y-53800000I0J700000D01*
G01*
X135800000Y-53200000D02*
G75*
G03*
X135100000Y-52500000I-700000J0D01*
G01*
%TO.C,JP11*%
X147700000Y-84500000D02*
X146300000Y-84500000D01*
X146300000Y-82500000D02*
X147700000Y-82500000D01*
X145600000Y-83800000D02*
X145600000Y-83200000D01*
X148400000Y-83200000D02*
X148400000Y-83800000D01*
X146300000Y-82500000D02*
G75*
G03*
X145600000Y-83200000I-1J-699999D01*
G01*
X145600000Y-83800000D02*
G75*
G03*
X146300000Y-84500000I699999J-1D01*
G01*
X147700000Y-84500000D02*
G75*
G03*
X148400000Y-83800000I0J700000D01*
G01*
X148400000Y-83200000D02*
G75*
G03*
X147700000Y-82500000I-700000J0D01*
G01*
%TO.C,JP10*%
X147700000Y-87300000D02*
X146300000Y-87300000D01*
X146300000Y-85300000D02*
X147700000Y-85300000D01*
X145600000Y-86600000D02*
X145600000Y-86000000D01*
X148400000Y-86000000D02*
X148400000Y-86600000D01*
X146300000Y-85300000D02*
G75*
G03*
X145600000Y-86000000I-1J-699999D01*
G01*
X145600000Y-86600000D02*
G75*
G03*
X146300000Y-87300000I699999J-1D01*
G01*
X147700000Y-87300000D02*
G75*
G03*
X148400000Y-86600000I0J700000D01*
G01*
X148400000Y-86000000D02*
G75*
G03*
X147700000Y-85300000I-700000J0D01*
G01*
%TO.C,JP9*%
X147700000Y-90100000D02*
X146300000Y-90100000D01*
X146300000Y-88100000D02*
X147700000Y-88100000D01*
X145600000Y-89400000D02*
X145600000Y-88800000D01*
X148400000Y-88800000D02*
X148400000Y-89400000D01*
X146300000Y-88100000D02*
G75*
G03*
X145600000Y-88800000I-1J-699999D01*
G01*
X145600000Y-89400000D02*
G75*
G03*
X146300000Y-90100000I699999J-1D01*
G01*
X147700000Y-90100000D02*
G75*
G03*
X148400000Y-89400000I0J700000D01*
G01*
X148400000Y-88800000D02*
G75*
G03*
X147700000Y-88100000I-700000J0D01*
G01*
%TO.C,JP8*%
X147700000Y-92900000D02*
X146300000Y-92900000D01*
X146300000Y-90900000D02*
X147700000Y-90900000D01*
X145600000Y-92200000D02*
X145600000Y-91600000D01*
X148400000Y-91600000D02*
X148400000Y-92200000D01*
X146300000Y-90900000D02*
G75*
G03*
X145600000Y-91600000I-1J-699999D01*
G01*
X145600000Y-92200000D02*
G75*
G03*
X146300000Y-92900000I699999J-1D01*
G01*
X147700000Y-92900000D02*
G75*
G03*
X148400000Y-92200000I0J700000D01*
G01*
X148400000Y-91600000D02*
G75*
G03*
X147700000Y-90900000I-700000J0D01*
G01*
%TO.C,JP7*%
X147700000Y-95800000D02*
X146300000Y-95800000D01*
X146300000Y-93800000D02*
X147700000Y-93800000D01*
X145600000Y-95100000D02*
X145600000Y-94500000D01*
X148400000Y-94500000D02*
X148400000Y-95100000D01*
X146300000Y-93800000D02*
G75*
G03*
X145600000Y-94500000I-1J-699999D01*
G01*
X145600000Y-95100000D02*
G75*
G03*
X146300000Y-95800000I699999J-1D01*
G01*
X147700000Y-95800000D02*
G75*
G03*
X148400000Y-95100000I0J700000D01*
G01*
X148400000Y-94500000D02*
G75*
G03*
X147700000Y-93800000I-700000J0D01*
G01*
%TO.C,JP6*%
X181300000Y-92500000D02*
X179900000Y-92500000D01*
X179900000Y-90500000D02*
X181300000Y-90500000D01*
X179200000Y-91800000D02*
X179200000Y-91200000D01*
X182000000Y-91200000D02*
X182000000Y-91800000D01*
X179900000Y-90500000D02*
G75*
G03*
X179200000Y-91200000I-1J-699999D01*
G01*
X179200000Y-91800000D02*
G75*
G03*
X179900000Y-92500000I699999J-1D01*
G01*
X181300000Y-92500000D02*
G75*
G03*
X182000000Y-91800000I0J700000D01*
G01*
X182000000Y-91200000D02*
G75*
G03*
X181300000Y-90500000I-700000J0D01*
G01*
%TO.C,JP5*%
X193700000Y-69600000D02*
X192300000Y-69600000D01*
X192300000Y-67600000D02*
X193700000Y-67600000D01*
X191600000Y-68900000D02*
X191600000Y-68300000D01*
X194400000Y-68300000D02*
X194400000Y-68900000D01*
X192300000Y-67600000D02*
G75*
G03*
X191600000Y-68300000I-1J-699999D01*
G01*
X191600000Y-68900000D02*
G75*
G03*
X192300000Y-69600000I699999J-1D01*
G01*
X193700000Y-69600000D02*
G75*
G03*
X194400000Y-68900000I0J700000D01*
G01*
X194400000Y-68300000D02*
G75*
G03*
X193700000Y-67600000I-700000J0D01*
G01*
%TO.C,JP4*%
X181200000Y-59400000D02*
X179800000Y-59400000D01*
X179800000Y-57400000D02*
X181200000Y-57400000D01*
X179100000Y-58700000D02*
X179100000Y-58100000D01*
X181900000Y-58100000D02*
X181900000Y-58700000D01*
X179800000Y-57400000D02*
G75*
G03*
X179100000Y-58100000I-1J-699999D01*
G01*
X179100000Y-58700000D02*
G75*
G03*
X179800000Y-59400000I699999J-1D01*
G01*
X181200000Y-59400000D02*
G75*
G03*
X181900000Y-58700000I0J700000D01*
G01*
X181900000Y-58100000D02*
G75*
G03*
X181200000Y-57400000I-700000J0D01*
G01*
%TO.C,JP3*%
X193700000Y-46700000D02*
X192300000Y-46700000D01*
X192300000Y-44700000D02*
X193700000Y-44700000D01*
X191600000Y-46000000D02*
X191600000Y-45400000D01*
X194400000Y-45400000D02*
X194400000Y-46000000D01*
X192300000Y-44700000D02*
G75*
G03*
X191600000Y-45400000I-1J-699999D01*
G01*
X191600000Y-46000000D02*
G75*
G03*
X192300000Y-46700000I699999J-1D01*
G01*
X193700000Y-46700000D02*
G75*
G03*
X194400000Y-46000000I0J700000D01*
G01*
X194400000Y-45400000D02*
G75*
G03*
X193700000Y-44700000I-700000J0D01*
G01*
%TO.C,JP2*%
X181200000Y-46800000D02*
X179800000Y-46800000D01*
X179800000Y-44800000D02*
X181200000Y-44800000D01*
X179100000Y-46100000D02*
X179100000Y-45500000D01*
X181900000Y-45500000D02*
X181900000Y-46100000D01*
X179800000Y-44800000D02*
G75*
G03*
X179100000Y-45500000I-1J-699999D01*
G01*
X179100000Y-46100000D02*
G75*
G03*
X179800000Y-46800000I699999J-1D01*
G01*
X181200000Y-46800000D02*
G75*
G03*
X181900000Y-46100000I0J700000D01*
G01*
X181900000Y-45500000D02*
G75*
G03*
X181200000Y-44800000I-700000J0D01*
G01*
%TO.C,JP1*%
X193700000Y-51800000D02*
X192300000Y-51800000D01*
X192300000Y-49800000D02*
X193700000Y-49800000D01*
X191600000Y-51100000D02*
X191600000Y-50500000D01*
X194400000Y-50500000D02*
X194400000Y-51100000D01*
X192300000Y-49800000D02*
G75*
G03*
X191600000Y-50500000I-1J-699999D01*
G01*
X191600000Y-51100000D02*
G75*
G03*
X192300000Y-51800000I699999J-1D01*
G01*
X193700000Y-51800000D02*
G75*
G03*
X194400000Y-51100000I0J700000D01*
G01*
X194400000Y-50500000D02*
G75*
G03*
X193700000Y-49800000I-700000J0D01*
G01*
%TO.C,J10*%
X184090000Y-63500000D02*
X184090000Y-62170000D01*
X186690000Y-62170000D02*
X189290000Y-62170000D01*
X184090000Y-62170000D02*
X185420000Y-62170000D01*
X184090000Y-64770000D02*
X184090000Y-105470000D01*
X184090000Y-105470000D02*
X189290000Y-105470000D01*
X186690000Y-64770000D02*
X186690000Y-62170000D01*
X189290000Y-62170000D02*
X189290000Y-105470000D01*
X184090000Y-64770000D02*
X186690000Y-64770000D01*
%TO.C,J7*%
X189290000Y-34230000D02*
X189290000Y-59750000D01*
X184090000Y-36830000D02*
X186690000Y-36830000D01*
X184090000Y-35560000D02*
X184090000Y-34230000D01*
X186690000Y-34230000D02*
X189290000Y-34230000D01*
X184090000Y-59750000D02*
X189290000Y-59750000D01*
X184090000Y-34230000D02*
X185420000Y-34230000D01*
X184090000Y-36830000D02*
X184090000Y-59750000D01*
X186690000Y-36830000D02*
X186690000Y-34230000D01*
%TO.C,J8*%
X140970000Y-46990000D02*
X140970000Y-44390000D01*
X138370000Y-46990000D02*
X138370000Y-64830000D01*
X143570000Y-44390000D02*
X143570000Y-64830000D01*
X138370000Y-46990000D02*
X140970000Y-46990000D01*
X138370000Y-64830000D02*
X143570000Y-64830000D01*
X140970000Y-44390000D02*
X143570000Y-44390000D01*
X138370000Y-45720000D02*
X138370000Y-44390000D01*
X138370000Y-44390000D02*
X139700000Y-44390000D01*
%TO.C,J9*%
X138370000Y-67250000D02*
X139700000Y-67250000D01*
X138370000Y-69850000D02*
X140970000Y-69850000D01*
X140970000Y-69850000D02*
X140970000Y-67250000D01*
X140970000Y-67250000D02*
X143570000Y-67250000D01*
X138370000Y-105470000D02*
X143570000Y-105470000D01*
X138370000Y-68580000D02*
X138370000Y-67250000D01*
X143570000Y-67250000D02*
X143570000Y-105470000D01*
X138370000Y-69850000D02*
X138370000Y-105470000D01*
%TO.C,C24*%
X171346267Y-71190000D02*
X171053733Y-71190000D01*
X171346267Y-72210000D02*
X171053733Y-72210000D01*
%TO.C,C23*%
X171346267Y-72790000D02*
X171053733Y-72790000D01*
X171346267Y-73810000D02*
X171053733Y-73810000D01*
%TO.C,C22*%
X171346267Y-74590000D02*
X171053733Y-74590000D01*
X171346267Y-75610000D02*
X171053733Y-75610000D01*
%TO.C,C19*%
X171346267Y-76290000D02*
X171053733Y-76290000D01*
X171346267Y-77310000D02*
X171053733Y-77310000D01*
%TO.C,C18*%
X158553733Y-69490000D02*
X158846267Y-69490000D01*
X158553733Y-70510000D02*
X158846267Y-70510000D01*
%TO.C,C17*%
X158553733Y-71190000D02*
X158846267Y-71190000D01*
X158553733Y-72210000D02*
X158846267Y-72210000D01*
%TO.C,C16*%
X171053733Y-78910000D02*
X171346267Y-78910000D01*
X171053733Y-77890000D02*
X171346267Y-77890000D01*
%TO.C,C15*%
X158846267Y-73810000D02*
X158553733Y-73810000D01*
X158846267Y-72790000D02*
X158553733Y-72790000D01*
%TO.C,C12*%
X159910000Y-81153733D02*
X159910000Y-81446267D01*
X158890000Y-81153733D02*
X158890000Y-81446267D01*
%TO.C,C11*%
X163110000Y-81153733D02*
X163110000Y-81446267D01*
X162090000Y-81153733D02*
X162090000Y-81446267D01*
%TO.C,C10*%
X166310000Y-81153733D02*
X166310000Y-81446267D01*
X165290000Y-81153733D02*
X165290000Y-81446267D01*
%TO.C,C9*%
X161510000Y-81153733D02*
X161510000Y-81446267D01*
X160490000Y-81153733D02*
X160490000Y-81446267D01*
%TO.C,C8*%
X164710000Y-81153733D02*
X164710000Y-81446267D01*
X163690000Y-81153733D02*
X163690000Y-81446267D01*
%TO.C,C7*%
X167910000Y-81153733D02*
X167910000Y-81446267D01*
X166890000Y-81153733D02*
X166890000Y-81446267D01*
%TO.C,C6*%
X171110000Y-81153733D02*
X171110000Y-81446267D01*
X170090000Y-81153733D02*
X170090000Y-81446267D01*
%TO.C,C5*%
X168510000Y-66253733D02*
X168510000Y-66546267D01*
X167490000Y-66253733D02*
X167490000Y-66546267D01*
%TO.C,C4*%
X171346267Y-66390000D02*
X171053733Y-66390000D01*
X171346267Y-67410000D02*
X171053733Y-67410000D01*
%TO.C,C3*%
X171346267Y-67990000D02*
X171053733Y-67990000D01*
X171346267Y-69010000D02*
X171053733Y-69010000D01*
%TO.C,C2*%
X169510000Y-81153733D02*
X169510000Y-81446267D01*
X168490000Y-81153733D02*
X168490000Y-81446267D01*
%TO.C,C1*%
X171346267Y-69590000D02*
X171053733Y-69590000D01*
X171346267Y-70610000D02*
X171053733Y-70610000D01*
%TD*%
M02*
