M48
; DRILL file {KiCad 7.0.7} date Wed Aug 23 14:17:53 2023
; FORMAT={-:-/ absolute / inch / decimal}
; #@! TF.CreationDate,2023-08-23T14:17:53+01:00
; #@! TF.GenerationSoftware,Kicad,Pcbnew,7.0.7
; #@! TF.FileFunction,Plated,1,2,PTH
FMAT,2
INCH
; #@! TA.AperFunction,Plated,PTH,ComponentDrill
T1C0.0118
; #@! TA.AperFunction,Plated,PTH,ViaDrill
T2C0.0157
; #@! TA.AperFunction,Plated,PTH,ComponentDrill
T3C0.0394
%
G90
G05
T1
X6.4587Y-2.8922
X6.4587Y-2.9316
X6.4587Y-2.971
X6.498Y-2.8922
X6.498Y-2.9316
X6.498Y-2.971
X6.5374Y-2.8922
X6.5374Y-2.9316
X6.5374Y-2.971
T2
X5.1339Y-3.8189
X5.1339Y-4.4173
X5.1378Y-5.0354
X5.1457Y-3.2244
X5.1654Y-2.752
X5.248Y-3.5354
X5.2913Y-3.3307
X5.3425Y-1.7756
X5.3819Y-4.0236
X5.3819Y-4.4291
X5.3858Y-4.811
X5.3898Y-2.7323
X5.3898Y-3.8228
X5.3937Y-4.2126
X5.5157Y-5.0591
X5.5512Y-3.2795
X5.6102Y-1.7205
X5.626Y-2.3937
X5.6969Y-4.4764
X5.7323Y-2.8268
X5.7756Y-2.2323
X5.7795Y-2.0512
X5.7913Y-1.9528
X5.7953Y-1.4252
X5.7953Y-1.8228
X5.7992Y-4.8228
X5.8386Y-3.3701
X5.8504Y-3.8819
X5.8583Y-2.8583
X5.8583Y-3.5827
X5.8622Y-2.5039
X5.9252Y-4.2598
X5.9646Y-3.0591
X5.9685Y-3.315
X5.9724Y-4.5866
X5.9764Y-2.437
X5.9764Y-4.811
X5.9961Y-5.063
X6.0079Y-2.874
X6.0079Y-4.0236
X6.0315Y-4.9449
X6.0472Y-3.4449
X6.0512Y-1.7835
X6.0551Y-2.748
X6.0787Y-4.9055
X6.0827Y-1.5709
X6.0866Y-3.8031
X6.0984Y-3.1732
X6.1063Y-3.6024
X6.1063Y-4.1339
X6.128Y-2.9788
X6.1457Y-4.9173
X6.1535Y-2.7441
X6.1614Y-4.6929
X6.1654Y-2.6299
X6.1654Y-4.4252
X6.1693Y-2.9055
X6.1929Y-2.126
X6.1969Y-3.3031
X6.2087Y-3.7953
X6.2244Y-4.685
X6.2283Y-1.5748
X6.248Y-3.0394
X6.2598Y-1.7244
X6.311Y-2.2953
X6.3307Y-3.5591
X6.3346Y-4.4213
X6.3386Y-4.9173
X6.3386Y-5.063
X6.3406Y-2.8627
X6.3445Y-2.9198
X6.3524Y-2.8095
X6.3543Y-1.311
X6.3583Y-4.6732
X6.3661Y-1.685
X6.3661Y-1.878
X6.374Y-3.7992
X6.374Y-4.2953
X6.4114Y-3.3568
X6.4331Y-4.2323
X6.4606Y-4.8425
X6.4803Y-4.3661
X6.4803Y-4.7047
X6.4843Y-4.4331
X6.5031Y-2.6212
X6.5118Y-4.9252
X6.5453Y-3.3568
X6.5709Y-1.874
X6.5748Y-4.7795
X6.5827Y-3.5866
X6.5906Y-4.9409
X6.5945Y-4.2283
X6.6102Y-4.6142
X6.6181Y-4.3937
X6.626Y-2.2913
X6.6299Y-4.7598
X6.6437Y-2.9513
X6.6496Y-3.3622
X6.6654Y-4.9409
X6.6693Y-1.7323
X6.689Y-3.7992
X6.7047Y-3.5591
X6.7087Y-1.5512
X6.7402Y-4.8071
X6.748Y-2.126
X6.7638Y-2.4055
X6.7717Y-1.6339
X6.7992Y-4.5827
X6.8031Y-3.2244
X6.8268Y-2.9409
X6.8287Y-3.0143
X6.8543Y-1.3031
X6.8583Y-3.7992
X6.8661Y-4.4016
X6.8898Y-3.563
X6.8967Y-2.9759
X6.9055Y-2.5787
X6.9213Y-2.2638
X6.9291Y-2.8819
X6.9567Y-1.685
X6.9961Y-4.0354
X7.0039Y-4.2598
X7.0315Y-4.5787
X7.0512Y-3.6732
X7.0669Y-3.1693
X7.0748Y-4.3976
X7.1142Y-4.8031
X7.1299Y-4.9528
X7.1378Y-2.437
X7.1417Y-4.5906
X7.1693Y-1.5433
X7.1772Y-1.937
X7.185Y-4.7362
X7.1969Y-3.0354
X7.2047Y-2.8268
X7.2047Y-4.2165
X7.2165Y-3.8622
X7.2205Y-3.2047
X7.3701Y-1.2953
X7.4528Y-1.5512
X7.4685Y-2.7323
X7.4803Y-3.1732
X7.4921Y-2.622
X7.5Y-3.3307
X7.5Y-3.4291
X7.5039Y-4.4213
X7.5079Y-4.6339
X7.5079Y-4.8465
X7.5394Y-1.937
X7.5787Y-1.7283
X7.5827Y-2.2874
X7.5984Y-4.3976
X7.6024Y-3.8858
X7.6417Y-3.0039
X7.6417Y-4.9055
X7.6969Y-2.7047
X7.748Y-3.1102
X7.8031Y-1.4291
X7.8307Y-3.4331
X7.8661Y-3.0433
X7.8701Y-2.6417
X7.874Y-1.7638
X7.874Y-2.2008
T3
X5.3819Y-2.2244
X5.4705Y-1.8809
X5.5Y-2.4811
X5.5Y-2.5811
X5.5Y-2.6811
X5.5Y-2.7811
X5.5Y-2.8811
X5.5Y-2.9811
X5.5Y-3.0811
X5.5Y-3.1811
X5.5Y-3.3811
X5.5Y-3.4811
X5.5Y-3.5811
X5.5Y-3.6811
X5.5Y-3.7811
X5.5Y-3.8811
X5.5Y-3.9811
X5.5Y-4.0811
X5.5Y-4.1811
X5.5Y-4.2811
X5.5Y-4.3811
X5.5Y-4.4811
X5.5Y-4.5811
X5.5Y-4.6811
X5.5Y-4.7811
X5.5705Y-1.8809
X5.6Y-2.4811
X5.6Y-2.5811
X5.6Y-2.6811
X5.6Y-2.7811
X5.6Y-2.8811
X5.6Y-2.9811
X5.6Y-3.0811
X5.6Y-3.1811
X5.6Y-3.3811
X5.6Y-3.4811
X5.6Y-3.5811
X5.6Y-3.6811
X5.6Y-3.7811
X5.6Y-3.8811
X5.6Y-3.9811
X5.6Y-4.0811
X5.6Y-4.1811
X5.6Y-4.2811
X5.6Y-4.3811
X5.6Y-4.4811
X5.6Y-4.5811
X5.6Y-4.6811
X5.6Y-4.7811
X5.6102Y-2.2244
X6.3181Y-1.5915
X6.3614Y-2.3947
X6.3679Y-1.7805
X6.385Y-4.1102
X6.4181Y-1.5915
X6.4614Y-2.3947
X6.4679Y-1.7805
X6.485Y-4.1102
X6.5181Y-1.5915
X6.5614Y-2.3947
X6.5679Y-1.7805
X6.585Y-4.1102
X6.6181Y-1.5915
X6.6614Y-2.3947
X6.685Y-4.1102
X7.3Y-2.0811
X7.3Y-2.1811
X7.3Y-2.2811
X7.3Y-2.3811
X7.3Y-2.4811
X7.3Y-2.5811
X7.3Y-2.6811
X7.3Y-2.7811
X7.3Y-2.8811
X7.3Y-2.9811
X7.3Y-3.1811
X7.3Y-3.2811
X7.3Y-3.3811
X7.3Y-3.4811
X7.3Y-3.5811
X7.3Y-3.6811
X7.3Y-3.7811
X7.3Y-3.8811
X7.3Y-3.9811
X7.3Y-4.0811
X7.3Y-4.1811
X7.3Y-4.2811
X7.3Y-4.3811
X7.3Y-4.4811
X7.3Y-4.5811
X7.3Y-4.6811
X7.3Y-4.7811
X7.4Y-2.0811
X7.4Y-2.1811
X7.4Y-2.2811
X7.4Y-2.3811
X7.4Y-2.4811
X7.4Y-2.5811
X7.4Y-2.6811
X7.4Y-2.7811
X7.4Y-2.8811
X7.4Y-2.9811
X7.4Y-3.1811
X7.4Y-3.2811
X7.4Y-3.3811
X7.4Y-3.4811
X7.4Y-3.5811
X7.4Y-3.6811
X7.4Y-3.7811
X7.4Y-3.8811
X7.4Y-3.9811
X7.4Y-4.0811
X7.4Y-4.1811
X7.4Y-4.2811
X7.4Y-4.3811
X7.4Y-4.4811
X7.4Y-4.5811
X7.4Y-4.6811
X7.4Y-4.7811
T0
M30
