%TF.GenerationSoftware,KiCad,Pcbnew,7.0.6*%
%TF.CreationDate,2023-08-01T18:28:40+01:00*%
%TF.ProjectId,AK4619_DevBoard,414b3436-3139-45f4-9465-76426f617264,rev?*%
%TF.SameCoordinates,Original*%
%TF.FileFunction,Copper,L1,Top*%
%TF.FilePolarity,Positive*%
%FSLAX46Y46*%
G04 Gerber Fmt 4.6, Leading zero omitted, Abs format (unit mm)*
G04 Created by KiCad (PCBNEW 7.0.6) date 2023-08-01 18:28:40*
%MOMM*%
%LPD*%
G01*
G04 APERTURE LIST*
G04 Aperture macros list*
%AMRoundRect*
0 Rectangle with rounded corners*
0 $1 Rounding radius*
0 $2 $3 $4 $5 $6 $7 $8 $9 X,Y pos of 4 corners*
0 Add a 4 corners polygon primitive as box body*
4,1,4,$2,$3,$4,$5,$6,$7,$8,$9,$2,$3,0*
0 Add four circle primitives for the rounded corners*
1,1,$1+$1,$2,$3*
1,1,$1+$1,$4,$5*
1,1,$1+$1,$6,$7*
1,1,$1+$1,$8,$9*
0 Add four rect primitives between the rounded corners*
20,1,$1+$1,$2,$3,$4,$5,0*
20,1,$1+$1,$4,$5,$6,$7,0*
20,1,$1+$1,$6,$7,$8,$9,0*
20,1,$1+$1,$8,$9,$2,$3,0*%
%AMFreePoly0*
4,1,19,0.500000,-0.750000,0.000000,-0.750000,0.000000,-0.744911,-0.071157,-0.744911,-0.207708,-0.704816,-0.327430,-0.627875,-0.420627,-0.520320,-0.479746,-0.390866,-0.500000,-0.250000,-0.500000,0.250000,-0.479746,0.390866,-0.420627,0.520320,-0.327430,0.627875,-0.207708,0.704816,-0.071157,0.744911,0.000000,0.744911,0.000000,0.750000,0.500000,0.750000,0.500000,-0.750000,0.500000,-0.750000,
$1*%
%AMFreePoly1*
4,1,19,0.000000,0.744911,0.071157,0.744911,0.207708,0.704816,0.327430,0.627875,0.420627,0.520320,0.479746,0.390866,0.500000,0.250000,0.500000,-0.250000,0.479746,-0.390866,0.420627,-0.520320,0.327430,-0.627875,0.207708,-0.704816,0.071157,-0.744911,0.000000,-0.744911,0.000000,-0.750000,-0.500000,-0.750000,-0.500000,0.750000,0.000000,0.750000,0.000000,0.744911,0.000000,0.744911,
$1*%
G04 Aperture macros list end*
%TA.AperFunction,SMDPad,CuDef*%
%ADD10RoundRect,0.062500X-0.375000X-0.062500X0.375000X-0.062500X0.375000X0.062500X-0.375000X0.062500X0*%
%TD*%
%TA.AperFunction,SMDPad,CuDef*%
%ADD11RoundRect,0.062500X-0.062500X-0.375000X0.062500X-0.375000X0.062500X0.375000X-0.062500X0.375000X0*%
%TD*%
%TA.AperFunction,ComponentPad*%
%ADD12C,0.500000*%
%TD*%
%TA.AperFunction,SMDPad,CuDef*%
%ADD13RoundRect,0.100000X-1.450000X-1.450000X1.450000X-1.450000X1.450000X1.450000X-1.450000X1.450000X0*%
%TD*%
%TA.AperFunction,ComponentPad*%
%ADD14C,1.700000*%
%TD*%
%TA.AperFunction,ComponentPad*%
%ADD15R,1.700000X1.700000*%
%TD*%
%TA.AperFunction,ComponentPad*%
%ADD16O,1.700000X1.700000*%
%TD*%
%TA.AperFunction,SMDPad,CuDef*%
%ADD17RoundRect,0.237500X0.237500X-0.250000X0.237500X0.250000X-0.237500X0.250000X-0.237500X-0.250000X0*%
%TD*%
%TA.AperFunction,SMDPad,CuDef*%
%ADD18RoundRect,0.237500X0.287500X0.237500X-0.287500X0.237500X-0.287500X-0.237500X0.287500X-0.237500X0*%
%TD*%
%TA.AperFunction,SMDPad,CuDef*%
%ADD19FreePoly0,0.000000*%
%TD*%
%TA.AperFunction,SMDPad,CuDef*%
%ADD20FreePoly1,0.000000*%
%TD*%
%TA.AperFunction,SMDPad,CuDef*%
%ADD21RoundRect,0.237500X0.300000X0.237500X-0.300000X0.237500X-0.300000X-0.237500X0.300000X-0.237500X0*%
%TD*%
%TA.AperFunction,SMDPad,CuDef*%
%ADD22RoundRect,0.237500X-0.300000X-0.237500X0.300000X-0.237500X0.300000X0.237500X-0.300000X0.237500X0*%
%TD*%
%TA.AperFunction,SMDPad,CuDef*%
%ADD23RoundRect,0.237500X-0.237500X0.300000X-0.237500X-0.300000X0.237500X-0.300000X0.237500X0.300000X0*%
%TD*%
%TA.AperFunction,ViaPad*%
%ADD24C,0.800000*%
%TD*%
%TA.AperFunction,Conductor*%
%ADD25C,0.250000*%
%TD*%
%TA.AperFunction,Conductor*%
%ADD26C,0.300000*%
%TD*%
G04 APERTURE END LIST*
%TA.AperFunction,EtchedComponent*%
%TO.C,JP12*%
G36*
X134650000Y-53800000D02*
G01*
X134150000Y-53800000D01*
X134150000Y-53200000D01*
X134650000Y-53200000D01*
X134650000Y-53800000D01*
G37*
%TD.AperFunction*%
%TA.AperFunction,EtchedComponent*%
%TO.C,JP11*%
G36*
X147250000Y-83800000D02*
G01*
X146750000Y-83800000D01*
X146750000Y-83200000D01*
X147250000Y-83200000D01*
X147250000Y-83800000D01*
G37*
%TD.AperFunction*%
%TA.AperFunction,EtchedComponent*%
%TO.C,JP10*%
G36*
X147250000Y-86600000D02*
G01*
X146750000Y-86600000D01*
X146750000Y-86000000D01*
X147250000Y-86000000D01*
X147250000Y-86600000D01*
G37*
%TD.AperFunction*%
%TA.AperFunction,EtchedComponent*%
%TO.C,JP9*%
G36*
X147250000Y-89400000D02*
G01*
X146750000Y-89400000D01*
X146750000Y-88800000D01*
X147250000Y-88800000D01*
X147250000Y-89400000D01*
G37*
%TD.AperFunction*%
%TA.AperFunction,EtchedComponent*%
%TO.C,JP8*%
G36*
X147250000Y-92200000D02*
G01*
X146750000Y-92200000D01*
X146750000Y-91600000D01*
X147250000Y-91600000D01*
X147250000Y-92200000D01*
G37*
%TD.AperFunction*%
%TA.AperFunction,EtchedComponent*%
%TO.C,JP7*%
G36*
X147250000Y-95100000D02*
G01*
X146750000Y-95100000D01*
X146750000Y-94500000D01*
X147250000Y-94500000D01*
X147250000Y-95100000D01*
G37*
%TD.AperFunction*%
%TA.AperFunction,EtchedComponent*%
%TO.C,JP6*%
G36*
X180850000Y-91800000D02*
G01*
X180350000Y-91800000D01*
X180350000Y-91200000D01*
X180850000Y-91200000D01*
X180850000Y-91800000D01*
G37*
%TD.AperFunction*%
%TA.AperFunction,EtchedComponent*%
%TO.C,JP5*%
G36*
X193250000Y-68900000D02*
G01*
X192750000Y-68900000D01*
X192750000Y-68300000D01*
X193250000Y-68300000D01*
X193250000Y-68900000D01*
G37*
%TD.AperFunction*%
%TA.AperFunction,EtchedComponent*%
%TO.C,JP4*%
G36*
X180750000Y-58700000D02*
G01*
X180250000Y-58700000D01*
X180250000Y-58100000D01*
X180750000Y-58100000D01*
X180750000Y-58700000D01*
G37*
%TD.AperFunction*%
%TA.AperFunction,EtchedComponent*%
%TO.C,JP3*%
G36*
X193250000Y-46000000D02*
G01*
X192750000Y-46000000D01*
X192750000Y-45400000D01*
X193250000Y-45400000D01*
X193250000Y-46000000D01*
G37*
%TD.AperFunction*%
%TA.AperFunction,EtchedComponent*%
%TO.C,JP2*%
G36*
X180750000Y-46100000D02*
G01*
X180250000Y-46100000D01*
X180250000Y-45500000D01*
X180750000Y-45500000D01*
X180750000Y-46100000D01*
G37*
%TD.AperFunction*%
%TA.AperFunction,EtchedComponent*%
%TO.C,JP1*%
G36*
X193250000Y-51100000D02*
G01*
X192750000Y-51100000D01*
X192750000Y-50500000D01*
X193250000Y-50500000D01*
X193250000Y-51100000D01*
G37*
%TD.AperFunction*%
%TD*%
D10*
%TO.P,U2,1,SDIN1*%
%TO.N,/SAI1_SD_A*%
X162562500Y-71250000D03*
%TO.P,U2,2,SDIN2*%
%TO.N,/SAI1_SD_B*%
X162562500Y-71750000D03*
%TO.P,U2,3,TVDD*%
%TO.N,+3.3V*%
X162562500Y-72250000D03*
%TO.P,U2,4,VSS2*%
%TO.N,GND*%
X162562500Y-72750000D03*
%TO.P,U2,5,AVDRV*%
%TO.N,Net-(U2-AVDRV)*%
X162562500Y-73250000D03*
%TO.P,U2,6,LRCK*%
%TO.N,/SAI1_FS_A*%
X162562500Y-73750000D03*
%TO.P,U2,7,BICK*%
%TO.N,/SAI1_SCK_A*%
X162562500Y-74250000D03*
%TO.P,U2,8,MCLK*%
%TO.N,/SAI1_MCLK_A*%
X162562500Y-74750000D03*
D11*
%TO.P,U2,9,IN4N/AIN5R/GND6R*%
%TO.N,Net-(U2-IN4N{slash}AIN5R{slash}GND6R)*%
X163250000Y-75437500D03*
%TO.P,U2,10,IN4P/AIN4R/AIN6R*%
%TO.N,Net-(U2-IN4P{slash}AIN4R{slash}AIN6R)*%
X163750000Y-75437500D03*
%TO.P,U2,11,IN3N/AIN5L/GND6L*%
%TO.N,Net-(U2-IN3N{slash}AIN5L{slash}GND6L)*%
X164250000Y-75437500D03*
%TO.P,U2,12,IN3P/AIN4L/AIN6L*%
%TO.N,Net-(U2-IN3P{slash}AIN4L{slash}AIN6L)*%
X164750000Y-75437500D03*
%TO.P,U2,13,IN2N/AIN2R/GND3R*%
%TO.N,Net-(U2-IN2N{slash}AIN2R{slash}GND3R)*%
X165250000Y-75437500D03*
%TO.P,U2,14,IN2P/AIN1R/AIN3R*%
%TO.N,Net-(U2-IN2P{slash}AIN1R{slash}AIN3R)*%
X165750000Y-75437500D03*
%TO.P,U2,15,IN1N/AIN2L/GND3L*%
%TO.N,Net-(U2-IN1N{slash}AIN2L{slash}GND3L)*%
X166250000Y-75437500D03*
%TO.P,U2,16,IN1P/AIN1L/AIN3L*%
%TO.N,Net-(U2-IN1P{slash}AIN1L{slash}AIN3L)*%
X166750000Y-75437500D03*
D10*
%TO.P,U2,17,VCOM*%
%TO.N,Net-(U2-VCOM)*%
X167437500Y-74750000D03*
%TO.P,U2,18,AVDD*%
%TO.N,+3.3VA*%
X167437500Y-74250000D03*
%TO.P,U2,19,VSS1*%
%TO.N,GND*%
X167437500Y-73750000D03*
%TO.P,U2,20,VREFL*%
X167437500Y-73250000D03*
%TO.P,U2,21,VREFH*%
%TO.N,+3.3VA*%
X167437500Y-72750000D03*
%TO.P,U2,22,AOUT1L*%
%TO.N,Net-(U2-AOUT1L)*%
X167437500Y-72250000D03*
%TO.P,U2,23,AOUT1R*%
%TO.N,Net-(U2-AOUT1R)*%
X167437500Y-71750000D03*
%TO.P,U2,24,AOUT2L*%
%TO.N,Net-(U2-AOUT2L)*%
X167437500Y-71250000D03*
D11*
%TO.P,U2,25,AOUT2R*%
%TO.N,Net-(U2-AOUT2R)*%
X166750000Y-70562500D03*
%TO.P,U2,26,PDN*%
%TO.N,/PDN*%
X166250000Y-70562500D03*
%TO.P,U2,27,CAD/~{CS}*%
%TO.N,/SPI1_NSS*%
X165750000Y-70562500D03*
%TO.P,U2,28,SCL/SCLK*%
%TO.N,/SPI1_SCK*%
X165250000Y-70562500D03*
%TO.P,U2,29,SI*%
%TO.N,/SPI1_MOSI*%
X164750000Y-70562500D03*
%TO.P,U2,30,SDA/SO*%
%TO.N,/SPI1_MISO*%
X164250000Y-70562500D03*
%TO.P,U2,31,SDOUT1*%
%TO.N,/SAI2_SD_A*%
X163750000Y-70562500D03*
%TO.P,U2,32,SDOUT2*%
%TO.N,/SAI2_SD_B*%
X163250000Y-70562500D03*
D12*
%TO.P,U2,33,PAD*%
%TO.N,GND*%
X164000000Y-72000000D03*
X164000000Y-73000000D03*
X164000000Y-74000000D03*
X165000000Y-72000000D03*
X165000000Y-73000000D03*
D13*
X165000000Y-73000000D03*
D12*
X165000000Y-74000000D03*
X166000000Y-72000000D03*
X166000000Y-73000000D03*
X166000000Y-74000000D03*
%TD*%
D14*
%TO.P,TP2,1,1*%
%TO.N,+3.3V*%
X144700000Y-39200000D03*
%TD*%
%TO.P,TP1,1,1*%
%TO.N,GND*%
X136700000Y-39200000D03*
%TD*%
D15*
%TO.P,J2,1,Pin_1*%
%TO.N,/IN1*%
X177825000Y-78740000D03*
D16*
%TO.P,J2,2,Pin_2*%
%TO.N,/IN2*%
X177825000Y-81280000D03*
%TO.P,J2,3,Pin_3*%
%TO.N,/IN3*%
X177825000Y-83820000D03*
%TO.P,J2,4,Pin_4*%
%TO.N,/IN4*%
X177825000Y-86360000D03*
%TD*%
%TO.P,J1,4,Pin_4*%
%TO.N,/OUT4*%
X177800000Y-63500000D03*
%TO.P,J1,3,Pin_3*%
%TO.N,/OUT3*%
X177800000Y-66040000D03*
%TO.P,J1,2,Pin_2*%
%TO.N,/OUT2*%
X177800000Y-68580000D03*
D15*
%TO.P,J1,1,Pin_1*%
%TO.N,/OUT1*%
X177800000Y-71120000D03*
%TD*%
D17*
%TO.P,R1,1*%
%TO.N,/PDN*%
X166300000Y-67312500D03*
%TO.P,R1,2*%
%TO.N,GND*%
X166300000Y-65487500D03*
%TD*%
D18*
%TO.P,L1,1*%
%TO.N,+3.3V*%
X159575000Y-68300000D03*
%TO.P,L1,2*%
%TO.N,+3.3VA*%
X157825000Y-68300000D03*
%TD*%
D19*
%TO.P,JP12,1,1*%
%TO.N,+3.3V*%
X133750000Y-53500000D03*
D20*
%TO.P,JP12,2,2*%
%TO.N,/3VIN*%
X135050000Y-53500000D03*
%TD*%
D19*
%TO.P,JP11,1,1*%
%TO.N,Net-(J9-Pin_14)*%
X146350000Y-83500000D03*
D20*
%TO.P,JP11,2,2*%
%TO.N,/SAI1_MCLK_A*%
X147650000Y-83500000D03*
%TD*%
D19*
%TO.P,JP10,1,1*%
%TO.N,Net-(J9-Pin_16)*%
X146350000Y-86300000D03*
D20*
%TO.P,JP10,2,2*%
%TO.N,/SAI1_FS_A*%
X147650000Y-86300000D03*
%TD*%
D19*
%TO.P,JP9,1,1*%
%TO.N,Net-(J9-Pin_18)*%
X146350000Y-89100000D03*
D20*
%TO.P,JP9,2,2*%
%TO.N,/SAI1_SCK_A*%
X147650000Y-89100000D03*
%TD*%
D19*
%TO.P,JP8,1,1*%
%TO.N,Net-(J9-Pin_20)*%
X146350000Y-91900000D03*
D20*
%TO.P,JP8,2,2*%
%TO.N,/SAI1_SD_A*%
X147650000Y-91900000D03*
%TD*%
D19*
%TO.P,JP7,1,1*%
%TO.N,Net-(J9-Pin_22)*%
X146350000Y-94800000D03*
D20*
%TO.P,JP7,2,2*%
%TO.N,/SAI1_SD_B*%
X147650000Y-94800000D03*
%TD*%
D19*
%TO.P,JP6,1,1*%
%TO.N,/SAI2_SD_A*%
X179950000Y-91500000D03*
D20*
%TO.P,JP6,2,2*%
%TO.N,Net-(J10-Pin_23)*%
X181250000Y-91500000D03*
%TD*%
D19*
%TO.P,JP5,1,1*%
%TO.N,Net-(J10-Pin_6)*%
X192350000Y-68600000D03*
D20*
%TO.P,JP5,2,2*%
%TO.N,/SAI2_SD_B*%
X193650000Y-68600000D03*
%TD*%
D19*
%TO.P,JP4,1,1*%
%TO.N,/SPI1_MISO*%
X179850000Y-58400000D03*
D20*
%TO.P,JP4,2,2*%
%TO.N,Net-(J7-Pin_19)*%
X181150000Y-58400000D03*
%TD*%
D19*
%TO.P,JP3,1,1*%
%TO.N,Net-(J7-Pin_10)*%
X192350000Y-45700000D03*
D20*
%TO.P,JP3,2,2*%
%TO.N,/SPI1_SCK*%
X193650000Y-45700000D03*
%TD*%
D19*
%TO.P,JP2,1,1*%
%TO.N,/SPI1_NSS*%
X179850000Y-45800000D03*
D20*
%TO.P,JP2,2,2*%
%TO.N,Net-(J7-Pin_9)*%
X181150000Y-45800000D03*
%TD*%
D19*
%TO.P,JP1,1,1*%
%TO.N,Net-(J7-Pin_14)*%
X192350000Y-50800000D03*
D20*
%TO.P,JP1,2,2*%
%TO.N,/SPI1_MOSI*%
X193650000Y-50800000D03*
%TD*%
D15*
%TO.P,J10,1,Pin_1*%
%TO.N,unconnected-(J10-Pin_1-Pad1)*%
X185420000Y-63500000D03*
D16*
%TO.P,J10,2,Pin_2*%
%TO.N,unconnected-(J10-Pin_2-Pad2)*%
X187960000Y-63500000D03*
%TO.P,J10,3,Pin_3*%
%TO.N,unconnected-(J10-Pin_3-Pad3)*%
X185420000Y-66040000D03*
%TO.P,J10,4,Pin_4*%
%TO.N,unconnected-(J10-Pin_4-Pad4)*%
X187960000Y-66040000D03*
%TO.P,J10,5,Pin_5*%
%TO.N,unconnected-(J10-Pin_5-Pad5)*%
X185420000Y-68580000D03*
%TO.P,J10,6,Pin_6*%
%TO.N,Net-(J10-Pin_6)*%
X187960000Y-68580000D03*
%TO.P,J10,7,Pin_7*%
%TO.N,unconnected-(J10-Pin_7-Pad7)*%
X185420000Y-71120000D03*
%TO.P,J10,8,Pin_8*%
%TO.N,unconnected-(J10-Pin_8-Pad8)*%
X187960000Y-71120000D03*
%TO.P,J10,9,Pin_9*%
%TO.N,unconnected-(J10-Pin_9-Pad9)*%
X185420000Y-73660000D03*
%TO.P,J10,10,Pin_10*%
%TO.N,unconnected-(J10-Pin_10-Pad10)*%
X187960000Y-73660000D03*
%TO.P,J10,11,Pin_11*%
%TO.N,unconnected-(J10-Pin_11-Pad11)*%
X185420000Y-76200000D03*
%TO.P,J10,12,Pin_12*%
%TO.N,unconnected-(J10-Pin_12-Pad12)*%
X187960000Y-76200000D03*
%TO.P,J10,13,Pin_13*%
%TO.N,unconnected-(J10-Pin_13-Pad13)*%
X185420000Y-78740000D03*
%TO.P,J10,14,Pin_14*%
%TO.N,unconnected-(J10-Pin_14-Pad14)*%
X187960000Y-78740000D03*
%TO.P,J10,15,Pin_15*%
%TO.N,unconnected-(J10-Pin_15-Pad15)*%
X185420000Y-81280000D03*
%TO.P,J10,16,Pin_16*%
%TO.N,unconnected-(J10-Pin_16-Pad16)*%
X187960000Y-81280000D03*
%TO.P,J10,17,Pin_17*%
%TO.N,GND*%
X185420000Y-83820000D03*
%TO.P,J10,18,Pin_18*%
%TO.N,unconnected-(J10-Pin_18-Pad18)*%
X187960000Y-83820000D03*
%TO.P,J10,19,Pin_19*%
%TO.N,unconnected-(J10-Pin_19-Pad19)*%
X185420000Y-86360000D03*
%TO.P,J10,20,Pin_20*%
%TO.N,unconnected-(J10-Pin_20-Pad20)*%
X187960000Y-86360000D03*
%TO.P,J10,21,Pin_21*%
%TO.N,unconnected-(J10-Pin_21-Pad21)*%
X185420000Y-88900000D03*
%TO.P,J10,22,Pin_22*%
%TO.N,unconnected-(J10-Pin_22-Pad22)*%
X187960000Y-88900000D03*
%TO.P,J10,23,Pin_23*%
%TO.N,Net-(J10-Pin_23)*%
X185420000Y-91440000D03*
%TO.P,J10,24,Pin_24*%
%TO.N,unconnected-(J10-Pin_24-Pad24)*%
X187960000Y-91440000D03*
%TO.P,J10,25,Pin_25*%
%TO.N,unconnected-(J10-Pin_25-Pad25)*%
X185420000Y-93980000D03*
%TO.P,J10,26,Pin_26*%
%TO.N,unconnected-(J10-Pin_26-Pad26)*%
X187960000Y-93980000D03*
%TO.P,J10,27,Pin_27*%
%TO.N,GND*%
X185420000Y-96520000D03*
%TO.P,J10,28,Pin_28*%
%TO.N,unconnected-(J10-Pin_28-Pad28)*%
X187960000Y-96520000D03*
%TO.P,J10,29,Pin_29*%
%TO.N,unconnected-(J10-Pin_29-Pad29)*%
X185420000Y-99060000D03*
%TO.P,J10,30,Pin_30*%
%TO.N,unconnected-(J10-Pin_30-Pad30)*%
X187960000Y-99060000D03*
%TO.P,J10,31,Pin_31*%
%TO.N,unconnected-(J10-Pin_31-Pad31)*%
X185420000Y-101600000D03*
%TO.P,J10,32,Pin_32*%
%TO.N,unconnected-(J10-Pin_32-Pad32)*%
X187960000Y-101600000D03*
%TO.P,J10,33,Pin_33*%
%TO.N,unconnected-(J10-Pin_33-Pad33)*%
X185420000Y-104140000D03*
%TO.P,J10,34,Pin_34*%
%TO.N,unconnected-(J10-Pin_34-Pad34)*%
X187960000Y-104140000D03*
%TD*%
D15*
%TO.P,J7,1,Pin_1*%
%TO.N,unconnected-(J7-Pin_1-Pad1)*%
X185420000Y-35560000D03*
D16*
%TO.P,J7,2,Pin_2*%
%TO.N,unconnected-(J7-Pin_2-Pad2)*%
X187960000Y-35560000D03*
%TO.P,J7,3,Pin_3*%
%TO.N,unconnected-(J7-Pin_3-Pad3)*%
X185420000Y-38100000D03*
%TO.P,J7,4,Pin_4*%
%TO.N,unconnected-(J7-Pin_4-Pad4)*%
X187960000Y-38100000D03*
%TO.P,J7,5,Pin_5*%
%TO.N,unconnected-(J7-Pin_5-Pad5)*%
X185420000Y-40640000D03*
%TO.P,J7,6,Pin_6*%
%TO.N,unconnected-(J7-Pin_6-Pad6)*%
X187960000Y-40640000D03*
%TO.P,J7,7,Pin_7*%
%TO.N,unconnected-(J7-Pin_7-Pad7)*%
X185420000Y-43180000D03*
%TO.P,J7,8,Pin_8*%
%TO.N,GND*%
X187960000Y-43180000D03*
%TO.P,J7,9,Pin_9*%
%TO.N,Net-(J7-Pin_9)*%
X185420000Y-45720000D03*
%TO.P,J7,10,Pin_10*%
%TO.N,Net-(J7-Pin_10)*%
X187960000Y-45720000D03*
%TO.P,J7,11,Pin_11*%
%TO.N,unconnected-(J7-Pin_11-Pad11)*%
X185420000Y-48260000D03*
%TO.P,J7,12,Pin_12*%
%TO.N,unconnected-(J7-Pin_12-Pad12)*%
X187960000Y-48260000D03*
%TO.P,J7,13,Pin_13*%
%TO.N,unconnected-(J7-Pin_13-Pad13)*%
X185420000Y-50800000D03*
%TO.P,J7,14,Pin_14*%
%TO.N,Net-(J7-Pin_14)*%
X187960000Y-50800000D03*
%TO.P,J7,15,Pin_15*%
%TO.N,unconnected-(J7-Pin_15-Pad15)*%
X185420000Y-53340000D03*
%TO.P,J7,16,Pin_16*%
%TO.N,unconnected-(J7-Pin_16-Pad16)*%
X187960000Y-53340000D03*
%TO.P,J7,17,Pin_17*%
%TO.N,unconnected-(J7-Pin_17-Pad17)*%
X185420000Y-55880000D03*
%TO.P,J7,18,Pin_18*%
%TO.N,/PDN*%
X187960000Y-55880000D03*
%TO.P,J7,19,Pin_19*%
%TO.N,Net-(J7-Pin_19)*%
X185420000Y-58420000D03*
%TO.P,J7,20,Pin_20*%
%TO.N,unconnected-(J7-Pin_20-Pad20)*%
X187960000Y-58420000D03*
%TD*%
D15*
%TO.P,J8,1,Pin_1*%
%TO.N,unconnected-(J8-Pin_1-Pad1)*%
X139700000Y-45720000D03*
D16*
%TO.P,J8,2,Pin_2*%
%TO.N,unconnected-(J8-Pin_2-Pad2)*%
X142240000Y-45720000D03*
%TO.P,J8,3,Pin_3*%
%TO.N,unconnected-(J8-Pin_3-Pad3)*%
X139700000Y-48260000D03*
%TO.P,J8,4,Pin_4*%
%TO.N,unconnected-(J8-Pin_4-Pad4)*%
X142240000Y-48260000D03*
%TO.P,J8,5,Pin_5*%
%TO.N,unconnected-(J8-Pin_5-Pad5)*%
X139700000Y-50800000D03*
%TO.P,J8,6,Pin_6*%
%TO.N,unconnected-(J8-Pin_6-Pad6)*%
X142240000Y-50800000D03*
%TO.P,J8,7,Pin_7*%
%TO.N,/3VIN*%
X139700000Y-53340000D03*
%TO.P,J8,8,Pin_8*%
%TO.N,unconnected-(J8-Pin_8-Pad8)*%
X142240000Y-53340000D03*
%TO.P,J8,9,Pin_9*%
%TO.N,unconnected-(J8-Pin_9-Pad9)*%
X139700000Y-55880000D03*
%TO.P,J8,10,Pin_10*%
%TO.N,unconnected-(J8-Pin_10-Pad10)*%
X142240000Y-55880000D03*
%TO.P,J8,11,Pin_11*%
%TO.N,GND*%
X139700000Y-58420000D03*
%TO.P,J8,12,Pin_12*%
%TO.N,unconnected-(J8-Pin_12-Pad12)*%
X142240000Y-58420000D03*
%TO.P,J8,13,Pin_13*%
%TO.N,GND*%
X139700000Y-60960000D03*
%TO.P,J8,14,Pin_14*%
%TO.N,unconnected-(J8-Pin_14-Pad14)*%
X142240000Y-60960000D03*
%TO.P,J8,15,Pin_15*%
%TO.N,unconnected-(J8-Pin_15-Pad15)*%
X139700000Y-63500000D03*
%TO.P,J8,16,Pin_16*%
%TO.N,unconnected-(J8-Pin_16-Pad16)*%
X142240000Y-63500000D03*
%TD*%
D15*
%TO.P,J9,1,Pin_1*%
%TO.N,unconnected-(J9-Pin_1-Pad1)*%
X139700000Y-68580000D03*
D16*
%TO.P,J9,2,Pin_2*%
%TO.N,unconnected-(J9-Pin_2-Pad2)*%
X142240000Y-68580000D03*
%TO.P,J9,3,Pin_3*%
%TO.N,unconnected-(J9-Pin_3-Pad3)*%
X139700000Y-71120000D03*
%TO.P,J9,4,Pin_4*%
%TO.N,unconnected-(J9-Pin_4-Pad4)*%
X142240000Y-71120000D03*
%TO.P,J9,5,Pin_5*%
%TO.N,unconnected-(J9-Pin_5-Pad5)*%
X139700000Y-73660000D03*
%TO.P,J9,6,Pin_6*%
%TO.N,unconnected-(J9-Pin_6-Pad6)*%
X142240000Y-73660000D03*
%TO.P,J9,7,Pin_7*%
%TO.N,unconnected-(J9-Pin_7-Pad7)*%
X139700000Y-76200000D03*
%TO.P,J9,8,Pin_8*%
%TO.N,unconnected-(J9-Pin_8-Pad8)*%
X142240000Y-76200000D03*
%TO.P,J9,9,Pin_9*%
%TO.N,unconnected-(J9-Pin_9-Pad9)*%
X139700000Y-78740000D03*
%TO.P,J9,10,Pin_10*%
%TO.N,unconnected-(J9-Pin_10-Pad10)*%
X142240000Y-78740000D03*
%TO.P,J9,11,Pin_11*%
%TO.N,unconnected-(J9-Pin_11-Pad11)*%
X139700000Y-81280000D03*
%TO.P,J9,12,Pin_12*%
%TO.N,GND*%
X142240000Y-81280000D03*
%TO.P,J9,13,Pin_13*%
%TO.N,unconnected-(J9-Pin_13-Pad13)*%
X139700000Y-83820000D03*
%TO.P,J9,14,Pin_14*%
%TO.N,Net-(J9-Pin_14)*%
X142240000Y-83820000D03*
%TO.P,J9,15,Pin_15*%
%TO.N,unconnected-(J9-Pin_15-Pad15)*%
X139700000Y-86360000D03*
%TO.P,J9,16,Pin_16*%
%TO.N,Net-(J9-Pin_16)*%
X142240000Y-86360000D03*
%TO.P,J9,17,Pin_17*%
%TO.N,unconnected-(J9-Pin_17-Pad17)*%
X139700000Y-88900000D03*
%TO.P,J9,18,Pin_18*%
%TO.N,Net-(J9-Pin_18)*%
X142240000Y-88900000D03*
%TO.P,J9,19,Pin_19*%
%TO.N,unconnected-(J9-Pin_19-Pad19)*%
X139700000Y-91440000D03*
%TO.P,J9,20,Pin_20*%
%TO.N,Net-(J9-Pin_20)*%
X142240000Y-91440000D03*
%TO.P,J9,21,Pin_21*%
%TO.N,unconnected-(J9-Pin_21-Pad21)*%
X139700000Y-93980000D03*
%TO.P,J9,22,Pin_22*%
%TO.N,Net-(J9-Pin_22)*%
X142240000Y-93980000D03*
%TO.P,J9,23,Pin_23*%
%TO.N,unconnected-(J9-Pin_23-Pad23)*%
X139700000Y-96520000D03*
%TO.P,J9,24,Pin_24*%
%TO.N,unconnected-(J9-Pin_24-Pad24)*%
X142240000Y-96520000D03*
%TO.P,J9,25,Pin_25*%
%TO.N,unconnected-(J9-Pin_25-Pad25)*%
X139700000Y-99060000D03*
%TO.P,J9,26,Pin_26*%
%TO.N,unconnected-(J9-Pin_26-Pad26)*%
X142240000Y-99060000D03*
%TO.P,J9,27,Pin_27*%
%TO.N,unconnected-(J9-Pin_27-Pad27)*%
X139700000Y-101600000D03*
%TO.P,J9,28,Pin_28*%
%TO.N,unconnected-(J9-Pin_28-Pad28)*%
X142240000Y-101600000D03*
%TO.P,J9,29,Pin_29*%
%TO.N,unconnected-(J9-Pin_29-Pad29)*%
X139700000Y-104140000D03*
%TO.P,J9,30,Pin_30*%
%TO.N,unconnected-(J9-Pin_30-Pad30)*%
X142240000Y-104140000D03*
%TD*%
D21*
%TO.P,C24,2*%
%TO.N,+3.3VA*%
X170337500Y-71700000D03*
%TO.P,C24,1*%
%TO.N,GND*%
X172062500Y-71700000D03*
%TD*%
%TO.P,C23,2*%
%TO.N,+3.3VA*%
X170337500Y-73300000D03*
%TO.P,C23,1*%
%TO.N,GND*%
X172062500Y-73300000D03*
%TD*%
%TO.P,C22,2*%
%TO.N,+3.3VA*%
X170337500Y-75100000D03*
%TO.P,C22,1*%
%TO.N,GND*%
X172062500Y-75100000D03*
%TD*%
%TO.P,C19,2*%
%TO.N,+3.3VA*%
X170337500Y-76800000D03*
%TO.P,C19,1*%
%TO.N,GND*%
X172062500Y-76800000D03*
%TD*%
D22*
%TO.P,C18,1*%
%TO.N,GND*%
X157837500Y-70000000D03*
%TO.P,C18,2*%
%TO.N,+3.3V*%
X159562500Y-70000000D03*
%TD*%
%TO.P,C17,1*%
%TO.N,GND*%
X157837500Y-71700000D03*
%TO.P,C17,2*%
%TO.N,+3.3V*%
X159562500Y-71700000D03*
%TD*%
%TO.P,C16,2*%
%TO.N,GND*%
X172062500Y-78400000D03*
%TO.P,C16,1*%
%TO.N,Net-(U2-VCOM)*%
X170337500Y-78400000D03*
%TD*%
D21*
%TO.P,C15,1*%
%TO.N,Net-(U2-AVDRV)*%
X159562500Y-73300000D03*
%TO.P,C15,2*%
%TO.N,GND*%
X157837500Y-73300000D03*
%TD*%
D23*
%TO.P,C12,1*%
%TO.N,Net-(U2-IN4N{slash}AIN5R{slash}GND6R)*%
X159400000Y-80437500D03*
%TO.P,C12,2*%
%TO.N,GND*%
X159400000Y-82162500D03*
%TD*%
%TO.P,C11,1*%
%TO.N,Net-(U2-IN3N{slash}AIN5L{slash}GND6L)*%
X162600000Y-80437500D03*
%TO.P,C11,2*%
%TO.N,GND*%
X162600000Y-82162500D03*
%TD*%
%TO.P,C10,1*%
%TO.N,Net-(U2-IN2N{slash}AIN2R{slash}GND3R)*%
X165800000Y-80437500D03*
%TO.P,C10,2*%
%TO.N,GND*%
X165800000Y-82162500D03*
%TD*%
%TO.P,C9,1*%
%TO.N,Net-(U2-IN4P{slash}AIN4R{slash}AIN6R)*%
X161000000Y-80437500D03*
%TO.P,C9,2*%
%TO.N,/IN4*%
X161000000Y-82162500D03*
%TD*%
%TO.P,C8,1*%
%TO.N,Net-(U2-IN3P{slash}AIN4L{slash}AIN6L)*%
X164200000Y-80437500D03*
%TO.P,C8,2*%
%TO.N,/IN3*%
X164200000Y-82162500D03*
%TD*%
%TO.P,C7,1*%
%TO.N,Net-(U2-IN2P{slash}AIN1R{slash}AIN3R)*%
X167400000Y-80437500D03*
%TO.P,C7,2*%
%TO.N,/IN2*%
X167400000Y-82162500D03*
%TD*%
%TO.P,C6,1*%
%TO.N,Net-(U2-IN1P{slash}AIN1L{slash}AIN3L)*%
X170600000Y-80437500D03*
%TO.P,C6,2*%
%TO.N,/IN1*%
X170600000Y-82162500D03*
%TD*%
%TO.P,C5,1*%
%TO.N,/OUT4*%
X168000000Y-65537500D03*
%TO.P,C5,2*%
%TO.N,Net-(U2-AOUT2R)*%
X168000000Y-67262500D03*
%TD*%
D21*
%TO.P,C4,2*%
%TO.N,Net-(U2-AOUT2L)*%
X170337500Y-66900000D03*
%TO.P,C4,1*%
%TO.N,/OUT3*%
X172062500Y-66900000D03*
%TD*%
%TO.P,C3,2*%
%TO.N,Net-(U2-AOUT1R)*%
X170337500Y-68500000D03*
%TO.P,C3,1*%
%TO.N,/OUT2*%
X172062500Y-68500000D03*
%TD*%
D23*
%TO.P,C2,1*%
%TO.N,Net-(U2-IN1N{slash}AIN2L{slash}GND3L)*%
X169000000Y-80437500D03*
%TO.P,C2,2*%
%TO.N,GND*%
X169000000Y-82162500D03*
%TD*%
D21*
%TO.P,C1,2*%
%TO.N,Net-(U2-AOUT1L)*%
X170337500Y-70100000D03*
%TO.P,C1,1*%
%TO.N,/OUT1*%
X172062500Y-70100000D03*
%TD*%
D24*
%TO.N,+3.3VA*%
X157900000Y-66800000D03*
%TO.N,GND*%
X173200000Y-83100000D03*
X166200000Y-83800000D03*
X162800000Y-83800000D03*
X161100000Y-72700000D03*
X173400000Y-75100000D03*
X168700000Y-73500000D03*
%TO.N,/SAI1_SD_A*%
X151300000Y-91800000D03*
X161300000Y-69900000D03*
%TO.N,/SAI1_SD_B*%
X161000000Y-71250000D03*
X158800000Y-86000000D03*
%TO.N,/SAI1_FS_A*%
X155600000Y-74200000D03*
X154468323Y-83956982D03*
%TO.N,+3.3VA*%
X176000000Y-75000000D03*
%TD*%
D25*
%TO.N,/SAI2_SD_B*%
X163250000Y-70150000D02*
X163250000Y-70562500D01*
X161100000Y-68000000D02*
X163250000Y-70150000D01*
X161100000Y-42000000D02*
X161100000Y-68000000D01*
X154800000Y-35700000D02*
X161100000Y-42000000D01*
X133800000Y-35700000D02*
X154800000Y-35700000D01*
X132200000Y-37300000D02*
X133800000Y-35700000D01*
X132200000Y-104800000D02*
X132200000Y-37300000D01*
X134900000Y-107500000D02*
X132200000Y-104800000D01*
X174400000Y-107500000D02*
X134900000Y-107500000D01*
X181565000Y-87535000D02*
X177700000Y-91400000D01*
X194965000Y-87535000D02*
X181565000Y-87535000D01*
X196300000Y-69700000D02*
X196300000Y-86200000D01*
X196300000Y-86200000D02*
X194965000Y-87535000D01*
X195200000Y-68600000D02*
X196300000Y-69700000D01*
X177700000Y-104200000D02*
X174400000Y-107500000D01*
X193650000Y-68600000D02*
X195200000Y-68600000D01*
X177700000Y-91400000D02*
X177700000Y-104200000D01*
%TO.N,/SAI2_SD_A*%
X163700000Y-70512500D02*
X163750000Y-70562500D01*
X163700000Y-69700000D02*
X163700000Y-70512500D01*
X161800000Y-67800000D02*
X163700000Y-69700000D01*
X161800000Y-41200000D02*
X161800000Y-67800000D01*
X133300000Y-34200000D02*
X154800000Y-34200000D01*
X130800000Y-36700000D02*
X133300000Y-34200000D01*
X154800000Y-34200000D02*
X161800000Y-41200000D01*
X134100000Y-108800000D02*
X130800000Y-105500000D01*
X130800000Y-105500000D02*
X130800000Y-36700000D01*
X175900000Y-108800000D02*
X134100000Y-108800000D01*
X179950000Y-104750000D02*
X175900000Y-108800000D01*
X179950000Y-91500000D02*
X179950000Y-104750000D01*
%TO.N,/SPI1_SCK*%
X194500000Y-45700000D02*
X193650000Y-45700000D01*
X192700000Y-33800000D02*
X194800000Y-35900000D01*
X194800000Y-45400000D02*
X194500000Y-45700000D01*
X167900000Y-33800000D02*
X192700000Y-33800000D01*
X163900000Y-37800000D02*
X167900000Y-33800000D01*
X194800000Y-35900000D02*
X194800000Y-45400000D01*
X165250000Y-68550000D02*
X163900000Y-67200000D01*
X165250000Y-70562500D02*
X165250000Y-68550000D01*
X163900000Y-67200000D02*
X163900000Y-37800000D01*
%TO.N,/SPI1_MOSI*%
X194500000Y-50800000D02*
X193650000Y-50800000D01*
X196100000Y-35200000D02*
X196100000Y-49200000D01*
X193500000Y-32600000D02*
X196100000Y-35200000D01*
X163200000Y-36500000D02*
X167100000Y-32600000D01*
X167100000Y-32600000D02*
X193500000Y-32600000D01*
X163200000Y-67400000D02*
X163200000Y-36500000D01*
X164750000Y-68950000D02*
X163200000Y-67400000D01*
X164750000Y-70562500D02*
X164750000Y-68950000D01*
X196100000Y-49200000D02*
X194500000Y-50800000D01*
%TO.N,/SPI1_MISO*%
X179850000Y-59950000D02*
X179850000Y-58400000D01*
X180900000Y-61000000D02*
X179850000Y-59950000D01*
X195200000Y-61000000D02*
X180900000Y-61000000D01*
X197300000Y-34600000D02*
X197300000Y-58900000D01*
X194200000Y-31500000D02*
X197300000Y-34600000D01*
X162500000Y-35300000D02*
X166300000Y-31500000D01*
X162500000Y-67600000D02*
X162500000Y-35300000D01*
X164250000Y-69350000D02*
X162500000Y-67600000D01*
X166300000Y-31500000D02*
X194200000Y-31500000D01*
X164250000Y-70562500D02*
X164250000Y-69350000D01*
X197300000Y-58900000D02*
X195200000Y-61000000D01*
D26*
%TO.N,+3.3V*%
X142300000Y-39200000D02*
X144700000Y-39200000D01*
X133750000Y-47750000D02*
X142300000Y-39200000D01*
X133750000Y-53500000D02*
X133750000Y-47750000D01*
X133750000Y-61750000D02*
X133750000Y-53500000D01*
X158162500Y-65400000D02*
X137400000Y-65400000D01*
X159562500Y-66800000D02*
X158162500Y-65400000D01*
X159562500Y-70000000D02*
X159562500Y-66800000D01*
X137400000Y-65400000D02*
X133750000Y-61750000D01*
%TO.N,+3.3VA*%
X157825000Y-68300000D02*
X157825000Y-66875000D01*
X157825000Y-66875000D02*
X157900000Y-66800000D01*
D25*
%TO.N,/SAI1_SCK_A*%
X149200000Y-89100000D02*
X147650000Y-89100000D01*
X149550000Y-88750000D02*
X149200000Y-89100000D01*
X149550000Y-87950000D02*
X149550000Y-88750000D01*
X149300000Y-87700000D02*
X149550000Y-87950000D01*
X139200000Y-87700000D02*
X149300000Y-87700000D01*
X136500000Y-77548299D02*
X136500000Y-85000000D01*
X139048299Y-75000000D02*
X136500000Y-77548299D01*
X162026992Y-74300000D02*
X161326992Y-75000000D01*
X162512500Y-74300000D02*
X162026992Y-74300000D01*
X162562500Y-74250000D02*
X162512500Y-74300000D01*
X161326992Y-75000000D02*
X139048299Y-75000000D01*
X136500000Y-85000000D02*
X139200000Y-87700000D01*
%TO.N,/IN2*%
X168500000Y-84100000D02*
X175005000Y-84100000D01*
X167400000Y-83000000D02*
X168500000Y-84100000D01*
X167400000Y-82162500D02*
X167400000Y-83000000D01*
X175005000Y-84100000D02*
X177825000Y-81280000D01*
%TO.N,/IN3*%
X176545000Y-85100000D02*
X177825000Y-83820000D01*
X165600000Y-85100000D02*
X176545000Y-85100000D01*
X164200000Y-83700000D02*
X165600000Y-85100000D01*
X164200000Y-82162500D02*
X164200000Y-83700000D01*
%TO.N,/IN4*%
X162760000Y-86360000D02*
X177825000Y-86360000D01*
X161000000Y-84600000D02*
X162760000Y-86360000D01*
X161000000Y-82162500D02*
X161000000Y-84600000D01*
%TO.N,/OUT4*%
X170037500Y-63500000D02*
X177800000Y-63500000D01*
X168000000Y-65537500D02*
X170037500Y-63500000D01*
%TO.N,/OUT3*%
X176940000Y-66900000D02*
X177800000Y-66040000D01*
X172062500Y-66900000D02*
X176940000Y-66900000D01*
%TO.N,/OUT2*%
X172142500Y-68580000D02*
X177800000Y-68580000D01*
X172062500Y-68500000D02*
X172142500Y-68580000D01*
%TO.N,/OUT1*%
X172062500Y-70100000D02*
X173082500Y-71120000D01*
X173082500Y-71120000D02*
X177800000Y-71120000D01*
%TO.N,/IN1*%
X174337500Y-82162500D02*
X177760000Y-78740000D01*
X177760000Y-78740000D02*
X177825000Y-78740000D01*
X170600000Y-82162500D02*
X174337500Y-82162500D01*
%TO.N,/SAI1_FS_A*%
X161388604Y-74200000D02*
X155600000Y-74200000D01*
X161838604Y-73750000D02*
X161388604Y-74200000D01*
%TO.N,Net-(U2-AVDRV)*%
X159787500Y-73525000D02*
X159562500Y-73300000D01*
%TO.N,/SAI1_FS_A*%
X162562500Y-73750000D02*
X161838604Y-73750000D01*
%TO.N,Net-(U2-AVDRV)*%
X161427208Y-73525000D02*
X159787500Y-73525000D01*
X161702208Y-73250000D02*
X161427208Y-73525000D01*
X162562500Y-73250000D02*
X161702208Y-73250000D01*
%TO.N,/SAI1_MCLK_A*%
X162562500Y-74837500D02*
X162562500Y-74750000D01*
X153900000Y-83500000D02*
X162562500Y-74837500D01*
X147650000Y-83500000D02*
X153900000Y-83500000D01*
%TO.N,/SAI1_FS_A*%
X152000000Y-86300000D02*
X154343018Y-83956982D01*
X147650000Y-86300000D02*
X152000000Y-86300000D01*
X154343018Y-83956982D02*
X154468323Y-83956982D01*
%TO.N,GND*%
X162562500Y-72750000D02*
X161150000Y-72750000D01*
X161150000Y-72750000D02*
X161100000Y-72700000D01*
%TO.N,/SAI1_SD_B*%
X161511701Y-71250000D02*
X161000000Y-71250000D01*
X162011701Y-71750000D02*
X161511701Y-71250000D01*
X162562500Y-71750000D02*
X162011701Y-71750000D01*
%TO.N,+3.3V*%
X161600305Y-71975000D02*
X159837500Y-71975000D01*
X162562500Y-72250000D02*
X161875305Y-72250000D01*
X161875305Y-72250000D02*
X161600305Y-71975000D01*
X159837500Y-71975000D02*
X159562500Y-71700000D01*
%TO.N,/SAI1_SD_B*%
X158800000Y-90600000D02*
X158800000Y-86000000D01*
X154600000Y-94800000D02*
X158800000Y-90600000D01*
X147650000Y-94800000D02*
X154600000Y-94800000D01*
%TO.N,GND*%
X172062500Y-75100000D02*
X173400000Y-75100000D01*
D26*
%TO.N,+3.3VA*%
X175125000Y-74125000D02*
X176000000Y-75000000D01*
X171162500Y-74125000D02*
X175125000Y-74125000D01*
X170337500Y-73300000D02*
X171162500Y-74125000D01*
X175025000Y-75975000D02*
X176000000Y-75000000D01*
X170337500Y-76800000D02*
X171162500Y-75975000D01*
X171162500Y-75975000D02*
X175025000Y-75975000D01*
D25*
%TO.N,GND*%
X168450000Y-73750000D02*
X168700000Y-73500000D01*
X167437500Y-73750000D02*
X168450000Y-73750000D01*
X168450000Y-73250000D02*
X168700000Y-73500000D01*
X167437500Y-73250000D02*
X168450000Y-73250000D01*
%TO.N,/PDN*%
X186595000Y-54515000D02*
X187960000Y-55880000D01*
X167285000Y-54515000D02*
X186595000Y-54515000D01*
X165300000Y-66312500D02*
X165300000Y-56500000D01*
X166300000Y-67312500D02*
X165300000Y-66312500D01*
X165300000Y-56500000D02*
X167285000Y-54515000D01*
%TO.N,/SPI1_NSS*%
X169400000Y-45800000D02*
X179850000Y-45800000D01*
X164600000Y-50600000D02*
X169400000Y-45800000D01*
X165750000Y-68150000D02*
X164600000Y-67000000D01*
X165750000Y-70562500D02*
X165750000Y-68150000D01*
X164600000Y-67000000D02*
X164600000Y-50600000D01*
%TO.N,/SAI1_SD_A*%
X151200000Y-91900000D02*
X151300000Y-91800000D01*
X147650000Y-91900000D02*
X151200000Y-91900000D01*
X162562500Y-71162500D02*
X161300000Y-69900000D01*
X162562500Y-71250000D02*
X162562500Y-71162500D01*
D26*
%TO.N,+3.3V*%
X159562500Y-70000000D02*
X159562500Y-71700000D01*
%TO.N,/3VIN*%
X135210000Y-53340000D02*
X135050000Y-53500000D01*
X139700000Y-53340000D02*
X135210000Y-53340000D01*
D25*
%TO.N,Net-(J9-Pin_22)*%
X145530000Y-93980000D02*
X146350000Y-94800000D01*
X142240000Y-93980000D02*
X145530000Y-93980000D01*
%TO.N,Net-(J9-Pin_20)*%
X145890000Y-91440000D02*
X146350000Y-91900000D01*
X142240000Y-91440000D02*
X145890000Y-91440000D01*
%TO.N,Net-(J9-Pin_18)*%
X146150000Y-88900000D02*
X146350000Y-89100000D01*
X142240000Y-88900000D02*
X146150000Y-88900000D01*
%TO.N,Net-(J9-Pin_16)*%
X146290000Y-86360000D02*
X146350000Y-86300000D01*
X142240000Y-86360000D02*
X146290000Y-86360000D01*
%TO.N,Net-(J9-Pin_14)*%
X146030000Y-83820000D02*
X146350000Y-83500000D01*
X142240000Y-83820000D02*
X146030000Y-83820000D01*
%TO.N,Net-(J10-Pin_23)*%
X181310000Y-91440000D02*
X181250000Y-91500000D01*
X185420000Y-91440000D02*
X181310000Y-91440000D01*
%TO.N,Net-(J10-Pin_6)*%
X192330000Y-68580000D02*
X192350000Y-68600000D01*
X187960000Y-68580000D02*
X192330000Y-68580000D01*
%TO.N,Net-(J7-Pin_19)*%
X181170000Y-58420000D02*
X181150000Y-58400000D01*
X185420000Y-58420000D02*
X181170000Y-58420000D01*
%TO.N,Net-(J7-Pin_9)*%
X181230000Y-45720000D02*
X181150000Y-45800000D01*
X185420000Y-45720000D02*
X181230000Y-45720000D01*
%TO.N,Net-(J7-Pin_14)*%
X187960000Y-50800000D02*
X192350000Y-50800000D01*
%TO.N,Net-(J7-Pin_10)*%
X192330000Y-45720000D02*
X192350000Y-45700000D01*
X187960000Y-45720000D02*
X192330000Y-45720000D01*
%TO.N,Net-(U2-IN4N{slash}AIN5R{slash}GND6R)*%
X163250000Y-76587500D02*
X159400000Y-80437500D01*
X163250000Y-75437500D02*
X163250000Y-76587500D01*
%TO.N,Net-(U2-IN4P{slash}AIN4R{slash}AIN6R)*%
X163750000Y-77687500D02*
X161000000Y-80437500D01*
X163750000Y-75437500D02*
X163750000Y-77687500D01*
%TO.N,Net-(U2-IN3N{slash}AIN5L{slash}GND6L)*%
X164250000Y-78787500D02*
X162600000Y-80437500D01*
X164250000Y-75437500D02*
X164250000Y-78787500D01*
%TO.N,Net-(U2-IN3P{slash}AIN4L{slash}AIN6L)*%
X164750000Y-79887500D02*
X164200000Y-80437500D01*
X164750000Y-75437500D02*
X164750000Y-79887500D01*
%TO.N,Net-(U2-IN2N{slash}AIN2R{slash}GND3R)*%
X165250000Y-79887500D02*
X165800000Y-80437500D01*
X165250000Y-75437500D02*
X165250000Y-79887500D01*
%TO.N,Net-(U2-IN2P{slash}AIN1R{slash}AIN3R)*%
X165750000Y-75437500D02*
X165750000Y-78787500D01*
X165750000Y-78787500D02*
X167400000Y-80437500D01*
%TO.N,Net-(U2-IN1N{slash}AIN2L{slash}GND3L)*%
X166250000Y-77687500D02*
X169000000Y-80437500D01*
X166250000Y-75437500D02*
X166250000Y-77687500D01*
%TO.N,Net-(U2-IN1P{slash}AIN1L{slash}AIN3L)*%
X166750000Y-75437500D02*
X166750000Y-76587500D01*
X166750000Y-76587500D02*
X170600000Y-80437500D01*
%TO.N,/PDN*%
X166250000Y-67362500D02*
X166300000Y-67312500D01*
X166250000Y-70562500D02*
X166250000Y-67362500D01*
%TO.N,Net-(U2-AOUT2R)*%
X166750000Y-68512500D02*
X168000000Y-67262500D01*
X166750000Y-70562500D02*
X166750000Y-68512500D01*
%TO.N,Net-(U2-VCOM)*%
X167437500Y-75300000D02*
X170337500Y-78200000D01*
X167437500Y-74750000D02*
X167437500Y-75300000D01*
%TO.N,+3.3VA*%
X167437500Y-74250000D02*
X169587500Y-74250000D01*
X169587500Y-74250000D02*
X170337500Y-75000000D01*
X170337500Y-76700000D02*
X170337500Y-75100000D01*
X170337500Y-73400000D02*
X170337500Y-71800000D01*
X167437500Y-72750000D02*
X169387500Y-72750000D01*
X169387500Y-72750000D02*
X170337500Y-71800000D01*
%TO.N,Net-(U2-AOUT1L)*%
X169100000Y-71500000D02*
X169100000Y-71437500D01*
X168350000Y-72250000D02*
X169100000Y-71500000D01*
X169100000Y-71437500D02*
X170337500Y-70200000D01*
X167437500Y-72250000D02*
X168350000Y-72250000D01*
%TO.N,Net-(U2-AOUT1R)*%
X168350000Y-70587500D02*
X170337500Y-68600000D01*
X168350000Y-71613604D02*
X168350000Y-70587500D01*
X168213604Y-71750000D02*
X168350000Y-71613604D01*
X167437500Y-71750000D02*
X168213604Y-71750000D01*
%TO.N,Net-(U2-AOUT2L)*%
X167437500Y-69900000D02*
X170337500Y-67000000D01*
X167437500Y-71250000D02*
X167437500Y-69900000D01*
%TD*%
%TA.AperFunction,Conductor*%
%TO.N,GND*%
G36*
X162793039Y-81932185D02*
G01*
X162838794Y-81984989D01*
X162850000Y-82036500D01*
X162850000Y-83199999D01*
X162886640Y-83199999D01*
X162886654Y-83199998D01*
X162987652Y-83189680D01*
X163151300Y-83135453D01*
X163151311Y-83135448D01*
X163298035Y-83044947D01*
X163311960Y-83031021D01*
X163373282Y-82997533D01*
X163442973Y-83002514D01*
X163487327Y-83031016D01*
X163501650Y-83045340D01*
X163513920Y-83052908D01*
X163515596Y-83053942D01*
X163562321Y-83105890D01*
X163574500Y-83159481D01*
X163574500Y-83617255D01*
X163572775Y-83632872D01*
X163573061Y-83632899D01*
X163572326Y-83640665D01*
X163574500Y-83709814D01*
X163574500Y-83739343D01*
X163574501Y-83739360D01*
X163575368Y-83746231D01*
X163575826Y-83752050D01*
X163577290Y-83798624D01*
X163577291Y-83798627D01*
X163582880Y-83817867D01*
X163586824Y-83836911D01*
X163589336Y-83856791D01*
X163606490Y-83900119D01*
X163608382Y-83905647D01*
X163620106Y-83946000D01*
X163621382Y-83950390D01*
X163625280Y-83956982D01*
X163631580Y-83967634D01*
X163640138Y-83985103D01*
X163647514Y-84003732D01*
X163674898Y-84041423D01*
X163678106Y-84046307D01*
X163701827Y-84086416D01*
X163701833Y-84086424D01*
X163715990Y-84100580D01*
X163728627Y-84115375D01*
X163740406Y-84131587D01*
X163763628Y-84150798D01*
X163776309Y-84161288D01*
X163780620Y-84165210D01*
X164772200Y-85156791D01*
X165099197Y-85483788D01*
X165109022Y-85496051D01*
X165109243Y-85495869D01*
X165114210Y-85501874D01*
X165133627Y-85520107D01*
X165169022Y-85580348D01*
X165166230Y-85650162D01*
X165126137Y-85707383D01*
X165061472Y-85733845D01*
X165048744Y-85734500D01*
X163070452Y-85734500D01*
X163003413Y-85714815D01*
X162982771Y-85698181D01*
X161661819Y-84377228D01*
X161628334Y-84315905D01*
X161625500Y-84289547D01*
X161625500Y-83159481D01*
X161645185Y-83092442D01*
X161684404Y-83053942D01*
X161698348Y-83045341D01*
X161698347Y-83045341D01*
X161698350Y-83045340D01*
X161712671Y-83031018D01*
X161773989Y-82997533D01*
X161843681Y-83002514D01*
X161888034Y-83031017D01*
X161901961Y-83044944D01*
X161901965Y-83044947D01*
X162048688Y-83135448D01*
X162048699Y-83135453D01*
X162212347Y-83189680D01*
X162313352Y-83199999D01*
X162350000Y-83199999D01*
X162350000Y-82036500D01*
X162369685Y-81969461D01*
X162422489Y-81923706D01*
X162474000Y-81912500D01*
X162726000Y-81912500D01*
X162793039Y-81932185D01*
G37*
%TD.AperFunction*%
%TA.AperFunction,Conductor*%
G36*
X165993039Y-81932185D02*
G01*
X166038794Y-81984989D01*
X166050000Y-82036500D01*
X166050000Y-83199999D01*
X166086640Y-83199999D01*
X166086654Y-83199998D01*
X166187652Y-83189680D01*
X166351300Y-83135453D01*
X166351311Y-83135448D01*
X166498035Y-83044947D01*
X166511960Y-83031021D01*
X166573282Y-82997533D01*
X166642973Y-83002514D01*
X166687327Y-83031017D01*
X166701651Y-83045341D01*
X166713104Y-83052405D01*
X166730984Y-83063433D01*
X166777709Y-83115379D01*
X166788911Y-83153431D01*
X166789336Y-83156792D01*
X166806490Y-83200119D01*
X166808382Y-83205647D01*
X166811225Y-83215433D01*
X166821382Y-83250390D01*
X166822973Y-83253081D01*
X166831580Y-83267634D01*
X166840138Y-83285103D01*
X166847514Y-83303732D01*
X166874898Y-83341423D01*
X166878106Y-83346307D01*
X166901827Y-83386416D01*
X166901833Y-83386424D01*
X166915990Y-83400580D01*
X166928628Y-83415376D01*
X166940405Y-83431586D01*
X166940406Y-83431587D01*
X166976309Y-83461288D01*
X166980620Y-83465210D01*
X167585409Y-84070000D01*
X167778228Y-84262819D01*
X167811713Y-84324142D01*
X167806729Y-84393834D01*
X167764857Y-84449767D01*
X167699393Y-84474184D01*
X167690547Y-84474500D01*
X165910452Y-84474500D01*
X165843413Y-84454815D01*
X165822771Y-84438181D01*
X164861819Y-83477228D01*
X164828334Y-83415905D01*
X164825500Y-83389547D01*
X164825500Y-83159481D01*
X164845185Y-83092442D01*
X164884404Y-83053942D01*
X164898348Y-83045341D01*
X164898347Y-83045341D01*
X164898350Y-83045340D01*
X164912671Y-83031018D01*
X164973989Y-82997533D01*
X165043681Y-83002514D01*
X165088034Y-83031017D01*
X165101961Y-83044944D01*
X165101965Y-83044947D01*
X165248688Y-83135448D01*
X165248699Y-83135453D01*
X165412347Y-83189680D01*
X165513352Y-83199999D01*
X165550000Y-83199999D01*
X165550000Y-82036500D01*
X165569685Y-81969461D01*
X165622489Y-81923706D01*
X165674000Y-81912500D01*
X165926000Y-81912500D01*
X165993039Y-81932185D01*
G37*
%TD.AperFunction*%
%TA.AperFunction,Conductor*%
G36*
X176394425Y-81092678D02*
G01*
X176450358Y-81134550D01*
X176474775Y-81200014D01*
X176474619Y-81219667D01*
X176469341Y-81279997D01*
X176469341Y-81280000D01*
X176489937Y-81515408D01*
X176516855Y-81615873D01*
X176515192Y-81685723D01*
X176484761Y-81735646D01*
X174782228Y-83438181D01*
X174720905Y-83471666D01*
X174694547Y-83474500D01*
X168810452Y-83474500D01*
X168743413Y-83454815D01*
X168722771Y-83438181D01*
X168696269Y-83411679D01*
X168662784Y-83350356D01*
X168667768Y-83280664D01*
X168709640Y-83224731D01*
X168734566Y-83215433D01*
X168750000Y-83199999D01*
X168750000Y-82036500D01*
X168769685Y-81969461D01*
X168822489Y-81923706D01*
X168874000Y-81912500D01*
X169126000Y-81912500D01*
X169193039Y-81932185D01*
X169238794Y-81984989D01*
X169250000Y-82036500D01*
X169250000Y-83199999D01*
X169286640Y-83199999D01*
X169286654Y-83199998D01*
X169387652Y-83189680D01*
X169551300Y-83135453D01*
X169551311Y-83135448D01*
X169698035Y-83044947D01*
X169711960Y-83031021D01*
X169773282Y-82997533D01*
X169842973Y-83002514D01*
X169887327Y-83031016D01*
X169901650Y-83045340D01*
X170048484Y-83135908D01*
X170212247Y-83190174D01*
X170313323Y-83200500D01*
X170886676Y-83200499D01*
X170886684Y-83200498D01*
X170886687Y-83200498D01*
X170945403Y-83194500D01*
X170987753Y-83190174D01*
X171151516Y-83135908D01*
X171298350Y-83045340D01*
X171420340Y-82923350D01*
X171450471Y-82874500D01*
X171467494Y-82846903D01*
X171519442Y-82800178D01*
X171573032Y-82788000D01*
X174254757Y-82788000D01*
X174270377Y-82789724D01*
X174270404Y-82789439D01*
X174278160Y-82790171D01*
X174278167Y-82790173D01*
X174347314Y-82788000D01*
X174376850Y-82788000D01*
X174383728Y-82787130D01*
X174389541Y-82786672D01*
X174436127Y-82785209D01*
X174455369Y-82779617D01*
X174474412Y-82775674D01*
X174494292Y-82773164D01*
X174537622Y-82756007D01*
X174543146Y-82754117D01*
X174546896Y-82753027D01*
X174587890Y-82741118D01*
X174605129Y-82730922D01*
X174622603Y-82722362D01*
X174641227Y-82714988D01*
X174641227Y-82714987D01*
X174641232Y-82714986D01*
X174678949Y-82687582D01*
X174683805Y-82684392D01*
X174723920Y-82660670D01*
X174738089Y-82646499D01*
X174752879Y-82633868D01*
X174769087Y-82622094D01*
X174798799Y-82586176D01*
X174802712Y-82581876D01*
X176263411Y-81121177D01*
X176324733Y-81087694D01*
X176394425Y-81092678D01*
G37*
%TD.AperFunction*%
%TA.AperFunction,Conductor*%
G36*
X160657587Y-75645185D02*
G01*
X160703342Y-75697989D01*
X160713286Y-75767147D01*
X160684261Y-75830703D01*
X160678229Y-75837180D01*
X157168609Y-79346800D01*
X153677228Y-82838181D01*
X153615905Y-82871666D01*
X153589547Y-82874500D01*
X148663758Y-82874500D01*
X148596719Y-82854815D01*
X148550964Y-82802012D01*
X148534904Y-82766845D01*
X148534899Y-82766838D01*
X148534894Y-82766828D01*
X148457103Y-82645783D01*
X148457088Y-82645762D01*
X148362943Y-82537113D01*
X148362940Y-82537110D01*
X148254170Y-82442861D01*
X148254164Y-82442857D01*
X148133221Y-82365131D01*
X148133217Y-82365129D01*
X148133216Y-82365129D01*
X148002300Y-82305342D01*
X147904158Y-82276525D01*
X147864342Y-82264834D01*
X147721889Y-82244353D01*
X147150000Y-82244353D01*
X147078040Y-82249499D01*
X147040728Y-82260455D01*
X146988149Y-82264215D01*
X146850000Y-82244353D01*
X146278111Y-82244353D01*
X146278110Y-82244353D01*
X146135658Y-82264834D01*
X146135656Y-82264834D01*
X145997700Y-82305342D01*
X145866784Y-82365129D01*
X145866782Y-82365129D01*
X145745831Y-82442860D01*
X145745829Y-82442861D01*
X145745830Y-82442861D01*
X145745826Y-82442864D01*
X145739408Y-82448425D01*
X145637060Y-82537108D01*
X145637058Y-82537110D01*
X145542911Y-82645762D01*
X145542896Y-82645783D01*
X145465102Y-82766833D01*
X145465089Y-82766856D01*
X145405183Y-82898033D01*
X145404743Y-82899758D01*
X145364821Y-83035717D01*
X145364819Y-83035726D01*
X145357282Y-83088148D01*
X145328257Y-83151703D01*
X145269478Y-83189477D01*
X145234544Y-83194500D01*
X143515227Y-83194500D01*
X143448188Y-83174815D01*
X143413652Y-83141623D01*
X143278494Y-82948597D01*
X143111402Y-82781506D01*
X143111401Y-82781505D01*
X142938831Y-82660670D01*
X142925405Y-82651269D01*
X142881781Y-82596692D01*
X142874588Y-82527193D01*
X142906110Y-82464839D01*
X142925405Y-82448119D01*
X143111082Y-82318105D01*
X143278105Y-82151082D01*
X143413600Y-81957578D01*
X143513429Y-81743492D01*
X143513432Y-81743486D01*
X143570636Y-81530000D01*
X142673686Y-81530000D01*
X142699493Y-81489844D01*
X142740000Y-81351889D01*
X142740000Y-81208111D01*
X142699493Y-81070156D01*
X142673686Y-81030000D01*
X143570636Y-81030000D01*
X143570635Y-81029999D01*
X143513432Y-80816513D01*
X143513429Y-80816507D01*
X143413600Y-80602422D01*
X143413599Y-80602420D01*
X143278113Y-80408926D01*
X143278108Y-80408920D01*
X143111078Y-80241890D01*
X142925405Y-80111879D01*
X142881780Y-80057302D01*
X142874588Y-79987804D01*
X142906110Y-79925449D01*
X142925406Y-79908730D01*
X142925843Y-79908424D01*
X143111401Y-79778495D01*
X143278495Y-79611401D01*
X143414035Y-79417830D01*
X143513903Y-79203663D01*
X143575063Y-78975408D01*
X143595659Y-78740000D01*
X143575063Y-78504592D01*
X143513903Y-78276337D01*
X143414035Y-78062171D01*
X143408425Y-78054158D01*
X143278494Y-77868597D01*
X143111402Y-77701506D01*
X143111396Y-77701501D01*
X142925842Y-77571575D01*
X142882217Y-77516998D01*
X142875023Y-77447500D01*
X142906546Y-77385145D01*
X142925842Y-77368425D01*
X143000417Y-77316207D01*
X143111401Y-77238495D01*
X143278495Y-77071401D01*
X143414035Y-76877830D01*
X143513903Y-76663663D01*
X143575063Y-76435408D01*
X143595659Y-76200000D01*
X143595259Y-76195433D01*
X143588886Y-76122590D01*
X143575063Y-75964592D01*
X143526029Y-75781592D01*
X143527692Y-75711743D01*
X143566855Y-75653881D01*
X143631083Y-75626377D01*
X143645804Y-75625500D01*
X160590548Y-75625500D01*
X160657587Y-75645185D01*
G37*
%TD.AperFunction*%
%TA.AperFunction,Conductor*%
G36*
X172255539Y-74795185D02*
G01*
X172273708Y-74816153D01*
X172276181Y-74813681D01*
X172312500Y-74850000D01*
X173099999Y-74850000D01*
X173136318Y-74813681D01*
X173138657Y-74816020D01*
X173172488Y-74786706D01*
X173223999Y-74775500D01*
X174804192Y-74775500D01*
X174871231Y-74795185D01*
X174891873Y-74811819D01*
X174992373Y-74912319D01*
X175025858Y-74973642D01*
X175020874Y-75043334D01*
X174992373Y-75087681D01*
X174791873Y-75288181D01*
X174730550Y-75321666D01*
X174704192Y-75324500D01*
X171936500Y-75324500D01*
X171869461Y-75304815D01*
X171823706Y-75252011D01*
X171812500Y-75200500D01*
X171812500Y-74899500D01*
X171832185Y-74832461D01*
X171884989Y-74786706D01*
X171936500Y-74775500D01*
X172188500Y-74775500D01*
X172255539Y-74795185D01*
G37*
%TD.AperFunction*%
%TA.AperFunction,Conductor*%
G36*
X165532514Y-71484501D02*
G01*
X165532674Y-71483905D01*
X165540524Y-71486008D01*
X165540526Y-71486008D01*
X165540528Y-71486009D01*
X165650599Y-71500500D01*
X165802689Y-71500499D01*
X165869729Y-71520183D01*
X165890371Y-71536818D01*
X166463181Y-72109628D01*
X166496666Y-72170951D01*
X166499500Y-72197308D01*
X166499500Y-72349403D01*
X166513989Y-72459468D01*
X166516094Y-72467322D01*
X166512814Y-72468200D01*
X166518581Y-72522073D01*
X166515517Y-72532522D01*
X166516095Y-72532677D01*
X166513990Y-72540529D01*
X166499500Y-72650598D01*
X166499500Y-72802688D01*
X166479815Y-72869727D01*
X166463182Y-72890368D01*
X166353553Y-72999999D01*
X166353553Y-73000000D01*
X166647709Y-73294156D01*
X166681194Y-73355479D01*
X166676210Y-73425170D01*
X166647709Y-73469518D01*
X166617228Y-73499999D01*
X166647709Y-73530480D01*
X166681194Y-73591803D01*
X166676210Y-73661495D01*
X166647709Y-73705843D01*
X166000000Y-74353554D01*
X165890369Y-74463182D01*
X165829046Y-74496666D01*
X165802690Y-74499500D01*
X165650596Y-74499500D01*
X165540529Y-74513989D01*
X165532681Y-74516093D01*
X165531808Y-74512836D01*
X165477779Y-74518554D01*
X165467476Y-74515523D01*
X165467323Y-74516095D01*
X165459470Y-74513990D01*
X165349402Y-74499500D01*
X165197309Y-74499500D01*
X165130270Y-74479815D01*
X165109627Y-74463181D01*
X165000000Y-74353553D01*
X164890370Y-74463182D01*
X164829046Y-74496666D01*
X164802690Y-74499500D01*
X164650596Y-74499500D01*
X164540531Y-74513989D01*
X164532678Y-74516094D01*
X164531802Y-74512824D01*
X164477853Y-74518567D01*
X164467477Y-74515518D01*
X164467323Y-74516095D01*
X164459470Y-74513990D01*
X164349402Y-74499500D01*
X164197309Y-74499500D01*
X164130270Y-74479815D01*
X164109628Y-74463181D01*
X163646447Y-74000000D01*
X163844709Y-74000000D01*
X163865514Y-74077645D01*
X163922355Y-74134486D01*
X163980254Y-74150000D01*
X164019746Y-74150000D01*
X164077645Y-74134486D01*
X164134486Y-74077646D01*
X164155291Y-74000000D01*
X164353553Y-74000000D01*
X164500000Y-74146447D01*
X164646447Y-74000000D01*
X164844709Y-74000000D01*
X164865514Y-74077645D01*
X164922355Y-74134486D01*
X164980254Y-74150000D01*
X165019746Y-74150000D01*
X165077645Y-74134486D01*
X165134486Y-74077646D01*
X165155291Y-74000000D01*
X165353553Y-74000000D01*
X165499999Y-74146447D01*
X165646446Y-74000000D01*
X165844709Y-74000000D01*
X165865514Y-74077645D01*
X165922355Y-74134486D01*
X165980254Y-74150000D01*
X166019746Y-74150000D01*
X166077645Y-74134486D01*
X166134486Y-74077646D01*
X166155291Y-74000000D01*
X166134486Y-73922355D01*
X166077645Y-73865514D01*
X166019746Y-73850000D01*
X165980254Y-73850000D01*
X165922355Y-73865514D01*
X165865514Y-73922354D01*
X165844709Y-74000000D01*
X165646446Y-74000000D01*
X165646447Y-73999999D01*
X165500000Y-73853553D01*
X165353553Y-73999999D01*
X165353553Y-74000000D01*
X165155291Y-74000000D01*
X165134486Y-73922355D01*
X165077645Y-73865514D01*
X165019746Y-73850000D01*
X164980254Y-73850000D01*
X164922355Y-73865514D01*
X164865514Y-73922354D01*
X164844709Y-74000000D01*
X164646447Y-74000000D01*
X164500000Y-73853552D01*
X164353553Y-74000000D01*
X164155291Y-74000000D01*
X164134486Y-73922355D01*
X164077645Y-73865514D01*
X164019746Y-73850000D01*
X163980254Y-73850000D01*
X163922355Y-73865514D01*
X163865514Y-73922354D01*
X163844709Y-74000000D01*
X163646447Y-74000000D01*
X163536818Y-73890371D01*
X163503333Y-73829048D01*
X163500499Y-73802697D01*
X163500499Y-73650600D01*
X163499952Y-73646447D01*
X163490108Y-73571666D01*
X163486009Y-73540528D01*
X163486008Y-73540525D01*
X163483905Y-73532674D01*
X163487207Y-73531789D01*
X163483766Y-73500000D01*
X163853553Y-73500000D01*
X164000000Y-73646447D01*
X164146447Y-73500000D01*
X164853553Y-73500000D01*
X165000000Y-73646447D01*
X165146447Y-73500000D01*
X165853553Y-73500000D01*
X166000000Y-73646447D01*
X166146447Y-73500000D01*
X166000000Y-73353553D01*
X165853553Y-73499999D01*
X165853553Y-73500000D01*
X165146447Y-73500000D01*
X165000000Y-73353553D01*
X164853553Y-73499999D01*
X164853553Y-73500000D01*
X164146447Y-73500000D01*
X164000000Y-73353553D01*
X163853553Y-73500000D01*
X163483766Y-73500000D01*
X163481392Y-73478075D01*
X163484501Y-73467485D01*
X163483905Y-73467326D01*
X163486008Y-73459475D01*
X163486008Y-73459474D01*
X163486009Y-73459472D01*
X163500500Y-73349401D01*
X163500499Y-73197308D01*
X163520183Y-73130269D01*
X163536818Y-73109626D01*
X163646443Y-73000000D01*
X163844709Y-73000000D01*
X163865514Y-73077645D01*
X163922355Y-73134486D01*
X163980254Y-73150000D01*
X164019746Y-73150000D01*
X164077645Y-73134486D01*
X164134486Y-73077646D01*
X164155291Y-73000000D01*
X164155290Y-72999998D01*
X164353553Y-72999998D01*
X164500000Y-73146446D01*
X164646447Y-73000000D01*
X164844709Y-73000000D01*
X164865514Y-73077645D01*
X164922355Y-73134486D01*
X164980254Y-73150000D01*
X165019746Y-73150000D01*
X165077645Y-73134486D01*
X165134486Y-73077646D01*
X165155291Y-73000000D01*
X165155290Y-72999998D01*
X165353553Y-72999998D01*
X165500000Y-73146446D01*
X165646446Y-73000000D01*
X165844709Y-73000000D01*
X165865514Y-73077645D01*
X165922355Y-73134486D01*
X165980254Y-73150000D01*
X166019746Y-73150000D01*
X166077645Y-73134486D01*
X166134486Y-73077646D01*
X166155291Y-73000000D01*
X166134486Y-72922355D01*
X166077645Y-72865514D01*
X166019746Y-72850000D01*
X165980254Y-72850000D01*
X165922355Y-72865514D01*
X165865514Y-72922354D01*
X165844709Y-73000000D01*
X165646446Y-73000000D01*
X165646447Y-72999999D01*
X165500001Y-72853553D01*
X165353553Y-72999998D01*
X165155290Y-72999998D01*
X165134486Y-72922355D01*
X165077645Y-72865514D01*
X165019746Y-72850000D01*
X164980254Y-72850000D01*
X164922355Y-72865514D01*
X164865514Y-72922354D01*
X164844709Y-73000000D01*
X164646447Y-73000000D01*
X164646447Y-72999999D01*
X164500001Y-72853553D01*
X164353553Y-72999998D01*
X164155290Y-72999998D01*
X164134486Y-72922355D01*
X164077645Y-72865514D01*
X164019746Y-72850000D01*
X163980254Y-72850000D01*
X163922355Y-72865514D01*
X163865514Y-72922354D01*
X163844709Y-73000000D01*
X163646443Y-73000000D01*
X163646446Y-72999997D01*
X163425242Y-72778794D01*
X163391757Y-72717471D01*
X163396741Y-72647780D01*
X163414545Y-72615629D01*
X163429279Y-72596429D01*
X163469222Y-72499999D01*
X163853553Y-72499999D01*
X164000000Y-72646446D01*
X164146446Y-72500000D01*
X164146445Y-72499999D01*
X164853553Y-72499999D01*
X164999999Y-72646446D01*
X165146446Y-72500000D01*
X165853552Y-72500000D01*
X166000000Y-72646447D01*
X166146447Y-72500000D01*
X166146447Y-72499999D01*
X166000001Y-72353553D01*
X165853552Y-72500000D01*
X165146446Y-72500000D01*
X165146447Y-72499999D01*
X165000001Y-72353553D01*
X164853553Y-72499999D01*
X164146445Y-72499999D01*
X164000000Y-72353553D01*
X163853553Y-72499999D01*
X163469222Y-72499999D01*
X163486009Y-72459472D01*
X163500500Y-72349401D01*
X163500499Y-72197308D01*
X163520183Y-72130269D01*
X163536818Y-72109627D01*
X163646445Y-72000000D01*
X163844709Y-72000000D01*
X163865514Y-72077645D01*
X163922355Y-72134486D01*
X163980254Y-72150000D01*
X164019746Y-72150000D01*
X164077645Y-72134486D01*
X164134486Y-72077646D01*
X164155291Y-72000000D01*
X164155291Y-71999999D01*
X164353553Y-71999999D01*
X164499999Y-72146446D01*
X164646446Y-72000000D01*
X164844709Y-72000000D01*
X164865514Y-72077645D01*
X164922355Y-72134486D01*
X164980254Y-72150000D01*
X165019746Y-72150000D01*
X165077645Y-72134486D01*
X165134486Y-72077646D01*
X165155291Y-72000000D01*
X165353553Y-72000000D01*
X165499999Y-72146447D01*
X165646447Y-72000000D01*
X165844709Y-72000000D01*
X165865514Y-72077645D01*
X165922355Y-72134486D01*
X165980254Y-72150000D01*
X166019746Y-72150000D01*
X166077645Y-72134486D01*
X166134486Y-72077646D01*
X166155291Y-72000000D01*
X166134486Y-71922355D01*
X166077645Y-71865514D01*
X166019746Y-71850000D01*
X165980254Y-71850000D01*
X165922355Y-71865514D01*
X165865514Y-71922354D01*
X165844709Y-72000000D01*
X165646447Y-72000000D01*
X165500000Y-71853553D01*
X165353553Y-72000000D01*
X165155291Y-72000000D01*
X165134486Y-71922355D01*
X165077645Y-71865514D01*
X165019746Y-71850000D01*
X164980254Y-71850000D01*
X164922355Y-71865514D01*
X164865514Y-71922354D01*
X164844709Y-72000000D01*
X164646446Y-72000000D01*
X164646447Y-71999999D01*
X164500001Y-71853553D01*
X164353553Y-71999999D01*
X164155291Y-71999999D01*
X164134486Y-71922355D01*
X164077645Y-71865514D01*
X164019746Y-71850000D01*
X163980254Y-71850000D01*
X163922355Y-71865514D01*
X163865514Y-71922354D01*
X163844709Y-72000000D01*
X163646445Y-72000000D01*
X164000000Y-71646447D01*
X164109627Y-71536818D01*
X164170950Y-71503333D01*
X164197301Y-71500499D01*
X164349400Y-71500499D01*
X164349402Y-71500499D01*
X164378382Y-71496683D01*
X164459472Y-71486009D01*
X164459475Y-71486007D01*
X164467326Y-71483905D01*
X164468210Y-71487207D01*
X164521925Y-71481392D01*
X164532514Y-71484501D01*
X164532674Y-71483905D01*
X164540524Y-71486008D01*
X164540526Y-71486008D01*
X164540528Y-71486009D01*
X164650599Y-71500500D01*
X164802688Y-71500499D01*
X164869728Y-71520183D01*
X164890371Y-71536818D01*
X164999998Y-71646446D01*
X165109626Y-71536818D01*
X165170949Y-71503333D01*
X165197300Y-71500499D01*
X165349400Y-71500499D01*
X165349402Y-71500499D01*
X165378382Y-71496683D01*
X165459472Y-71486009D01*
X165459475Y-71486007D01*
X165467326Y-71483905D01*
X165468210Y-71487207D01*
X165521925Y-71481392D01*
X165532514Y-71484501D01*
G37*
%TD.AperFunction*%
%TA.AperFunction,Conductor*%
G36*
X169242540Y-73395185D02*
G01*
X169288295Y-73447989D01*
X169299501Y-73499500D01*
X169299501Y-73500500D01*
X169279816Y-73567539D01*
X169227012Y-73613294D01*
X169175501Y-73624500D01*
X168478105Y-73624500D01*
X168411066Y-73604815D01*
X168365311Y-73552011D01*
X168363535Y-73547932D01*
X168363328Y-73547432D01*
X168355872Y-73477961D01*
X168363328Y-73452568D01*
X168363535Y-73452068D01*
X168407366Y-73397657D01*
X168473657Y-73375580D01*
X168478105Y-73375500D01*
X169175501Y-73375500D01*
X169242540Y-73395185D01*
G37*
%TD.AperFunction*%
%TA.AperFunction,Conductor*%
G36*
X161231250Y-72620185D02*
G01*
X161277005Y-72672989D01*
X161286949Y-72742147D01*
X161259753Y-72803542D01*
X161240923Y-72826303D01*
X161236991Y-72830624D01*
X161204437Y-72863180D01*
X161143114Y-72896666D01*
X161116754Y-72899500D01*
X160675491Y-72899500D01*
X160608452Y-72879815D01*
X160562697Y-72827011D01*
X160557785Y-72814504D01*
X160555290Y-72806976D01*
X160540884Y-72763503D01*
X160538483Y-72693676D01*
X160574215Y-72633634D01*
X160636735Y-72602441D01*
X160658591Y-72600500D01*
X161164211Y-72600500D01*
X161231250Y-72620185D01*
G37*
%TD.AperFunction*%
%TA.AperFunction,Conductor*%
G36*
X154556587Y-36345185D02*
G01*
X154577229Y-36361819D01*
X160438181Y-42222771D01*
X160471666Y-42284094D01*
X160474500Y-42310452D01*
X160474500Y-67350715D01*
X160454815Y-67417754D01*
X160402011Y-67463509D01*
X160332853Y-67473453D01*
X160285402Y-67456253D01*
X160271902Y-67447926D01*
X160225178Y-67395978D01*
X160213000Y-67342388D01*
X160213000Y-66885502D01*
X160214768Y-66869489D01*
X160214526Y-66869467D01*
X160215258Y-66861711D01*
X160215260Y-66861704D01*
X160213000Y-66789796D01*
X160213000Y-66759075D01*
X160212079Y-66751788D01*
X160211622Y-66745979D01*
X160210097Y-66697431D01*
X160204176Y-66677053D01*
X160200231Y-66658004D01*
X160197571Y-66636942D01*
X160179685Y-66591769D01*
X160177796Y-66586249D01*
X160164243Y-66539600D01*
X160153440Y-66521334D01*
X160144878Y-66503856D01*
X160137068Y-66484129D01*
X160137065Y-66484125D01*
X160133821Y-66479660D01*
X160108514Y-66444827D01*
X160105311Y-66439951D01*
X160080581Y-66398135D01*
X160080579Y-66398133D01*
X160080578Y-66398131D01*
X160065575Y-66383129D01*
X160052935Y-66368330D01*
X160040461Y-66351160D01*
X160003028Y-66320194D01*
X159998706Y-66316260D01*
X158682934Y-65000488D01*
X158672861Y-64987914D01*
X158672674Y-64988070D01*
X158667701Y-64982059D01*
X158615256Y-64932810D01*
X158593535Y-64911089D01*
X158587740Y-64906594D01*
X158583298Y-64902799D01*
X158547896Y-64869554D01*
X158547888Y-64869548D01*
X158529292Y-64859325D01*
X158513031Y-64848644D01*
X158496263Y-64835637D01*
X158472795Y-64825482D01*
X158451678Y-64816343D01*
X158446456Y-64813786D01*
X158403868Y-64790373D01*
X158403865Y-64790372D01*
X158383301Y-64785092D01*
X158364896Y-64778790D01*
X158345427Y-64770365D01*
X158345421Y-64770363D01*
X158297451Y-64762766D01*
X158291736Y-64761582D01*
X158275272Y-64757355D01*
X158244680Y-64749500D01*
X158244677Y-64749500D01*
X158223455Y-64749500D01*
X158204055Y-64747973D01*
X158201056Y-64747498D01*
X158197511Y-64746936D01*
X158183096Y-64744653D01*
X158183095Y-64744653D01*
X158159286Y-64746903D01*
X158134730Y-64749225D01*
X158128892Y-64749500D01*
X143199758Y-64749500D01*
X143132719Y-64729815D01*
X143086964Y-64677011D01*
X143077020Y-64607853D01*
X143106045Y-64544297D01*
X143112077Y-64537819D01*
X143192413Y-64457483D01*
X143278495Y-64371401D01*
X143414035Y-64177830D01*
X143513903Y-63963663D01*
X143575063Y-63735408D01*
X143595659Y-63500000D01*
X143575063Y-63264592D01*
X143513903Y-63036337D01*
X143414035Y-62822171D01*
X143413652Y-62821623D01*
X143278494Y-62628597D01*
X143111402Y-62461506D01*
X143111396Y-62461501D01*
X142925842Y-62331575D01*
X142882217Y-62276998D01*
X142875023Y-62207500D01*
X142906546Y-62145145D01*
X142925842Y-62128425D01*
X142959053Y-62105170D01*
X143111401Y-61998495D01*
X143278495Y-61831401D01*
X143414035Y-61637830D01*
X143513903Y-61423663D01*
X143575063Y-61195408D01*
X143595659Y-60960000D01*
X143575063Y-60724592D01*
X143513903Y-60496337D01*
X143414035Y-60282171D01*
X143408731Y-60274595D01*
X143278494Y-60088597D01*
X143111402Y-59921506D01*
X143111396Y-59921501D01*
X142925842Y-59791575D01*
X142882217Y-59736998D01*
X142875023Y-59667500D01*
X142906546Y-59605145D01*
X142925842Y-59588425D01*
X143058859Y-59495285D01*
X143111401Y-59458495D01*
X143278495Y-59291401D01*
X143414035Y-59097830D01*
X143513903Y-58883663D01*
X143575063Y-58655408D01*
X143595659Y-58420000D01*
X143575063Y-58184592D01*
X143513903Y-57956337D01*
X143414035Y-57742171D01*
X143413652Y-57741623D01*
X143278494Y-57548597D01*
X143111402Y-57381506D01*
X143111396Y-57381501D01*
X142925842Y-57251575D01*
X142882217Y-57196998D01*
X142875023Y-57127500D01*
X142906546Y-57065145D01*
X142925842Y-57048425D01*
X142948026Y-57032891D01*
X143111401Y-56918495D01*
X143278495Y-56751401D01*
X143414035Y-56557830D01*
X143513903Y-56343663D01*
X143575063Y-56115408D01*
X143595659Y-55880000D01*
X143575063Y-55644592D01*
X143513903Y-55416337D01*
X143414035Y-55202171D01*
X143408425Y-55194158D01*
X143278494Y-55008597D01*
X143111402Y-54841506D01*
X143111396Y-54841501D01*
X142925842Y-54711575D01*
X142882217Y-54656998D01*
X142875023Y-54587500D01*
X142906546Y-54525145D01*
X142925842Y-54508425D01*
X142990871Y-54462891D01*
X143111401Y-54378495D01*
X143278495Y-54211401D01*
X143414035Y-54017830D01*
X143513903Y-53803663D01*
X143575063Y-53575408D01*
X143595659Y-53340000D01*
X143575063Y-53104592D01*
X143513903Y-52876337D01*
X143414035Y-52662171D01*
X143408425Y-52654158D01*
X143278494Y-52468597D01*
X143111402Y-52301506D01*
X143111396Y-52301501D01*
X142925842Y-52171575D01*
X142882217Y-52116998D01*
X142875023Y-52047500D01*
X142906546Y-51985145D01*
X142925842Y-51968425D01*
X142973766Y-51934868D01*
X143111401Y-51838495D01*
X143278495Y-51671401D01*
X143414035Y-51477830D01*
X143513903Y-51263663D01*
X143575063Y-51035408D01*
X143595659Y-50800000D01*
X143575063Y-50564592D01*
X143513903Y-50336337D01*
X143414035Y-50122171D01*
X143413652Y-50121623D01*
X143278494Y-49928597D01*
X143111402Y-49761506D01*
X143111396Y-49761501D01*
X142925842Y-49631575D01*
X142882217Y-49576998D01*
X142875023Y-49507500D01*
X142906546Y-49445145D01*
X142925842Y-49428425D01*
X142948026Y-49412891D01*
X143111401Y-49298495D01*
X143278495Y-49131401D01*
X143414035Y-48937830D01*
X143513903Y-48723663D01*
X143575063Y-48495408D01*
X143595659Y-48260000D01*
X143575063Y-48024592D01*
X143513903Y-47796337D01*
X143414035Y-47582171D01*
X143408425Y-47574158D01*
X143278494Y-47388597D01*
X143111402Y-47221506D01*
X143111396Y-47221501D01*
X142925842Y-47091575D01*
X142882217Y-47036998D01*
X142875023Y-46967500D01*
X142906546Y-46905145D01*
X142925842Y-46888425D01*
X143002329Y-46834868D01*
X143111401Y-46758495D01*
X143278495Y-46591401D01*
X143414035Y-46397830D01*
X143513903Y-46183663D01*
X143575063Y-45955408D01*
X143595659Y-45720000D01*
X143575063Y-45484592D01*
X143513903Y-45256337D01*
X143414035Y-45042171D01*
X143413652Y-45041623D01*
X143278494Y-44848597D01*
X143111402Y-44681506D01*
X143111395Y-44681501D01*
X143088016Y-44665131D01*
X143034518Y-44627671D01*
X142917834Y-44545967D01*
X142917830Y-44545965D01*
X142914373Y-44544353D01*
X142703663Y-44446097D01*
X142703659Y-44446096D01*
X142703655Y-44446094D01*
X142475413Y-44384938D01*
X142475403Y-44384936D01*
X142240001Y-44364341D01*
X142239999Y-44364341D01*
X142004596Y-44384936D01*
X142004586Y-44384938D01*
X141776344Y-44446094D01*
X141776337Y-44446096D01*
X141776337Y-44446097D01*
X141769039Y-44449500D01*
X141562171Y-44545964D01*
X141562169Y-44545965D01*
X141368600Y-44681503D01*
X141246673Y-44803430D01*
X141185350Y-44836914D01*
X141115658Y-44831930D01*
X141059725Y-44790058D01*
X141042810Y-44759081D01*
X140993797Y-44627671D01*
X140993793Y-44627664D01*
X140907547Y-44512455D01*
X140907544Y-44512452D01*
X140792335Y-44426206D01*
X140792328Y-44426202D01*
X140657482Y-44375908D01*
X140657483Y-44375908D01*
X140597883Y-44369501D01*
X140597881Y-44369500D01*
X140597873Y-44369500D01*
X140597864Y-44369500D01*
X138802129Y-44369500D01*
X138802123Y-44369501D01*
X138742516Y-44375908D01*
X138607671Y-44426202D01*
X138607664Y-44426206D01*
X138492455Y-44512452D01*
X138492452Y-44512455D01*
X138406206Y-44627664D01*
X138406202Y-44627671D01*
X138355908Y-44762517D01*
X138349501Y-44822116D01*
X138349500Y-44822135D01*
X138349500Y-46617870D01*
X138349501Y-46617876D01*
X138355908Y-46677483D01*
X138406202Y-46812328D01*
X138406206Y-46812335D01*
X138492452Y-46927544D01*
X138492455Y-46927547D01*
X138607664Y-47013793D01*
X138607671Y-47013797D01*
X138739081Y-47062810D01*
X138795015Y-47104681D01*
X138819432Y-47170145D01*
X138804580Y-47238418D01*
X138783430Y-47266673D01*
X138661503Y-47388600D01*
X138525965Y-47582169D01*
X138525964Y-47582171D01*
X138426098Y-47796335D01*
X138426094Y-47796344D01*
X138364938Y-48024586D01*
X138364936Y-48024596D01*
X138344341Y-48259999D01*
X138344341Y-48260000D01*
X138364936Y-48495403D01*
X138364938Y-48495413D01*
X138426094Y-48723655D01*
X138426096Y-48723659D01*
X138426097Y-48723663D01*
X138430000Y-48732032D01*
X138525965Y-48937830D01*
X138525967Y-48937834D01*
X138539097Y-48956585D01*
X138661501Y-49131396D01*
X138661506Y-49131402D01*
X138828597Y-49298493D01*
X138828603Y-49298498D01*
X139014158Y-49428425D01*
X139057783Y-49483002D01*
X139064977Y-49552500D01*
X139033454Y-49614855D01*
X139014158Y-49631575D01*
X138828597Y-49761505D01*
X138661505Y-49928597D01*
X138525965Y-50122169D01*
X138525964Y-50122171D01*
X138426098Y-50336335D01*
X138426094Y-50336344D01*
X138364938Y-50564586D01*
X138364936Y-50564596D01*
X138344341Y-50799999D01*
X138344341Y-50800000D01*
X138364936Y-51035403D01*
X138364938Y-51035413D01*
X138426094Y-51263655D01*
X138426096Y-51263659D01*
X138426097Y-51263663D01*
X138495550Y-51412604D01*
X138525965Y-51477830D01*
X138525967Y-51477834D01*
X138564704Y-51533155D01*
X138661501Y-51671396D01*
X138661506Y-51671402D01*
X138828597Y-51838493D01*
X138828603Y-51838498D01*
X139014158Y-51968425D01*
X139057783Y-52023002D01*
X139064977Y-52092500D01*
X139033454Y-52154855D01*
X139014158Y-52171575D01*
X138828597Y-52301505D01*
X138661506Y-52468596D01*
X138543854Y-52636623D01*
X138489277Y-52680248D01*
X138442279Y-52689500D01*
X135951614Y-52689500D01*
X135884575Y-52669815D01*
X135857900Y-52646702D01*
X135857100Y-52645778D01*
X135857097Y-52645774D01*
X135787525Y-52565482D01*
X135762940Y-52537109D01*
X135762940Y-52537110D01*
X135654170Y-52442861D01*
X135618937Y-52420218D01*
X135533221Y-52365131D01*
X135533217Y-52365129D01*
X135533216Y-52365129D01*
X135402300Y-52305342D01*
X135304158Y-52276525D01*
X135264342Y-52264834D01*
X135121889Y-52244353D01*
X134550000Y-52244353D01*
X134533346Y-52245544D01*
X134465073Y-52230692D01*
X134415668Y-52181287D01*
X134400500Y-52121860D01*
X134400500Y-48070807D01*
X134420185Y-48003768D01*
X134436819Y-47983126D01*
X142533127Y-39886819D01*
X142594450Y-39853334D01*
X142620808Y-39850500D01*
X143442278Y-39850500D01*
X143509317Y-39870185D01*
X143543853Y-39903377D01*
X143661500Y-40071395D01*
X143661505Y-40071401D01*
X143828599Y-40238495D01*
X143925384Y-40306264D01*
X144022165Y-40374032D01*
X144022167Y-40374033D01*
X144022170Y-40374035D01*
X144236337Y-40473903D01*
X144464592Y-40535063D01*
X144652918Y-40551539D01*
X144699999Y-40555659D01*
X144700000Y-40555659D01*
X144700001Y-40555659D01*
X144739234Y-40552226D01*
X144935408Y-40535063D01*
X145163663Y-40473903D01*
X145377830Y-40374035D01*
X145571401Y-40238495D01*
X145738495Y-40071401D01*
X145874035Y-39877830D01*
X145973903Y-39663663D01*
X146035063Y-39435408D01*
X146055659Y-39200000D01*
X146035063Y-38964592D01*
X145981259Y-38763791D01*
X145973905Y-38736344D01*
X145973904Y-38736343D01*
X145973903Y-38736337D01*
X145874035Y-38522171D01*
X145856147Y-38496623D01*
X145738494Y-38328597D01*
X145571402Y-38161506D01*
X145571395Y-38161501D01*
X145377834Y-38025967D01*
X145377830Y-38025965D01*
X145370980Y-38022771D01*
X145163663Y-37926097D01*
X145163659Y-37926096D01*
X145163655Y-37926094D01*
X144935413Y-37864938D01*
X144935403Y-37864936D01*
X144700001Y-37844341D01*
X144699999Y-37844341D01*
X144464596Y-37864936D01*
X144464586Y-37864938D01*
X144236344Y-37926094D01*
X144236335Y-37926098D01*
X144022171Y-38025964D01*
X144022169Y-38025965D01*
X143828597Y-38161505D01*
X143661506Y-38328596D01*
X143543854Y-38496623D01*
X143489277Y-38540248D01*
X143442279Y-38549500D01*
X142385505Y-38549500D01*
X142369494Y-38547732D01*
X142369472Y-38547974D01*
X142361705Y-38547240D01*
X142361704Y-38547240D01*
X142289797Y-38549500D01*
X142259075Y-38549500D01*
X142259071Y-38549500D01*
X142259061Y-38549501D01*
X142251793Y-38550419D01*
X142245976Y-38550876D01*
X142197436Y-38552402D01*
X142197425Y-38552404D01*
X142177049Y-38558323D01*
X142158008Y-38562266D01*
X142136953Y-38564926D01*
X142136937Y-38564930D01*
X142091771Y-38582812D01*
X142086244Y-38584704D01*
X142039599Y-38598256D01*
X142021327Y-38609062D01*
X142003861Y-38617619D01*
X141984128Y-38625432D01*
X141944830Y-38653983D01*
X141939953Y-38657186D01*
X141926281Y-38665272D01*
X141898132Y-38681920D01*
X141883126Y-38696926D01*
X141868336Y-38709558D01*
X141851167Y-38722032D01*
X141851165Y-38722034D01*
X141820194Y-38759470D01*
X141816262Y-38763791D01*
X133350483Y-47229569D01*
X133337910Y-47239643D01*
X133338065Y-47239830D01*
X133332059Y-47244798D01*
X133311517Y-47266674D01*
X133282809Y-47297244D01*
X133271949Y-47308104D01*
X133261088Y-47318965D01*
X133261078Y-47318977D01*
X133256587Y-47324765D01*
X133252801Y-47329197D01*
X133219552Y-47364606D01*
X133209322Y-47383213D01*
X133198646Y-47399464D01*
X133185640Y-47416232D01*
X133185636Y-47416238D01*
X133166348Y-47460811D01*
X133163777Y-47466058D01*
X133140372Y-47508630D01*
X133140372Y-47508631D01*
X133135091Y-47529199D01*
X133128791Y-47547601D01*
X133120364Y-47567073D01*
X133112766Y-47615047D01*
X133111581Y-47620769D01*
X133099500Y-47667822D01*
X133099499Y-47667829D01*
X133099499Y-47689047D01*
X133097973Y-47708436D01*
X133094653Y-47729402D01*
X133094653Y-47729404D01*
X133099225Y-47777767D01*
X133099500Y-47783606D01*
X133099499Y-52426377D01*
X133079814Y-52493416D01*
X133056705Y-52520087D01*
X133052650Y-52523601D01*
X133037061Y-52537110D01*
X133033713Y-52540011D01*
X133033052Y-52539248D01*
X132975838Y-52570478D01*
X132906147Y-52565482D01*
X132850221Y-52523601D01*
X132825814Y-52458132D01*
X132825500Y-52449307D01*
X132825500Y-39200001D01*
X135344843Y-39200001D01*
X135365430Y-39435315D01*
X135365432Y-39435326D01*
X135426566Y-39663483D01*
X135426570Y-39663492D01*
X135526400Y-39877579D01*
X135526402Y-39877583D01*
X135585072Y-39961373D01*
X135585073Y-39961373D01*
X136216923Y-39329523D01*
X136240507Y-39409844D01*
X136318239Y-39530798D01*
X136426900Y-39624952D01*
X136557685Y-39684680D01*
X136567466Y-39686086D01*
X135938625Y-40314925D01*
X136022421Y-40373599D01*
X136236507Y-40473429D01*
X136236516Y-40473433D01*
X136464673Y-40534567D01*
X136464684Y-40534569D01*
X136699998Y-40555157D01*
X136700002Y-40555157D01*
X136935315Y-40534569D01*
X136935326Y-40534567D01*
X137163483Y-40473433D01*
X137163492Y-40473429D01*
X137377578Y-40373600D01*
X137377582Y-40373598D01*
X137461373Y-40314926D01*
X137461373Y-40314925D01*
X136832533Y-39686086D01*
X136842315Y-39684680D01*
X136973100Y-39624952D01*
X137081761Y-39530798D01*
X137159493Y-39409844D01*
X137183076Y-39329524D01*
X137814925Y-39961373D01*
X137814926Y-39961373D01*
X137873598Y-39877582D01*
X137873600Y-39877578D01*
X137973429Y-39663492D01*
X137973433Y-39663483D01*
X138034567Y-39435326D01*
X138034569Y-39435315D01*
X138055157Y-39200001D01*
X138055157Y-39199998D01*
X138034569Y-38964684D01*
X138034567Y-38964673D01*
X137973433Y-38736516D01*
X137973429Y-38736507D01*
X137873600Y-38522423D01*
X137873599Y-38522421D01*
X137814925Y-38438626D01*
X137814925Y-38438625D01*
X137183076Y-39070475D01*
X137159493Y-38990156D01*
X137081761Y-38869202D01*
X136973100Y-38775048D01*
X136842315Y-38715320D01*
X136832533Y-38713913D01*
X137461373Y-38085073D01*
X137461373Y-38085072D01*
X137377583Y-38026402D01*
X137377579Y-38026400D01*
X137163492Y-37926570D01*
X137163483Y-37926566D01*
X136935326Y-37865432D01*
X136935315Y-37865430D01*
X136700002Y-37844843D01*
X136699998Y-37844843D01*
X136464684Y-37865430D01*
X136464673Y-37865432D01*
X136236516Y-37926566D01*
X136236507Y-37926570D01*
X136022419Y-38026401D01*
X135938625Y-38085072D01*
X136567466Y-38713913D01*
X136557685Y-38715320D01*
X136426900Y-38775048D01*
X136318239Y-38869202D01*
X136240507Y-38990156D01*
X136216923Y-39070475D01*
X135585073Y-38438625D01*
X135585072Y-38438625D01*
X135526401Y-38522419D01*
X135426570Y-38736507D01*
X135426566Y-38736516D01*
X135365432Y-38964673D01*
X135365430Y-38964684D01*
X135344843Y-39199998D01*
X135344843Y-39200001D01*
X132825500Y-39200001D01*
X132825500Y-37610451D01*
X132845185Y-37543412D01*
X132861819Y-37522770D01*
X134022771Y-36361819D01*
X134084094Y-36328334D01*
X134110452Y-36325500D01*
X154489548Y-36325500D01*
X154556587Y-36345185D01*
G37*
%TD.AperFunction*%
%TA.AperFunction,Conductor*%
G36*
X138509317Y-54010185D02*
G01*
X138543853Y-54043377D01*
X138661501Y-54211396D01*
X138661506Y-54211402D01*
X138828597Y-54378493D01*
X138828603Y-54378498D01*
X139014158Y-54508425D01*
X139057783Y-54563002D01*
X139064977Y-54632500D01*
X139033454Y-54694855D01*
X139014158Y-54711575D01*
X138828597Y-54841505D01*
X138661505Y-55008597D01*
X138525965Y-55202169D01*
X138525964Y-55202171D01*
X138426098Y-55416335D01*
X138426094Y-55416344D01*
X138364938Y-55644586D01*
X138364936Y-55644596D01*
X138344341Y-55879999D01*
X138344341Y-55880000D01*
X138364936Y-56115403D01*
X138364938Y-56115413D01*
X138426094Y-56343655D01*
X138426096Y-56343659D01*
X138426097Y-56343663D01*
X138430000Y-56352032D01*
X138525965Y-56557830D01*
X138525967Y-56557834D01*
X138634281Y-56712521D01*
X138661501Y-56751396D01*
X138661506Y-56751402D01*
X138828597Y-56918493D01*
X138828603Y-56918498D01*
X139014594Y-57048730D01*
X139058219Y-57103307D01*
X139065413Y-57172805D01*
X139033890Y-57235160D01*
X139014595Y-57251880D01*
X138828922Y-57381890D01*
X138828920Y-57381891D01*
X138661891Y-57548920D01*
X138661886Y-57548926D01*
X138526400Y-57742420D01*
X138526399Y-57742422D01*
X138426570Y-57956507D01*
X138426567Y-57956513D01*
X138369364Y-58169999D01*
X138369364Y-58170000D01*
X139266314Y-58170000D01*
X139240507Y-58210156D01*
X139200000Y-58348111D01*
X139200000Y-58491889D01*
X139240507Y-58629844D01*
X139266314Y-58670000D01*
X138369364Y-58670000D01*
X138426567Y-58883486D01*
X138426570Y-58883492D01*
X138526399Y-59097578D01*
X138661894Y-59291082D01*
X138828917Y-59458105D01*
X139015031Y-59588425D01*
X139058656Y-59643003D01*
X139065848Y-59712501D01*
X139034326Y-59774856D01*
X139015031Y-59791575D01*
X138828922Y-59921890D01*
X138828920Y-59921891D01*
X138661891Y-60088920D01*
X138661886Y-60088926D01*
X138526400Y-60282420D01*
X138526399Y-60282422D01*
X138426570Y-60496507D01*
X138426567Y-60496513D01*
X138369364Y-60709999D01*
X138369364Y-60710000D01*
X139266314Y-60710000D01*
X139240507Y-60750156D01*
X139200000Y-60888111D01*
X139200000Y-61031889D01*
X139240507Y-61169844D01*
X139266314Y-61210000D01*
X138369364Y-61210000D01*
X138426567Y-61423486D01*
X138426570Y-61423492D01*
X138526399Y-61637578D01*
X138661894Y-61831082D01*
X138828917Y-61998105D01*
X139014595Y-62128119D01*
X139058219Y-62182696D01*
X139065412Y-62252195D01*
X139033890Y-62314549D01*
X139014595Y-62331269D01*
X138828594Y-62461508D01*
X138661505Y-62628597D01*
X138525965Y-62822169D01*
X138525964Y-62822171D01*
X138426098Y-63036335D01*
X138426094Y-63036344D01*
X138364938Y-63264586D01*
X138364936Y-63264596D01*
X138344341Y-63499999D01*
X138344341Y-63500000D01*
X138364936Y-63735403D01*
X138364938Y-63735413D01*
X138426094Y-63963655D01*
X138426096Y-63963659D01*
X138426097Y-63963663D01*
X138430000Y-63972032D01*
X138525965Y-64177830D01*
X138525967Y-64177834D01*
X138634281Y-64332521D01*
X138661501Y-64371396D01*
X138661506Y-64371402D01*
X138827923Y-64537819D01*
X138861408Y-64599142D01*
X138856424Y-64668834D01*
X138814552Y-64724767D01*
X138749088Y-64749184D01*
X138740242Y-64749500D01*
X137720808Y-64749500D01*
X137653769Y-64729815D01*
X137633127Y-64713181D01*
X134436819Y-61516873D01*
X134403334Y-61455550D01*
X134400500Y-61429192D01*
X134400500Y-54877255D01*
X134420185Y-54810216D01*
X134472989Y-54764461D01*
X134542143Y-54754517D01*
X134550000Y-54755647D01*
X134550003Y-54755647D01*
X135121886Y-54755647D01*
X135121889Y-54755647D01*
X135264345Y-54735165D01*
X135402300Y-54694658D01*
X135533216Y-54634871D01*
X135606930Y-54587498D01*
X135654169Y-54557140D01*
X135654166Y-54557143D01*
X135762939Y-54462891D01*
X135762943Y-54462887D01*
X135857088Y-54354237D01*
X135857090Y-54354233D01*
X135857097Y-54354226D01*
X135934904Y-54233155D01*
X135934907Y-54233147D01*
X135934910Y-54233143D01*
X135994814Y-54101971D01*
X135995250Y-54100263D01*
X136001329Y-54079559D01*
X136039107Y-54020783D01*
X136102664Y-53991761D01*
X136120305Y-53990500D01*
X138442278Y-53990500D01*
X138509317Y-54010185D01*
G37*
%TD.AperFunction*%
%TA.AperFunction,Conductor*%
G36*
X139950000Y-60524498D02*
G01*
X139842315Y-60475320D01*
X139735763Y-60460000D01*
X139664237Y-60460000D01*
X139557685Y-60475320D01*
X139450000Y-60524498D01*
X139450000Y-58855501D01*
X139557685Y-58904680D01*
X139664237Y-58920000D01*
X139735763Y-58920000D01*
X139842315Y-58904680D01*
X139950000Y-58855501D01*
X139950000Y-60524498D01*
G37*
%TD.AperFunction*%
%TA.AperFunction,Conductor*%
G36*
X192456587Y-34445185D02*
G01*
X192477229Y-34461819D01*
X194138181Y-36122771D01*
X194171666Y-36184094D01*
X194174500Y-36210452D01*
X194174500Y-44391035D01*
X194154815Y-44458074D01*
X194102011Y-44503829D01*
X194032853Y-44513773D01*
X194006743Y-44506114D01*
X194006454Y-44506891D01*
X194002306Y-44505344D01*
X194002301Y-44505342D01*
X194002300Y-44505342D01*
X193889411Y-44472195D01*
X193864342Y-44464834D01*
X193721889Y-44444353D01*
X193150000Y-44444353D01*
X193078040Y-44449499D01*
X193040728Y-44460455D01*
X192988149Y-44464215D01*
X192850000Y-44444353D01*
X192278111Y-44444353D01*
X192278110Y-44444353D01*
X192135658Y-44464834D01*
X192135656Y-44464834D01*
X191997700Y-44505342D01*
X191866784Y-44565129D01*
X191866782Y-44565129D01*
X191745831Y-44642860D01*
X191637060Y-44737108D01*
X191637058Y-44737110D01*
X191542911Y-44845762D01*
X191542896Y-44845783D01*
X191465105Y-44966828D01*
X191465095Y-44966846D01*
X191439902Y-45022012D01*
X191394147Y-45074816D01*
X191327108Y-45094500D01*
X189235227Y-45094500D01*
X189168188Y-45074815D01*
X189133652Y-45041623D01*
X188998494Y-44848597D01*
X188831402Y-44681506D01*
X188831401Y-44681505D01*
X188645842Y-44551575D01*
X188645405Y-44551269D01*
X188601781Y-44496692D01*
X188594588Y-44427193D01*
X188626110Y-44364839D01*
X188645405Y-44348119D01*
X188831082Y-44218105D01*
X188998105Y-44051082D01*
X189133600Y-43857578D01*
X189233429Y-43643492D01*
X189233432Y-43643486D01*
X189290636Y-43430000D01*
X188393686Y-43430000D01*
X188419493Y-43389844D01*
X188460000Y-43251889D01*
X188460000Y-43108111D01*
X188419493Y-42970156D01*
X188393686Y-42930000D01*
X189290636Y-42930000D01*
X189290635Y-42929999D01*
X189233432Y-42716513D01*
X189233429Y-42716507D01*
X189133600Y-42502422D01*
X189133599Y-42502420D01*
X188998113Y-42308926D01*
X188998108Y-42308920D01*
X188831078Y-42141890D01*
X188645405Y-42011879D01*
X188601780Y-41957302D01*
X188594588Y-41887804D01*
X188626110Y-41825449D01*
X188645406Y-41808730D01*
X188645842Y-41808425D01*
X188831401Y-41678495D01*
X188998495Y-41511401D01*
X189134035Y-41317830D01*
X189233903Y-41103663D01*
X189295063Y-40875408D01*
X189315659Y-40640000D01*
X189295063Y-40404592D01*
X189233903Y-40176337D01*
X189134035Y-39962171D01*
X189133477Y-39961373D01*
X188998494Y-39768597D01*
X188831402Y-39601506D01*
X188831396Y-39601501D01*
X188645842Y-39471575D01*
X188602217Y-39416998D01*
X188595023Y-39347500D01*
X188626546Y-39285145D01*
X188645842Y-39268425D01*
X188743564Y-39199999D01*
X188831401Y-39138495D01*
X188998495Y-38971401D01*
X189134035Y-38777830D01*
X189233903Y-38563663D01*
X189295063Y-38335408D01*
X189315659Y-38100000D01*
X189295063Y-37864592D01*
X189233903Y-37636337D01*
X189134035Y-37422171D01*
X189128425Y-37414158D01*
X188998494Y-37228597D01*
X188831402Y-37061506D01*
X188831396Y-37061501D01*
X188645842Y-36931575D01*
X188602217Y-36876998D01*
X188595023Y-36807500D01*
X188626546Y-36745145D01*
X188645842Y-36728425D01*
X188742970Y-36660415D01*
X188831401Y-36598495D01*
X188998495Y-36431401D01*
X189134035Y-36237830D01*
X189233903Y-36023663D01*
X189295063Y-35795408D01*
X189315659Y-35560000D01*
X189295063Y-35324592D01*
X189240614Y-35121382D01*
X189233905Y-35096344D01*
X189233904Y-35096343D01*
X189233903Y-35096337D01*
X189134035Y-34882171D01*
X189121757Y-34864635D01*
X188998494Y-34688597D01*
X188947078Y-34637181D01*
X188913593Y-34575858D01*
X188918577Y-34506166D01*
X188960449Y-34450233D01*
X189025913Y-34425816D01*
X189034759Y-34425500D01*
X192389548Y-34425500D01*
X192456587Y-34445185D01*
G37*
%TD.AperFunction*%
%TA.AperFunction,Conductor*%
G36*
X198242539Y-30120185D02*
G01*
X198288294Y-30172989D01*
X198299500Y-30224500D01*
X198299500Y-110175500D01*
X198279815Y-110242539D01*
X198227011Y-110288294D01*
X198175500Y-110299500D01*
X129624500Y-110299500D01*
X129557461Y-110279815D01*
X129511706Y-110227011D01*
X129500500Y-110175500D01*
X129500500Y-36680195D01*
X130169840Y-36680195D01*
X130174225Y-36726583D01*
X130174500Y-36732421D01*
X130174500Y-105417255D01*
X130172775Y-105432872D01*
X130173061Y-105432899D01*
X130172326Y-105440665D01*
X130174500Y-105509814D01*
X130174500Y-105539343D01*
X130174501Y-105539360D01*
X130175368Y-105546231D01*
X130175826Y-105552050D01*
X130177290Y-105598624D01*
X130177291Y-105598627D01*
X130182880Y-105617867D01*
X130186824Y-105636911D01*
X130189336Y-105656791D01*
X130206490Y-105700119D01*
X130208382Y-105705647D01*
X130221381Y-105750388D01*
X130231580Y-105767634D01*
X130240138Y-105785103D01*
X130247514Y-105803732D01*
X130274898Y-105841423D01*
X130278106Y-105846307D01*
X130301827Y-105886416D01*
X130301833Y-105886424D01*
X130315990Y-105900580D01*
X130328628Y-105915376D01*
X130340405Y-105931586D01*
X130340406Y-105931587D01*
X130376309Y-105961288D01*
X130380620Y-105965210D01*
X132308876Y-107893466D01*
X133599194Y-109183784D01*
X133609019Y-109196048D01*
X133609240Y-109195866D01*
X133614210Y-109201873D01*
X133614213Y-109201876D01*
X133614214Y-109201877D01*
X133664651Y-109249241D01*
X133685530Y-109270120D01*
X133691004Y-109274366D01*
X133695442Y-109278156D01*
X133729418Y-109310062D01*
X133729422Y-109310064D01*
X133746973Y-109319713D01*
X133763231Y-109330392D01*
X133779064Y-109342674D01*
X133801015Y-109352172D01*
X133821837Y-109361183D01*
X133827081Y-109363752D01*
X133867908Y-109386197D01*
X133887312Y-109391179D01*
X133905710Y-109397478D01*
X133924105Y-109405438D01*
X133970129Y-109412726D01*
X133975832Y-109413907D01*
X134020981Y-109425500D01*
X134041016Y-109425500D01*
X134060413Y-109427026D01*
X134080196Y-109430160D01*
X134126583Y-109425775D01*
X134132422Y-109425500D01*
X175817257Y-109425500D01*
X175832877Y-109427224D01*
X175832904Y-109426939D01*
X175840660Y-109427671D01*
X175840667Y-109427673D01*
X175909814Y-109425500D01*
X175939350Y-109425500D01*
X175946228Y-109424630D01*
X175952041Y-109424172D01*
X175998627Y-109422709D01*
X176017869Y-109417117D01*
X176036912Y-109413174D01*
X176056792Y-109410664D01*
X176100122Y-109393507D01*
X176105646Y-109391617D01*
X176109396Y-109390527D01*
X176150390Y-109378618D01*
X176167629Y-109368422D01*
X176185103Y-109359862D01*
X176203727Y-109352488D01*
X176203727Y-109352487D01*
X176203732Y-109352486D01*
X176241449Y-109325082D01*
X176246305Y-109321892D01*
X176286420Y-109298170D01*
X176300589Y-109283999D01*
X176315379Y-109271368D01*
X176331587Y-109259594D01*
X176361299Y-109223676D01*
X176365212Y-109219376D01*
X180333788Y-105250801D01*
X180346042Y-105240986D01*
X180345859Y-105240764D01*
X180351866Y-105235792D01*
X180351877Y-105235786D01*
X180382775Y-105202882D01*
X180399227Y-105185364D01*
X180409671Y-105174918D01*
X180420120Y-105164471D01*
X180424379Y-105158978D01*
X180428152Y-105154561D01*
X180460062Y-105120582D01*
X180469715Y-105103020D01*
X180480389Y-105086770D01*
X180492673Y-105070936D01*
X180511180Y-105028167D01*
X180513749Y-105022924D01*
X180536196Y-104982093D01*
X180536197Y-104982092D01*
X180541177Y-104962691D01*
X180547478Y-104944288D01*
X180555438Y-104925896D01*
X180562730Y-104879849D01*
X180563911Y-104874152D01*
X180575500Y-104829019D01*
X180575500Y-104808974D01*
X180577025Y-104789591D01*
X180580160Y-104769804D01*
X180575775Y-104723415D01*
X180575500Y-104717577D01*
X180575500Y-92873661D01*
X180595185Y-92806622D01*
X180647989Y-92760867D01*
X180717145Y-92750923D01*
X180750000Y-92755647D01*
X180750003Y-92755647D01*
X181321886Y-92755647D01*
X181321889Y-92755647D01*
X181464345Y-92735165D01*
X181602300Y-92694658D01*
X181733216Y-92634871D01*
X181854164Y-92557143D01*
X181854169Y-92557140D01*
X181854166Y-92557143D01*
X181962939Y-92462891D01*
X181962943Y-92462887D01*
X182057088Y-92354237D01*
X182057090Y-92354233D01*
X182057097Y-92354226D01*
X182134904Y-92233155D01*
X182164533Y-92168277D01*
X182178366Y-92137988D01*
X182224121Y-92085184D01*
X182291160Y-92065500D01*
X184144773Y-92065500D01*
X184211812Y-92085185D01*
X184246348Y-92118377D01*
X184381501Y-92311396D01*
X184381506Y-92311402D01*
X184548597Y-92478493D01*
X184548603Y-92478498D01*
X184734158Y-92608425D01*
X184777783Y-92663002D01*
X184784977Y-92732500D01*
X184753454Y-92794855D01*
X184734158Y-92811575D01*
X184548597Y-92941505D01*
X184381505Y-93108597D01*
X184245965Y-93302169D01*
X184245964Y-93302171D01*
X184146098Y-93516335D01*
X184146094Y-93516344D01*
X184084938Y-93744586D01*
X184084936Y-93744596D01*
X184064341Y-93979999D01*
X184064341Y-93980000D01*
X184084936Y-94215403D01*
X184084938Y-94215413D01*
X184146094Y-94443655D01*
X184146096Y-94443659D01*
X184146097Y-94443663D01*
X184150000Y-94452032D01*
X184245965Y-94657830D01*
X184245967Y-94657834D01*
X184354281Y-94812521D01*
X184381501Y-94851396D01*
X184381506Y-94851402D01*
X184548597Y-95018493D01*
X184548603Y-95018498D01*
X184734594Y-95148730D01*
X184778219Y-95203307D01*
X184785413Y-95272805D01*
X184753890Y-95335160D01*
X184734595Y-95351880D01*
X184548922Y-95481890D01*
X184548920Y-95481891D01*
X184381891Y-95648920D01*
X184381886Y-95648926D01*
X184246400Y-95842420D01*
X184246399Y-95842422D01*
X184146570Y-96056507D01*
X184146567Y-96056513D01*
X184089364Y-96269999D01*
X184089364Y-96270000D01*
X184986314Y-96270000D01*
X184960507Y-96310156D01*
X184920000Y-96448111D01*
X184920000Y-96591889D01*
X184960507Y-96729844D01*
X184986314Y-96770000D01*
X184089364Y-96770000D01*
X184146567Y-96983486D01*
X184146570Y-96983492D01*
X184246399Y-97197578D01*
X184381894Y-97391082D01*
X184548917Y-97558105D01*
X184734595Y-97688119D01*
X184778219Y-97742696D01*
X184785412Y-97812195D01*
X184753890Y-97874549D01*
X184734595Y-97891269D01*
X184548594Y-98021508D01*
X184381505Y-98188597D01*
X184245965Y-98382169D01*
X184245964Y-98382171D01*
X184146098Y-98596335D01*
X184146094Y-98596344D01*
X184084938Y-98824586D01*
X184084936Y-98824596D01*
X184064341Y-99059999D01*
X184064341Y-99060000D01*
X184084936Y-99295403D01*
X184084938Y-99295413D01*
X184146094Y-99523655D01*
X184146096Y-99523659D01*
X184146097Y-99523663D01*
X184150000Y-99532032D01*
X184245965Y-99737830D01*
X184245967Y-99737834D01*
X184354281Y-99892521D01*
X184381501Y-99931396D01*
X184381506Y-99931402D01*
X184548597Y-100098493D01*
X184548603Y-100098498D01*
X184734158Y-100228425D01*
X184777783Y-100283002D01*
X184784977Y-100352500D01*
X184753454Y-100414855D01*
X184734158Y-100431575D01*
X184548597Y-100561505D01*
X184381505Y-100728597D01*
X184245965Y-100922169D01*
X184245964Y-100922171D01*
X184146098Y-101136335D01*
X184146094Y-101136344D01*
X184084938Y-101364586D01*
X184084936Y-101364596D01*
X184064341Y-101599999D01*
X184064341Y-101600000D01*
X184084936Y-101835403D01*
X184084938Y-101835413D01*
X184146094Y-102063655D01*
X184146096Y-102063659D01*
X184146097Y-102063663D01*
X184150000Y-102072032D01*
X184245965Y-102277830D01*
X184245967Y-102277834D01*
X184354281Y-102432521D01*
X184381501Y-102471396D01*
X184381506Y-102471402D01*
X184548597Y-102638493D01*
X184548603Y-102638498D01*
X184734158Y-102768425D01*
X184777783Y-102823002D01*
X184784977Y-102892500D01*
X184753454Y-102954855D01*
X184734158Y-102971575D01*
X184548597Y-103101505D01*
X184381505Y-103268597D01*
X184245965Y-103462169D01*
X184245964Y-103462171D01*
X184146098Y-103676335D01*
X184146094Y-103676344D01*
X184084938Y-103904586D01*
X184084936Y-103904596D01*
X184064341Y-104139999D01*
X184064341Y-104140000D01*
X184084936Y-104375403D01*
X184084938Y-104375413D01*
X184146094Y-104603655D01*
X184146096Y-104603659D01*
X184146097Y-104603663D01*
X184205450Y-104730945D01*
X184245965Y-104817830D01*
X184245967Y-104817834D01*
X184322570Y-104927233D01*
X184381505Y-105011401D01*
X184548599Y-105178495D01*
X184590000Y-105207484D01*
X184742165Y-105314032D01*
X184742167Y-105314033D01*
X184742170Y-105314035D01*
X184956337Y-105413903D01*
X185184592Y-105475063D01*
X185372918Y-105491539D01*
X185419999Y-105495659D01*
X185420000Y-105495659D01*
X185420001Y-105495659D01*
X185459234Y-105492226D01*
X185655408Y-105475063D01*
X185883663Y-105413903D01*
X186097830Y-105314035D01*
X186291401Y-105178495D01*
X186458495Y-105011401D01*
X186588424Y-104825842D01*
X186643002Y-104782217D01*
X186712500Y-104775023D01*
X186774855Y-104806546D01*
X186791575Y-104825842D01*
X186921500Y-105011395D01*
X186921505Y-105011401D01*
X187088599Y-105178495D01*
X187130000Y-105207484D01*
X187282165Y-105314032D01*
X187282167Y-105314033D01*
X187282170Y-105314035D01*
X187496337Y-105413903D01*
X187724592Y-105475063D01*
X187912918Y-105491539D01*
X187959999Y-105495659D01*
X187960000Y-105495659D01*
X187960001Y-105495659D01*
X187999234Y-105492226D01*
X188195408Y-105475063D01*
X188423663Y-105413903D01*
X188637830Y-105314035D01*
X188831401Y-105178495D01*
X188998495Y-105011401D01*
X189134035Y-104817830D01*
X189233903Y-104603663D01*
X189295063Y-104375408D01*
X189315659Y-104140000D01*
X189295063Y-103904592D01*
X189233903Y-103676337D01*
X189134035Y-103462171D01*
X189128425Y-103454158D01*
X188998494Y-103268597D01*
X188831402Y-103101506D01*
X188831396Y-103101501D01*
X188645842Y-102971575D01*
X188602217Y-102916998D01*
X188595023Y-102847500D01*
X188626546Y-102785145D01*
X188645842Y-102768425D01*
X188668026Y-102752891D01*
X188831401Y-102638495D01*
X188998495Y-102471401D01*
X189134035Y-102277830D01*
X189233903Y-102063663D01*
X189295063Y-101835408D01*
X189315659Y-101600000D01*
X189295063Y-101364592D01*
X189233903Y-101136337D01*
X189134035Y-100922171D01*
X189128425Y-100914158D01*
X188998494Y-100728597D01*
X188831402Y-100561506D01*
X188831401Y-100561505D01*
X188645842Y-100431575D01*
X188645841Y-100431574D01*
X188602216Y-100376997D01*
X188595024Y-100307498D01*
X188626546Y-100245144D01*
X188645836Y-100228428D01*
X188831401Y-100098495D01*
X188998495Y-99931401D01*
X189134035Y-99737830D01*
X189233903Y-99523663D01*
X189295063Y-99295408D01*
X189315659Y-99060000D01*
X189295063Y-98824592D01*
X189233903Y-98596337D01*
X189134035Y-98382171D01*
X189128425Y-98374158D01*
X188998494Y-98188597D01*
X188831402Y-98021506D01*
X188831396Y-98021501D01*
X188645842Y-97891575D01*
X188602217Y-97836998D01*
X188595023Y-97767500D01*
X188626546Y-97705145D01*
X188645842Y-97688425D01*
X188668026Y-97672891D01*
X188831401Y-97558495D01*
X188998495Y-97391401D01*
X189134035Y-97197830D01*
X189233903Y-96983663D01*
X189295063Y-96755408D01*
X189315659Y-96520000D01*
X189295063Y-96284592D01*
X189233903Y-96056337D01*
X189134035Y-95842171D01*
X189128731Y-95834595D01*
X188998494Y-95648597D01*
X188831402Y-95481506D01*
X188831401Y-95481505D01*
X188669908Y-95368426D01*
X188645841Y-95351574D01*
X188602216Y-95296997D01*
X188595024Y-95227498D01*
X188626546Y-95165144D01*
X188645836Y-95148428D01*
X188831401Y-95018495D01*
X188998495Y-94851401D01*
X189134035Y-94657830D01*
X189233903Y-94443663D01*
X189295063Y-94215408D01*
X189315659Y-93980000D01*
X189312663Y-93945762D01*
X189295063Y-93744596D01*
X189295063Y-93744592D01*
X189233903Y-93516337D01*
X189134035Y-93302171D01*
X189133652Y-93301623D01*
X188998494Y-93108597D01*
X188831402Y-92941506D01*
X188831396Y-92941501D01*
X188645842Y-92811575D01*
X188602217Y-92756998D01*
X188595023Y-92687500D01*
X188626546Y-92625145D01*
X188645842Y-92608425D01*
X188719090Y-92557136D01*
X188831401Y-92478495D01*
X188998495Y-92311401D01*
X189134035Y-92117830D01*
X189233903Y-91903663D01*
X189295063Y-91675408D01*
X189315659Y-91440000D01*
X189295063Y-91204592D01*
X189241462Y-91004548D01*
X189233905Y-90976344D01*
X189233904Y-90976343D01*
X189233903Y-90976337D01*
X189134035Y-90762171D01*
X189133652Y-90761623D01*
X188998494Y-90568597D01*
X188831402Y-90401506D01*
X188831401Y-90401505D01*
X188678808Y-90294658D01*
X188645841Y-90271574D01*
X188602216Y-90216997D01*
X188595024Y-90147498D01*
X188626546Y-90085144D01*
X188645836Y-90068428D01*
X188831401Y-89938495D01*
X188998495Y-89771401D01*
X189134035Y-89577830D01*
X189233903Y-89363663D01*
X189295063Y-89135408D01*
X189315659Y-88900000D01*
X189295063Y-88664592D01*
X189233903Y-88436337D01*
X189187537Y-88336905D01*
X189177045Y-88267827D01*
X189205565Y-88204043D01*
X189264041Y-88165804D01*
X189299919Y-88160500D01*
X194882257Y-88160500D01*
X194897877Y-88162224D01*
X194897904Y-88161939D01*
X194905660Y-88162671D01*
X194905667Y-88162673D01*
X194974814Y-88160500D01*
X195004350Y-88160500D01*
X195011228Y-88159630D01*
X195017041Y-88159172D01*
X195063627Y-88157709D01*
X195082869Y-88152117D01*
X195101912Y-88148174D01*
X195121792Y-88145664D01*
X195165122Y-88128507D01*
X195170646Y-88126617D01*
X195174396Y-88125527D01*
X195215390Y-88113618D01*
X195232629Y-88103422D01*
X195250103Y-88094862D01*
X195268727Y-88087488D01*
X195268727Y-88087487D01*
X195268732Y-88087486D01*
X195306449Y-88060082D01*
X195311305Y-88056892D01*
X195351420Y-88033170D01*
X195365589Y-88018999D01*
X195380379Y-88006368D01*
X195396587Y-87994594D01*
X195426299Y-87958676D01*
X195430212Y-87954376D01*
X196683787Y-86700802D01*
X196696042Y-86690986D01*
X196695859Y-86690764D01*
X196701866Y-86685792D01*
X196701877Y-86685786D01*
X196734461Y-86651087D01*
X196749227Y-86635364D01*
X196759671Y-86624918D01*
X196770120Y-86614471D01*
X196774379Y-86608978D01*
X196778152Y-86604561D01*
X196810062Y-86570582D01*
X196819713Y-86553024D01*
X196830396Y-86536761D01*
X196842673Y-86520936D01*
X196861185Y-86478153D01*
X196863738Y-86472941D01*
X196886197Y-86432092D01*
X196891180Y-86412680D01*
X196897481Y-86394280D01*
X196905437Y-86375896D01*
X196912729Y-86329852D01*
X196913906Y-86324171D01*
X196925500Y-86279019D01*
X196925500Y-86258982D01*
X196927027Y-86239582D01*
X196930160Y-86219804D01*
X196925775Y-86173415D01*
X196925500Y-86167577D01*
X196925500Y-69782742D01*
X196927224Y-69767122D01*
X196926939Y-69767096D01*
X196927671Y-69759340D01*
X196927673Y-69759333D01*
X196925500Y-69690185D01*
X196925500Y-69660650D01*
X196924631Y-69653772D01*
X196924172Y-69647943D01*
X196922709Y-69601372D01*
X196917122Y-69582144D01*
X196913174Y-69563084D01*
X196913150Y-69562891D01*
X196910664Y-69543208D01*
X196910663Y-69543206D01*
X196910663Y-69543204D01*
X196893512Y-69499887D01*
X196891619Y-69494358D01*
X196878618Y-69449609D01*
X196878616Y-69449606D01*
X196868423Y-69432371D01*
X196859861Y-69414894D01*
X196852487Y-69396270D01*
X196851930Y-69395503D01*
X196825079Y-69358545D01*
X196821888Y-69353686D01*
X196809746Y-69333155D01*
X196798170Y-69313580D01*
X196798168Y-69313578D01*
X196798165Y-69313574D01*
X196784006Y-69299415D01*
X196771368Y-69284619D01*
X196759594Y-69268413D01*
X196756486Y-69265842D01*
X196723688Y-69238709D01*
X196719376Y-69234786D01*
X195700803Y-68216212D01*
X195690980Y-68203950D01*
X195690759Y-68204134D01*
X195685786Y-68198123D01*
X195635364Y-68150773D01*
X195624919Y-68140328D01*
X195614475Y-68129883D01*
X195608986Y-68125625D01*
X195604561Y-68121847D01*
X195570582Y-68089938D01*
X195570580Y-68089936D01*
X195570577Y-68089935D01*
X195553029Y-68080288D01*
X195536763Y-68069604D01*
X195520933Y-68057325D01*
X195478168Y-68038818D01*
X195472922Y-68036248D01*
X195432093Y-68013803D01*
X195432092Y-68013802D01*
X195412693Y-68008822D01*
X195394281Y-68002518D01*
X195375898Y-67994562D01*
X195375892Y-67994560D01*
X195329874Y-67987272D01*
X195324152Y-67986087D01*
X195279021Y-67974500D01*
X195279019Y-67974500D01*
X195258984Y-67974500D01*
X195239586Y-67972973D01*
X195232162Y-67971797D01*
X195219805Y-67969840D01*
X195219804Y-67969840D01*
X195173416Y-67974225D01*
X195167578Y-67974500D01*
X194663758Y-67974500D01*
X194596719Y-67954815D01*
X194550964Y-67902012D01*
X194534904Y-67866845D01*
X194534899Y-67866838D01*
X194534894Y-67866828D01*
X194457103Y-67745783D01*
X194457088Y-67745762D01*
X194362943Y-67637113D01*
X194362940Y-67637110D01*
X194254170Y-67542861D01*
X194227156Y-67525500D01*
X194133221Y-67465131D01*
X194133217Y-67465129D01*
X194133216Y-67465129D01*
X194002300Y-67405342D01*
X193904158Y-67376525D01*
X193864342Y-67364834D01*
X193721889Y-67344353D01*
X193150000Y-67344353D01*
X193078040Y-67349499D01*
X193040728Y-67360455D01*
X192988149Y-67364215D01*
X192850000Y-67344353D01*
X192278111Y-67344353D01*
X192278110Y-67344353D01*
X192135658Y-67364834D01*
X192135656Y-67364834D01*
X191997700Y-67405342D01*
X191866784Y-67465129D01*
X191866782Y-67465129D01*
X191745831Y-67542860D01*
X191745829Y-67542861D01*
X191745830Y-67542861D01*
X191745826Y-67542864D01*
X191732596Y-67554327D01*
X191637060Y-67637108D01*
X191637058Y-67637110D01*
X191542911Y-67745762D01*
X191542896Y-67745783D01*
X191465102Y-67866833D01*
X191465095Y-67866845D01*
X191458170Y-67882011D01*
X191412415Y-67934815D01*
X191345375Y-67954500D01*
X189235227Y-67954500D01*
X189168188Y-67934815D01*
X189133652Y-67901623D01*
X188998494Y-67708597D01*
X188831402Y-67541506D01*
X188831396Y-67541501D01*
X188645842Y-67411575D01*
X188602217Y-67356998D01*
X188595023Y-67287500D01*
X188626546Y-67225145D01*
X188645842Y-67208425D01*
X188676594Y-67186892D01*
X188831401Y-67078495D01*
X188998495Y-66911401D01*
X189134035Y-66717830D01*
X189233903Y-66503663D01*
X189295063Y-66275408D01*
X189315659Y-66040000D01*
X189313001Y-66009625D01*
X189302245Y-65886684D01*
X189295063Y-65804592D01*
X189233903Y-65576337D01*
X189134035Y-65362171D01*
X189128425Y-65354158D01*
X188998494Y-65168597D01*
X188831402Y-65001506D01*
X188831401Y-65001505D01*
X188693298Y-64904804D01*
X188645841Y-64871574D01*
X188602216Y-64816997D01*
X188595024Y-64747498D01*
X188626546Y-64685144D01*
X188645836Y-64668428D01*
X188831401Y-64538495D01*
X188998495Y-64371401D01*
X189134035Y-64177830D01*
X189233903Y-63963663D01*
X189295063Y-63735408D01*
X189315659Y-63500000D01*
X189295063Y-63264592D01*
X189233903Y-63036337D01*
X189134035Y-62822171D01*
X189133652Y-62821623D01*
X188998494Y-62628597D01*
X188831402Y-62461506D01*
X188831395Y-62461501D01*
X188637834Y-62325967D01*
X188637830Y-62325965D01*
X188637828Y-62325964D01*
X188423663Y-62226097D01*
X188423659Y-62226096D01*
X188423655Y-62226094D01*
X188195413Y-62164938D01*
X188195403Y-62164936D01*
X187960001Y-62144341D01*
X187959999Y-62144341D01*
X187724596Y-62164936D01*
X187724586Y-62164938D01*
X187496344Y-62226094D01*
X187496335Y-62226098D01*
X187282171Y-62325964D01*
X187282169Y-62325965D01*
X187088600Y-62461503D01*
X186966673Y-62583430D01*
X186905350Y-62616914D01*
X186835658Y-62611930D01*
X186779725Y-62570058D01*
X186762810Y-62539081D01*
X186713797Y-62407671D01*
X186713793Y-62407664D01*
X186627547Y-62292455D01*
X186627544Y-62292452D01*
X186512335Y-62206206D01*
X186512328Y-62206202D01*
X186377482Y-62155908D01*
X186377483Y-62155908D01*
X186317883Y-62149501D01*
X186317881Y-62149500D01*
X186317873Y-62149500D01*
X186317864Y-62149500D01*
X184522129Y-62149500D01*
X184522123Y-62149501D01*
X184462516Y-62155908D01*
X184327671Y-62206202D01*
X184327664Y-62206206D01*
X184212455Y-62292452D01*
X184212452Y-62292455D01*
X184126206Y-62407664D01*
X184126202Y-62407671D01*
X184075908Y-62542517D01*
X184069501Y-62602116D01*
X184069500Y-62602135D01*
X184069500Y-64397870D01*
X184069501Y-64397876D01*
X184075908Y-64457483D01*
X184126202Y-64592328D01*
X184126206Y-64592335D01*
X184212452Y-64707544D01*
X184212455Y-64707547D01*
X184327664Y-64793793D01*
X184327671Y-64793797D01*
X184459081Y-64842810D01*
X184515015Y-64884681D01*
X184539432Y-64950145D01*
X184524580Y-65018418D01*
X184503430Y-65046673D01*
X184381503Y-65168600D01*
X184245965Y-65362169D01*
X184245964Y-65362171D01*
X184146098Y-65576335D01*
X184146094Y-65576344D01*
X184084938Y-65804586D01*
X184084936Y-65804596D01*
X184064341Y-66039999D01*
X184064341Y-66040000D01*
X184084936Y-66275403D01*
X184084938Y-66275413D01*
X184146094Y-66503655D01*
X184146096Y-66503659D01*
X184146097Y-66503663D01*
X184218064Y-66657997D01*
X184245965Y-66717830D01*
X184245967Y-66717834D01*
X184346707Y-66861704D01*
X184381501Y-66911396D01*
X184381506Y-66911402D01*
X184548597Y-67078493D01*
X184548603Y-67078498D01*
X184734158Y-67208425D01*
X184777783Y-67263002D01*
X184784977Y-67332500D01*
X184753454Y-67394855D01*
X184734158Y-67411575D01*
X184548597Y-67541505D01*
X184381505Y-67708597D01*
X184245965Y-67902169D01*
X184245964Y-67902171D01*
X184146098Y-68116335D01*
X184146094Y-68116344D01*
X184084938Y-68344586D01*
X184084936Y-68344596D01*
X184064341Y-68579999D01*
X184064341Y-68580000D01*
X184084936Y-68815403D01*
X184084938Y-68815413D01*
X184146094Y-69043655D01*
X184146096Y-69043659D01*
X184146097Y-69043663D01*
X184183557Y-69123995D01*
X184245965Y-69257830D01*
X184245967Y-69257834D01*
X184332427Y-69381310D01*
X184381501Y-69451396D01*
X184381506Y-69451402D01*
X184548597Y-69618493D01*
X184548603Y-69618498D01*
X184734158Y-69748425D01*
X184777783Y-69803002D01*
X184784977Y-69872500D01*
X184753454Y-69934855D01*
X184734158Y-69951575D01*
X184548597Y-70081505D01*
X184381505Y-70248597D01*
X184245965Y-70442169D01*
X184245964Y-70442171D01*
X184146098Y-70656335D01*
X184146094Y-70656344D01*
X184084938Y-70884586D01*
X184084936Y-70884596D01*
X184064341Y-71119999D01*
X184064341Y-71120000D01*
X184084936Y-71355403D01*
X184084938Y-71355413D01*
X184146094Y-71583655D01*
X184146096Y-71583659D01*
X184146097Y-71583663D01*
X184221563Y-71745500D01*
X184245965Y-71797830D01*
X184245967Y-71797834D01*
X184333158Y-71922354D01*
X184381501Y-71991396D01*
X184381506Y-71991402D01*
X184548597Y-72158493D01*
X184548603Y-72158498D01*
X184734158Y-72288425D01*
X184777783Y-72343002D01*
X184784977Y-72412500D01*
X184753454Y-72474855D01*
X184734158Y-72491575D01*
X184548597Y-72621505D01*
X184381505Y-72788597D01*
X184245965Y-72982169D01*
X184245964Y-72982171D01*
X184146098Y-73196335D01*
X184146094Y-73196344D01*
X184084938Y-73424586D01*
X184084936Y-73424596D01*
X184064341Y-73659999D01*
X184064341Y-73660000D01*
X184084936Y-73895403D01*
X184084938Y-73895413D01*
X184146094Y-74123655D01*
X184146096Y-74123659D01*
X184146097Y-74123663D01*
X184199198Y-74237538D01*
X184245965Y-74337830D01*
X184245967Y-74337834D01*
X184345384Y-74479815D01*
X184381501Y-74531396D01*
X184381506Y-74531402D01*
X184548597Y-74698493D01*
X184548603Y-74698498D01*
X184734158Y-74828425D01*
X184777783Y-74883002D01*
X184784977Y-74952500D01*
X184753454Y-75014855D01*
X184734158Y-75031575D01*
X184548597Y-75161505D01*
X184381505Y-75328597D01*
X184245965Y-75522169D01*
X184245964Y-75522171D01*
X184146098Y-75736335D01*
X184146094Y-75736344D01*
X184084938Y-75964586D01*
X184084936Y-75964596D01*
X184064341Y-76199999D01*
X184064341Y-76200000D01*
X184084936Y-76435403D01*
X184084938Y-76435413D01*
X184146094Y-76663655D01*
X184146096Y-76663659D01*
X184146097Y-76663663D01*
X184171051Y-76717176D01*
X184245965Y-76877830D01*
X184245967Y-76877834D01*
X184354281Y-77032521D01*
X184381501Y-77071396D01*
X184381506Y-77071402D01*
X184548597Y-77238493D01*
X184548603Y-77238498D01*
X184734158Y-77368425D01*
X184777783Y-77423002D01*
X184784977Y-77492500D01*
X184753454Y-77554855D01*
X184734158Y-77571575D01*
X184548597Y-77701505D01*
X184381505Y-77868597D01*
X184245965Y-78062169D01*
X184245964Y-78062171D01*
X184146098Y-78276335D01*
X184146094Y-78276344D01*
X184084938Y-78504586D01*
X184084936Y-78504596D01*
X184064341Y-78739999D01*
X184064341Y-78740000D01*
X184084936Y-78975403D01*
X184084938Y-78975413D01*
X184146094Y-79203655D01*
X184146096Y-79203659D01*
X184146097Y-79203663D01*
X184212843Y-79346800D01*
X184245965Y-79417830D01*
X184245967Y-79417834D01*
X184341774Y-79554660D01*
X184381501Y-79611396D01*
X184381506Y-79611402D01*
X184548597Y-79778493D01*
X184548603Y-79778498D01*
X184734158Y-79908425D01*
X184777783Y-79963002D01*
X184784977Y-80032500D01*
X184753454Y-80094855D01*
X184734158Y-80111575D01*
X184548597Y-80241505D01*
X184381505Y-80408597D01*
X184245965Y-80602169D01*
X184245964Y-80602171D01*
X184146098Y-80816335D01*
X184146094Y-80816344D01*
X184084938Y-81044586D01*
X184084936Y-81044596D01*
X184064341Y-81279999D01*
X184064341Y-81280000D01*
X184084936Y-81515403D01*
X184084938Y-81515413D01*
X184146094Y-81743655D01*
X184146096Y-81743659D01*
X184146097Y-81743663D01*
X184226004Y-81915023D01*
X184245965Y-81957830D01*
X184245967Y-81957834D01*
X184301050Y-82036500D01*
X184381505Y-82151401D01*
X184548599Y-82318495D01*
X184726210Y-82442860D01*
X184734594Y-82448730D01*
X184778219Y-82503307D01*
X184785413Y-82572805D01*
X184753890Y-82635160D01*
X184734595Y-82651880D01*
X184548922Y-82781890D01*
X184548920Y-82781891D01*
X184381891Y-82948920D01*
X184381886Y-82948926D01*
X184246400Y-83142420D01*
X184246399Y-83142422D01*
X184146570Y-83356507D01*
X184146567Y-83356513D01*
X184089364Y-83569999D01*
X184089364Y-83570000D01*
X184986314Y-83570000D01*
X184960507Y-83610156D01*
X184920000Y-83748111D01*
X184920000Y-83891889D01*
X184960507Y-84029844D01*
X184986314Y-84070000D01*
X184089364Y-84070000D01*
X184146567Y-84283486D01*
X184146570Y-84283492D01*
X184246399Y-84497578D01*
X184381894Y-84691082D01*
X184548917Y-84858105D01*
X184734595Y-84988119D01*
X184778219Y-85042696D01*
X184785412Y-85112195D01*
X184753890Y-85174549D01*
X184734595Y-85191269D01*
X184548594Y-85321508D01*
X184381505Y-85488597D01*
X184245965Y-85682169D01*
X184245964Y-85682171D01*
X184146098Y-85896335D01*
X184146094Y-85896344D01*
X184084938Y-86124586D01*
X184084936Y-86124596D01*
X184064341Y-86359999D01*
X184064341Y-86360000D01*
X184084936Y-86595403D01*
X184084938Y-86595413D01*
X184127272Y-86753407D01*
X184125609Y-86823257D01*
X184086446Y-86881119D01*
X184022218Y-86908623D01*
X184007497Y-86909500D01*
X181647737Y-86909500D01*
X181632120Y-86907776D01*
X181632093Y-86908062D01*
X181624331Y-86907327D01*
X181555203Y-86909500D01*
X181525650Y-86909500D01*
X181524929Y-86909590D01*
X181518757Y-86910369D01*
X181512945Y-86910826D01*
X181466372Y-86912290D01*
X181466369Y-86912291D01*
X181447126Y-86917881D01*
X181428083Y-86921825D01*
X181408204Y-86924336D01*
X181408203Y-86924337D01*
X181364878Y-86941490D01*
X181359352Y-86943382D01*
X181314608Y-86956383D01*
X181314604Y-86956385D01*
X181297365Y-86966580D01*
X181279898Y-86975137D01*
X181261269Y-86982512D01*
X181261267Y-86982513D01*
X181223564Y-87009906D01*
X181218682Y-87013112D01*
X181178580Y-87036828D01*
X181164408Y-87051000D01*
X181149623Y-87063628D01*
X181133412Y-87075407D01*
X181103709Y-87111310D01*
X181099777Y-87115631D01*
X177316208Y-90899199D01*
X177303951Y-90909020D01*
X177304134Y-90909241D01*
X177298123Y-90914213D01*
X177250772Y-90964636D01*
X177229889Y-90985519D01*
X177229877Y-90985532D01*
X177225621Y-90991017D01*
X177221837Y-90995447D01*
X177189937Y-91029418D01*
X177189936Y-91029420D01*
X177180284Y-91046976D01*
X177169610Y-91063226D01*
X177157329Y-91079061D01*
X177157324Y-91079068D01*
X177138815Y-91121838D01*
X177136245Y-91127084D01*
X177113803Y-91167906D01*
X177108822Y-91187307D01*
X177102521Y-91205710D01*
X177094562Y-91224102D01*
X177094561Y-91224105D01*
X177087271Y-91270127D01*
X177086087Y-91275846D01*
X177074501Y-91320972D01*
X177074499Y-91320984D01*
X177074499Y-91341020D01*
X177072973Y-91360411D01*
X177069840Y-91380194D01*
X177069840Y-91380195D01*
X177074225Y-91426583D01*
X177074500Y-91432421D01*
X177074500Y-103889547D01*
X177054815Y-103956586D01*
X177038181Y-103977228D01*
X174177228Y-106838181D01*
X174115905Y-106871666D01*
X174089547Y-106874500D01*
X135210452Y-106874500D01*
X135143413Y-106854815D01*
X135122771Y-106838181D01*
X132861819Y-104577228D01*
X132828334Y-104515905D01*
X132825500Y-104489547D01*
X132825500Y-79554660D01*
X132825500Y-54550688D01*
X132845184Y-54483653D01*
X132897988Y-54437898D01*
X132967146Y-54427954D01*
X133030702Y-54456979D01*
X133037180Y-54463011D01*
X133037064Y-54462894D01*
X133056703Y-54479911D01*
X133094476Y-54538689D01*
X133099499Y-54573623D01*
X133099499Y-61664501D01*
X133097732Y-61680509D01*
X133097973Y-61680532D01*
X133097239Y-61688292D01*
X133099500Y-61760203D01*
X133099500Y-61790920D01*
X133099501Y-61790940D01*
X133100418Y-61798206D01*
X133100876Y-61804024D01*
X133102402Y-61852567D01*
X133102403Y-61852570D01*
X133108323Y-61872948D01*
X133112268Y-61891996D01*
X133114928Y-61913054D01*
X133114931Y-61913064D01*
X133132813Y-61958230D01*
X133134705Y-61963758D01*
X133148254Y-62010395D01*
X133148255Y-62010397D01*
X133159060Y-62028666D01*
X133167617Y-62046134D01*
X133173226Y-62060300D01*
X133175432Y-62065872D01*
X133203983Y-62105170D01*
X133207188Y-62110049D01*
X133231919Y-62151865D01*
X133231923Y-62151869D01*
X133246925Y-62166871D01*
X133259563Y-62181669D01*
X133272033Y-62198833D01*
X133272036Y-62198836D01*
X133272037Y-62198837D01*
X133309476Y-62229809D01*
X133313776Y-62233722D01*
X135205554Y-64125500D01*
X136879564Y-65799510D01*
X136889635Y-65812080D01*
X136889822Y-65811926D01*
X136894796Y-65817937D01*
X136894798Y-65817940D01*
X136923345Y-65844748D01*
X136947243Y-65867190D01*
X136968966Y-65888912D01*
X136974758Y-65893405D01*
X136979198Y-65897198D01*
X136995260Y-65912280D01*
X137014607Y-65930448D01*
X137033198Y-65940668D01*
X137049463Y-65951352D01*
X137066234Y-65964361D01*
X137066237Y-65964363D01*
X137110827Y-65983658D01*
X137116056Y-65986220D01*
X137158632Y-66009627D01*
X137179193Y-66014905D01*
X137197597Y-66021207D01*
X137217074Y-66029636D01*
X137254927Y-66035630D01*
X137265054Y-66037235D01*
X137270764Y-66038417D01*
X137317823Y-66050500D01*
X137339045Y-66050500D01*
X137358442Y-66052026D01*
X137379405Y-66055347D01*
X137427772Y-66050774D01*
X137433609Y-66050500D01*
X157084602Y-66050500D01*
X157151641Y-66070185D01*
X157197396Y-66122989D01*
X157207340Y-66192147D01*
X157178315Y-66255703D01*
X157176752Y-66257472D01*
X157167466Y-66267785D01*
X157072821Y-66431715D01*
X157072818Y-66431722D01*
X157021698Y-66589055D01*
X157014326Y-66611744D01*
X156994540Y-66800000D01*
X157014326Y-66988256D01*
X157014327Y-66988259D01*
X157072818Y-67168277D01*
X157072821Y-67168284D01*
X157141650Y-67287500D01*
X157146169Y-67295326D01*
X157162642Y-67363226D01*
X157139789Y-67429253D01*
X157103880Y-67462864D01*
X157076650Y-67479659D01*
X156954661Y-67601648D01*
X156864093Y-67748481D01*
X156864091Y-67748484D01*
X156864092Y-67748484D01*
X156809826Y-67912247D01*
X156809826Y-67912248D01*
X156809825Y-67912248D01*
X156799500Y-68013315D01*
X156799500Y-68586669D01*
X156799501Y-68586687D01*
X156809825Y-68687752D01*
X156837607Y-68771590D01*
X156864092Y-68851516D01*
X156949999Y-68990794D01*
X156954661Y-68998351D01*
X157018982Y-69062672D01*
X157052467Y-69123995D01*
X157047483Y-69193687D01*
X157018983Y-69238034D01*
X156955052Y-69301965D01*
X156864551Y-69448688D01*
X156864546Y-69448699D01*
X156810319Y-69612347D01*
X156800000Y-69713345D01*
X156800000Y-69750000D01*
X157963500Y-69750000D01*
X158030539Y-69769685D01*
X158076294Y-69822489D01*
X158087500Y-69874000D01*
X158087500Y-73426000D01*
X158067815Y-73493039D01*
X158015011Y-73538794D01*
X157963500Y-73550000D01*
X156790175Y-73550000D01*
X156750497Y-73571666D01*
X156724139Y-73574500D01*
X156303748Y-73574500D01*
X156236709Y-73554815D01*
X156211600Y-73533474D01*
X156205873Y-73527114D01*
X156205869Y-73527110D01*
X156052734Y-73415851D01*
X156052729Y-73415848D01*
X155879807Y-73338857D01*
X155879802Y-73338855D01*
X155734001Y-73307865D01*
X155694646Y-73299500D01*
X155505354Y-73299500D01*
X155472897Y-73306398D01*
X155320197Y-73338855D01*
X155320192Y-73338857D01*
X155147270Y-73415848D01*
X155147265Y-73415851D01*
X154994129Y-73527111D01*
X154867466Y-73667785D01*
X154772821Y-73831715D01*
X154772818Y-73831722D01*
X154743370Y-73922355D01*
X154714326Y-74011744D01*
X154694540Y-74200000D01*
X154698485Y-74237540D01*
X154685917Y-74306268D01*
X154638185Y-74357292D01*
X154575165Y-74374500D01*
X143591577Y-74374500D01*
X143524538Y-74354815D01*
X143478783Y-74302011D01*
X143468839Y-74232853D01*
X143479195Y-74198096D01*
X143513900Y-74123669D01*
X143513903Y-74123663D01*
X143575063Y-73895408D01*
X143595659Y-73660000D01*
X143575063Y-73424592D01*
X143518645Y-73214036D01*
X143513905Y-73196344D01*
X143513904Y-73196343D01*
X143513903Y-73196337D01*
X143445664Y-73050000D01*
X156800000Y-73050000D01*
X157587500Y-73050000D01*
X157587500Y-71950000D01*
X156800001Y-71950000D01*
X156800001Y-71986654D01*
X156810319Y-72087652D01*
X156864546Y-72251300D01*
X156864551Y-72251311D01*
X156955052Y-72398034D01*
X156955055Y-72398038D01*
X156969336Y-72412319D01*
X157002821Y-72473642D01*
X156997837Y-72543334D01*
X156969336Y-72587681D01*
X156955055Y-72601961D01*
X156955052Y-72601965D01*
X156864551Y-72748688D01*
X156864546Y-72748699D01*
X156810319Y-72912347D01*
X156800000Y-73013345D01*
X156800000Y-73050000D01*
X143445664Y-73050000D01*
X143414035Y-72982171D01*
X143408425Y-72974158D01*
X143278494Y-72788597D01*
X143111402Y-72621506D01*
X143111396Y-72621501D01*
X142925842Y-72491575D01*
X142882217Y-72436998D01*
X142875023Y-72367500D01*
X142906546Y-72305145D01*
X142925842Y-72288425D01*
X142978862Y-72251300D01*
X143111401Y-72158495D01*
X143278495Y-71991401D01*
X143414035Y-71797830D01*
X143513903Y-71583663D01*
X143549717Y-71450000D01*
X156800000Y-71450000D01*
X157587500Y-71450000D01*
X157587500Y-70250000D01*
X156800001Y-70250000D01*
X156800001Y-70286654D01*
X156810319Y-70387652D01*
X156864546Y-70551300D01*
X156864551Y-70551311D01*
X156955052Y-70698034D01*
X157019336Y-70762319D01*
X157052820Y-70823643D01*
X157047835Y-70893334D01*
X157019336Y-70937681D01*
X156955052Y-71001965D01*
X156864551Y-71148688D01*
X156864546Y-71148699D01*
X156810319Y-71312347D01*
X156800000Y-71413345D01*
X156800000Y-71450000D01*
X143549717Y-71450000D01*
X143575063Y-71355408D01*
X143595659Y-71120000D01*
X143575063Y-70884592D01*
X143513903Y-70656337D01*
X143414035Y-70442171D01*
X143408425Y-70434158D01*
X143278494Y-70248597D01*
X143111402Y-70081506D01*
X143111401Y-70081505D01*
X142972284Y-69984094D01*
X142925841Y-69951574D01*
X142882216Y-69896997D01*
X142875024Y-69827498D01*
X142906546Y-69765144D01*
X142925836Y-69748428D01*
X143111401Y-69618495D01*
X143278495Y-69451401D01*
X143414035Y-69257830D01*
X143513903Y-69043663D01*
X143575063Y-68815408D01*
X143595659Y-68580000D01*
X143575063Y-68344592D01*
X143513903Y-68116337D01*
X143414035Y-67902171D01*
X143413652Y-67901623D01*
X143278494Y-67708597D01*
X143111402Y-67541506D01*
X143111395Y-67541501D01*
X143088543Y-67525500D01*
X143034518Y-67487671D01*
X142917834Y-67405967D01*
X142917830Y-67405965D01*
X142896413Y-67395978D01*
X142703663Y-67306097D01*
X142703659Y-67306096D01*
X142703655Y-67306094D01*
X142475413Y-67244938D01*
X142475403Y-67244936D01*
X142240001Y-67224341D01*
X142239999Y-67224341D01*
X142004596Y-67244936D01*
X142004586Y-67244938D01*
X141776344Y-67306094D01*
X141776335Y-67306098D01*
X141562171Y-67405964D01*
X141562169Y-67405965D01*
X141368600Y-67541503D01*
X141246673Y-67663430D01*
X141185350Y-67696914D01*
X141115658Y-67691930D01*
X141059725Y-67650058D01*
X141042810Y-67619081D01*
X140993797Y-67487671D01*
X140993793Y-67487664D01*
X140907547Y-67372455D01*
X140907544Y-67372452D01*
X140792335Y-67286206D01*
X140792328Y-67286202D01*
X140657482Y-67235908D01*
X140657483Y-67235908D01*
X140597883Y-67229501D01*
X140597881Y-67229500D01*
X140597873Y-67229500D01*
X140597864Y-67229500D01*
X138802129Y-67229500D01*
X138802123Y-67229501D01*
X138742516Y-67235908D01*
X138607671Y-67286202D01*
X138607664Y-67286206D01*
X138492455Y-67372452D01*
X138492452Y-67372455D01*
X138406206Y-67487664D01*
X138406202Y-67487671D01*
X138355908Y-67622517D01*
X138349501Y-67682116D01*
X138349500Y-67682135D01*
X138349500Y-69477870D01*
X138349501Y-69477876D01*
X138355908Y-69537483D01*
X138406202Y-69672328D01*
X138406206Y-69672335D01*
X138492452Y-69787544D01*
X138492455Y-69787547D01*
X138607664Y-69873793D01*
X138607671Y-69873797D01*
X138739081Y-69922810D01*
X138795015Y-69964681D01*
X138819432Y-70030145D01*
X138804580Y-70098418D01*
X138783430Y-70126673D01*
X138661503Y-70248600D01*
X138525965Y-70442169D01*
X138525964Y-70442171D01*
X138426098Y-70656335D01*
X138426094Y-70656344D01*
X138364938Y-70884586D01*
X138364936Y-70884596D01*
X138344341Y-71119999D01*
X138344341Y-71120000D01*
X138364936Y-71355403D01*
X138364938Y-71355413D01*
X138426094Y-71583655D01*
X138426096Y-71583659D01*
X138426097Y-71583663D01*
X138501563Y-71745500D01*
X138525965Y-71797830D01*
X138525967Y-71797834D01*
X138613158Y-71922354D01*
X138661501Y-71991396D01*
X138661506Y-71991402D01*
X138828597Y-72158493D01*
X138828603Y-72158498D01*
X139014158Y-72288425D01*
X139057783Y-72343002D01*
X139064977Y-72412500D01*
X139033454Y-72474855D01*
X139014158Y-72491575D01*
X138828597Y-72621505D01*
X138661505Y-72788597D01*
X138525965Y-72982169D01*
X138525964Y-72982171D01*
X138426098Y-73196335D01*
X138426094Y-73196344D01*
X138364938Y-73424586D01*
X138364936Y-73424596D01*
X138344341Y-73659999D01*
X138344341Y-73660000D01*
X138364936Y-73895403D01*
X138364938Y-73895413D01*
X138426094Y-74123655D01*
X138426096Y-74123659D01*
X138426097Y-74123663D01*
X138479198Y-74237538D01*
X138525965Y-74337830D01*
X138525967Y-74337834D01*
X138589800Y-74428997D01*
X138612127Y-74495203D01*
X138595117Y-74562970D01*
X138575906Y-74587801D01*
X136116208Y-77047498D01*
X136103951Y-77057319D01*
X136104134Y-77057540D01*
X136098123Y-77062512D01*
X136050772Y-77112935D01*
X136029889Y-77133818D01*
X136029877Y-77133831D01*
X136025621Y-77139316D01*
X136021837Y-77143746D01*
X135989937Y-77177717D01*
X135989936Y-77177719D01*
X135980284Y-77195275D01*
X135969610Y-77211525D01*
X135957329Y-77227360D01*
X135957324Y-77227367D01*
X135938815Y-77270137D01*
X135936245Y-77275383D01*
X135913803Y-77316205D01*
X135908822Y-77335606D01*
X135902521Y-77354009D01*
X135894562Y-77372401D01*
X135894561Y-77372404D01*
X135887271Y-77418426D01*
X135886087Y-77424145D01*
X135874501Y-77469271D01*
X135874500Y-77469281D01*
X135874500Y-77489315D01*
X135872973Y-77508714D01*
X135869840Y-77528493D01*
X135869840Y-77528494D01*
X135874225Y-77574882D01*
X135874500Y-77580720D01*
X135874500Y-84917255D01*
X135872775Y-84932872D01*
X135873061Y-84932899D01*
X135872326Y-84940665D01*
X135874500Y-85009814D01*
X135874500Y-85039343D01*
X135874501Y-85039360D01*
X135875368Y-85046231D01*
X135875826Y-85052050D01*
X135877290Y-85098624D01*
X135877291Y-85098627D01*
X135882880Y-85117867D01*
X135886824Y-85136911D01*
X135889336Y-85156792D01*
X135900886Y-85185965D01*
X135906490Y-85200119D01*
X135908382Y-85205647D01*
X135921381Y-85250388D01*
X135931580Y-85267634D01*
X135940136Y-85285100D01*
X135947514Y-85303732D01*
X135960427Y-85321506D01*
X135974898Y-85341423D01*
X135978106Y-85346307D01*
X136001827Y-85386416D01*
X136001833Y-85386424D01*
X136015990Y-85400580D01*
X136028628Y-85415376D01*
X136040405Y-85431586D01*
X136040406Y-85431587D01*
X136076309Y-85461288D01*
X136080620Y-85465210D01*
X137334775Y-86719365D01*
X138580726Y-87965316D01*
X138614211Y-88026639D01*
X138609227Y-88096331D01*
X138594623Y-88124115D01*
X138525965Y-88222171D01*
X138525963Y-88222174D01*
X138525963Y-88222175D01*
X138426097Y-88436335D01*
X138426094Y-88436344D01*
X138364938Y-88664586D01*
X138364936Y-88664596D01*
X138344341Y-88899999D01*
X138344341Y-88900000D01*
X138364936Y-89135403D01*
X138364938Y-89135413D01*
X138426094Y-89363655D01*
X138426096Y-89363659D01*
X138426097Y-89363663D01*
X138500719Y-89523689D01*
X138525965Y-89577830D01*
X138525967Y-89577834D01*
X138618975Y-89710662D01*
X138661501Y-89771396D01*
X138661506Y-89771402D01*
X138828597Y-89938493D01*
X138828603Y-89938498D01*
X139014158Y-90068425D01*
X139057783Y-90123002D01*
X139064977Y-90192500D01*
X139033454Y-90254855D01*
X139014158Y-90271575D01*
X138828597Y-90401505D01*
X138661505Y-90568597D01*
X138525965Y-90762169D01*
X138525964Y-90762171D01*
X138426098Y-90976335D01*
X138426094Y-90976344D01*
X138364938Y-91204586D01*
X138364936Y-91204596D01*
X138344341Y-91439999D01*
X138344341Y-91440000D01*
X138364936Y-91675403D01*
X138364938Y-91675413D01*
X138426094Y-91903655D01*
X138426096Y-91903659D01*
X138426097Y-91903663D01*
X138465545Y-91988259D01*
X138525965Y-92117830D01*
X138525967Y-92117834D01*
X138606724Y-92233166D01*
X138661501Y-92311396D01*
X138661506Y-92311402D01*
X138828597Y-92478493D01*
X138828603Y-92478498D01*
X139014158Y-92608425D01*
X139057783Y-92663002D01*
X139064977Y-92732500D01*
X139033454Y-92794855D01*
X139014158Y-92811575D01*
X138828597Y-92941505D01*
X138661505Y-93108597D01*
X138525965Y-93302169D01*
X138525964Y-93302171D01*
X138426098Y-93516335D01*
X138426094Y-93516344D01*
X138364938Y-93744586D01*
X138364936Y-93744596D01*
X138344341Y-93979999D01*
X138344341Y-93980000D01*
X138364936Y-94215403D01*
X138364938Y-94215413D01*
X138426094Y-94443655D01*
X138426096Y-94443659D01*
X138426097Y-94443663D01*
X138430000Y-94452032D01*
X138525965Y-94657830D01*
X138525967Y-94657834D01*
X138634281Y-94812521D01*
X138661501Y-94851396D01*
X138661506Y-94851402D01*
X138828597Y-95018493D01*
X138828603Y-95018498D01*
X139014158Y-95148425D01*
X139057783Y-95203002D01*
X139064977Y-95272500D01*
X139033454Y-95334855D01*
X139014158Y-95351575D01*
X138828597Y-95481505D01*
X138661505Y-95648597D01*
X138525965Y-95842169D01*
X138525964Y-95842171D01*
X138426098Y-96056335D01*
X138426094Y-96056344D01*
X138364938Y-96284586D01*
X138364936Y-96284596D01*
X138344341Y-96519999D01*
X138344341Y-96520000D01*
X138364936Y-96755403D01*
X138364938Y-96755413D01*
X138426094Y-96983655D01*
X138426096Y-96983659D01*
X138426097Y-96983663D01*
X138505801Y-97154588D01*
X138525965Y-97197830D01*
X138525967Y-97197834D01*
X138634281Y-97352521D01*
X138661504Y-97391400D01*
X138661506Y-97391402D01*
X138828597Y-97558493D01*
X138828603Y-97558498D01*
X139014158Y-97688425D01*
X139057783Y-97743002D01*
X139064977Y-97812500D01*
X139033454Y-97874855D01*
X139014158Y-97891575D01*
X138828597Y-98021505D01*
X138661505Y-98188597D01*
X138525965Y-98382169D01*
X138525964Y-98382171D01*
X138426098Y-98596335D01*
X138426094Y-98596344D01*
X138364938Y-98824586D01*
X138364936Y-98824596D01*
X138344341Y-99059999D01*
X138344341Y-99060000D01*
X138364936Y-99295403D01*
X138364938Y-99295413D01*
X138426094Y-99523655D01*
X138426096Y-99523659D01*
X138426097Y-99523663D01*
X138430000Y-99532032D01*
X138525965Y-99737830D01*
X138525967Y-99737834D01*
X138634281Y-99892521D01*
X138661501Y-99931396D01*
X138661506Y-99931402D01*
X138828597Y-100098493D01*
X138828603Y-100098498D01*
X139014158Y-100228425D01*
X139057783Y-100283002D01*
X139064977Y-100352500D01*
X139033454Y-100414855D01*
X139014158Y-100431575D01*
X138828597Y-100561505D01*
X138661505Y-100728597D01*
X138525965Y-100922169D01*
X138525964Y-100922171D01*
X138426098Y-101136335D01*
X138426094Y-101136344D01*
X138364938Y-101364586D01*
X138364936Y-101364596D01*
X138344341Y-101599999D01*
X138344341Y-101600000D01*
X138364936Y-101835403D01*
X138364938Y-101835413D01*
X138426094Y-102063655D01*
X138426096Y-102063659D01*
X138426097Y-102063663D01*
X138430000Y-102072032D01*
X138525965Y-102277830D01*
X138525967Y-102277834D01*
X138634281Y-102432521D01*
X138661501Y-102471396D01*
X138661506Y-102471402D01*
X138828597Y-102638493D01*
X138828603Y-102638498D01*
X139014158Y-102768425D01*
X139057783Y-102823002D01*
X139064977Y-102892500D01*
X139033454Y-102954855D01*
X139014158Y-102971575D01*
X138828597Y-103101505D01*
X138661505Y-103268597D01*
X138525965Y-103462169D01*
X138525964Y-103462171D01*
X138426098Y-103676335D01*
X138426094Y-103676344D01*
X138364938Y-103904586D01*
X138364936Y-103904596D01*
X138344341Y-104139999D01*
X138344341Y-104140000D01*
X138364936Y-104375403D01*
X138364938Y-104375413D01*
X138426094Y-104603655D01*
X138426096Y-104603659D01*
X138426097Y-104603663D01*
X138485450Y-104730945D01*
X138525965Y-104817830D01*
X138525967Y-104817834D01*
X138602570Y-104927233D01*
X138661505Y-105011401D01*
X138828599Y-105178495D01*
X138870000Y-105207484D01*
X139022165Y-105314032D01*
X139022167Y-105314033D01*
X139022170Y-105314035D01*
X139236337Y-105413903D01*
X139464592Y-105475063D01*
X139652918Y-105491539D01*
X139699999Y-105495659D01*
X139700000Y-105495659D01*
X139700001Y-105495659D01*
X139739234Y-105492226D01*
X139935408Y-105475063D01*
X140163663Y-105413903D01*
X140377830Y-105314035D01*
X140571401Y-105178495D01*
X140738495Y-105011401D01*
X140868424Y-104825842D01*
X140923002Y-104782217D01*
X140992500Y-104775023D01*
X141054855Y-104806546D01*
X141071575Y-104825842D01*
X141201500Y-105011395D01*
X141201505Y-105011401D01*
X141368599Y-105178495D01*
X141410000Y-105207484D01*
X141562165Y-105314032D01*
X141562167Y-105314033D01*
X141562170Y-105314035D01*
X141776337Y-105413903D01*
X142004592Y-105475063D01*
X142192918Y-105491539D01*
X142239999Y-105495659D01*
X142240000Y-105495659D01*
X142240001Y-105495659D01*
X142279234Y-105492226D01*
X142475408Y-105475063D01*
X142703663Y-105413903D01*
X142917830Y-105314035D01*
X143111401Y-105178495D01*
X143278495Y-105011401D01*
X143414035Y-104817830D01*
X143513903Y-104603663D01*
X143575063Y-104375408D01*
X143595659Y-104140000D01*
X143575063Y-103904592D01*
X143513903Y-103676337D01*
X143414035Y-103462171D01*
X143408425Y-103454158D01*
X143278494Y-103268597D01*
X143111402Y-103101506D01*
X143111396Y-103101501D01*
X142925842Y-102971575D01*
X142882217Y-102916998D01*
X142875023Y-102847500D01*
X142906546Y-102785145D01*
X142925842Y-102768425D01*
X142948026Y-102752891D01*
X143111401Y-102638495D01*
X143278495Y-102471401D01*
X143414035Y-102277830D01*
X143513903Y-102063663D01*
X143575063Y-101835408D01*
X143595659Y-101600000D01*
X143575063Y-101364592D01*
X143513903Y-101136337D01*
X143414035Y-100922171D01*
X143408425Y-100914158D01*
X143278494Y-100728597D01*
X143111402Y-100561506D01*
X143111401Y-100561505D01*
X142925842Y-100431575D01*
X142925841Y-100431574D01*
X142882216Y-100376997D01*
X142875024Y-100307498D01*
X142906546Y-100245144D01*
X142925836Y-100228428D01*
X143111401Y-100098495D01*
X143278495Y-99931401D01*
X143414035Y-99737830D01*
X143513903Y-99523663D01*
X143575063Y-99295408D01*
X143595659Y-99060000D01*
X143575063Y-98824592D01*
X143513903Y-98596337D01*
X143414035Y-98382171D01*
X143408425Y-98374158D01*
X143278494Y-98188597D01*
X143111402Y-98021506D01*
X143111396Y-98021501D01*
X142925842Y-97891575D01*
X142882217Y-97836998D01*
X142875023Y-97767500D01*
X142906546Y-97705145D01*
X142925842Y-97688425D01*
X142948026Y-97672891D01*
X143111401Y-97558495D01*
X143278495Y-97391401D01*
X143414035Y-97197830D01*
X143513903Y-96983663D01*
X143575063Y-96755408D01*
X143595659Y-96520000D01*
X143575063Y-96284592D01*
X143513903Y-96056337D01*
X143414035Y-95842171D01*
X143408731Y-95834595D01*
X143278494Y-95648597D01*
X143111402Y-95481506D01*
X143111401Y-95481505D01*
X142949908Y-95368426D01*
X142925841Y-95351574D01*
X142882216Y-95296997D01*
X142875024Y-95227498D01*
X142906546Y-95165144D01*
X142925836Y-95148428D01*
X143111401Y-95018495D01*
X143278495Y-94851401D01*
X143413651Y-94658377D01*
X143468229Y-94614752D01*
X143515227Y-94605500D01*
X145219548Y-94605500D01*
X145286587Y-94625185D01*
X145307229Y-94641819D01*
X145308034Y-94642624D01*
X145341519Y-94703947D01*
X145344353Y-94730305D01*
X145344353Y-95065556D01*
X145344358Y-95065603D01*
X145344358Y-95121962D01*
X145363558Y-95255499D01*
X145363558Y-95255502D01*
X145364819Y-95264276D01*
X145405367Y-95402368D01*
X145405372Y-95402381D01*
X145465089Y-95533143D01*
X145465102Y-95533166D01*
X145542896Y-95654216D01*
X145542911Y-95654237D01*
X145617541Y-95740364D01*
X145637057Y-95762887D01*
X145637060Y-95762890D01*
X145745830Y-95857139D01*
X145776068Y-95876572D01*
X145866778Y-95934868D01*
X145866780Y-95934868D01*
X145866784Y-95934871D01*
X145997700Y-95994658D01*
X146135655Y-96035165D01*
X146278111Y-96055647D01*
X146278114Y-96055647D01*
X146850000Y-96055647D01*
X146921961Y-96050500D01*
X146959270Y-96039544D01*
X147011848Y-96035784D01*
X147150000Y-96055647D01*
X147150003Y-96055647D01*
X147721886Y-96055647D01*
X147721889Y-96055647D01*
X147864345Y-96035165D01*
X148002300Y-95994658D01*
X148133216Y-95934871D01*
X148254164Y-95857143D01*
X148254169Y-95857140D01*
X148254166Y-95857143D01*
X148362939Y-95762891D01*
X148362943Y-95762887D01*
X148457088Y-95654237D01*
X148457090Y-95654233D01*
X148457097Y-95654226D01*
X148534904Y-95533155D01*
X148550964Y-95497986D01*
X148596719Y-95445184D01*
X148663758Y-95425500D01*
X154517257Y-95425500D01*
X154532877Y-95427224D01*
X154532904Y-95426939D01*
X154540660Y-95427671D01*
X154540667Y-95427673D01*
X154609814Y-95425500D01*
X154639350Y-95425500D01*
X154646228Y-95424630D01*
X154652041Y-95424172D01*
X154698627Y-95422709D01*
X154717869Y-95417117D01*
X154736912Y-95413174D01*
X154756792Y-95410664D01*
X154800122Y-95393507D01*
X154805646Y-95391617D01*
X154809396Y-95390527D01*
X154850390Y-95378618D01*
X154867629Y-95368422D01*
X154885103Y-95359862D01*
X154903727Y-95352488D01*
X154903727Y-95352487D01*
X154903732Y-95352486D01*
X154941449Y-95325082D01*
X154946305Y-95321892D01*
X154986420Y-95298170D01*
X155000589Y-95283999D01*
X155015379Y-95271368D01*
X155031587Y-95259594D01*
X155061299Y-95223676D01*
X155065212Y-95219376D01*
X159183788Y-91100801D01*
X159196042Y-91090986D01*
X159195859Y-91090764D01*
X159201866Y-91085792D01*
X159201877Y-91085786D01*
X159239442Y-91045783D01*
X159249227Y-91035364D01*
X159259671Y-91024918D01*
X159270120Y-91014471D01*
X159274379Y-91008978D01*
X159278152Y-91004561D01*
X159310062Y-90970582D01*
X159319715Y-90953020D01*
X159330389Y-90936770D01*
X159342673Y-90920936D01*
X159361180Y-90878167D01*
X159363749Y-90872924D01*
X159365953Y-90868913D01*
X159386197Y-90832092D01*
X159391177Y-90812691D01*
X159397478Y-90794288D01*
X159405438Y-90775896D01*
X159412730Y-90729849D01*
X159413911Y-90724152D01*
X159425500Y-90679019D01*
X159425500Y-90658982D01*
X159427027Y-90639582D01*
X159430160Y-90619804D01*
X159425775Y-90573415D01*
X159425500Y-90567577D01*
X159425500Y-86698687D01*
X159445185Y-86631648D01*
X159457350Y-86615715D01*
X159475891Y-86595122D01*
X159532533Y-86532216D01*
X159627179Y-86368284D01*
X159685674Y-86188256D01*
X159705460Y-86000000D01*
X159685674Y-85811744D01*
X159627179Y-85631716D01*
X159532533Y-85467784D01*
X159405871Y-85327112D01*
X159398154Y-85321505D01*
X159252734Y-85215851D01*
X159252729Y-85215848D01*
X159079807Y-85138857D01*
X159079802Y-85138855D01*
X158934001Y-85107865D01*
X158894646Y-85099500D01*
X158705354Y-85099500D01*
X158677869Y-85105342D01*
X158520197Y-85138855D01*
X158520192Y-85138857D01*
X158347270Y-85215848D01*
X158347265Y-85215851D01*
X158194129Y-85327111D01*
X158067466Y-85467785D01*
X157972821Y-85631715D01*
X157972818Y-85631722D01*
X157939424Y-85734500D01*
X157914326Y-85811744D01*
X157894540Y-86000000D01*
X157914326Y-86188256D01*
X157914327Y-86188259D01*
X157972818Y-86368277D01*
X157972821Y-86368284D01*
X158067467Y-86532216D01*
X158102012Y-86570582D01*
X158142650Y-86615715D01*
X158172880Y-86678706D01*
X158174500Y-86698687D01*
X158174500Y-90289547D01*
X158154815Y-90356586D01*
X158138181Y-90377228D01*
X154377228Y-94138181D01*
X154315905Y-94171666D01*
X154289547Y-94174500D01*
X148663758Y-94174500D01*
X148596719Y-94154815D01*
X148550964Y-94102012D01*
X148534904Y-94066846D01*
X148534904Y-94066845D01*
X148534899Y-94066838D01*
X148534894Y-94066828D01*
X148457103Y-93945783D01*
X148457088Y-93945762D01*
X148362943Y-93837113D01*
X148362940Y-93837110D01*
X148254170Y-93742861D01*
X148218937Y-93720218D01*
X148133221Y-93665131D01*
X148133217Y-93665129D01*
X148133216Y-93665129D01*
X148002300Y-93605342D01*
X147898351Y-93574820D01*
X147864342Y-93564834D01*
X147721889Y-93544353D01*
X147150000Y-93544353D01*
X147078040Y-93549499D01*
X147040728Y-93560455D01*
X146988149Y-93564215D01*
X146850000Y-93544353D01*
X146278111Y-93544353D01*
X146278110Y-93544353D01*
X146135658Y-93564834D01*
X146135652Y-93564835D01*
X146101647Y-93574820D01*
X146031777Y-93574820D01*
X145981830Y-93546236D01*
X145979825Y-93544353D01*
X145965364Y-93530773D01*
X145950926Y-93516335D01*
X145944475Y-93509883D01*
X145938986Y-93505625D01*
X145934561Y-93501847D01*
X145900582Y-93469938D01*
X145900580Y-93469936D01*
X145900577Y-93469935D01*
X145883029Y-93460288D01*
X145866763Y-93449604D01*
X145850933Y-93437325D01*
X145808168Y-93418818D01*
X145802922Y-93416248D01*
X145762093Y-93393803D01*
X145762092Y-93393802D01*
X145742693Y-93388822D01*
X145724281Y-93382518D01*
X145705898Y-93374562D01*
X145705892Y-93374560D01*
X145659874Y-93367272D01*
X145654152Y-93366087D01*
X145609021Y-93354500D01*
X145609019Y-93354500D01*
X145588984Y-93354500D01*
X145569586Y-93352973D01*
X145562162Y-93351797D01*
X145549805Y-93349840D01*
X145549804Y-93349840D01*
X145503416Y-93354225D01*
X145497578Y-93354500D01*
X143515227Y-93354500D01*
X143448188Y-93334815D01*
X143413652Y-93301623D01*
X143278494Y-93108597D01*
X143111402Y-92941506D01*
X143111396Y-92941501D01*
X142925842Y-92811575D01*
X142882217Y-92756998D01*
X142875023Y-92687500D01*
X142906546Y-92625145D01*
X142925842Y-92608425D01*
X142999090Y-92557136D01*
X143111401Y-92478495D01*
X143278495Y-92311401D01*
X143413651Y-92118377D01*
X143468229Y-92074752D01*
X143515227Y-92065500D01*
X145220358Y-92065500D01*
X145287397Y-92085185D01*
X145333152Y-92137989D01*
X145344358Y-92189500D01*
X145344358Y-92221962D01*
X145363558Y-92355499D01*
X145363558Y-92355502D01*
X145364819Y-92364276D01*
X145405367Y-92502368D01*
X145405372Y-92502381D01*
X145465089Y-92633143D01*
X145465102Y-92633166D01*
X145542896Y-92754216D01*
X145542911Y-92754237D01*
X145617541Y-92840364D01*
X145637057Y-92862887D01*
X145637060Y-92862890D01*
X145745830Y-92957139D01*
X145776068Y-92976572D01*
X145866778Y-93034868D01*
X145866780Y-93034868D01*
X145866784Y-93034871D01*
X145997700Y-93094658D01*
X146135655Y-93135165D01*
X146278111Y-93155647D01*
X146278114Y-93155647D01*
X146850000Y-93155647D01*
X146921961Y-93150500D01*
X146959270Y-93139544D01*
X147011848Y-93135784D01*
X147150000Y-93155647D01*
X147150003Y-93155647D01*
X147721886Y-93155647D01*
X147721889Y-93155647D01*
X147864345Y-93135165D01*
X148002300Y-93094658D01*
X148133216Y-93034871D01*
X148254164Y-92957143D01*
X148254169Y-92957140D01*
X148254166Y-92957143D01*
X148362939Y-92862891D01*
X148362943Y-92862887D01*
X148457088Y-92754237D01*
X148457090Y-92754233D01*
X148457097Y-92754226D01*
X148534904Y-92633155D01*
X148550964Y-92597986D01*
X148596719Y-92545184D01*
X148663758Y-92525500D01*
X150726253Y-92525500D01*
X150793292Y-92545185D01*
X150799138Y-92549182D01*
X150847265Y-92584148D01*
X150847270Y-92584151D01*
X151020192Y-92661142D01*
X151020197Y-92661144D01*
X151205354Y-92700500D01*
X151205355Y-92700500D01*
X151394644Y-92700500D01*
X151394646Y-92700500D01*
X151579803Y-92661144D01*
X151752730Y-92584151D01*
X151905871Y-92472888D01*
X152032533Y-92332216D01*
X152127179Y-92168284D01*
X152185674Y-91988256D01*
X152205460Y-91800000D01*
X152185674Y-91611744D01*
X152127179Y-91431716D01*
X152032533Y-91267784D01*
X151905871Y-91127112D01*
X151905870Y-91127111D01*
X151752734Y-91015851D01*
X151752729Y-91015848D01*
X151579807Y-90938857D01*
X151579802Y-90938855D01*
X151434000Y-90907865D01*
X151394646Y-90899500D01*
X151205354Y-90899500D01*
X151172897Y-90906398D01*
X151020197Y-90938855D01*
X151020192Y-90938857D01*
X150847270Y-91015848D01*
X150847265Y-91015851D01*
X150694129Y-91127111D01*
X150598362Y-91233472D01*
X150538875Y-91270121D01*
X150506212Y-91274500D01*
X148663758Y-91274500D01*
X148596719Y-91254815D01*
X148550964Y-91202012D01*
X148548565Y-91196759D01*
X148534904Y-91166845D01*
X148534899Y-91166838D01*
X148534894Y-91166828D01*
X148457103Y-91045783D01*
X148457088Y-91045762D01*
X148362943Y-90937113D01*
X148362530Y-90936755D01*
X148254170Y-90842861D01*
X148210039Y-90814500D01*
X148133221Y-90765131D01*
X148133217Y-90765129D01*
X148133216Y-90765129D01*
X148002300Y-90705342D01*
X147904158Y-90676525D01*
X147864342Y-90664834D01*
X147721889Y-90644353D01*
X147150000Y-90644353D01*
X147078040Y-90649499D01*
X147040728Y-90660455D01*
X146988149Y-90664215D01*
X146850000Y-90644353D01*
X146278111Y-90644353D01*
X146278110Y-90644353D01*
X146135658Y-90664834D01*
X146135656Y-90664834D01*
X145997700Y-90705342D01*
X145866784Y-90765129D01*
X145866772Y-90765135D01*
X145820590Y-90794815D01*
X145753551Y-90814500D01*
X143515227Y-90814500D01*
X143448188Y-90794815D01*
X143413652Y-90761623D01*
X143278494Y-90568597D01*
X143111402Y-90401506D01*
X143111401Y-90401505D01*
X142958808Y-90294658D01*
X142925841Y-90271574D01*
X142882216Y-90216997D01*
X142875024Y-90147498D01*
X142906546Y-90085144D01*
X142925836Y-90068428D01*
X143111401Y-89938495D01*
X143278495Y-89771401D01*
X143413651Y-89578377D01*
X143468229Y-89534752D01*
X143515227Y-89525500D01*
X145260609Y-89525500D01*
X145327648Y-89545185D01*
X145373403Y-89597989D01*
X145379586Y-89614565D01*
X145405366Y-89702364D01*
X145405372Y-89702381D01*
X145465089Y-89833143D01*
X145465102Y-89833166D01*
X145542896Y-89954216D01*
X145542911Y-89954237D01*
X145610876Y-90032672D01*
X145637057Y-90062887D01*
X145637060Y-90062890D01*
X145745830Y-90157139D01*
X145765842Y-90170000D01*
X145866778Y-90234868D01*
X145866780Y-90234868D01*
X145866784Y-90234871D01*
X145997700Y-90294658D01*
X146135655Y-90335165D01*
X146278111Y-90355647D01*
X146278114Y-90355647D01*
X146850000Y-90355647D01*
X146921961Y-90350500D01*
X146959270Y-90339544D01*
X147011848Y-90335784D01*
X147150000Y-90355647D01*
X147150003Y-90355647D01*
X147721886Y-90355647D01*
X147721889Y-90355647D01*
X147864345Y-90335165D01*
X148002300Y-90294658D01*
X148133216Y-90234871D01*
X148199147Y-90192500D01*
X148254169Y-90157140D01*
X148254166Y-90157143D01*
X148362939Y-90062891D01*
X148362943Y-90062887D01*
X148457088Y-89954237D01*
X148457090Y-89954233D01*
X148457097Y-89954226D01*
X148534904Y-89833155D01*
X148550964Y-89797986D01*
X148596719Y-89745184D01*
X148663758Y-89725500D01*
X149117257Y-89725500D01*
X149132877Y-89727224D01*
X149132904Y-89726939D01*
X149140660Y-89727671D01*
X149140667Y-89727673D01*
X149209814Y-89725500D01*
X149239350Y-89725500D01*
X149246228Y-89724630D01*
X149252041Y-89724172D01*
X149298627Y-89722709D01*
X149317869Y-89717117D01*
X149336912Y-89713174D01*
X149356792Y-89710664D01*
X149400122Y-89693507D01*
X149405646Y-89691617D01*
X149409396Y-89690527D01*
X149450390Y-89678618D01*
X149467629Y-89668422D01*
X149485103Y-89659862D01*
X149503727Y-89652488D01*
X149503727Y-89652487D01*
X149503732Y-89652486D01*
X149541449Y-89625082D01*
X149546305Y-89621892D01*
X149586420Y-89598170D01*
X149600589Y-89583999D01*
X149615379Y-89571368D01*
X149631587Y-89559594D01*
X149661299Y-89523676D01*
X149665212Y-89519376D01*
X149933786Y-89250802D01*
X149946048Y-89240980D01*
X149945865Y-89240759D01*
X149951867Y-89235792D01*
X149951877Y-89235786D01*
X149999241Y-89185348D01*
X150020120Y-89164470D01*
X150024373Y-89158986D01*
X150028150Y-89154563D01*
X150060062Y-89120582D01*
X150069714Y-89103023D01*
X150080389Y-89086772D01*
X150092674Y-89070936D01*
X150111186Y-89028152D01*
X150113742Y-89022935D01*
X150136197Y-88982092D01*
X150141180Y-88962680D01*
X150147477Y-88944291D01*
X150155438Y-88925895D01*
X150162729Y-88879853D01*
X150163908Y-88874162D01*
X150175500Y-88829019D01*
X150175500Y-88808982D01*
X150177027Y-88789582D01*
X150180160Y-88769804D01*
X150175775Y-88723415D01*
X150175500Y-88717577D01*
X150175500Y-88032737D01*
X150177224Y-88017123D01*
X150176938Y-88017096D01*
X150177672Y-88009333D01*
X150175500Y-87940202D01*
X150175500Y-87910651D01*
X150175500Y-87910650D01*
X150174629Y-87903759D01*
X150174172Y-87897945D01*
X150172709Y-87851374D01*
X150172709Y-87851372D01*
X150167120Y-87832137D01*
X150163174Y-87813084D01*
X150160664Y-87793208D01*
X150143501Y-87749859D01*
X150141614Y-87744346D01*
X150128617Y-87699610D01*
X150128616Y-87699608D01*
X150118421Y-87682369D01*
X150109860Y-87664893D01*
X150102486Y-87646269D01*
X150102486Y-87646267D01*
X150092474Y-87632488D01*
X150075083Y-87608550D01*
X150071900Y-87603705D01*
X150048170Y-87563579D01*
X150048165Y-87563573D01*
X150034005Y-87549413D01*
X150021370Y-87534620D01*
X150009593Y-87518412D01*
X149973693Y-87488713D01*
X149969381Y-87484790D01*
X149800803Y-87316211D01*
X149790980Y-87303950D01*
X149790759Y-87304134D01*
X149785786Y-87298123D01*
X149785785Y-87298122D01*
X149735364Y-87250773D01*
X149724919Y-87240328D01*
X149714475Y-87229883D01*
X149708986Y-87225625D01*
X149704561Y-87221847D01*
X149670582Y-87189938D01*
X149670580Y-87189936D01*
X149670577Y-87189935D01*
X149653029Y-87180288D01*
X149636763Y-87169604D01*
X149620932Y-87157324D01*
X149619080Y-87156229D01*
X149617924Y-87154991D01*
X149614772Y-87152546D01*
X149615166Y-87152037D01*
X149571399Y-87105158D01*
X149558898Y-87036416D01*
X149585547Y-86971828D01*
X149642884Y-86931900D01*
X149682206Y-86925500D01*
X151917257Y-86925500D01*
X151932877Y-86927224D01*
X151932904Y-86926939D01*
X151940660Y-86927671D01*
X151940667Y-86927673D01*
X152009814Y-86925500D01*
X152039350Y-86925500D01*
X152046228Y-86924630D01*
X152052041Y-86924172D01*
X152098627Y-86922709D01*
X152117869Y-86917117D01*
X152136912Y-86913174D01*
X152156792Y-86910664D01*
X152200122Y-86893507D01*
X152205646Y-86891617D01*
X152211848Y-86889815D01*
X152250390Y-86878618D01*
X152267629Y-86868422D01*
X152285103Y-86859862D01*
X152303727Y-86852488D01*
X152303727Y-86852487D01*
X152303732Y-86852486D01*
X152341449Y-86825082D01*
X152346305Y-86821892D01*
X152386420Y-86798170D01*
X152400589Y-86783999D01*
X152415379Y-86771368D01*
X152431587Y-86759594D01*
X152461299Y-86723676D01*
X152465212Y-86719376D01*
X154290788Y-84893801D01*
X154352111Y-84860316D01*
X154378469Y-84857482D01*
X154562967Y-84857482D01*
X154562969Y-84857482D01*
X154748126Y-84818126D01*
X154921053Y-84741133D01*
X155074194Y-84629870D01*
X155200856Y-84489198D01*
X155295502Y-84325266D01*
X155353997Y-84145238D01*
X155373783Y-83956982D01*
X155353997Y-83768726D01*
X155295502Y-83588698D01*
X155200856Y-83424766D01*
X155139395Y-83356507D01*
X155118013Y-83332759D01*
X155087783Y-83269767D01*
X155096409Y-83200432D01*
X155122479Y-83162109D01*
X155872088Y-82412500D01*
X158425001Y-82412500D01*
X158425001Y-82511654D01*
X158435319Y-82612652D01*
X158489546Y-82776300D01*
X158489551Y-82776311D01*
X158580052Y-82923034D01*
X158580055Y-82923038D01*
X158701961Y-83044944D01*
X158701965Y-83044947D01*
X158848688Y-83135448D01*
X158848699Y-83135453D01*
X159012347Y-83189680D01*
X159113352Y-83199999D01*
X159149999Y-83199999D01*
X159150000Y-82412500D01*
X158425001Y-82412500D01*
X155872088Y-82412500D01*
X158212821Y-80071767D01*
X158274142Y-80038284D01*
X158343834Y-80043268D01*
X158399767Y-80085140D01*
X158424184Y-80150604D01*
X158424500Y-80159450D01*
X158424500Y-80786669D01*
X158424501Y-80786687D01*
X158434825Y-80887752D01*
X158489092Y-81051515D01*
X158489093Y-81051518D01*
X158579661Y-81198351D01*
X158593982Y-81212672D01*
X158627467Y-81273995D01*
X158622483Y-81343687D01*
X158593985Y-81388032D01*
X158580052Y-81401965D01*
X158489551Y-81548688D01*
X158489546Y-81548699D01*
X158435319Y-81712347D01*
X158425000Y-81813345D01*
X158425000Y-81912500D01*
X159526000Y-81912500D01*
X159593039Y-81932185D01*
X159638794Y-81984989D01*
X159650000Y-82036500D01*
X159650000Y-83199999D01*
X159686640Y-83199999D01*
X159686654Y-83199998D01*
X159787652Y-83189680D01*
X159951300Y-83135453D01*
X159951311Y-83135448D01*
X160098035Y-83044947D01*
X160111960Y-83031021D01*
X160173282Y-82997533D01*
X160242973Y-83002514D01*
X160287327Y-83031016D01*
X160301650Y-83045340D01*
X160313920Y-83052908D01*
X160315596Y-83053942D01*
X160362321Y-83105890D01*
X160374500Y-83159481D01*
X160374500Y-84517255D01*
X160372775Y-84532872D01*
X160373061Y-84532899D01*
X160372326Y-84540665D01*
X160374500Y-84609814D01*
X160374500Y-84639343D01*
X160374501Y-84639360D01*
X160375368Y-84646231D01*
X160375826Y-84652050D01*
X160377290Y-84698624D01*
X160377291Y-84698627D01*
X160382880Y-84717867D01*
X160386824Y-84736911D01*
X160389336Y-84756791D01*
X160406490Y-84800119D01*
X160408382Y-84805647D01*
X160421070Y-84849318D01*
X160421382Y-84850390D01*
X160425944Y-84858105D01*
X160431580Y-84867634D01*
X160440138Y-84885103D01*
X160447514Y-84903732D01*
X160474898Y-84941423D01*
X160478106Y-84946307D01*
X160501827Y-84986416D01*
X160501833Y-84986424D01*
X160515990Y-85000580D01*
X160528628Y-85015376D01*
X160540405Y-85031586D01*
X160540406Y-85031587D01*
X160576309Y-85061288D01*
X160580620Y-85065210D01*
X161839567Y-86324158D01*
X162259197Y-86743788D01*
X162269022Y-86756051D01*
X162269243Y-86755869D01*
X162274214Y-86761878D01*
X162290430Y-86777105D01*
X162324635Y-86809226D01*
X162345529Y-86830120D01*
X162351011Y-86834373D01*
X162355443Y-86838157D01*
X162389418Y-86870062D01*
X162406976Y-86879714D01*
X162423233Y-86890393D01*
X162439064Y-86902673D01*
X162458737Y-86911186D01*
X162481833Y-86921182D01*
X162487077Y-86923750D01*
X162527908Y-86946197D01*
X162540523Y-86949435D01*
X162547305Y-86951177D01*
X162565719Y-86957481D01*
X162584104Y-86965438D01*
X162630157Y-86972732D01*
X162635826Y-86973906D01*
X162680981Y-86985500D01*
X162701016Y-86985500D01*
X162720413Y-86987026D01*
X162740196Y-86990160D01*
X162786583Y-86985775D01*
X162792422Y-86985500D01*
X176549773Y-86985500D01*
X176616812Y-87005185D01*
X176651348Y-87038377D01*
X176786500Y-87231395D01*
X176786505Y-87231401D01*
X176953599Y-87398495D01*
X177050384Y-87466264D01*
X177147165Y-87534032D01*
X177147167Y-87534033D01*
X177147170Y-87534035D01*
X177361337Y-87633903D01*
X177589592Y-87695063D01*
X177777918Y-87711539D01*
X177824999Y-87715659D01*
X177825000Y-87715659D01*
X177825001Y-87715659D01*
X177864234Y-87712226D01*
X178060408Y-87695063D01*
X178288663Y-87633903D01*
X178502830Y-87534035D01*
X178696401Y-87398495D01*
X178863495Y-87231401D01*
X178999035Y-87037830D01*
X179098903Y-86823663D01*
X179160063Y-86595408D01*
X179180659Y-86360000D01*
X179160063Y-86124592D01*
X179098903Y-85896337D01*
X178999035Y-85682171D01*
X178998652Y-85681623D01*
X178863494Y-85488597D01*
X178696402Y-85321506D01*
X178696401Y-85321505D01*
X178545509Y-85215849D01*
X178510841Y-85191574D01*
X178467216Y-85136997D01*
X178460024Y-85067498D01*
X178491546Y-85005144D01*
X178510836Y-84988428D01*
X178696401Y-84858495D01*
X178863495Y-84691401D01*
X178999035Y-84497830D01*
X179098903Y-84283663D01*
X179160063Y-84055408D01*
X179180659Y-83820000D01*
X179160063Y-83584592D01*
X179109275Y-83395048D01*
X179098905Y-83356344D01*
X179098904Y-83356343D01*
X179098903Y-83356337D01*
X178999035Y-83142171D01*
X178998652Y-83141623D01*
X178863494Y-82948597D01*
X178696402Y-82781506D01*
X178696396Y-82781501D01*
X178510842Y-82651575D01*
X178467217Y-82596998D01*
X178460023Y-82527500D01*
X178491546Y-82465145D01*
X178510842Y-82448425D01*
X178629798Y-82365131D01*
X178696401Y-82318495D01*
X178863495Y-82151401D01*
X178999035Y-81957830D01*
X179098903Y-81743663D01*
X179160063Y-81515408D01*
X179180659Y-81280000D01*
X179178617Y-81256666D01*
X179167933Y-81134550D01*
X179160063Y-81044592D01*
X179098903Y-80816337D01*
X178999035Y-80602171D01*
X178993730Y-80594595D01*
X178863496Y-80408600D01*
X178863493Y-80408597D01*
X178741567Y-80286671D01*
X178708084Y-80225351D01*
X178713068Y-80155659D01*
X178754939Y-80099725D01*
X178785915Y-80082810D01*
X178917331Y-80033796D01*
X179032546Y-79947546D01*
X179118796Y-79832331D01*
X179169091Y-79697483D01*
X179175500Y-79637873D01*
X179175499Y-77842128D01*
X179169091Y-77782517D01*
X179164821Y-77771069D01*
X179118797Y-77647671D01*
X179118793Y-77647664D01*
X179032547Y-77532455D01*
X179032544Y-77532452D01*
X178917335Y-77446206D01*
X178917328Y-77446202D01*
X178782482Y-77395908D01*
X178782483Y-77395908D01*
X178722883Y-77389501D01*
X178722881Y-77389500D01*
X178722873Y-77389500D01*
X178722864Y-77389500D01*
X176927129Y-77389500D01*
X176927123Y-77389501D01*
X176867516Y-77395908D01*
X176732671Y-77446202D01*
X176732664Y-77446206D01*
X176617455Y-77532452D01*
X176617452Y-77532455D01*
X176531206Y-77647664D01*
X176531202Y-77647671D01*
X176480908Y-77782517D01*
X176474501Y-77842116D01*
X176474501Y-77842123D01*
X176474500Y-77842135D01*
X176474500Y-79089547D01*
X176454815Y-79156586D01*
X176438181Y-79177228D01*
X174114728Y-81500681D01*
X174053405Y-81534166D01*
X174027047Y-81537000D01*
X171573032Y-81537000D01*
X171505993Y-81517315D01*
X171467494Y-81478097D01*
X171420342Y-81401653D01*
X171420339Y-81401649D01*
X171406371Y-81387681D01*
X171372886Y-81326358D01*
X171377870Y-81256666D01*
X171406371Y-81212319D01*
X171410579Y-81208111D01*
X171420340Y-81198350D01*
X171510908Y-81051516D01*
X171565174Y-80887753D01*
X171575500Y-80786677D01*
X171575499Y-80088324D01*
X171574144Y-80075063D01*
X171565174Y-79987247D01*
X171557140Y-79963002D01*
X171510908Y-79823484D01*
X171420340Y-79676650D01*
X171298350Y-79554660D01*
X171151516Y-79464092D01*
X171112272Y-79451087D01*
X171054830Y-79411316D01*
X171028007Y-79346800D01*
X171040322Y-79278024D01*
X171086181Y-79227845D01*
X171098350Y-79220340D01*
X171112671Y-79206018D01*
X171173989Y-79172533D01*
X171243681Y-79177514D01*
X171288034Y-79206017D01*
X171301961Y-79219944D01*
X171301965Y-79219947D01*
X171448688Y-79310448D01*
X171448699Y-79310453D01*
X171612347Y-79364680D01*
X171713351Y-79374999D01*
X171812500Y-79374998D01*
X171812500Y-78650000D01*
X172312499Y-78650000D01*
X172312499Y-79374998D01*
X172312500Y-79374999D01*
X172411640Y-79374999D01*
X172411654Y-79374998D01*
X172512652Y-79364680D01*
X172676300Y-79310453D01*
X172676311Y-79310448D01*
X172823034Y-79219947D01*
X172823038Y-79219944D01*
X172944944Y-79098038D01*
X172944947Y-79098034D01*
X173035448Y-78951311D01*
X173035453Y-78951300D01*
X173089680Y-78787652D01*
X173099999Y-78686654D01*
X173100000Y-78686641D01*
X173100000Y-78650000D01*
X172312499Y-78650000D01*
X171812500Y-78650000D01*
X171812500Y-77050000D01*
X172312500Y-77050000D01*
X172312500Y-78150000D01*
X173099999Y-78150000D01*
X173099999Y-78113360D01*
X173099998Y-78113345D01*
X173089680Y-78012347D01*
X173035453Y-77848699D01*
X173035448Y-77848688D01*
X172944947Y-77701965D01*
X172944944Y-77701961D01*
X172930664Y-77687681D01*
X172897179Y-77626358D01*
X172902163Y-77556666D01*
X172930666Y-77512316D01*
X172944946Y-77498035D01*
X173035448Y-77351311D01*
X173035453Y-77351300D01*
X173089680Y-77187652D01*
X173099999Y-77086654D01*
X173100000Y-77086641D01*
X173100000Y-77050000D01*
X172312500Y-77050000D01*
X171812500Y-77050000D01*
X171812500Y-76749500D01*
X171832185Y-76682461D01*
X171884989Y-76636706D01*
X171936500Y-76625500D01*
X174939495Y-76625500D01*
X174955505Y-76627267D01*
X174955528Y-76627026D01*
X174963289Y-76627758D01*
X174963296Y-76627760D01*
X175035203Y-76625500D01*
X175065925Y-76625500D01*
X175073190Y-76624581D01*
X175079016Y-76624122D01*
X175127569Y-76622597D01*
X175147956Y-76616673D01*
X175166996Y-76612731D01*
X175188058Y-76610071D01*
X175233235Y-76592183D01*
X175238735Y-76590300D01*
X175285398Y-76576744D01*
X175303665Y-76565939D01*
X175321136Y-76557380D01*
X175340871Y-76549568D01*
X175380177Y-76521010D01*
X175385043Y-76517813D01*
X175426865Y-76493081D01*
X175441870Y-76478075D01*
X175456668Y-76465436D01*
X175473837Y-76452963D01*
X175504809Y-76415522D01*
X175508713Y-76411231D01*
X175983126Y-75936819D01*
X176044450Y-75903334D01*
X176070808Y-75900500D01*
X176094644Y-75900500D01*
X176094646Y-75900500D01*
X176279803Y-75861144D01*
X176452730Y-75784151D01*
X176605871Y-75672888D01*
X176732533Y-75532216D01*
X176827179Y-75368284D01*
X176885674Y-75188256D01*
X176905460Y-75000000D01*
X176885674Y-74811744D01*
X176827179Y-74631716D01*
X176732533Y-74467784D01*
X176605871Y-74327112D01*
X176571606Y-74302217D01*
X176452734Y-74215851D01*
X176452729Y-74215848D01*
X176279807Y-74138857D01*
X176279802Y-74138855D01*
X176134000Y-74107865D01*
X176094646Y-74099500D01*
X176094645Y-74099500D01*
X176070808Y-74099500D01*
X176003769Y-74079815D01*
X175983127Y-74063181D01*
X175645434Y-73725488D01*
X175635361Y-73712914D01*
X175635174Y-73713070D01*
X175630201Y-73707059D01*
X175577756Y-73657810D01*
X175556035Y-73636089D01*
X175550240Y-73631594D01*
X175545798Y-73627799D01*
X175510396Y-73594554D01*
X175510388Y-73594548D01*
X175491792Y-73584325D01*
X175475531Y-73573644D01*
X175458763Y-73560637D01*
X175434181Y-73550000D01*
X175414178Y-73541343D01*
X175408956Y-73538786D01*
X175366368Y-73515373D01*
X175366365Y-73515372D01*
X175345801Y-73510092D01*
X175327396Y-73503790D01*
X175307927Y-73495365D01*
X175307921Y-73495363D01*
X175259951Y-73487766D01*
X175254236Y-73486582D01*
X175237772Y-73482355D01*
X175207180Y-73474500D01*
X175207177Y-73474500D01*
X175185955Y-73474500D01*
X175166555Y-73472973D01*
X175145596Y-73469653D01*
X175145595Y-73469653D01*
X175121786Y-73471903D01*
X175097230Y-73474225D01*
X175091392Y-73474500D01*
X171936500Y-73474500D01*
X171869461Y-73454815D01*
X171823706Y-73402011D01*
X171812500Y-73350500D01*
X171812500Y-71574000D01*
X171832185Y-71506961D01*
X171884989Y-71461206D01*
X171936500Y-71450000D01*
X172188500Y-71450000D01*
X172255539Y-71469685D01*
X172301294Y-71522489D01*
X172312500Y-71574000D01*
X172312500Y-73050000D01*
X173099999Y-73050000D01*
X173099999Y-73013360D01*
X173099998Y-73013345D01*
X173089680Y-72912347D01*
X173035453Y-72748699D01*
X173035448Y-72748688D01*
X172944948Y-72601966D01*
X172930665Y-72587684D01*
X172897178Y-72526361D01*
X172902161Y-72456669D01*
X172930665Y-72412316D01*
X172944948Y-72398033D01*
X173035448Y-72251311D01*
X173035453Y-72251300D01*
X173089680Y-72087652D01*
X173099999Y-71986653D01*
X173100000Y-71986642D01*
X173100000Y-71869500D01*
X173119685Y-71802461D01*
X173172489Y-71756706D01*
X173224000Y-71745500D01*
X176325501Y-71745500D01*
X176392540Y-71765185D01*
X176438295Y-71817989D01*
X176449501Y-71869500D01*
X176449501Y-72017876D01*
X176455908Y-72077483D01*
X176506202Y-72212328D01*
X176506206Y-72212335D01*
X176592452Y-72327544D01*
X176592455Y-72327547D01*
X176707664Y-72413793D01*
X176707671Y-72413797D01*
X176842517Y-72464091D01*
X176842516Y-72464091D01*
X176849444Y-72464835D01*
X176902127Y-72470500D01*
X178697872Y-72470499D01*
X178757483Y-72464091D01*
X178892331Y-72413796D01*
X179007546Y-72327546D01*
X179093796Y-72212331D01*
X179144091Y-72077483D01*
X179150500Y-72017873D01*
X179150499Y-70222128D01*
X179144091Y-70162517D01*
X179130722Y-70126674D01*
X179093797Y-70027671D01*
X179093793Y-70027664D01*
X179007547Y-69912455D01*
X179007544Y-69912452D01*
X178892335Y-69826206D01*
X178892328Y-69826202D01*
X178760917Y-69777189D01*
X178704983Y-69735318D01*
X178680566Y-69669853D01*
X178695418Y-69601580D01*
X178716563Y-69573332D01*
X178838495Y-69451401D01*
X178974035Y-69257830D01*
X179073903Y-69043663D01*
X179135063Y-68815408D01*
X179155659Y-68580000D01*
X179135063Y-68344592D01*
X179073903Y-68116337D01*
X178974035Y-67902171D01*
X178973652Y-67901623D01*
X178838494Y-67708597D01*
X178671402Y-67541506D01*
X178671401Y-67541505D01*
X178541407Y-67450482D01*
X178485841Y-67411574D01*
X178442216Y-67356997D01*
X178435024Y-67287498D01*
X178466546Y-67225144D01*
X178485836Y-67208428D01*
X178671401Y-67078495D01*
X178838495Y-66911401D01*
X178974035Y-66717830D01*
X179073903Y-66503663D01*
X179135063Y-66275408D01*
X179155659Y-66040000D01*
X179153001Y-66009625D01*
X179142245Y-65886684D01*
X179135063Y-65804592D01*
X179073903Y-65576337D01*
X178974035Y-65362171D01*
X178968425Y-65354158D01*
X178838494Y-65168597D01*
X178671402Y-65001506D01*
X178671396Y-65001501D01*
X178485842Y-64871575D01*
X178442217Y-64816998D01*
X178435023Y-64747500D01*
X178466546Y-64685145D01*
X178485842Y-64668425D01*
X178508026Y-64652891D01*
X178671401Y-64538495D01*
X178838495Y-64371401D01*
X178974035Y-64177830D01*
X179073903Y-63963663D01*
X179135063Y-63735408D01*
X179155659Y-63500000D01*
X179135063Y-63264592D01*
X179073903Y-63036337D01*
X178974035Y-62822171D01*
X178973652Y-62821623D01*
X178838494Y-62628597D01*
X178671402Y-62461506D01*
X178671395Y-62461501D01*
X178477834Y-62325967D01*
X178477830Y-62325965D01*
X178477828Y-62325964D01*
X178263663Y-62226097D01*
X178263659Y-62226096D01*
X178263655Y-62226094D01*
X178035413Y-62164938D01*
X178035403Y-62164936D01*
X177800001Y-62144341D01*
X177799999Y-62144341D01*
X177564596Y-62164936D01*
X177564586Y-62164938D01*
X177336344Y-62226094D01*
X177336335Y-62226098D01*
X177122171Y-62325964D01*
X177122169Y-62325965D01*
X176928597Y-62461505D01*
X176761505Y-62628597D01*
X176626348Y-62821623D01*
X176571771Y-62865248D01*
X176524773Y-62874500D01*
X170120238Y-62874500D01*
X170104621Y-62872776D01*
X170104594Y-62873062D01*
X170096832Y-62872327D01*
X170027704Y-62874500D01*
X169998150Y-62874500D01*
X169997429Y-62874590D01*
X169991257Y-62875369D01*
X169985445Y-62875826D01*
X169938873Y-62877290D01*
X169938872Y-62877290D01*
X169919629Y-62882881D01*
X169900579Y-62886825D01*
X169880711Y-62889334D01*
X169880709Y-62889335D01*
X169837384Y-62906488D01*
X169831857Y-62908380D01*
X169787110Y-62921381D01*
X169787109Y-62921382D01*
X169769867Y-62931579D01*
X169752399Y-62940137D01*
X169733769Y-62947513D01*
X169733767Y-62947514D01*
X169696076Y-62974898D01*
X169691194Y-62978105D01*
X169651079Y-63001830D01*
X169636908Y-63016000D01*
X169622123Y-63028628D01*
X169605912Y-63040407D01*
X169576209Y-63076310D01*
X169572277Y-63080631D01*
X168189726Y-64463181D01*
X168128403Y-64496666D01*
X168102045Y-64499500D01*
X167713330Y-64499500D01*
X167713312Y-64499501D01*
X167612247Y-64509825D01*
X167448484Y-64564092D01*
X167448481Y-64564093D01*
X167301651Y-64654659D01*
X167237327Y-64718983D01*
X167176003Y-64752467D01*
X167106312Y-64747482D01*
X167061965Y-64718982D01*
X166998038Y-64655055D01*
X166998034Y-64655052D01*
X166851311Y-64564551D01*
X166851300Y-64564546D01*
X166687652Y-64510319D01*
X166586654Y-64500000D01*
X166550000Y-64500000D01*
X166550000Y-65613500D01*
X166530315Y-65680539D01*
X166477511Y-65726294D01*
X166426000Y-65737500D01*
X166174000Y-65737500D01*
X166106961Y-65717815D01*
X166061206Y-65665011D01*
X166050000Y-65613500D01*
X166050000Y-64500000D01*
X166049999Y-64499999D01*
X166049502Y-64500000D01*
X165982463Y-64480317D01*
X165936707Y-64427514D01*
X165925500Y-64376000D01*
X165925500Y-56810452D01*
X165945185Y-56743413D01*
X165961819Y-56722771D01*
X167507772Y-55176819D01*
X167569095Y-55143334D01*
X167595453Y-55140500D01*
X184080081Y-55140500D01*
X184147120Y-55160185D01*
X184192875Y-55212989D01*
X184202819Y-55282147D01*
X184192463Y-55316905D01*
X184146098Y-55416335D01*
X184146094Y-55416344D01*
X184084938Y-55644586D01*
X184084936Y-55644596D01*
X184064341Y-55879999D01*
X184064341Y-55880000D01*
X184084936Y-56115403D01*
X184084938Y-56115413D01*
X184146094Y-56343655D01*
X184146096Y-56343659D01*
X184146097Y-56343663D01*
X184150000Y-56352032D01*
X184245965Y-56557830D01*
X184245967Y-56557834D01*
X184354281Y-56712521D01*
X184381501Y-56751396D01*
X184381506Y-56751402D01*
X184548597Y-56918493D01*
X184548603Y-56918498D01*
X184734158Y-57048425D01*
X184777783Y-57103002D01*
X184784977Y-57172500D01*
X184753454Y-57234855D01*
X184734158Y-57251575D01*
X184548597Y-57381505D01*
X184381505Y-57548597D01*
X184246348Y-57741623D01*
X184191771Y-57785248D01*
X184144773Y-57794500D01*
X182172892Y-57794500D01*
X182105853Y-57774815D01*
X182060098Y-57722012D01*
X182034904Y-57666846D01*
X182034904Y-57666845D01*
X182034899Y-57666838D01*
X182034894Y-57666828D01*
X181957103Y-57545783D01*
X181957088Y-57545762D01*
X181862943Y-57437113D01*
X181862940Y-57437110D01*
X181754170Y-57342861D01*
X181754164Y-57342857D01*
X181633221Y-57265131D01*
X181633217Y-57265129D01*
X181633216Y-57265129D01*
X181502300Y-57205342D01*
X181404158Y-57176525D01*
X181364342Y-57164834D01*
X181221889Y-57144353D01*
X180650000Y-57144353D01*
X180578040Y-57149499D01*
X180540728Y-57160455D01*
X180488149Y-57164215D01*
X180350000Y-57144353D01*
X179778111Y-57144353D01*
X179778110Y-57144353D01*
X179635658Y-57164834D01*
X179635656Y-57164834D01*
X179497700Y-57205342D01*
X179366784Y-57265129D01*
X179366782Y-57265129D01*
X179245831Y-57342860D01*
X179137060Y-57437108D01*
X179137058Y-57437110D01*
X179042911Y-57545762D01*
X179042896Y-57545783D01*
X178965102Y-57666833D01*
X178965089Y-57666856D01*
X178905183Y-57798033D01*
X178904743Y-57799758D01*
X178864821Y-57935717D01*
X178864818Y-57935727D01*
X178844358Y-58078038D01*
X178844358Y-58134397D01*
X178844353Y-58134414D01*
X178844353Y-58665556D01*
X178844358Y-58665603D01*
X178844358Y-58721962D01*
X178863558Y-58855499D01*
X178863558Y-58855502D01*
X178864819Y-58864276D01*
X178905367Y-59002368D01*
X178905372Y-59002381D01*
X178965089Y-59133143D01*
X178965102Y-59133166D01*
X179042896Y-59254216D01*
X179042911Y-59254237D01*
X179117541Y-59340364D01*
X179137057Y-59362887D01*
X179137056Y-59362887D01*
X179181701Y-59401571D01*
X179219477Y-59460348D01*
X179224500Y-59495285D01*
X179224500Y-59867255D01*
X179222775Y-59882872D01*
X179223061Y-59882899D01*
X179222326Y-59890665D01*
X179224500Y-59959814D01*
X179224500Y-59989343D01*
X179224501Y-59989360D01*
X179225368Y-59996231D01*
X179225826Y-60002050D01*
X179227290Y-60048624D01*
X179227291Y-60048627D01*
X179232880Y-60067867D01*
X179236824Y-60086911D01*
X179239336Y-60106791D01*
X179256490Y-60150119D01*
X179258382Y-60155647D01*
X179271381Y-60200388D01*
X179281580Y-60217634D01*
X179290138Y-60235103D01*
X179297514Y-60253732D01*
X179324898Y-60291423D01*
X179328106Y-60296307D01*
X179351827Y-60336416D01*
X179351833Y-60336424D01*
X179365990Y-60350580D01*
X179378628Y-60365376D01*
X179390405Y-60381586D01*
X179390406Y-60381587D01*
X179426309Y-60411288D01*
X179430620Y-60415210D01*
X180168448Y-61153039D01*
X180399197Y-61383788D01*
X180409022Y-61396051D01*
X180409243Y-61395869D01*
X180414214Y-61401878D01*
X180437441Y-61423689D01*
X180464635Y-61449226D01*
X180485529Y-61470120D01*
X180491011Y-61474373D01*
X180495443Y-61478157D01*
X180529418Y-61510062D01*
X180546976Y-61519714D01*
X180563235Y-61530395D01*
X180579064Y-61542673D01*
X180621838Y-61561182D01*
X180627056Y-61563738D01*
X180667908Y-61586197D01*
X180687316Y-61591180D01*
X180705717Y-61597480D01*
X180724104Y-61605437D01*
X180767488Y-61612308D01*
X180770119Y-61612725D01*
X180775839Y-61613909D01*
X180820981Y-61625500D01*
X180841016Y-61625500D01*
X180860414Y-61627026D01*
X180880194Y-61630159D01*
X180880195Y-61630160D01*
X180880195Y-61630159D01*
X180880196Y-61630160D01*
X180926583Y-61625775D01*
X180932422Y-61625500D01*
X195117257Y-61625500D01*
X195132877Y-61627224D01*
X195132904Y-61626939D01*
X195140660Y-61627671D01*
X195140667Y-61627673D01*
X195209814Y-61625500D01*
X195239350Y-61625500D01*
X195246228Y-61624630D01*
X195252041Y-61624172D01*
X195298627Y-61622709D01*
X195317869Y-61617117D01*
X195336912Y-61613174D01*
X195356792Y-61610664D01*
X195400122Y-61593507D01*
X195405646Y-61591617D01*
X195409396Y-61590527D01*
X195450390Y-61578618D01*
X195467629Y-61568422D01*
X195485103Y-61559862D01*
X195503727Y-61552488D01*
X195503727Y-61552487D01*
X195503732Y-61552486D01*
X195541449Y-61525082D01*
X195546305Y-61521892D01*
X195586420Y-61498170D01*
X195600589Y-61483999D01*
X195615379Y-61471368D01*
X195631587Y-61459594D01*
X195661299Y-61423676D01*
X195665212Y-61419376D01*
X197683788Y-59400801D01*
X197696042Y-59390986D01*
X197695859Y-59390764D01*
X197701866Y-59385792D01*
X197701877Y-59385786D01*
X197732775Y-59352882D01*
X197749227Y-59335364D01*
X197759671Y-59324918D01*
X197770120Y-59314471D01*
X197774379Y-59308978D01*
X197778152Y-59304561D01*
X197810062Y-59270582D01*
X197819713Y-59253024D01*
X197830396Y-59236761D01*
X197842673Y-59220936D01*
X197861185Y-59178153D01*
X197863738Y-59172941D01*
X197886197Y-59132092D01*
X197891180Y-59112680D01*
X197897481Y-59094280D01*
X197905437Y-59075896D01*
X197912729Y-59029852D01*
X197913906Y-59024171D01*
X197925500Y-58979019D01*
X197925500Y-58958982D01*
X197927027Y-58939582D01*
X197930160Y-58919803D01*
X197930160Y-58919800D01*
X197928730Y-58904680D01*
X197925772Y-58873394D01*
X197925500Y-58867599D01*
X197925500Y-34682738D01*
X197927223Y-34667121D01*
X197926938Y-34667094D01*
X197927672Y-34659332D01*
X197925500Y-34590203D01*
X197925500Y-34560651D01*
X197925500Y-34560650D01*
X197924629Y-34553759D01*
X197924172Y-34547945D01*
X197923341Y-34521505D01*
X197922709Y-34501373D01*
X197917122Y-34482144D01*
X197913174Y-34463084D01*
X197911551Y-34450233D01*
X197910664Y-34443208D01*
X197910663Y-34443206D01*
X197910663Y-34443204D01*
X197893512Y-34399887D01*
X197891619Y-34394358D01*
X197878618Y-34349609D01*
X197878616Y-34349606D01*
X197868423Y-34332371D01*
X197859861Y-34314894D01*
X197852487Y-34296270D01*
X197852486Y-34296268D01*
X197825079Y-34258545D01*
X197821888Y-34253686D01*
X197798172Y-34213583D01*
X197798165Y-34213574D01*
X197784006Y-34199415D01*
X197771368Y-34184619D01*
X197759594Y-34168413D01*
X197723688Y-34138709D01*
X197719376Y-34134786D01*
X194700803Y-31116212D01*
X194690980Y-31103950D01*
X194690759Y-31104134D01*
X194685786Y-31098123D01*
X194667159Y-31080631D01*
X194635364Y-31050773D01*
X194624919Y-31040328D01*
X194614475Y-31029883D01*
X194608986Y-31025625D01*
X194604561Y-31021847D01*
X194570582Y-30989938D01*
X194570580Y-30989936D01*
X194570577Y-30989935D01*
X194553029Y-30980288D01*
X194536763Y-30969604D01*
X194520933Y-30957325D01*
X194478168Y-30938818D01*
X194472922Y-30936248D01*
X194432093Y-30913803D01*
X194432092Y-30913802D01*
X194412693Y-30908822D01*
X194394281Y-30902518D01*
X194375898Y-30894562D01*
X194375892Y-30894560D01*
X194329874Y-30887272D01*
X194324152Y-30886087D01*
X194279021Y-30874500D01*
X194279019Y-30874500D01*
X194258984Y-30874500D01*
X194239586Y-30872973D01*
X194232162Y-30871797D01*
X194219805Y-30869840D01*
X194219804Y-30869840D01*
X194173416Y-30874225D01*
X194167578Y-30874500D01*
X166382743Y-30874500D01*
X166367122Y-30872775D01*
X166367095Y-30873061D01*
X166359333Y-30872326D01*
X166290172Y-30874500D01*
X166260649Y-30874500D01*
X166253778Y-30875367D01*
X166247959Y-30875825D01*
X166201374Y-30877289D01*
X166201368Y-30877290D01*
X166182126Y-30882880D01*
X166163087Y-30886823D01*
X166143217Y-30889334D01*
X166143203Y-30889337D01*
X166099883Y-30906488D01*
X166094358Y-30908380D01*
X166049613Y-30921380D01*
X166049610Y-30921381D01*
X166032366Y-30931579D01*
X166014905Y-30940133D01*
X165996274Y-30947510D01*
X165996262Y-30947517D01*
X165958570Y-30974902D01*
X165953687Y-30978109D01*
X165913580Y-31001829D01*
X165899414Y-31015995D01*
X165884624Y-31028627D01*
X165868414Y-31040404D01*
X165868411Y-31040407D01*
X165838710Y-31076309D01*
X165834777Y-31080631D01*
X162116208Y-34799199D01*
X162103951Y-34809020D01*
X162104134Y-34809241D01*
X162098123Y-34814213D01*
X162050772Y-34864636D01*
X162029889Y-34885519D01*
X162029877Y-34885532D01*
X162025621Y-34891017D01*
X162021837Y-34895447D01*
X161989937Y-34929418D01*
X161989936Y-34929420D01*
X161980284Y-34946976D01*
X161969610Y-34963226D01*
X161957329Y-34979061D01*
X161957324Y-34979068D01*
X161938815Y-35021838D01*
X161936245Y-35027084D01*
X161913803Y-35067906D01*
X161908822Y-35087307D01*
X161902521Y-35105710D01*
X161894562Y-35124102D01*
X161894561Y-35124105D01*
X161887271Y-35170127D01*
X161886087Y-35175846D01*
X161874501Y-35220972D01*
X161874500Y-35220982D01*
X161874500Y-35241016D01*
X161872973Y-35260415D01*
X161869840Y-35280194D01*
X161869840Y-35280195D01*
X161874225Y-35326583D01*
X161874500Y-35332421D01*
X161874500Y-40090547D01*
X161854815Y-40157586D01*
X161802011Y-40203341D01*
X161732853Y-40213285D01*
X161669297Y-40184260D01*
X161662819Y-40178228D01*
X155300803Y-33816212D01*
X155290980Y-33803950D01*
X155290759Y-33804134D01*
X155285786Y-33798123D01*
X155267159Y-33780631D01*
X155235364Y-33750773D01*
X155224919Y-33740328D01*
X155214475Y-33729883D01*
X155208986Y-33725625D01*
X155204561Y-33721847D01*
X155170582Y-33689938D01*
X155170580Y-33689936D01*
X155170577Y-33689935D01*
X155153029Y-33680288D01*
X155136763Y-33669604D01*
X155120933Y-33657325D01*
X155078168Y-33638818D01*
X155072922Y-33636248D01*
X155032093Y-33613803D01*
X155032092Y-33613802D01*
X155012693Y-33608822D01*
X154994281Y-33602518D01*
X154975898Y-33594562D01*
X154975892Y-33594560D01*
X154929874Y-33587272D01*
X154924152Y-33586087D01*
X154879021Y-33574500D01*
X154879019Y-33574500D01*
X154858984Y-33574500D01*
X154839586Y-33572973D01*
X154832162Y-33571797D01*
X154819805Y-33569840D01*
X154819804Y-33569840D01*
X154773416Y-33574225D01*
X154767578Y-33574500D01*
X133382743Y-33574500D01*
X133367122Y-33572775D01*
X133367096Y-33573061D01*
X133359334Y-33572327D01*
X133359333Y-33572327D01*
X133290186Y-33574500D01*
X133260649Y-33574500D01*
X133253766Y-33575369D01*
X133247949Y-33575826D01*
X133201373Y-33577290D01*
X133182129Y-33582881D01*
X133163079Y-33586825D01*
X133143211Y-33589334D01*
X133099884Y-33606488D01*
X133094358Y-33608379D01*
X133049614Y-33621379D01*
X133049610Y-33621381D01*
X133032366Y-33631579D01*
X133014905Y-33640133D01*
X132996274Y-33647510D01*
X132996262Y-33647517D01*
X132958570Y-33674902D01*
X132953687Y-33678109D01*
X132913580Y-33701829D01*
X132899414Y-33715995D01*
X132884624Y-33728627D01*
X132868414Y-33740404D01*
X132868411Y-33740407D01*
X132838710Y-33776309D01*
X132834777Y-33780631D01*
X130416208Y-36199199D01*
X130403951Y-36209020D01*
X130404134Y-36209241D01*
X130398123Y-36214213D01*
X130350772Y-36264636D01*
X130329889Y-36285519D01*
X130329877Y-36285532D01*
X130325621Y-36291017D01*
X130321837Y-36295447D01*
X130289937Y-36329418D01*
X130289936Y-36329420D01*
X130280284Y-36346976D01*
X130269610Y-36363226D01*
X130257329Y-36379061D01*
X130257324Y-36379068D01*
X130238815Y-36421838D01*
X130236245Y-36427084D01*
X130213803Y-36467906D01*
X130208822Y-36487307D01*
X130202521Y-36505710D01*
X130194562Y-36524102D01*
X130194561Y-36524105D01*
X130187271Y-36570127D01*
X130186087Y-36575846D01*
X130174501Y-36620972D01*
X130174500Y-36620982D01*
X130174500Y-36641016D01*
X130172973Y-36660415D01*
X130169840Y-36680194D01*
X130169840Y-36680195D01*
X129500500Y-36680195D01*
X129500500Y-30224500D01*
X129520185Y-30157461D01*
X129572989Y-30111706D01*
X129624500Y-30100500D01*
X198175500Y-30100500D01*
X198242539Y-30120185D01*
G37*
%TD.AperFunction*%
%TD*%
M02*
