M48
; DRILL file {KiCad 7.0.6} date Tue Aug  1 18:28:42 2023
; FORMAT={-:-/ absolute / inch / decimal}
; #@! TF.CreationDate,2023-08-01T18:28:42+01:00
; #@! TF.GenerationSoftware,Kicad,Pcbnew,7.0.6
; #@! TF.FileFunction,Plated,1,2,PTH
FMAT,2
INCH
; #@! TA.AperFunction,Plated,PTH,ComponentDrill
T1C0.0118
; #@! TA.AperFunction,Plated,PTH,ViaDrill
T2C0.0157
; #@! TA.AperFunction,Plated,PTH,ComponentDrill
T3C0.0394
%
G90
G05
T1
X6.4567Y-2.8346
X6.4567Y-2.874
X6.4567Y-2.9134
X6.4961Y-2.8346
X6.4961Y-2.874
X6.4961Y-2.9134
X6.5354Y-2.8346
X6.5354Y-2.874
X6.5354Y-2.9134
T2
X5.9567Y-3.6142
X6.0814Y-3.3054
X6.126Y-2.9213
X6.2165Y-2.6299
X6.252Y-3.3858
X6.3386Y-2.8051
X6.3425Y-2.8622
X6.3504Y-2.752
X6.4094Y-3.2992
X6.5433Y-3.2992
X6.6417Y-2.8937
X6.8189Y-3.2717
X6.8268Y-2.9567
X6.9291Y-2.9528
T3
X5.3819Y-1.5433
X5.5Y-1.8
X5.5Y-1.9
X5.5Y-2.0
X5.5Y-2.1
X5.5Y-2.2
X5.5Y-2.3
X5.5Y-2.4
X5.5Y-2.5
X5.5Y-2.7
X5.5Y-2.8
X5.5Y-2.9
X5.5Y-3.0
X5.5Y-3.1
X5.5Y-3.2
X5.5Y-3.3
X5.5Y-3.4
X5.5Y-3.5
X5.5Y-3.6
X5.5Y-3.7
X5.5Y-3.8
X5.5Y-3.9
X5.5Y-4.0
X5.5Y-4.1
X5.6Y-1.8
X5.6Y-1.9
X5.6Y-2.0
X5.6Y-2.1
X5.6Y-2.2
X5.6Y-2.3
X5.6Y-2.4
X5.6Y-2.5
X5.6Y-2.7
X5.6Y-2.8
X5.6Y-2.9
X5.6Y-3.0
X5.6Y-3.1
X5.6Y-3.2
X5.6Y-3.3
X5.6Y-3.4
X5.6Y-3.5
X5.6Y-3.6
X5.6Y-3.7
X5.6Y-3.8
X5.6Y-3.9
X5.6Y-4.0
X5.6Y-4.1
X5.6969Y-1.5433
X7.0Y-2.5
X7.0Y-2.6
X7.0Y-2.7
X7.0Y-2.8
X7.001Y-3.1
X7.001Y-3.2
X7.001Y-3.3
X7.001Y-3.4
X7.3Y-1.4
X7.3Y-1.5
X7.3Y-1.6
X7.3Y-1.7
X7.3Y-1.8
X7.3Y-1.9
X7.3Y-2.0
X7.3Y-2.1
X7.3Y-2.2
X7.3Y-2.3
X7.3Y-2.5
X7.3Y-2.6
X7.3Y-2.7
X7.3Y-2.8
X7.3Y-2.9
X7.3Y-3.0
X7.3Y-3.1
X7.3Y-3.2
X7.3Y-3.3
X7.3Y-3.4
X7.3Y-3.5
X7.3Y-3.6
X7.3Y-3.7
X7.3Y-3.8
X7.3Y-3.9
X7.3Y-4.0
X7.3Y-4.1
X7.4Y-1.4
X7.4Y-1.5
X7.4Y-1.6
X7.4Y-1.7
X7.4Y-1.8
X7.4Y-1.9
X7.4Y-2.0
X7.4Y-2.1
X7.4Y-2.2
X7.4Y-2.3
X7.4Y-2.5
X7.4Y-2.6
X7.4Y-2.7
X7.4Y-2.8
X7.4Y-2.9
X7.4Y-3.0
X7.4Y-3.1
X7.4Y-3.2
X7.4Y-3.3
X7.4Y-3.4
X7.4Y-3.5
X7.4Y-3.6
X7.4Y-3.7
X7.4Y-3.8
X7.4Y-3.9
X7.4Y-4.0
X7.4Y-4.1
T0
M30
