M48
; DRILL file {KiCad 7.0.9} date Fri Feb  2 16:30:59 2024
; FORMAT={-:-/ absolute / inch / decimal}
; #@! TF.CreationDate,2024-02-02T16:30:59+00:00
; #@! TF.GenerationSoftware,Kicad,Pcbnew,7.0.9
; #@! TF.FileFunction,NonPlated,1,2,NPTH
FMAT,2
INCH
; #@! TA.AperFunction,NonPlated,NPTH,ComponentDrill
T1C0.0787
; #@! TA.AperFunction,NonPlated,NPTH,ComponentDrill
T2C0.0984
; #@! TA.AperFunction,NonPlated,NPTH,ComponentDrill
T3C0.1311
%
G90
G05
T1
X4.1969Y-2.6969
X4.1969Y-3.5236
X4.1969Y-4.3504
X4.5433Y-2.6969
X4.5433Y-3.5236
X4.5433Y-4.3504
X5.063Y-3.5236
X5.063Y-4.3504
X5.4094Y-3.5236
X5.4094Y-4.3504
X6.0079Y-2.6969
X6.0079Y-3.5236
X6.0079Y-4.3504
X6.0079Y-5.1772
X6.3543Y-2.6969
X6.3543Y-3.5236
X6.3543Y-4.3504
X6.3543Y-5.1772
T2
X4.2677Y-5.1575
X4.8031Y-5.1575
X4.9606Y-5.9449
X5.3346Y-5.1575
X5.4134Y-5.9449
X5.9252Y-5.9449
X6.4173Y-5.9449
T3
X4.1075Y-5.9921
X4.5575Y-5.9921
T0
M30
