M48
; DRILL file {KiCad 7.0.9} date Fri Feb  2 16:30:59 2024
; FORMAT={-:-/ absolute / inch / decimal}
; #@! TF.CreationDate,2024-02-02T16:30:59+00:00
; #@! TF.GenerationSoftware,Kicad,Pcbnew,7.0.9
; #@! TF.FileFunction,Plated,1,2,PTH
FMAT,2
INCH
; #@! TA.AperFunction,Plated,PTH,ViaDrill
T1C0.0157
; #@! TA.AperFunction,Plated,PTH,ComponentDrill
T2C0.0197
; #@! TA.AperFunction,Plated,PTH,ComponentDrill
T3C0.0354
; #@! TA.AperFunction,Plated,PTH,ComponentDrill
T4C0.0394
; #@! TA.AperFunction,Plated,PTH,ComponentDrill
T5C0.0728
%
G90
G05
T1
X3.9646Y-5.7047
X3.9764Y-5.0157
X3.9803Y-4.5984
X4.0512Y-3.5157
X4.0551Y-2.1063
X4.0787Y-6.2165
X4.0827Y-5.7835
X4.1102Y-3.9449
X4.1339Y-4.5079
X4.2126Y-3.3504
X4.2283Y-4.0394
X4.3622Y-3.9252
X4.4331Y-2.7677
X4.4961Y-2.2598
X4.5118Y-3.9488
X4.5118Y-4.5157
X4.5276Y-5.0906
X4.5315Y-5.8543
X4.5394Y-5.4449
X4.5433Y-3.7165
X4.5591Y-4.7323
X4.5709Y-4.9291
X4.6299Y-2.815
X4.7559Y-2.9094
X4.815Y-2.0433
X4.8701Y-3.8031
X4.874Y-3.9646
X4.874Y-4.4173
X4.8898Y-3.0472
X4.9252Y-4.9646
X4.9567Y-2.9134
X5.0787Y-5.1299
X5.0945Y-5.748
X5.1063Y-3.0827
X5.185Y-3.9803
X5.2087Y-4.9528
X5.3307Y-3.6772
X5.3622Y-4.4921
X5.3661Y-2.8346
X5.3898Y-3.0157
X5.437Y-3.8425
X5.5236Y-2.7008
X5.5354Y-4.9449
X5.5433Y-5.752
X5.5551Y-2.9764
X5.685Y-2.8346
X5.689Y-3.4803
X5.7165Y-2.4134
X5.7362Y-4.185
X5.7677Y-4.7874
X5.8031Y-2.9724
X5.8031Y-5.4882
X5.815Y-3.2362
X5.8701Y-2.752
X6.063Y-5.7362
X6.126Y-4.4843
X6.1299Y-3.6496
X6.1732Y-5.0236
X6.1811Y-2.752
X6.2677Y-2.1969
X6.2677Y-3.1417
X6.2717Y-3.6575
X6.3189Y-5.3425
X6.3228Y-4.8858
X6.3307Y-4.2205
X6.3976Y-4.5866
X6.4055Y-3.811
X6.4055Y-4.0669
X6.4646Y-3.0118
X6.4764Y-5.4016
X6.4803Y-4.9646
X6.5354Y-2.8622
X6.5354Y-4.8819
X6.5709Y-3.9449
X6.5748Y-5.6575
X6.5787Y-5.8465
X6.6299Y-6.248
T3
X4.1575Y-5.7421
X4.1626Y-2.126
X4.2075Y-5.6421
X4.2575Y-5.7421
X4.2626Y-2.126
X4.3075Y-5.6421
X4.3575Y-5.7421
X4.4075Y-5.6421
X4.4575Y-5.7421
X4.5075Y-5.6421
X6.4134Y-2.126
X6.4921Y-2.126
X6.5709Y-2.126
T4
X4.0433Y-2.7165
X4.0433Y-2.8165
X4.0433Y-2.9165
X4.0433Y-3.0165
X4.0433Y-3.1165
X4.0433Y-3.2165
X4.0433Y-3.3165
X4.0433Y-3.4165
X4.0433Y-4.8661
X4.0433Y-4.9661
X4.0433Y-5.0661
X4.0433Y-5.1661
X4.0433Y-5.2661
X4.0433Y-5.3661
X4.0433Y-5.4661
X4.0433Y-5.5661
X4.2717Y-2.9724
X4.2717Y-3.7992
X4.2717Y-4.626
X4.3701Y-2.9724
X4.3701Y-3.7992
X4.3701Y-4.626
X4.4685Y-2.9724
X4.4685Y-3.7992
X4.4685Y-4.626
X5.1378Y-3.7992
X5.1378Y-4.626
X5.2362Y-3.7992
X5.2362Y-4.626
X5.3346Y-3.7992
X5.3346Y-4.626
X6.0827Y-2.9724
X6.0827Y-3.7992
X6.0827Y-4.626
X6.0827Y-5.4528
X6.1811Y-2.9724
X6.1811Y-3.7992
X6.1811Y-4.626
X6.1811Y-5.4528
X6.2795Y-2.9724
X6.2795Y-3.7992
X6.2795Y-4.626
X6.2795Y-5.4528
X6.6102Y-2.7165
X6.6102Y-2.8165
X6.6102Y-2.9165
X6.6102Y-3.0165
X6.6102Y-3.1165
X6.6102Y-3.2165
X6.6102Y-3.3165
X6.6102Y-3.4165
X6.6102Y-4.8661
X6.6102Y-4.9661
X6.6102Y-5.0661
X6.6102Y-5.1661
X6.6102Y-5.2661
X6.6102Y-5.3661
X6.6102Y-5.4661
X6.6102Y-5.5661
T5
X5.2362Y-2.4921
X5.2362Y-2.6772
X5.2362Y-2.8622
T2
G00X4.248Y-4.9638
M15
G01X4.2874Y-4.9638
M16
G05
G00X4.248Y-5.2906
M15
G01X4.2874Y-5.2906
M16
G05
G00X4.248Y-5.4126
M15
G01X4.2874Y-5.4126
M16
G05
G00X4.7835Y-4.9638
M15
G01X4.8228Y-4.9638
M16
G05
G00X4.7835Y-5.2906
M15
G01X4.8228Y-5.2906
M16
G05
G00X4.7835Y-5.4126
M15
G01X4.8228Y-5.4126
M16
G05
G00X4.9409Y-5.7512
M15
G01X4.9803Y-5.7512
M16
G05
G00X4.9409Y-6.078
M15
G01X4.9803Y-6.078
M16
G05
G00X4.9409Y-6.2
M15
G01X4.9803Y-6.2
M16
G05
G00X5.315Y-4.9638
M15
G01X5.3543Y-4.9638
M16
G05
G00X5.315Y-5.2906
M15
G01X5.3543Y-5.2906
M16
G05
G00X5.315Y-5.4126
M15
G01X5.3543Y-5.4126
M16
G05
G00X5.3937Y-5.7512
M15
G01X5.4331Y-5.7512
M16
G05
G00X5.3937Y-6.078
M15
G01X5.4331Y-6.078
M16
G05
G00X5.3937Y-6.2
M15
G01X5.4331Y-6.2
M16
G05
G00X5.9055Y-5.7512
M15
G01X5.9449Y-5.7512
M16
G05
G00X5.9055Y-6.078
M15
G01X5.9449Y-6.078
M16
G05
G00X5.9055Y-6.2
M15
G01X5.9449Y-6.2
M16
G05
G00X6.3976Y-5.7512
M15
G01X6.437Y-5.7512
M16
G05
G00X6.3976Y-6.078
M15
G01X6.437Y-6.078
M16
G05
G00X6.3976Y-6.2
M15
G01X6.437Y-6.2
M16
G05
T0
M30
