%TF.GenerationSoftware,KiCad,Pcbnew,7.0.9*%
%TF.CreationDate,2024-02-02T16:30:56+00:00*%
%TF.ProjectId,QuadMod_Controls,51756164-4d6f-4645-9f43-6f6e74726f6c,rev?*%
%TF.SameCoordinates,Original*%
%TF.FileFunction,Legend,Bot*%
%TF.FilePolarity,Positive*%
%FSLAX46Y46*%
G04 Gerber Fmt 4.6, Leading zero omitted, Abs format (unit mm)*
G04 Created by KiCad (PCBNEW 7.0.9) date 2024-02-02 16:30:56*
%MOMM*%
%LPD*%
G01*
G04 APERTURE LIST*
%ADD10C,0.150000*%
%ADD11C,0.120000*%
G04 APERTURE END LIST*
D10*
X103033333Y-120284819D02*
X103033333Y-120999104D01*
X103033333Y-120999104D02*
X103080952Y-121141961D01*
X103080952Y-121141961D02*
X103176190Y-121237200D01*
X103176190Y-121237200D02*
X103319047Y-121284819D01*
X103319047Y-121284819D02*
X103414285Y-121284819D01*
X102128571Y-120618152D02*
X102128571Y-121284819D01*
X102366666Y-120237200D02*
X102604761Y-120951485D01*
X102604761Y-120951485D02*
X101985714Y-120951485D01*
X168233333Y-120284819D02*
X168233333Y-120999104D01*
X168233333Y-120999104D02*
X168280952Y-121141961D01*
X168280952Y-121141961D02*
X168376190Y-121237200D01*
X168376190Y-121237200D02*
X168519047Y-121284819D01*
X168519047Y-121284819D02*
X168614285Y-121284819D01*
X167852380Y-120284819D02*
X167233333Y-120284819D01*
X167233333Y-120284819D02*
X167566666Y-120665771D01*
X167566666Y-120665771D02*
X167423809Y-120665771D01*
X167423809Y-120665771D02*
X167328571Y-120713390D01*
X167328571Y-120713390D02*
X167280952Y-120761009D01*
X167280952Y-120761009D02*
X167233333Y-120856247D01*
X167233333Y-120856247D02*
X167233333Y-121094342D01*
X167233333Y-121094342D02*
X167280952Y-121189580D01*
X167280952Y-121189580D02*
X167328571Y-121237200D01*
X167328571Y-121237200D02*
X167423809Y-121284819D01*
X167423809Y-121284819D02*
X167709523Y-121284819D01*
X167709523Y-121284819D02*
X167804761Y-121237200D01*
X167804761Y-121237200D02*
X167852380Y-121189580D01*
X103033333Y-65684819D02*
X103033333Y-66399104D01*
X103033333Y-66399104D02*
X103080952Y-66541961D01*
X103080952Y-66541961D02*
X103176190Y-66637200D01*
X103176190Y-66637200D02*
X103319047Y-66684819D01*
X103319047Y-66684819D02*
X103414285Y-66684819D01*
X102604761Y-65780057D02*
X102557142Y-65732438D01*
X102557142Y-65732438D02*
X102461904Y-65684819D01*
X102461904Y-65684819D02*
X102223809Y-65684819D01*
X102223809Y-65684819D02*
X102128571Y-65732438D01*
X102128571Y-65732438D02*
X102080952Y-65780057D01*
X102080952Y-65780057D02*
X102033333Y-65875295D01*
X102033333Y-65875295D02*
X102033333Y-65970533D01*
X102033333Y-65970533D02*
X102080952Y-66113390D01*
X102080952Y-66113390D02*
X102652380Y-66684819D01*
X102652380Y-66684819D02*
X102033333Y-66684819D01*
X168233333Y-65684819D02*
X168233333Y-66399104D01*
X168233333Y-66399104D02*
X168280952Y-66541961D01*
X168280952Y-66541961D02*
X168376190Y-66637200D01*
X168376190Y-66637200D02*
X168519047Y-66684819D01*
X168519047Y-66684819D02*
X168614285Y-66684819D01*
X167233333Y-66684819D02*
X167804761Y-66684819D01*
X167519047Y-66684819D02*
X167519047Y-65684819D01*
X167519047Y-65684819D02*
X167614285Y-65827676D01*
X167614285Y-65827676D02*
X167709523Y-65922914D01*
X167709523Y-65922914D02*
X167804761Y-65970533D01*
D11*
%TO.C,J4*%
X101370000Y-122270000D02*
X101370000Y-123600000D01*
X104030000Y-124870000D02*
X101370000Y-124870000D01*
X101370000Y-124870000D02*
X101370000Y-142710000D01*
X104030000Y-142710000D02*
X101370000Y-142710000D01*
X104030000Y-124870000D02*
X104030000Y-142710000D01*
X102700000Y-122270000D02*
X101370000Y-122270000D01*
%TO.C,J3*%
X166570000Y-122270000D02*
X166570000Y-123600000D01*
X169230000Y-124870000D02*
X166570000Y-124870000D01*
X166570000Y-124870000D02*
X166570000Y-142710000D01*
X169230000Y-142710000D02*
X166570000Y-142710000D01*
X169230000Y-124870000D02*
X169230000Y-142710000D01*
X167900000Y-122270000D02*
X166570000Y-122270000D01*
%TO.C,J2*%
X101370000Y-67670000D02*
X101370000Y-69000000D01*
X104030000Y-70270000D02*
X101370000Y-70270000D01*
X101370000Y-70270000D02*
X101370000Y-88110000D01*
X104030000Y-88110000D02*
X101370000Y-88110000D01*
X104030000Y-70270000D02*
X104030000Y-88110000D01*
X102700000Y-67670000D02*
X101370000Y-67670000D01*
%TO.C,J1*%
X166570000Y-67670000D02*
X166570000Y-69000000D01*
X169230000Y-70270000D02*
X166570000Y-70270000D01*
X166570000Y-70270000D02*
X166570000Y-88110000D01*
X169230000Y-88110000D02*
X166570000Y-88110000D01*
X169230000Y-70270000D02*
X169230000Y-88110000D01*
X167900000Y-67670000D02*
X166570000Y-67670000D01*
%TD*%
M02*
